<svg width="200" height="56" viewBox="0 0 200 56" fill="none" xmlns="http://www.w3.org/2000/svg">
<path d="M27.6388 1.10907C22.4444 1.10907 17.5222 2.63407 13.3499 5.48443C13.3499 5.48443 13.0277 5.69516 12.5222 6.0778C12.4722 6.11661 12.4222 6.14989 12.3722 6.18871C12.1777 6.33289 11.9666 6.49925 11.7388 6.68225C11.6999 6.71553 11.6555 6.7488 11.6111 6.78207C11.6166 6.78207 11.6166 6.77652 11.6222 6.77652C10.4611 7.71925 8.92772 9.10562 7.69995 10.7415H7.7055C4.1555 15.2112 2.22217 20.7122 2.22217 26.4795C2.22217 33.0065 4.69994 39.2063 9.19994 43.9422C9.29994 44.0032 9.39439 44.0586 9.49439 44.1141C9.58883 44.1695 9.68328 44.2305 9.77772 44.2804C9.88328 44.3414 9.98884 44.3969 10.0999 44.4523C10.1944 44.5078 10.2944 44.5577 10.3944 44.6076C10.4999 44.6631 10.6111 44.713 10.7166 44.7684C10.8166 44.8183 10.9166 44.8682 11.0166 44.9182C11.1222 44.9681 11.2333 45.018 11.3444 45.0679C11.4444 45.1123 11.5444 45.1622 11.6499 45.2065C11.7611 45.2509 11.8722 45.2952 11.9833 45.3396C12.0888 45.384 12.1888 45.4283 12.2944 45.4672C12.4055 45.5115 12.5166 45.5503 12.6277 45.5947C12.7333 45.6335 12.8333 45.6779 12.9444 45.7112C13.0555 45.75 13.1722 45.7888 13.2833 45.8276C13.3888 45.8664 13.4944 45.8997 13.5999 45.933C13.7166 45.9718 13.8277 45.9995 13.9444 46.0328C14.0555 46.0661 14.1611 46.0993 14.2666 46.1271C14.3833 46.1603 14.4999 46.1881 14.6166 46.2213C14.7222 46.2491 14.8277 46.2768 14.9388 46.3045C15.0555 46.3322 15.1777 46.36 15.2944 46.3877C15.3999 46.4099 15.5111 46.4376 15.6166 46.4598C15.7333 46.4875 15.8555 46.5042 15.9777 46.5263C16.0833 46.5485 16.1888 46.5707 16.2999 46.5873C16.4222 46.6095 16.5499 46.6262 16.6722 46.6428C16.7777 46.6594 16.8833 46.6761 16.9888 46.6927C17.1166 46.7093 17.2444 46.726 17.3777 46.7371C17.4833 46.7482 17.5833 46.7648 17.6833 46.7759C17.8166 46.787 17.9555 46.7981 18.0944 46.8092C18.1888 46.8147 18.2888 46.8258 18.3833 46.8313C18.5388 46.8424 18.6999 46.848 18.8555 46.8535C18.9277 46.8591 19.0055 46.8591 19.0777 46.8646C19.3111 46.8702 19.5444 46.8757 19.7777 46.8757C22.4388 46.8757 25.0277 46.3711 27.4777 45.3784C30.1888 44.2749 32.6166 42.6168 34.6166 40.504C35.2833 39.7997 35.8999 39.0511 36.4666 38.2525C36.6055 38.0584 36.7388 37.8643 36.8666 37.6647C36.9055 37.6092 36.9444 37.5482 36.9833 37.4872C37.0777 37.3431 37.1722 37.1933 37.2611 37.0436C37.2944 36.9826 37.3333 36.9272 37.3722 36.8662C37.4888 36.6665 37.6055 36.4669 37.7222 36.2617C37.7333 36.2395 37.7444 36.2118 37.7611 36.1896C37.8611 36.0066 37.9611 35.8181 38.0499 35.6351C38.0777 35.5741 38.1111 35.5075 38.1444 35.4465C38.2277 35.2802 38.3055 35.1193 38.3833 34.953C38.4055 34.9031 38.4333 34.8532 38.4499 34.7977C38.5444 34.5925 38.6333 34.3873 38.7166 34.1822C38.2277 34.8809 37.6611 35.5408 37.0333 36.1508C34.5055 38.5908 31.1722 39.9328 27.6555 39.9328C24.1388 39.9328 20.8055 38.5908 18.2777 36.1508C15.7499 33.7163 14.2944 30.4501 14.1722 26.962C14.1666 26.8511 14.1722 26.7402 14.1722 26.6348V26.4851C14.1722 26.3243 14.1722 26.169 14.1777 26.0082H14.1722C14.1944 25.0654 14.2777 24.1282 14.4222 23.2077C14.4222 23.2022 14.4222 23.1966 14.4277 23.1911C14.4611 22.9526 14.5055 22.7197 14.5499 22.4868C14.5611 22.4369 14.5666 22.3925 14.5777 22.3426C14.6111 22.1596 14.6499 21.9766 14.6944 21.7992C14.7166 21.7049 14.7333 21.6106 14.7555 21.5163C14.7833 21.4054 14.8111 21.2945 14.8388 21.1836C14.8777 21.0228 14.9222 20.8675 14.9666 20.7067C14.9944 20.6235 15.0166 20.5348 15.0388 20.4516C15.0944 20.2742 15.1499 20.0967 15.2055 19.9192C15.2277 19.8527 15.2499 19.7862 15.2722 19.7196C15.3333 19.5311 15.4055 19.337 15.4722 19.1484C15.4888 19.093 15.5111 19.0431 15.5333 18.9876C15.6055 18.788 15.6888 18.5883 15.7666 18.3942C15.7833 18.3499 15.7999 18.3111 15.8222 18.2667C15.9055 18.0615 15.9999 17.8563 16.0888 17.6567C16.1055 17.6234 16.1222 17.5902 16.1333 17.5569C16.2333 17.3462 16.3277 17.141 16.4333 16.9358L16.4722 16.8582C16.5777 16.6474 16.6888 16.4367 16.8055 16.2315C16.8166 16.2093 16.8277 16.1872 16.8444 16.165C16.9611 15.9543 17.0833 15.7435 17.2055 15.5383C17.2166 15.5217 17.2222 15.5051 17.2388 15.4884C17.3666 15.2777 17.4999 15.067 17.6388 14.8563C17.6444 14.8452 17.6499 14.8341 17.6555 14.8285C17.7944 14.6122 17.9388 14.4015 18.0888 14.1908C18.2277 13.9912 18.3722 13.7971 18.5222 13.603C18.5722 13.5364 18.6222 13.4754 18.6666 13.4144C18.7666 13.2869 18.8666 13.1538 18.9722 13.0318C19.0333 12.9597 19.0944 12.8876 19.1555 12.81C19.2499 12.6991 19.3444 12.5826 19.4388 12.4717C19.5055 12.3941 19.5722 12.322 19.6444 12.2499C19.7388 12.1445 19.8333 12.0392 19.9333 11.9338C20.0055 11.8562 20.0722 11.7841 20.1444 11.712C20.2444 11.6122 20.3388 11.5123 20.4388 11.4125C20.5111 11.3404 20.5833 11.2683 20.6611 11.1963C20.7611 11.0964 20.8666 11.0022 20.9666 10.9079C21.0388 10.8358 21.1166 10.7693 21.1888 10.7027C21.2944 10.6084 21.4055 10.5142 21.5111 10.4199C21.5833 10.3533 21.6611 10.2923 21.7333 10.2258C21.8499 10.1315 21.9666 10.0317 22.0833 9.93743C22.1499 9.88198 22.2222 9.82098 22.2944 9.76552C22.4277 9.66016 22.5666 9.5548 22.7055 9.44943C22.7611 9.41061 22.8166 9.36625 22.8722 9.32743C23.0666 9.18325 23.2666 9.04461 23.4611 8.90598C23.4888 8.88934 23.5166 8.87271 23.5388 8.85607C23.7111 8.73962 23.8888 8.62316 24.0666 8.51225C24.1333 8.46789 24.2055 8.42353 24.2777 8.38471C24.4111 8.30153 24.5444 8.21834 24.6833 8.13516C24.7666 8.08525 24.8499 8.04089 24.9333 7.99098C24.9666 7.97434 24.9999 7.95216 25.0333 7.93552C25.6499 7.5917 27.0333 6.87634 28.7222 6.29407C28.7333 6.28852 28.7499 6.28298 28.7611 6.28298C28.8388 6.25525 28.9166 6.23307 28.9944 6.20534C29.0777 6.17762 29.1611 6.14989 29.2444 6.12771C29.3222 6.10553 29.3999 6.0778 29.4777 6.05561C29.5666 6.03343 29.65 6.00571 29.7388 5.98352C29.8166 5.96134 29.8888 5.93916 29.9666 5.92252C30.0499 5.90034 30.1388 5.87816 30.2277 5.85598C30.3055 5.8338 30.3777 5.81716 30.4555 5.79498C30.5388 5.7728 30.6222 5.75616 30.7055 5.73398C30.7833 5.71734 30.8666 5.69516 30.9444 5.67852C31.0333 5.65634 31.1222 5.63971 31.2111 5.62307C31.2888 5.60643 31.3666 5.5898 31.4388 5.5787C31.5277 5.56207 31.6222 5.54543 31.7111 5.5288C31.7888 5.51216 31.8611 5.50107 31.9388 5.48998C32.0277 5.47889 32.1222 5.46225 32.2166 5.44561C32.2888 5.43452 32.3666 5.42343 32.4388 5.41234C32.5333 5.40125 32.6277 5.38462 32.7222 5.37353C32.7944 5.36243 32.8722 5.35134 32.9444 5.3458C33.0388 5.33471 33.1388 5.32361 33.2333 5.31807C33.3055 5.30698 33.3777 5.30143 33.4499 5.29589C33.5499 5.2848 33.6499 5.27925 33.7444 5.27371C33.8166 5.26816 33.8888 5.26262 33.9611 5.25707C34.0666 5.25153 34.1666 5.24598 34.2722 5.23489C34.3388 5.22934 34.4055 5.22934 34.4722 5.2238C34.5888 5.21825 34.7 5.21271 34.8166 5.21271C34.8722 5.21271 34.9277 5.20716 34.9833 5.20716C35.1555 5.20161 35.3277 5.20161 35.4999 5.20161C35.7166 5.20161 35.9388 5.20716 36.1555 5.21271C36.2166 5.21271 36.2777 5.21825 36.3388 5.21825C36.5111 5.2238 36.6833 5.23489 36.8555 5.24598C36.9055 5.25152 36.9555 5.25153 37.0055 5.25707C37.2222 5.27371 37.4388 5.29034 37.6555 5.31252C37.7 5.31807 37.75 5.32362 37.7944 5.32916C37.9722 5.3458 38.1444 5.36798 38.3166 5.39016C38.3777 5.39571 38.4388 5.4068 38.4999 5.41234C38.7055 5.44007 38.9055 5.47334 39.1055 5.50662C39.1166 5.51216 39.1277 5.51216 39.1444 5.51216C39.3611 5.55098 39.5722 5.5898 39.7833 5.63416C39.8388 5.64525 39.9 5.65634 39.9555 5.67298C40.1222 5.7118 40.2888 5.75062 40.4555 5.78389C40.5055 5.80052 40.5555 5.80607 40.6111 5.82271C40.8222 5.87261 41.0277 5.92807 41.2388 5.98352C41.2777 5.99462 41.3166 6.0057 41.3555 6.0168C41.5277 6.0667 41.6999 6.11661 41.8666 6.17207C41.9277 6.1887 41.9833 6.21089 42.0444 6.22753C42.2277 6.28298 42.4111 6.34952 42.5888 6.41052C42.6111 6.42161 42.6388 6.42716 42.6611 6.4327C42.8611 6.5048 43.0611 6.58243 43.2611 6.66007C43.3166 6.68225 43.3722 6.70443 43.4277 6.72661C43.5055 6.75434 43.5777 6.78207 43.6499 6.81534C39.1499 3.09989 33.5666 1.10907 27.6388 1.10907Z" fill="#D2006E"/>
<path d="M28.3943 52.4156C33.5887 52.4156 38.5109 50.8906 42.6832 48.0403C42.6832 48.0403 43.0054 47.8295 43.5109 47.4469C43.5609 47.4081 43.6109 47.3693 43.6609 47.336C43.8554 47.1918 44.0665 47.0255 44.2943 46.8425C44.3332 46.8092 44.3776 46.7759 44.4221 46.7426C44.4165 46.7426 44.4165 46.7482 44.4109 46.7482C45.5721 45.8055 47.1054 44.4191 48.3332 42.7887H48.3276C51.8776 38.3191 53.8109 32.818 53.8109 27.0507C53.8109 20.5237 51.3332 14.3239 46.8332 9.58809C46.7332 9.52709 46.6387 9.47164 46.5387 9.41619C46.4443 9.36073 46.3498 9.30528 46.2498 9.24982C46.1443 9.18882 46.0332 9.13337 45.9276 9.07791C45.8332 9.02246 45.7332 8.97255 45.6332 8.92264C45.5276 8.86718 45.4165 8.81728 45.3109 8.76182C45.2109 8.71191 45.1109 8.662 45.0109 8.61209C44.8998 8.56218 44.7943 8.51228 44.6832 8.46237C44.5832 8.418 44.4832 8.3681 44.3776 8.32373C44.2665 8.27937 44.1554 8.235 44.0443 8.19064C43.9387 8.14627 43.8387 8.10191 43.7332 8.06309C43.6221 8.01873 43.5109 7.97991 43.3998 7.93555C43.2943 7.89673 43.1943 7.85237 43.0832 7.81909C42.9721 7.78027 42.8554 7.74146 42.7443 7.70264C42.6387 7.66382 42.5332 7.63055 42.4276 7.59727C42.3165 7.55846 42.1998 7.53073 42.0832 7.49746C41.9721 7.46418 41.8665 7.43091 41.7609 7.40318C41.6443 7.36991 41.5276 7.34219 41.4109 7.31446C41.3054 7.28673 41.1943 7.259 41.0887 7.23128C40.9721 7.20355 40.8498 7.17582 40.7332 7.14809C40.6276 7.12591 40.5165 7.09819 40.4109 7.076C40.2943 7.04828 40.1721 7.03164 40.0498 7.00946C39.9443 6.98728 39.8387 6.96509 39.7276 6.94846C39.6054 6.92628 39.4776 6.90964 39.3554 6.893C39.2498 6.87637 39.1443 6.85973 39.0387 6.84309C38.9109 6.82646 38.7832 6.80982 38.6554 6.79873C38.5498 6.78764 38.4498 6.771 38.3498 6.75991C38.2165 6.74882 38.0776 6.73773 37.9443 6.72664C37.8498 6.72109 37.7498 6.71 37.6554 6.70446C37.4998 6.69336 37.3387 6.68782 37.1832 6.68228C37.1054 6.67673 37.0332 6.67118 36.9609 6.67118C36.7276 6.66564 36.4943 6.6601 36.2609 6.6601C33.5998 6.6601 31.0109 7.16473 28.5665 8.15737C25.8554 9.26091 23.4276 10.919 21.4276 13.0318C20.7609 13.7361 20.1443 14.4847 19.5776 15.2833C19.4387 15.4774 19.3054 15.6715 19.1776 15.8711C19.1387 15.9265 19.0998 15.9875 19.0609 16.0485C18.9665 16.1927 18.8721 16.3425 18.7832 16.4922C18.7498 16.5532 18.7109 16.6086 18.6721 16.6696C18.5554 16.8693 18.4387 17.0689 18.3276 17.2741C18.3165 17.2963 18.3054 17.324 18.2887 17.3462C18.1887 17.5292 18.0943 17.7177 17.9998 17.9007C17.9721 17.9617 17.9387 18.0283 17.9054 18.0893C17.8221 18.2556 17.7443 18.4165 17.6721 18.5828C17.6498 18.6327 17.6221 18.6826 17.6054 18.7381C17.5109 18.9433 17.4221 19.1485 17.3387 19.3536C17.8276 18.6549 18.3943 17.995 19.0221 17.385C21.5498 14.945 24.8832 13.603 28.3943 13.603C31.9109 13.603 35.2443 14.945 37.7721 17.385C40.2943 19.8195 41.7554 23.0857 41.8721 26.5738C41.8776 26.6847 41.8721 26.7956 41.8721 26.901V27.0507C41.8721 27.2115 41.8721 27.3668 41.8665 27.5276H41.8721C41.8498 28.4704 41.7665 29.4076 41.6221 30.3281C41.6221 30.3336 41.6221 30.3392 41.6165 30.3447C41.5776 30.5832 41.5387 30.8161 41.4943 31.049C41.4832 31.0989 41.4776 31.1433 41.4665 31.1932C41.4332 31.3762 41.3943 31.5592 41.3498 31.7366C41.3276 31.8309 41.3109 31.9252 41.2887 32.0195C41.2609 32.1304 41.2332 32.2413 41.2054 32.3522C41.1665 32.513 41.1221 32.6683 41.0776 32.8291C41.0498 32.9123 41.0276 33.001 41.0054 33.0842C40.9498 33.2616 40.8943 33.4391 40.8387 33.6166C40.8165 33.6831 40.7943 33.7496 40.7721 33.8162C40.7109 34.0047 40.6443 34.1988 40.5721 34.3874C40.5554 34.4428 40.5332 34.4927 40.5109 34.5482C40.4387 34.7478 40.3554 34.9475 40.2776 35.1416C40.2609 35.1859 40.2443 35.2247 40.2221 35.2691C40.1387 35.4743 40.0443 35.6795 39.9554 35.8791C39.9387 35.9124 39.9221 35.9456 39.9109 35.9789C39.8109 36.1896 39.7109 36.3948 39.6109 36.6L39.5721 36.6776C39.4665 36.8884 39.3554 37.0991 39.2387 37.3043C39.2276 37.3265 39.2165 37.3486 39.1998 37.3708C39.0832 37.5815 38.9609 37.7923 38.8387 37.9975C38.8276 38.0141 38.8221 38.0307 38.8109 38.0474C38.6832 38.2581 38.5498 38.4688 38.4109 38.6796C38.4054 38.6906 38.3998 38.7017 38.3943 38.7073C38.2554 38.9235 38.1109 39.1343 37.9609 39.345C37.8221 39.5446 37.6776 39.7387 37.5276 39.9328C37.4832 39.9994 37.4332 40.0604 37.3832 40.1214C37.2832 40.2489 37.1832 40.382 37.0776 40.504C37.0165 40.5816 36.9554 40.6482 36.8943 40.7258C36.7998 40.8367 36.6998 40.9532 36.6109 41.0641C36.5443 41.1417 36.4776 41.2138 36.4109 41.2859C36.3165 41.3913 36.2221 41.4966 36.1221 41.602C36.0498 41.6796 35.9832 41.7517 35.9109 41.8238C35.8109 41.9236 35.7165 42.0235 35.6165 42.1233C35.5443 42.1954 35.4721 42.2675 35.3943 42.3396C35.2943 42.4394 35.1887 42.5336 35.0887 42.6279C35.0109 42.7 34.9387 42.7666 34.8665 42.8331C34.7554 42.9274 34.6498 43.0216 34.5387 43.1159C34.4665 43.1825 34.3887 43.2435 34.3165 43.31C34.1998 43.4043 34.0832 43.5041 33.9665 43.5984C33.8998 43.6538 33.8276 43.7148 33.7554 43.7703C33.6221 43.8756 33.4832 43.981 33.3443 44.0864C33.2887 44.1252 33.2332 44.1695 33.1776 44.2084C32.9832 44.3526 32.7832 44.4912 32.5887 44.6298C32.5609 44.6465 32.5332 44.6631 32.5109 44.6797C32.3387 44.7962 32.1609 44.9126 31.9832 45.0236C31.9165 45.0679 31.8443 45.1123 31.7721 45.1511C31.6332 45.2343 31.5054 45.3175 31.3665 45.4006C31.2832 45.4505 31.1998 45.4949 31.1165 45.5448C31.0832 45.5615 31.0498 45.5836 31.0165 45.6003C30.3998 45.9441 29.0165 46.6595 27.3276 47.2417C27.3165 47.2473 27.2998 47.2528 27.2887 47.2528C27.2109 47.2806 27.1332 47.3027 27.0554 47.3305C26.9721 47.3582 26.8887 47.3859 26.8054 47.4081C26.7276 47.4303 26.6498 47.458 26.5776 47.4802C26.4887 47.5024 26.4054 47.5301 26.3165 47.5523C26.2387 47.5745 26.1665 47.5966 26.0887 47.6133C26.0054 47.6355 25.9165 47.6576 25.8276 47.6798C25.7498 47.702 25.6721 47.7186 25.5998 47.7408C25.5165 47.763 25.4332 47.7796 25.3498 47.8018C25.2665 47.8185 25.1887 47.8406 25.1109 47.8573C25.0221 47.8795 24.9332 47.8961 24.8443 47.9127C24.7665 47.9294 24.6887 47.946 24.6165 47.9571C24.5276 47.9737 24.4332 47.9904 24.3443 48.007C24.2665 48.0236 24.1943 48.0347 24.1165 48.0458C24.0276 48.0569 23.9332 48.0736 23.8387 48.0902C23.7665 48.1013 23.6887 48.1124 23.6165 48.1235C23.5221 48.1345 23.4276 48.1456 23.3332 48.1623C23.2609 48.1734 23.1832 48.1845 23.1109 48.19C23.0165 48.2011 22.9221 48.2122 22.8276 48.2177C22.7554 48.2288 22.6832 48.2344 22.6054 48.2399C22.5054 48.251 22.4054 48.2565 22.3109 48.2621C22.2387 48.2676 22.1665 48.2732 22.0998 48.2787C21.9943 48.2898 21.8943 48.2954 21.7887 48.3009C21.7221 48.3065 21.6554 48.312 21.5887 48.312C21.4721 48.3175 21.3609 48.3231 21.2443 48.3231C21.1887 48.3231 21.1332 48.3286 21.0776 48.3286C20.9054 48.3342 20.7332 48.3342 20.5609 48.3342C20.3443 48.3342 20.1221 48.3342 19.9054 48.3231C19.8443 48.3231 19.7832 48.3176 19.7221 48.3176C19.5498 48.312 19.3776 48.3009 19.2054 48.2898C19.1554 48.2843 19.1054 48.2843 19.0554 48.2787C18.8387 48.2621 18.6221 48.2455 18.4054 48.2233C18.3609 48.2177 18.3109 48.2122 18.2665 48.2066C18.0887 48.19 17.9165 48.1678 17.7443 48.1456C17.6832 48.1401 17.6221 48.129 17.5609 48.1235C17.3554 48.0957 17.1554 48.0625 16.9554 48.0292C16.9443 48.0236 16.9332 48.0236 16.9165 48.0236C16.7054 47.9848 16.4887 47.946 16.2776 47.9016C16.2221 47.8906 16.1609 47.8739 16.1054 47.8628C15.9387 47.824 15.7721 47.7907 15.6054 47.7519C15.5554 47.7408 15.5054 47.7297 15.4554 47.7131C15.2443 47.6632 15.0387 47.6077 14.8276 47.5523C14.7887 47.5412 14.7498 47.5301 14.7109 47.519C14.5387 47.4691 14.3665 47.4192 14.1998 47.3637C14.1387 47.3471 14.0832 47.3305 14.0221 47.3083C13.8387 47.2473 13.6554 47.1863 13.4776 47.1253C13.4554 47.1142 13.4276 47.1086 13.4054 47.1031C13.2054 47.031 13.0054 46.9534 12.8054 46.8757C12.7498 46.8535 12.6943 46.8314 12.6387 46.8092C12.5609 46.7815 12.4887 46.7537 12.4165 46.7205C16.8776 50.4248 22.4609 52.4156 28.3943 52.4156Z" fill="#D2006E"/>
<path d="M81.6388 20.3629C81.6388 24.0562 79.0388 26.0082 74.7222 26.0082H66.0388V6.42163H74.5888C78.5277 6.42163 80.9388 8.15736 80.9388 11.8229C80.9388 13.7749 79.5999 15.2722 78.2055 15.7269C79.7388 16.0818 81.6388 17.6345 81.6388 20.3629ZM70.2777 9.98181V14.5291H73.8444C75.6388 14.5291 76.711 13.6751 76.711 12.2554C76.711 10.492 75.4777 9.98181 74.111 9.98181H70.2777ZM77.3555 20.1189C77.3555 18.6216 76.3388 17.6844 74.5166 17.6844H70.2833V22.4979H74.5722C76.2277 22.4979 77.3555 21.8324 77.3555 20.1189Z" fill="#D2006E"/>
<path d="M93.1888 24.2669C92.2777 25.5534 90.5888 26.2743 88.5277 26.2743C85.1777 26.2743 82.7666 24.644 82.7666 21.5385C82.7666 18.3 85.9277 16.6696 88.9833 16.6696C90.3499 16.6696 91.6888 16.8582 93.0833 17.2574C93.1388 14.9561 91.8777 13.969 89.6777 13.969C87.6388 13.969 85.4944 14.6122 84.561 15.067L83.5666 12.1002C84.961 11.4292 87.4277 10.5474 90.2666 10.5474C95.0388 10.5474 97.1555 12.8765 97.1555 17.5014V26.0082H93.2166L93.1888 24.2669ZM93.0833 20.679V19.6642C92.1166 19.3148 91.0999 19.154 90.0277 19.154C88.2833 19.154 86.8388 19.8749 86.8388 21.2391C86.8388 22.631 88.1277 23.3519 89.6777 23.3519C91.4722 23.3574 93.0833 22.4757 93.0833 20.679Z" fill="#D2006E"/>
<path d="M114.294 17.0411V26.0026H110.222V17.6567C110.222 15.4385 108.911 14.2074 106.978 14.2074C104.889 14.2074 103.333 15.6492 103.333 17.6844V26.0026H99.261V10.8358H103.333V13.1094C104.567 11.8506 106.333 10.5419 108.667 10.5419C111.989 10.5419 114.294 12.9763 114.294 17.0411Z" fill="#D2006E"/>
<path d="M123.761 10.5419C127.217 10.5419 129.739 12.444 130.756 14.823L127.272 16.2925C126.656 15.1668 125.583 14.2074 123.789 14.2074C121.456 14.2074 119.794 16.0263 119.794 18.4608C119.794 20.8952 121.456 22.631 123.789 22.631C125.611 22.631 126.739 21.6938 127.328 20.6235L130.811 22.0653C129.767 24.5552 127.328 26.291 123.789 26.291C119.261 26.291 115.722 23.0247 115.722 18.4552C115.717 14.0466 119.283 10.5419 123.761 10.5419Z" fill="#D2006E"/>
<path d="M131.317 18.4053C131.317 14.0743 134.694 10.5419 139.439 10.5419C144.183 10.5419 147.561 14.0743 147.561 18.4053C147.561 22.7419 144.183 26.2965 139.439 26.2965C134.689 26.2965 131.317 22.7419 131.317 18.4053ZM135.417 18.4053C135.417 20.7843 136.944 22.6587 139.439 22.6587C141.956 22.6587 143.456 20.7843 143.456 18.4053C143.456 15.9986 141.956 14.1797 139.439 14.1797C136.944 14.1797 135.417 15.9986 135.417 18.4053Z" fill="#D2006E"/>
<path d="M84.7943 40.0603C84.311 44.8738 80.5054 48.5948 74.6665 48.5948C68.6388 48.5948 64.2166 44.1529 64.2166 38.4854C64.2166 32.7847 68.6388 28.3483 74.6665 28.3483C79.2499 28.3483 82.1443 30.6774 83.8054 33.4834L79.9999 35.2469C79.0332 33.7219 77.3999 32.2246 74.6665 32.2246C71.1554 32.2246 68.4499 34.9252 68.4499 38.4854C68.4499 42.0179 71.211 44.6908 74.6665 44.6908C77.5888 44.6908 79.8388 43.1103 80.2666 40.5428H73.4332V37.1434H84.8777C84.8999 37.7368 84.9554 38.6961 84.7943 40.0603Z" fill="#D2006E"/>
<path d="M101.806 33.0786V48.2454H97.7333V45.9718C96.5 47.2306 94.7333 48.5393 92.4 48.5393C89.0778 48.5393 86.7722 46.1049 86.7722 42.0401V33.0786H90.8444V41.4245C90.8444 43.6427 92.1555 44.8738 94.0889 44.8738C96.1778 44.8738 97.7333 43.432 97.7333 41.3968V33.0786H101.806Z" fill="#D2006E"/>
<path d="M113.872 46.5097C112.961 47.7963 111.272 48.5172 109.211 48.5172C105.861 48.5172 103.45 46.8868 103.45 43.7814C103.45 40.5428 106.611 38.9125 109.667 38.9125C111.033 38.9125 112.372 39.101 113.767 39.5003C113.822 37.1989 112.561 36.2118 110.361 36.2118C108.322 36.2118 106.178 36.8551 105.244 37.3098L104.256 34.343C105.65 33.672 108.117 32.7903 110.956 32.7903C115.728 32.7903 117.844 35.1194 117.844 39.7443V48.251H113.906L113.872 46.5097ZM113.767 42.9274V41.9126C112.8 41.5632 111.783 41.4024 110.711 41.4024C108.967 41.4024 107.522 42.1233 107.522 43.4875C107.522 44.8794 108.811 45.6003 110.361 45.6003C112.156 45.6003 113.767 44.7186 113.767 42.9274Z" fill="#D2006E"/>
<path d="M135.361 33.0786L128.528 49.3712C127.161 52.6374 125.5 54.107 122.339 54.107C120.65 54.107 119.472 53.7853 117.917 53.0367L119.205 49.7982C119.983 50.1475 120.811 50.5191 121.939 50.5191C123.411 50.5191 124.161 49.7982 124.889 48.0846L124.917 48.007L118.244 33.0786H122.855L126.9 43.1103L130.944 33.0786H135.361Z" fill="#D2006E"/>
<path d="M145.955 46.5097C145.044 47.7963 143.355 48.5172 141.294 48.5172C137.944 48.5172 135.533 46.8868 135.533 43.7814C135.533 40.5428 138.694 38.9125 141.75 38.9125C143.117 38.9125 144.455 39.101 145.85 39.5003C145.905 37.1989 144.644 36.2118 142.444 36.2118C140.405 36.2118 138.261 36.8551 137.328 37.3098L136.333 34.343C137.728 33.672 140.194 32.7903 143.033 32.7903C147.805 32.7903 149.922 35.1194 149.922 39.7443V48.251H145.983L145.955 46.5097ZM145.85 42.9274V41.9126C144.883 41.5632 143.867 41.4024 142.794 41.4024C141.05 41.4024 139.605 42.1233 139.605 43.4875C139.605 44.8794 140.894 45.6003 142.444 45.6003C144.239 45.6003 145.85 44.7186 145.85 42.9274Z" fill="#D2006E"/>
<path d="M167.472 33.0786V53.8353H163.428V46.3711C162.411 47.6576 160.828 48.5394 158.361 48.5394C154.394 48.5394 151.583 45.4117 151.583 40.6759C151.583 35.9401 154.4 32.7847 158.361 32.7847C160.828 32.7847 162.405 33.6665 163.428 34.953V33.0786H167.472ZM163.478 40.6482C163.478 38.2969 162.139 36.478 159.672 36.478C157.205 36.478 155.705 38.2969 155.705 40.6482C155.705 43.0549 157.205 44.8461 159.672 44.8461C162.139 44.8516 163.478 43.0605 163.478 40.6482Z" fill="#D2006E"/>
<path d="M184.722 33.0786V48.2454H180.65V45.9718C179.417 47.2306 177.65 48.5393 175.317 48.5393C171.995 48.5393 169.689 46.1049 169.689 42.0401V33.0786H173.761V41.4245C173.761 43.6427 175.072 44.8738 177.006 44.8738C179.095 44.8738 180.65 43.432 180.65 41.3968V33.0786H184.722Z" fill="#D2006E"/>
<path d="M189.467 31.5037C188.156 31.5037 187.111 30.4889 187.111 29.2578C187.111 28.0822 188.183 27.0618 189.467 27.0618C190.728 27.0618 191.772 28.0267 191.772 29.2578C191.772 30.4889 190.756 31.5037 189.467 31.5037ZM187.406 33.0786H191.478V48.2455H187.406V33.0786Z" fill="#D2006E"/>
<path d="M194.161 28.0988L198.233 27.4888V48.2509H194.161V28.0988Z" fill="#D2006E"/>
</svg>
