<svg width="222" height="156" viewBox="0 0 222 156" fill="none" xmlns="http://www.w3.org/2000/svg">
<path d="M0.5 8.44996C0.5 4.03168 4.08172 0.449951 8.5 0.449951H213.5C217.918 0.449951 221.5 4.03167 221.5 8.44995V148C221.5 152.418 217.918 156 213.5 156H8.5C4.08172 156 0.5 152.418 0.5 148V8.44996Z" fill="#E7EFFE"/>
<rect x="26" y="45.3196" width="170.522" height="46.5217" rx="6.6087" fill="white"/>
<path d="M42.3294 74.048L46.8285 59.5343H50.6087L44.2381 77.5803H41.7221L42.3294 74.048ZM38.1773 59.5343L42.6516 74.048L43.2961 77.5803H40.7553L34.4095 59.5343H38.1773ZM121.719 59.5343V77.5803H118.311V59.5343H121.719ZM134.93 59.4847V77.5803H131.646V63.3146L127.295 64.7523V62.0999L134.558 59.4847H134.93Z" fill="#160F41"/>
<path d="M61.9976 59.4847V77.5803H58.7131V63.3146L54.3627 64.7523V62.0999L61.6257 59.4847H61.9976ZM73.1757 67.1072H75.0224C75.6752 67.1072 76.2123 66.9956 76.6337 66.7725C77.0633 66.5412 77.3814 66.2272 77.588 65.8306C77.8029 65.4257 77.9103 64.9589 77.9103 64.43C77.9103 63.9095 77.8152 63.4592 77.6252 63.0791C77.4352 62.6907 77.146 62.3933 76.7576 62.1867C76.3775 61.9718 75.89 61.8644 75.2951 61.8644C74.8158 61.8644 74.3738 61.9595 73.9689 62.1495C73.5723 62.3395 73.2542 62.6122 73.0145 62.9675C72.7832 63.3146 72.6675 63.7318 72.6675 64.2193H69.383C69.383 63.2443 69.6392 62.3891 70.1515 61.6537C70.672 60.9101 71.3744 60.3275 72.2585 59.9061C73.1426 59.4847 74.13 59.274 75.2207 59.274C76.4106 59.274 77.4517 59.4723 78.3441 59.869C79.2447 60.2573 79.9429 60.8316 80.4387 61.5918C80.9427 62.3519 81.1947 63.2939 81.1947 64.4176C81.1947 64.9547 81.0667 65.4918 80.8105 66.0289C80.5626 66.5577 80.1949 67.037 79.7074 67.4666C79.2282 67.888 78.6374 68.2309 77.9351 68.4953C77.241 68.7515 76.4436 68.8796 75.543 68.8796H73.1757V67.1072ZM73.1757 69.6356V67.888H75.543C76.5593 67.888 77.4393 68.0078 78.1829 68.2475C78.9349 68.4788 79.5546 68.8093 80.0421 69.239C80.5296 69.6604 80.889 70.152 81.1204 70.7139C81.36 71.2758 81.4798 71.879 81.4798 72.5235C81.4798 73.3663 81.3228 74.1182 81.0088 74.7792C80.6948 75.432 80.2528 75.9856 79.6826 76.4401C79.1208 76.8945 78.4597 77.2415 77.6996 77.4812C76.9394 77.7125 76.1172 77.8282 75.2331 77.8282C74.4647 77.8282 73.7169 77.7249 72.9898 77.5184C72.2709 77.3035 71.6223 76.9854 71.0439 76.564C70.4655 76.1343 70.0069 75.5972 69.6681 74.9527C69.3293 74.3 69.1599 73.5439 69.1599 72.6846H72.4444C72.4444 73.1804 72.5642 73.6224 72.8038 74.0108C73.0517 74.3991 73.3905 74.7049 73.8202 74.928C74.2581 75.1428 74.7497 75.2502 75.2951 75.2502C75.8983 75.2502 76.4147 75.1428 76.8444 74.928C77.2823 74.7049 77.6169 74.3909 77.8483 73.986C78.0797 73.5729 78.1953 73.0812 78.1953 72.5111C78.1953 71.8335 78.0673 71.2841 77.8111 70.8626C77.555 70.4412 77.1873 70.1314 76.708 69.9331C76.237 69.7348 75.6752 69.6356 75.0224 69.6356H73.1757ZM88.8653 69.2762L86.2501 68.6441L87.254 59.5343H97.1818V62.2487H89.9684L89.4974 66.4627C89.7535 66.3057 90.1254 66.1487 90.6129 65.9917C91.1086 65.8265 91.6664 65.7438 92.2861 65.7438C93.1454 65.7438 93.9139 65.8843 94.5914 66.1652C95.269 66.4379 95.8432 66.8345 96.3142 67.3551C96.7935 67.8756 97.1529 68.5119 97.3925 69.2638C97.6404 70.0074 97.7643 70.8503 97.7643 71.7922C97.7643 72.6185 97.6404 73.3952 97.3925 74.1223C97.1529 74.8412 96.7852 75.4816 96.2894 76.0434C95.7937 76.597 95.1698 77.035 94.4179 77.3572C93.666 77.6712 92.7819 77.8282 91.7655 77.8282C90.9971 77.8282 90.2576 77.7167 89.547 77.4936C88.8446 77.2622 88.2125 76.9276 87.6507 76.4896C87.0888 76.0434 86.6385 75.4981 86.2997 74.8536C85.9692 74.2091 85.7874 73.4696 85.7543 72.635H88.9892C89.0471 73.1886 89.1958 73.6596 89.4354 74.048C89.675 74.4363 89.989 74.7338 90.3774 74.9403C90.774 75.1469 91.2326 75.2502 91.7531 75.2502C92.2241 75.2502 92.629 75.1634 92.9678 74.9899C93.3148 74.8081 93.5999 74.5561 93.823 74.2339C94.0461 73.9116 94.2113 73.5315 94.3187 73.0936C94.4262 72.6557 94.4799 72.1764 94.4799 71.6559C94.4799 71.1518 94.4179 70.6933 94.294 70.2801C94.17 69.8587 93.98 69.4951 93.7238 69.1894C93.4677 68.8837 93.1454 68.6482 92.7571 68.483C92.377 68.3177 91.9308 68.2351 91.4185 68.2351C90.7327 68.2351 90.2039 68.3384 89.832 68.5449C89.4685 68.7515 89.1462 68.9952 88.8653 69.2762ZM113.59 67.008V70.0446C113.59 71.4328 113.45 72.6185 113.169 73.6018C112.888 74.585 112.483 75.3907 111.954 76.0186C111.425 76.6384 110.793 77.0969 110.058 77.3944C109.323 77.6836 108.505 77.8282 107.604 77.8282C106.885 77.8282 106.216 77.7373 105.596 77.5555C104.976 77.3655 104.419 77.0763 103.923 76.6879C103.435 76.2913 103.014 75.7873 102.659 75.1758C102.312 74.5644 102.043 73.8331 101.853 72.9821C101.671 72.131 101.58 71.1518 101.58 70.0446V67.008C101.58 65.6199 101.721 64.4383 102.002 63.4633C102.291 62.4883 102.7 61.6909 103.229 61.0712C103.758 60.4515 104.39 60.0012 105.125 59.7202C105.86 59.431 106.678 59.2864 107.579 59.2864C108.306 59.2864 108.976 59.3773 109.587 59.5591C110.207 59.7409 110.76 60.026 111.248 60.4143C111.744 60.7944 112.165 61.2902 112.512 61.9016C112.859 62.5048 113.123 63.2319 113.305 64.083C113.495 64.9258 113.59 65.9008 113.59 67.008ZM110.318 70.4908V66.5495C110.318 65.8554 110.277 65.2522 110.194 64.7399C110.12 64.2193 110.008 63.7773 109.86 63.4137C109.711 63.0501 109.525 62.7568 109.302 62.5337C109.079 62.3024 108.823 62.133 108.533 62.0256C108.244 61.9181 107.926 61.8644 107.579 61.8644C107.149 61.8644 106.765 61.9512 106.426 62.1247C106.088 62.29 105.803 62.5544 105.571 62.9179C105.34 63.2815 105.162 63.7649 105.038 64.3681C104.923 64.963 104.865 65.6901 104.865 66.5495V70.4908C104.865 71.1849 104.902 71.7922 104.976 72.3128C105.059 72.8333 105.175 73.2795 105.323 73.6513C105.48 74.0232 105.666 74.3289 105.881 74.5685C106.104 74.7999 106.36 74.9734 106.65 75.0891C106.939 75.1965 107.257 75.2502 107.604 75.2502C108.042 75.2502 108.426 75.1634 108.757 74.9899C109.095 74.8164 109.38 74.5437 109.612 74.1719C109.843 73.7918 110.017 73.3002 110.132 72.697C110.256 72.0855 110.318 71.3502 110.318 70.4908ZM154.747 75.0023V77.5803H142.526V75.3741L148.389 69.0407C149 68.3466 149.484 67.7434 149.839 67.2311C150.194 66.7188 150.446 66.2561 150.595 65.843C150.752 65.4216 150.831 65.0208 150.831 64.6407C150.831 64.0871 150.731 63.6038 150.533 63.1906C150.335 62.7692 150.046 62.4428 149.665 62.2115C149.294 61.9801 148.835 61.8644 148.29 61.8644C147.687 61.8644 147.17 62.0049 146.74 62.2858C146.319 62.5585 145.997 62.9386 145.774 63.4261C145.559 63.9136 145.451 64.4714 145.451 65.0993H142.167C142.167 64.0334 142.415 63.0625 142.911 62.1867C143.406 61.3026 144.117 60.5961 145.042 60.0673C145.968 59.5384 147.067 59.274 148.339 59.274C149.579 59.274 150.628 59.4806 151.487 59.8937C152.347 60.2986 153 60.877 153.446 61.6289C153.892 62.3809 154.115 63.2774 154.115 64.3185C154.115 64.8969 154.02 65.467 153.83 66.0289C153.64 66.5908 153.371 67.1485 153.024 67.7021C152.686 68.2475 152.281 68.8011 151.81 69.3629C151.339 69.9248 150.814 70.4991 150.236 71.0857L146.716 75.0023H154.747ZM170.771 75.0023V77.5803H158.551V75.3741L164.413 69.0407C165.025 68.3466 165.508 67.7434 165.863 67.2311C166.219 66.7188 166.471 66.2561 166.619 65.843C166.776 65.4216 166.855 65.0208 166.855 64.6407C166.855 64.0871 166.756 63.6038 166.557 63.1906C166.359 62.7692 166.07 62.4428 165.69 62.2115C165.318 61.9801 164.859 61.8644 164.314 61.8644C163.711 61.8644 163.194 62.0049 162.765 62.2858C162.343 62.5585 162.021 62.9386 161.798 63.4261C161.583 63.9136 161.476 64.4714 161.476 65.0993H158.191C158.191 64.0334 158.439 63.0625 158.935 62.1867C159.431 61.3026 160.141 60.5961 161.067 60.0673C161.992 59.5384 163.091 59.274 164.364 59.274C165.603 59.274 166.652 59.4806 167.512 59.8937C168.371 60.2986 169.024 60.877 169.47 61.6289C169.916 62.3809 170.139 63.2774 170.139 64.3185C170.139 64.8969 170.044 65.467 169.854 66.0289C169.664 66.5908 169.396 67.1485 169.049 67.7021C168.71 68.2475 168.305 68.8011 167.834 69.3629C167.363 69.9248 166.838 70.4991 166.26 71.0857L162.74 75.0023H170.771ZM186.796 75.0023V77.5803H174.575V75.3741L180.437 69.0407C181.049 68.3466 181.532 67.7434 181.888 67.2311C182.243 66.7188 182.495 66.2561 182.644 65.843C182.801 65.4216 182.879 65.0208 182.879 64.6407C182.879 64.0871 182.78 63.6038 182.582 63.1906C182.383 62.7692 182.094 62.4428 181.714 62.2115C181.342 61.9801 180.884 61.8644 180.338 61.8644C179.735 61.8644 179.219 62.0049 178.789 62.2858C178.368 62.5585 178.045 62.9386 177.822 63.4261C177.607 63.9136 177.5 64.4714 177.5 65.0993H174.215C174.215 64.0334 174.463 63.0625 174.959 62.1867C175.455 61.3026 176.166 60.5961 177.091 60.0673C178.016 59.5384 179.115 59.274 180.388 59.274C181.627 59.274 182.677 59.4806 183.536 59.8937C184.395 60.2986 185.048 60.877 185.494 61.6289C185.94 62.3809 186.164 63.2774 186.164 64.3185C186.164 64.8969 186.068 65.467 185.878 66.0289C185.688 66.5908 185.42 67.1485 185.073 67.7021C184.734 68.2475 184.329 68.8011 183.858 69.3629C183.387 69.9248 182.863 70.4991 182.284 71.0857L178.764 75.0023H186.796Z" fill="#160F41"/>
<path d="M17.4975 114.394C17.1055 114.394 16.7455 114.302 16.4175 114.118C16.0895 113.926 15.8255 113.67 15.6255 113.35C15.4255 113.03 15.3255 112.67 15.3255 112.27C15.3255 111.902 15.4175 111.558 15.6015 111.238C15.7935 110.91 16.0535 110.646 16.3815 110.446C16.7095 110.238 17.0815 110.134 17.4975 110.134C17.8815 110.134 18.2375 110.226 18.5655 110.41C18.9015 110.594 19.1695 110.85 19.3695 111.178C19.5695 111.498 19.6695 111.862 19.6695 112.27C19.6695 112.662 19.5695 113.018 19.3695 113.338C19.1775 113.658 18.9175 113.914 18.5895 114.106C18.2615 114.298 17.8975 114.394 17.4975 114.394ZM27.544 115.45V106.99H30.4C31.768 106.99 32.824 107.354 33.568 108.082C34.312 108.802 34.684 109.846 34.684 111.214C34.684 112.582 34.312 113.63 33.568 114.358C32.824 115.086 31.768 115.45 30.4 115.45H27.544ZM28.528 114.61H30.328C32.536 114.61 33.64 113.478 33.64 111.214C33.64 108.958 32.536 107.83 30.328 107.83H28.528V114.61ZM36.1982 108.166V107.074H37.3983V108.166H36.1982ZM36.3183 115.45V109.618H37.2903V115.45H36.3183ZM39.4193 115.45V110.374H38.2673V109.618H39.4193V109.414C39.4193 108.638 39.6113 108.05 39.9953 107.65C40.3873 107.25 40.9873 107.026 41.7953 106.978L42.2633 106.954L42.3473 107.698L41.7953 107.734C41.2993 107.774 40.9393 107.922 40.7153 108.178C40.4993 108.434 40.3913 108.806 40.3913 109.294V109.618H42.0713V110.374H40.3913V115.45H39.4193ZM45.5673 115.558C44.6473 115.558 43.9193 115.29 43.3833 114.754C42.8473 114.21 42.5793 113.474 42.5793 112.546C42.5793 111.946 42.6993 111.418 42.9393 110.962C43.1793 110.498 43.5073 110.142 43.9233 109.894C44.3473 109.638 44.8353 109.51 45.3873 109.51C46.1793 109.51 46.7993 109.766 47.2473 110.278C47.6953 110.782 47.9193 111.478 47.9193 112.366V112.738H43.5273C43.5593 113.402 43.7513 113.91 44.1033 114.262C44.4553 114.606 44.9433 114.778 45.5673 114.778C45.9193 114.778 46.2553 114.726 46.5753 114.622C46.8953 114.51 47.1993 114.33 47.4873 114.082L47.8233 114.766C47.5593 115.014 47.2233 115.21 46.8153 115.354C46.4073 115.49 45.9913 115.558 45.5673 115.558ZM45.4113 110.23C44.8593 110.23 44.4233 110.402 44.1033 110.746C43.7833 111.09 43.5953 111.542 43.5393 112.102H47.0793C47.0553 111.51 46.8993 111.05 46.6113 110.722C46.3313 110.394 45.9313 110.23 45.4113 110.23ZM49.3261 115.45V109.618H50.2741V110.662C50.5861 109.958 51.2261 109.57 52.1941 109.498L52.5421 109.462L52.6141 110.302L52.0021 110.374C51.4501 110.422 51.0301 110.598 50.7421 110.902C50.4541 111.198 50.3101 111.606 50.3101 112.126V115.45H49.3261ZM56.1845 115.558C55.2645 115.558 54.5365 115.29 54.0005 114.754C53.4645 114.21 53.1965 113.474 53.1965 112.546C53.1965 111.946 53.3165 111.418 53.5565 110.962C53.7965 110.498 54.1245 110.142 54.5405 109.894C54.9645 109.638 55.4525 109.51 56.0045 109.51C56.7965 109.51 57.4165 109.766 57.8645 110.278C58.3125 110.782 58.5365 111.478 58.5365 112.366V112.738H54.1445C54.1765 113.402 54.3685 113.91 54.7205 114.262C55.0725 114.606 55.5605 114.778 56.1845 114.778C56.5365 114.778 56.8725 114.726 57.1925 114.622C57.5125 114.51 57.8165 114.33 58.1045 114.082L58.4405 114.766C58.1765 115.014 57.8405 115.21 57.4325 115.354C57.0245 115.49 56.6085 115.558 56.1845 115.558ZM56.0285 110.23C55.4765 110.23 55.0405 110.402 54.7205 110.746C54.4005 111.09 54.2125 111.542 54.1565 112.102H57.6965C57.6725 111.51 57.5165 111.05 57.2285 110.722C56.9485 110.394 56.5485 110.23 56.0285 110.23ZM59.9433 115.45V109.618H60.8913V110.614C61.0833 110.246 61.3553 109.97 61.7073 109.786C62.0593 109.602 62.4553 109.51 62.8953 109.51C64.2793 109.51 64.9713 110.278 64.9713 111.814V115.45H63.9993V111.874C63.9993 111.33 63.8913 110.934 63.6753 110.686C63.4673 110.43 63.1313 110.302 62.6673 110.302C62.1313 110.302 61.7033 110.47 61.3833 110.806C61.0713 111.134 60.9153 111.574 60.9153 112.126V115.45H59.9433ZM69.2356 115.558C68.6516 115.558 68.1476 115.434 67.7236 115.186C67.2996 114.93 66.9716 114.574 66.7396 114.118C66.5156 113.654 66.4036 113.114 66.4036 112.498C66.4036 111.57 66.6556 110.842 67.1596 110.314C67.6636 109.778 68.3556 109.51 69.2356 109.51C69.5956 109.51 69.9516 109.574 70.3036 109.702C70.6556 109.83 70.9476 110.01 71.1796 110.242L70.8436 110.95C70.6116 110.726 70.3556 110.562 70.0756 110.458C69.8036 110.354 69.5436 110.302 69.2956 110.302C68.6876 110.302 68.2196 110.494 67.8916 110.878C67.5636 111.254 67.3996 111.798 67.3996 112.51C67.3996 113.206 67.5636 113.758 67.8916 114.166C68.2196 114.566 68.6876 114.766 69.2956 114.766C69.5436 114.766 69.8036 114.714 70.0756 114.61C70.3556 114.506 70.6116 114.338 70.8436 114.106L71.1796 114.814C70.9476 115.046 70.6516 115.23 70.2916 115.366C69.9396 115.494 69.5876 115.558 69.2356 115.558ZM72.1982 108.166V107.074H73.3983V108.166H72.1982ZM72.3183 115.45V109.618H73.2903V115.45H72.3183ZM76.9433 115.558C76.5433 115.558 76.1833 115.482 75.8633 115.33C75.5513 115.17 75.3033 114.954 75.1193 114.682C74.9353 114.41 74.8433 114.106 74.8433 113.77C74.8433 113.346 74.9513 113.01 75.1673 112.762C75.3913 112.514 75.7553 112.338 76.2593 112.234C76.7713 112.122 77.4673 112.066 78.3473 112.066H78.7313V111.694C78.7313 111.198 78.6273 110.842 78.4193 110.626C78.2193 110.402 77.8953 110.29 77.4473 110.29C77.0953 110.29 76.7553 110.342 76.4273 110.446C76.0993 110.542 75.7633 110.702 75.4193 110.926L75.0833 110.218C75.3873 110.002 75.7553 109.83 76.1873 109.702C76.6273 109.574 77.0473 109.51 77.4473 109.51C78.1993 109.51 78.7553 109.694 79.1153 110.062C79.4833 110.43 79.6673 111.002 79.6673 111.778V115.45H78.7553V114.442C78.6033 114.786 78.3673 115.058 78.0473 115.258C77.7353 115.458 77.3673 115.558 76.9433 115.558ZM77.0993 114.826C77.5793 114.826 77.9713 114.662 78.2753 114.334C78.5793 113.998 78.7313 113.574 78.7313 113.062V112.702H78.3593C77.7113 112.702 77.1993 112.734 76.8233 112.798C76.4553 112.854 76.1953 112.958 76.0433 113.11C75.8993 113.254 75.8273 113.454 75.8273 113.71C75.8273 114.038 75.9393 114.306 76.1633 114.514C76.3953 114.722 76.7073 114.826 77.0993 114.826ZM86.3406 115.558C85.7486 115.558 85.3006 115.386 84.9966 115.042C84.7006 114.69 84.5526 114.182 84.5526 113.518V106.99H85.5246V113.446C85.5246 114.302 85.8646 114.73 86.5446 114.73C86.7446 114.73 86.9246 114.706 87.0846 114.658L87.0606 115.474C86.8126 115.53 86.5726 115.558 86.3406 115.558ZM89.9394 115.558C89.5394 115.558 89.1794 115.482 88.8594 115.33C88.5474 115.17 88.2994 114.954 88.1154 114.682C87.9314 114.41 87.8394 114.106 87.8394 113.77C87.8394 113.346 87.9474 113.01 88.1634 112.762C88.3874 112.514 88.7514 112.338 89.2554 112.234C89.7674 112.122 90.4634 112.066 91.3434 112.066H91.7274V111.694C91.7274 111.198 91.6234 110.842 91.4154 110.626C91.2154 110.402 90.8914 110.29 90.4434 110.29C90.0914 110.29 89.7514 110.342 89.4234 110.446C89.0954 110.542 88.7594 110.702 88.4154 110.926L88.0794 110.218C88.3834 110.002 88.7514 109.83 89.1834 109.702C89.6234 109.574 90.0434 109.51 90.4434 109.51C91.1954 109.51 91.7514 109.694 92.1114 110.062C92.4794 110.43 92.6634 111.002 92.6634 111.778V115.45H91.7514V114.442C91.5994 114.786 91.3634 115.058 91.0434 115.258C90.7314 115.458 90.3634 115.558 89.9394 115.558ZM90.0954 114.826C90.5754 114.826 90.9674 114.662 91.2714 114.334C91.5754 113.998 91.7274 113.574 91.7274 113.062V112.702H91.3554C90.7074 112.702 90.1954 112.734 89.8194 112.798C89.4514 112.854 89.1914 112.958 89.0394 113.11C88.8954 113.254 88.8234 113.454 88.8234 113.71C88.8234 114.038 88.9354 114.306 89.1594 114.514C89.3914 114.722 89.7034 114.826 90.0954 114.826ZM96.4347 115.558C95.9787 115.558 95.5467 115.494 95.1387 115.366C94.7307 115.238 94.3947 115.058 94.1307 114.826L94.4427 114.142C94.7307 114.374 95.0467 114.546 95.3907 114.658C95.7427 114.762 96.0987 114.814 96.4587 114.814C96.9147 114.814 97.2587 114.73 97.4907 114.562C97.7227 114.394 97.8387 114.166 97.8387 113.878C97.8387 113.654 97.7627 113.478 97.6107 113.35C97.4587 113.214 97.2187 113.11 96.8907 113.038L95.7987 112.798C94.8067 112.582 94.3107 112.07 94.3107 111.262C94.3107 110.734 94.5187 110.31 94.9347 109.99C95.3587 109.67 95.9107 109.51 96.5907 109.51C96.9907 109.51 97.3707 109.574 97.7307 109.702C98.0987 109.822 98.4027 110.002 98.6427 110.242L98.3187 110.926C98.0867 110.71 97.8147 110.546 97.5027 110.434C97.1987 110.314 96.8947 110.254 96.5907 110.254C96.1427 110.254 95.8027 110.342 95.5707 110.518C95.3387 110.694 95.2227 110.926 95.2227 111.214C95.2227 111.662 95.5187 111.95 96.1107 112.078L97.2027 112.306C97.7147 112.418 98.1027 112.598 98.3667 112.846C98.6307 113.086 98.7627 113.414 98.7627 113.83C98.7627 114.366 98.5507 114.79 98.1267 115.102C97.7027 115.406 97.1387 115.558 96.4347 115.558ZM105.114 115.558C104.522 115.558 104.074 115.386 103.77 115.042C103.474 114.69 103.326 114.182 103.326 113.518V106.99H104.298V113.446C104.298 114.302 104.638 114.73 105.318 114.73C105.518 114.73 105.698 114.706 105.858 114.658L105.834 115.474C105.586 115.53 105.346 115.558 105.114 115.558ZM109.446 115.558C108.526 115.558 107.798 115.29 107.262 114.754C106.726 114.21 106.458 113.474 106.458 112.546C106.458 111.946 106.578 111.418 106.818 110.962C107.058 110.498 107.386 110.142 107.802 109.894C108.226 109.638 108.714 109.51 109.266 109.51C110.058 109.51 110.678 109.766 111.126 110.278C111.574 110.782 111.798 111.478 111.798 112.366V112.738H107.406C107.438 113.402 107.63 113.91 107.982 114.262C108.334 114.606 108.822 114.778 109.446 114.778C109.798 114.778 110.134 114.726 110.454 114.622C110.774 114.51 111.078 114.33 111.366 114.082L111.702 114.766C111.438 115.014 111.102 115.21 110.694 115.354C110.286 115.49 109.87 115.558 109.446 115.558ZM109.29 110.23C108.738 110.23 108.302 110.402 107.982 110.746C107.662 111.09 107.474 111.542 107.418 112.102H110.958C110.934 111.51 110.778 111.05 110.49 110.722C110.21 110.394 109.81 110.23 109.29 110.23ZM115.545 115.558C114.857 115.558 114.341 115.378 113.997 115.018C113.653 114.65 113.481 114.122 113.481 113.434V110.374H112.341V109.618H113.481V107.83H114.453V109.618H116.301V110.374H114.453V113.338C114.453 113.794 114.549 114.142 114.741 114.382C114.933 114.614 115.245 114.73 115.677 114.73C115.805 114.73 115.933 114.714 116.061 114.682C116.189 114.65 116.305 114.618 116.409 114.586L116.577 115.33C116.473 115.386 116.321 115.438 116.121 115.486C115.921 115.534 115.729 115.558 115.545 115.558ZM117.4 115.45V109.618H118.348V110.662C118.66 109.958 119.3 109.57 120.268 109.498L120.616 109.462L120.688 110.302L120.076 110.374C119.524 110.422 119.104 110.598 118.816 110.902C118.528 111.198 118.384 111.606 118.384 112.126V115.45H117.4ZM123.478 115.558C123.078 115.558 122.718 115.482 122.398 115.33C122.086 115.17 121.838 114.954 121.654 114.682C121.47 114.41 121.378 114.106 121.378 113.77C121.378 113.346 121.486 113.01 121.702 112.762C121.926 112.514 122.29 112.338 122.794 112.234C123.306 112.122 124.002 112.066 124.882 112.066H125.266V111.694C125.266 111.198 125.162 110.842 124.954 110.626C124.754 110.402 124.43 110.29 123.982 110.29C123.63 110.29 123.29 110.342 122.962 110.446C122.634 110.542 122.298 110.702 121.954 110.926L121.618 110.218C121.922 110.002 122.29 109.83 122.722 109.702C123.162 109.574 123.582 109.51 123.982 109.51C124.734 109.51 125.29 109.694 125.65 110.062C126.018 110.43 126.202 111.002 126.202 111.778V115.45H125.29V114.442C125.138 114.786 124.902 115.058 124.582 115.258C124.27 115.458 123.902 115.558 123.478 115.558ZM123.634 114.826C124.114 114.826 124.506 114.662 124.81 114.334C125.114 113.998 125.266 113.574 125.266 113.062V112.702H124.894C124.246 112.702 123.734 112.734 123.358 112.798C122.99 112.854 122.73 112.958 122.578 113.11C122.434 113.254 122.362 113.454 122.362 113.71C122.362 114.038 122.474 114.306 122.698 114.514C122.93 114.722 123.242 114.826 123.634 114.826ZM129.974 115.558C129.518 115.558 129.086 115.494 128.678 115.366C128.27 115.238 127.934 115.058 127.67 114.826L127.982 114.142C128.27 114.374 128.586 114.546 128.93 114.658C129.282 114.762 129.638 114.814 129.998 114.814C130.454 114.814 130.798 114.73 131.03 114.562C131.262 114.394 131.378 114.166 131.378 113.878C131.378 113.654 131.302 113.478 131.15 113.35C130.998 113.214 130.758 113.11 130.43 113.038L129.338 112.798C128.346 112.582 127.85 112.07 127.85 111.262C127.85 110.734 128.058 110.31 128.474 109.99C128.898 109.67 129.45 109.51 130.13 109.51C130.53 109.51 130.91 109.574 131.27 109.702C131.638 109.822 131.942 110.002 132.182 110.242L131.858 110.926C131.626 110.71 131.354 110.546 131.042 110.434C130.738 110.314 130.434 110.254 130.13 110.254C129.682 110.254 129.342 110.342 129.11 110.518C128.878 110.694 128.762 110.926 128.762 111.214C128.762 111.662 129.058 111.95 129.65 112.078L130.742 112.306C131.254 112.418 131.642 112.598 131.906 112.846C132.17 113.086 132.302 113.414 132.302 113.83C132.302 114.366 132.09 114.79 131.666 115.102C131.242 115.406 130.678 115.558 129.974 115.558ZM136.997 115.45V106.99H137.981V115.45H136.997ZM140.283 116.818L139.827 116.47C140.003 116.286 140.127 116.11 140.199 115.942C140.279 115.782 140.331 115.618 140.355 115.45H139.779V114.226H141.003V115.09C141.003 115.418 140.951 115.722 140.847 116.002C140.743 116.282 140.555 116.554 140.283 116.818ZM145.88 115.45V106.99H146.864V114.586H151.172V115.45H145.88ZM152.74 116.818L152.284 116.47C152.46 116.286 152.584 116.11 152.656 115.942C152.736 115.782 152.788 115.618 152.812 115.45H152.236V114.226H153.46V115.09C153.46 115.418 153.408 115.722 153.304 116.002C153.2 116.282 153.012 116.554 152.74 116.818ZM161.889 115.558C161.105 115.558 160.421 115.382 159.837 115.03C159.261 114.67 158.813 114.166 158.493 113.518C158.181 112.87 158.025 112.102 158.025 111.214C158.025 110.326 158.181 109.558 158.493 108.91C158.805 108.262 159.249 107.762 159.825 107.41C160.409 107.058 161.097 106.882 161.889 106.882C162.689 106.882 163.377 107.058 163.953 107.41C164.537 107.762 164.985 108.262 165.297 108.91C165.617 109.55 165.777 110.314 165.777 111.202C165.777 112.09 165.617 112.862 165.297 113.518C164.977 114.166 164.525 114.67 163.941 115.03C163.365 115.382 162.681 115.558 161.889 115.558ZM161.889 114.682C162.793 114.682 163.493 114.378 163.989 113.77C164.485 113.162 164.733 112.31 164.733 111.214C164.733 110.118 164.485 109.27 163.989 108.67C163.493 108.062 162.793 107.758 161.889 107.758C161.001 107.758 160.309 108.062 159.813 108.67C159.317 109.27 159.069 110.118 159.069 111.214C159.069 112.302 159.317 113.154 159.813 113.77C160.309 114.378 161.001 114.682 161.889 114.682Z" fill="#424242"/>
<path d="M15.655 29.45V18.875H20.245C21.405 18.875 22.3 19.155 22.93 19.715C23.56 20.265 23.875 21.04 23.875 22.04C23.875 22.83 23.67 23.485 23.26 24.005C22.85 24.515 22.26 24.86 21.49 25.04C22 25.2 22.42 25.585 22.75 26.195L24.52 29.45H22.405L20.575 26.075C20.395 25.745 20.18 25.52 19.93 25.4C19.69 25.28 19.38 25.22 19 25.22H17.575V29.45H15.655ZM17.575 23.795H19.915C21.315 23.795 22.015 23.225 22.015 22.085C22.015 20.955 21.315 20.39 19.915 20.39H17.575V23.795ZM29.1828 29.6C28.3528 29.6 27.6378 29.445 27.0378 29.135C26.4378 28.825 25.9728 28.385 25.6428 27.815C25.3228 27.245 25.1628 26.57 25.1628 25.79C25.1628 25.03 25.3178 24.365 25.6278 23.795C25.9478 23.225 26.3828 22.78 26.9328 22.46C27.4928 22.13 28.1278 21.965 28.8378 21.965C29.8778 21.965 30.6978 22.295 31.2978 22.955C31.9078 23.615 32.2128 24.515 32.2128 25.655V26.21H26.9628C27.1028 27.52 27.8528 28.175 29.2128 28.175C29.6228 28.175 30.0328 28.115 30.4428 27.995C30.8528 27.865 31.2278 27.665 31.5678 27.395L32.0928 28.655C31.7428 28.945 31.3028 29.175 30.7728 29.345C30.2428 29.515 29.7128 29.6 29.1828 29.6ZM28.9128 23.24C28.3628 23.24 27.9178 23.41 27.5778 23.75C27.2378 24.09 27.0328 24.55 26.9628 25.13H30.6528C30.6128 24.52 30.4428 24.055 30.1428 23.735C29.8528 23.405 29.4428 23.24 28.9128 23.24ZM37.0877 29.6C36.3177 29.6 35.6477 29.445 35.0777 29.135C34.5077 28.815 34.0677 28.365 33.7577 27.785C33.4477 27.205 33.2927 26.525 33.2927 25.745C33.2927 24.965 33.4477 24.295 33.7577 23.735C34.0677 23.165 34.5077 22.73 35.0777 22.43C35.6477 22.12 36.3177 21.965 37.0877 21.965C37.5577 21.965 38.0227 22.04 38.4827 22.19C38.9427 22.34 39.3227 22.55 39.6227 22.82L39.0677 24.125C38.8077 23.895 38.5127 23.72 38.1827 23.6C37.8627 23.48 37.5527 23.42 37.2527 23.42C36.6027 23.42 36.0977 23.625 35.7377 24.035C35.3877 24.435 35.2127 25.01 35.2127 25.76C35.2127 26.5 35.3877 27.085 35.7377 27.515C36.0977 27.935 36.6027 28.145 37.2527 28.145C37.5427 28.145 37.8527 28.085 38.1827 27.965C38.5127 27.845 38.8077 27.665 39.0677 27.425L39.6227 28.745C39.3227 29.005 38.9377 29.215 38.4677 29.375C38.0077 29.525 37.5477 29.6 37.0877 29.6ZM43.9714 29.6C43.2114 29.6 42.5514 29.445 41.9914 29.135C41.4314 28.825 40.9964 28.385 40.6864 27.815C40.3764 27.235 40.2214 26.555 40.2214 25.775C40.2214 24.995 40.3764 24.32 40.6864 23.75C40.9964 23.18 41.4314 22.74 41.9914 22.43C42.5514 22.12 43.2114 21.965 43.9714 21.965C44.7314 21.965 45.3914 22.12 45.9514 22.43C46.5114 22.74 46.9464 23.18 47.2564 23.75C47.5664 24.32 47.7214 24.995 47.7214 25.775C47.7214 26.555 47.5664 27.235 47.2564 27.815C46.9464 28.385 46.5114 28.825 45.9514 29.135C45.3914 29.445 44.7314 29.6 43.9714 29.6ZM43.9714 28.175C44.5314 28.175 44.9814 27.975 45.3214 27.575C45.6614 27.165 45.8314 26.565 45.8314 25.775C45.8314 24.975 45.6614 24.38 45.3214 23.99C44.9814 23.59 44.5314 23.39 43.9714 23.39C43.4114 23.39 42.9614 23.59 42.6214 23.99C42.2814 24.38 42.1114 24.975 42.1114 25.775C42.1114 26.565 42.2814 27.165 42.6214 27.575C42.9614 27.975 43.4114 28.175 43.9714 28.175ZM49.2989 29.45V22.115H51.1289V23.24C51.3489 22.84 51.6539 22.53 52.0439 22.31C52.4339 22.08 52.8839 21.965 53.3939 21.965C54.4939 21.965 55.2139 22.445 55.5539 23.405C55.7839 22.955 56.1139 22.605 56.5439 22.355C56.9739 22.095 57.4639 21.965 58.0139 21.965C59.6639 21.965 60.4889 22.97 60.4889 24.98V29.45H58.6139V25.055C58.6139 24.495 58.5189 24.085 58.3289 23.825C58.1489 23.565 57.8389 23.435 57.3989 23.435C56.9089 23.435 56.5239 23.61 56.2439 23.96C55.9639 24.3 55.8239 24.775 55.8239 25.385V29.45H53.9489V25.055C53.9489 24.495 53.8539 24.085 53.6639 23.825C53.4839 23.565 53.1789 23.435 52.7489 23.435C52.2589 23.435 51.8739 23.61 51.5939 23.96C51.3139 24.3 51.1739 24.775 51.1739 25.385V29.45H49.2989ZM66.0382 29.6C65.2082 29.6 64.4932 29.445 63.8932 29.135C63.2932 28.825 62.8282 28.385 62.4982 27.815C62.1782 27.245 62.0182 26.57 62.0182 25.79C62.0182 25.03 62.1732 24.365 62.4832 23.795C62.8032 23.225 63.2382 22.78 63.7882 22.46C64.3482 22.13 64.9832 21.965 65.6932 21.965C66.7332 21.965 67.5532 22.295 68.1532 22.955C68.7632 23.615 69.0682 24.515 69.0682 25.655V26.21H63.8182C63.9582 27.52 64.7082 28.175 66.0682 28.175C66.4782 28.175 66.8882 28.115 67.2982 27.995C67.7082 27.865 68.0832 27.665 68.4232 27.395L68.9482 28.655C68.5982 28.945 68.1582 29.175 67.6282 29.345C67.0982 29.515 66.5682 29.6 66.0382 29.6ZM65.7682 23.24C65.2182 23.24 64.7732 23.41 64.4332 23.75C64.0932 24.09 63.8882 24.55 63.8182 25.13H67.5082C67.4682 24.52 67.2982 24.055 66.9982 23.735C66.7082 23.405 66.2982 23.24 65.7682 23.24ZM70.5531 29.45V22.115H72.3831V23.255C72.6331 22.835 72.9681 22.515 73.3881 22.295C73.8181 22.075 74.2981 21.965 74.8281 21.965C76.5581 21.965 77.4231 22.97 77.4231 24.98V29.45H75.5481V25.07C75.5481 24.5 75.4381 24.085 75.2181 23.825C75.0081 23.565 74.6781 23.435 74.2281 23.435C73.6781 23.435 73.2381 23.61 72.9081 23.96C72.5881 24.3 72.4281 24.755 72.4281 25.325V29.45H70.5531ZM82.1475 29.6C81.5075 29.6 80.9425 29.445 80.4525 29.135C79.9725 28.825 79.5975 28.385 79.3275 27.815C79.0575 27.235 78.9225 26.555 78.9225 25.775C78.9225 24.985 79.0575 24.31 79.3275 23.75C79.5975 23.18 79.9725 22.74 80.4525 22.43C80.9425 22.12 81.5075 21.965 82.1475 21.965C82.6675 21.965 83.1375 22.08 83.5575 22.31C83.9775 22.54 84.2925 22.845 84.5025 23.225V18.875H86.3775V29.45H84.5475V28.235C84.3475 28.655 84.0325 28.99 83.6025 29.24C83.1725 29.48 82.6875 29.6 82.1475 29.6ZM82.6725 28.175C83.2325 28.175 83.6825 27.975 84.0225 27.575C84.3625 27.165 84.5325 26.565 84.5325 25.775C84.5325 24.975 84.3625 24.38 84.0225 23.99C83.6825 23.59 83.2325 23.39 82.6725 23.39C82.1125 23.39 81.6625 23.59 81.3225 23.99C80.9825 24.38 80.8125 24.975 80.8125 25.775C80.8125 26.565 80.9825 27.165 81.3225 27.575C81.6625 27.975 82.1125 28.175 82.6725 28.175ZM90.7367 29.6C90.2067 29.6 89.7317 29.5 89.3117 29.3C88.9017 29.09 88.5767 28.81 88.3367 28.46C88.1067 28.11 87.9917 27.715 87.9917 27.275C87.9917 26.735 88.1317 26.31 88.4117 26C88.6917 25.68 89.1467 25.45 89.7767 25.31C90.4067 25.17 91.2517 25.1 92.3117 25.1H92.8367V24.785C92.8367 24.285 92.7267 23.925 92.5067 23.705C92.2867 23.485 91.9167 23.375 91.3967 23.375C90.9867 23.375 90.5667 23.44 90.1367 23.57C89.7067 23.69 89.2717 23.88 88.8317 24.14L88.2917 22.865C88.5517 22.685 88.8567 22.53 89.2067 22.4C89.5667 22.26 89.9417 22.155 90.3317 22.085C90.7317 22.005 91.1067 21.965 91.4567 21.965C92.5267 21.965 93.3217 22.215 93.8417 22.715C94.3617 23.205 94.6217 23.97 94.6217 25.01V29.45H92.8667V28.28C92.6967 28.69 92.4267 29.015 92.0567 29.255C91.6867 29.485 91.2467 29.6 90.7367 29.6ZM91.1267 28.31C91.6167 28.31 92.0217 28.14 92.3417 27.8C92.6717 27.46 92.8367 27.03 92.8367 26.51V26.18H92.3267C91.3867 26.18 90.7317 26.255 90.3617 26.405C90.0017 26.545 89.8217 26.805 89.8217 27.185C89.8217 27.515 89.9367 27.785 90.1667 27.995C90.3967 28.205 90.7167 28.31 91.1267 28.31ZM99.9148 29.6C99.1448 29.6 98.4748 29.445 97.9048 29.135C97.3348 28.815 96.8948 28.365 96.5848 27.785C96.2748 27.205 96.1198 26.525 96.1198 25.745C96.1198 24.965 96.2748 24.295 96.5848 23.735C96.8948 23.165 97.3348 22.73 97.9048 22.43C98.4748 22.12 99.1448 21.965 99.9148 21.965C100.385 21.965 100.85 22.04 101.31 22.19C101.77 22.34 102.15 22.55 102.45 22.82L101.895 24.125C101.635 23.895 101.34 23.72 101.01 23.6C100.69 23.48 100.38 23.42 100.08 23.42C99.4298 23.42 98.9248 23.625 98.5648 24.035C98.2148 24.435 98.0398 25.01 98.0398 25.76C98.0398 26.5 98.2148 27.085 98.5648 27.515C98.9248 27.935 99.4298 28.145 100.08 28.145C100.37 28.145 100.68 28.085 101.01 27.965C101.34 27.845 101.635 27.665 101.895 27.425L102.45 28.745C102.15 29.005 101.765 29.215 101.295 29.375C100.835 29.525 100.375 29.6 99.9148 29.6ZM103.48 20.54V18.71H105.58V20.54H103.48ZM103.6 29.45V22.115H105.475V29.45H103.6ZM110.768 29.6C110.008 29.6 109.348 29.445 108.788 29.135C108.228 28.825 107.793 28.385 107.483 27.815C107.173 27.235 107.018 26.555 107.018 25.775C107.018 24.995 107.173 24.32 107.483 23.75C107.793 23.18 108.228 22.74 108.788 22.43C109.348 22.12 110.008 21.965 110.768 21.965C111.528 21.965 112.188 22.12 112.748 22.43C113.308 22.74 113.743 23.18 114.053 23.75C114.363 24.32 114.518 24.995 114.518 25.775C114.518 26.555 114.363 27.235 114.053 27.815C113.743 28.385 113.308 28.825 112.748 29.135C112.188 29.445 111.528 29.6 110.768 29.6ZM110.768 28.175C111.328 28.175 111.778 27.975 112.118 27.575C112.458 27.165 112.628 26.565 112.628 25.775C112.628 24.975 112.458 24.38 112.118 23.99C111.778 23.59 111.328 23.39 110.768 23.39C110.208 23.39 109.758 23.59 109.418 23.99C109.078 24.38 108.908 24.975 108.908 25.775C108.908 26.565 109.078 27.165 109.418 27.575C109.758 27.975 110.208 28.175 110.768 28.175ZM116.066 29.45V22.115H117.896V23.255C118.146 22.835 118.481 22.515 118.901 22.295C119.331 22.075 119.811 21.965 120.341 21.965C122.071 21.965 122.936 22.97 122.936 24.98V29.45H121.061V25.07C121.061 24.5 120.951 24.085 120.731 23.825C120.521 23.565 120.191 23.435 119.741 23.435C119.191 23.435 118.751 23.61 118.421 23.96C118.101 24.3 117.941 24.755 117.941 25.325V29.45H116.066ZM128.455 29.6C127.625 29.6 126.91 29.445 126.31 29.135C125.71 28.825 125.245 28.385 124.915 27.815C124.595 27.245 124.435 26.57 124.435 25.79C124.435 25.03 124.59 24.365 124.9 23.795C125.22 23.225 125.655 22.78 126.205 22.46C126.765 22.13 127.4 21.965 128.11 21.965C129.15 21.965 129.97 22.295 130.57 22.955C131.18 23.615 131.485 24.515 131.485 25.655V26.21H126.235C126.375 27.52 127.125 28.175 128.485 28.175C128.895 28.175 129.305 28.115 129.715 27.995C130.125 27.865 130.5 27.665 130.84 27.395L131.365 28.655C131.015 28.945 130.575 29.175 130.045 29.345C129.515 29.515 128.985 29.6 128.455 29.6ZM128.185 23.24C127.635 23.24 127.19 23.41 126.85 23.75C126.51 24.09 126.305 24.55 126.235 25.13H129.925C129.885 24.52 129.715 24.055 129.415 23.735C129.125 23.405 128.715 23.24 128.185 23.24ZM135.655 29.6C135.035 29.6 134.455 29.525 133.915 29.375C133.375 29.225 132.925 29.01 132.565 28.73L133.045 27.5C133.415 27.75 133.83 27.945 134.29 28.085C134.75 28.215 135.21 28.28 135.67 28.28C136.15 28.28 136.505 28.2 136.735 28.04C136.975 27.87 137.095 27.65 137.095 27.38C137.095 26.96 136.785 26.69 136.165 26.57L134.665 26.285C133.395 26.045 132.76 25.385 132.76 24.305C132.76 23.825 132.89 23.41 133.15 23.06C133.42 22.71 133.79 22.44 134.26 22.25C134.73 22.06 135.27 21.965 135.88 21.965C136.4 21.965 136.9 22.04 137.38 22.19C137.86 22.33 138.27 22.545 138.61 22.835L138.1 24.065C137.81 23.825 137.46 23.635 137.05 23.495C136.65 23.355 136.265 23.285 135.895 23.285C135.405 23.285 135.04 23.37 134.8 23.54C134.57 23.71 134.455 23.935 134.455 24.215C134.455 24.655 134.74 24.925 135.31 25.025L136.81 25.31C137.46 25.43 137.95 25.65 138.28 25.97C138.62 26.29 138.79 26.72 138.79 27.26C138.79 27.99 138.505 28.565 137.935 28.985C137.365 29.395 136.605 29.6 135.655 29.6Z" fill="#121212"/>
<path d="M17.4975 134.394C17.1055 134.394 16.7455 134.302 16.4175 134.118C16.0895 133.926 15.8255 133.67 15.6255 133.35C15.4255 133.03 15.3255 132.67 15.3255 132.27C15.3255 131.902 15.4175 131.558 15.6015 131.238C15.7935 130.91 16.0535 130.646 16.3815 130.446C16.7095 130.238 17.0815 130.134 17.4975 130.134C17.8815 130.134 18.2375 130.226 18.5655 130.41C18.9015 130.594 19.1695 130.85 19.3695 131.178C19.5695 131.498 19.6695 131.862 19.6695 132.27C19.6695 132.662 19.5695 133.018 19.3695 133.338C19.1775 133.658 18.9175 133.914 18.5895 134.106C18.2615 134.298 17.8975 134.394 17.4975 134.394ZM27.544 135.45V126.99H30.4C31.768 126.99 32.824 127.354 33.568 128.082C34.312 128.802 34.684 129.846 34.684 131.214C34.684 132.582 34.312 133.63 33.568 134.358C32.824 135.086 31.768 135.45 30.4 135.45H27.544ZM28.528 134.61H30.328C32.536 134.61 33.64 133.478 33.64 131.214C33.64 128.958 32.536 127.83 30.328 127.83H28.528V134.61ZM38.9463 135.558C38.0263 135.558 37.2983 135.29 36.7623 134.754C36.2263 134.21 35.9583 133.474 35.9583 132.546C35.9583 131.946 36.0783 131.418 36.3183 130.962C36.5583 130.498 36.8863 130.142 37.3023 129.894C37.7263 129.638 38.2143 129.51 38.7663 129.51C39.5583 129.51 40.1783 129.766 40.6263 130.278C41.0743 130.782 41.2983 131.478 41.2983 132.366V132.738H36.9062C36.9383 133.402 37.1303 133.91 37.4823 134.262C37.8343 134.606 38.3223 134.778 38.9463 134.778C39.2983 134.778 39.6343 134.726 39.9543 134.622C40.2743 134.51 40.5783 134.33 40.8663 134.082L41.2023 134.766C40.9383 135.014 40.6023 135.21 40.1943 135.354C39.7863 135.49 39.3703 135.558 38.9463 135.558ZM38.7903 130.23C38.2383 130.23 37.8023 130.402 37.4823 130.746C37.1623 131.09 36.9743 131.542 36.9183 132.102H40.4583C40.4343 131.51 40.2783 131.05 39.9903 130.722C39.7103 130.394 39.3103 130.23 38.7903 130.23ZM45.657 135.558C45.193 135.558 44.785 135.454 44.433 135.246C44.089 135.038 43.829 134.754 43.653 134.394V135.45H42.705V126.99H43.677V130.626C43.845 130.282 44.105 130.01 44.457 129.81C44.809 129.61 45.209 129.51 45.657 129.51C46.177 129.51 46.629 129.634 47.013 129.882C47.405 130.122 47.705 130.47 47.913 130.926C48.129 131.374 48.237 131.91 48.237 132.534C48.237 133.15 48.129 133.686 47.913 134.142C47.705 134.59 47.405 134.938 47.013 135.186C46.629 135.434 46.177 135.558 45.657 135.558ZM45.453 134.778C45.997 134.778 46.433 134.586 46.761 134.202C47.089 133.81 47.253 133.254 47.253 132.534C47.253 131.806 47.089 131.25 46.761 130.866C46.433 130.482 45.997 130.29 45.453 130.29C44.909 130.29 44.473 130.482 44.145 130.866C43.817 131.25 43.653 131.806 43.653 132.534C43.653 133.254 43.817 133.81 44.145 134.202C44.473 134.586 44.909 134.778 45.453 134.778ZM52.3291 135.558C51.4091 135.558 50.6811 135.29 50.1451 134.754C49.6091 134.21 49.3411 133.474 49.3411 132.546C49.3411 131.946 49.4611 131.418 49.7011 130.962C49.9411 130.498 50.2691 130.142 50.6851 129.894C51.1091 129.638 51.5971 129.51 52.1491 129.51C52.9411 129.51 53.5611 129.766 54.0091 130.278C54.4571 130.782 54.6811 131.478 54.6811 132.366V132.738H50.2891C50.3211 133.402 50.5131 133.91 50.8651 134.262C51.2171 134.606 51.7051 134.778 52.3291 134.778C52.6811 134.778 53.0171 134.726 53.3371 134.622C53.6571 134.51 53.9611 134.33 54.2491 134.082L54.5851 134.766C54.3211 135.014 53.9851 135.21 53.5771 135.354C53.1691 135.49 52.7531 135.558 52.3291 135.558ZM52.1731 130.23C51.6211 130.23 51.1851 130.402 50.8651 130.746C50.5451 131.09 50.3571 131.542 50.3011 132.102H53.8411C53.8171 131.51 53.6611 131.05 53.3731 130.722C53.0931 130.394 52.6931 130.23 52.1731 130.23ZM59.1698 135.45V126.99H60.1418V130.578C60.3338 130.226 60.6018 129.962 60.9458 129.786C61.2978 129.602 61.6898 129.51 62.1218 129.51C63.5058 129.51 64.1978 130.278 64.1978 131.814V135.45H63.2258V131.874C63.2258 131.33 63.1178 130.934 62.9018 130.686C62.6938 130.43 62.3578 130.302 61.8938 130.302C61.3578 130.302 60.9298 130.47 60.6098 130.806C60.2978 131.134 60.1418 131.574 60.1418 132.126V135.45H59.1698ZM67.8261 135.558C67.4261 135.558 67.0661 135.482 66.7461 135.33C66.4341 135.17 66.1861 134.954 66.0021 134.682C65.8181 134.41 65.7261 134.106 65.7261 133.77C65.7261 133.346 65.8341 133.01 66.0501 132.762C66.2741 132.514 66.6381 132.338 67.1421 132.234C67.6541 132.122 68.3501 132.066 69.2301 132.066H69.6141V131.694C69.6141 131.198 69.5101 130.842 69.3021 130.626C69.1021 130.402 68.7781 130.29 68.3301 130.29C67.9781 130.29 67.6381 130.342 67.3101 130.446C66.9821 130.542 66.6461 130.702 66.3021 130.926L65.9661 130.218C66.2701 130.002 66.6381 129.83 67.0701 129.702C67.5101 129.574 67.9301 129.51 68.3301 129.51C69.0821 129.51 69.6381 129.694 69.9981 130.062C70.3661 130.43 70.5501 131.002 70.5501 131.778V135.45H69.6381V134.442C69.4861 134.786 69.2501 135.058 68.9301 135.258C68.6181 135.458 68.2501 135.558 67.8261 135.558ZM67.9821 134.826C68.4621 134.826 68.8541 134.662 69.1581 134.334C69.4621 133.998 69.6141 133.574 69.6141 133.062V132.702H69.2421C68.5941 132.702 68.0821 132.734 67.7061 132.798C67.3381 132.854 67.0781 132.958 66.9261 133.11C66.7821 133.254 66.7101 133.454 66.7101 133.71C66.7101 134.038 66.8221 134.306 67.0461 134.514C67.2781 134.722 67.5901 134.826 67.9821 134.826ZM75.3054 135.558C74.8414 135.558 74.4334 135.454 74.0814 135.246C73.7374 135.038 73.4774 134.754 73.3014 134.394V135.45H72.3534V126.99H73.3254V130.626C73.4934 130.282 73.7534 130.01 74.1054 129.81C74.4574 129.61 74.8574 129.51 75.3054 129.51C75.8254 129.51 76.2774 129.634 76.6614 129.882C77.0534 130.122 77.3534 130.47 77.5614 130.926C77.7774 131.374 77.8854 131.91 77.8854 132.534C77.8854 133.15 77.7774 133.686 77.5614 134.142C77.3534 134.59 77.0534 134.938 76.6614 135.186C76.2774 135.434 75.8254 135.558 75.3054 135.558ZM75.1014 134.778C75.6454 134.778 76.0814 134.586 76.4094 134.202C76.7374 133.81 76.9014 133.254 76.9014 132.534C76.9014 131.806 76.7374 131.25 76.4094 130.866C76.0814 130.482 75.6454 130.29 75.1014 130.29C74.5574 130.29 74.1214 130.482 73.7934 130.866C73.4654 131.25 73.3014 131.806 73.3014 132.534C73.3014 133.254 73.4654 133.81 73.7934 134.202C74.1214 134.586 74.5574 134.778 75.1014 134.778ZM81.9775 135.558C81.0575 135.558 80.3295 135.29 79.7935 134.754C79.2575 134.21 78.9895 133.474 78.9895 132.546C78.9895 131.946 79.1095 131.418 79.3495 130.962C79.5895 130.498 79.9175 130.142 80.3335 129.894C80.7575 129.638 81.2455 129.51 81.7975 129.51C82.5895 129.51 83.2095 129.766 83.6575 130.278C84.1055 130.782 84.3295 131.478 84.3295 132.366V132.738H79.9375C79.9695 133.402 80.1615 133.91 80.5135 134.262C80.8655 134.606 81.3535 134.778 81.9775 134.778C82.3295 134.778 82.6655 134.726 82.9855 134.622C83.3055 134.51 83.6095 134.33 83.8975 134.082L84.2335 134.766C83.9695 135.014 83.6335 135.21 83.2255 135.354C82.8175 135.49 82.4015 135.558 81.9775 135.558ZM81.8215 130.23C81.2695 130.23 80.8335 130.402 80.5135 130.746C80.1935 131.09 80.0055 131.542 79.9495 132.102H83.4895C83.4655 131.51 83.3095 131.05 83.0215 130.722C82.7415 130.394 82.3415 130.23 81.8215 130.23ZM85.7362 135.45V129.618H86.6842V130.662C86.9962 129.958 87.6362 129.57 88.6042 129.498L88.9522 129.462L89.0242 130.302L88.4122 130.374C87.8602 130.422 87.4402 130.598 87.1522 130.902C86.8642 131.198 86.7202 131.606 86.7202 132.126V135.45H85.7362ZM94.955 135.558C94.555 135.558 94.195 135.482 93.875 135.33C93.563 135.17 93.315 134.954 93.131 134.682C92.947 134.41 92.855 134.106 92.855 133.77C92.855 133.346 92.963 133.01 93.179 132.762C93.403 132.514 93.767 132.338 94.271 132.234C94.783 132.122 95.479 132.066 96.359 132.066H96.743V131.694C96.743 131.198 96.639 130.842 96.431 130.626C96.231 130.402 95.907 130.29 95.459 130.29C95.107 130.29 94.767 130.342 94.439 130.446C94.111 130.542 93.775 130.702 93.431 130.926L93.095 130.218C93.399 130.002 93.767 129.83 94.199 129.702C94.639 129.574 95.059 129.51 95.459 129.51C96.211 129.51 96.767 129.694 97.127 130.062C97.495 130.43 97.679 131.002 97.679 131.778V135.45H96.767V134.442C96.615 134.786 96.379 135.058 96.059 135.258C95.747 135.458 95.379 135.558 94.955 135.558ZM95.111 134.826C95.591 134.826 95.983 134.662 96.287 134.334C96.591 133.998 96.743 133.574 96.743 133.062V132.702H96.371C95.723 132.702 95.211 132.734 94.835 132.798C94.467 132.854 94.207 132.958 94.055 133.11C93.911 133.254 93.839 133.454 93.839 133.71C93.839 134.038 93.951 134.306 94.175 134.514C94.407 134.722 94.719 134.826 95.111 134.826ZM101.27 135.558C100.678 135.558 100.23 135.386 99.9263 135.042C99.6303 134.69 99.4823 134.182 99.4823 133.518V126.99H100.454V133.446C100.454 134.302 100.794 134.73 101.474 134.73C101.674 134.73 101.854 134.706 102.014 134.658L101.99 135.474C101.742 135.53 101.502 135.558 101.27 135.558ZM106.139 135.45V129.618H107.087V130.602C107.263 130.25 107.507 129.982 107.819 129.798C108.131 129.606 108.495 129.51 108.911 129.51C109.823 129.51 110.407 129.906 110.663 130.698C110.839 130.33 111.099 130.042 111.443 129.834C111.787 129.618 112.183 129.51 112.631 129.51C113.927 129.51 114.575 130.278 114.575 131.814V135.45H113.603V131.862C113.603 131.326 113.507 130.934 113.315 130.686C113.131 130.43 112.823 130.302 112.391 130.302C111.919 130.302 111.543 130.47 111.263 130.806C110.983 131.142 110.843 131.59 110.843 132.15V135.45H109.871V131.862C109.871 131.326 109.775 130.934 109.583 130.686C109.399 130.43 109.091 130.302 108.659 130.302C108.179 130.302 107.799 130.47 107.519 130.806C107.247 131.142 107.111 131.59 107.111 132.15V135.45H106.139ZM119.02 135.558C118.1 135.558 117.372 135.29 116.836 134.754C116.3 134.21 116.032 133.474 116.032 132.546C116.032 131.946 116.152 131.418 116.392 130.962C116.632 130.498 116.96 130.142 117.376 129.894C117.8 129.638 118.288 129.51 118.84 129.51C119.632 129.51 120.252 129.766 120.7 130.278C121.148 130.782 121.372 131.478 121.372 132.366V132.738H116.98C117.012 133.402 117.204 133.91 117.556 134.262C117.908 134.606 118.396 134.778 119.02 134.778C119.372 134.778 119.708 134.726 120.028 134.622C120.348 134.51 120.652 134.33 120.94 134.082L121.276 134.766C121.012 135.014 120.676 135.21 120.268 135.354C119.86 135.49 119.444 135.558 119.02 135.558ZM118.864 130.23C118.312 130.23 117.876 130.402 117.556 130.746C117.236 131.09 117.048 131.542 116.992 132.102H120.532C120.508 131.51 120.352 131.05 120.064 130.722C119.784 130.394 119.384 130.23 118.864 130.23ZM122.779 135.45V129.618H123.727V130.614C123.919 130.246 124.191 129.97 124.543 129.786C124.895 129.602 125.291 129.51 125.731 129.51C127.115 129.51 127.807 130.278 127.807 131.814V135.45H126.835V131.874C126.835 131.33 126.727 130.934 126.511 130.686C126.303 130.43 125.967 130.302 125.503 130.302C124.967 130.302 124.539 130.47 124.219 130.806C123.907 131.134 123.751 131.574 123.751 132.126V135.45H122.779ZM132.024 135.558C131.456 135.558 130.964 135.434 130.548 135.186C130.132 134.938 129.808 134.59 129.576 134.142C129.352 133.686 129.24 133.15 129.24 132.534C129.24 131.918 129.352 131.386 129.576 130.938C129.808 130.482 130.132 130.13 130.548 129.882C130.964 129.634 131.456 129.51 132.024 129.51C132.584 129.51 133.072 129.634 133.488 129.882C133.912 130.13 134.236 130.482 134.46 130.938C134.692 131.386 134.808 131.918 134.808 132.534C134.808 133.15 134.692 133.686 134.46 134.142C134.236 134.59 133.912 134.938 133.488 135.186C133.072 135.434 132.584 135.558 132.024 135.558ZM132.024 134.778C132.568 134.778 133.004 134.586 133.332 134.202C133.66 133.81 133.824 133.254 133.824 132.534C133.824 131.806 133.66 131.25 133.332 130.866C133.004 130.482 132.568 130.29 132.024 130.29C131.472 130.29 131.032 130.482 130.704 130.866C130.384 131.25 130.224 131.806 130.224 132.534C130.224 133.254 130.384 133.81 130.704 134.202C131.032 134.586 131.472 134.778 132.024 134.778ZM138.235 135.558C137.779 135.558 137.347 135.494 136.939 135.366C136.531 135.238 136.195 135.058 135.931 134.826L136.243 134.142C136.531 134.374 136.847 134.546 137.191 134.658C137.543 134.762 137.899 134.814 138.259 134.814C138.715 134.814 139.059 134.73 139.291 134.562C139.523 134.394 139.639 134.166 139.639 133.878C139.639 133.654 139.563 133.478 139.411 133.35C139.259 133.214 139.019 133.11 138.691 133.038L137.599 132.798C136.607 132.582 136.111 132.07 136.111 131.262C136.111 130.734 136.319 130.31 136.735 129.99C137.159 129.67 137.711 129.51 138.391 129.51C138.791 129.51 139.171 129.574 139.531 129.702C139.899 129.822 140.203 130.002 140.443 130.242L140.119 130.926C139.887 130.71 139.615 130.546 139.303 130.434C138.999 130.314 138.695 130.254 138.391 130.254C137.943 130.254 137.603 130.342 137.371 130.518C137.139 130.694 137.023 130.926 137.023 131.214C137.023 131.662 137.319 131.95 137.911 132.078L139.003 132.306C139.515 132.418 139.903 132.598 140.167 132.846C140.431 133.086 140.563 133.414 140.563 133.83C140.563 134.366 140.351 134.79 139.927 135.102C139.503 135.406 138.939 135.558 138.235 135.558ZM147.347 135.558C146.827 135.558 146.371 135.434 145.979 135.186C145.595 134.938 145.295 134.59 145.079 134.142C144.871 133.686 144.767 133.15 144.767 132.534C144.767 131.91 144.871 131.374 145.079 130.926C145.295 130.47 145.595 130.122 145.979 129.882C146.371 129.634 146.827 129.51 147.347 129.51C147.803 129.51 148.203 129.61 148.547 129.81C148.899 130.01 149.159 130.286 149.327 130.638V126.99H150.299V135.45H149.351V134.382C149.183 134.75 148.923 135.038 148.571 135.246C148.219 135.454 147.811 135.558 147.347 135.558ZM147.551 134.778C148.095 134.778 148.531 134.586 148.859 134.202C149.187 133.81 149.351 133.254 149.351 132.534C149.351 131.806 149.187 131.25 148.859 130.866C148.531 130.482 148.095 130.29 147.551 130.29C146.999 130.29 146.559 130.482 146.231 130.866C145.911 131.25 145.751 131.806 145.751 132.534C145.751 133.254 145.911 133.81 146.231 134.202C146.559 134.586 146.999 134.778 147.551 134.778ZM154.547 135.558C153.979 135.558 153.487 135.434 153.071 135.186C152.655 134.938 152.331 134.59 152.099 134.142C151.875 133.686 151.763 133.15 151.763 132.534C151.763 131.918 151.875 131.386 152.099 130.938C152.331 130.482 152.655 130.13 153.071 129.882C153.487 129.634 153.979 129.51 154.547 129.51C155.107 129.51 155.595 129.634 156.011 129.882C156.435 130.13 156.759 130.482 156.983 130.938C157.215 131.386 157.331 131.918 157.331 132.534C157.331 133.15 157.215 133.686 156.983 134.142C156.759 134.59 156.435 134.938 156.011 135.186C155.595 135.434 155.107 135.558 154.547 135.558ZM154.547 134.778C155.091 134.778 155.527 134.586 155.855 134.202C156.183 133.81 156.347 133.254 156.347 132.534C156.347 131.806 156.183 131.25 155.855 130.866C155.527 130.482 155.091 130.29 154.547 130.29C153.995 130.29 153.555 130.482 153.227 130.866C152.907 131.25 152.747 131.806 152.747 132.534C152.747 133.254 152.907 133.81 153.227 134.202C153.555 134.586 153.995 134.778 154.547 134.778ZM160.759 135.558C160.303 135.558 159.871 135.494 159.463 135.366C159.055 135.238 158.719 135.058 158.455 134.826L158.767 134.142C159.055 134.374 159.371 134.546 159.715 134.658C160.067 134.762 160.423 134.814 160.783 134.814C161.239 134.814 161.583 134.73 161.815 134.562C162.047 134.394 162.163 134.166 162.163 133.878C162.163 133.654 162.087 133.478 161.935 133.35C161.783 133.214 161.543 133.11 161.215 133.038L160.123 132.798C159.131 132.582 158.635 132.07 158.635 131.262C158.635 130.734 158.843 130.31 159.259 129.99C159.683 129.67 160.235 129.51 160.915 129.51C161.315 129.51 161.695 129.574 162.055 129.702C162.423 129.822 162.727 130.002 162.967 130.242L162.643 130.926C162.411 130.71 162.139 130.546 161.827 130.434C161.523 130.314 161.219 130.254 160.915 130.254C160.467 130.254 160.127 130.342 159.895 130.518C159.663 130.694 159.547 130.926 159.547 131.214C159.547 131.662 159.843 131.95 160.435 132.078L161.527 132.306C162.039 132.418 162.427 132.598 162.691 132.846C162.955 133.086 163.087 133.414 163.087 133.83C163.087 134.366 162.875 134.79 162.451 135.102C162.027 135.406 161.463 135.558 160.759 135.558ZM169.438 135.558C168.846 135.558 168.398 135.386 168.094 135.042C167.798 134.69 167.65 134.182 167.65 133.518V126.99H168.622V133.446C168.622 134.302 168.962 134.73 169.642 134.73C169.842 134.73 170.022 134.706 170.182 134.658L170.158 135.474C169.91 135.53 169.67 135.558 169.438 135.558ZM173.77 135.558C172.85 135.558 172.122 135.29 171.586 134.754C171.05 134.21 170.782 133.474 170.782 132.546C170.782 131.946 170.902 131.418 171.142 130.962C171.382 130.498 171.71 130.142 172.126 129.894C172.55 129.638 173.038 129.51 173.59 129.51C174.382 129.51 175.002 129.766 175.45 130.278C175.898 130.782 176.122 131.478 176.122 132.366V132.738H171.73C171.762 133.402 171.954 133.91 172.306 134.262C172.658 134.606 173.146 134.778 173.77 134.778C174.122 134.778 174.458 134.726 174.778 134.622C175.098 134.51 175.402 134.33 175.69 134.082L176.026 134.766C175.762 135.014 175.426 135.21 175.018 135.354C174.61 135.49 174.194 135.558 173.77 135.558ZM173.614 130.23C173.062 130.23 172.626 130.402 172.306 130.746C171.986 131.09 171.798 131.542 171.742 132.102H175.282C175.258 131.51 175.102 131.05 174.814 130.722C174.534 130.394 174.134 130.23 173.614 130.23ZM179.869 135.558C179.181 135.558 178.665 135.378 178.321 135.018C177.977 134.65 177.805 134.122 177.805 133.434V130.374H176.665V129.618H177.805V127.83H178.777V129.618H180.625V130.374H178.777V133.338C178.777 133.794 178.873 134.142 179.065 134.382C179.257 134.614 179.569 134.73 180.001 134.73C180.129 134.73 180.257 134.714 180.385 134.682C180.513 134.65 180.629 134.618 180.733 134.586L180.901 135.33C180.797 135.386 180.645 135.438 180.445 135.486C180.245 135.534 180.053 135.558 179.869 135.558ZM181.725 135.45V129.618H182.673V130.662C182.985 129.958 183.625 129.57 184.593 129.498L184.941 129.462L185.013 130.302L184.401 130.374C183.849 130.422 183.429 130.598 183.141 130.902C182.853 131.198 182.709 131.606 182.709 132.126V135.45H181.725ZM187.803 135.558C187.403 135.558 187.043 135.482 186.723 135.33C186.411 135.17 186.163 134.954 185.979 134.682C185.795 134.41 185.703 134.106 185.703 133.77C185.703 133.346 185.811 133.01 186.027 132.762C186.251 132.514 186.615 132.338 187.119 132.234C187.631 132.122 188.327 132.066 189.207 132.066H189.591V131.694C189.591 131.198 189.487 130.842 189.279 130.626C189.079 130.402 188.755 130.29 188.307 130.29C187.955 130.29 187.615 130.342 187.287 130.446C186.959 130.542 186.623 130.702 186.279 130.926L185.943 130.218C186.247 130.002 186.615 129.83 187.047 129.702C187.487 129.574 187.907 129.51 188.307 129.51C189.059 129.51 189.615 129.694 189.975 130.062C190.343 130.43 190.527 131.002 190.527 131.778V135.45H189.615V134.442C189.463 134.786 189.227 135.058 188.907 135.258C188.595 135.458 188.227 135.558 187.803 135.558ZM187.959 134.826C188.439 134.826 188.831 134.662 189.135 134.334C189.439 133.998 189.591 133.574 189.591 133.062V132.702H189.219C188.571 132.702 188.059 132.734 187.683 132.798C187.315 132.854 187.055 132.958 186.903 133.11C186.759 133.254 186.687 133.454 186.687 133.71C186.687 134.038 186.799 134.306 187.023 134.514C187.255 134.722 187.567 134.826 187.959 134.826ZM194.298 135.558C193.842 135.558 193.41 135.494 193.002 135.366C192.594 135.238 192.258 135.058 191.994 134.826L192.306 134.142C192.594 134.374 192.91 134.546 193.254 134.658C193.606 134.762 193.962 134.814 194.322 134.814C194.778 134.814 195.122 134.73 195.354 134.562C195.586 134.394 195.702 134.166 195.702 133.878C195.702 133.654 195.626 133.478 195.474 133.35C195.322 133.214 195.082 133.11 194.754 133.038L193.662 132.798C192.67 132.582 192.174 132.07 192.174 131.262C192.174 130.734 192.382 130.31 192.798 129.99C193.222 129.67 193.774 129.51 194.454 129.51C194.854 129.51 195.234 129.574 195.594 129.702C195.962 129.822 196.266 130.002 196.506 130.242L196.182 130.926C195.95 130.71 195.678 130.546 195.366 130.434C195.062 130.314 194.758 130.254 194.454 130.254C194.006 130.254 193.666 130.342 193.434 130.518C193.202 130.694 193.086 130.926 193.086 131.214C193.086 131.662 193.382 131.95 193.974 132.078L195.066 132.306C195.578 132.418 195.966 132.598 196.23 132.846C196.494 133.086 196.626 133.414 196.626 133.83C196.626 134.366 196.414 134.79 195.99 135.102C195.566 135.406 195.002 135.558 194.298 135.558Z" fill="#424242"/>
</svg>
