<svg xmlns="http://www.w3.org/2000/svg" width="248" height="248" fill="none" xmlns:v="https://vecta.io/nano"><style><![CDATA[.B{fill:#160f41}.C{fill:#170f40}.D{fill:#9fdcee}.E{fill:#f29b9b}]]></style><g clip-path="url(#A)"><g class="B"><path d="M223.253 224.97c-12.994-53.534 2.312-96.507 2.47-96.934l.633.232c-.154.428-15.388 43.22-2.443 96.545l-.66.157zm-222.197.326l-.577-.352c24.418-40.237 56.281-64.498 78.717-77.769 24.309-14.376 43.099-19.304 43.287-19.352l.168.652c-.187.048-18.902 4.957-43.137 19.292-22.361 13.234-54.123 37.42-78.458 77.529z"/></g><g class="D"><path d="M173.537 128.152h-19.978V99.04l19.978-8.779v37.891zm22.488.001h19.978V99.04l-19.978-8.779v37.892z"/></g><path d="M231.957 105.915c-.678 2.035-1.184 4.088-.847 6.351.408 2.735 2.484 5.433 5.246 5.571 2.798.143 5.163-2.42 5.736-5.163s-.214-5.575-1.117-8.228-1.948-5.339-1.899-8.142c.018-.978.165-1.99-.158-2.919s-1.334-1.716-2.248-1.368c-.543.206-.884.734-1.154 1.248-1.532 2.923-1.435 6.355-2.45 9.445l-1.109 3.204z" class="B"/><path d="M184.313 51.346l-42.024 22.938v14.466l42.024-22.934 42.024 22.934V74.284l-42.024-22.938z" fill="#d1006e"/><g class="C"><path d="M226.674 128.49h-84.723V74.086l.176-.097 42.189-23.024 42.362 23.122v54.404h-.004zm-84.048-.675H226V74.483l-41.687-22.751-41.687 22.751v53.332z"/><path d="M184.65 51.346h-.675v76.802h.675V51.346z"/></g><g class="D"><path d="M65.513 36.97c0-1.945-1.574-3.518-3.518-3.518-.832 0-1.585.3-2.188.783-.689-1.581-2.263-2.686-4.095-2.686-2.469 0-4.47 2.878-4.47 5.347l14.272.075zm40.345 27.359a4.94 4.94 0 0 0-4.939-4.938c-1.168 0-2.225.423-3.072 1.098-.967-2.218-3.174-3.773-5.751-3.773-3.466 0-6.276 4.039-6.276 7.505l20.038.109z"/></g><path d="M237.323 108.197h-1.349v16.351h1.349v-16.351z" class="B"/><g class="C"><path d="M184.65 23.088h-.675v13.091h.675V23.088zm43.071 12.356l-9.257 9.257.477.477 9.256-9.257-.476-.477zm-90.351.001l-.477.477 9.257 9.257.477-.477-9.257-9.257z"/></g><g fill="#fff"><path d="M176.167 63.021l.611-.423v3.125l-.611.334v-3.035zm-25.047 9.532c-.78.423-1.521 1.057-2.147 1.825l-.124.157c-.007.011-.015.019-.022.03l-.094.127c-.007.007-.011.015-.019.026-.176.236-.404.57-.588.918-.532.963-.824 1.948-.824 2.818 0 .982.371 1.716 1.049 2.061h.045.041.049.045c.015 0 .033 0 .048-.004s.03 0 .045-.004.034-.004.049-.004.03-.004.045-.004.034-.004.049-.007l.045-.008c.015-.004.033-.004.048-.007l.049-.008.053-.011.048-.011.053-.011.048-.011c.019-.004.034-.011.053-.015s.034-.007.049-.015.037-.011.052-.015l.049-.015c.019-.007.037-.011.052-.019s.034-.011.049-.019l.056-.022c.015-.007.03-.011.049-.019a.38.38 0 0 0 .056-.026l.045-.019.06-.026.045-.019.071-.034c.011-.004.023-.011.034-.015l.105-.056a5.54 5.54 0 0 0 1.158-.854c.408-.386.771-.836 1.071-1.315l.277-.491.06-.12c.008-.011.012-.022.019-.037l.041-.09c.004-.011.012-.022.015-.037l.053-.12.052-.124.015-.037.034-.094.011-.03.041-.116c-.075.146-.157.292-.254.435-.383.573-.881 1.049-1.409 1.334s-1.031.356-1.409.195-.6-.532-.618-1.049v-.049-.022-.071c.003-.142.015-.292.037-.442v-.004a1.17 1.17 0 0 1 .019-.116c0-.007.004-.015.004-.022.003-.03.011-.06.018-.09l.012-.049.011-.056.019-.082.011-.045.026-.094c.004-.011.008-.022.011-.037.012-.034.019-.068.03-.101.004-.011.008-.019.008-.03l.034-.109c.003-.008.003-.015.007-.023a1.26 1.26 0 0 1 .041-.112c.004-.008.004-.011.008-.019l.045-.12.007-.015.049-.12.06-.135.064-.139.067-.139.064-.124c.007-.015.015-.026.022-.041l.045-.082.026-.049.042-.075c.011-.019.018-.034.03-.049l.044-.071.034-.052.045-.067c.011-.019.023-.034.034-.049l.045-.067.034-.049.048-.067a.4.4 0 0 0 .034-.049c.019-.023.034-.049.052-.071l.03-.041.06-.082c.008-.011.015-.022.027-.034l.09-.112.089-.109c.012-.011.023-.026.03-.037l.06-.071c.012-.015.027-.026.038-.041.004-.007.011-.011.015-.019l.554-.547.042-.034.037-.034c.011-.011.023-.019.034-.03a.32.32 0 0 0 .037-.034c.011-.011.023-.019.034-.03s.026-.022.037-.03l.034-.026a.31.31 0 0 0 .038-.03c.012-.011.022-.019.037-.026l.041-.03c.012-.008.023-.019.034-.026l.041-.03c.011-.007.023-.015.034-.026l.041-.03.034-.022c.015-.011.03-.019.041-.03l.034-.022c.015-.011.03-.019.041-.026l.034-.022c.015-.007.03-.019.045-.026s.022-.015.033-.019l.045-.03.03-.019.053-.03c.007-.004.015-.011.026-.015l.079-.041.097-.052c.008-.004.019-.011.026-.015l.079-.038.023-.011.097-.045c.007-.004.015-.008.022-.008l.079-.034.026-.011.09-.034.105-.037c.008-.004.019-.004.026-.007l.075-.023c.008-.004.015-.004.023-.007.03-.011.064-.019.094-.026l.097-.022c.007-.004.019-.004.026-.008l.083-.019.101-.019c.007 0 .019-.004.026-.004s.022-.004.034-.004c-.667-.184-1.506-.03-2.398.453z"/><path d="M151.233 80.219c.779-.423 1.521-1.057 2.147-1.825l.123-.157.023-.03.093-.127c.008-.007.012-.015.019-.026a7.21 7.21 0 0 0 .588-.918c.532-.963.825-1.948.825-2.818 0-.982-.371-1.716-1.049-2.061h-.045-.042-.048-.045c-.015 0-.034 0-.049.004s-.03 0-.045.004-.034.004-.049.004-.03.004-.045.004a.2.2 0 0 0-.048.008c-.015.004-.03.004-.045.007s-.034.004-.049.007l-.049.008-.052.011-.049.011-.052.011-.049.011c-.019.004-.034.011-.052.015s-.034.008-.049.015-.038.011-.053.015l-.048.015c-.015.004-.038.011-.053.019a.26.26 0 0 0-.049.019l-.056.022c-.015.008-.03.011-.048.019s-.038.015-.057.026-.03.011-.045.019l-.06.026c-.015.008-.03.011-.045.019l-.071.034c-.011.004-.022.011-.033.015l-.105.056a5.51 5.51 0 0 0-1.158.854 6.76 6.76 0 0 0-1.072 1.315l-.277.491-.06.12c-.007.011-.011.022-.019.037l-.041.09c-.004.011-.011.023-.015.038l-.052.12-.053.124c-.003.011-.007.022-.015.037l-.033.094-.012.03-.041.116a3.97 3.97 0 0 1 .255-.435c.378-.573.88-1.049 1.409-1.334s1.03-.356 1.408-.195.6.532.619 1.049v.049.022.071a3.6 3.6 0 0 1-.038.442v.004l-.018.116c0 .007-.004.015-.004.022a.72.72 0 0 1-.019.09l-.011.049-.011.056c-.008.026-.012.056-.019.082l-.011.045c-.008.03-.015.064-.027.094l-.011.038-.03.101c-.004.011-.007.019-.007.03l-.034.109c-.004.007-.004.015-.008.022-.011.037-.026.075-.041.112l-.052.139-.008.015-.048.12-.06.135-.064.139-.068.139-.063.124-.023.041-.045.082c-.007.015-.018.034-.026.049l-.041.075-.03.049-.045.071-.034.052-.045.067c-.011.019-.022.034-.033.049l-.045.067c-.012.015-.023.034-.034.049l-.049.068-.034.049-.052.071-.03.041-.06.082c-.007.011-.015.022-.026.034l-.09.112-.09.109c-.011.011-.023.026-.03.038l-.06.071c-.011.015-.026.026-.037.041-.004.008-.012.011-.015.019l-.555.547-.041.034c-.011.011-.026.022-.038.034l-.033.03c-.011.011-.027.023-.038.034s-.022.019-.034.03-.026.022-.037.03-.022.019-.034.026-.026.019-.037.03-.023.019-.038.026l-.041.03c-.011.007-.022.019-.034.026l-.041.03c-.011.007-.022.015-.034.026s-.026.019-.041.03l-.033.023c-.015.011-.03.019-.042.03l-.033.022c-.015.011-.03.019-.042.026l-.033.022-.045.026c-.015.007-.023.015-.034.019l-.045.03-.03.019-.052.03c-.008.004-.015.011-.027.015l-.078.041-.098.053-.026.015-.079.037-.022.011-.098.045c-.007.004-.015.007-.022.007l-.079.034c-.007.004-.018.007-.026.011l-.09.034-.105.037c-.007.004-.019.008-.026.008l-.075.022c-.007.004-.015.004-.022.007-.03.011-.064.019-.094.026l-.098.023c-.007.004-.018.004-.026.007-.026.008-.056.011-.082.019a.65.65 0 0 1-.101.019c-.008 0-.019.004-.027.004s-.022.004-.033.004c.667.184 1.506.03 2.398-.453zm7.376-8.868c0-.225-.153-.285-.427-.135l-.637.345v.727l.645-.348c.251-.139.419-.33.419-.588zm-1.064-.948v.686l.536-.292c.27-.146.431-.363.431-.577 0-.266-.184-.243-.39-.131l-.577.315zm1.709.633c0 .555-.39 1.06-1.038 1.413l-1.304.708v-2.949l1.285-.697c.592-.322.956-.255.956.296 0 .292-.203.629-.412.809.228-.067.513.011.513.42zm1.72-.884v-.154a1.59 1.59 0 0 0-.461.172c-.262.142-.479.367-.479.573s.194.213.427.086c.269-.142.513-.408.513-.678zm.015.532c-.139.266-.39.513-.701.682-.502.273-.865.225-.865-.244 0-.487.476-.993.933-1.24a2.81 2.81 0 0 1 .614-.247c.008-.352-.18-.397-.513-.217a3.55 3.55 0 0 0-.768.585l-.15-.367c.21-.213.581-.547 1.008-.779.716-.39 1.034-.21 1.034.487v1.281l-.592.322v-.262zm3.174-2.811v1.349l-.611.334v-1.255c0-.334-.198-.412-.487-.255-.314.172-.547.513-.547.82v1.252l-.611.333v-2.285l.611-.334v.341c.184-.288.45-.633.802-.821.495-.27.843-.09.843.521zm1.423-1.749c.521-.281.899-.202 1.053.075l-.525.506c-.093-.12-.255-.176-.524-.03-.353.191-.6.599-.6.967s.251.495.6.303c.273-.15.442-.382.532-.592l.524-.067c-.157.461-.524.922-1.056 1.21-.682.371-1.214.169-1.214-.521 0-.667.536-1.488 1.21-1.851z"/><path d="M167.336 66.356c0 .36.229.517.603.311s.604-.611.604-.967c0-.363-.225-.513-.604-.307-.374.202-.603.599-.603.963zm-.614.334c0-.652.506-1.461 1.221-1.847s1.222-.131 1.222.521-.506 1.465-1.222 1.851-1.221.131-1.221-.525zm-6.991 7.059c-.072.764-.645 1.634-1.522 2.113-.906.491-1.57.184-1.57-.671s.664-1.888 1.57-2.379c.69-.375 1.124-.258 1.375.026l-.573.577c-.146-.15-.39-.244-.802-.019-.528.285-.933.914-.933 1.45s.416.708.933.427c.439-.24.776-.659.843-1.083l-1.026.558v-.513l1.72-.933c0 .086.007.225-.015.446z"/><path d="M162.285 71.309v2.286l-.61.333v-.341c-.184.288-.45.633-.802.82-.498.27-.847.094-.847-.521v-1.349l.611-.334v1.255c0 .334.198.412.487.255.315-.172.547-.513.547-.821v-1.251l.614-.334zm1.799.506v-.154c-.146.026-.3.086-.461.172-.262.142-.48.367-.48.573s.195.213.428.086c.269-.146.513-.408.513-.678zm.015.532c-.139.266-.39.513-.701.682-.502.273-.865.225-.865-.243 0-.487.476-.993.933-1.24a2.81 2.81 0 0 1 .614-.247c.008-.352-.18-.397-.513-.217a3.52 3.52 0 0 0-.768.585l-.15-.367c.21-.214.581-.547 1.008-.779.715-.39 1.034-.21 1.034.487v1.282l-.592.322v-.262zm3.23-3.777l-1.026 3.013c-.206.603-.454.959-.93 1.218-.254.139-.43.187-.663.199l.195-.592c.116-.011.244-.022.412-.112.221-.12.334-.289.442-.607l.004-.015-1.004-1.705.693-.375.607 1.18.607-1.84.663-.364zm1.577.626v-.154c-.146.026-.3.086-.461.172-.262.142-.479.367-.479.573s.195.213.427.086c.27-.142.513-.408.513-.678zm.015.532c-.138.266-.39.513-.701.682-.502.274-.865.225-.865-.243 0-.487.476-.993.933-1.24a2.81 2.81 0 0 1 .614-.247c.008-.352-.179-.397-.513-.217-.307.165-.629.438-.768.585l-.15-.367c.21-.214.581-.547 1.008-.779.716-.39 1.034-.21 1.034.487v1.281l-.592.322v-.262zm2.634-2.312c0-.356-.202-.521-.573-.319s-.596.596-.596.952c0 .364.225.51.596.307a1.08 1.08 0 0 0 .573-.941zm.6-1.465v3.125l-.607.33v-1.124c-.154.277-.39.54-.761.738-.596.322-1.019.082-1.019-.629a2.05 2.05 0 0 1 1.019-1.742c.371-.202.607-.199.761-.086v-.281l.607-.33zm2.592-1.408v2.286l-.611.334v-.341c-.183.288-.449.633-.801.82-.499.27-.847.094-.847-.521v-1.349l.611-.334v1.255c0 .334.198.412.487.255.314-.172.547-.513.547-.821v-1.251l.614-.334zm.405-.217l.611-.334v2.286l-.611.333v-2.285zm.307-.408c-.198.109-.356.037-.356-.146 0-.176.161-.42.356-.524s.345-.041.345.142-.15.423-.345.528zm31.859 30.816h-.674v33.062h.674V94.734zm-44.448.087h-.674v32.953h.674V94.821z"/></g><g class="B"><path d="M247.645 128.726c0-2.994-2.428-5.422-5.421-5.422-1.282 0-2.443.464-3.372 1.206-1.061-2.435-3.485-4.14-6.314-4.14-3.807 0-6.89 4.433-6.89 8.239l21.997.117zm-127.054-.116c0-2.994 2.428-5.422 5.421-5.422 1.282 0 2.443.465 3.373 1.206 1.06-2.435 3.484-4.14 6.313-4.14 3.807 0 6.89 4.433 6.89 8.239l-21.997.117z"/></g><g class="E"><path d="M107.526 144.076l-4.68-10.498c-2.686-13.096-10.581-23.748-22.338-24.999-14.231-1.514-27.239 11.12-29.057 28.217s8.262 32.009 22.47 33.699c15.553 1.847 32.579-.555 29.263-24.13l4.342-2.289z"/><path d="M91.291 197.768l-3.638-6.025c-3.627-6.193-.319-21.638-.319-21.638l-15.748-9.843-2.495 8.067c-.378 3.597-1.877 12.02-7.692 13.32l16.096 17.063 13.796-.944z"/></g><path d="M67.378 175.621c5.223-.858 6.478-11.372 7.329-16.19 1.06-6.01.933-12.215-.378-18.176l-.719-3.275s14.695-8.299 19.023-24.152c0 0-1.716-2.96-7.542-5.515-14.395-6.313-31.26.255-38.049 14.436-2.986 6.243-4.41 33.755-18.708 36.393.004 0 15.504 20.345 39.046 16.479z" class="B"/><g class="C"><path d="M100.722 154.249c-1.136 0-5.332-.259-8.348-3.874l.776-.649c3.117 3.74 7.745 3.504 7.798 3.507l.059 1.008-.284.008zm-6.809-19.776c-.36.941.112 1.997 1.053 2.357s1.997-.112 2.357-1.053a1.83 1.83 0 0 0-1.053-2.357 1.82 1.82 0 0 0-2.357 1.053zm-2.828-3.012l-.974-.281c.641-2.226 1.652-3.702 3.005-4.388 1.424-.723 2.683-.266 2.735-.247l-.352.948.176-.476-.172.476c-.038-.011-.925-.315-1.948.21-1.083.562-1.915 1.824-2.469 3.758z"/></g><path d="M101.973 224.891H36.216c.367 0 4.346-22.657 9.536-31.548 5.489-9.401 17.145-12.732 17.145-12.732l20.645 11.241c3.072 1.682 5.882 3.825 8.228 6.433a39.81 39.81 0 0 1 10.203 26.606z" fill="#d1006e"/><path d="M71.035 202.734l-1.154 22.124 1.01.053 1.154-22.124-1.01-.053z" class="C"/><path d="M66.677 151.004c-1.083-.618-2.046-1.39-2.765-2.218-2.334-2.686-3.432-6.864-1.57-10.083 1.626-2.81 5.017-3.758 8.033-2.892 0 0 2.908 1.24 4.118 2.802-.124-.318 3.413 9.701.941 12.185-2.334 2.342-5.954 1.802-8.756.206z" class="E"/><path d="M68.84 153.889h-.079l.004-1.011h.064c4.23 0 6.624-1.383 7.756-4.474l.952.348c-1.679 4.586-5.748 5.137-8.696 5.137z" class="C"/><g class="B"><path d="M60.838 118.56c5.278-4.67 5.771-12.735 1.101-18.013s-12.735-5.771-18.013-1.101-5.771 12.735-1.101 18.013 12.735 5.771 18.013 1.101z"/><path d="M56.591 118.969c-3.75 2.368-8.951 2.416-12.814.015s-6.227-7.142-5.751-11.78l-.079-.012c-.663 4.646 1.506 9.622 5.485 12.324 3.983 2.69 9.506 2.918 13.777.472l-.618-1.019z"/><path d="M57.628 112.704c-1.506 4.298-5.624 7.61-10.206 8.142s-9.404-1.739-11.922-5.673l-.034.023c2.45 3.994 7.269 6.414 11.99 5.968 4.721-.46 9.049-3.761 10.731-8.254l-.558-.206z"/></g><path d="M65.044 107.335s-13.271.772-17.085 13.646c.004 0 4.852-9.397 17.085-13.646z" fill="#d2006e"/><path d="M114.663 202.677c-.903 2.9-2.001 8.535-.727 8.932s4.429-4.601 5.332-7.497.603-5.568-.671-5.965-3.031 1.633-3.934 4.53z" class="E"/><path d="M164.245 201.759l-43.92 8.535c-7.228-29.431-8.723-60.635-8.723-60.635l43.692-2.315c0-.004-4.489 38.854 8.951 54.415z" fill="#fff"/><path d="M119.826 211.077l-.153-.626c-7.161-29.157-8.73-60.451-8.745-60.765l-.034-.671 45.16-2.394-.09.794c-.045.386-4.301 38.742 8.794 53.898l.761.88-45.693 8.884zm-7.512-60.785c.266 4.658 2.091 32.729 8.516 59.215l42.178-8.198c-11.735-14.998-9.037-47.596-8.468-53.253l-42.226 2.236z" class="D"/><path d="M169.157 202.924l-43.294 11.289c-9.068-28.918-12.533-59.964-12.533-59.964l43.459-5.07s-2.027 39.065 12.368 53.745z" fill="#fff"/><g class="D"><path d="M125.413 215.026l-.191-.615c-8.985-28.644-12.525-59.78-12.559-60.091l-.075-.667 44.917-5.238-.041.798c-.019.386-1.848 38.933 12.177 53.235l.813.832-45.041 11.746zm-11.334-60.185c.558 4.631 4.155 32.53 12.237 58.559l41.575-10.843c-12.661-14.227-12.024-46.929-11.81-52.613l-42.002 4.897zm24.769 2.953l-16.296 1.633.135 1.342 16.295-1.633-.134-1.342zm4.121 3.498l-19.772 1.783.121 1.343 19.772-1.782-.121-1.344zm-7.306 7.324l-12.054 1.566.174 1.338 12.054-1.566-.174-1.338zm4.136 3.47l-15.531 1.709.148 1.341 15.53-1.71-.147-1.34zm1.376 7.683l-16.292 1.632.135 1.342 16.292-1.632-.135-1.342zm4.123 3.499l-19.771 1.783.121 1.343 19.771-1.782-.121-1.344zm-7.305 7.324l-12.054 1.566.174 1.337 12.054-1.565-.174-1.338zm4.138 3.473l-15.531 1.709.148 1.341 15.53-1.71-.147-1.34zm6.183-34.465l-1.933-1.053.644-1.184.746.408 1.379-2.533 1.184.645-2.02 3.717zm.708 10.794l-1.93-1.045.645-1.188.745.405 1.379-2.529 1.184.648-2.023 3.709zm1.139 11.229l-1.933-1.049.648-1.188.745.409 1.375-2.529 1.188.644-2.023 3.713zm2.128 11.181l-1.93-1.053.645-1.184.745.405 1.376-2.529 1.187.644-2.023 3.717z"/></g><path d="M135.68 203.363c.498-.843 1.015-1.75.967-2.732-.015-.341-.131-.712-.431-.873-.143-.075-.307-.094-.469-.094-1.839-.011-3.375 2.046-4.507 3.26-1.27 1.364-2.664 2.859-3.616 4.474 1.214-2.061 2.589-4.032 4.137-5.853 1.487-1.753 4.522-3.555 4.35-6.133-.015-.214-.053-.439-.184-.611-.082-.109-.195-.191-.311-.266-.453-.296-1.307-.157-1.618-.375-.574-.4-.034-.854.022-1.562.045-.543-.15-1.135-.607-1.424-.742-.464-1.693.049-2.409.551l-1.626 1.135c.195-.745-.461-1.502-1.214-1.675s-1.559.042-2.226.424c-2.735 1.577-5.17 4.725-7.074 7.497-2.109 3.069-3.911 6.359-5.358 9.794-2.012 4.785-2.222 9.783-4.837 14.366-.097.168-.491.764-1.079 1.633h18.753c1.281-3.278 2.091-6.733 2.743-10.184.899-4.717 4.278-7.441 6.594-11.352z" class="E"/><g class="C"><path d="M121.906 203.666l-.854-.544c4.796-7.534 7.921-10.79 8.052-10.922l.727.705c-.034.03-3.196 3.323-7.925 10.761zm3.316 1.851l-.832-.573c6.058-8.802 9.09-11.29 9.213-11.391l.634.787c-.027.026-3.065 2.533-9.015 11.177z"/></g></g><defs><clipPath id="A"><path fill="#fff" transform="translate(.355)" d="M0 0h247.29v247.29H0z"/></clipPath></defs></svg>