<svg xmlns="http://www.w3.org/2000/svg" xmlns:xlink="http://www.w3.org/1999/xlink" width="268" height="248" fill="none" xmlns:v="https://vecta.io/nano"><style><![CDATA[.B{fill:#9fdcee}.C{fill:#d2006e}.D{fill:#170f40}.E{fill:#fff}.F{fill:#ff88d2}.G{fill:#160f41}.H{fill:#c57c5c}]]></style><path d="M41.504 228.199V73.851a10.56 10.56 0 0 1 10.557-10.557h152.892a10.56 10.56 0 0 1 10.557 10.557v154.348" class="E"/><path d="M215.301 78.704H41.504v23.159h173.797V78.704z" class="B"/><path d="M215.301 78.339H41.504v.731h173.797v-.731z" class="D"/><path d="M171.462 128.886H62.254c-2.613 0-4.733-2.119-4.733-4.733s2.118-4.732 4.733-4.732h109.208c2.614 0 4.733 2.118 4.733 4.732s-2.119 4.733-4.733 4.733z" class="B"/><path d="M191.357 127.246l-2.291-2.292 1.008-1.007 1.283 1.282 3.664-3.663 1.008 1.007-4.672 4.673z" class="C"/><path d="M119.77 123.441H63.527v1.426h56.243v-1.426z" class="E"/><path d="M171.462 146.102H62.254c-2.613 0-4.733-2.118-4.733-4.732s2.118-4.733 4.733-4.733h109.208c2.614 0 4.733 2.119 4.733 4.733s-2.119 4.732-4.733 4.732z" class="B"/><path d="M191.357 144.462l-2.291-2.292 1.008-1.007 1.283 1.282 3.664-3.663 1.008 1.007-4.672 4.673z" class="C"/><path d="M141.976 140.657H63.527v1.426h78.449v-1.426z" class="E"/><path d="M171.461 163.318H62.252c-2.613 0-4.733-2.119-4.733-4.733s2.119-4.732 4.733-4.732h109.209c2.613 0 4.733 2.118 4.733 4.732s-2.12 4.733-4.733 4.733z" class="B"/><path d="M191.356 161.678l-2.291-2.292 1.008-1.008 1.283 1.283 3.664-3.664 1.008 1.008-4.672 4.673z" class="C"/><path d="M104.601 157.873H63.526v1.425h41.075v-1.425z" class="E"/><path d="M149.538 190.699H62.252c-2.613 0-4.733-2.119-4.733-4.733s2.119-4.732 4.733-4.732h87.286c2.613 0 4.732 2.118 4.732 4.732s-2.119 4.733-4.732 4.733z" class="C"/><path d="M126.432 185.254H85.358v1.426h41.074v-1.426z" class="E"/><use xlink:href="#B" class="C"/><g class="B"><path d="M61.708 73.273c1.256 0 2.275-1.019 2.275-2.275s-1.018-2.275-2.275-2.275-2.275 1.019-2.275 2.275 1.018 2.275 2.275 2.275z"/><use xlink:href="#B" x="19.009"/></g><path d="M215.876 228.199h-.731V73.85c0-5.619-4.571-10.191-10.19-10.191H52.062c-5.62 0-10.191 4.572-10.191 10.191v154.349h-.731V73.85c0-6.022 4.9-10.922 10.922-10.922h152.892c6.022 0 10.921 4.899 10.921 10.922v154.349h.001z" class="D"/><path d="M24.958 189.355s-1.508-18.057-9.052-26.727-13.539-17.493-13.539-17.493-.443 3.919.503 9.765c1.72 10.634 7.059 20.35 14.914 27.722l7.174 6.733z" class="F"/><path d="M26.656 193.684c-.12 0-.232-.075-.276-.194-3.726-10.203-18.752-34.18-18.903-34.421-.086-.137-.045-.319.093-.405s.32-.046.406.092c.151.242 15.21 24.271 18.957 34.532.056.152-.023.321-.175.377-.033.013-.067.019-.101.019z" class="C"/><path d="M28.937 180.602s-.234-18.119 6.443-27.473 11.795-18.713 11.795-18.713.817 3.858.438 9.768c-.691 10.751-5.071 20.935-12.181 29.027l-6.494 7.391z" class="F"/><path d="M27.637 185.075c-.024 0-.049-.003-.074-.01-.158-.04-.252-.2-.211-.358 2.745-10.574 15.425-35.939 15.553-36.194.073-.145.248-.204.395-.131s.203.249.131.395c-.127.254-12.78 25.563-15.509 36.077-.034.133-.154.221-.284.221z" class="C"/><path d="M25.888 168.037s3.314-17.814-1.672-28.169-8.438-20.447-8.438-20.447-1.462 3.662-2.094 9.551c-1.149 10.711 1.433 21.493 7.062 30.677l5.141 8.388z" class="F"/><path d="M28.03 205.694c-.168-.003-.297-.138-.295-.3.198-10.747-.338-21.934-1.589-33.248-1.34-12.104-4.972-24.161-8.484-35.821l-.637-2.116c-.046-.156.042-.32.197-.367.161-.041.32.043.367.197l.636 2.117c3.52 11.684 7.16 23.767 8.506 35.925 1.256 11.339 1.791 22.55 1.594 33.324-.004.16-.135.289-.294.289z" class="C"/><path d="M43.064 228.118h-30.25l-3.242-35.26h36.733l-3.242 35.26z" class="E"/><path d="M43.36 228.442H12.52l-3.302-35.908h37.444l-3.302 35.908zm-30.249-.648h29.658l3.182-34.612H9.928l3.183 34.612z" class="D"/><path d="M247.79 39.7c.904-1.361 3.094-1.47 4.297-.365s1.379 3.069.614 4.513-2.31 2.369-3.917 2.661c1.813.699 3.179 2.51 3.219 4.453s-1.334 3.864-3.22 4.329-4.067-.683-4.634-2.542c-.448 1.595-2.105 2.718-3.761 2.681s-3.206-1.144-3.912-2.644-.606-3.317.124-4.805 2.046-2.648 3.553-3.337l7.637-4.942z" class="G"/><path d="M249.983 216.659l-7.757 8.866-7.058 2.516a.42.42 0 0 0 .139.809h14.676s1.754-5.264 3.694-7.943v7.943h4.802l-2.216-12.191h-6.28 0z" class="D"/><path d="M247.305 223.337a.27.27 0 0 1-.123-.029c-1.248-.634-2.68-.001-2.693.005-.138.064-.297.002-.359-.135a.27.27 0 0 1 .134-.359c.069-.03 1.679-.748 3.164.005a.27.27 0 0 1 .119.365.27.27 0 0 1-.242.148zm1.463-1.604c-.042 0-.083-.01-.123-.03-1.248-.633-2.68-.002-2.693.005-.138.064-.297.002-.359-.135a.27.27 0 0 1 .134-.359c.069-.03 1.679-.749 3.164.006a.27.27 0 0 1 .119.364c-.048.094-.143.149-.242.149zm-20.875-87.793l13.432 85.829 26.68-3.11-23.04-82.719h-17.072z" class="B"/><path d="M175.482 98.034c-1.185-.36-2.655-.401-2.471-.481-3.172 1.364-6.463 2.042-9.967 1.913-.931-.034-1.843-.268-2.707-.618-.202-.082-.415-.166-.574-.321-.137-.136-.226-.339-.175-.527.055-.213.274-.35.491-.384s.439.016.656.057l.106.018.009-.051a5.72 5.72 0 0 1-2.597-1.494c-.294-.297-.571-.727-.394-1.128-.286-.257-.565-.539-.709-.894-.169-.412-.117-.957.3-1.195.262-.149.579-.166.878-.104.085-.391.523-.635.931-.643.425-.008.829.173 1.228.32 1.734.637 3.648.753 5.325-.07 1.236-.607 2.398-1.559 3.556-2.325-.295-.21-.601-.411-.936-.51-.671-.199-1.542-.108-2.244-.143-.554-.029-1.125-.061-1.623-.302-.471-.229-1.177-.936-.813-1.5.139-.215.383-.344.633-.401s.509-.046.765-.037c2.331.088 4.588-.893 6.922-.65 1.398.145 2.601.928 3.567 1.909.759.77 1.462 1.654 1.987 2.618l-.567 5.87c-.074.775-.834 1.299-1.577 1.073z" class="H"/><path d="M171.525 91.217c-.599-.056-1.155-.223-1.615-.494-.183-.107-.362-.236-.536-.36l-.09-.064c-.092-.066-.114-.194-.049-.287s.194-.114.287-.048l.091.065.505.34c.712.419 1.69.56 2.683.386.111-.02.218.055.237.167s-.054.218-.166.237a5.08 5.08 0 0 1-1.347.058zm-8.575 3.588a5.57 5.57 0 0 1-.668-.103 9.62 9.62 0 0 1-2.828-1.109l-.184-.11c-.263-.159-.511-.31-.783-.403a1.65 1.65 0 0 0-.177-.05c-.11-.024-.181-.134-.157-.244s.135-.181.245-.156a1.9 1.9 0 0 1 .222.063c.313.107.592.276.863.44l.179.107a9.19 9.19 0 0 0 2.708 1.062c.775.169 1.599.159 2.672-.036.112-.02.218.054.238.165s-.054.219-.165.238c-.832.151-1.526.195-2.165.136zm-.1 1.309c-1.051-.098-2.193-.425-3.416-.979l-.073-.033c-.25-.115-.483-.223-.733-.241-.213-.016-.485.061-.581.266-.048.102-.17.147-.273.099s-.147-.17-.099-.273c.179-.384.623-.528.983-.501.316.024.601.153.874.277l.071.032c2.068.937 3.878 1.199 5.379.78.109-.03.222.033.253.142s-.034.222-.143.253c-.691.193-1.44.252-2.242.178zm-1.117 1.915l-.831-.11c-.111-.019-.186-.125-.167-.237s.126-.186.237-.167a10.66 10.66 0 0 0 4.116-.105c.111-.025.22.045.245.155s-.044.22-.155.245a11.1 11.1 0 0 1-3.445.219z" class="G"/><g class="D"><path d="M173.295 99.801c4.518 1.863 9.439 3.214 14.658 3.66 5.204.442 10.726-.164 15.885-1.966 5.163-1.795 9.9-4.69 13.89-8.228 2.002-1.769 3.834-3.693 5.513-5.748.841-1.028 1.642-2.089 2.404-3.205a38.52 38.52 0 0 0 1.126-1.721l.552-.919.282-.501.152-.282.078-.147.116-.236c2.017-4.45 4.385-18.758.11-21.123-4.723-2.612-12.71 6.612-14.727 11.062l-2.401 4.723c-.396.758-.841 1.516-1.314 2.255-.948 1.48-2.011 2.895-3.173 4.191-2.324 2.6-5.04 4.703-8.061 6.18-1.506.759-3.113 1.293-4.779 1.704-1.662.433-3.412.619-5.202.697-3.59.106-7.374-.429-11.153-1.511l-.079-.023-3.877 11.137z"/><path d="M225.218 58.821s-6.277 5.21-13.611 17.148l2.176 2.183-3.625 1.858v56.791l12.371-1.654s-10.974-59.526 4.81-73.961l-2.121-2.365zm-6.706 157.838l-7.757 8.866-7.058 2.516a.42.42 0 0 0 .139.809h14.676s1.755-5.264 3.694-7.943v7.943h4.802l-2.216-12.191h-6.28 0z"/></g><path d="M215.834 223.337c-.042 0-.084-.009-.123-.029-1.248-.634-2.68-.001-2.694.005-.137.064-.296.002-.359-.135a.27.27 0 0 1 .135-.359c.069-.03 1.679-.748 3.163.005.134.068.188.231.12.365-.048.094-.144.148-.242.148zm1.464-1.604c-.042 0-.083-.01-.123-.03-1.249-.633-2.68-.002-2.694.005-.137.064-.296.002-.358-.135a.27.27 0 0 1 .134-.359c.069-.03 1.679-.749 3.164.006a.27.27 0 0 1 .119.364c-.048.094-.144.149-.242.149zm-3.516-107.447l-6.328 102.373 26.8 2.239-7.106-105.453-13.366.841zm-3.626-15.344c-.162 0-.293-.132-.293-.292V80.01a.29.29 0 0 1 .16-.259l3.268-1.676-1.893-1.9c-.096-.096-.113-.244-.043-.359 7.275-11.842 13.611-17.168 13.674-17.22.124-.104.309-.086.412.038s.086.309-.038.412c-.062.051-6.26 5.266-13.429 16.88l2.013 2.02a.29.29 0 0 1 .082.252c-.015.092-.073.172-.156.214l-3.465 1.777V98.65c.001.159-.131.291-.292.291z" class="B"/><path d="M225.217 58.821s-9.57 13.173-11.435 25.581 0 29.885 0 29.885l15.313-.964 2.597-51.963-6.475-2.539z" class="E"/><g class="H"><path d="M229.735 63.34a4.52 4.52 0 0 0 4.519-4.519v-7.102h-9.037v7.102a4.52 4.52 0 0 0 4.518 4.519z"/><path d="M245.052 38.363c-1.262 8.771-7.316 14.573-15.956 14.958-13.547.604-14.926-11.236-13.665-20.007a16.05 16.05 0 0 1 18.166-13.597c8.77 1.261 12.716 9.874 11.455 18.646z"/></g><path d="M227.15 53.576c-.68 0-1.335-.034-1.963-.102-.139-.015-.242-.141-.226-.282s.129-.253.282-.227a19.49 19.49 0 0 0 3.641.027 17.1 17.1 0 0 0 1.966-.275c.141-.023.274.064.301.201s-.063.273-.201.301a17.63 17.63 0 0 1-2.025.282l-1.775.075zm1.945-20.266c-.071 0-.141-.029-.193-.087a2.22 2.22 0 0 0-1.535-.756c-.593-.034-1.171.157-1.62.551-.106.093-.268.083-.36-.023s-.083-.267.023-.36a2.75 2.75 0 0 1 3.876.252c.094.106.083.267-.023.36-.048.042-.108.063-.168.063zm-7.721-.118c-.071 0-.141-.029-.192-.087-.394-.448-.939-.717-1.536-.756a2.24 2.24 0 0 0-1.62.551c-.106.093-.266.083-.36-.023s-.083-.267.023-.36a2.75 2.75 0 0 1 3.876.252c.094.106.083.267-.023.36-.048.042-.108.063-.168.063zm-1.008 2.515a.94.94 0 0 1-.905.97c-.518.019-.952-.387-.97-.905a.94.94 0 0 1 .905-.97c.518-.018.953.387.97.905zm7.722 0a.94.94 0 0 1-.905.97c-.518.019-.953-.387-.97-.905a.94.94 0 0 1 .905-.97.94.94 0 0 1 .97.905zm-7.062 6.071c-.009 0-.018 0-.028-.002l-2.07-.225c-.083-.009-.156-.058-.197-.131s-.042-.162-.005-.236l1.597-3.234c.062-.127.218-.179.343-.116s.178.216.115.343l-1.434 2.906 1.707.186c.139.015.242.141.226.282-.014.131-.125.227-.254.227zm.548 3.731c-.319 0-.654-.038-1.006-.125-.137-.034-.22-.172-.187-.31s.17-.22.31-.187c2.299.573 3.87-1.312 3.884-1.331.09-.11.251-.126.36-.036s.126.251.036.36c-.062.077-1.361 1.63-3.397 1.63zm28.022-12.355c.137 4.875-2.113 9.8-4.981 13.604-.962 1.277-2.327 2.579-3.909 2.352-1.125-.161-2-1.079-2.561-2.067-1.357-2.39-1.327-5.504.076-7.867-.389-.069-.174-.341-.567-.314-1.961.134-3.953-.965-4.884-2.696-.98-1.822-.543-3.611.232-5.371-.743-.053-1.459.534-2.176.748a6.15 6.15 0 0 1-3.252.076c-1.758-.449-3.284-1.725-4.036-3.375-1.28.775-2.66 1.442-4.143 1.641s-3.089-.123-4.201-1.124c-1.626-1.464-1.802-4.115-.76-6.039s3.062-3.166 5.171-3.75c3.374-.934 13.446-1.029 21.114 1.703 4.63 1.649 7.889 5.71 8.692 10.539a14.4 14.4 0 0 1 .185 1.942z" class="G"/><g class="D"><path d="M226.182 68.142l-4.32 9.782c-1.486 3.363-2.399 6.951-2.703 10.615l-4.116 49.694 41.856-3.545-13.703-71.347-8.942-6.831c-3.407 3.327-6.148 7.276-8.072 11.633z"/><path d="M254.114 105.423a7.31 7.31 0 0 1-6.701-4.387l-11.969-27.422a7.31 7.31 0 0 1 3.774-9.621 7.31 7.31 0 0 1 9.621 3.775l11.969 27.421a7.31 7.31 0 0 1-3.774 9.621c-.952.416-1.944.613-2.92.613z"/><path d="M258.852 104.073l-13.11 13.663c-2.177 2.269-5.781 2.344-8.049.167-2.027-1.945-2.301-5.031-.784-7.284l10.563-15.716a7.34 7.34 0 0 1 10.18-1.997 7.34 7.34 0 0 1 1.997 10.18c-.234.345-.52.694-.797.987z"/></g><g class="B"><path d="M217.104 113.615c-.04 0-.08-.009-.118-.025-.148-.066-.215-.238-.15-.386l13.502-30.518-3.217-3.506c-.094-.103-.103-.258-.02-.371l13.04-17.796a.29.29 0 0 1 .409-.063c.131.095.158.278.063.408l-12.898 17.603 3.184 3.471c.078.085.099.21.052.316l-13.578 30.693c-.05.109-.156.174-.269.174zm32.856 4.505c-.008 0-.015-.001-.023-.001-10.882-.892-13.766-12.051-13.794-12.164a.29.29 0 0 1 .213-.353c.165-.046.315.057.355.212.026.109 2.816 10.865 13.272 11.722a.29.29 0 0 1 .268.315.29.29 0 0 1-.291.269zm-4.146-20.458c-.113 0-.22-.066-.268-.175l-10.368-23.756a.29.29 0 0 1 .535-.234l10.368 23.756a.29.29 0 0 1-.15.384c-.037.017-.078.025-.117.025z"/><path d="M237.796 109.591c-.056 0-.112-.016-.163-.05-.134-.09-.169-.272-.079-.406l8.017-11.928c.09-.135.273-.169.406-.08s.169.272.079.406l-8.017 11.928c-.056.084-.149.13-.243.13z"/></g><path d="M237.53 43.305c2.094 0 3.792-1.697 3.792-3.791s-1.698-3.791-3.792-3.791a3.79 3.79 0 1 0 0 7.583z" class="H"/><path d="M240.377 214.002c-.141 0-.265-.102-.288-.246a.29.29 0 0 1 .241-.335l25.651-4.148c.152-.028.309.081.335.242a.29.29 0 0 1-.242.335l-25.651 4.148c-.015.003-.031.004-.046.004zm-6.613-2.073c-.008 0-.016-.001-.024-.001l-25.872-2.074c-.161-.013-.28-.154-.267-.315s.154-.274.315-.268l25.872 2.074c.161.013.28.154.267.315-.012.152-.14.269-.291.269z" class="D"/><path d="M237.534 50.791s8.894-2.086 10.705-10.558l-1.495 1.895c-2.085 2.642-4.486 5.019-7.151 7.075l-2.059 1.588z" class="B"/><path d="M264.944 227.486H-.004v1.426h264.948v-1.426z" class="D"/><g class="C"><path d="M239.376 47.241l-1.869-4.21c-.083-.188-.35-.188-.433 0l-1.869 4.21c-.069.157.045.333.217.333h3.738c.17 0 .285-.177.216-.333z"/><path d="M237.289 43.108c.267 0 .483-.216.483-.483s-.216-.483-.483-.483-.483.216-.483.483.216.483.483.483z"/></g><defs ><path id="B" d="M52.203 73.273c1.256 0 2.275-1.019 2.275-2.275s-1.019-2.275-2.275-2.275-2.275 1.019-2.275 2.275 1.019 2.275 2.275 2.275z"/></defs></svg>