<svg xmlns="http://www.w3.org/2000/svg" xmlns:xlink="http://www.w3.org/1999/xlink" width="328" height="217" fill="none" xmlns:v="https://vecta.io/nano"><style><![CDATA[.B{fill:#fff}.C{stroke:#c7c7b6}.D{stroke-width:.592}.E{stroke-linejoin:bevel}.F{stroke:#d2006e}.G{stroke-width:.455}.H{color-interpolation-filters:sRGB}]]></style><g filter="url(#B)"><g clip-path="url(#F)"><rect x="16.122" y="8.29" width="311.444" height="200.427" rx="3.641" fill="url(#D)"/><g filter="url(#C)"><mask id="A" maskUnits="userSpaceOnUse" x="16" y="8" width="312" height="201" mask-type="alpha"><rect x="16.122" y="8.29" width="311.756" height="200.71" rx="3.234" fill="#160f41"/></mask><g mask="url(#A)" class="F G"><path d="M413.287-219.411c0 186.73-148.04 338.096-330.646 338.096S-248.005-32.681-248.005-219.411-99.965-557.508 82.641-557.508s330.646 151.366 330.646 338.097z"/><path d="M725.385-208.838c0 251.107-199.457 454.662-445.491 454.662s-445.49-203.555-445.49-454.662 199.457-454.663 445.49-454.663 445.491 203.555 445.491 454.663z"/><path d="M719.609-230.453c0 251.108-199.457 454.663-445.49 454.663S-171.372 20.655-171.372-230.453 28.086-685.115 274.119-685.115s445.49 203.555 445.49 454.662z"/></g></g><use xlink:href="#G" class="B"/><path d="M49.563 137.968v1.402l-1.942-.085 1.137 1.598-1.22.748-.963-1.793-.963 1.793-1.195-.748 1.112-1.598-1.926.094v-1.403l1.926.111-1.112-1.624 1.195-.748.963 1.794.963-1.794 1.22.748-1.129 1.624 1.934-.119z" class="B"/><path d="M59.589 137.959v1.402l-1.942-.085 1.137 1.598-1.22.748-.963-1.793-.963 1.793-1.195-.748 1.112-1.598-1.926.094v-1.403l1.926.111-1.112-1.623 1.195-.748.963 1.793.963-1.793 1.22.748-1.129 1.623 1.934-.119z" class="B"/><path d="M69.616 137.95v1.403l-1.942-.085 1.137 1.597-1.22.748-.963-1.793-.963 1.793-1.195-.748 1.112-1.597-1.926.093v-1.402l1.926.11-1.112-1.623 1.195-.748.963 1.793.963-1.793 1.22.748-1.129 1.623 1.934-.119z" class="B"/><path d="M86.589 137.934v1.402l-1.942-.085 1.137 1.598-1.22.748-.963-1.793-.963 1.793-1.195-.748 1.112-1.598-1.926.094v-1.402l1.926.11-1.112-1.623 1.195-.748.963 1.793.963-1.793 1.22.748-1.129 1.623 1.934-.119z" class="B"/><path d="M96.616 137.934v1.402l-1.942-.085 1.137 1.598-1.22.748-.963-1.793-.963 1.793-1.195-.748 1.112-1.598-1.926.094v-1.402l1.926.11-1.112-1.623 1.195-.748.963 1.793.963-1.793 1.22.748-1.129 1.623 1.934-.119z" class="B"/><path d="M106.642 137.925v1.402l-1.95-.093 1.137 1.598-1.22.748-.963-1.794-.963 1.794-1.195-.748 1.112-1.598-1.926.093v-1.402l1.926.11-1.112-1.623 1.195-.748.963 1.793.963-1.793 1.22.748-1.129 1.623 1.942-.11z" class="B"/><path d="M116.669 137.916v1.403l-1.951-.085 1.137 1.598-1.22.748-.962-1.794-.963 1.794-1.195-.748 1.112-1.598-1.926.093v-1.402l1.926.11-1.112-1.623 1.195-.748.963 1.793.962-1.793 1.22.74-1.128 1.623 1.942-.111z" class="B"/><path d="M133.642 137.899v1.403l-1.942-.085 1.137 1.598-1.22.748-.963-1.794-.963 1.794-1.195-.748 1.112-1.598-1.926.093v-1.402l1.926.11-1.112-1.623 1.195-.748.963 1.793.963-1.793 1.22.748-1.129 1.623 1.934-.119z" class="B"/><path d="M143.66 137.899v1.403l-1.943-.085 1.138 1.598-1.221.748-.962-1.794-.963 1.794-1.195-.748 1.112-1.598-1.926.093v-1.402l1.926.11-1.112-1.623 1.195-.748.963 1.793.962-1.793 1.221.739-1.129 1.624 1.934-.111z" class="B"/><path d="M153.686 137.892v1.402l-1.942-.085 1.137 1.598-1.22.748-.963-1.794-.963 1.794-1.195-.748 1.112-1.598-1.925.093V137.9l1.925.111-1.112-1.624 1.195-.748.963 1.794.963-1.794 1.22.748-1.129 1.624 1.934-.119z" class="B"/><path d="M163.714 137.883v1.402l-1.943-.085 1.137 1.598-1.22.748-.962-1.793-.963 1.793-1.195-.748 1.112-1.598-1.926.094v-1.403l1.926.111-1.112-1.624 1.195-.748.963 1.794.962-1.794 1.22.748-1.128 1.624 1.934-.119z" class="B"/><path d="M174.262 151.227v-1.666l5.279-5.525c1.411-1.445 2.117-2.686 2.117-3.723 0-.858-.258-1.53-.772-2.014s-1.137-.723-1.884-.723c-1.411 0-2.441.689-3.08 2.057l-1.668-1.003c.465-.994 1.12-1.742 1.95-2.252s1.76-.765 2.764-.774c1.254 0 2.341.425 3.271 1.267.929.85 1.394 1.98 1.394 3.417 0 1.547-.888 3.238-2.664 5.065l-3.818 3.893 6.764-.008v1.972l-9.653.017z" class="B"/><path d="M192.887 142.167c1.145.221 2.075.722 2.805 1.513s1.096 1.784 1.096 3c0 1.487-.498 2.66-1.494 3.527s-2.208 1.292-3.636 1.292c-1.137 0-2.149-.263-3.038-.799-.879-.535-1.51-1.3-1.884-2.312l1.669-1.011c.44 1.419 1.527 2.125 3.253 2.125.93 0 1.685-.247 2.266-.748.581-.493.88-1.19.872-2.083 0-.892-.291-1.589-.88-2.091-.581-.501-1.336-.756-2.266-.756h-.515l-.788-1.249 3.461-4.794-6.648.008v-1.904l8.98-.008-.008 1.785-3.245 4.505z" class="B"/><path d="M211.555 146.382v1.904h-1.817v2.915h-1.984v-2.915l-7.628.008v-1.904l5.362-10.514h2.141l-5.361 10.514h5.494v-4.334h1.984v4.334l1.809-.008z" class="B"/><path d="M219.373 141.844c1.411 0 2.607.425 3.586 1.275s1.469 2.031 1.469 3.535c0 1.488-.498 2.661-1.494 3.528s-2.208 1.292-3.635 1.292c-1.137 0-2.158-.281-3.055-.842s-1.527-1.377-1.884-2.439l1.685-.986c.199.748.589 1.309 1.154 1.7.572.391 1.27.578 2.091.578.938 0 1.702-.247 2.291-.748.581-.493.872-1.19.872-2.083s-.291-1.589-.88-2.09-1.336-.757-2.249-.757h-4.233l.531-7.947 8.208-.008v1.903l-6.391.009-.257 4.071 2.191.009z" class="B"/><rect x="38.61" y="78.71" width="30.808" height="26.085" rx="5.422" fill="url(#E)"/><path d="M56.914 84.743c-1.197-2.384-4.601-2.385-5.799-.001h0c-.339.674-.431 1.443-.309 2.188.29 1.783.699 5.377.041 8.814-.14.729-.086 1.498.217 2.176h0c1.129 2.529 4.746 2.59 5.875.061h0c.322-.72.366-1.535.224-2.311-.305-1.671-.649-5.018.205-9.526.045-.237.017-.465-.092-.68l-.362-.721z" class="C D E"/><path d="M38.611 86.099h11.981" class="C D E"/><path d="M57.094 86.099h12.323" class="C D E"/><path d="M38.611 96.532h11.981" class="C D E"/><path d="M57.094 96.532h12.323" class="C D E"/><path d="M44.825 34.171c-2.297 0-4.479.712-6.325 2.04l-.367.276-.066.052-.279.231-.057.045c-.509.438-1.188 1.087-1.73 1.849-1.569 2.08-2.425 4.648-2.425 7.336 0 3.046 1.096 5.935 3.088 8.142l.13.08.128.077.142.08.13.072.142.075.133.07.144.07.135.065.147.065.137.06.149.06.14.055.149.052.142.05.151.047.144.045.154.042.142.037.156.037.142.032.159.032.142.03.163.027.14.022.17.022.135.017.18.017.128.01.208.012c.033 0 .066.005.099.005l.31.005c1.178 0 2.324-.236 3.407-.699a9.09 9.09 0 0 0 3.161-2.272 9.62 9.62 0 0 0 .819-1.05l.177-.274.052-.082.123-.207.047-.082.154-.284c.005-.012.012-.022.017-.035l.13-.259.04-.087.104-.229.031-.072.116-.289a6.28 6.28 0 0 1-.745.918c-1.119 1.137-2.593 1.764-4.15 1.764s-3.031-.627-4.15-1.764-1.763-2.658-1.815-4.285v-.152-.072l.002-.221a10.89 10.89 0 0 1 .109-1.306l.052-.336.014-.067.05-.254.028-.132.035-.157.057-.221.033-.12.073-.249.031-.095.088-.266.026-.075.104-.276.024-.06.118-.284c.007-.015.014-.032.019-.047l.135-.291.019-.037.147-.294c.005-.01.009-.02.017-.03l.161-.294.014-.022.177-.294.201-.311.192-.276.064-.087.135-.179.083-.102.128-.157.09-.105.128-.147.095-.105.13-.139.097-.1.135-.137.099-.097.144-.132.097-.09.156-.134.092-.08.182-.147.073-.057.263-.197.035-.025.232-.162.092-.06.18-.114.111-.067c.014-.01.031-.017.045-.027.274-.159.885-.495 1.633-.764l.121-.04.111-.037.102-.035.116-.035.102-.03.116-.032.102-.027.111-.027.106-.025.118-.027.102-.022.121-.022.102-.02.123-.02.099-.017.125-.017.099-.015.128-.015.097-.013.13-.01.095-.008.137-.01c.031 0 .059-.005.09-.005l.154-.005.073-.003h.227l.291.005.083.002.23.012a.59.59 0 0 1 .066.005l.286.027c.019 0 .04.005.062.008l.23.03c.026.002.054.008.08.012l.27.045.3.06.076.017.222.052c.021.008.045.01.069.017l.277.077.052.015.227.072.078.027.241.085c.012.005.021.007.033.01l.267.104.073.032.099.04c-1.997-1.717-4.467-2.648-7.094-2.648z" class="B"/><path d="M45.161 58.096c2.297 0 4.477-.712 6.325-2.041l.367-.276.066-.052.279-.231.057-.045c.509-.441 1.188-1.087 1.73-1.849 1.571-2.083 2.425-4.651 2.425-7.338 0-3.046-1.095-5.935-3.088-8.142l-.13-.08-.128-.077-.142-.08-.13-.072-.142-.075-.133-.07-.144-.07-.135-.065-.147-.062-.137-.06-.149-.06-.14-.055-.149-.052-.142-.05-.151-.047-.144-.045-.154-.042-.142-.037-.156-.037-.142-.032-.159-.032-.142-.03-.163-.027-.14-.022-.17-.022-.135-.017-.18-.017-.128-.01-.208-.012c-.033 0-.066-.005-.099-.005l-.31-.005c-1.178 0-2.323.236-3.407.699a9.09 9.09 0 0 0-3.161 2.272c-.296.328-.568.679-.819 1.05l-.178.274-.052.082-.123.206-.047.082-.154.284-.017.035-.128.259-.04.087-.104.231-.031.072-.118.289c.218-.326.466-.635.745-.918 1.119-1.137 2.593-1.764 4.15-1.764s3.031.627 4.15 1.764 1.763 2.657 1.815 4.285v.152.072l-.002.221a10.89 10.89 0 0 1-.109 1.306l-.052.338-.014.067-.05.254-.028.132-.035.157-.057.222-.033.119-.073.249-.031.095-.087.266-.026.075-.104.279-.024.057-.118.284c-.007.015-.014.032-.019.047l-.135.291-.019.037-.147.294c-.005.01-.009.02-.017.03l-.161.294-.014.022-.178.294-.201.311-.192.274-.064.087-.135.179-.083.102-.128.157-.09.105-.128.147-.095.104-.13.139-.097.1-.135.134-.099.097-.144.132-.097.09-.156.134-.092.08-.182.147-.073.057-.263.197c-.012.007-.024.017-.035.025l-.232.162-.092.06-.18.114-.111.067c-.014.01-.031.017-.045.027a10.52 10.52 0 0 1-1.633.764l-.121.042-.111.037-.102.035-.116.035-.102.03-.116.032-.102.027-.111.027-.106.025-.118.025-.102.022-.121.022-.102.02-.123.02-.099.017-.125.017-.099.015-.128.015-.097.012-.13.01-.095.007-.137.01c-.031 0-.059.005-.09.005l-.154.005-.073.003h-.227c-.097 0-.194 0-.291-.005-.026 0-.054 0-.083-.003l-.23-.012a.59.59 0 0 1-.066-.005l-.286-.027c-.019 0-.04-.005-.062-.008l-.23-.03a.89.89 0 0 1-.081-.013l-.27-.045-.3-.06-.076-.017-.222-.052c-.021-.007-.045-.01-.069-.017l-.277-.077-.052-.015-.227-.072-.078-.027-.241-.085c-.012-.005-.021-.008-.033-.01l-.267-.104a.66.66 0 0 1-.073-.032l-.099-.04a10.79 10.79 0 0 0 7.094 2.645" class="B"/><path d="M66.884 43.034c0-.699-.45-1.135-1.256-1.135h-1.874v2.245h1.898c.736 0 1.233-.311 1.233-1.11zm-3.13-4.728v2.12h1.578c.795 0 1.268-.398 1.268-1.06 0-.824-.547-1.06-1.15-1.06h-1.697zm5.03 4.84c0 1.722-1.15 2.633-3.059 2.633h-3.843v-9.13h3.784c1.744 0 2.811.811 2.811 2.521 0 .911-.594 1.61-1.209 1.822.677.162 1.519.886 1.519 2.157" class="B"/><path d="M73.845 43.298v-.473c-.426-.162-.878-.236-1.351-.236-.771 0-1.413.336-1.413.973s.57.985 1.256.985c.795 0 1.507-.41 1.507-1.247m.047 1.672c-.402.6-1.15.936-2.063.936-1.484 0-2.551-.761-2.551-2.207s1.398-2.269 2.752-2.269c.606 0 1.197.087 1.815.274.024-1.072-.535-1.535-1.507-1.535-.901 0-1.85.299-2.267.51l-.438-1.383c.618-.311 1.708-.724 2.965-.724 2.111 0 3.048 1.085 3.048 3.242v3.966h-1.744l-.012-.811.002.002z" class="B"/><path d="M83.235 41.601v4.178h-1.803v-3.892c0-1.035-.582-1.61-1.436-1.61-.925 0-1.614.674-1.614 1.622v3.879h-1.803v-7.072h1.803v1.06c.547-.587 1.33-1.197 2.361-1.197 1.472 0 2.492 1.135 2.492 3.031z" class="B"/><path d="M87.422 38.57c1.531 0 2.645.886 3.095 1.996l-1.543.687c-.272-.525-.748-.973-1.543-.973-1.032 0-1.767.849-1.767 1.983s.736 1.946 1.767 1.946a1.69 1.69 0 0 0 1.566-.936l1.543.674c-.464 1.16-1.543 1.971-3.107 1.971-2.004 0-3.57-1.52-3.57-3.655s1.578-3.693 3.559-3.693z" class="B"/><path d="M92.58 42.238c0 1.11.677 1.983 1.779 1.983s1.779-.873 1.779-1.983-.665-1.971-1.779-1.971-1.779.849-1.779 1.971zm-1.815 0c0-2.021 1.495-3.668 3.594-3.668s3.594 1.647 3.594 3.668-1.495 3.68-3.594 3.68-3.594-1.66-3.594-3.68z" class="B"/><path d="M70.178 52.336c-.213 2.244-1.898 3.979-4.484 3.979s-4.626-2.07-4.626-4.715 1.957-4.728 4.626-4.728c2.028 0 3.31 1.085 4.044 2.394l-1.685.824c-.426-.712-1.15-1.411-2.361-1.411-1.554 0-2.752 1.259-2.752 2.919s1.221 2.894 2.752 2.894c1.292 0 2.288-.737 2.48-1.934h-3.024v-1.585h5.063c.012.274.035.724-.035 1.359" class="B"/><path d="M77.707 49.079v7.072h-1.803v-1.06c-.547.587-1.327 1.197-2.359 1.197-1.472 0-2.491-1.135-2.491-3.031v-4.178h1.803v3.892c0 1.035.582 1.61 1.436 1.61.925 0 1.614-.674 1.614-1.622v-3.879h1.803-.002z" class="B"/><path d="M83 53.67v-.473c-.426-.162-.878-.236-1.351-.236-.771 0-1.413.336-1.413.973s.57.985 1.256.985c.795 0 1.507-.41 1.507-1.247m.047 1.672c-.402.6-1.15.936-2.063.936-1.484 0-2.551-.761-2.551-2.207s1.398-2.269 2.752-2.269c.606 0 1.197.087 1.815.274.024-1.072-.535-1.535-1.507-1.535-.901 0-1.85.299-2.267.51l-.438-1.384c.618-.311 1.708-.724 2.965-.724 2.111 0 3.047 1.085 3.047 3.242v3.966h-1.744l-.012-.811.002.002z" class="B"/><path d="M92.56 49.079l-3.024 7.597c-.606 1.523-1.342 2.207-2.74 2.207-.748 0-1.268-.149-1.957-.5l.57-1.51c.343.162.712.336 1.209.336.653 0 .984-.336 1.304-1.135l.012-.037-2.953-6.96h2.04l1.791 4.678 1.791-4.678h1.957v.002z" class="B"/><path d="M97.199 53.67v-.473c-.426-.162-.878-.236-1.351-.236-.771 0-1.413.336-1.413.973s.57.985 1.256.985c.795 0 1.507-.41 1.507-1.247m.047 1.672c-.402.6-1.15.936-2.063.936-1.484 0-2.551-.761-2.551-2.207s1.398-2.269 2.752-2.269c.606 0 1.197.087 1.815.274.024-1.072-.535-1.535-1.507-1.535-.901 0-1.85.299-2.267.51l-.438-1.384c.618-.311 1.708-.724 2.965-.724 2.111 0 3.048 1.085 3.048 3.242v3.966h-1.744l-.012-.811.002.002z" class="B"/><path d="M105.003 52.609c0-1.097-.594-1.946-1.685-1.946s-1.756.848-1.756 1.946.665 1.958 1.756 1.958 1.685-.836 1.685-1.958zm1.767-3.531v9.68h-1.791v-3.481c-.452.6-1.15 1.01-2.241 1.01-1.755 0-3-1.458-3-3.668s1.245-3.68 3-3.68c1.091 0 1.791.41 2.241 1.01v-.873h1.791v.002z" class="B"/><path d="M114.403 49.079v7.072H112.6v-1.06c-.547.587-1.327 1.197-2.359 1.197-1.472 0-2.491-1.135-2.491-3.031v-4.178h1.802v3.892c0 1.035.583 1.61 1.437 1.61.925 0 1.613-.674 1.613-1.622v-3.879h1.803-.002z" class="B"/><path d="M115.591 49.079h1.803v7.072h-1.803v-7.072zm.913-.736c-.582 0-1.043-.473-1.043-1.048s.476-1.023 1.043-1.023a1.01 1.01 0 0 1 1.02 1.023c0 .575-.452 1.048-1.02 1.048z" class="B"/><path d="M118.582 46.757l1.803-.284v9.68h-1.803v-9.396z" class="B"/><path d="M289.507 190.5h-19.783v-36.284h19.783V190.5z" fill="#ff5f00"/><path d="M270.979 172.356c-.003 3.494.773 6.944 2.269 10.087s3.673 5.897 6.367 8.055c-3.336 2.675-7.341 4.339-11.56 4.801s-8.478-.296-12.294-2.188-7.033-4.843-9.284-8.513-3.445-7.912-3.445-12.242 1.194-8.572 3.445-12.242 5.468-6.62 9.284-8.513 8.076-2.65 12.294-2.188 8.224 2.126 11.56 4.801c-2.694 2.158-4.871 4.912-6.367 8.055s-2.272 6.593-2.269 10.087z" fill="#eb001b"/><path d="M316.196 172.356c0-4.33-1.193-8.572-3.444-12.242s-5.468-6.62-9.283-8.513-8.077-2.65-12.295-2.188-8.224 2.126-11.559 4.801c2.691 2.16 4.867 4.915 6.362 8.057s2.274 6.591 2.274 10.085-.778 6.942-2.274 10.085-3.671 5.897-6.362 8.057c3.335 2.675 7.341 4.339 11.559 4.801s8.479-.296 12.295-2.188 7.032-4.843 9.283-8.513 3.444-7.912 3.444-12.242z" fill="#f79e1b"/><path d="M314.039 158.058v.743h.294v.152h-.748v-.152h.294v-.743h.16zm1.451 0v.896h-.229l-.263-.616-.264.616h-.229v-.896h.162v.676l.247-.582h.167l.248.584v-.678h.161z" fill="#f79e1b"/><path d="M269.751 99.233c-.579 0-1.089-.14-1.532-.42-.434-.28-.773-.678-1.017-1.193-.244-.524-.366-1.139-.366-1.843 0-.714.122-1.324.366-1.83.244-.515.583-.913 1.017-1.193.443-.28.953-.42 1.532-.42a2.61 2.61 0 0 1 1.274.312 2.1 2.1 0 0 1 .854.827v-3.931h1.694v9.556h-1.654V98a2.06 2.06 0 0 1-.854.908c-.388.217-.826.325-1.314.325zm.474-1.288a1.52 1.52 0 0 0 1.22-.542c.307-.371.461-.913.461-1.627 0-.723-.154-1.261-.461-1.613a1.52 1.52 0 0 0-1.22-.542 1.52 1.52 0 0 0-1.22.542c-.307.352-.461.89-.461 1.613 0 .714.154 1.256.461 1.627a1.52 1.52 0 0 0 1.22.542zm8.372 1.288c-.75 0-1.396-.14-1.939-.42s-.962-.678-1.26-1.193c-.289-.515-.434-1.125-.434-1.83 0-.687.14-1.288.42-1.803a3.15 3.15 0 0 1 1.179-1.206c.507-.298 1.08-.447 1.722-.447.94 0 1.681.298 2.223.895.551.596.827 1.41.827 2.44v.501h-4.744c.126 1.184.804 1.776 2.033 1.776.37 0 .741-.054 1.111-.163a3.15 3.15 0 0 0 1.017-.542l.474 1.139c-.316.262-.714.47-1.192.624s-.958.23-1.437.23zm-.244-5.747c-.497 0-.899.154-1.207.461s-.492.723-.555 1.247h3.334c-.036-.551-.19-.972-.461-1.261-.262-.298-.632-.447-1.111-.447zm-.624-1.898l1.396-2.752h1.668l-1.925 2.752h-1.139zm8.77 7.645c-.488 0-.926-.108-1.315-.325-.379-.217-.664-.511-.854-.881v1.071h-1.653v-9.556h1.694v3.904c.199-.334.483-.601.854-.8.379-.208.804-.312 1.274-.312.587 0 1.098.14 1.532.42s.772.678 1.016 1.193c.244.506.366 1.116.366 1.83 0 .705-.122 1.319-.366 1.843-.244.515-.587.913-1.03 1.193-.434.28-.94.42-1.518.42zm-.474-1.288c.506 0 .912-.181 1.22-.542.307-.371.46-.913.46-1.627 0-.723-.153-1.261-.46-1.613-.308-.362-.714-.542-1.22-.542a1.52 1.52 0 0 0-1.22.542c-.308.352-.461.89-.461 1.613 0 .714.153 1.256.461 1.627a1.52 1.52 0 0 0 1.22.542zm4.671-6.899v-1.654h1.897v1.654h-1.897zm.108 8.052v-6.628h1.695v6.628h-1.695zm6.491.135c-1.753 0-2.629-.867-2.629-2.602v-2.887h-1.274v-1.274h1.274V90.49h1.694v1.979h2.006v1.274h-2.006v2.792c0 .434.095.759.285.976s.497.325.922.325a2.01 2.01 0 0 0 .393-.041l.42-.108.257 1.247c-.162.09-.37.163-.623.217a3.31 3.31 0 0 1-.719.081zm5.123 0c-.687 0-1.283-.14-1.789-.42a2.94 2.94 0 0 1-1.18-1.193c-.28-.524-.42-1.139-.42-1.843s.14-1.315.42-1.83a2.94 2.94 0 0 1 1.18-1.193c.506-.28 1.102-.42 1.789-.42s1.283.14 1.789.42.899.678 1.179 1.193.421 1.125.421 1.83-.14 1.319-.421 1.843c-.28.515-.673.913-1.179 1.193s-1.102.42-1.789.42zm0-1.288a1.52 1.52 0 0 0 1.22-.542c.307-.371.461-.913.461-1.627 0-.723-.154-1.261-.461-1.613a1.52 1.52 0 0 0-1.22-.542 1.52 1.52 0 0 0-1.22.542c-.307.352-.461.89-.461 1.613 0 .714.154 1.256.461 1.627a1.52 1.52 0 0 0 1.22.542z" class="B"/><path d="M84.9 96.082c1.142-1.311 1.773-3.004 1.773-4.758s-.631-3.447-1.773-4.758c-.094-.111-.209-.201-.337-.267s-.269-.104-.412-.113a1.06 1.06 0 0 0-.423.058 1.08 1.08 0 0 0-.368.22 1.1 1.1 0 0 0-.257.348c-.062.132-.098.275-.105.422s.014.293.062.431a1.11 1.11 0 0 0 .22.373 5.01 5.01 0 0 1 0 6.577 1.12 1.12 0 0 0-.272.8c.017.293.147.567.362.762a1.07 1.07 0 0 0 .784.278c.287-.017.555-.15.746-.369H84.9z" class="B"/><path d="M91.123 91.323c.004-2.969-1.102-5.828-3.092-7.994-.096-.11-.213-.199-.343-.262s-.272-.099-.416-.105-.288.016-.423.067a1.08 1.08 0 0 0-.365.23 1.11 1.11 0 0 0-.249.356c-.059.134-.091.279-.094.427s.022.294.075.431.132.262.233.367c1.611 1.759 2.507 4.076 2.507 6.484s-.896 4.725-2.507 6.484a1.11 1.11 0 0 0-.233.367c-.053.137-.078.283-.075.431s.035.292.094.427.144.255.249.356a1.08 1.08 0 0 0 .365.23c.135.051.279.074.423.067s.285-.042.416-.105.247-.152.343-.262c1.99-2.166 3.096-5.025 3.092-7.994z" class="B"/><path d="M91.527 102.156c2.607-2.981 4.047-6.838 4.047-10.834s-1.441-7.852-4.047-10.834c-.094-.112-.209-.204-.338-.27s-.27-.105-.414-.115a1.06 1.06 0 0 0-.425.058 1.08 1.08 0 0 0-.37.222c-.108.098-.195.217-.257.351s-.097.278-.103.425.016.294.066.433a1.11 1.11 0 0 0 .225.372c2.251 2.576 3.495 5.907 3.495 9.359s-1.244 6.783-3.495 9.359a1.12 1.12 0 0 0-.274.799c.016.293.145.567.36.763s.496.296.783.28a1.08 1.08 0 0 0 .748-.367h-.001z" class="B"/></g></g><defs><filter id="B" x=".734" y=".596" width="327.144" height="216.098" filterUnits="userSpaceOnUse" class="H"><feFlood flood-opacity="0" result="A"/><feColorMatrix in="SourceAlpha" values="0 0 0 0 0 0 0 0 0 0 0 0 0 0 0 0 0 0 127 0" result="B"/><feOffset dx="-7.69405"/><feGaussianBlur stdDeviation="3.847"/><feComposite in2="B" operator="out"/><feColorMatrix values="0 0 0 0 0 0 0 0 0 0 0 0 0 0 0 0 0 0 0.15 0"/><feBlend in2="A"/><feBlend in="SourceGraphic"/></filter><filter id="C" x="-14.654" y="-22.486" width="388.696" height="277.65" filterUnits="userSpaceOnUse" class="H"><feFlood flood-opacity="0" result="A"/><feColorMatrix in="SourceAlpha" values="0 0 0 0 0 0 0 0 0 0 0 0 0 0 0 0 0 0 127 0" result="B"/><feOffset dx="15.3881" dy="15.3881"/><feGaussianBlur stdDeviation="15.388"/><feComposite in2="B" operator="out"/><feColorMatrix values="0 0 0 0 0.815686 0 0 0 0 0.815686 0 0 0 0 0.815686 0 0 0 1 0"/><feBlend in2="A" result="C"/><feColorMatrix in="SourceAlpha" values="0 0 0 0 0 0 0 0 0 0 0 0 0 0 0 0 0 0 127 0" result="B"/><feOffset/><feGaussianBlur stdDeviation="15.388"/><feComposite in2="B" operator="out"/><feColorMatrix values="0 0 0 0 0 0 0 0 0 0 0 0 0 0 0 0 0 0 0.35 0"/><feBlend in2="C"/><feBlend in="SourceGraphic"/></filter><linearGradient id="D" x1="327.305" y1="203.93" x2="79.889" y2="43.923" gradientUnits="userSpaceOnUse"><stop stop-color="#372c7d"/><stop offset="1" stop-color="#160b56"/></linearGradient><radialGradient id="E" cx="0" cy="0" r="1" gradientUnits="userSpaceOnUse" gradientTransform="translate(56.3017 88.2112) rotate(134.505) scale(23.2519 23.6418)"><stop stop-color="#fdf9d3"/><stop stop-color="#a44f01"/><stop offset="0" stop-color="#fffceb"/><stop offset="1" stop-color="#cbc19b"/></radialGradient><clipPath id="F"><rect x="16.122" y="8.29" width="311.756" height="200.71" rx="13.555" class="B"/></clipPath><path id="G" d="M39.537 137.976v1.402l-1.942-.085 1.137 1.598-1.22.748-.963-1.793-.963 1.793-1.195-.748 1.112-1.598-1.926.094v-1.402l1.926.11-1.112-1.623 1.195-.748.963 1.793.963-1.793 1.22.748-1.129 1.623 1.934-.119z"/></defs></svg>