<svg xmlns="http://www.w3.org/2000/svg" width="242" height="242" fill="none" xmlns:v="https://vecta.io/nano"><style><![CDATA[.B{fill:#170f40}.C{fill:#f29b9b}]]></style><path d="M48.164 133.935c2.205-3.784 2.288-7.846.185-9.071s-5.596.849-7.801 4.633-2.288 7.846-.185 9.071 5.596-.848 7.801-4.633z" fill="#ce7474"/><path d="M29.041 136.389l-.176-.356c-18.685-40.894-27.5-88.135-27.5-88.487v-.352h.352l61.695-14.102v.528c0 .528 4.583 58.348 28.38 77.205l.528.528-.704.352-62.575 24.684z" fill="#fff"/><g class="B"><path d="M28.611 137.504l-.535-1.075C9.064 94.82.484 47.832.484 47.546v-1.232h1.133l62.678-14.326v1.635c.026.539 4.748 58.051 28.046 76.516l1.467 1.46-1.797.902-63.4 25.003zM2.325 47.96c.895 4.712 9.57 48.638 27.159 87.307l61.259-24.16C68.171 92.616 63.056 40.238 62.572 34.188L2.325 47.96zm39.688 6.007l-23.485 6.998.251.843 23.485-6.998-.251-.843zM20.582 66.935l-.18-.88 28.556-8.107.18.88-28.556 8.107zm19.596 3.66l-17.242 5.677.275.836 17.242-5.677-.275-.836zM25.161 82.449l-.176-.884 22.389-6.871.176.88-22.389 6.875zm26.406 3.28l-23.485 6.998.251.843 23.485-6.998-.251-.843zM30.276 98.666l-.356-.884 28.556-8.107.356.704-28.556 8.287zm19.452 3.681l-17.242 5.676.275.836 17.242-5.676-.275-.836zM34.86 114.176l-.18-.88 22.213-6.875.352.704-22.385 7.051zm20.973-61.519l-2.644-.88.352-.88 1.764.704 1.588-4.583.88.352-1.94 5.287zm3.175 15.866l-2.468-.88.352-.884 1.584.708 1.764-4.583.884.352-2.116 5.287zm5.639 16.745l-.88-.528 2.116-4.055.704.352-1.94 4.231z"/><path d="M67.115 84.388l-4.231-2.116.352-.708 4.231 1.94-.352.884zm2.468 17.274l-.704-.352 1.94-4.231.88.352-2.116 4.231z"/><path d="M72.051 100.782l-4.055-2.116.356-.708 4.228 1.94-.528.884z"/></g><path d="M114.606 178.68c-.426-.986-.902-1.95-1.438-2.896-1.635-2.882-3.802-5.522-6.603-7.29s-6.278-2.603-9.501-1.837c-2.504.594-3.949 1.874-4.033 4.323-.062 1.815-.444 3.564-.92 5.328-.979 3.63-2.523 8.118-5.958 10.142-5.287-3.348-10.399-7.403-14.982-11.634-3.524-3.524-7.579-7.403-9.871-11.987-1.056-2.115-.704-4.935-1.056-7.403-.352-1.939-1.056-4.055-2.116-5.639.88 0 1.764-.704 2.468-1.412.88-.88 1.94-1.939 2.116-3.171.176-1.056-.176-2.116-.352-2.996-.352-1.056-1.056-1.764-1.94-2.468-.88-.88-.704-1.939-1.056-2.995-.352-1.236-1.764-1.94-2.996-2.468-.704-.176-1.056-.352-1.236-1.056-.176-.528-.352-1.236-.704-1.588-.704-.704-1.588-1.235-2.644-1.587-1.764-.352-3.703 0-5.287.88-2.292 1.056-4.407 2.643-6.171 4.407.176-.176.352-1.236.528-1.412.176-.528.352-1.056.704-1.587.704-1.236 1.588-2.292 2.644-3.348 1.588-1.588 3.524-2.82 5.463-4.231.528-.528 1.236-.88 1.588-1.588s.528-1.588.176-2.116c-.528-.88-1.588-1.056-2.644-1.056-1.94 0-3.524.352-5.111 1.236-.704.352-1.412.88-2.116 1.412-3.348 2.467-6.347 5.815-7.403 9.87-.88 3.88-.176 7.755.352 11.811.528 2.995.88 6.171 1.588 8.99 1.056 4.408 2.468 8.815 4.231 13.043 1.056 2.819 2.292 5.463 3.703 8.283 1.056 2.291 2.644 7.227 3.703 9.518 1.236 2.644 2.644 5.288 4.055 7.931 2.996 5.288 6.347 10.223 10.399 14.806 5.093 5.761 11.352 10.564 18.359 13.758 3.821 1.741 7.869 2.992 12.023 3.619 3.469.524 9.211 1.554 11.968-1.229 1.632-1.646 2.585-3.846 4.195-5.533 1.283-1.349 2.812-2.467 3.927-3.956 1.191-1.588 1.851-3.505 2.412-5.408 2.82-9.614 3.462-20.361-.465-29.466z" class="C"/><path d="M209.366 100.958c-72.27 46.005-117.928-7.051-117.928-7.051s24.325 0 28.908-47.065l70.334-5.995c-.176 0 5.288 49.357 18.686 60.112z" class="B"/><path d="M145.38 96.903c0 2.292-.704 11.106-1.94 14.453-.88 2.468-2.644 4.408-4.407 6.171-.352.352-1.412.352-1.588.704l-1.236 1.588c0 .176-.176.528-.176.704-.176.88-.352 1.764-.352 2.644-.176 4.935.704 22.561 2.644 26.968 0 0 23.621-2.996 35.431-15.158.528-.528 6.699-4.935 7.051-5.463 1.94.176 3.524-11.459 3.703-11.459 0 0-2.467-.88-2.643-.88-2.468-.704-4.936-1.587-7.227-2.643-1.056-.352-2.292-.88-3.348-1.588-.704-.528-1.236-1.412-1.588-2.292-.88-2.115-1.056-4.407-1.056-6.523 0-.704 0-8.107.176-8.107l-23.444.88z" class="C"/><path d="M225.936 168.997l-29.084 9.87-4.231-9.87s0 18.509-7.403 58.347c-.352 2.116-39.663 5.288-60.636 1.056-14.278-2.995-18.685-5.995-17.981-8.638.176-1.056.528-1.94.704-2.996 3.523-17.098-.352-34.727-.352-34.727-3.172-4.759-3.88-8.815-3.88-8.815-5.111-.528-8.282-2.819-9.342-3.703l-.352-.352c.704-14.806 9.342-29.084 9.342-29.084 15.334-24.149 36.663-22.917 36.663-22.917s0 .528-.176 1.056c-1.939 8.815-2.467 17.274-1.939 26.089 0 0 18.861-7.403 34.727-20.273 6.875-5.464 8.283-7.403 8.283-7.403 17.453 5.118 35.786 17.812 45.657 52.36z" fill="#d1006e"/><path d="M91.795 196.321c-1.056-5.816-5.815-9.343-5.815-9.343l.704-.88c.176.176 5.111 3.879 6.347 10.047l-1.236.176zm10.926-22.917c-.176-.352-3.703-8.991 4.936-18.861.176-.176 10.754-10.755 9.518-17.626l1.236-.176c1.236 7.403-9.343 18.333-9.871 18.685-8.107 9.343-4.759 17.45-4.759 17.45l-1.06.528zm89.196-3.172c-3.703-10.754-6.523-15.514-6.523-15.514l1.056-.528c.176.176 2.82 4.936 6.699 15.69l-1.232.352z" class="B"/><path d="M161.404 102.394c18.726-1.522 32.411-21.161 30.566-43.866s-18.522-39.876-37.248-38.355-32.411 21.161-30.566 43.866 18.522 39.876 37.248 38.354z" class="C"/><path d="M159.833 103.425v-1.411c6.347-.176 12.515-2.468 17.802-6.347l.704 1.056c-5.46 4.059-11.807 6.35-18.506 6.702z" class="B"/><path d="M194.736 76.985c1.412-1.236 2.468-2.82 3.172-4.231 2.468-4.759 2.468-11.282-1.412-15.158-3.347-3.524-8.638-3.703-12.69-1.412 0 0-3.703 2.82-4.935 5.639 0-.528-1.588 15.334 2.995 17.981 4.232 2.468 9.343.528 12.87-2.82z" class="C"/><path d="M170.939 74.869l-.352-1.236 5.639-1.408-5.815-8.639 1.056-.88 6.875 10.399-7.403 1.764zM156.837 59.18c.176 1.412-.704 2.644-1.94 2.82-1.411.176-2.643-.704-2.819-2.116s.704-2.644 1.939-2.82 2.644.884 2.82 2.116zm24.325-1.232c.176 1.412-.704 2.644-1.94 2.82-1.412.176-2.644-.704-2.82-2.116s.704-2.644 1.94-2.82c1.408 0 2.644.88 2.82 2.116zm-61.696-3.175s16.746 2.292 29.085-22.917c0 0 21.329 18.509 42.482 16.218 0 0 2.467-16.922-14.63-25.384-15.334-7.579-35.608-5.995-47.594 6.171-5.639 5.995-10.047 14.102-9.343 25.912z" class="B"/><g fill="#160f41"><path d="M127.097 39.952a17.1 17.1 0 0 0 17.098-17.098 17.1 17.1 0 0 0-17.098-17.098 17.1 17.1 0 0 0-17.098 17.098 17.1 17.1 0 0 0 17.098 17.098z"/><path d="M133.041 35.911c-4.936 3.348-11.987 3.524-17.274.528s-8.639-9.343-8.107-15.514h-.176c-.704 6.171 2.292 12.866 7.755 16.394s12.866 3.524 18.509.176l-.707-1.584z"/><path d="M134.097 27.628c-1.94 5.815-7.227 10.399-13.398 11.282s-12.69-1.94-16.218-7.227c3.348 5.287 10.047 8.283 16.218 7.579 6.347-.88 11.986-5.287 14.102-11.458l-.704-.176z"/></g><path d="M143.967 20.049s-17.802 1.588-22.385 18.861c0 .176 6.171-12.694 22.385-18.861z" fill="#d2006e"/><g class="B"><path d="M149.435 53.365v-1.412s4.935 0 6.699-3.879l1.236.528c-2.12 4.587-7.759 4.763-7.935 4.763zm32.787 0c-.176 0-5.816 0-7.931-4.759l1.235-.528c1.764 3.879 6.699 3.879 6.699 3.879v1.408h-.003zm-9.167 24.148s-7.403 2.116-14.806-.88c-.004-.18 4.756 15.862 14.806.88zM43.838 140.716l-.693-.547c5.35-6.776 11.744-7.175 12.012-7.19l.044.88c-.059.004-6.27.407-11.363 6.857zm5.64 5.115l-.682-.558c5.548-6.798 11.07-6.442 11.308-6.42l-.07.876c-.059-.003-5.324-.311-10.556 6.102zm8.506 4.546c-.037-.014-.906-.311-1.129-1.261-.257-1.093.48-2.515 2.193-4.228l.623.624c-1.932 1.932-2.057 2.955-1.958 3.391.106.47.539.631.557.638l-.286.836z"/><path d="M59.63 153.75c-.033-.168-.898-4.125-5.636-4.942l.15-.869c5.35.924 6.343 5.588 6.351 5.635l-.865.176z"/></g><path d="M241.27 220.117c1.588-11.634-4.935-24.149-8.639-34.195-1.939-5.288-4.759-11.459-6.699-16.922-1.235.176-2.467.352-3.703.704-9.343 1.94-18.333 5.815-25.208 9.167 3.171 8.107 6.171 14.278 10.046 24.5 0 0-38.602-12.338-40.542-13.75-.88-.528-1.588-1.411-2.292-2.115-2.819-2.82-6.171-5.112-8.99-7.931-3.172-2.82-4.408-5.995-6.347-9.695-.352-.528-.528-1.056-.704-1.588-.704-1.587-1.764-4.055-3.704-2.643-1.763 1.235-1.763 3.703-1.411 5.639.528 2.644 2.115 4.407 3.347 6.699-4.231-1.588-8.283-3.879-12.162-6.171-1.94-1.056-3.879-1.94-5.995-2.82-1.412-.528-4.759-2.467-6.171-1.763-.88.352-.88 1.235-.528 1.939.88 1.94 2.82 2.644 4.407 3.88.88.528 5.464 2.819 4.408 3.879-.176.176-.528.352-.88.528-1.056.704-1.764 1.764-1.764 2.996 0 .88.176 1.587.704 2.291.704.88.88.88.528 1.588-.704 1.056-1.236 2.996-1.236 4.055s.352 1.94.528 2.996c.151.898-.333 1.676-.19 2.578.172 1.092.946 2.152 1.631 2.992.767.938 1.661 1.771 2.611 2.519 1.936 1.525 4.129 2.698 6.376 3.688 1.034.455 2.087.873 3.146 1.265 2.82 1.056 5.816 1.94 8.815 2.644 3.172.88 5.639 2.116 8.463 3.524 8.283 4.055 16.041 8.462 24.5 12.338 8.815 4.055 17.982 7.579 27.321 10.754 5.287 1.764 10.93 3.348 16.393 2.116 4.584-.88 8.639-3.703 11.283-7.755 1.426-2.468 2.306-5.111 2.658-7.931z" class="C"/><path d="M130.448 176.165l-.396.786 8.423 4.249.396-.786-8.423-4.249zm4.991 12.305c-5.841-.913-7.01-4.345-7.058-4.492l.836-.271c.044.125 1.085 3.069 6.358 3.894l-.136.869zm-.704 7.403c-5.83-.909-7.161-4.334-7.216-4.481l.825-.308c.048.129 1.243 3.091 6.527 3.916l-.136.873z" class="B"/><path d="M118.235 76.63c-1.412-1.056-2.82-2.468-3.703-3.879-2.996-4.407-3.704-10.93-.352-15.334 2.995-3.879 8.107-4.583 12.514-2.82 0 0 4.055 2.468 5.639 4.935-.176-.528 3.172 14.982-.88 18.333-4.055 3.172-9.342 1.764-13.218-1.236z" class="C"/><path d="M126.167 80.333c-3.347 0-6.875-1.412-9.518-3.348l.88-1.056c3.879 2.996 10.046 4.407 13.398 1.764l.88 1.056c-1.584 1.056-3.524 1.584-5.64 1.584z" class="B"/></svg>