<svg xmlns="http://www.w3.org/2000/svg" width="292" height="248" fill="none" xmlns:v="https://vecta.io/nano"><style><![CDATA[.B{fill:#9fdcee}.C{fill:#160f41}.D{fill:#d2006e}.E{fill:#f49d9d}.F{fill:#f8b4b1}.G{fill:#f4a886}.H{stroke-width:.997}.I{stroke:#160d42}.J{stroke-miterlimit:10}.K{stroke-linecap:round}]]></style><path d="M14.662 179.839h266.813" stroke-width="3.989" class="I J K"/><path d="M28.274 172.867s.712 4.619-.667 8.526l3.158.444s2.091-6.438 2.713-9.946l-4.715-.045-.489 1.021z" class="F"/><path d="M30.899 187.654c-.623.266-1.423.444-2.447.4 0 0-2.224-.8-3.069.266 0 0-2.224 3.064-5.471 1.91 0 0-3.425-1.244-3.648-3.153l.133-1.155c.045-.311.133-.621.311-.932.133-.311.356-.533.623-.755a5.25 5.25 0 0 1 1.735-1.021c.845-.311 1.646-.711 2.447-1.199 1.735-1.022 4.582-2.531 6.406-2.62 0 0 1.068 1.288 2.803 1.11.756-.089 1.468.4 1.601 1.11a18.97 18.97 0 0 1 .4 3.108 2.9 2.9 0 0 1-1.824 2.931z" class="D"/><path d="M32.322 186.811c-.578.533-1.868 1.332-3.826 1.243 0 0-2.224-.799-3.069.266 0 0-2.224 3.064-5.471 1.91 0 0-3.425-1.243-3.648-3.153l.133-1.154a2.57 2.57 0 0 1 .311-.933c.089.444 1.068 3.819 5.383 3.686 0 0 2.269-.578 3.158-1.821 0 0 1.379-1.332 2.802-.799 0 0 2.936.311 4.715-1.288v1.066c-.044.355-.222.71-.489.977z" class="B"/><path d="M98.914 167.895s.089 4.662 2.046 8.259l-3.069.977s-3.114-6.039-4.315-9.37l4.671-.799.667.933z" class="F"/><path d="M98.781 182.904a6.45 6.45 0 0 0 2.446 0s2.047-1.155 3.07-.222c0 0 2.713 2.664 5.694.976 0 0 3.202-1.776 3.114-3.685l-.312-1.11c-.089-.311-.222-.622-.445-.844-.178-.266-.445-.488-.711-.666-.445-.266-1.113-.577-1.869-.71-.889-.178-1.779-.445-2.624-.755-1.869-.711-4.938-1.732-6.762-1.51 0 0-.845 1.465-2.58 1.554-.756.044-1.379.622-1.423 1.377-.044.843-.044 1.998.089 3.108.133 1.199 1.068 2.22 2.313 2.487z" class="D"/><path d="M97.224 182.282c.667.4 2.046 1.021 3.959.577 0 0 2.046-1.154 3.069-.222 0 0 2.714 2.664 5.694.977 0 0 3.203-1.776 3.114-3.686l-.311-1.11c-.089-.311-.223-.621-.445-.843-.045.488-.401 3.952-4.671 4.529 0 0-2.313-.178-3.425-1.288 0 0-1.602-1.066-2.892-.355 0 0-2.847.799-4.893-.489l.178 1.066c.089.355.311.666.623.844z" class="B"/><path d="M207.899 168.783s.445 4.662-1.157 8.436l3.159.622s2.446-6.305 3.291-9.813l-4.715-.311-.578 1.066z" class="F"/><path d="M209.678 183.703a5.91 5.91 0 0 1-2.446.266s-2.18-.932-3.07.089c0 0-2.402 2.931-5.56 1.598 0 0-3.336-1.421-3.47-3.33l.222-1.11c.045-.311.178-.622.356-.888s.401-.533.668-.711c.444-.31 1.023-.666 1.779-.932.89-.267 1.69-.622 2.536-1.066 1.779-.932 4.715-2.265 6.539-2.265 0 0 .978 1.377 2.758 1.288.756-.044 1.423.489 1.557 1.244.133.843.266 1.953.222 3.108a3.11 3.11 0 0 1-2.091 2.709z" class="D"/><path d="M211.102 182.903c-.623.489-1.913 1.199-3.87 1.021 0 0-2.18-.932-3.07.089 0 0-2.402 2.931-5.56 1.599 0 0-3.336-1.421-3.47-3.331l.222-1.11c.045-.311.178-.621.356-.888.089.444.846 3.908 5.16 3.997 0 0 2.269-.444 3.248-1.643 0 0 1.468-1.244 2.847-.666 0 0 2.936.488 4.804-1.022 0 .356-.045.711-.089 1.066-.089.355-.267.666-.578.888z" class="B"/><path d="M254.651 172.113s3.959 2.442 6.05 5.995l2.402-2.132s-3.603-5.772-5.872-8.526l-3.069 3.597.489 1.066z" class="F"/><path d="M267.641 179.662c-.223.666-.623 1.377-1.29 2.087 0 0-2.047 1.199-1.78 2.487 0 0 .89 3.685-2.09 5.417 0 0-3.159 1.821-4.76.755l-.756-.844c-.223-.222-.401-.532-.534-.799-.134-.311-.178-.622-.178-.977 0-.533.089-1.243.356-1.998.311-.844.533-1.732.667-2.62.356-1.954 1.023-5.106 2.135-6.572 0 0 1.691.045 2.669-1.421.445-.621 1.246-.843 1.913-.488.756.399 1.735.977 2.624 1.687 1.024.799 1.424 2.087 1.024 3.286z" class="D"/><path d="M267.908 178.063c0 .8-.178 2.265-1.513 3.73 0 0-2.046 1.199-1.779 2.487 0 0 .89 3.686-2.091 5.417 0 0-3.158 1.821-4.76.755l-.756-.843c-.222-.222-.4-.533-.534-.8.401.222 3.604 1.688 6.273-1.687 0 0 1.023-2.087.667-3.597 0 0-.134-1.909 1.201-2.664 0 0 2.135-2.043 2.046-4.441.267.222.578.444.801.711.267.222.4.533.445.932z" class="B"/><path d="M196.645 95.959s11.699 13.854 14.323 13.898c4.004.045 14.324-9.458 14.324-9.458s-4.804-6.927-4.849-6.705l-9.119 8.437-12.9-8.659-1.779 2.487zm67.793-6.795c.178.044 2.046 1.11 2.491 3.019s-.845 3.197-1.513 3.641c-.667.488-10.809 4.085-15.08 4.085l-.845-3.419 8.052-3.996-6.006-1.732 2.758-5.595 10.143 3.996z" class="E"/><g class="D"><path d="M223.646 89.343c-.4.533-3.736 3.375-5.338 5.018-.711.71-2.446 2.087-2.446 2.087l6.183 7.549 4.493-3.286 2.046 4.751c.801 1.555 2.936 8.126 2.936 8.126s13.879.134 16.281-.888 4.181-2.531 4.181-2.531l-2.669-9.724c-.355-3.686-2.891-17.629-2.891-17.629s-4.048-.755-6.094-.266l-14.902 5.595c-1.29.755-1.78 1.199-1.78 1.199z"/><path d="M246.333 82.771l9.119 2.575-2.58 7.416-4.804-.355-1.78-7.726c.178-.222.045-1.909.045-1.909z"/></g><g class="C"><path d="M232.765 113.144c.089.577-.756 8.792-.756 8.792s-19.172 19.804-20.373 22.335c-1.246 2.531-5.783 29.352-5.783 29.352l7.562 1.598 5.071-15.497c1.513-4.44 1.29-8.348 2.046-9.458.267-.4 1.246-1.954 2.625-2.886 19.395-13.366 22.509-18.784 22.509-18.784l-4.182-15.275-8.719-.177z"/><path d="M242.196 125.621s-4.27 22.78-3.381 25.577 1.068 3.153 2.18 4.84 15.703 19.627 15.703 19.627l7.384-3.419c-.133-.045-5.338-7.016-6.272-9.103-.934-2.043-4.449-8.481-5.739-9.547s-1.957-2.176-1.734-4.174c.266-1.954 6.628-18.206 7.117-21.536s.667-6.306-1.512-9.77-4.404-7.46-4.404-7.46l-12.5 2.62 3.158 12.345z"/></g><path d="M242.018 125.31c.045 0-.356 2.62-.89 5.817l-1.067 5.817c-.045 0 .356-2.62.889-5.861l1.068-5.773z" fill="#375a64"/><path d="M249.803 99.733l-.134-.844-10.587-2.398c-1.913-.444-3.915-.755-5.872-.977l-36.432-3.996-15.569-2.975-.445 2.398 15.614 2.975h.044l36.521 3.996 5.605.933 8.897 1.998 7.785 57.46 2.402 4.485c.311-1.066.4-2.22.267-3.33l-8.096-59.725z" class="B"/><path d="M191.707 89.653s-1.513.666-1.691 1.021c-.177.4-.311.933-.311.933l2.091 2.753c.222.133 5.471 1.776 5.471 1.776l2.224-1.821s-2.491-1.954-3.202-2.176c0 0-.623-.222-.534-.355l.311-.71a.48.48 0 0 0-.311-.622c-.312-.089-.623-.133-.845 0 0 0-.089-.888-1.112-.666 0 0 0-.666-.668-.799-.934-.178-1.156.622-1.156.622l-.267.044z" class="E"/><path d="M194.821 93.605s-.223-.044-.49-.266c-.133-.089-.266-.311-.266-.533s.044-.444.089-.71c.222-.977.711-1.643.756-1.643.044.044-.312.71-.579 1.687-.044.222-.133.444-.133.666 0 .178.089.355.222.444.267.266.445.355.401.355z" fill="#ff9a6c"/><path d="M241.395 101.065s-.889.134-.712-.71 1.068-1.821 1.513-2.442.712-1.021 1.112-1.021c.356 0 6.673-.444 6.673-.444l.711 3.463-3.959 2.22c-.534.089-1.913 1.243-2.179.355 0 0-1.335.8-1.291-.222l-.756.089s-.356 1.243-.845.933-.623-.578-.4-1.244c.133-.666.133-.977.133-.977z" class="E"/><g class="B"><path d="M166.841 76.687l5.782.666c5.961.71 10.232 6.083 9.52 12.034s-6.094 10.213-12.055 9.503l-5.783-.666c-2.758-.311-4.76-2.797-4.404-5.551l1.335-11.545c.355-2.797 2.847-4.751 5.605-4.44z"/><path d="M159.367 86.9c.89-7.771 1.691-14.609 5.872-13.543 2.269.577 3.514 6.794 2.625 14.52-.89 7.771-3.515 13.277-5.872 13.544-4.048.444-3.559-6.75-2.625-14.521z"/></g><path d="M165.921 87.658c.903-7.746.033-14.212-1.944-14.442s-4.311 5.864-5.214 13.61-.033 14.212 1.944 14.442 4.311-5.864 5.214-13.611z" fill="#71b0bf"/><path d="M163.148 83.126c-.133 1.288-.578 2.265-1.023 2.22-.4-.044-.623-1.11-.445-2.398.134-1.288.579-2.265 1.024-2.22.4.044.622 1.11.444 2.398zm-.8 8.525c-.134 1.288-.579 2.265-1.023 2.22-.401-.044-.623-1.11-.445-2.398.133-1.288.578-2.265 1.023-2.22.4.044.578 1.11.445 2.398z" class="C"/><path d="M181.12 91.829l4.804.577.623-3.019-4.36-1.377-1.067 3.819z" class="B"/><path d="M73.959 97.38s7.518 6.172 10.409 6.216c5.16.089 18.861-7.904 18.861-7.904l-2.625-3.996-14.946 4.13L75.16 88.81l-1.201 8.57z" class="G"/><path d="M48.025 120.559c-.222.444-14.279 21.98-15.169 23.845-.89 1.909-9.253 30.284-9.253 30.284l9.297 2.753c.222 0 8.852-26.465 8.852-26.465s1.69-.178 1.423-2.576c0 0 14.591-15.63 18.238-16.296s20.018 11.989 21.441 15.142c1.423 3.108 2.313 4.574 2.313 4.574l8.274 22.557 9.075-2.664-9.386-30.24c-.89-2.664-18.461-20.914-18.461-20.914H48.025z" class="D"/><path d="M73.914 125.932c0 .044-.578.133-1.468.355a13.85 13.85 0 0 0-3.381 1.377c-1.246.711-2.269 1.509-2.98 2.131l-1.112 1.066.222-.311a9.72 9.72 0 0 1 .756-.844c.667-.666 1.69-1.509 2.98-2.22s2.536-1.11 3.47-1.332l1.112-.222h.4zm-14.768 4.485c-.044.044-.356-.356-1.023-.844-.623-.533-1.557-1.155-2.669-1.687a14.07 14.07 0 0 0-2.98-1.022l-1.29-.266h.356c.222 0 .578.044.979.133a11.76 11.76 0 0 1 3.025.977 12.6 12.6 0 0 1 2.669 1.732l.712.666c.178.222.267.311.222.311z" fill="#375a64"/><g class="C"><path d="M71.868 107.371l-.756-24.689-9.786-1.643-10.053 1.332-6.094 1.732c-1.557.444-2.98 1.332-4.048 2.531l-7.562 8.393 6.183 5.906 5.338-2.842 2.891 15.542-1.29 9.147s7.918 4.041 15.436 4.308c7.473.266 12.189-7.016 12.189-7.016l-2.447-12.7z"/><path d="M79.831 90.763c-.756.266-5.605 8.215-5.605 8.215l-3.737-3.508.623-12.833s.623.488 2.758 2.487l5.961 5.639z"/></g><path d="M71.067 85.479c.044 0 .222 3.108.356 6.927l.178 6.927c-.044 0-.222-3.108-.356-6.927l-.178-6.927zM43.443 89.92l.133.444c.089.311.178.711.267 1.199l.845 3.996.756 3.996.222 1.199c.044.267.044.444.044.444l-.133-.444c-.089-.31-.178-.71-.267-1.199l-.845-3.996-.756-3.996-.222-1.199-.044-.444zm26.112 31.971s-.133.133-.445.4a2.77 2.77 0 0 1-.534.399l-.756.489-.445.266c-.178.089-.356.178-.534.222-.356.178-.756.311-1.156.444a16.77 16.77 0 0 1-2.847.622c-1.023.089-2.002.044-2.891-.044l-1.246-.223-.578-.133c-.178-.044-.356-.089-.489-.177-.311-.089-.623-.222-.845-.311-.267-.089-.445-.178-.623-.311l-.489-.266c0-.045.756.399 2.002.799l.489.133.534.133 1.246.222c.89.089 1.868.134 2.847.045 1.023-.089 1.957-.311 2.802-.578l1.157-.444c.178-.088.356-.133.534-.222s.311-.177.445-.222l1.824-1.243z" fill="#263238"/><path d="M101.717 91.03c.133-.133 3.202-2.087 4.226-2.22s2.313.222 2.313.222l2.669 1.776s0 .577-.979.488c-.934-.044-1.868-.666-1.868-.666l-1.112-.222.578 3.641-4.315 1.643-2.625-3.996 1.113-.666z" class="G"/><path d="M43.977 179.839c-.044 0-.044 0 0 0l-12.589.045.801-2.531 11.744.044c3.292 0 5.694-.977 7.34-2.93 2.892-3.464 3.514-9.992 1.824-19.494-.4-2.176-2.313-8.304-3.381-11.59-2.135-6.527-2.891-13.232-2.224-19.893l1.868-18.961-.356-1.288 1.112-.355c1.957-.666 18.372-4.218 44.973-9.902l31.984-6.883.534 2.398-31.984 6.883-43.772 9.591-1.824 18.783c-.623 6.306.089 12.656 2.135 18.872.311.933 2.936 9.059 3.47 11.901 1.868 10.346 1.068 17.406-2.358 21.492-2.224 2.531-5.338 3.818-9.297 3.818z" class="B"/><g class="G"><path d="M104.652 96.092s1.379.178 1.513-.888c0 0 1.512.355 1.779-.533 0 0 1.29-.222 1.157-1.243 0 0 1.023-.178 1.023-.888 0-.932-1.068-1.687-1.69-1.732s-.801.355-.801.355-.934-.888-1.513-.799c-.578.133-.667.933-.667.933s-.756-.71-1.112-.488c-.356.178-.4.977-.4.977s-.356-.489-.801-.355-.934.622-.356 1.421c.089.089 1.068 1.51 1.068 1.51l-2.58-.044.845 1.998 2.535-.222zm-70.639-.711s-4.537 5.107-5.249 6.572-2.046 4.84 1.423 5.906 18.149-1.598 18.149-1.598l.356-5.018-11.343.133 1.646-1.243-4.982-4.752z"/><path d="M47.58 101.331l1.868-.932s2.402-.489 2.892-.311 2.936.844 2.936.844 1.112 1.687.979 2.131-.178 1.11-1.156.888c0 0 .222 1.066-.801 1.332 0 0 0 .844-1.068.977 0 0-.222.755-.89.8-.623.044-1.824-.356-1.824-.356l-2.58-.399-1.957.31 1.601-5.284z"/></g><path d="M52.918 102.087s.178-.045.489 0 .712.222 1.068.532.578.667.667.977c.089.267.089.489.089.489-.044 0-.222-.711-.89-1.288s-1.468-.666-1.424-.71zm-.489 1.998c0-.045.578-.045 1.157.31s.845.844.801.889-.356-.4-.89-.711c-.578-.355-1.068-.444-1.068-.488zm-1.557 1.065c0-.044.578.045 1.246.356.623.31 1.068.71 1.023.754s-.489-.31-1.112-.577l-1.157-.533z" fill="#ff9a6c"/><g class="B"><path d="M138.549 96.403l-5.738 1.066c-5.917 1.066-11.566-2.797-12.634-8.703s2.803-11.545 8.719-12.611l5.738-1.066a5.07 5.07 0 0 1 5.872 4.041l2.091 11.457a5.03 5.03 0 0 1-4.048 5.817z"/><path d="M142.73 84.458c1.424 7.682 2.669 14.432-1.645 14.654-2.358.133-5.339-5.462-6.762-13.144s-.534-13.721 1.646-14.654c3.692-1.598 5.338 5.462 6.761 13.144z"/></g><path d="M143.309 84.325c1.423 7.682.978 14.21-.979 14.565s-4.671-5.595-6.094-13.277-.979-14.209.978-14.565c1.958-.311 4.671 5.595 6.095 13.277z" fill="#71b0bf"/><path d="M149.803 80.106l-10.809 1.998s-.045 0-.045-.044c-.801-1.11-1.023-2.176-.578-3.242l.044-.044 10.81-1.998c.934-.178 1.779.444 1.957 1.332.134.933-.489 1.821-1.379 1.998zm1.646 8.925l-10.854 1.998c-.756-1.021-1.068-2.087-.623-3.286l10.854-2.043c.935-.178 1.78.444 1.958 1.332a1.72 1.72 0 0 1-1.335 1.998z" fill="#e1e1e1"/><path d="M115.684 88.188l.801 3.108 4.315-.622v-3.686l-5.116 1.199z" class="B"/><path d="M54.43 57.016c1.112-.71 2.046-1.154 3.425-.888.89.178 1.69.577 2.447 1.021.578.311 1.379 1.11 2.091.977.534-.133.934-.622 1.512-.755.712-.178 1.468-.178 2.135 0 1.957.533 2.491 1.954 2.625 3.774.044.71.178 1.421.667 1.954.311.311.712.488 1.023.755.667.622.801 1.643.445 2.442-.089.222-.178.4-.222.622-.089.444.178.844.489 1.11s.712.488 1.023.755c2.224 1.865-2.046 2.975-3.292 3.108l-13.968 7.593c-.178-2.62-2.713-5.106-2.713-5.106-5.249-3.464-5.027-5.995-5.027-5.995-.178-2.442 1.468-3.33 3.025-3.641 1.112-.222 1.868-1.288 1.69-2.398-.267-1.599.044-3.641 2.624-5.329z" class="C"/><g class="G"><path d="M53.14 82.593s0 .044 0 0c.133.311 2.58 6.128 7.073 5.728 0 0 3.559-.71 2.447-4.529 0 0-.667-.533-.934-1.332-.311-.977-.801-2.087-.89-3.33 0 0 5.605 1.865 7.518-3.996 1.512-6.35-.756-11.634-.756-11.634s-2.536-4.618-8.452-2.22c0 0-4.315 1.199-4.093 9.147 0 .044.89 9.014-1.913 12.167z"/><path d="M55.765 70.958s-2.491-1.332-3.114.755c0 0-1.201 2.886 3.292 2.931l-.178-3.686z"/></g><path d="M61.592 70.515c-.044.311.134.577.445.666.311.044.578-.133.667-.444.044-.311-.133-.577-.445-.666-.356-.089-.623.133-.667.444zm4.982.355c-.044.311.133.577.445.666.311.044.578-.133.667-.444s-.133-.577-.445-.666-.578.133-.667.444zm1.913-4.129s-5.649-1.865-8.14-4.263c0 0-1.646.044-1.779 1.954-.044.355-.044.755-.133 1.11-.356 1.465-1.334 4.885-3.381 5.195l-1.779-5.018 4.537-5.995 6.673.089 2.802 2.131 1.468 3.552-.267 1.243z" class="C"/><path d="M62.526 79.352s-3.514-.133-5.916-2.709" stroke-width=".935" class="I J K"/><path d="M60.792 68.339c.089.044.178.089.267.044.578-.266 1.201-.222 1.735.089.134.089.267.044.356-.089.089-.089.045-.266-.044-.355-.667-.4-1.512-.4-2.224-.089-.133.044-.178.178-.133.311 0 .044.044.089.044.089zm7.428 1.421c.044 0 .089-.044.133-.089.089-.089.044-.266-.045-.355a2.26 2.26 0 0 0-2.18-.355c-.133.044-.178.178-.133.311s.178.178.311.133c.578-.178 1.246-.044 1.735.311 0 .044.089.044.178.044zm-5.471 5.861c.578.222 1.023.089 1.068.089l-.089-.311.044.178-.044-.178c-.044 0-1.29.266-2.091-1.243l-.267.178c.356.755.89 1.154 1.379 1.288zm1.201-1.687l1.423.355-.311-2.531-.311.044.222 2.043-.934-.222-.089.311z" fill="#160d42"/><g class="C"><path d="M243.353 77.353s-1.824 4.219-9.342 4.574l-2.625 1.421s-8.051 4.307-12.322 1.599c0 0 .267-4.44-.978-8.393-.578-1.909-.756-3.908-.312-5.861.401-1.909 1.424-4.041 3.648-5.639 1.913-1.377 4.315-1.909 6.673-1.687 2.224.178 5.115.977 6.672 3.464.312.533.579 1.11.756 1.687.534 1.865 2.892 9.192 7.83 8.837z"/><path d="M234.634 70.603a15.89 15.89 0 0 0 1.646 2.22c.578.666 1.245 1.332 2.001 1.909.712.533 1.557 1.021 2.447 1.199.445.089.934.133 1.379.044a3.83 3.83 0 0 0 1.245-.488c-.4.178-.845.311-1.29.355s-.889-.044-1.29-.133c-.845-.266-1.557-.755-2.179-1.332s-1.201-1.288-1.691-1.954c-.489-.71-.934-1.465-1.334-2.22l-.934.4z"/></g><g class="E"><path d="M232.365 79.085c-1.112 1.687-2.891 2.797-4.849 3.108-2.224.4-4.937.355-6.672-2.664 0 0-4.715-7.771.623-11.989 0 0 4.982-3.463 8.763-.355.044.089 5.694 6.527 2.135 11.9z"/><path d="M233.922 77.175s1.379 4.84 4.137 6.128c0 0-2.669 4.441-6.85 6.972 0 0-1.379-2.664-1.29-3.952 0 0 2.224-1.599-.267-4.663l.267-.577c.8-1.732 2.224-3.108 4.003-3.908z"/></g><path d="M224.091 67.54s-2.58 5.906-5.249 6.927c0 0-1.379-6.616 4.582-8.126l1.69-.533-1.023 1.732z" class="C"/><path d="M230.986 72.202l1.112 3.508c3.737.178 2.803-2.575 2.803-2.575-.223-.933-.668-1.377-1.202-1.554-1.201-.4-2.713.622-2.713.622z" class="E"/><path d="M224.091 67.539s.845-.266 1.868 1.021c0 0 3.47 4.307 5.027 3.641 0 0 1.513-1.066 2.714-.622 0 0-1.602-7.86-8.586-5.817l-1.023 1.776zm2.046 7.416a.49.49 0 0 0 .49-.489.49.49 0 0 0-.49-.488.49.49 0 0 0-.489.488.49.49 0 0 0 .489.489zm-4.359 1.377a.49.49 0 0 0 .489-.488.49.49 0 0 0-.489-.489.49.49 0 0 0-.489.489.49.49 0 0 0 .489.488z" class="C"/><path d="M233.522 75.621a9.78 9.78 0 0 0 .356 1.554l-.801.888-.89-1.243.623-1.51.712.311z" class="E"/><g class="C"><path d="M230.408 66.607c2.506 0 4.537-2.028 4.537-4.529s-2.031-4.529-4.537-4.529-4.538 2.028-4.538 4.529 2.032 4.529 4.538 4.529z"/><path d="M230.408 66.34c1.735.178 3.514-.666 4.404-2.087.934-1.421.934-3.375.044-4.751h-.044c.8 1.421.711 3.33-.223 4.618-.934 1.332-2.624 2.043-4.181 1.776v.444z"/><path d="M229.073 64.165c1.201 1.243 3.069 1.687 4.671 1.155s2.847-1.998 3.069-3.641c-.267 1.643-1.512 3.064-3.069 3.508-1.557.488-3.381-.044-4.448-1.199l-.223.178z"/></g><path d="M226.093 63.321s4.448-1.599 7.473 2.043c0 0-2.936-2.353-7.473-2.043z" class="D"/><path d="M226.894 72.558c-.045.044-.134.089-.223.044-.534-.178-1.112-.044-1.557.266-.089.089-.222.044-.311-.044s-.089-.222 0-.311c.578-.444 1.29-.577 1.957-.355.134 0 .178.133.178.266 0 .089-.044.089-.044.133zm-6.495 2.131c-.044 0-.089-.044-.133-.044-.089-.089-.089-.222 0-.311a2.14 2.14 0 0 1 1.912-.577c.134.044.178.133.178.266-.044.133-.133.178-.266.178a1.76 1.76 0 0 0-1.513.489h-.178zm5.649 4.618c-.489.266-.934.222-.934.222l.045-.311v.133-.133c.044 0 1.156.089 1.734-1.376l.267.089c-.311.755-.711 1.154-1.112 1.377zm-1.29-1.377l-1.245.444-.045-2.265h.312l.044 1.865.801-.311.133.267z" fill="#160d42"/><g class="J K"><path d="M227.516 82.415s3.114-.533 4.938-3.153" stroke-width=".844" class="I"/><path d="M43.487 90.275l1.779 9.769M71.29 85.612v11.989m-16.014 25.755s7.562 3.997 14.235-1.332" stroke="#d2006e" class="H"/><g stroke="#160f41" class="H"><path d="M51.272 126.909s4.448-.444 8.007 3.552m5.783 0s2.669-3.108 8.452-4.44m-20.463-23.979s1.779.444 2.224 2.22"/><path d="M52.162 103.818s1.779.444 2.224 1.776m50.266-13.321s2.225 2.22 1.335 3.552m0-3.996s2.224.888 1.779 2.664m118.327 3.553l2.224 6.66M247 85.168l1.335 9.769m-36.922 7.105s1.335.888 1.335 3.996M194.51 93.605s-.89-.888.444-3.108m-1.334-.444s-.89 1.332-.89 3.108"/></g><path d="M239.438 117.14l2.669 9.325-2.224 11.545" stroke="#d2006e" class="H"/></g></svg>