<svg width="245" height="245" viewBox="0 0 245 245" fill="none" xmlns="http://www.w3.org/2000/svg">
<path d="M127.934 130.941C122.057 126.813 121.393 116.197 109.288 127.671C109.288 127.671 81.5953 163.556 81.5768 163.571C82.1262 162.858 78.3064 155.363 77.95 154.458C76.6879 151.284 75.1177 147.791 73.8556 144.179C68.6771 146.154 64.1929 154.294 58.5913 155.768C60.3546 166.711 60.6775 168.894 62.3146 178.946C63.3651 185.372 64.6309 193.966 69.6943 198.773C72.9795 201.899 77.7718 203.012 82.1262 201.976C88.1955 200.551 99.1871 188.576 102.487 183.88C105.613 179.429 111.018 172.127 114.139 167.676C121.181 157.657 117.603 157.494 124.645 147.475C128.806 141.606 133.806 135.065 127.934 130.941Z" fill="#F29B9B"/>
<path d="M110.015 127.218C111.359 125.793 112.799 124.449 114.369 123.235C117.009 121.178 119.971 119.463 123.175 118.461C124.778 117.96 126.46 117.652 128.145 117.604C129.634 117.555 130.703 118.428 132.143 118.654C133.001 118.784 135.8 122.96 136.367 123.64C139.493 127.348 131.059 129.546 130.25 134.386C129.474 139.03 127.369 143.659 124.682 147.497C117.64 157.516 121.218 157.68 114.176 167.699C113.642 168.46 113.026 169.332 112.38 170.223C104.967 164.187 97.1972 158.649 89.8657 152.887C90.3854 152.887 92.2935 149.747 92.6647 149.246C93.7003 147.917 94.7212 146.577 95.7569 145.248C97.8134 142.579 99.8699 139.906 101.923 137.252C104.543 133.803 107.068 130.325 110.015 127.218Z" fill="#D2006E"/>
<path d="M168.689 151.529C172.364 152.824 176.02 154.12 179.695 155.412C188.842 158.634 198 161.852 207.146 165.089C216.014 168.215 227.362 174.867 236.442 169.54C241.008 166.852 244.097 161.934 244.828 156.689C245.329 153.047 244.713 149.309 243.258 145.957C242.916 145.181 239.534 137.315 239.018 137.315C233.354 126.405 227.704 115.514 222.039 104.604C219.723 100.153 217.41 95.6836 215.094 91.2327C213.119 87.4946 211.404 83.6563 209.964 79.6769C208.716 76.2469 209.14 72.3937 209.154 68.8152C209.169 65.3852 209.689 62.3895 209.318 58.8927C208.572 51.7395 207.295 44.5862 202.584 38.8695C201.823 37.9452 200.464 37.819 199.54 38.58C198.616 39.341 198.49 40.6996 199.251 41.6239C201.972 44.9426 203.378 48.5842 204.106 51.643C203.701 50.752 203.182 49.928 202.584 49.1818C199.689 45.6516 194.944 45.5254 191.125 45.8001C190.445 45.8483 189.896 46.2195 189.54 46.7541C188.812 46.7058 188.311 46.7392 188.244 46.7541C187.045 46.8692 186.188 47.9197 186.303 49.1187C186.351 49.5716 186.544 49.9428 186.822 50.2695C186.403 50.3029 186.143 50.3326 186.095 50.3511C184.914 50.5627 184.135 51.6949 184.346 52.8605C184.558 54.0261 185.675 54.802 186.837 54.6089C187.179 54.5607 190.108 54.1895 191.856 57.0367C194.751 61.7288 191.615 68.9971 191.388 73.9491C191.195 78.077 192.246 82.2531 193.879 86.0246C195.561 89.9075 196.793 93.9723 198.412 97.9034C203.137 109.43 207.458 121.13 211.961 132.753C211.961 132.753 210.569 131.895 209.5 131.409C203.69 128.803 185.627 120.937 185.627 120.937C179.394 117.377 173.975 117.797 170.411 124.029C166.844 130.243 162.456 147.969 168.689 151.529ZM196.593 57.5044C196.593 57.5044 196.593 57.5192 196.593 57.5044C196.593 57.4895 196.578 57.471 196.578 57.4561C196.593 57.471 196.593 57.4895 196.593 57.5044Z" fill="#F29B9B"/>
<path d="M161.502 120.711C165.062 114.478 181.8 116.761 188.048 120.321C188.048 120.321 206.727 129.757 210.012 131.617C213.023 142.768 208.086 158.534 204.396 164.102L168.708 151.525C162.456 147.969 157.943 126.958 161.502 120.711Z" fill="#D2006E"/>
<path d="M188.077 66.7142L127.703 62.6531C122.959 93.1 107.001 104.444 107.001 104.444C155.737 133.755 197.61 111.872 197.61 111.872C197.61 111.872 188.727 99.1507 188.077 66.7142Z" fill="#170F40"/>
<path d="M127.024 76.4251C126.2 93.4675 134.341 107.696 155.155 108.698C175.969 109.701 185.438 96.3147 186.247 79.2723C187.072 62.23 174.61 45.0243 158.247 44.2447C141.902 43.4541 127.852 59.3828 127.024 76.4251Z" fill="#F29B9B"/>
<path d="M148.521 89.941L147.875 88.9201C148.184 88.7271 155.53 84.2095 162.134 88.5304L161.469 89.5512C155.515 85.6349 148.585 89.8927 148.521 89.941Z" fill="#170F40"/>
<path d="M188.857 95.5574C190.167 94.8298 191.318 93.9055 192.19 92.9366C195.023 89.7479 196.366 84.7477 194.18 80.8796C192.268 77.4979 188.207 76.3323 184.599 77.3346C184.599 77.3346 181.102 78.7897 179.628 80.6532C179.773 80.2634 175.437 92.2424 178.366 95.2381C181.136 98.0482 185.471 97.4505 188.857 95.5574Z" fill="#F29B9B"/>
<path d="M121.152 86.6371C120.101 85.5866 119.225 84.3875 118.661 83.2071C116.816 79.3725 116.879 74.1903 120.038 71.0684C122.807 68.3326 127.013 68.3178 130.235 70.2741C130.235 70.2741 133.197 72.6201 134.103 74.8214C134.07 74.4168 134.976 87.1048 131.334 89.1947C127.9 91.1399 123.887 89.3729 121.152 86.6371Z" fill="#F29B9B"/>
<path d="M154.234 84.2614L147.371 82.9955L153.199 73.125L154.249 73.7375L149.297 82.1232L154.461 83.0772L154.234 84.2614Z" fill="#170F40"/>
<path d="M165.081 75.7124C164.821 76.9262 165.582 78.1067 166.796 78.3814C168.009 78.6412 169.19 77.8803 169.465 76.6664C169.724 75.4525 168.964 74.2721 167.75 73.9974C166.536 73.7375 165.337 74.4985 165.081 75.7124Z" fill="#170F40"/>
<path d="M141.576 73.2549C141.316 74.4688 142.077 75.6492 143.291 75.9239C144.505 76.1838 145.685 75.4228 145.96 74.2089C146.22 72.9951 145.459 71.8146 144.245 71.5399C143.035 71.2801 141.836 72.0373 141.576 73.2549Z" fill="#170F40"/>
<path d="M172.138 71.7961C171.247 71.7961 166.733 71.6031 164.773 67.7016L165.857 67.1522C167.639 70.6824 172.201 70.5822 172.249 70.5674L172.297 71.7812C172.264 71.7961 172.216 71.7961 172.138 71.7961Z" fill="#170F40"/>
<path d="M143.598 68.6742C141.947 68.6742 140.703 68.2548 140.588 68.2065L140.993 67.0557C141.041 67.0706 145.362 68.5109 148.098 65.6637L148.97 66.5063C147.322 68.2362 145.269 68.6742 143.598 68.6742Z" fill="#170F40"/>
<path d="M174.718 51.5983C181.994 51.5983 187.892 45.7 187.892 38.424C187.892 31.148 181.994 25.2497 174.718 25.2497C167.442 25.2497 161.543 31.148 161.543 38.424C161.543 45.7 167.442 51.5983 174.718 51.5983Z" fill="#160F41"/>
<path d="M172.104 49.3302C176.329 51.112 181.622 50.2694 185.149 47.1623C188.679 44.0553 190.279 38.8249 189.002 34.181L189.083 34.1662C190.557 38.7804 189.199 44.2186 185.605 47.6486C182.012 51.0638 176.429 52.2442 171.651 50.481L172.104 49.3302Z" fill="#160F41"/>
<path d="M169.966 43.1162C172.231 47.244 176.99 49.8982 181.748 49.6718C186.507 49.4305 191.021 46.3049 192.918 41.8689L192.952 41.8837C191.14 46.368 186.637 49.6532 181.767 50.0096C176.878 50.3511 171.911 47.7266 169.432 43.4391L169.966 43.1162Z" fill="#160F41"/>
<path d="M161.502 38.9214C161.502 38.9214 175.148 37.4477 181.218 49.8944C181.232 49.8981 174.695 41.1561 161.502 38.9214Z" fill="#D2006E"/>
<path d="M187.042 74.2238C187.042 74.2238 173.964 63.2991 167.732 49.412C167.732 49.412 147.352 63.8485 127.362 65.2739C127.362 65.2739 127.979 53.6698 135.763 45.737C143.547 37.8042 166.191 35.3282 180.227 47.3221C192.677 57.9425 187.042 74.2238 187.042 74.2238Z" fill="#170F40"/>
<path d="M193.048 219.75H115.792L117.733 188.301C117.57 182.343 115.792 176.548 112.618 171.515L109.236 144.242C107.425 129.657 118.657 116.757 133.176 116.757H172.442C186.96 116.757 198.193 129.642 196.382 144.242L193.048 219.75Z" fill="#D2006E"/>
<path d="M152.809 135.214L164.283 122.444C165.545 120.729 165.983 118.543 165.482 116.471L161.952 99.1693H143.662L140.132 116.471C139.631 118.543 140.069 120.729 141.331 122.444L152.809 135.214Z" fill="#F29B9B"/>
<path d="M200.332 53.0052C197.726 46.5944 189.923 47.3071 189.585 47.3257L189.455 46.1118C189.552 46.1118 198.502 45.2877 201.449 52.5375L200.332 53.0052Z" fill="#170F40"/>
<path d="M196.3 55.8044C192.707 49.7499 187.153 50.8041 186.927 50.8524L186.686 49.6719C186.749 49.6571 193.304 48.395 197.35 55.2067L196.3 55.8044Z" fill="#170F40"/>
<path d="M212.534 132.58L211.374 132.937L214.602 143.443L215.763 143.087L212.534 132.58Z" fill="#170F40"/>
<path d="M117.767 180.613C114.125 175.951 110.012 168.701 111.033 160.705C111.582 156.433 113.524 152.579 115.42 148.875L116.504 149.424C114.66 153.051 112.766 156.804 112.247 160.869C111.259 168.445 115.224 175.387 118.721 179.871L117.767 180.613Z" fill="#170F40"/>
<path d="M24.5372 126.717C24.3108 125.811 24.5707 124.694 25.5098 124.323C26.0926 124.096 26.7719 124.144 27.3696 124.371C27.6591 123.577 28.6466 123.205 29.5078 123.302C30.3987 123.417 31.1894 123.899 31.9689 124.323C35.3989 126.153 39.3486 126.962 43.0904 125.73C45.8411 124.824 48.5435 123.187 51.1829 121.925C50.6335 121.405 50.0507 120.889 49.3862 120.581C48.0424 119.965 46.1975 119.902 44.7572 119.627C43.6064 119.4 42.426 119.174 41.4571 118.528C40.5328 117.912 39.2707 116.23 40.195 115.161C40.5513 114.757 41.1007 114.563 41.6353 114.515C42.1698 114.467 42.7044 114.563 43.2389 114.66C48.0795 115.517 53.0649 114.14 57.8535 115.324C60.7193 116.037 63.0022 118.027 64.7321 120.343C65.5413 121.442 66.3023 122.641 66.9668 123.822C67.776 125.228 68.3922 126.962 68.7635 128.547C69.1681 130.281 69.7843 131.977 70.3485 133.677C71.3842 136.784 72.4347 139.91 73.4741 143.017C73.734 143.811 74.0087 144.602 74.2685 145.396C69.2832 149.862 64.2347 154.25 59.0229 158.411C57.9389 151.822 57.1111 145.17 56.5803 138.518C49.8947 140.348 43.161 140.834 36.2341 139.765C33.9178 139.409 31.6682 138.614 29.6303 137.434C29.2739 137.222 28.9176 137.014 28.6763 136.688C28.435 136.365 28.3051 135.912 28.4647 135.537C28.6429 135.117 29.144 134.891 29.5969 134.872C30.0646 134.872 30.5026 135.036 30.9407 135.181C31.0038 135.195 31.0854 135.229 31.1522 135.244L31.1857 135.147C29.2257 134.323 27.481 132.979 26.2151 131.279C25.6806 130.566 25.2426 129.598 25.714 128.851C25.714 128.837 25.7288 128.837 25.7288 128.818L25.714 128.803C25.2351 128.172 24.734 127.493 24.5372 126.717Z" fill="#F29B9B"/>
<path d="M55.3543 124.853C54.1256 124.564 53.0083 124.044 52.1322 123.346C51.7759 123.072 51.4529 122.749 51.1299 122.441L50.9666 122.277C50.7884 122.114 50.7884 121.839 50.9518 121.661C51.1151 121.483 51.3898 121.483 51.568 121.646L51.7462 121.809C52.0691 122.118 52.3772 122.407 52.7002 122.667C54.0588 123.751 56.0671 124.334 58.1867 124.252C58.428 124.237 58.6247 124.43 58.6396 124.672C58.6544 124.913 58.4614 125.11 58.2201 125.124C57.1993 125.162 56.2452 125.065 55.3543 124.853Z" fill="#160F41"/>
<path d="M36.4203 129.824C35.9525 129.709 35.4959 129.583 35.0616 129.419C33.0385 128.673 31.1602 127.608 29.4934 126.279C29.3784 126.182 29.267 126.086 29.1371 126.004C28.6359 125.6 28.1645 125.21 27.6151 124.935C27.5 124.872 27.3738 124.82 27.2587 124.772C27.0323 124.69 26.9172 124.449 26.9989 124.222C27.0806 123.996 27.3404 123.881 27.5483 123.963C27.6931 124.011 27.8378 124.078 28.0012 124.156C28.6174 124.464 29.1519 124.902 29.6679 125.321C29.783 125.418 29.8944 125.499 30.0094 125.596C31.6131 126.873 33.4097 127.879 35.3512 128.606C36.9214 129.189 38.6364 129.401 40.9342 129.319C41.1755 129.304 41.3722 129.497 41.3871 129.739C41.4019 129.98 41.2089 130.177 40.9676 130.191C39.2044 130.243 37.7455 130.147 36.4203 129.824Z" fill="#160F41"/>
<path d="M35.8374 132.527C33.6695 132.007 31.3865 131.005 29.0071 129.483L28.8623 129.386C28.376 129.078 27.9231 128.788 27.4071 128.673C26.9691 128.577 26.3715 128.659 26.1116 129.063C25.9817 129.256 25.707 129.323 25.514 129.193C25.3209 129.063 25.2541 128.788 25.384 128.595C25.8703 127.849 26.8392 127.671 27.5853 127.834C28.2312 127.979 28.7992 128.336 29.3189 128.659L29.4637 128.74C33.495 131.298 37.1997 132.382 40.4553 131.944C40.6965 131.91 40.9081 132.074 40.9415 132.315C40.9749 132.556 40.8116 132.768 40.5703 132.801C39.0558 133.013 37.4856 132.916 35.8374 132.527Z" fill="#160F41"/>
<path d="M32.9379 136.183C32.3699 136.053 31.8057 135.893 31.2377 135.715C31.0113 135.652 30.8814 135.392 30.963 135.166C31.0447 134.939 31.286 134.809 31.5124 134.891C34.2631 135.763 37.2439 136.105 40.1245 135.878C40.3658 135.864 40.5774 136.042 40.5923 136.268C40.6071 136.51 40.4289 136.721 40.2025 136.736C37.7785 136.944 35.3025 136.751 32.9379 136.183Z" fill="#160F41"/>
<path d="M55.3543 124.853C54.1256 124.564 53.0083 124.044 52.1322 123.346C51.7759 123.072 51.4529 122.749 51.1299 122.441L50.9666 122.277C50.7884 122.114 50.7884 121.839 50.9518 121.661C51.1151 121.483 51.3898 121.483 51.568 121.646L51.7462 121.809C52.0691 122.118 52.3772 122.407 52.7002 122.667C54.0588 123.751 56.0671 124.334 58.1867 124.252C58.428 124.237 58.6247 124.43 58.6396 124.672C58.6544 124.913 58.4614 125.11 58.2201 125.124C57.1993 125.162 56.2452 125.065 55.3543 124.853Z" fill="#160F41"/>
<path d="M36.4203 129.824C35.9525 129.709 35.4959 129.583 35.0616 129.419C33.0385 128.673 31.1602 127.608 29.4934 126.279C29.3784 126.182 29.267 126.086 29.1371 126.004C28.6359 125.6 28.1645 125.21 27.6151 124.935C27.5 124.872 27.3738 124.82 27.2587 124.772C27.0323 124.69 26.9172 124.449 26.9989 124.222C27.0806 123.996 27.3404 123.881 27.5483 123.963C27.6931 124.011 27.8378 124.078 28.0012 124.156C28.6174 124.464 29.1519 124.902 29.6679 125.321C29.783 125.418 29.8944 125.499 30.0094 125.596C31.6131 126.873 33.4097 127.879 35.3512 128.606C36.9214 129.189 38.6364 129.401 40.9342 129.319C41.1755 129.304 41.3722 129.497 41.3871 129.739C41.4019 129.98 41.2089 130.177 40.9676 130.191C39.2044 130.243 37.7455 130.147 36.4203 129.824Z" fill="#160F41"/>
<path d="M35.8374 132.527C33.6695 132.007 31.3865 131.005 29.0071 129.483L28.8623 129.386C28.376 129.078 27.9231 128.788 27.4071 128.673C26.9691 128.577 26.3715 128.659 26.1116 129.063C25.9817 129.256 25.707 129.323 25.514 129.193C25.3209 129.063 25.2541 128.788 25.384 128.595C25.8703 127.849 26.8392 127.671 27.5853 127.834C28.2312 127.979 28.7992 128.336 29.3189 128.659L29.4637 128.74C33.495 131.298 37.1997 132.382 40.4553 131.944C40.6965 131.91 40.9081 132.074 40.9415 132.315C40.9749 132.556 40.8116 132.768 40.5703 132.801C39.0558 133.013 37.4856 132.916 35.8374 132.527Z" fill="#160F41"/>
<path d="M32.9379 136.183C32.3699 136.053 31.8057 135.893 31.2377 135.715C31.0113 135.652 30.8814 135.392 30.963 135.166C31.0447 134.939 31.286 134.809 31.5124 134.891C34.2631 135.763 37.2439 136.105 40.1245 135.878C40.3658 135.864 40.5774 136.042 40.5923 136.268C40.6071 136.51 40.4289 136.721 40.2025 136.736C37.7785 136.944 35.3025 136.751 32.9379 136.183Z" fill="#160F41"/>
<path d="M195.572 92.1423C194.845 90.134 194.117 88.1592 193.289 86.2512C191.43 81.9302 190.568 77.7875 190.747 73.9158L191.96 73.9789C191.797 77.6056 192.64 81.7001 194.403 85.7797C195.246 87.7212 195.973 89.7146 196.701 91.7377L195.572 92.1423Z" fill="#170F40"/>
</svg>
