<svg width="320" height="205" viewBox="0 0 320 205" fill="none" xmlns="http://www.w3.org/2000/svg">
<g clip-path="url(#clip0_7917_41669)">
<rect x="0.5" width="318.681" height="204.711" rx="3.99465" fill="url(#paint0_linear_7917_41669)"/>
<g filter="url(#filter0_dd_7917_41669)">
<mask id="mask0_7917_41669" style="mask-type:alpha" maskUnits="userSpaceOnUse" x="0" y="0" width="319" height="205">
<rect width="319" height="205" rx="3.54799" fill="#160F41"/>
</mask>
<g mask="url(#mask0_7917_41669)">
<path d="M406.38 -232.567C406.38 -41.8551 254.907 112.739 68.067 112.739C-118.773 112.739 -270.246 -41.8551 -270.246 -232.567C-270.246 -423.279 -118.773 -577.873 68.067 -577.873C254.907 -577.873 406.38 -423.279 406.38 -232.567Z" stroke="#D2006E" stroke-width="0.499332"/>
<path d="M725.727 -221.77C725.727 34.6951 521.642 242.593 269.901 242.593C18.1601 242.593 -185.924 34.6951 -185.924 -221.77C-185.924 -478.235 18.1601 -686.133 269.901 -686.133C521.642 -686.133 725.727 -478.235 725.727 -221.77Z" stroke="#D2006E" stroke-width="0.499332"/>
<path d="M719.818 -243.846C719.818 12.619 515.734 220.517 263.993 220.517C12.2514 220.517 -191.833 12.619 -191.833 -243.846C-191.833 -500.311 12.2514 -708.209 263.993 -708.209C515.734 -708.209 719.818 -500.311 719.818 -243.846Z" stroke="#D2006E" stroke-width="0.499332"/>
</g>
</g>
<rect x="23.512" y="71.9238" width="31.524" height="26.6422" rx="5.94794" fill="url(#paint1_radial_7917_41669)"/>
<path fill-rule="evenodd" clip-rule="evenodd" d="M42.24 78.0837C41.0143 75.6472 37.5356 75.6464 36.3099 78.0829V78.0829C35.9623 78.7738 35.868 79.5616 35.9922 80.325C36.2884 82.1469 36.7056 85.813 36.0342 89.3196C35.8911 90.0668 35.9461 90.8552 36.2567 91.5497V91.5497C37.4124 94.1342 41.1092 94.1966 42.2649 91.6121V91.6121C42.5949 90.8742 42.6401 90.0386 42.4951 89.2435C42.1835 87.5354 41.8329 84.1197 42.7056 79.5192C42.7517 79.2762 42.7227 79.0431 42.6115 78.8221C42.5187 78.6377 42.3912 78.3843 42.24 78.0837Z" stroke="#C7C7B6" stroke-width="0.649131" stroke-linejoin="bevel"/>
<path d="M23.5126 79.4714H35.7719" stroke="#C7C7B6" stroke-width="0.649131" stroke-linejoin="bevel"/>
<path d="M42.426 79.4714H55.0356" stroke="#C7C7B6" stroke-width="0.649131" stroke-linejoin="bevel"/>
<path d="M23.5126 90.1276H35.7719" stroke="#C7C7B6" stroke-width="0.649131" stroke-linejoin="bevel"/>
<path d="M42.426 90.1276H55.0356" stroke="#C7C7B6" stroke-width="0.649131" stroke-linejoin="bevel"/>
<path d="M29.8707 26.4355C27.5198 26.4355 25.2875 27.1624 23.399 28.5196C23.399 28.5196 23.2538 28.6213 23.0238 28.8017C23.002 28.8195 22.9802 28.8373 22.956 28.8551C22.8688 28.9237 22.7744 29.0025 22.6703 29.0914C22.6509 29.1067 22.6315 29.1219 22.6122 29.1372C22.6122 29.1372 22.6146 29.1372 22.617 29.1372C22.0916 29.5845 21.3968 30.2478 20.8424 31.0255C19.2372 33.1502 18.3607 35.7731 18.3607 38.5179C18.3607 41.6288 19.4817 44.5795 21.5203 46.8338C21.5638 46.8617 21.6098 46.8872 21.6534 46.9151C21.697 46.9405 21.7382 46.9685 21.7842 46.9939C21.8326 47.0219 21.881 47.0473 21.9294 47.0752C21.973 47.1006 22.0166 47.1261 22.0626 47.1489C22.111 47.1769 22.1594 47.1998 22.2079 47.2252C22.2539 47.2481 22.2974 47.2735 22.3434 47.2963C22.3919 47.3218 22.4427 47.3446 22.4911 47.3675C22.5371 47.3904 22.5831 47.4107 22.6291 47.4336C22.68 47.4565 22.7284 47.4768 22.7792 47.4997C22.8252 47.52 22.8737 47.5403 22.9197 47.5607C22.9681 47.581 23.0213 47.6013 23.0722 47.6217C23.1182 47.6395 23.1666 47.6598 23.215 47.6776C23.2659 47.6954 23.3167 47.7132 23.3676 47.7309C23.416 47.7487 23.462 47.7665 23.5128 47.7818C23.5637 47.7996 23.6169 47.8148 23.6678 47.8301C23.7162 47.8453 23.7646 47.8606 23.8155 47.8758C23.8663 47.8911 23.9196 47.9038 23.9728 47.919C24.0213 47.9317 24.0697 47.947 24.1181 47.9571C24.1714 47.9724 24.2246 47.9826 24.2779 47.9953C24.3263 48.0054 24.3747 48.0181 24.4232 48.0283C24.4764 48.041 24.5321 48.0512 24.5854 48.0613C24.6338 48.0715 24.6822 48.0817 24.7306 48.0918C24.7863 48.102 24.842 48.1096 24.8977 48.1198C24.9461 48.1274 24.9921 48.135 25.0406 48.1427C25.0987 48.1503 25.1568 48.1579 25.2149 48.1655C25.2609 48.1706 25.3069 48.1783 25.3529 48.1833C25.4134 48.1884 25.4763 48.1935 25.5369 48.2011C25.5805 48.2037 25.624 48.2088 25.6676 48.2113C25.7378 48.2164 25.8105 48.2189 25.8807 48.224C25.9146 48.224 25.9485 48.2291 25.9824 48.2291C26.0889 48.2316 26.193 48.2342 26.2995 48.2342C27.5052 48.2342 28.6771 47.9927 29.7859 47.52C31.0134 46.9939 32.1126 46.2035 33.0205 45.1996C33.3232 44.8641 33.6016 44.5058 33.8582 44.1271C33.9212 44.0356 33.9817 43.9415 34.0398 43.8475C34.0592 43.8195 34.0737 43.7916 34.0931 43.7636C34.1366 43.695 34.1778 43.6238 34.219 43.5527C34.2359 43.5247 34.2529 43.4968 34.2674 43.4688C34.3207 43.3748 34.3739 43.2782 34.4248 43.1791C34.4296 43.1664 34.4369 43.1562 34.4417 43.1435C34.4877 43.0571 34.5313 42.9681 34.5749 42.8792C34.5894 42.8487 34.6015 42.8182 34.616 42.7902C34.6523 42.7114 34.6887 42.6327 34.7226 42.5564C34.7322 42.531 34.7443 42.5081 34.754 42.4827C34.7952 42.3861 34.8363 42.287 34.8727 42.1879C34.6499 42.5208 34.3957 42.836 34.11 43.1257C32.9648 44.2872 31.4565 44.9276 29.8634 44.9276C28.2703 44.9276 26.762 44.2872 25.6168 43.1257C24.474 41.9668 23.813 40.4114 23.7598 38.7492C23.7598 38.6958 23.7598 38.645 23.7598 38.5942V38.5205C23.7598 38.4442 23.7598 38.3705 23.7622 38.2943C23.7719 37.8444 23.8106 37.3997 23.8736 36.96C23.8736 36.9574 23.8736 36.9524 23.8736 36.9524C23.8905 36.8405 23.9075 36.7287 23.9268 36.6169C23.9317 36.594 23.9365 36.5711 23.9414 36.5483C23.9583 36.4618 23.9753 36.3754 23.9922 36.289C24.0019 36.2458 24.0116 36.2001 24.0213 36.1543C24.0334 36.1009 24.0455 36.0476 24.0576 35.9942C24.077 35.918 24.0963 35.8443 24.1157 35.768C24.1278 35.7273 24.1375 35.6867 24.1496 35.646C24.1738 35.5621 24.2004 35.4757 24.2246 35.3919C24.2343 35.3588 24.244 35.3283 24.2561 35.2953C24.2852 35.2038 24.3142 35.1148 24.3457 35.0233C24.3554 34.9979 24.3626 34.9725 24.3723 34.9471C24.4062 34.8531 24.4425 34.759 24.4789 34.665C24.4861 34.6447 24.4934 34.6243 24.5031 34.604C24.5418 34.5074 24.583 34.4108 24.6241 34.3143C24.6314 34.299 24.6386 34.2812 24.6435 34.266C24.6871 34.1669 24.7331 34.0677 24.7815 33.9686L24.8009 33.9305C24.8493 33.8314 24.9001 33.7297 24.951 33.6306C24.9558 33.6204 24.9607 33.6103 24.9679 33.6001C25.0212 33.4984 25.0744 33.3993 25.1326 33.3002C25.1374 33.2926 25.1422 33.2849 25.1471 33.2773C25.2052 33.1782 25.2657 33.0765 25.3287 32.9774C25.3287 32.9723 25.3335 32.9673 25.3383 32.9647C25.4013 32.8631 25.4691 32.7614 25.5345 32.6597C25.5974 32.5657 25.6652 32.4717 25.7306 32.3776C25.7524 32.3471 25.7741 32.3166 25.7959 32.2887C25.8419 32.2277 25.8879 32.1641 25.9339 32.1057C25.9606 32.0701 25.9896 32.0371 26.0187 32.0015C26.0623 31.9481 26.1058 31.8922 26.1494 31.8414C26.1809 31.8058 26.2099 31.7702 26.2414 31.7346C26.285 31.6838 26.3286 31.633 26.3722 31.5847C26.4036 31.5491 26.4351 31.5135 26.469 31.4779C26.5126 31.4296 26.5562 31.3813 26.6022 31.3356C26.6361 31.3 26.67 31.267 26.7014 31.2339C26.7474 31.1882 26.7934 31.1399 26.8394 31.0942C26.8733 31.0611 26.9072 31.0281 26.9411 30.995C26.9895 30.9493 27.038 30.9035 27.0888 30.8603C27.1227 30.8298 27.1566 30.7993 27.1881 30.7688C27.2413 30.7231 27.2946 30.6773 27.3479 30.6316C27.3793 30.6036 27.4108 30.5782 27.4423 30.5503C27.5052 30.4994 27.5658 30.4511 27.6287 30.4003C27.6529 30.3825 27.6796 30.3597 27.7038 30.3419C27.7909 30.2732 27.8805 30.2072 27.9725 30.1411C27.9846 30.1335 27.9967 30.1233 28.0088 30.1157C28.0863 30.0598 28.1662 30.0038 28.2461 29.9505C28.2776 29.9301 28.309 29.9098 28.3405 29.8895C28.4035 29.8488 28.4616 29.8107 28.5245 29.7726C28.5608 29.7497 28.5996 29.7268 28.6383 29.7039C28.6528 29.6938 28.6698 29.6862 28.6843 29.676C28.9652 29.5133 29.5898 29.1702 30.3549 28.8957C30.3597 28.8957 30.367 28.8907 30.3718 28.8907C30.4057 28.8779 30.442 28.8652 30.4784 28.8551C30.5147 28.8424 30.5534 28.8297 30.5921 28.817C30.626 28.8042 30.6624 28.7941 30.6963 28.7814C30.7374 28.7712 30.7737 28.7585 30.8149 28.7458C30.8488 28.7356 30.8851 28.7255 30.919 28.7153C30.9577 28.7051 30.9965 28.6924 31.0376 28.6823C31.0715 28.6721 31.1078 28.6619 31.1417 28.6543C31.1805 28.6441 31.2192 28.6365 31.2555 28.6263C31.2918 28.6187 31.3282 28.6085 31.3645 28.6009C31.4056 28.5908 31.4468 28.5831 31.4855 28.573C31.5194 28.5653 31.5557 28.5577 31.5896 28.5501C31.6308 28.5425 31.672 28.5348 31.7131 28.5272C31.747 28.5196 31.7809 28.5145 31.8172 28.5069C31.8584 28.5018 31.8995 28.4942 31.9431 28.4866C31.977 28.4815 32.0109 28.4764 32.0448 28.4688C32.0884 28.4637 32.1296 28.4561 32.1731 28.451C32.207 28.4459 32.2409 28.4408 32.2748 28.4357C32.3184 28.4306 32.362 28.4256 32.4056 28.4205C32.4395 28.4154 32.4733 28.4128 32.5048 28.4078C32.5484 28.4027 32.5944 28.4001 32.638 28.3976C32.6695 28.3951 32.7034 28.39 32.7348 28.39C32.7808 28.3849 32.8293 28.3849 32.8753 28.3798C32.9067 28.3798 32.9358 28.3747 32.9673 28.3747C33.0181 28.3722 33.0714 28.3696 33.1246 28.3696C33.1488 28.3696 33.173 28.3696 33.1997 28.3671C33.2796 28.3671 33.3571 28.3671 33.4321 28.3671C33.5314 28.3671 33.6306 28.3671 33.7299 28.3722C33.7565 28.3722 33.7856 28.3722 33.8146 28.3747C33.8945 28.3773 33.972 28.3824 34.0495 28.3874C34.0713 28.3874 34.0955 28.39 34.1173 28.3925C34.2165 28.4001 34.3134 28.4078 34.4102 28.4205C34.4296 28.4205 34.4514 28.4256 34.4732 28.4281C34.5531 28.4383 34.6306 28.4459 34.708 28.4586C34.7347 28.4611 34.7637 28.4662 34.7903 28.4713C34.8823 28.484 34.9743 28.4993 35.0664 28.5171C35.0712 28.5171 35.0785 28.5171 35.0833 28.5196C35.1801 28.5374 35.277 28.5577 35.3738 28.578C35.4005 28.5831 35.4247 28.5908 35.4513 28.5958C35.5264 28.6136 35.6014 28.6314 35.6789 28.6492C35.7007 28.6568 35.7249 28.6594 35.7491 28.667C35.8435 28.6924 35.938 28.7178 36.0324 28.7458C36.0493 28.7509 36.0687 28.756 36.0856 28.761C36.1631 28.7839 36.2406 28.8093 36.3181 28.8347C36.3447 28.8449 36.3713 28.8525 36.398 28.8627C36.4803 28.8907 36.5626 28.9186 36.6449 28.9491C36.657 28.9542 36.6667 28.9567 36.6788 28.9593C36.7708 28.9949 36.8604 29.0304 36.9524 29.066C36.979 29.0762 37.0032 29.0864 37.0274 29.0991C37.0613 29.1118 37.0952 29.127 37.1291 29.1397C35.0857 27.3861 32.5581 26.4355 29.8707 26.4355Z" fill="white"/>
<path d="M30.2148 50.8728C32.5657 50.8728 34.7955 50.146 36.6864 48.7888C36.6864 48.7888 36.8317 48.6871 37.0617 48.5067C37.0835 48.4889 37.1052 48.4711 37.1295 48.4533C37.2166 48.3847 37.311 48.3059 37.4151 48.2169C37.4345 48.2017 37.4539 48.1865 37.4733 48.1712C37.4733 48.1712 37.4708 48.1712 37.4684 48.1712C37.9938 47.7214 38.6887 47.0606 39.2431 46.2829C40.8507 44.1556 41.7247 41.5328 41.7247 38.7879C41.7247 35.6771 40.6037 32.7264 38.5652 30.4721C38.5216 30.4441 38.478 30.4187 38.432 30.3907C38.3884 30.3628 38.3449 30.3374 38.3013 30.3119C38.2529 30.284 38.2044 30.2586 38.156 30.2306C38.1124 30.2052 38.0688 30.1798 38.0228 30.1569C37.9744 30.1289 37.926 30.1061 37.8776 30.0807C37.8316 30.0578 37.788 30.0324 37.742 30.0095C37.6936 29.9841 37.6427 29.9612 37.5943 29.9383C37.5483 29.9155 37.5023 29.8951 37.4563 29.8723C37.4055 29.8494 37.357 29.8291 37.3062 29.8087C37.2602 29.7884 37.2118 29.7681 37.1658 29.7477C37.1174 29.7274 37.0641 29.7071 37.0132 29.6867C36.9672 29.6689 36.9188 29.6486 36.8704 29.6308C36.8196 29.613 36.7687 29.5952 36.7179 29.5774C36.6694 29.5596 36.6234 29.5419 36.5726 29.5266C36.5218 29.5088 36.4685 29.4936 36.4177 29.4783C36.3692 29.4631 36.3208 29.4478 36.27 29.4326C36.2191 29.4173 36.1659 29.4046 36.1126 29.3894C36.0642 29.3767 36.0157 29.3614 35.9673 29.3512C35.9141 29.336 35.8608 29.3258 35.8075 29.3131C35.7591 29.303 35.7107 29.2902 35.6623 29.2801C35.609 29.2674 35.5533 29.2572 35.5001 29.247C35.4516 29.2369 35.4032 29.2267 35.3548 29.2165C35.2991 29.2064 35.2434 29.1988 35.1877 29.1886C35.1393 29.181 35.0909 29.1733 35.0449 29.1657C34.9868 29.1581 34.9287 29.1505 34.8706 29.1428C34.8246 29.1378 34.7786 29.1301 34.7326 29.125C34.672 29.12 34.6091 29.1149 34.5486 29.1073C34.505 29.1047 34.4614 29.0996 34.4178 29.0971C34.3476 29.092 34.275 29.0895 34.2048 29.0844C34.1709 29.0844 34.137 29.0793 34.1031 29.0793C33.9965 29.0768 33.8924 29.0742 33.7859 29.0742C32.5802 29.0742 31.4084 29.3157 30.2995 29.7884C29.072 30.3145 27.9728 31.1049 27.0649 32.1088C26.7623 32.4443 26.4839 32.8026 26.2272 33.1813C26.1643 33.2728 26.1037 33.3668 26.0456 33.4609C26.0263 33.4888 26.0117 33.5168 25.9924 33.5448C25.9488 33.6134 25.9076 33.6845 25.8665 33.7557C25.8495 33.7837 25.8326 33.8116 25.818 33.8396C25.7648 33.9336 25.7115 34.0302 25.6607 34.1293C25.6558 34.1395 25.6486 34.1522 25.6437 34.1649C25.5977 34.2513 25.5541 34.3402 25.513 34.4292C25.4985 34.4597 25.4864 34.4902 25.4718 34.5182C25.4355 34.5969 25.3992 34.6757 25.3653 34.7545C25.3556 34.7799 25.3435 34.8028 25.3338 34.8282C25.2902 34.9248 25.2515 35.0239 25.2128 35.123C25.4355 34.7901 25.6897 34.4749 25.9754 34.1852C27.1206 33.0237 28.629 32.3833 30.222 32.3833C31.8151 32.3833 33.3235 33.0237 34.4687 34.1852C35.6114 35.3441 36.2724 36.8996 36.3256 38.5617C36.3256 38.6151 36.3256 38.6659 36.3256 38.7167V38.7905C36.3256 38.8667 36.3257 38.9404 36.3232 39.0166C36.3135 39.4665 36.2748 39.9113 36.2119 40.3509C36.2119 40.3535 36.2119 40.3586 36.2119 40.3611C36.1949 40.4729 36.178 40.5848 36.1586 40.6966C36.1538 40.7195 36.1489 40.7423 36.1441 40.7652C36.1271 40.8516 36.1102 40.938 36.0932 41.0244C36.0835 41.0677 36.0739 41.1134 36.0642 41.1591C36.0521 41.2125 36.04 41.2659 36.0279 41.3193C36.0085 41.3955 35.9891 41.4692 35.9697 41.5455C35.9576 41.5861 35.948 41.6268 35.9359 41.6675C35.9116 41.7513 35.8874 41.8377 35.8608 41.9216C35.8511 41.9546 35.8414 41.9851 35.8293 42.0182C35.8003 42.1097 35.7712 42.1986 35.7397 42.2901C35.7301 42.3155 35.7228 42.341 35.7131 42.3664C35.6792 42.4604 35.6429 42.5544 35.6066 42.651C35.5993 42.6714 35.5921 42.6917 35.5824 42.7095C35.5436 42.8061 35.5025 42.9052 35.4613 42.9992C35.4541 43.0145 35.4468 43.0322 35.4419 43.0475C35.3984 43.1466 35.3524 43.2457 35.3039 43.3449L35.2846 43.383C35.2362 43.4846 35.1853 43.5838 35.1345 43.6829C35.1296 43.693 35.1248 43.7032 35.1175 43.7134C35.0643 43.815 35.011 43.9142 34.9529 44.0133C34.948 44.0209 34.9432 44.0285 34.9384 44.0361C34.8802 44.1353 34.8197 44.2369 34.7568 44.336C34.7568 44.3411 34.7519 44.3462 34.7471 44.3488C34.6841 44.4504 34.6163 44.5521 34.551 44.6537C34.488 44.7478 34.4202 44.8418 34.3549 44.9333C34.3331 44.9638 34.3113 44.9943 34.2895 45.0223C34.2435 45.0833 34.1975 45.1468 34.1515 45.2052C34.1249 45.2408 34.0958 45.2739 34.0668 45.3095C34.0232 45.3628 33.9796 45.4187 33.936 45.4696C33.9045 45.5051 33.8755 45.5407 33.844 45.5763C33.8004 45.6271 33.7569 45.678 33.7133 45.7263C33.6818 45.7618 33.6503 45.7974 33.6164 45.833C33.5729 45.8813 33.5293 45.9296 33.4833 45.9753C33.4494 46.0109 33.4155 46.044 33.384 46.077C33.338 46.1227 33.292 46.171 33.246 46.2142C33.2121 46.2473 33.1782 46.2803 33.1443 46.3134C33.0959 46.3591 33.0475 46.4048 32.9966 46.4481C32.9627 46.4785 32.9288 46.509 32.8974 46.5395C32.8441 46.5853 32.7908 46.631 32.7376 46.6768C32.7061 46.7047 32.6746 46.7302 32.6431 46.7581C32.5802 46.8089 32.5197 46.8572 32.4567 46.9081C32.4325 46.9284 32.4059 46.9487 32.3817 46.9665C32.2945 47.0351 32.2049 47.1012 32.1129 47.1673C32.1008 47.1749 32.0887 47.1851 32.0766 47.1927C31.9991 47.2486 31.9192 47.3045 31.8393 47.3579C31.8079 47.3782 31.7764 47.3986 31.7449 47.4189C31.682 47.4596 31.6239 47.4977 31.5609 47.5358C31.5246 47.5587 31.4859 47.5816 31.4471 47.6044C31.4326 47.6146 31.4156 47.6222 31.4011 47.6324C31.1203 47.7951 30.4956 48.1356 29.7306 48.4126C29.7257 48.4126 29.7184 48.4177 29.7136 48.4177C29.6797 48.4304 29.6434 48.4431 29.6071 48.4559C29.5708 48.4686 29.532 48.4813 29.4933 48.494C29.4594 48.5041 29.4231 48.5168 29.3892 48.5296C29.348 48.5397 29.3117 48.5524 29.2705 48.5651C29.2366 48.5753 29.2003 48.5855 29.1664 48.5956C29.1277 48.6058 29.089 48.6185 29.0478 48.6287C29.0139 48.6388 28.9776 48.6465 28.9437 48.6566C28.905 48.6668 28.8662 48.6744 28.8299 48.6846C28.7936 48.6922 28.7573 48.7024 28.721 48.71C28.6798 48.7202 28.6386 48.7278 28.5999 48.7354C28.566 48.743 28.5297 48.7507 28.4958 48.7583C28.4546 48.7659 28.4135 48.7735 28.3723 48.7812C28.3384 48.7888 28.3045 48.7939 28.2682 48.8015C28.227 48.8066 28.1859 48.8142 28.1423 48.8218C28.1084 48.8269 28.0745 48.8345 28.0406 48.8396C27.997 48.8447 27.9559 48.8523 27.9123 48.8574C27.8784 48.8625 27.8445 48.8676 27.8106 48.8727C27.767 48.8777 27.7235 48.8828 27.6799 48.8879C27.646 48.893 27.6145 48.8955 27.5806 48.9006C27.537 48.9057 27.491 48.9082 27.4475 48.9108C27.416 48.9133 27.3821 48.9159 27.3506 48.9184C27.3046 48.9235 27.2562 48.926 27.2102 48.9286C27.1787 48.9286 27.1497 48.9337 27.1182 48.9337C27.0673 48.9362 27.0141 48.9387 26.9608 48.9387C26.9366 48.9387 26.91 48.9387 26.8858 48.9413C26.8059 48.9413 26.7284 48.9413 26.6533 48.9413C26.5541 48.9413 26.4548 48.9413 26.3555 48.9362C26.3289 48.9362 26.2998 48.9362 26.2708 48.9337C26.1909 48.9311 26.1134 48.926 26.0359 48.921C26.0142 48.921 25.9899 48.9184 25.9682 48.9159C25.8713 48.9082 25.772 48.9006 25.6752 48.8879C25.6558 48.8879 25.634 48.8828 25.6123 48.8803C25.5324 48.8701 25.4549 48.8625 25.3774 48.8498C25.3508 48.8472 25.3217 48.8422 25.2951 48.8371C25.2031 48.8244 25.1111 48.8091 25.0191 48.7913C25.0142 48.7913 25.007 48.7913 25.0021 48.7888C24.9053 48.771 24.8084 48.7507 24.7116 48.7303C24.685 48.7253 24.6608 48.7176 24.6341 48.7125C24.5591 48.6948 24.484 48.677 24.4065 48.6592C24.3848 48.6516 24.3605 48.649 24.3363 48.6414C24.2419 48.616 24.1475 48.5906 24.0531 48.5626C24.0361 48.5575 24.0167 48.5524 23.9998 48.5473C23.9223 48.5245 23.8448 48.4991 23.7674 48.4736C23.7407 48.4635 23.7141 48.4559 23.6875 48.4457C23.6052 48.4177 23.5228 48.3898 23.4405 48.3593C23.4284 48.3542 23.4187 48.3517 23.4066 48.3491C23.3146 48.3161 23.225 48.2779 23.133 48.2424C23.1064 48.2322 23.0822 48.222 23.058 48.2093C23.0241 48.1966 22.9902 48.1814 22.9563 48.1687C24.9997 49.9223 27.5273 50.8703 30.2148 50.8703" fill="white"/>
<path d="M52.4426 35.4883C52.4426 34.7742 51.9826 34.3294 51.157 34.3294H49.2394V36.6219H51.1812C51.9341 36.6219 52.4426 36.3042 52.4426 35.4883ZM49.2394 30.6594V32.8248H50.8543C51.6678 32.8248 52.152 32.4182 52.152 31.7421C52.152 30.9009 51.5928 30.6594 50.9754 30.6594H49.2394ZM54.3867 35.6027C54.3867 37.3614 53.2101 38.2916 51.2562 38.2916H47.3243V28.9668H51.1957C52.98 28.9668 54.072 29.7953 54.072 31.5414C54.072 32.4716 53.4643 33.1857 52.8348 33.4018C53.5272 33.5669 54.3891 34.3065 54.3891 35.6052" fill="white"/>
<path d="M59.5653 35.758V35.2751C59.1295 35.1099 58.6671 35.0337 58.1829 35.0337C57.3936 35.0337 56.7375 35.3768 56.7375 36.0274C56.7375 36.678 57.321 37.0338 58.0231 37.0338C58.8366 37.0338 59.5653 36.6145 59.5653 35.7605M59.6137 37.4684C59.2021 38.0809 58.4371 38.424 57.5025 38.424C55.9845 38.424 54.8926 37.6463 54.8926 36.1697C54.8926 34.6931 56.3235 33.8518 57.7083 33.8518C58.3281 33.8518 58.9334 33.9408 59.5653 34.1314C59.5895 33.036 59.0181 32.5633 58.0231 32.5633C57.1006 32.5633 56.1298 32.8683 55.7037 33.0843L55.2557 31.6712C55.8877 31.3535 57.0038 30.9316 58.2894 30.9316C60.449 30.9316 61.4078 32.0397 61.4078 34.2432V38.2944H59.6234L59.6113 37.4659L59.6137 37.4684Z" fill="white"/>
<path d="M69.1728 34.0253V38.2925H67.3279V34.3175C67.3279 33.2603 66.7323 32.6732 65.8583 32.6732C64.9116 32.6732 64.2071 33.3619 64.2071 34.3302V38.2925H62.3622V31.0695H64.2071V32.1522C64.7663 31.5524 65.5677 30.9297 66.6233 30.9297C68.1293 30.9297 69.1728 32.0886 69.1728 34.0253Z" fill="white"/>
<path d="M73.4576 30.9297C75.0241 30.9297 76.1644 31.8345 76.6244 32.968L75.0459 33.6694C74.7674 33.1332 74.2808 32.6757 73.4673 32.6757C72.4117 32.6757 71.6587 33.5424 71.6587 34.7013C71.6587 35.8602 72.4117 36.6888 73.4673 36.6888C74.2929 36.6888 74.8013 36.2415 75.0701 35.7332L76.6486 36.4219C76.1741 37.6063 75.0701 38.4348 73.4697 38.4348C71.4191 38.4348 69.8163 36.8819 69.8163 34.7013C69.8163 32.5207 71.4312 30.9297 73.4576 30.9297Z" fill="white"/>
<path d="M78.7357 34.6759C78.7357 35.8094 79.4281 36.7015 80.5563 36.7015C81.6846 36.7015 82.377 35.8094 82.377 34.6759C82.377 33.5424 81.6967 32.663 80.5563 32.663C79.416 32.663 78.7357 33.5297 78.7357 34.6759ZM76.8787 34.6759C76.8787 32.6122 78.4088 30.9297 80.5563 30.9297C82.7039 30.9297 84.234 32.6122 84.234 34.6759C84.234 36.7396 82.7039 38.4348 80.5563 38.4348C78.4088 38.4348 76.8787 36.7396 76.8787 34.6759Z" fill="white"/>
<path d="M55.813 44.9894C55.5951 47.2818 53.8712 49.0533 51.225 49.0533C48.5787 49.0533 46.4917 46.9387 46.4917 44.2371C46.4917 41.5355 48.494 39.4082 51.225 39.4082C53.2999 39.4082 54.6121 40.5163 55.3626 41.8531L53.6388 42.6944C53.203 41.9675 52.4621 41.2533 51.2225 41.2533C49.6319 41.2533 48.4068 42.5394 48.4068 44.2345C48.4068 45.9297 49.6561 47.1903 51.2225 47.1903C52.5445 47.1903 53.5638 46.438 53.7599 45.2156H50.6657V43.5966H55.8469C55.859 43.8762 55.8832 44.3362 55.8105 44.9843" fill="white"/>
<path d="M63.517 41.6621V48.8851H61.6721V47.8024C61.1129 48.4022 60.3139 49.0249 59.2583 49.0249C57.7524 49.0249 56.7089 47.866 56.7089 45.9293V41.6621H58.5537V45.637C58.5537 46.6943 59.1493 47.2814 60.0234 47.2814C60.97 47.2814 61.6746 46.5927 61.6746 45.6243V41.6621H63.5194H63.517Z" fill="white"/>
<path d="M68.933 46.3517V45.8688C68.4972 45.7036 68.0348 45.6274 67.5505 45.6274C66.7613 45.6274 66.1051 45.9705 66.1051 46.6211C66.1051 47.2718 66.6886 47.6276 67.3907 47.6276C68.2042 47.6276 68.933 47.2082 68.933 46.3543M68.9814 48.0622C68.5698 48.6747 67.8048 49.0178 66.8702 49.0178C65.3522 49.0178 64.2603 48.2401 64.2603 46.7635C64.2603 45.2868 65.6911 44.4456 67.076 44.4456C67.6958 44.4456 68.3011 44.5345 68.933 44.7252C68.9572 43.6298 68.3858 43.157 67.3907 43.157C66.4683 43.157 65.4974 43.462 65.0713 43.6781L64.6234 42.265C65.2553 41.9473 66.3715 41.5254 67.6571 41.5254C69.8167 41.5254 70.7755 42.6335 70.7755 44.837V48.8882H68.9911L68.979 48.0596L68.9814 48.0622Z" fill="white"/>
<path d="M78.7143 41.6607L75.6201 49.42C75.0003 50.9754 74.2473 51.6743 72.8165 51.6743C72.0514 51.6743 71.5188 51.5218 70.8142 51.1635L71.3977 49.6208C71.7488 49.786 72.1265 49.9639 72.6349 49.9639C73.3031 49.9639 73.6421 49.6208 73.9689 48.805L73.981 48.7668L70.9595 41.6582H73.0465L74.8792 46.4363L76.712 41.6582H78.7143V41.6607Z" fill="white"/>
<path d="M83.4618 46.3517V45.8688C83.026 45.7036 82.5636 45.6274 82.0793 45.6274C81.2901 45.6274 80.6339 45.9705 80.6339 46.6211C80.6339 47.2718 81.2174 47.6276 81.9196 47.6276C82.733 47.6276 83.4618 47.2082 83.4618 46.3543M83.5102 48.0622C83.0986 48.6747 82.3336 49.0178 81.399 49.0178C79.881 49.0178 78.7891 48.2401 78.7891 46.7635C78.7891 45.2868 80.2199 44.4456 81.6048 44.4456C82.2246 44.4456 82.8299 44.5345 83.4618 44.7252C83.486 43.6298 82.9146 43.157 81.9196 43.157C80.9971 43.157 80.0262 43.462 79.6001 43.6781L79.1522 42.265C79.7841 41.9473 80.9003 41.5254 82.1859 41.5254C84.3455 41.5254 85.3043 42.6335 85.3043 44.837V48.8882H83.5199L83.5078 48.0596L83.5102 48.0622Z" fill="white"/>
<path d="M91.4468 45.2683C91.4468 44.1475 90.8391 43.2808 89.723 43.2808C88.6068 43.2808 87.9265 44.1475 87.9265 45.2683C87.9265 46.3891 88.6068 47.2685 89.723 47.2685C90.8391 47.2685 91.4468 46.4145 91.4468 45.2683ZM93.2553 41.6619V51.5484H91.4226V47.9928C90.9601 48.6053 90.2459 49.0246 89.1298 49.0246C87.3333 49.0246 86.0598 47.5353 86.0598 45.2784C86.0598 43.0216 87.3333 41.5195 89.1298 41.5195C90.2459 41.5195 90.9626 41.9389 91.4226 42.5514V41.6593H93.2553V41.6619Z" fill="white"/>
<path d="M101.065 41.6621V48.8851H99.2206V47.8024C98.6613 48.4022 97.8624 49.0249 96.8067 49.0249C95.3008 49.0249 94.2573 47.866 94.2573 45.9293V41.6621H96.1022V45.637C96.1022 46.6943 96.6978 47.2814 97.5718 47.2814C98.5185 47.2814 99.223 46.5927 99.223 45.6243V41.6621H101.068H101.065Z" fill="white"/>
<path d="M102.281 41.6618H104.126V48.8848H102.281V41.6618ZM103.216 40.9095C102.62 40.9095 102.148 40.4266 102.148 39.8395C102.148 39.2524 102.635 38.7949 103.216 38.7949C103.797 38.7949 104.259 39.2524 104.259 39.8395C104.259 40.4266 103.797 40.9095 103.216 40.9095Z" fill="white"/>
<path d="M105.341 39.2897L107.186 39V48.8865H105.341V39.2897Z" fill="white"/>
<path d="M280.239 186.104H259.995V149.045H280.239V186.104Z" fill="#FF5F00"/>
<path d="M261.28 167.572C261.277 171.141 262.071 174.664 263.602 177.875C265.133 181.085 267.361 183.898 270.117 186.102C266.704 188.835 262.605 190.534 258.289 191.006C253.972 191.478 249.613 190.703 245.708 188.77C241.804 186.838 238.512 183.825 236.209 180.076C233.906 176.328 232.684 171.995 232.684 167.572C232.684 163.15 233.906 158.817 236.209 155.068C238.512 151.32 241.804 148.307 245.708 146.374C249.613 144.441 253.972 143.667 258.289 144.138C262.605 144.61 266.704 146.31 270.117 149.043C267.361 151.246 265.133 154.06 263.602 157.27C262.071 160.48 261.277 164.003 261.28 167.572Z" fill="#EB001B"/>
<path d="M307.548 167.572C307.548 163.15 306.327 158.817 304.024 155.068C301.721 151.32 298.429 148.307 294.525 146.374C290.621 144.441 286.261 143.667 281.945 144.138C277.629 144.61 273.53 146.31 270.117 149.043C272.871 151.249 275.097 154.062 276.627 157.272C278.158 160.482 278.953 164.004 278.953 167.572C278.953 171.141 278.158 174.663 276.627 177.872C275.097 181.082 272.871 183.896 270.117 186.102C273.53 188.835 277.629 190.534 281.945 191.006C286.261 191.478 290.621 190.703 294.525 188.77C298.429 186.838 301.721 183.825 304.024 180.076C306.327 176.328 307.548 171.994 307.548 167.572Z" fill="#F79E1B"/>
<path d="M305.341 152.968V153.727H305.642V153.881H304.877V153.727H305.177V152.968H305.341ZM306.826 152.968V153.883H306.592L306.322 153.254L306.052 153.883H305.818V152.968H305.983V153.658L306.236 153.063H306.408L306.661 153.66V152.968H306.826Z" fill="#F79E1B"/>
<path d="M260.276 93.6624C259.641 93.6624 259.081 93.5087 258.595 93.2014C258.12 92.8941 257.748 92.4579 257.48 91.8929C257.213 91.3179 257.079 90.6438 257.079 89.8706C257.079 89.0874 257.213 88.4183 257.48 87.8631C257.748 87.2981 258.12 86.8619 258.595 86.5546C259.081 86.2473 259.641 86.0936 260.276 86.0936C260.791 86.0936 261.257 86.2076 261.674 86.4356C262.09 86.6636 262.402 86.966 262.61 87.3427V83.0304H264.469V93.5137H262.655V92.3092C262.457 92.7256 262.144 93.0577 261.718 93.3055C261.292 93.5434 260.811 93.6624 260.276 93.6624ZM260.796 92.2497C261.351 92.2497 261.797 92.0515 262.134 91.6549C262.472 91.2485 262.64 90.6537 262.64 89.8706C262.64 89.0775 262.472 88.4877 262.134 88.101C261.797 87.7045 261.351 87.5063 260.796 87.5063C260.241 87.5063 259.795 87.7045 259.458 88.101C259.121 88.4877 258.952 89.0775 258.952 89.8706C258.952 90.6537 259.121 91.2485 259.458 91.6549C259.795 92.0515 260.241 92.2497 260.796 92.2497ZM269.98 93.6624C269.157 93.6624 268.448 93.5087 267.854 93.2014C267.259 92.8941 266.798 92.4579 266.471 91.8929C266.153 91.3278 265.995 90.6587 265.995 89.8854C265.995 89.132 266.148 88.4728 266.456 87.9077C266.773 87.3427 267.204 86.9015 267.749 86.5843C268.305 86.2572 268.934 86.0936 269.638 86.0936C270.669 86.0936 271.482 86.4208 272.077 87.075C272.681 87.7293 272.984 88.6215 272.984 89.7516V90.3018H267.779C267.918 91.6004 268.661 92.2497 270.01 92.2497C270.416 92.2497 270.823 92.1903 271.229 92.0713C271.635 91.9424 272.007 91.7442 272.344 91.4765L272.865 92.7256C272.518 93.0131 272.082 93.2411 271.556 93.4096C271.031 93.5781 270.505 93.6624 269.98 93.6624ZM269.712 87.3576C269.167 87.3576 268.726 87.5261 268.389 87.8631C268.052 88.2002 267.849 88.6562 267.779 89.2312H271.437C271.398 88.6264 271.229 88.1655 270.932 87.8483C270.644 87.5211 270.238 87.3576 269.712 87.3576ZM269.028 85.2758L270.56 82.2572H272.389L270.277 85.2758H269.028ZM278.649 93.6624C278.114 93.6624 277.633 93.5434 277.207 93.3055C276.79 93.0676 276.478 92.7454 276.27 92.339V93.5137H274.456V83.0304H276.314V87.3129C276.532 86.9462 276.845 86.6537 277.251 86.4356C277.668 86.2076 278.133 86.0936 278.649 86.0936C279.293 86.0936 279.853 86.2473 280.329 86.5546C280.805 86.8619 281.177 87.2981 281.444 87.8631C281.712 88.4183 281.846 89.0874 281.846 89.8706C281.846 90.6438 281.712 91.3179 281.444 91.8929C281.177 92.4579 280.8 92.8941 280.314 93.2014C279.839 93.5087 279.283 93.6624 278.649 93.6624ZM278.129 92.2497C278.684 92.2497 279.13 92.0515 279.467 91.6549C279.804 91.2485 279.972 90.6537 279.972 89.8706C279.972 89.0775 279.804 88.4877 279.467 88.101C279.13 87.7045 278.684 87.5063 278.129 87.5063C277.573 87.5063 277.127 87.7045 276.79 88.101C276.453 88.4877 276.285 89.0775 276.285 89.8706C276.285 90.6537 276.453 91.2485 276.79 91.6549C277.127 92.0515 277.573 92.2497 278.129 92.2497ZM283.253 84.681V82.8669H285.335V84.681H283.253ZM283.372 93.5137V86.2423H285.23V93.5137H283.372ZM290.493 93.6624C288.57 93.6624 287.608 92.7107 287.608 90.8074V87.6401H286.21V86.2423H287.608V84.0713H289.467V86.2423H291.667V87.6401H289.467V90.7033C289.467 91.1791 289.571 91.536 289.779 91.7739C289.987 92.0118 290.324 92.1308 290.79 92.1308C290.929 92.1308 291.073 92.1159 291.221 92.0862C291.37 92.0465 291.524 92.0069 291.682 91.9672L291.965 93.3352C291.786 93.4344 291.558 93.5137 291.281 93.5732C291.013 93.6326 290.75 93.6624 290.493 93.6624ZM296.112 93.6624C295.359 93.6624 294.704 93.5087 294.149 93.2014C293.594 92.8941 293.163 92.4579 292.856 91.8929C292.548 91.3179 292.395 90.6438 292.395 89.8706C292.395 89.0973 292.548 88.4282 292.856 87.8631C293.163 87.2981 293.594 86.8619 294.149 86.5546C294.704 86.2473 295.359 86.0936 296.112 86.0936C296.865 86.0936 297.52 86.2473 298.075 86.5546C298.63 86.8619 299.061 87.2981 299.369 87.8631C299.676 88.4282 299.83 89.0973 299.83 89.8706C299.83 90.6438 299.676 91.3179 299.369 91.8929C299.061 92.4579 298.63 92.8941 298.075 93.2014C297.52 93.5087 296.865 93.6624 296.112 93.6624ZM296.112 92.2497C296.667 92.2497 297.113 92.0515 297.45 91.6549C297.787 91.2485 297.956 90.6537 297.956 89.8706C297.956 89.0775 297.787 88.4877 297.45 88.101C297.113 87.7045 296.667 87.5063 296.112 87.5063C295.557 87.5063 295.111 87.7045 294.774 88.101C294.437 88.4877 294.268 89.0775 294.268 89.8706C294.268 90.6537 294.437 91.2485 294.774 91.6549C295.111 92.0515 295.557 92.2497 296.112 92.2497Z" fill="white"/>
<path d="M70.8763 89.6671C72.0448 88.3281 72.6902 86.5987 72.6902 84.8071C72.6902 83.0155 72.0448 81.2861 70.8763 79.9471C70.7802 79.8339 70.663 79.7414 70.5315 79.6747C70.3999 79.6081 70.2567 79.5688 70.1102 79.559C69.9636 79.5493 69.8166 79.5693 69.6777 79.6179C69.5388 79.6665 69.4107 79.7427 69.301 79.8422C69.1912 79.9416 69.1019 80.0623 69.0384 80.1972C68.9748 80.332 68.9381 80.4785 68.9305 80.6279C68.923 80.7773 68.9446 80.9268 68.9942 81.0676C69.0438 81.2085 69.1204 81.3379 69.2195 81.4483C70.0269 82.3738 70.4729 83.5689 70.4729 84.8071C70.4729 86.0453 70.0269 87.2404 69.2195 88.1659C69.024 88.3899 68.924 88.6838 68.9412 88.9829C68.9585 89.282 69.0917 89.5619 69.3116 89.761C69.5315 89.9601 69.8199 90.062 70.1136 90.0444C70.4072 90.0268 70.682 89.8911 70.8774 89.6671L70.8763 89.6671Z" fill="white"/>
<path d="M77.2438 84.8066C77.2479 81.7738 76.1164 78.8537 74.08 76.6415C73.9815 76.5295 73.8621 76.4387 73.7287 76.3743C73.5953 76.31 73.4506 76.2734 73.3031 76.2667C73.1557 76.2601 73.0084 76.2835 72.8699 76.3356C72.7314 76.3877 72.6046 76.4674 72.4968 76.5701C72.389 76.6729 72.3024 76.7965 72.2421 76.9337C72.1818 77.0709 72.149 77.2191 72.1456 77.3694C72.1422 77.5197 72.1684 77.6692 72.2225 77.8092C72.2766 77.9491 72.3575 78.0766 72.4606 78.1842C74.1091 79.9804 75.0262 82.3476 75.0262 84.8066C75.0262 87.2656 74.1091 89.6327 72.4606 91.429C72.3575 91.5366 72.2766 91.6641 72.2225 91.804C72.1684 91.9439 72.1422 92.0934 72.1456 92.2437C72.149 92.394 72.1818 92.5422 72.2421 92.6794C72.3024 92.8167 72.389 92.9403 72.4968 93.043C72.6046 93.1457 72.7314 93.2254 72.8699 93.2775C73.0084 93.3296 73.1557 93.353 73.3031 93.3464C73.4506 93.3398 73.5953 93.3032 73.7287 93.2388C73.8621 93.1745 73.9815 93.0836 74.08 92.9716C76.1164 90.7594 77.2479 87.8393 77.2438 84.8066Z" fill="white"/>
<path d="M77.6575 95.8722C80.3247 92.8269 81.7988 88.8882 81.7988 84.8069C81.7988 80.7256 80.3247 76.7869 77.6575 73.7416C77.5615 73.6272 77.4441 73.5334 77.312 73.4658C77.18 73.3983 77.036 73.3583 76.8886 73.3482C76.7412 73.3382 76.5932 73.3582 76.4535 73.4072C76.3138 73.4562 76.1851 73.5331 76.075 73.6335C75.9649 73.7339 75.8756 73.8557 75.8123 73.9917C75.7491 74.1277 75.7132 74.2753 75.7067 74.4257C75.7002 74.576 75.7233 74.7262 75.7746 74.8674C75.8259 75.0086 75.9043 75.1378 76.0054 75.2477C78.3088 77.8788 79.5818 81.2811 79.5818 84.8066C79.5818 88.3321 78.3088 91.7345 76.0054 94.3656C75.8093 94.5889 75.7084 94.8824 75.7248 95.1816C75.7412 95.4807 75.8735 95.761 76.0928 95.9607C76.312 96.1604 76.6001 96.2632 76.8938 96.2465C77.1874 96.2298 77.4625 96.095 77.6585 95.8717L77.6575 95.8722Z" fill="white"/>
</g>
<defs>
<filter id="filter0_dd_7917_41669" x="-33.7619" y="-33.7619" width="403.405" height="289.405" filterUnits="userSpaceOnUse" color-interpolation-filters="sRGB">
<feFlood flood-opacity="0" result="BackgroundImageFix"/>
<feColorMatrix in="SourceAlpha" type="matrix" values="0 0 0 0 0 0 0 0 0 0 0 0 0 0 0 0 0 0 127 0" result="hardAlpha"/>
<feOffset dx="16.8809" dy="16.8809"/>
<feGaussianBlur stdDeviation="16.8809"/>
<feComposite in2="hardAlpha" operator="out"/>
<feColorMatrix type="matrix" values="0 0 0 0 0.815686 0 0 0 0 0.815686 0 0 0 0 0.815686 0 0 0 1 0"/>
<feBlend mode="normal" in2="BackgroundImageFix" result="effect1_dropShadow_7917_41669"/>
<feColorMatrix in="SourceAlpha" type="matrix" values="0 0 0 0 0 0 0 0 0 0 0 0 0 0 0 0 0 0 127 0" result="hardAlpha"/>
<feOffset/>
<feGaussianBlur stdDeviation="16.8809"/>
<feComposite in2="hardAlpha" operator="out"/>
<feColorMatrix type="matrix" values="0 0 0 0 0 0 0 0 0 0 0 0 0 0 0 0 0 0 0.35 0"/>
<feBlend mode="normal" in2="effect1_dropShadow_7917_41669" result="effect2_dropShadow_7917_41669"/>
<feBlend mode="normal" in="SourceGraphic" in2="effect2_dropShadow_7917_41669" result="shape"/>
</filter>
<linearGradient id="paint0_linear_7917_41669" x1="318.914" y1="199.822" x2="66.0209" y2="35.9738" gradientUnits="userSpaceOnUse">
<stop stop-color="#372C7D"/>
<stop offset="1" stop-color="#160B56"/>
</linearGradient>
<radialGradient id="paint1_radial_7917_41669" cx="0" cy="0" r="1" gradientUnits="userSpaceOnUse" gradientTransform="translate(41.6147 81.6287) rotate(134.557) scale(23.7702 24.1695)">
<stop stop-color="#FDF9D3"/>
<stop stop-color="#A44F01"/>
<stop offset="0.0001" stop-color="#FFFCEB"/>
<stop offset="1" stop-color="#CBC19B"/>
</radialGradient>
<clipPath id="clip0_7917_41669">
<rect x="0.5" width="319" height="205" rx="16" fill="white"/>
</clipPath>
</defs>
</svg>
