<svg xmlns="http://www.w3.org/2000/svg" width="263" height="228" fill="none" xmlns:v="https://vecta.io/nano"><style><![CDATA[.B{fill:#170f40}.C{fill:#fff}.D{fill:#f29b9b}.E{fill:#9fdcee}.F{fill:#d2006e}.G{fill:#d1006e}]]></style><path d="M127.503 172.276h106.439c17.225-14.839 28.126-36.758 28.126-61.207 0-44.697-36.42-80.933-81.346-80.933s-81.345 36.235-81.345 80.933c.004 24.453 10.9 46.368 28.126 61.207z" class="E"/><path d="M150.043 106.331s1.337-6.898 7.722-16.354l-.553 17.479-7.169-1.125z" fill="#ce7474"/><path d="M87.614 48.87a.47.47 0 0 1-.469-.416c-.032-.261.155-.495.414-.526l15.26-1.844a.48.48 0 0 1 .529.412c.032.261-.155.495-.414.526l-15.26 1.845c-.02 0-.04.004-.06.004z" class="F"/><path d="M107.954 172.276c-3.23-.242-6.397-1.568-8.887-3.986-1.834-1.777-13.43-12.021-27.024-51.881-2.514-7.374 1.456-15.377 8.863-17.875 7.415-2.505 15.38 2.411 18.057 9.804 8.88 24.524 19.525 39.869 19.656 40.004 5.602 5.43 5.987 14.157.525 19.734-3.027 3.103-7.156 4.5-11.19 4.2z" class="D"/><path d="M156.058 118.803l46.982.103c3.787-31.426-.641-64.638-.641-64.638l-43.799 3.8c.004 0 5.386 45.121-2.542 60.735z" class="C"/><path d="M203.239 119.128l-47.543-.103.163-.321c7.81-15.373 2.578-60.157 2.523-60.609l-.028-.23 44.241-3.835.028.21c.043.333 4.388 33.599.64 64.694l-.024.194zm-46.823-.547l46.425.099c3.545-29.681-.27-61.285-.636-64.171l-43.354 3.76c.394 3.475 4.921 45.113-2.435 60.312z" class="B"/><path d="M153.905 116.848l46.966-1.27c2.857-31.522-2.546-64.591-2.546-64.591l-43.668 5.078c-.004 0 6.711 44.947-.752 60.783z" class="C"/><path d="M153.548 117.082l.155-.329c7.352-15.594.8-60.209.732-60.656l-.036-.226 44.11-5.129.036.21c.055.332 5.378 33.457 2.55 64.646l-.016.198-47.531 1.287zm1.36-60.823c.498 3.463 6.25 44.951-.652 60.359l46.405-1.254c2.666-29.772-2.08-61.25-2.53-64.128l-43.223 5.023zm6.392 9.499l-.028-.443a157.12 157.12 0 0 0 21.622-2.81l.087.435c-7.113 1.437-14.409 2.383-21.681 2.818zm.41 2.941l-.023-.443c8.994-.455 17.997-1.674 26.749-3.629l.099.435a160.31 160.31 0 0 1-26.825 3.637zm.081 8.311l-.008-.447a168.54 168.54 0 0 0 20.75-1.686l.064.439a167.74 167.74 0 0 1-20.806 1.694zm.469 2.842l-.004-.447c8.203-.095 16.461-.788 24.549-2.066l.072.439c-8.112 1.282-16.39 1.979-24.617 2.074zm3.162 8.522a184.07 184.07 0 0 1-3.298-.032l.008-.447a178.17 178.17 0 0 0 27.863-1.67l.064.443c-8.132 1.136-16.402 1.706-24.637 1.706zm1.679 2.81a185.04 185.04 0 0 1-4.448-.055l.012-.443a181.23 181.23 0 0 0 24.172-1.025l.047.443a182.32 182.32 0 0 1-19.783 1.081zm5.283 8.854a189.62 189.62 0 0 1-9.5-.237l.024-.443a189.58 189.58 0 0 0 24.457-.356l.036.443a191.59 191.59 0 0 1-15.017.593z" class="B"/><path d="M163.504 95.851c-.918-.606-2.203-.202-2.864.677l-.298.388c-1.528 1.931-3.477 3.832-5.661 4.94-2.435 1.235-4.169 2.509-5.331 5.11-1.189 2.659-1.515 5.608-2.236 8.434-1.201 4.722-4.34 7.504-7.681 10.817-3.083 3.056-24.514 21.425-24.498 21.619-4.746-1.069-20.36 2.786-19.696 13.833.338 5.632 4.794 10.132 10.407 10.944 24.239 3.518 41.882-22.6 51.744-40.863 3.067-5.679 7.097-12.297 4.77-18.907-.664-1.888-1.878-4.884-3.413-5.941 4.057-2.224 8.907-8.312 4.757-11.05z" class="D"/><path d="M98.876 107.356c-4.129-9.214-11.358-11.557-20.488-14.387-7.467-2.315-8.855 16.07-6.341 23.443a235.1 235.1 0 0 0 7.161 18.46c8.231-3.942 17.178-7.678 26.371-10.362-2.24-5.022-3.919-10.944-6.703-17.154z" class="G"/><g class="B"><path d="M70.894 89.617s17.341-1.148 28.663-11.34c0 0-13.888-16.382-26.932-43.253L61.326 59.065l9.567 30.552z"/><path d="M53.405 58.998c.159-1.686 1.874-1.73 3.489-2.351 1.945-.752 3.986-2.236 6.007-2.755l11.771-3.012c4.229-1.081 8.465-2.165 12.531-3.697 1.416-.53 2.88-1.175 3.712-2.414.557-.831.764-1.844.963-2.834 1.297-6.487.08-13.014-3.521-18.896-2.805-4.579-7.026-8.371-11.97-10.425-6.974-2.897-14.922-3.111-22.206-1.935-6.994 1.128-15.403 3.823-19.362 10.125-3.922 6.242-7.797 17.961-8.068 25.347-.521 14.189-4.424 22.098-14.747 32.685 18.55 16.105 55.217 9.662 56.287 6.634.903-2.557-4.006-5.862-5.247-7.496-1.269-1.674 1.158-2.656-.31-4.239-1.297-1.397-2.964-2.256-4.237-3.602-1.611-1.698-2.781-3.994-3.668-6.076-.609-1.425-1.325-3.004-1.424-4.552-.016-.178-.016-.348 0-.507z"/></g><g class="D"><path d="M78.388 92.969l-2.506-1.393c-1.13-.689-2.212-1.587-2.844-2.767-.601-1.12-.545-2.794-.557-4.053l-.171-15.65c-.135-.043-17.209-4.073-17.898-1.742-.784 2.648-2.629 14.803-5.207 16.837-1.257.993-2.88 1.393-4.495 1.294-1.862-.111-3.839-.459-6.23-.562-7.34-.317-7.22 3.954-8.569 8.842-2.248 8.145 6.763 17.708 20.129 21.361 5.872 1.607 12.149 1.951 18.208 1.84 3.23-.059 13.235.321 15.053-3.257.298-.59.346-1.275.386-1.936.203-3.364.406-6.764-.171-10.084-.621-3.559-2.244-7.283-5.128-8.732z"/><path d="M89.475 35.092c-12.639-1.583-23.416-7.619-24.104-8.363-.036 4.188-1.901 9.115-4.551 12.309-2.618 3.155-7.61 6.622-11.389 8.225-.601.253-1.221.491-1.734.895-1.011.803-.664 2.216-.843 3.368-.159 1.021-.489 2.05-.553 3.083-.179 2.905-.465 2.751.143 5.597 1.01 4.718 6.345 11.28 10.387 13.477 4.28 2.327 9.166 3.206 14.059 3.028 33.115-1.195 19.386-41.211 18.586-41.618z"/></g><g class="G"><path d="M23.646 136.82l.107 15.927c1.906-5.062 1.42-10.707-.107-15.927z"/><path d="M23.18 135.324l.465 1.496 3.083 6.792-4.396 28.664h74.431l-1.723-18.749c-.219-2.371.259-4.754 1.416-6.836 2.355-4.223 3.481-9.923 2.594-14.304-1.229-6.083-6.552-10.647-8.573-16.449-1.933-5.546.633-15.215-4.054-18.785-2.232-1.698-4.77-3.008-8.036-4.184-.091 1.128-2.196 6.475-5.43 11.736.056-.091-27.091-17.985-29.613-19.319-2.984-1.579-8.338-1.753-12.193-1.136-8.342 1.334-16.668 9.028-17.985 17.447-.919 5.854.7 11.822 2.956 17.304s5.18 10.702 7.057 16.323z"/></g><g class="B"><path d="M95.041 153.962c-.223 0-.414-.17-.434-.396-.231-2.497.278-4.947 1.472-7.085 2.363-4.235 3.385-9.863 2.55-14.007-.664-3.281-2.602-6.194-4.479-9.012-1.551-2.327-3.155-4.738-4.078-7.382-.08-.225.044-.475.27-.554a.44.44 0 0 1 .557.269c.887 2.541 2.459 4.904 3.978 7.188 1.925 2.885 3.91 5.874 4.611 9.321.891 4.401-.147 10.132-2.641 14.601-1.106 1.983-1.579 4.259-1.365 6.586.024.238-.155.451-.398.471h-.044zm125.312.586c2.611-3.178 4-6.347 3.102-7.078s-3.743 1.254-6.355 4.433-4 6.346-3.102 7.077 3.743-1.254 6.355-4.432z"/><path d="M216.878 158.999c.898-.731-.491-3.899-3.102-7.078s-5.457-5.162-6.355-4.432.491 3.899 3.102 7.078 5.457 5.162 6.355 4.432z"/></g><g class="C"><path d="M225.31 157.956l-2.928 14.324h-14.21l-2.932-14.324"/><path d="M207.427 157.956h-5.196v-3.732h26.085v3.732h-8.628"/></g><path d="M215.217 154.061c-.008-.138-.756-13.888 4.814-24.163l.394.213c-5.51 10.161-4.77 23.792-4.762 23.926l-.446.024z" class="B"/><path d="M231.965 122.564c-.513-.713-2.526-.202-4.937 1.136 1.225-2.458 1.643-4.485.903-4.96-.795-.51-2.677.918-4.559 3.333.239-3.048-.191-5.363-1.122-5.518-1.145-.186-2.617 2.945-3.289 6.998s-.287 7.489.859 7.675c.676.938 3.942-.242 7.296-2.632 3.353-2.395 5.525-5.094 4.849-6.032z" class="C"/><path d="M248.343 172.711H96.445c-.243 0-.438-.194-.438-.435s.195-.436.438-.436h151.898c.243 0 .438.194.438.436s-.195.435-.438.435z" class="B"/><path d="M41.654 26.608c4.157-6.424 2.292-14.985-4.166-19.12s-15.061-2.28-19.218 4.144-2.292 14.985 4.165 19.12 15.061 2.28 19.218-4.144z" fill="#160f41"/><g class="B"><path d="M27.492 33.374c-.998 0-2.001-.111-2.984-.34-4.965-1.164-9.062-5.3-10.192-10.291-.028-.119.048-.238.167-.265s.239.047.267.17c1.094 4.829 5.056 8.83 9.858 9.954 4.734 1.112 9.961-.637 13.005-4.358.04-.047.091-.075.155-.083s.119.012.167.052l.991.839a.22.22 0 0 1 .024.313c-.08.095-.223.103-.314.024l-.816-.693c-2.53 2.968-6.417 4.678-10.327 4.678z"/><path d="M24.787 34.308c-3.684 0-7.371-1.449-9.977-4.085-.087-.087-.084-.229.004-.317s.231-.087.318.004c3.505 3.546 9.03 4.872 13.753 3.301 4.686-1.563 8.263-5.878 8.903-10.734.008-.059.04-.111.088-.15s.107-.052.167-.044l.645.091c.123.016.207.131.191.253s-.131.206-.255.19l-.422-.059c-.74 4.932-4.4 9.282-9.174 10.873a13.37 13.37 0 0 1-4.241.677z"/></g><path d="M42.916 14.004S29.457 18.959 29.438 33.07c0 0 2.148-10.948 13.478-19.066z" class="F"/><path d="M68.132 42.833c-.279 1.009.318 2.054 1.333 2.331a1.91 1.91 0 0 0 2.343-1.326c.279-1.009-.318-2.054-1.333-2.331a1.91 1.91 0 0 0-2.343 1.326zm17.38 3.626c-.278 1.009.318 2.054 1.333 2.331s2.065-.317 2.343-1.33-.318-2.054-1.333-2.331a1.91 1.91 0 0 0-2.343 1.33zm-18.187-8.925a.43.43 0 0 1-.342-.166c-.151-.186-.119-.459.068-.61.04-.032 3.946-3.063 8.04-.245.199.139.247.408.111.606a.44.44 0 0 1-.609.111c-3.537-2.434-6.858.103-6.998.21a.41.41 0 0 1-.27.095zm25.006 5.798c-.159 0-.314-.087-.39-.237-1.953-3.831-6.079-3.186-6.226-3.159-.223.047-.442-.083-.509-.301a.44.44 0 0 1 .294-.542c.048-.016 4.945-.863 7.224 3.61.111.214.024.475-.191.586a.53.53 0 0 1-.203.044zM71.696 77.529c-2.112 0-5.549-.348-8.764-2.224-.207-.123-.278-.388-.155-.594s.39-.277.597-.154c4.849 2.83 10.156 2.003 10.212 1.995.235-.036.462.119.501.356s-.115.459-.35.503c-.02 0-.804.119-2.041.119z" class="B"/><g class="F"><path d="M71.964 53.757a10.13 10.13 0 0 1-2.224-.249c-2.602-.586-4.814-2.145-6.238-4.385a9.83 9.83 0 0 1-1.293-7.489c.589-2.585 2.156-4.789 4.408-6.206s4.929-1.872 7.527-1.286 4.814 2.145 6.238 4.385a9.83 9.83 0 0 1 1.293 7.489c-.589 2.584-2.156 4.789-4.408 6.206-1.611 1.013-3.441 1.536-5.303 1.536zm-.036-18.919a8.99 8.99 0 0 0-4.798 1.389 8.92 8.92 0 0 0-3.99 5.612 8.88 8.88 0 0 0 1.169 6.776 8.97 8.97 0 0 0 5.641 3.97c2.351.53 4.77.119 6.811-1.164a8.92 8.92 0 0 0 3.99-5.613c.533-2.339.119-4.746-1.17-6.776s-3.29-3.44-5.641-3.97c-.668-.15-1.345-.226-2.013-.226zm22.178 23.906a10.15 10.15 0 0 1-2.224-.249c-2.602-.586-4.814-2.145-6.238-4.385a9.81 9.81 0 0 1-1.293-7.488c.589-2.585 2.156-4.789 4.408-6.206s4.929-1.872 7.527-1.286 4.814 2.145 6.238 4.386a9.81 9.81 0 0 1 1.293 7.488c-.589 2.584-2.156 4.789-4.408 6.206a9.9 9.9 0 0 1-5.303 1.536zm-.036-18.915a8.99 8.99 0 0 0-4.798 1.389 8.92 8.92 0 0 0-3.99 5.612c-.533 2.339-.119 4.746 1.17 6.776s3.29 3.44 5.641 3.97 4.77.119 6.811-1.164a8.92 8.92 0 0 0 3.99-5.612c.533-2.339.119-4.746-1.17-6.776a8.96 8.96 0 0 0-5.641-3.97c-.668-.15-1.345-.226-2.013-.226z"/><path d="M84.645 48.216c-.036 0-.072-.004-.103-.012l-3.716-.839c-.255-.059-.418-.313-.358-.566s.31-.416.569-.356l3.716.839c.255.059.418.313.358.566a.48.48 0 0 1-.466.368z"/></g><path d="M83.98 59.62c-.207 0-.39-.142-.43-.352-.048-.237.107-.463.346-.511l3.823-.74-4.217-7.789c-.115-.21-.036-.475.179-.59s.477-.036.593.178l4.499 8.312c.068.123.072.269.012.392s-.175.214-.31.242l-4.408.851-.088.008z" class="B"/><path d="M46.355 45.113c-.215 0-.41-.146-.462-.36a.47.47 0 0 1 .35-.57l16.577-4.025c.255-.059.513.095.573.348a.47.47 0 0 1-.35.57l-16.577 4.025c-.036.008-.076.012-.111.012z" class="F"/><path d="M38.766 56.833c-.863-.974-1.556-2.062-1.989-3.119-1.404-3.436-.553-8.842 2.558-11.177 4.28-3.214 10.483.036 11.759 4.845.012-.356-.29 10.588-3.58 12.202-3.107 1.524-6.508-.233-8.748-2.751z" class="D"/><path d="M44.812 60.632c-2.104 0-4.412-.799-6.15-2.015-.199-.139-.247-.412-.107-.606s.414-.245.609-.107c2.626 1.837 6.632 2.668 8.788.887a.44.44 0 0 1 .617.055c.155.186.127.459-.056.614-.991.819-2.299 1.171-3.7 1.171z" class="B"/><path d="M23.684 174.278c-3.381 2.557-7.873 3.578-12.288 2.387-7.555-2.039-12.014-9.78-9.965-17.293l11.091-55.689c2.049-7.512 9.83-11.949 17.381-9.906s12.01 9.78 9.961 17.292l-11.087 55.689a14.04 14.04 0 0 1-5.092 7.52z" class="D"/><path d="M39.867 111.069c2.049-7.512-2.411-15.254-9.961-17.293s-15.332 2.399-17.381 9.907l-5.442 27.326c9.46.578 18.908 1.425 28.316 2.51l4.467-22.45z" class="G"/><g class="B"><path d="M104.307 156.59l1.798 3.447c.024.044-.02.091-.068.071l-3.612-1.472a11.5 11.5 0 0 1-3.374-2.125l-22.019-20.028c-.855-.776-.911-2.094-.131-2.945s2.104-.906 2.96-.13l22.019 20.027a11.55 11.55 0 0 1 2.427 3.155z"/><path d="M106.057 160.278c-.028 0-.056-.003-.084-.015l-3.612-1.473c-1.261-.514-2.415-1.239-3.421-2.157l-22.019-20.027c-.919-.835-.983-2.26-.143-3.175a2.27 2.27 0 0 1 3.19-.142l22.019 20.027a11.53 11.53 0 0 1 2.467 3.198l1.798 3.448a.21.21 0 0 1-.032.245c-.048.048-.104.071-.163.071zm-.1-.166h0zm-27.513-27.084c-.525 0-1.046.21-1.424.625a1.91 1.91 0 0 0 .123 2.711l22.019 20.028a11.17 11.17 0 0 0 3.325 2.094l3.334 1.357-1.659-3.182c-.608-1.172-1.416-2.217-2.395-3.107l-22.019-20.028a1.96 1.96 0 0 0-1.305-.498z"/><path d="M85.768 150.487c-.1 0-.199-.036-.279-.107a.41.41 0 0 1-.028-.578c.302-.328.462-.76.438-1.207s-.215-.859-.545-1.164l-7.71-7.009c-1.018-.927-1.09-2.506-.159-3.519.151-.166.414-.178.581-.028a.41.41 0 0 1 .028.578c-.625.681-.577 1.746.107 2.367l7.71 7.01c1.018.926 1.09 2.505.159 3.518a.4.4 0 0 1-.302.139z"/></g><path d="M88.593 147.411c-.1 0-.199-.036-.278-.107a.41.41 0 0 1-.028-.578l2.824-3.075c.151-.166.414-.178.581-.028a.41.41 0 0 1 .028.578l-2.825 3.076c-.08.091-.191.134-.302.134zm-10.802-9.823a.42.42 0 0 1-.278-.107.41.41 0 0 1-.028-.578l2.824-3.075c.151-.167.414-.179.581-.028a.41.41 0 0 1 .028.578l-2.824 3.075a.4.4 0 0 1-.302.135zm12.778 11.624c-.099 0-.199-.036-.278-.107a.41.41 0 0 1-.028-.578l2.825-3.075c.151-.166.414-.178.581-.028a.41.41 0 0 1 .028.578l-2.825 3.075c-.08.087-.191.135-.302.135zm8.824 8.023a.42.42 0 0 1-.279-.107.41.41 0 0 1-.028-.578l2.825-3.075c.151-.166.414-.178.581-.028a.41.41 0 0 1 .027.578l-2.824 3.075a.42.42 0 0 1-.302.135z" class="E"/><path d="M106.885 148.334c-1.456-.638-3.235-.923-4.579-1.164-2.638-.471-5.327-.57-8-.641-3.127-.083-5.82.233-8.589 1.919l-2.252 1.398c-4.32 2.738-8.406 6.522-13.323 8.466-3.859 1.524-7.992 1.302-12.066 1.377-4.678-.123-9.309-.317-13.733-1.029-4.428-.649-8.724-1.587-12.571-2.98-1.906-.709-3.751-1.461-5.343-2.336-.823-.419-1.532-.874-2.204-1.31-.267-.217-.617-.443-.812-.629-.099-.107-.68-.582.091-.123-6.297-4.615-14.051-2.885-18.693 3.38s-4.408 14.696 1.89 19.315c1.798 1.172 1.683 1.485 2.681 1.979.899.42 1.762.697 2.614 1.045 1.619.586 3.775.958 5.323 1.358 3.119.855 6.134 1.365 9.114 1.769 5.955.76 11.696.74 17.285.372 5.605-.312 11.004-1.227 16.314-2.228 2.252-.424 4.543-.978 6.755-1.575 3.795-1.022 6.142-2.272 9.082-2.067 2.108.147 3.421.4 5.585.388 3.477-.019 9.182-1.816 12.289-3.368.454-.225.935-.463 1.44-.415 1.106.098.772 1.23 1.257 1.876.422.558 1.221.684 1.909.577.823-.126 1.587-.522 2.268-1.001 1.782-1.255 4.233-3.629 2.232-5.747-.681-.72-1.381-1.338-2.089-1.904.135-.146.283-.281.39-.459l.096-.17a2.91 2.91 0 0 0-.752-3.582c-.577-.471-1.154-.887-1.727-1.27.298-.222.573-.487.772-.82l.096-.17c1.253-2.446-1.404-4.825-3.521-5.51-.664-.213-1.349-.379-2.001-.633-.7-.273-1.018-.582-.131-.787 1.289-.301 2.685-.305 3.998-.25 2.562.107 5.168.752 7.734 1.172 1.002.162 2.379.285 3.274-1.152.927-1.476-1.042-2.608-2.104-3.071z" class="D"/><g class="B"><path d="M97.897 174.163c-.768 0-1.42-.281-1.806-.787-.306-.408-.342-.812-.354-1.196-.008-.241.183-.443.422-.447a.43.43 0 0 1 .45.42c.012.324.04.51.183.7.318.424.983.491 1.492.408.664-.103 1.345-.404 2.08-.926 1.313-.922 2.765-2.391 2.9-3.749.06-.593-.135-1.12-.596-1.606-.653-.693-1.333-1.192-2.264-1.671-.123-.063-.207-.178-.231-.312s.016-.27.112-.372c.127-.135.278-.198.402-.254.031-.016.079-.031.103-.047l.064-.119c.294-.574 1.006-2.592-2.288-4.267-.135-.067-.223-.202-.239-.352s.052-.297.175-.384c.294-.218.509-.447.656-.693l.084-.146c.382-.744.445-1.457.183-2.118-.41-1.04-1.611-1.971-3.385-2.628l-2.093-.791c-.462-.178-.983-.444-.951-.918.036-.503.648-.646.879-.701 1.388-.325 2.86-.317 4.117-.261 1.854.079 3.736.431 5.558.776l2.228.399c.982.163 2.092.234 2.832-.95.171-.273.215-.534.135-.791-.171-.55-.935-1.172-2.044-1.659-1.309-.574-2.909-.855-4.197-1.08l-.283-.052c-2.594-.463-5.235-.562-7.936-.637-3.051-.083-5.633.202-8.35 1.856l-2.244 1.394c-.203.13-.473.071-.605-.135s-.072-.471.135-.602l2.26-1.401c3.071-1.868 6.059-2.054 8.828-1.983 2.737.072 5.41.178 8.063.649l.283.052c1.332.233 2.991.526 4.396 1.144.799.348 2.188 1.1 2.53 2.196.155.499.075 1.022-.227 1.508-1.11 1.782-2.936 1.481-3.716 1.35l-2.247-.404-5.434-.759c-1.138-.048-2.459-.06-3.692.197h.004l2.077.784c2.013.744 3.397 1.852 3.899 3.127.354.902.278 1.856-.223 2.834l-.107.194c-.107.182-.239.352-.394.514 2.665 1.587 2.868 3.661 2.112 5.134l-.107.194c-.02.035-.044.063-.068.095.708.423 1.285.89 1.846 1.488.637.673.915 1.441.828 2.292-.211 2.07-2.554 3.871-3.266 4.369-.852.598-1.651.95-2.451 1.073a2.59 2.59 0 0 1-.517.051z"/><path d="M90.966 151.06l-.004.012c-.115.285.024.61.314.725l6.174 2.45c.287.114.609-.024.728-.305a.56.56 0 0 0-.31-.74l-6.174-2.45a.56.56 0 0 0-.728.308zm1.636 5.764l-.004.012c-.115.281.02.601.302.72l5.697 2.402c.298.127.644-.023.748-.332.099-.289-.036-.594-.306-.709l-5.693-2.402a.57.57 0 0 0-.744.309zm8.768 8.303l-.004.012a.56.56 0 0 1-.728.309l-6.524-2.589c-.286-.114-.43-.439-.314-.724l.004-.012a.56.56 0 0 1 .728-.308l6.524 2.588c.29.115.43.439.314.724zm-5.093 7.378a.44.44 0 0 1-.529-.424 4.16 4.16 0 0 1 .74-2.477c.151-.214.462-.246.656-.071.167.15.191.395.064.577a3.28 3.28 0 0 0-.577 1.956c.004.213-.147.395-.354.439z"/></g><path d="M75.194 61.187l9.854 2.719a.18.18 0 0 1 .091.293c-.927 1.116-5.43 5.751-10.16-2.743-.076-.146.056-.313.215-.269z" fill="#160f41"/><path d="M89.161 174.27a.55.55 0 0 1-.517-.368c-.099-.285.052-.594.338-.693 4.642-1.595 6.636-2.83 6.655-2.841.255-.159.593-.084.756.17s.088.59-.167.752c-.084.051-2.097 1.306-6.882 2.952a.6.6 0 0 1-.183.028zm-53.765-40.316c-.028 0-.056-.004-.084-.008a.44.44 0 0 1-.346-.51l4.471-22.45c.048-.238.278-.388.513-.341a.44.44 0 0 1 .346.511l-4.471 22.45a.44.44 0 0 1-.43.348zm156.911-70.4l-2.176-1.472.493-.72 1.452.982 2.634-3.851.724.491-3.127 4.572zm1.472 12.566l-2.176-1.476.489-.716 1.456.981 2.633-3.851.72.487-3.122 4.575zm1.67 14.364l-2.177-1.472.49-.72 1.456.982 2.633-3.851.72.491-3.122 4.571z" class="B"/><path d="M153.781 202.926l-37.975 14.11-23.718-28.557 35.823-11.743 25.87 26.19z" class="C"/><path d="M115.734 217.301l-.099-.122-23.929-28.81 36.269-11.89.099.099 26.113 26.435-.322.119-38.131 14.169zm-23.268-28.715l23.411 28.185 37.502-13.936-25.531-25.846-35.382 11.597z" class="B"/><path d="M158.241 210.245l-41.301 17.502-34.817-26.526 37.506-15.452 38.612 24.476z" class="C"/><path d="M116.908 228l-.103-.079-35.127-26.76.358-.146 37.617-15.5.1.063 38.97 24.706L116.908 228zm-34.339-26.72l34.407 26.21 40.788-17.285-38.155-24.187-37.04 15.262zm64.641 6.554l-27.113 11.801.18.41 27.113-11.801-.18-.41zm-4.182-2.102l-21.326 9.282.18.41 21.326-9.282-.18-.41zm-4.769-2.473l-14.525 6.322.181.409 14.524-6.321-.18-.41zm-3.735-2.598l-27.114 11.801.18.41 27.114-11.801-.18-.41zm-3.664-2.352l-19.718 8.582.18.41 19.718-8.582-.18-.41z" class="B"/><path d="M31.323 203.136l-.155-4.282 4.607-.238 6.182 2.616 6.703-1.405 2.614.218 4.754-1.682 5.132 2.303.227 4.584-17.285 3.621-12.778-5.735z" class="E"/><path d="M56.016 198.604l4.925 2.213.207 4.255-17.022 3.57-12.587-5.652-.139-3.927 4.332-.221 6.071 2.569.131.055.139-.028 6.6-1.385 2.534.21.095.008.092-.032 4.623-1.635zm.02-.483l-4.794 1.694-2.598-.213-6.663 1.397-6.166-2.612-4.877.249.167 4.639 12.973 5.826 17.54-3.677-.239-4.908-5.343-2.395z" class="B"/><path d="M31.652 198.743c2.236-.503 4.925-1.413 8.788-2.973a51.56 51.56 0 0 0 7.34-3.669c1.488 1.203 3.099 2.252 4.798 3.119 2.319 1.18 4.79 2.027 7.364 2.513l-16.108 6.222-12.181-5.212z" class="C"/><path d="M47.76 192.374a27.5 27.5 0 0 0 4.718 3.044 27.71 27.71 0 0 0 6.675 2.383l-15.312 5.913-11.481-4.912c2.12-.53 4.662-1.413 8.163-2.826a51.5 51.5 0 0 0 7.236-3.602zm.04-.542a51.69 51.69 0 0 1-7.443 3.732c-3.533 1.425-6.727 2.577-9.44 3.107l12.921 5.53 16.939-6.543a27.42 27.42 0 0 1-8.092-2.632c-2.017-1.029-3.636-2.173-4.885-3.194zm133.284-13.081l-.724.15v.261l-15.893-2.133a1.44 1.44 0 0 0-1.233.435l-13.518 14.392.02-.123-.64.131v.886.004c.02.214.179.412.425.443l16.187 2.173a1.44 1.44 0 0 0 1.234-.435l14.011-14.914c.083-.091.123-.198.127-.305h.004v-.965z" class="B"/><path d="M149.232 191.511l14.011-14.913a1.42 1.42 0 0 1 1.233-.436l16.187 2.173a.49.49 0 0 1 .295.82l-14.012 14.913a1.42 1.42 0 0 1-1.233.436l-16.187-2.173a.49.49 0 0 1-.294-.82z" class="E"/><path d="M164.01 182.206l3.743-3.986 10.005 1.342-3.743 3.986-10.005-1.342zm7.783 2.472l-6.672 7.101.297.276 6.672-7.102-.297-.275zm-3.345-.451l-6.673 7.101.297.275 6.672-7.101-.296-.275zm-3.347-.449l-6.672 7.102.296.275 6.672-7.101-.296-.276z" class="C"/><g class="B"><path d="M61.036 200.573l-17.237 3.189.08.428 17.237-3.189-.08-.428zm.001 1.481l-17.162 3.305.083.427 17.162-3.304-.083-.428z"/><path d="M61.036 200.573l-17.237 3.189.08.428 17.237-3.189-.08-.428zm.154 2.959l-17.286 3.457.086.427 17.286-3.457-.086-.427z"/><path d="M44.059 203.951l-.437.021.233 4.965.437-.02-.233-4.966z"/></g></svg>