<svg xmlns="http://www.w3.org/2000/svg" width="248" height="289" fill="none" xmlns:v="https://vecta.io/nano"><style><![CDATA[.B{fill:#0b2344}.C{fill:#160f41}.D{fill:#fff}.E{fill:#afb9c3}.F{opacity:.2}.G{fill:#f2a299}.H{fill:#c91e70}.I{fill:#160e41}]]></style><path d="M151.435 77.031l-9.418 1.585.076.453 9.418-1.585-.076-.453z" class="I"/><path d="M210.352 119.178a3.03 3.03 0 0 0 3.829-1.912l3.182-7.896c.867-2.154 3.384-6.926.309-8.286-1.609-.711-3.006.724-3.942 1.894-1.27 1.587-2.281 3.367-2.961 5.283l-2.328 7.088c-.239 1.77.603 3.393 1.911 3.829z" class="G"/><g class="C"><path d="M125.375 148.002c-.048-.048-4.867-4.778-11.689-9.236-7.572-4.949-14.518-7.551-19.557-7.325-2.273.103-5.019.704-8.14 4.391-3.026 3.575-7.342 5.415-11.685 5.415-3.491 0-7.001-1.188-9.875-3.621-6.45-5.458-7.253-15.112-1.796-21.56 7.993-9.445 18.452-14.7 30.244-15.197 11.89-.502 24.738 3.774 38.193 12.707 9.073 6.023 15.219 12.067 15.89 12.737l-21.613 21.659.029.03z"/><path d="M167.845 227.414c-5.258 0-12.585-1.92-19.221-10.43-3.42-4.386-6.576-10.434-9.651-18.488-5.249-13.757-10.537-33.879-16.645-63.324a15.3 15.3 0 0 1 11.874-18.086c8.273-1.714 16.371 3.6 18.086 11.874 4.606 22.211 8.717 38.848 12.569 50.861 3.482 10.86 6.028 15.607 7.301 17.535 6.249 1.715 10.952 7.308 11.232 14.129a15.3 15.3 0 0 1-14.659 15.912c-.288.011-.585.017-.886.017zm-.355-30.591z"/><path d="M169.047 227.211c-1.882.052-3.788-.276-5.618-.998-7.857-3.105-11.71-11.994-8.604-19.851l21.935-55.492c3.106-7.857 11.994-11.709 19.852-8.604 9.534 3.768 10.755 14.205 8.93 23.107-2.479 12.09-6.594 24.199-11.823 35.368-4.041 8.633-8.699 17.419-16.33 23.427-2.446 1.925-5.364 2.96-8.342 3.043z"/><path d="M164.303 270.259H54.621l4.695-133.254c-.225-6.476 4.769-12.124 11.734-13.271l34.291-8.775 34.29 8.775c6.964 1.147 11.957 6.795 11.734 13.271 3.225 16.689 6.063 34.578 8.254 53.572a713.52 713.52 0 0 1 4.684 79.682z"/><path d="M123.909 135.879h-3.126c-8.449 0-15.299-6.849-15.299-15.298s6.85-15.299 15.299-15.299h3.126a15.3 15.3 0 0 1 15.298 15.299c0 8.449-6.851 15.298-15.298 15.298z"/></g><path d="M86.515 119.225c5.527 20.691 6.551 45.063 6.699 73.226.159 30.065.028 56.372-3.906 77.808h46.843c1.158-22.498.324-55.074-2.029-83.744-2.282-27.82-6.586-45.844-10.028-66.757l-18.754-4.801-18.825 4.268z" fill="#9fdcee"/><path d="M136.924 52.345s-10.377-16.092-31.133-5.968c0 0-15.312 5.442-12.451 34.247 0 0 1.372 21.351 1.635 36.895.096 5.739 4.709 10.376 10.446 10.515l.217.005c6.063.147 11.04-4.77 10.963-10.835l-.17-6.491s20.754 5.393 26.198-16.345c3.893-23.351-5.705-42.023-5.705-42.023z" class="G"/><g class="I"><path d="M135.007 89.813h-4.493v-.459h3.835l-2.564-7.011.431-.158 2.791 7.628zm-15.864-24.854l-7.72 3.239c-.436.183-.936-.022-1.121-.458a.86.86 0 0 1 .335-1.057l7.092-4.447a1.54 1.54 0 0 1 2.122.485 1.54 1.54 0 0 1-.485 2.122c-.07.044-.15.084-.223.116zm14.164 1.215l8.18-1.785c.461-.101.917.193 1.018.655.09.416-.137.826-.521.978l-7.783 3.087c-.79.314-1.685-.075-2-.864a1.54 1.54 0 0 1 .864-1.998 1.72 1.72 0 0 1 .242-.072zm-1.753 32.619c-6.302 0-9.371-4.619-9.403-4.668l.386-.249c.032.05 3.344 5.013 10.16 4.407l.041.457c-.407.035-.802.052-1.184.052z"/><path d="M141.621 89.574c-5.676 0-10.293-4.617-10.293-10.293a10.31 10.31 0 0 1 10.293-10.294 10.31 10.31 0 0 1 10.293 10.294 10.31 10.31 0 0 1-10.293 10.293zm0-20.127a9.85 9.85 0 0 0-9.834 9.835 9.85 9.85 0 0 0 9.834 9.834 9.85 9.85 0 0 0 9.834-9.834 9.85 9.85 0 0 0-9.834-9.835zm-24.718 20.127c-5.676 0-10.293-4.617-10.293-10.293a10.31 10.31 0 0 1 10.293-10.294 10.31 10.31 0 0 1 10.293 10.294c0 5.676-4.617 10.293-10.293 10.293zm0-20.127a9.85 9.85 0 0 0-9.834 9.835 9.85 9.85 0 0 0 9.834 9.834c5.424 0 9.834-4.411 9.834-9.834s-4.41-9.835-9.834-9.835z"/><path d="M131.555 77.023h-4.589v.459h4.589v-.459zm-24.796.686l-10.908 4.254.167.428 10.909-4.254-.167-.428zm9.999 33.491c-.257-.039-6.353-1.022-12.994-9.202l.356-.29c6.517 8.029 12.644 9.03 12.706 9.039l-.068.453z"/></g><path d="M96.199 38.127s-16.171-1.899-18.384 10.267 7.215 39.93 16.602 52.452c0 0-.199-13.939-1.903-23.933s4.559-27.184 9.889-29.928-6.203-8.858-6.203-8.858z" class="C"/><path d="M95.533 81.636s-9.326-4.149-11.156 3.514c0 0-3.632 10.756 12.713 9.719l-1.557-13.233z" class="G"/><g class="C"><path d="M149.859 36.924c0-10.476-8.494-18.967-18.969-18.967-8.278 0-15.317 5.304-17.906 12.699-1.366-.482-2.836-.748-4.367-.748-7.249 0-13.124 5.875-13.124 13.123 0 1.484.246 2.91.701 4.239l-9.198 8.884-.482 24.962c6.641-2.65 10.724 2.948 10.724 2.948-6.62-22.841 6.704-28.772 6.704-28.772v-.005l.437.162c14.793 5.552 32.357-.48 32.357-.48 7.614-2.463 13.122-9.611 13.122-18.046z"/><path d="M96.605 38.886c-.072 0-.144-.034-.188-.098-2.039-2.898-5.529-3.971-9.334-2.871a.23.23 0 0 1-.285-.156.23.23 0 0 1 .156-.285c4.002-1.157 7.678-.017 9.837 3.049a.23.23 0 0 1-.187.361z"/><path d="M96.627 38.886c-.106 0-.2-.072-.223-.179-.751-3.358-.335-7.111 1.143-10.296a.23.23 0 0 1 .304-.112.23.23 0 0 1 .112.305c-1.437 3.095-1.842 6.74-1.111 10.002a.23.23 0 0 1-.174.274.19.19 0 0 1-.05.006z"/></g><path d="M113.854 79.081a2.03 2.03 0 0 0 1.818 2.22 2.03 2.03 0 0 0 2.22-1.817 2.03 2.03 0 0 0-1.819-2.22 2.03 2.03 0 0 0-2.219 1.817zm18.25 0a2.03 2.03 0 0 0 1.819 2.22c1.113.112 2.106-.701 2.218-1.817a2.03 2.03 0 0 0-1.817-2.22 2.03 2.03 0 0 0-2.22 1.817z" class="I"/><path d="M133.18 109.046c-7.71 3.757-16.746 1.86-16.747 1.86.485.101.081 8.286.084 8.891.02 4.047.402 7.7 5.74 9.485 8.913 2.982 16.948-3.379 16.948-10.401.001-4.011-2.362-7.576-6.025-9.835zm-57.72-.632c9.071 3.835 18.761 1.898 19.233 1.898l.369 9.075c-.023 4.129-.474 7.859-6.753 9.681-10.486 3.043-19.939-3.45-19.939-10.615 0-4.094 2.78-7.734 7.089-10.039z" class="C"/><path d="M195.517 156.535a11.45 11.45 0 0 1-3.973-.713c-5.945-2.195-8.985-8.793-6.789-14.738l4.142-11.22a11.48 11.48 0 0 1 14.739-6.79 11.48 11.48 0 0 1 6.79 14.739l-4.143 11.22c-1.712 4.632-6.1 7.502-10.766 7.502z" class="G"/><path d="M64.381 267.458c-4.218 0-8.436-1.599-11.668-4.802-10.704-10.607-18.738-22.16-23.878-34.338a87.58 87.58 0 0 1-6.943-34.776c.067-11.136 2.212-22.587 6.378-34.033 3.225-8.864 7.668-17.752 13.204-26.419a155.82 155.82 0 0 1 6.681-9.627c6.126-8.159 18.094-8.908 25.188-1.576l10.42 10.772.035-.034c-.286.28-23.652 28.429-23.751 61.287-.049 16.357 1.822 31.14 16.004 45.192 6.504 6.444 6.551 16.94.107 23.445-3.242 3.27-7.509 4.909-11.777 4.909z" class="C"/><path d="M70.948 265.683l-.246-.387c.029-.018 2.931-1.898 5.982-6.674 2.818-4.411 6.34-12.264 7.123-24.625l.457.029c-.791 12.478-4.359 20.413-7.212 24.871-3.104 4.85-5.983 6.71-6.104 6.786zm-10.673-71.771l-.459-.001c.038-12.47 3.378-25.659 9.929-39.201l.413.2c-6.52 13.48-9.846 26.601-9.883 39.002zm88.069 23.535c-.002-.137-.121-13.901-1.887-31.219-1.629-15.973-5.03-38.321-11.989-54.071l.419-.185c6.984 15.806 10.395 38.206 12.028 54.214 1.767 17.338 1.886 31.121 1.888 31.258l-.459.003z" fill="#d2006e"/><path d="M190.664 99.542l8.309-4.118c1.833-.899 3.719-.531 4.973.962.239.284.432.618.599.953l3.475 7.001 2.445 5.022 9.45 18.958 5.63 11.353c1.086 2.206.34 4.456-1.853 5.553l-9.984 4.94-6.631 3.306c-1.826.898-3.703.534-4.973-.968-.281-.332-.491-.735-.685-1.129l-3.07-6.265-2.388-4.73-8.912-17.961-6.505-13.103c-.733-1.47-.739-2.893.178-4.28.426-.646 1.038-1.077 1.722-1.417l8.22-4.077zm32.546 38.48l-18.947-38.191-21.591 10.712 18.947 38.191 21.591-10.712z" class="C"/><path d="M223.21 138.022l-21.591 10.712-18.947-38.191 21.591-10.712 18.947 38.191z" class="D"/><path d="M191.987 102.149l1.58-.77c.017-.007.037-.012.056-.015.252-.041.439.248.312.471a.23.23 0 0 1-.088.094l-3.192 1.586c-.037.017-.081.02-.129.015-.258-.03-.384-.365-.188-.537.011-.01.023-.018.037-.026l1.612-.818zm21.859 46.045c-.699 0-1.352-.396-1.689-1.095-.448-.93-.051-2.056.886-2.508.953-.46 2.065-.061 2.533.906.217.451.248.958.083 1.427a1.87 1.87 0 0 1-.972 1.076c-.277.131-.563.194-.841.194zm.02-3.486c-.231 0-.465.052-.689.159-.784.379-1.118 1.32-.743 2.099a1.56 1.56 0 0 0 2.123.757c.386-.184.675-.503.814-.901a1.54 1.54 0 0 0-.069-1.193c-.284-.583-.846-.921-1.436-.921z" fill="#9fdcee"/><mask id="A" maskUnits="userSpaceOnUse" x="182" y="99" width="42" height="50"><path d="M204.258 99.832l-21.591 10.711 19.068 38.437 21.592-10.712-19.069-38.436z" class="D"/></mask><g mask="url(#A)"><path d="M203.223 97.803l-21.57 10.701 24.144 48.666 21.569-10.7-24.143-48.667z" fill="#e6ebed"/><path d="M187.544 114.507a.32.32 0 0 1-.164.037c-.053-.003-.102-.022-.147-.055a.39.39 0 0 1-.108-.138.38.38 0 0 1-.043-.17c0-.055.015-.105.046-.148s.073-.081.128-.109c.039-.018.077-.03.117-.035s.076-.003.11.008l.003.093c-.035-.008-.069-.009-.098-.006a.22.22 0 0 0-.087.026c-.055.027-.089.066-.101.116s-.002.109.032.175.073.111.121.131.099.017.153-.011c.029-.013.053-.032.073-.053a.35.35 0 0 0 .054-.083l.072.058a.23.23 0 0 1-.062.092.4.4 0 0 1-.099.072zm.522-.26c-.078.038-.147.048-.207.028s-.11-.069-.148-.147l-.168-.338.1-.051.172.344c.024.049.053.08.09.094s.075.009.119-.014.072-.051.083-.087.005-.08-.02-.127l-.171-.344.101-.051.168.338c.038.077.047.145.028.207s-.069.11-.147.148zm.072-.751l.379-.188.041.082-.278.138.078.156.263-.13.04.081-.263.13.082.165.279-.137.041.082-.379.189-.283-.568zm.953-.473l.281.568-.078.038-.5-.245.196.396-.097.048-.281-.568.078-.038.5.245-.196-.395.097-.049zm.298-.043l-.185.092-.043-.086.474-.235.043.086-.185.091.239.482-.104.052-.239-.482zm.84.02l-.277.138.009.161-.104.052-.024-.695.084-.041.538.44-.102.051-.124-.106zm-.073-.064l-.224-.19.015.294.209-.104zm.55.002c-.043.021-.087.035-.131.042s-.084.006-.121-.001l-.003-.093a.36.36 0 0 0 .108.003.36.36 0 0 0 .106-.036c.04-.019.066-.041.08-.064s.015-.049.003-.073-.029-.034-.054-.034-.063.003-.113.017a.58.58 0 0 1-.133.021c-.037.002-.068-.004-.092-.018s-.046-.037-.063-.069-.021-.067-.017-.102.022-.069.048-.1.061-.058.104-.079.081-.033.122-.039a.28.28 0 0 1 .113.005l.004.093c-.071-.015-.137-.007-.198.023-.037.019-.061.04-.076.066s-.014.05-.002.076.029.034.054.037.062-.003.111-.014a.85.85 0 0 1 .135-.021c.037-.002.067.003.093.015s.048.034.063.066.023.069.017.103-.022.065-.049.098-.063.055-.109.078z" class="E"/><path d="M187.074 115.806l18.695-9.274c.318-.157.702-.027.861.289l2.911 5.867c.158.319.028.703-.289.862l-18.695 9.274c-.318.157-.703.027-.861-.29l-2.911-5.866a.64.64 0 0 1 .289-.862z" class="D"/><g class="F"><path d="M208.079 109.757l-18.694 9.274.028.058 18.695-9.274-.029-.058z" fill="#969595"/></g><path d="M189.253 117.305l-.155-.131-.338.168.011.202-.078.038-.037-.791.066-.032.607.508-.076.038zm-.497-.038l.284-.142-.307-.262.023.404zm.656-.613c.107-.054.19-.022.249.097l.14.282-.075.037-.138-.277c-.021-.042-.044-.068-.07-.078s-.057-.008-.092.009c-.042.02-.068.049-.08.087s-.007.078.014.121l.127.257-.075.037-.321-.649.075-.037.134.273c.002-.034.011-.065.031-.092s.047-.051.081-.067zm.714.226c-.042.021-.084.031-.127.027s-.079-.018-.114-.044-.065-.064-.087-.11a.32.32 0 0 1-.036-.135c0-.043.011-.084.034-.119s.055-.063.098-.084.084-.031.127-.028a.21.21 0 0 1 .115.045c.034.026.064.062.087.108s.035.092.035.136-.011.083-.034.118a.23.23 0 0 1-.098.086zm-.03-.061c.044-.022.07-.054.079-.094s0-.09-.027-.145-.06-.09-.098-.109-.08-.016-.124.005-.07.054-.08.095 0 .089.026.144.06.092.098.11.081.015.126-.006zm.41-.627l-.046.029c-.044.027-.07.058-.08.093s-.003.07.016.105l.127.256-.075.037-.222-.449.073-.036.039.078c0-.065.033-.118.105-.161l.026-.015.037.063zm.324-.161l-.046.029c-.044.027-.07.058-.079.093s-.003.071.015.106l.127.255-.075.037-.222-.448.074-.037.038.078c0-.064.034-.118.105-.161l.026-.015.037.063zm.447.278c-.043.022-.084.031-.127.028a.22.22 0 0 1-.115-.045c-.035-.027-.064-.064-.087-.11a.3.3 0 0 1-.035-.134c0-.045.011-.084.033-.12s.056-.062.098-.084.084-.03.127-.027a.21.21 0 0 1 .115.044.3.3 0 0 1 .087.109c.023.046.035.091.035.136s-.01.082-.033.118-.055.064-.098.085zm-.031-.061c.045-.021.071-.053.08-.093s0-.09-.028-.146-.059-.09-.098-.108-.079-.017-.124.004-.07.054-.079.095 0 .089.026.144.06.092.098.11.081.016.125-.006zm.507-.176c-.075.037-.146.048-.208.031l-.003-.068c.033.008.064.01.093.005s.06-.014.09-.031a.16.16 0 0 0 .067-.053c.013-.02.013-.041.002-.063s-.021-.029-.038-.033-.04-.004-.071.004l-.084.02c-.043.011-.078.011-.108-.002s-.054-.032-.069-.062c-.02-.04-.02-.08-.002-.12s.055-.073.107-.099c.031-.015.065-.024.097-.029s.064-.002.092.008l.001.067c-.058-.015-.112-.009-.161.015-.03.015-.053.034-.064.055s-.012.042-.001.063.021.029.036.035a.13.13 0 0 0 .065-.001l.085-.02c.046-.011.086-.011.115-.002a.11.11 0 0 1 .069.063c.02.04.018.078-.002.118s-.053.073-.108.099zm.416-.48l-.031-.061.257-.129.031.061-.257.129zm.867-.58c.043-.008.083-.003.117.014s.059.044.079.085c.028.057.031.111.008.163s-.066.093-.132.125a.36.36 0 0 1-.131.038c-.046.005-.088.002-.127-.01v-.072c.084.02.159.013.224-.019.046-.023.077-.05.091-.082s.01-.069-.009-.109c-.04-.079-.109-.093-.208-.044l-.075.036-.033-.064.06-.029c.048-.024.08-.052.095-.086s.012-.071-.008-.111c-.017-.035-.041-.057-.07-.064s-.064-.004-.104.015a.31.31 0 0 0-.147.165l-.057-.044c.014-.039.037-.074.068-.107a.37.37 0 0 1 .108-.08c.06-.029.114-.037.163-.024s.087.042.111.093c.019.037.026.075.022.112s-.017.071-.045.099zm.817-.069l.032.064-.417.207-.029-.057.102-.362a.47.47 0 0 0 .02-.126c0-.035-.006-.065-.02-.093-.018-.035-.041-.058-.072-.066s-.064-.003-.102.016a.31.31 0 0 0-.147.165l-.057-.045a.33.33 0 0 1 .068-.105.38.38 0 0 1 .107-.081c.059-.029.114-.037.163-.025s.089.046.115.098c.018.037.028.078.028.121a.56.56 0 0 1-.026.156l-.086.291.321-.158zm.552-.274l.033.065-.418.206-.029-.057.102-.362a.47.47 0 0 0 .02-.126c0-.035-.006-.065-.02-.093-.018-.035-.041-.058-.072-.066s-.064-.003-.102.016a.31.31 0 0 0-.147.165l-.057-.044c.014-.037.037-.072.068-.106a.38.38 0 0 1 .107-.081c.06-.029.115-.037.164-.025s.088.046.114.098c.019.037.028.078.028.121a.56.56 0 0 1-.026.156l-.086.291.321-.158zm.288-.477a.18.18 0 0 1 .116.014c.034.017.06.044.08.085.027.057.03.111.008.163s-.066.093-.132.125a.36.36 0 0 1-.132.038c-.045.005-.087.002-.127-.01v-.072c.085.02.16.013.225-.019.046-.023.077-.05.091-.082s.01-.069-.01-.109c-.039-.079-.108-.093-.208-.044l-.075.036-.032-.064.06-.029c.047-.024.079-.052.095-.086s.012-.071-.008-.111-.041-.057-.07-.064-.064-.004-.104.015a.31.31 0 0 0-.147.165l-.057-.044c.014-.039.037-.074.068-.107a.37.37 0 0 1 .108-.08.23.23 0 0 1 .162-.024c.049.012.088.042.112.093.018.037.026.075.021.112s-.018.07-.044.099zm-3.971 6.623c-.061.03-.121.044-.181.04a.31.31 0 0 1-.162-.063.46.46 0 0 1-.124-.159.47.47 0 0 1-.052-.195c0-.061.015-.117.049-.166a.33.33 0 0 1 .141-.12c.044-.023.089-.035.133-.039a.3.3 0 0 1 .127.012v.072c-.044-.011-.084-.016-.121-.011s-.072.014-.109.032a.23.23 0 0 0-.131.152c-.015.065-.003.14.04.225s.094.142.156.169.128.022.2-.013c.037-.019.066-.04.09-.068s.046-.061.065-.102l.056.044c-.014.041-.037.078-.067.11a.38.38 0 0 1-.11.08zm.511-.254c-.043.021-.084.03-.127.027s-.08-.018-.115-.044-.064-.064-.087-.11-.035-.092-.035-.135.01-.084.033-.119.055-.063.098-.084.084-.031.127-.028a.21.21 0 0 1 .115.045c.034.026.064.062.087.108s.035.092.035.136a.21.21 0 0 1-.033.118c-.023.037-.057.064-.098.086zm-.031-.063c.044-.021.07-.053.08-.093a.22.22 0 0 0-.028-.145c-.027-.056-.06-.091-.098-.109s-.079-.017-.124.004-.07.054-.079.095 0 .089.026.144.059.092.098.11.081.017.125-.006zm.41-.626l-.046.03c-.044.027-.07.058-.079.093a.15.15 0 0 0 .015.105l.127.256-.075.037-.222-.449.074-.036.038.078c0-.065.033-.118.105-.161l.026-.015.037.062zm.324-.162l-.045.029c-.045.028-.071.058-.08.094a.15.15 0 0 0 .015.105l.127.256-.075.036-.222-.448.074-.037.038.078c0-.064.034-.117.106-.16l.026-.015.036.062zm.267.361l-.222-.448.075-.037.222.449-.075.036zm-.326-.639l.09-.045.041.085-.09.044-.041-.084zm.809.134l-.327.163c.029.05.062.084.101.098s.082.009.128-.016a.25.25 0 0 0 .118-.124l.052.042a.26.26 0 0 1-.054.081.32.32 0 0 1-.085.062c-.071.036-.135.042-.196.02s-.109-.068-.144-.14a.3.3 0 0 1-.034-.135c0-.044.011-.084.034-.119s.055-.065.097-.084c.059-.03.116-.034.169-.011s.097.067.13.134l.011.029zm-.283-.094c-.04.02-.064.047-.076.084s-.008.078.01.124l.26-.129c-.024-.044-.052-.073-.085-.087s-.071-.012-.109.008zm.497-.319c.107-.053.19-.021.25.098l.139.282-.075.037-.138-.277c-.021-.042-.044-.068-.07-.08s-.057-.008-.092.009c-.041.02-.067.049-.08.087s-.007.078.014.121l.127.257-.075.037-.222-.448.074-.037.037.074c.001-.036.01-.066.03-.094s.046-.049.081-.066zm.695.161c.014-.006.026-.014.04-.023l.026.061c-.013.009-.028.019-.045.026-.053.028-.102.034-.144.019s-.073-.048-.099-.098l-.116-.236-.087.043-.03-.06.088-.042-.068-.137.075-.036.068.136.127-.063.029.06-.127.062.114.23c.034.07.085.09.149.058zm.413-.404l-.327.162c.029.051.062.084.1.098s.083.009.129-.015a.25.25 0 0 0 .118-.124l.052.041a.25.25 0 0 1-.054.081c-.026.026-.053.046-.085.063-.071.035-.135.041-.196.02a.26.26 0 0 1-.144-.141c-.023-.046-.034-.09-.034-.134s.011-.084.034-.12.055-.064.096-.084c.06-.029.117-.033.17-.011a.26.26 0 0 1 .13.135l.011.029zm-.283-.095c-.04.02-.064.048-.077.084s-.007.078.011.124l.26-.128c-.024-.044-.052-.074-.086-.087s-.07-.011-.108.007zm.626-.078l-.031-.061.257-.128.031.061-.257.128zm1.133-.373l.032.064-.417.207-.029-.057.102-.362a.47.47 0 0 0 .02-.126c0-.035-.006-.066-.02-.093-.018-.035-.041-.058-.072-.066s-.064-.003-.102.015c-.063.031-.112.086-.147.166l-.057-.045a.33.33 0 0 1 .068-.105.36.36 0 0 1 .107-.081c.059-.029.114-.037.163-.025s.089.046.115.098c.018.037.028.078.028.121a.56.56 0 0 1-.026.156l-.086.291.321-.158zm.288-.479c.043-.007.082-.003.116.014s.06.044.08.086c.027.056.03.11.007.162s-.065.093-.131.125c-.042.022-.086.034-.132.038s-.087.002-.127-.01v-.072c.084.02.159.014.225-.018.046-.023.077-.051.09-.083s.011-.069-.009-.109c-.04-.079-.108-.093-.208-.044l-.075.037-.032-.065.06-.029c.047-.024.079-.052.095-.085s.012-.072-.008-.112-.041-.057-.071-.064-.064-.003-.104.015a.32.32 0 0 0-.146.165l-.057-.044a.33.33 0 0 1 .067-.107c.031-.034.068-.06.109-.08.06-.029.113-.036.162-.024s.087.043.112.093c.018.037.026.075.021.112s-.018.072-.044.099zm.551-.274c.042-.007.082-.003.116.014s.06.044.079.086c.028.056.031.11.008.162s-.066.093-.132.125c-.041.022-.085.034-.131.039s-.087.001-.127-.011v-.072c.084.02.159.014.225-.018.046-.023.076-.051.09-.083s.011-.069-.009-.109c-.04-.079-.109-.093-.208-.044l-.075.037-.032-.064.059-.03c.048-.024.08-.052.095-.085s.012-.072-.007-.112-.042-.056-.071-.064-.064-.003-.104.015c-.063.031-.111.086-.147.165l-.056-.044c.014-.038.036-.073.067-.107s.067-.06.109-.08c.059-.029.113-.036.162-.024s.087.043.112.093c.018.037.026.075.021.112s-.017.072-.044.099zm.454-.316c.041-.02.081-.029.119-.028s.075.014.107.038.058.054.078.095a.24.24 0 0 1 .026.123.2.2 0 0 1-.039.111c-.025.034-.06.061-.103.083s-.081.032-.127.037-.087 0-.125-.011v-.072c.084.02.159.014.222-.017.045-.023.074-.053.087-.092s.009-.079-.014-.124a.16.16 0 0 0-.09-.084c-.039-.013-.078-.01-.121.011-.061.031-.1.081-.11.148l-.052.026-.189-.379.389-.193.031.063-.315.156.114.231c.009-.024.023-.047.042-.067a.24.24 0 0 1 .07-.055z" class="B"/><path d="M205.721 109.035l.117-.387-.379-.141.037-.119.497.183-.155.507-.117-.043zm1.711 3.451l.118-.387-.379-.141.037-.119.497.184-.155.506-.118-.043z" fill="#c61d68"/><path d="M192.545 125.048l-.055-.112.113-.057.056.112-.114.057zm.259.413c-.031.015-.063.024-.092.026s-.058-.003-.083-.016-.044-.032-.056-.058-.017-.052-.014-.075.014-.055.029-.088.022-.052.026-.072.003-.042-.003-.061l-.008-.025.059-.029.016.034c.014.029.02.055.019.079a.32.32 0 0 1-.019.081l-.015.055c-.001.014.002.029.008.043s.021.028.04.032.038.002.061-.01.043-.028.064-.051a.32.32 0 0 0 .055-.081l.072.058c-.012.032-.034.063-.063.092s-.061.049-.096.066zm.509-.465c.016-.003.029-.002.043.001s.029.011.046.022l.104.065-.066.086-.14-.087c-.028-.017-.06-.017-.095.001-.055.028-.109.04-.162.037s-.1-.021-.144-.055-.081-.079-.11-.138a.36.36 0 0 1-.043-.169c0-.056.014-.104.043-.149s.071-.079.127-.107.108-.038.16-.035.101.021.144.055.08.078.109.138a.39.39 0 0 1 .044.185.24.24 0 0 1-.06.15zm-.15.003c.052-.026.085-.065.095-.115s.002-.11-.032-.176-.073-.112-.121-.131-.096-.02-.148.006-.084.064-.097.114 0 .109.033.176.073.112.12.133.098.019.15-.007zm.651-.219c-.078.038-.147.047-.207.028s-.11-.069-.148-.147l-.169-.338.101-.051.17.344c.025.049.054.08.09.094s.075.009.12-.014.072-.051.082-.087.005-.08-.02-.127l-.169-.345.101-.05.168.338a.27.27 0 0 1 .027.207c-.019.061-.068.11-.146.148zm.353-.184l-.282-.567.38-.188.041.082-.278.138.078.156.263-.13.04.081-.263.13.082.165.279-.137.041.082-.381.188zm.883-1.145l.081-.04.281.567-.092.046-.186-.375-.009.358-.069.034-.289-.205.185.37-.092.046-.281-.567.082-.042.38.274.009-.466zm.921.25l-.123-.104-.277.138.01.161-.104.052-.025-.695.084-.041.539.44-.104.049zm-.406-.065l.208-.103-.223-.19.015.293zm-.064-.47l-.064.032.02-.165.098-.049-.054.182zm.823.369c-.043.021-.087.035-.131.043s-.085.006-.121-.002l-.003-.093a.36.36 0 0 0 .108.003c.035-.006.071-.017.106-.035.04-.02.066-.042.079-.065s.016-.049.003-.073-.029-.034-.053-.034-.063.003-.113.017a.58.58 0 0 1-.133.021c-.037.002-.068-.004-.092-.018s-.046-.037-.063-.069-.023-.067-.017-.102.022-.069.048-.1.061-.058.104-.079.081-.032.122-.038.08-.005.113.004l.003.093c-.07-.015-.136-.007-.197.023-.037.019-.061.04-.077.066s-.013.051-.001.077c.011.021.029.033.053.036s.063-.003.112-.015.098-.02.135-.021.067.003.093.015.048.034.063.066.023.069.017.102-.022.066-.049.098-.063.057-.109.08zm.254-.843l.248-.123c.061-.03.116-.038.165-.024s.087.047.113.102.032.106.013.153-.059.086-.12.117l-.144.072.111.22-.104.052-.282-.569zm.369.151c.072-.035.092-.084.061-.147-.015-.032-.037-.05-.061-.056a.13.13 0 0 0-.092.017l-.132.065.094.187.13-.066zm.682.045c-.078.038-.147.047-.206.027s-.111-.069-.149-.147l-.168-.338.101-.05.17.344c.024.049.053.079.09.093s.075.009.119-.014.072-.05.083-.087.004-.079-.02-.127l-.17-.344.101-.05.168.338c.039.076.048.145.028.206s-.069.11-.147.149zm.353-.186l-.281-.567.379-.188.042.082-.279.138.078.156.263-.13.04.081-.263.13.083.165.278-.137.041.082-.381.188zm.193-.803l.21-.104c.093-.046.177-.056.252-.032s.136.081.181.17.053.173.026.248-.086.136-.179.182l-.21.104-.28-.568zm.442.384c.13-.064.163-.163.097-.297s-.164-.166-.294-.102l-.099.049.197.399.099-.049zm.703-.235c-.056.027-.109.039-.163.036s-.099-.021-.143-.055-.082-.079-.111-.137-.044-.117-.044-.17.015-.104.044-.149.072-.079.127-.107a.31.31 0 0 1 .161-.035.26.26 0 0 1 .144.055c.043.032.079.078.108.138a.38.38 0 0 1 .045.171c0 .055-.015.104-.045.149a.29.29 0 0 1-.123.104zm-.042-.083c.052-.026.084-.064.095-.115s.002-.11-.032-.176-.073-.111-.121-.131-.096-.02-.148.006-.084.064-.097.115 0 .108.032.176.074.111.121.133.098.018.15-.008zm.744-.981l.101-.05.281.568-.101.05-.122-.246-.291.144.123.246-.103.05-.281-.567.102-.051.118.237.291-.143-.118-.238zm.938.242l-.123-.104-.277.138.009.16-.104.052-.024-.694.084-.041.539.44-.104.049zm-.406-.066l.208-.102-.223-.19.015.292zm.813-.127c-.057.028-.111.04-.164.037s-.103-.021-.147-.055a.39.39 0 0 1-.109-.138c-.029-.058-.043-.114-.043-.169s.016-.106.046-.149.074-.081.129-.108c.038-.019.076-.031.116-.036s.077-.003.11.008l.003.093c-.035-.007-.068-.009-.098-.006a.23.23 0 0 0-.087.026c-.055.028-.088.066-.101.116s-.001.109.032.175.074.112.121.131.1.017.153-.01a.24.24 0 0 0 .074-.054c.02-.021.038-.05.053-.082l.072.058c-.012.033-.032.064-.061.091a.34.34 0 0 1-.099.072zm.284-.151l-.281-.568.379-.188.041.083-.278.137.078.157.263-.13.04.081-.263.13.082.165.279-.138.041.083-.381.188zm.95-.471l-.113.056-.187-.133c-.018-.012-.035-.02-.052-.02a.12.12 0 0 0-.056.016l-.08.039.113.228-.102.051-.282-.568.251-.124c.064-.032.121-.041.168-.029s.086.045.112.1c.022.043.028.085.017.127s-.035.075-.077.105c.034-.006.069.003.105.028l.183.124zm-.392-.188c.04-.02.065-.042.075-.065s.01-.052-.006-.082-.035-.049-.061-.054-.058.002-.096.022l-.135.067.089.179.134-.067zm.462-.097c-.015-.029-.021-.056-.021-.082a.38.38 0 0 1 .014-.091c.006-.026.011-.047.011-.064s-.004-.034-.011-.049-.023-.029-.04-.034-.038-.001-.061.011-.045.029-.066.052-.038.049-.053.081l-.072-.059c.012-.031.032-.062.061-.091a.38.38 0 0 1 .096-.07c.032-.017.064-.025.095-.026s.058.005.083.017.042.032.055.058.02.055.017.083a.53.53 0 0 1-.023.097l-.022.083c-.003.02-.001.041.006.061l.008.023-.06.029-.017-.029zm.075.214l-.055-.111.114-.057.055.112-.114.056z" class="E"/><path d="M203.748 98.859l-21.569 10.7 2.054 4.142L205.803 103l-2.055-4.141z" class="D"/><g class="F B"><path d="M184.238 113.701l-.013-.029 21.569-10.701.014.029-21.57 10.701z"/></g><path d="M193.104 107.797l-.106.052-.214-.153c-.023-.015-.046-.024-.067-.024s-.046.006-.074.018l-.107.054.133.267-.093.046-.321-.648.275-.138c.072-.035.135-.047.188-.034s.097.051.127.112a.2.2 0 0 1 .019.144c-.012.046-.042.085-.089.119.037-.006.075.005.115.032l.214.153zm-.431-.214c.047-.024.078-.05.091-.079s.011-.066-.007-.104-.045-.063-.077-.069-.072.001-.121.026l-.171.085.113.228.172-.087zm.81-.234l-.318.158c.054.091.126.116.213.071.052-.026.09-.065.115-.119l.061.051c-.013.027-.031.055-.057.081a.31.31 0 0 1-.086.062c-.071.036-.139.043-.2.023s-.11-.067-.147-.139c-.023-.046-.033-.092-.033-.136a.22.22 0 0 1 .035-.121c.023-.037.056-.064.098-.086.061-.03.117-.033.171-.012s.099.068.133.136l.015.031zm-.284-.087c-.035.018-.058.043-.069.076s-.006.071.009.115l.237-.118c-.023-.041-.049-.067-.079-.079s-.063-.013-.098.006zm.652.173c-.079.038-.15.05-.216.035l-.005-.081c.064.012.126.004.188-.026.031-.016.051-.031.062-.049s.012-.037.003-.055-.02-.026-.036-.029-.036-.003-.067.004l-.082.02c-.045.011-.083.011-.114 0s-.053-.032-.07-.064c-.02-.04-.02-.081 0-.122s.058-.075.112-.103a.29.29 0 0 1 .099-.029.23.23 0 0 1 .095.005l.005.079c-.062-.014-.117-.008-.164.015a.14.14 0 0 0-.06.051c-.011.018-.011.038-.001.056s.018.026.033.031.035.003.06-.003l.086-.02c.049-.012.087-.012.117-.001s.054.032.071.064c.02.04.02.081-.002.121a.25.25 0 0 1-.114.101zm.452-.793l.224.45-.091.044-.036-.073c-.002.032-.011.063-.029.089s-.043.046-.074.061c-.108.053-.194.021-.254-.1l-.136-.275.093-.046.137.274c.018.037.038.06.061.069s.05.007.081-.008a.12.12 0 0 0 .069-.078c.01-.033.006-.07-.013-.11l-.125-.252.093-.045zm.641-.332c.101-.05.181-.014.241.107l.137.279-.093.046-.136-.276a.16.16 0 0 0-.061-.073c-.022-.011-.048-.009-.077.004-.034.017-.055.042-.063.075s-.001.071.019.111l.125.254-.093.045-.136-.275c-.019-.038-.04-.063-.062-.073s-.047-.01-.076.004c-.034.017-.055.043-.064.075s-.002.071.018.11l.126.254-.094.046-.223-.45.092-.046.033.069c.002-.032.011-.061.028-.085s.041-.046.072-.062c.069-.033.128-.027.177.02 0-.033.011-.065.029-.093s.048-.049.081-.066zm.788-.076l-.318.157c.054.092.125.117.213.072a.24.24 0 0 0 .114-.119l.062.05a.28.28 0 0 1-.057.081c-.026.026-.054.046-.086.063-.072.035-.139.043-.2.023s-.11-.067-.147-.139c-.023-.046-.034-.092-.034-.136s.013-.086.036-.121.056-.064.098-.086c.061-.03.117-.033.171-.012s.099.067.133.136l.015.031zm-.284-.087c-.035.018-.058.042-.069.076s-.006.07.009.115l.237-.118c-.023-.041-.049-.067-.079-.08s-.063-.012-.098.007zm.503-.335c.107-.054.191-.02.251.1l.138.279-.094.046-.136-.274c-.018-.038-.04-.063-.064-.072s-.052-.008-.083.008-.061.046-.073.079-.008.072.012.11l.127.256-.093.046-.224-.45.092-.046.035.072a.18.18 0 0 1 .031-.092c.021-.024.049-.047.081-.062z" class="H"/><path d="M203.224 102.912c-.023 0-.046-.013-.058-.035-.005-.009-.006-.018-.006-.029 0-.023.014-.046.035-.058l1.151-.571c.032-.015.07-.003.085.029.005.01.006.019.006.03 0 .022-.013.045-.035.058l-1.15.57c-.008.003-.017.006-.028.006zm.13-.494c-.023 0-.046-.013-.058-.035-.004-.009-.006-.018-.006-.029 0-.023.014-.046.035-.058l.8-.396c.032-.016.071-.003.086.029.005.009.006.018.006.029 0 .023-.014.046-.035.058l-.8.396c-.009.005-.019.006-.028.006zm-.471-.196c-.023 0-.046-.013-.058-.035-.015-.032-.003-.07.029-.085l1.15-.571c.033-.015.071-.003.086.029s.003.07-.029.086l-1.15.57c-.01.003-.019.006-.028.006z" fill="#dd0c80"/><path d="M201.138 102.808c-.193.095-.269.325-.175.518a.62.62 0 0 1 .06.22c.003.03.003.055.002.072 0 .009-.002.015-.002.02v.006l-.011.088.082-.039.22-.11c.056.065.15.087.231.045s.122-.128.102-.212l.221-.11.081-.04-.078-.044h-.002c-.007-.007-.014-.01-.021-.014-.014-.009-.034-.025-.057-.045a.59.59 0 0 1-.139-.18.38.38 0 0 0-.514-.175zm.578.735l.144-.072c-.008-.006-.017-.014-.024-.022-.052-.045-.115-.114-.161-.208-.072-.143-.243-.202-.387-.13s-.202.244-.13.387c.046.094.062.187.069.254l.001.032.144-.071.086-.043.173-.086.085-.041zm-.053.134l-.152.075c.028.02.063.023.097.006s.053-.047.055-.081z" class="H"/><path d="M210.091 117.7l3.515-1.743c.318-.157.702-.027.861.289l6.849 13.806c.158.318.028.702-.289.861l-3.514 1.742c-.318.158-.702.028-.861-.289l-6.85-13.805c-.157-.318-.027-.704.289-.861zm-17.717 8.789l15.415-7.648c.318-.157.702-.027.861.289l6.849 13.806c.158.318.028.702-.289.861l-15.415 7.648c-.318.157-.702.027-.861-.289l-6.849-13.806a.64.64 0 0 1 .289-.861z" class="D"/><g opacity=".5" class="B"><path d="M197.106 133.684c-.062.03-.121.044-.181.04a.31.31 0 0 1-.162-.063.46.46 0 0 1-.124-.159c-.034-.069-.051-.133-.052-.195s.015-.117.049-.166a.33.33 0 0 1 .141-.12.35.35 0 0 1 .133-.039c.044-.005.087-.002.127.012v.072c-.045-.011-.084-.016-.121-.011s-.072.014-.109.032c-.072.035-.115.086-.131.152s-.003.14.039.224.095.143.156.17.129.022.201-.014c.037-.018.066-.039.09-.067a.35.35 0 0 0 .064-.102l.057.044c-.014.041-.037.078-.067.11a.39.39 0 0 1-.11.08zm.511-.256c-.043.022-.085.031-.127.028s-.08-.019-.115-.045-.064-.064-.087-.11-.036-.092-.036-.134.011-.084.034-.12.055-.062.098-.084.084-.03.127-.027.081.018.115.044a.3.3 0 0 1 .087.109c.023.046.035.091.035.136s-.011.082-.034.118a.23.23 0 0 1-.097.085zm-.031-.061c.044-.021.07-.053.079-.093s0-.091-.027-.146-.06-.09-.098-.108-.08-.017-.124.004-.07.054-.079.095 0 .089.026.144.059.092.097.11.082.015.126-.006zm.623-.812c.099-.049.179-.016.237.104l.139.281-.075.037-.138-.278c-.02-.042-.043-.068-.067-.08s-.052-.011-.083.006c-.036.018-.061.046-.07.081s-.003.075.018.119l.127.256-.075.037-.137-.279c-.022-.041-.043-.069-.068-.079s-.052-.009-.084.006-.061.046-.07.081-.003.075.018.119l.127.256-.075.036-.222-.448.074-.037.035.071c0-.034.009-.063.026-.089s.041-.047.072-.063c.069-.033.13-.027.18.02a.15.15 0 0 1 .028-.093c.023-.025.049-.047.083-.064zm.702.232c-.043.022-.084.031-.127.028s-.08-.019-.115-.045-.064-.064-.087-.11-.035-.092-.035-.134.01-.084.033-.12.055-.062.098-.084.084-.03.127-.027.081.018.115.044a.3.3 0 0 1 .087.109c.023.046.035.091.035.136s-.01.082-.033.118-.057.064-.098.085zm-.031-.062c.045-.022.071-.054.08-.094a.22.22 0 0 0-.028-.145c-.027-.055-.059-.09-.098-.109s-.079-.017-.124.005-.07.053-.079.095 0 .088.026.144.059.091.098.11.081.016.125-.006zm.586-.794c.107-.054.19-.022.249.097l.14.282-.075.037-.138-.277c-.021-.042-.044-.068-.07-.08s-.057-.007-.092.009c-.041.02-.067.049-.08.088s-.007.078.014.12l.127.257-.075.037-.321-.648.075-.037.134.272c.002-.034.011-.064.031-.092s.047-.049.081-.065zm.48-.239c.057-.028.108-.035.149-.018s.078.052.109.111l.14.283-.073.037-.038-.077a.16.16 0 0 1-.023.089c-.017.026-.042.048-.072.063s-.058.021-.089.023a.16.16 0 0 1-.081-.02c-.025-.014-.043-.034-.055-.058-.017-.034-.022-.064-.014-.09s.029-.056.064-.083a.97.97 0 0 1 .158-.095l.02-.011-.016-.03c-.018-.037-.039-.061-.062-.069s-.054-.006-.087.011a.32.32 0 0 0-.13.124l-.052-.042a.33.33 0 0 1 .064-.081c.029-.03.058-.052.088-.067zm.173.422a.13.13 0 0 0 .072-.081c.011-.037.008-.075-.012-.115l-.014-.026-.017.008c-.053.027-.093.049-.119.069s-.043.036-.049.053-.004.036.006.055c.013.025.031.04.055.048a.12.12 0 0 0 .078-.011zm.554-.202c-.044.022-.087.032-.128.029a.21.21 0 0 1-.115-.043c-.035-.026-.063-.062-.087-.11s-.035-.092-.034-.136a.22.22 0 0 1 .035-.121.24.24 0 0 1 .101-.087c.031-.015.063-.024.097-.027a.19.19 0 0 1 .09.007l.003.067c-.06-.013-.11-.009-.155.013s-.075.055-.085.098-.003.091.024.146.06.089.101.106.084.014.13-.009.078-.06.104-.115l.052.043a.23.23 0 0 1-.05.078c-.025.026-.052.046-.083.061zm.517-.529l-.327.162c.029.051.063.084.101.098s.082.009.128-.015c.052-.026.092-.068.118-.124l.052.041c-.011.028-.029.055-.053.081s-.054.046-.086.063c-.07.035-.135.041-.196.02s-.108-.069-.144-.141c-.023-.046-.033-.09-.033-.135s.01-.084.033-.119.055-.064.097-.084c.059-.029.116-.034.17-.011s.096.067.13.135l.01.029zm-.283-.095c-.04.02-.064.047-.076.084s-.008.078.01.124l.261-.128c-.025-.045-.052-.074-.086-.088s-.071-.01-.109.008zm.557-.268l-.046.029c-.044.028-.07.058-.079.094a.15.15 0 0 0 .015.105l.127.256-.075.036-.222-.448.074-.037.038.078c0-.064.033-.117.105-.16l.026-.015.037.062zm.658-.393l.222.448-.074.037-.038-.076c0 .033-.011.064-.029.091s-.043.048-.075.065c-.053.026-.101.032-.142.015s-.078-.054-.106-.112l-.137-.278.075-.037.137.275c.02.04.043.066.068.077s.055.008.088-.009c.04-.02.065-.048.077-.084a.17.17 0 0 0-.014-.12l-.125-.252.073-.04zm.359-.191c.108-.054.19-.022.25.098l.139.281-.075.037-.138-.277c-.021-.041-.044-.067-.07-.079s-.057-.008-.092.009c-.041.02-.067.049-.079.087s-.008.078.013.121l.127.257-.075.037-.221-.449.073-.036.037.073c.001-.035.011-.066.03-.093s.048-.051.081-.066zm.839-.653l.321.648-.075.037-.041-.083c0 .036-.009.068-.028.095s-.044.051-.079.069c-.04.02-.08.028-.12.022s-.076-.02-.11-.048-.062-.064-.085-.112-.036-.09-.036-.133.01-.081.029-.116.051-.061.091-.08c.035-.016.069-.024.102-.022a.15.15 0 0 1 .092.035l-.138-.279.077-.033zm.084.699c.043-.022.07-.054.078-.094a.22.22 0 0 0-.028-.145c-.027-.055-.059-.09-.097-.108s-.078-.016-.123.006-.07.053-.079.094 0 .089.026.143.059.092.099.11.08.015.124-.006zm.646-.517l-.328.162c.029.05.063.084.101.098s.083.009.129-.016a.25.25 0 0 0 .117-.123l.052.041c-.01.027-.029.055-.053.081s-.054.046-.086.063c-.07.035-.134.041-.196.02s-.108-.069-.143-.141c-.023-.046-.034-.09-.034-.135s.011-.084.034-.119.055-.064.096-.084c.06-.029.116-.034.17-.011a.26.26 0 0 1 .13.135l.011.029zm-.283-.095c-.04.02-.065.047-.077.084s-.008.078.011.124l.26-.129c-.025-.044-.052-.073-.086-.087s-.07-.012-.108.008zm.495-.318c.04-.02.08-.028.12-.022s.076.022.111.048.063.062.086.11.035.092.035.134-.009.081-.03.115a.21.21 0 0 1-.091.08c-.035.017-.069.024-.104.023a.18.18 0 0 1-.092-.037l.123.248-.075.036-.305-.613.075-.037.039.078c0-.035.007-.065.026-.095s.047-.052.082-.068zm.187.411c.043-.021.07-.053.079-.095s0-.088-.026-.142-.059-.09-.097-.109-.082-.016-.124.005-.071.054-.08.095 0 .089.028.144.059.091.097.11.079.014.123-.008zm.54-.193c-.043.022-.084.031-.127.028s-.08-.018-.115-.044-.064-.065-.087-.111-.035-.091-.035-.134.012-.084.033-.12.056-.062.098-.084.085-.03.127-.027.081.018.115.044a.3.3 0 0 1 .087.109c.023.046.035.092.035.136a.21.21 0 0 1-.033.118c-.022.036-.055.066-.098.085zm-.031-.061c.045-.021.071-.053.08-.093a.22.22 0 0 0-.028-.145c-.027-.056-.059-.091-.098-.109s-.079-.017-.123.005-.071.053-.08.094 0 .089.026.144.06.092.098.11.082.016.125-.006zm-.197-.465l-.052.026-.002-.231.086-.043-.032.248zm.705.291c-.075.037-.145.047-.208.03l-.003-.067c.034.008.064.009.093.005a.28.28 0 0 0 .091-.031c.033-.017.055-.035.067-.053s.012-.042.002-.063-.022-.029-.039-.034-.039-.003-.07.005l-.084.02c-.043.01-.078.01-.109-.002s-.053-.032-.069-.063c-.02-.039-.02-.079-.001-.119s.055-.073.107-.099a.28.28 0 0 1 .096-.029c.034-.005.065-.002.092.007l.002.068c-.059-.016-.112-.01-.161.015-.031.015-.052.033-.064.055s-.013.041-.002.063.022.029.037.035.038.004.064-.002l.086-.02c.046-.01.085-.01.115-.001s.053.03.068.063c.02.039.019.078-.001.117s-.054.072-.109.1zm.288-.15l-.222-.448.075-.037.222.448-.075.037zm-.326-.64l.09-.044.042.084-.091.045-.041-.085zm.71.381c.014-.006.026-.013.04-.023l.026.062c-.013.009-.028.018-.045.026-.053.027-.102.033-.144.018s-.073-.047-.099-.098l-.116-.236-.087.043-.03-.059.088-.043-.068-.136.075-.037.068.136.127-.063.029.06-.127.063.114.229c.034.072.083.092.149.058zm.33-.088c-.043.021-.084.03-.127.027s-.079-.018-.114-.044-.065-.064-.088-.11-.035-.092-.035-.135.011-.084.034-.119.055-.063.098-.084.084-.031.127-.028a.21.21 0 0 1 .114.044c.036.026.065.063.088.109s.035.092.035.136-.011.083-.034.118-.055.064-.098.086zm-.03-.063c.044-.022.07-.054.079-.093s0-.091-.027-.146-.06-.09-.098-.108-.08-.017-.124.004-.07.054-.08.095 0 .089.026.144.06.092.098.11.083.017.126-.006zm.587-.794c.04-.02.08-.028.12-.022s.076.022.111.048.063.063.086.11.035.092.035.135a.2.2 0 0 1-.031.114c-.019.034-.05.06-.09.08s-.069.024-.104.023-.064-.015-.092-.037l.123.248-.075.037-.305-.614.075-.036.039.078c0-.036.007-.066.026-.095s.047-.052.082-.069zm.187.411c.043-.021.07-.053.079-.094s0-.089-.026-.143-.059-.09-.098-.108-.081-.017-.123.004-.071.054-.08.095 0 .089.028.144.059.092.097.11.078.014.123-.008zm.621-.504l-.327.162c.027.05.062.084.101.098s.082.009.128-.016a.25.25 0 0 0 .118-.124l.052.042a.26.26 0 0 1-.054.081c-.026.026-.053.046-.085.063-.071.035-.135.041-.196.019s-.109-.068-.144-.14a.3.3 0 0 1-.034-.135c0-.044.011-.084.034-.119s.055-.065.096-.084c.06-.029.117-.034.17-.011s.097.067.13.135l.011.029zm-.283-.095c-.04.02-.064.047-.077.084s-.007.078.011.124l.26-.129c-.024-.044-.052-.073-.085-.087s-.071-.012-.109.008zm.557-.268l-.046.029c-.044.028-.07.058-.08.093s-.003.071.016.106l.127.255-.075.037-.222-.448.073-.037.038.078c0-.064.034-.118.105-.16l.026-.016.038.063zm.446.278c-.042.022-.084.031-.126.028s-.08-.018-.115-.044-.064-.065-.087-.111a.3.3 0 0 1-.036-.134c0-.045.011-.084.034-.12s.055-.062.098-.084.084-.03.127-.027.081.018.115.044a.3.3 0 0 1 .087.109c.023.046.035.092.035.136s-.011.083-.034.118-.055.064-.098.085zm-.03-.061c.044-.021.07-.053.079-.093s0-.09-.027-.145-.06-.091-.098-.109-.08-.017-.124.005-.07.053-.079.094 0 .089.026.144.059.092.097.11.082.016.126-.006zm.743-.293c-.075.036-.145.047-.208.03l-.003-.067c.034.007.065.009.094.004s.059-.013.09-.03.055-.035.067-.054.012-.041.002-.062-.022-.03-.039-.034-.039-.003-.07.004l-.084.02c-.043.011-.078.011-.109-.001s-.053-.032-.069-.063c-.019-.04-.019-.079-.001-.119s.055-.074.107-.1c.031-.015.064-.024.096-.029s.065-.001.092.008l.002.067c-.058-.015-.112-.009-.161.016-.03.015-.053.033-.064.055s-.012.041-.002.062.022.029.037.036.038.004.064-.002l.086-.02c.046-.011.086-.011.115-.001s.053.03.069.062c.019.04.018.078-.002.118s-.054.074-.109.1zm.288-.15l-.222-.449.075-.036.222.448-.075.037zm-.326-.638l.09-.045.042.084-.091.045-.041-.084zm.537-.04c.107-.054.19-.022.25.098l.139.281-.075.037-.138-.277c-.021-.041-.044-.067-.07-.079s-.057-.008-.092.009c-.041.02-.067.049-.08.087s-.007.078.014.121l.127.257-.075.037-.222-.449.074-.036.036.073c.002-.035.011-.066.031-.093s.047-.049.081-.066zm.764.194l-.222-.448.075-.037.222.448-.075.037zm-.326-.638l.09-.044.041.084-.09.044-.041-.084zm.598.011l-.046.029c-.044.028-.07.058-.08.093s-.003.071.016.106l.127.255-.075.037-.222-.448.073-.037.039.078c0-.064.033-.118.104-.161l.026-.015.038.063zm-13.405 8.146c.057-.027.107-.035.149-.018s.078.052.108.112l.141.283-.073.036-.039-.076c.002.032-.006.061-.023.089s-.041.047-.072.062-.058.022-.088.023a.16.16 0 0 1-.081-.02c-.025-.013-.043-.033-.055-.058-.017-.033-.022-.064-.014-.09s.029-.055.064-.083a.96.96 0 0 1 .158-.094l.02-.011-.016-.031c-.018-.036-.04-.061-.063-.069s-.053-.006-.087.011a.32.32 0 0 0-.13.124l-.052-.041a.36.36 0 0 1 .064-.081c.028-.031.057-.052.089-.068zm.172.423c.036-.019.061-.046.071-.082s.008-.074-.012-.114l-.014-.026-.016.007-.12.069c-.026.019-.043.037-.049.054s-.004.035.006.055.031.04.056.047.052.002.078-.01zm.361-.115l-.322-.649.075-.037.322.649-.075.037zm.449-.794a.2.2 0 0 1 .118-.023.21.21 0 0 1 .11.046c.034.026.063.063.086.108a.34.34 0 0 1 .037.137c.001.042-.009.082-.029.116s-.051.061-.089.081-.069.024-.104.023-.064-.015-.092-.037l.041.083-.075.036-.321-.648.075-.037.138.279c0-.036.007-.066.026-.095s.044-.052.079-.069zm.186.411c.042-.021.07-.053.079-.094s0-.092-.027-.146a.22.22 0 0 0-.098-.107c-.039-.017-.08-.015-.124.006s-.071.054-.08.095 0 .089.028.144.059.092.098.11.081.014.124-.008zm.307-.656c.057-.027.107-.035.148-.018s.078.052.109.111l.141.283-.074.037-.038-.076c.002.032-.006.061-.023.088s-.041.048-.072.063-.058.022-.089.023-.056-.006-.081-.02-.042-.034-.055-.058c-.016-.034-.021-.064-.013-.09s.029-.055.064-.083a.98.98 0 0 1 .157-.095l.02-.01-.015-.031c-.018-.037-.04-.061-.063-.069s-.053-.006-.087.011a.32.32 0 0 0-.13.124l-.052-.042c.015-.027.037-.055.064-.081s.058-.052.089-.067zm.171.422a.13.13 0 0 0 .072-.081c.011-.036.008-.075-.012-.115l-.014-.026-.017.008-.119.069c-.026.018-.043.037-.049.054s-.004.035.006.055.031.039.055.047.052.002.078-.011zm.36-.685c.107-.054.19-.021.249.098l.139.281-.075.037-.137-.277c-.022-.041-.045-.067-.071-.079s-.056-.008-.091.009c-.042.02-.068.049-.08.087s-.008.078.014.121l.127.257-.075.037-.222-.449.073-.036.037.073c.002-.035.011-.066.031-.093a.22.22 0 0 1 .081-.066zm.717.223c-.044.022-.087.032-.128.029s-.081-.016-.115-.042-.063-.063-.087-.111-.035-.091-.034-.136.012-.085.035-.121.057-.065.101-.087c.031-.015.063-.024.097-.027a.19.19 0 0 1 .09.007l.003.068a.22.22 0 0 0-.154.012c-.046.023-.075.055-.086.098s-.003.092.024.147.06.088.101.105a.15.15 0 0 0 .13-.009c.043-.021.078-.06.104-.115l.052.043a.22.22 0 0 1-.05.078c-.024.026-.052.046-.083.061zm.438-.215c-.043.021-.084.03-.127.027s-.08-.018-.115-.044-.064-.064-.087-.11-.035-.092-.035-.135a.22.22 0 0 1 .033-.119c.023-.036.056-.063.098-.084s.085-.031.127-.028.081.018.115.044a.3.3 0 0 1 .087.109c.023.046.035.092.035.136a.21.21 0 0 1-.033.118c-.023.037-.057.064-.098.086zm-.031-.063c.045-.022.071-.054.08-.093s0-.091-.028-.146-.059-.09-.098-.108-.079-.017-.124.004-.07.054-.079.095 0 .089.026.144.06.092.098.11.081.017.125-.006zm.279-.187l.093-.046.046.094-.093.046-.046-.094zm-2.919 2.72l-.055-.11.11-.055.055.11-.11.055zm.062.06l.057-.028.245.418-.115.057-.187-.447zm.346.161l-.321-.649.095-.048.321.649-.095.048zm.248-.698c.107-.054.191-.02.251.101l.138.278-.094.046-.136-.274c-.018-.038-.04-.062-.064-.071s-.052-.008-.083.007-.061.046-.073.08-.008.072.012.11l.127.255-.093.046-.224-.45.092-.045.035.071a.18.18 0 0 1 .031-.091c.018-.026.049-.046.081-.063zm.698.147l.039-.023.031.073c-.014.011-.029.02-.046.028-.058.029-.108.037-.151.023s-.077-.049-.104-.103l-.107-.217-.088.043-.035-.072.087-.043-.067-.134.093-.046.068.134.124-.061.035.072-.124.061.105.214c.033.063.078.081.14.051zm.425-.39l-.318.157c.053.092.125.117.212.072.052-.026.091-.066.115-.119l.061.05c-.012.028-.03.055-.056.081s-.054.046-.086.063c-.072.035-.139.043-.2.023s-.11-.067-.147-.139c-.023-.046-.034-.092-.034-.136s.012-.086.035-.121.057-.064.098-.086c.061-.03.118-.033.172-.012s.099.067.133.136l.015.031zm-.285-.087c-.035.018-.058.042-.068.076s-.007.07.009.115l.237-.118c-.023-.041-.049-.067-.08-.08s-.062-.01-.098.007zm-.029-.131l-.061.031-.001-.232.099-.049-.037.25zm.534-.205c.107-.053.192-.019.251.101l.138.279-.093.046-.137-.274c-.018-.038-.039-.063-.064-.072s-.052-.008-.082.008c-.037.018-.062.046-.074.079s-.008.072.012.11l.127.256-.093.046-.223-.45.091-.046.036.072c.001-.034.012-.066.03-.092s.048-.046.081-.063zm.696.147a.38.38 0 0 0 .04-.023l.031.074c-.014.011-.029.02-.046.027-.058.029-.109.037-.152.023s-.076-.049-.104-.102l-.107-.217-.087.042-.035-.071.087-.043-.067-.135.093-.046.067.135.124-.061.036.071-.124.062.105.214c.032.063.078.081.139.05zm.104-.543c.06-.03.112-.036.156-.021s.082.053.112.115l.138.278-.089.044-.037-.075a.14.14 0 0 1-.023.088c-.015.024-.039.044-.07.059s-.06.023-.09.023-.058-.007-.083-.021a.15.15 0 0 1-.056-.061c-.017-.033-.02-.063-.014-.089s.029-.055.064-.083.087-.058.155-.092l.021-.01-.014-.026c-.017-.034-.036-.055-.059-.064s-.049-.005-.082.012a.35.35 0 0 0-.13.122l-.059-.052c.015-.029.038-.056.067-.082s.061-.049.093-.065zm.17.412c.034-.017.055-.042.066-.075s.006-.069-.012-.106l-.012-.024-.017.007-.107.062c-.023.016-.039.033-.045.049s-.004.032.005.052.027.035.05.042.048.005.072-.007zm.363-.103l-.321-.648.093-.046.321.648-.093.046zm.421-.202c-.045.022-.088.032-.132.029s-.081-.016-.118-.042-.064-.063-.087-.111-.035-.093-.035-.136.012-.084.036-.121.059-.064.103-.087.087-.032.13-.029a.22.22 0 0 1 .118.043.3.3 0 0 1 .089.11c.022.046.033.092.033.138s-.012.084-.036.119-.057.066-.101.087zm-.036-.073c.042-.02.066-.049.074-.087s0-.083-.026-.135-.057-.086-.092-.101-.073-.015-.115.005-.064.049-.073.088 0 .083.026.135a.21.21 0 0 0 .092.103c.035.015.073.013.114-.008zm.283-.283l-.261-.451.115-.057.201.482-.055.026zm.01.086l.11-.056.055.111-.11.055-.055-.11z"/></g><path d="M196.061 131.899l-.283-.569-.219.108-.039-.079.535-.265.04.079-.221.109.283.569-.096.048zm.406-.677l-.054.034c-.041.026-.067.055-.075.089s-.003.066.014.101l.124.249-.094.046-.223-.45.09-.044.039.078c-.002-.064.032-.118.102-.161l.029-.017.048.075zm.209-.202c.06-.03.112-.036.156-.021s.081.054.112.115l.138.278-.089.045-.037-.075a.14.14 0 0 1-.023.087c-.015.024-.04.044-.07.059s-.06.023-.091.023-.058-.007-.082-.021-.043-.035-.057-.061c-.017-.032-.02-.063-.014-.089s.03-.055.065-.083a.88.88 0 0 1 .154-.091l.022-.011-.014-.026c-.017-.034-.037-.055-.06-.064s-.049-.005-.081.012a.35.35 0 0 0-.13.122l-.06-.052a.32.32 0 0 1 .068-.082c.032-.028.061-.049.093-.065zm.17.412c.034-.017.055-.041.066-.075s.006-.069-.013-.106l-.012-.024-.017.008-.107.061c-.023.017-.038.034-.044.049s-.005.032.005.052.027.035.05.043.047.004.072-.008zm.376-.682c.107-.054.192-.02.251.101l.138.278-.093.046-.137-.274c-.018-.038-.039-.063-.064-.072s-.052-.007-.082.008c-.037.018-.062.046-.074.079s-.008.072.012.111l.127.255-.093.046-.223-.45.091-.046.036.072c.001-.033.012-.066.03-.092s.049-.045.081-.062zm.68.244a.32.32 0 0 1-.216.036l-.005-.081c.064.012.126.004.188-.026.031-.016.051-.031.062-.049s.012-.037.003-.055-.02-.026-.036-.03-.036-.003-.067.005l-.082.02c-.045.011-.083.011-.114 0s-.053-.032-.07-.064c-.02-.04-.02-.081 0-.123a.24.24 0 0 1 .112-.102.29.29 0 0 1 .099-.029.25.25 0 0 1 .095.004l.005.08c-.062-.014-.117-.008-.164.015a.14.14 0 0 0-.06.051c-.011.018-.011.038-.001.056s.018.026.033.031.035.003.06-.003l.086-.02c.049-.012.087-.012.117-.002s.054.033.071.065c.02.039.02.081-.002.12s-.059.074-.114.101zm.18-.657l.124-.062.035.072-.124.062.187.377-.093.046-.187-.378-.087.043-.035-.072.087-.042-.005-.008c-.03-.061-.038-.116-.023-.164s.057-.089.12-.124l.039-.023.04.068-.041.024c-.035.02-.058.043-.066.069s-.003.055.015.09l.014.022zm.693-.045l-.318.158c.053.092.125.116.213.072.052-.026.09-.066.114-.12l.061.051a.27.27 0 0 1-.056.081c-.026.026-.054.046-.086.063-.072.035-.139.043-.2.023s-.11-.068-.147-.14c-.023-.045-.034-.091-.034-.136a.22.22 0 0 1 .035-.121c.023-.036.057-.064.098-.085.062-.031.118-.034.172-.012s.099.067.133.136l.015.03zm-.284-.087c-.036.018-.059.043-.069.077s-.006.07.009.114l.237-.117c-.023-.042-.049-.068-.08-.08s-.062-.011-.097.006zm.573-.272l-.053.033c-.042.026-.068.055-.075.089s-.003.066.013.101l.124.249-.093.046-.223-.449.09-.045.038.078c-.001-.064.032-.118.103-.16l.029-.017.047.075zm.525-.045l-.318.158c.053.092.125.116.212.072.052-.026.091-.066.115-.119l.061.05c-.012.028-.03.055-.056.081s-.054.046-.086.063c-.072.035-.139.043-.2.023s-.111-.068-.147-.139c-.023-.046-.034-.092-.034-.137s.012-.085.035-.12.057-.065.098-.086c.061-.031.118-.034.172-.012s.099.067.133.136l.015.03zm-.283-.087c-.035.019-.058.043-.069.077s-.006.07.009.114l.237-.117c-.023-.042-.049-.068-.079-.08s-.063-.011-.098.006zm.503-.335c.107-.053.191-.02.251.101l.138.279-.093.045-.137-.273c-.018-.039-.039-.063-.064-.072a.1.1 0 0 0-.082.007c-.037.019-.062.046-.074.08s-.008.072.012.11l.127.256-.093.045-.223-.449.091-.046.036.072c.001-.034.012-.066.03-.092a.27.27 0 0 1 .081-.063zm.718.227c-.046.023-.09.032-.133.03s-.081-.017-.118-.041a.3.3 0 0 1-.087-.109c-.023-.046-.034-.092-.034-.137a.24.24 0 0 1 .038-.123c.025-.037.06-.066.106-.089.03-.015.064-.024.098-.029s.066-.001.093.006l.005.082c-.057-.014-.107-.01-.152.012s-.07.052-.079.092-.003.084.023.136.056.082.093.099.078.012.121-.009.078-.06.101-.112l.061.054c-.011.027-.029.053-.052.079s-.054.042-.084.059zm.245-.13l-.224-.45.094-.046.223.45-.093.046zm-.329-.648l.107-.053.047.096-.107.054-.047-.097zm.511-.016c.059-.029.111-.037.156-.022s.081.054.111.115l.138.278-.089.045-.036-.075c.001.032-.007.061-.023.087s-.04.044-.071.06-.059.023-.09.023-.058-.008-.083-.022-.042-.035-.056-.061c-.017-.032-.02-.063-.014-.089s.029-.055.064-.082a.85.85 0 0 1 .155-.092l.021-.011-.014-.026c-.016-.034-.036-.055-.059-.064s-.049-.005-.081.012c-.051.026-.095.066-.13.122l-.06-.052c.015-.029.038-.056.067-.082s.061-.049.094-.064zm.169.411c.034-.017.055-.041.066-.075s.006-.069-.012-.105l-.012-.025-.017.008c-.048.024-.084.044-.107.061s-.038.034-.045.049-.004.032.005.052.028.035.051.043.047.004.071-.008zm.525-.174c-.078.038-.15.05-.216.035l-.004-.081c.064.012.125.004.188-.026.031-.015.051-.031.061-.049s.012-.037.003-.055-.02-.026-.035-.029-.037-.003-.067.004l-.083.02c-.044.011-.082.011-.113 0s-.054-.032-.07-.064c-.02-.04-.02-.081 0-.122s.058-.075.111-.103c.032-.015.065-.026.1-.029a.27.27 0 0 1 .095.005l.004.079c-.061-.014-.116-.008-.164.015-.027.014-.047.031-.059.051s-.011.038-.002.057.019.026.034.03.035.003.06-.003l.085-.02c.049-.012.087-.012.118-.001s.054.032.07.064c.02.04.02.081-.001.121s-.06.073-.115.101zm-6.602-2.07c-.046-.016-.097.009-.113.055a.09.09 0 0 0 .055.113l.583.197-.892.442c-.045.022-.063.075-.04.12s.075.063.119.04l.892-.443-.196.583c-.015.046.009.097.057.114s.096-.01.113-.056l.266-.792c.016-.043-.009-.09-.052-.104l-.792-.269zm.616 2.342c.045.015.096-.009.113-.055a.09.09 0 0 0-.055-.113l-.583-.198.892-.442c.044-.021.062-.075.039-.119s-.074-.063-.119-.04l-.892.442.196-.583a.09.09 0 0 0-.057-.113c-.045-.015-.096.009-.113.055l-.266.793c-.015.042.009.09.052.104l.793.269z" class="H"/><g class="F"><path d="M198.428 137.678l-.029-.058 14.438-7.163.029.058-14.438 7.163z" fill="#969595"/></g><path d="M204.276 136.548l.423-.21.038.077-.329.163.101.205.31-.154.039.078-.311.154.107.214.329-.163.038.076-.422.21-.323-.65zm1.162-.576l.321.649-.086.043-.232-.47-.013.462-.064.032-.373-.264.231.465-.086.043-.321-.649.076-.038.459.332.011-.565.077-.04zm.151-.075l.269-.133c.069-.033.13-.044.185-.029s.098.054.129.115.035.119.014.171-.066.097-.135.132l-.174.086.128.26-.095.047-.321-.649zm.413.184c.09-.044.116-.107.078-.187s-.104-.094-.194-.05l-.164.081.118.237.162-.081zm.187-.482l.422-.209.038.076-.329.164.101.205.311-.155.038.078-.311.155.108.214.328-.164.039.077-.423.209-.322-.65zm1.26.087l.039.078-.473.234-.035-.07.105-.678-.355.176-.038-.078.464-.229.033.069-.105.679.365-.181zm.487-.344l-.329.164.011.194-.097.048-.033-.793.079-.04.611.505-.095.048-.147-.126zm-.071-.06l-.284-.241.02.373.264-.132zm.924-.165l-.105.052-.214-.153c-.023-.015-.046-.024-.068-.024s-.045.006-.073.018l-.107.054.133.267-.093.046-.322-.648.276-.138c.072-.035.134-.047.188-.034s.096.051.127.112a.2.2 0 0 1 .018.144c-.012.046-.041.085-.088.119.036-.006.075.005.114.032l.214.153zm-.431-.214c.047-.024.078-.05.092-.08s.011-.065-.009-.104-.045-.062-.077-.068-.072.001-.121.026l-.171.085.113.228.173-.087z" fill="#1669b2"/><path d="M200.763 143.4l18.695-9.274c.318-.158.702-.028.862.289l6.335 12.77c.157.318.027.702-.289.861l-18.695 9.274c-.319.157-.703.027-.862-.289l-6.335-12.77a.64.64 0 0 1 .289-.861z" class="D"/><g class="F B"><path d="M221.785 137.361l-18.705 9.255.029.058 18.704-9.255-.028-.058z"/></g><g class="F B"><path d="M223.554 140.927l-18.704 9.255.028.058 18.705-9.256-.029-.057z"/></g><path d="M219.496 136.658l.118-.387-.38-.141.037-.119.497.183-.154.507-.118-.043zm1.771 3.566l.117-.387-.379-.141.037-.119.497.183-.155.507-.117-.043z" class="H"/><path d="M202.656 145.05c-.101.051-.195.063-.283.039v-.072a.35.35 0 0 0 .127.009c.04-.005.081-.018.126-.04.052-.026.087-.056.105-.09s.019-.07 0-.107c-.01-.022-.026-.035-.046-.043s-.042-.009-.068-.006-.06.009-.101.02c-.057.014-.104.021-.143.024s-.073-.003-.105-.017a.16.16 0 0 1-.077-.079c-.018-.037-.024-.074-.02-.112s.022-.075.051-.107.066-.063.113-.086.09-.035.136-.041.089-.001.13.011v.072c-.044-.011-.084-.016-.122-.011s-.075.014-.112.032c-.05.025-.084.055-.102.092s-.017.072.001.109.042.05.075.055a.39.39 0 0 0 .135-.014l.15-.028c.036-.004.072-.001.104.011s.058.037.078.075.024.073.018.112-.023.072-.05.105a.39.39 0 0 1-.12.087zm.536-.267c-.043.021-.084.03-.127.027s-.08-.018-.115-.044-.064-.064-.087-.11-.035-.092-.035-.135.01-.084.033-.119.055-.063.098-.084.084-.031.127-.028a.21.21 0 0 1 .115.045c.035.026.064.062.087.108s.035.092.035.136a.21.21 0 0 1-.033.118c-.023.037-.055.066-.098.086zm-.031-.061c.045-.022.071-.054.08-.094a.22.22 0 0 0-.028-.145c-.027-.055-.059-.09-.098-.109s-.079-.017-.124.005-.07.053-.079.095 0 .088.026.144.06.091.098.11.082.015.125-.006zm.352-.106l-.321-.649.075-.036.321.648-.075.037zm.214-.107l-.222-.448.075-.037.222.448-.075.037zm-.326-.638l.091-.044.041.084-.09.044-.042-.084zm.733.445c-.044.022-.087.032-.128.029a.21.21 0 0 1-.115-.043c-.035-.026-.063-.062-.087-.11a.29.29 0 0 1-.034-.136.22.22 0 0 1 .035-.121.24.24 0 0 1 .101-.087.3.3 0 0 1 .097-.028c.033-.004.064-.001.09.008l.003.067c-.06-.013-.11-.009-.155.013s-.075.055-.085.098-.003.091.024.146.06.089.101.106.084.014.13-.009.078-.06.104-.115l.052.043a.24.24 0 0 1-.05.078c-.025.026-.052.046-.083.061zm.248-.131l-.222-.449.075-.036.222.448-.075.037zm-.326-.638l.09-.045.042.084-.091.045-.041-.084zm.71.381a.41.41 0 0 0 .04-.023l.026.061c-.012.009-.028.018-.045.026-.053.027-.102.033-.143.018s-.074-.047-.1-.098l-.116-.235-.087.043-.029-.06.087-.043-.067-.136.075-.037.067.136.127-.062.029.058-.127.062.115.23c.033.073.084.092.148.06zm.096-.554c.057-.028.108-.035.149-.019s.078.052.108.112l.141.283-.073.037-.039-.077c.002.032-.006.062-.022.089s-.042.048-.072.063-.058.021-.089.023a.16.16 0 0 1-.081-.02c-.025-.014-.043-.034-.055-.058-.017-.034-.022-.065-.014-.091s.029-.055.064-.082.087-.06.158-.095l.02-.011-.016-.03c-.018-.037-.039-.061-.062-.069s-.054-.006-.088.011c-.052.026-.094.067-.13.123l-.052-.041a.36.36 0 0 1 .065-.081c.029-.031.058-.052.088-.067zm.173.422c.037-.018.061-.046.072-.081s.008-.075-.012-.115l-.014-.026-.017.008c-.053.027-.093.049-.119.069s-.043.036-.049.053-.005.035.006.055a.09.09 0 0 0 .055.048c.026.004.052.001.078-.011zm.419-.635l-.045.029c-.045.028-.071.058-.08.094a.15.15 0 0 0 .015.105l.127.256-.075.036-.221-.448.073-.037.038.078c0-.064.034-.117.106-.16l.026-.016.036.063zm.775-.157l-.328.162c.029.05.063.084.101.098s.083.009.129-.016c.052-.026.091-.067.117-.124l.052.042c-.01.027-.029.055-.053.081s-.054.046-.086.063c-.07.035-.134.041-.196.019s-.108-.068-.143-.14a.3.3 0 0 1-.034-.135c0-.044.011-.084.034-.119s.055-.065.096-.084c.06-.029.116-.034.17-.011s.096.067.13.134l.011.03zm-.283-.095c-.04.02-.065.047-.077.084s-.008.078.011.124l.26-.129c-.025-.044-.052-.073-.086-.087s-.07-.011-.108.008zm.653.185c-.075.037-.146.047-.208.03l-.003-.067c.033.008.064.009.093.005s.06-.014.09-.031a.18.18 0 0 0 .068-.053c.012-.02.012-.042.001-.063s-.021-.029-.038-.034-.04-.003-.071.005l-.084.02c-.042.01-.078.01-.108-.002s-.054-.032-.069-.063c-.02-.039-.02-.079-.002-.119s.055-.073.107-.099c.031-.016.065-.025.097-.029a.2.2 0 0 1 .092.007l.001.068c-.058-.016-.112-.01-.16.015-.031.015-.054.033-.065.055s-.012.041-.001.063.021.029.036.035.039.004.065-.002l.085-.02c.046-.01.086-.01.115-.001s.054.03.069.063c.02.039.018.078-.002.117s-.053.072-.108.1zm.453-.3c.013-.006.026-.014.039-.023l.026.061c-.012.009-.027.019-.044.026-.053.028-.102.034-.144.019s-.073-.048-.099-.098l-.116-.236-.088.043-.029-.058.087-.043-.067-.136.075-.037.067.136.127-.063.029.06-.126.063.114.229c.034.071.084.089.149.057zm.096-.554c.057-.029.107-.035.148-.018s.078.052.109.111l.141.284-.074.036-.038-.076c.002.032-.006.061-.023.088s-.041.048-.072.063-.058.022-.088.023-.057-.006-.082-.02a.14.14 0 0 1-.055-.058c-.016-.034-.021-.064-.013-.09s.029-.055.064-.083.087-.059.157-.095l.02-.01-.015-.031c-.018-.037-.04-.061-.063-.069s-.053-.006-.087.011a.32.32 0 0 0-.13.124l-.052-.041a.34.34 0 0 1 .064-.082c.029-.03.058-.052.089-.067zm.173.421c.037-.018.061-.046.072-.081s.007-.075-.012-.115l-.014-.026-.017.008a.7.7 0 0 0-.119.069c-.026.018-.043.036-.049.053s-.005.035.006.055c.012.025.03.04.055.048s.052.003.078-.011zm.437-.959l.322.648-.075.037-.042-.083c0 .036-.009.068-.027.095s-.044.051-.08.069-.079.028-.119.022-.076-.02-.11-.048-.063-.064-.086-.112-.035-.09-.035-.133.009-.081.029-.116.051-.061.09-.079.069-.025.103-.023.064.013.092.035l-.138-.279.076-.033zm.083.697c.043-.021.07-.053.078-.093s0-.09-.027-.145-.06-.091-.098-.109-.078-.015-.123.006-.07.054-.079.095 0 .089.026.142.059.092.099.11.081.016.124-.006zm.566-.203c-.043.021-.084.03-.127.027s-.079-.018-.115-.044-.064-.064-.087-.11-.035-.092-.035-.135a.22.22 0 0 1 .034-.119c.023-.035.055-.063.098-.084s.084-.031.127-.028a.21.21 0 0 1 .114.045c.035.026.065.062.087.108s.036.092.036.136-.011.083-.034.118-.055.066-.098.086zm-.03-.061c.044-.022.07-.054.079-.094s0-.09-.027-.145-.06-.09-.098-.109-.08-.016-.124.005-.071.053-.08.095 0 .089.026.144.06.091.098.11.081.015.126-.006zm.665-1.07l.321.649-.075.037-.041-.083c0 .035-.009.067-.028.095s-.044.05-.079.069-.08.027-.119.021a.21.21 0 0 1-.111-.047c-.033-.028-.062-.065-.085-.112s-.035-.09-.035-.133.009-.081.029-.116.05-.062.09-.08.069-.024.102-.023.065.014.092.035l-.137-.278.076-.034zm.083.698c.044-.022.07-.054.078-.093s0-.091-.028-.146-.06-.09-.098-.108-.078-.016-.122.006-.071.053-.08.095 0 .088.026.142.06.092.1.11.081.015.124-.006zm.647-.517l-.328.162c.029.05.063.084.101.098s.083.009.129-.015c.052-.026.092-.068.118-.124l.052.041a.26.26 0 0 1-.054.081c-.026.026-.053.046-.086.063-.07.035-.134.041-.195.02s-.109-.069-.144-.141c-.023-.046-.034-.09-.034-.135s.011-.084.034-.119.055-.064.096-.084c.06-.029.116-.034.17-.011s.096.067.13.135l.011.029zm-.283-.094c-.04.02-.065.048-.077.085s-.007.078.011.124l.26-.129c-.024-.044-.052-.073-.086-.087s-.07-.012-.108.007zm.928.048c-.044.021-.087.032-.128.029s-.08-.017-.115-.043-.063-.063-.087-.11-.035-.092-.034-.136.012-.086.035-.121.057-.066.101-.087c.031-.016.063-.025.097-.028s.064-.001.09.008l.003.067c-.06-.014-.11-.009-.154.012s-.075.055-.086.098-.003.092.024.147.06.089.101.106a.15.15 0 0 0 .13-.009c.045-.022.078-.06.104-.115l.052.043a.24.24 0 0 1-.05.078.3.3 0 0 1-.083.061zm.403-.767l.222.449-.074.036-.038-.076c-.002.034-.011.064-.029.092s-.043.047-.075.064c-.054.026-.101.032-.142.015s-.078-.053-.106-.111l-.138-.279.075-.037.138.276c.02.04.043.066.067.076s.055.008.089-.009c.04-.02.064-.047.076-.084s.007-.078-.013-.119l-.126-.253.074-.04zm.63-.019l-.327.162c.029.05.062.084.101.098s.082.009.128-.016a.25.25 0 0 0 .118-.124l.052.042a.26.26 0 0 1-.054.081c-.026.026-.053.046-.085.063-.071.035-.135.041-.196.019s-.109-.068-.144-.14a.3.3 0 0 1-.034-.135c0-.044.011-.084.034-.119s.055-.065.096-.084c.06-.03.117-.034.17-.011s.097.067.13.134l.011.03zm-.283-.095c-.04.02-.064.047-.077.084s-.007.078.011.124l.26-.129c-.024-.044-.052-.073-.085-.087s-.071-.011-.109.008zm.496-.319c.107-.053.189-.021.249.098l.139.282-.075.037-.137-.277c-.022-.042-.045-.068-.071-.08s-.056-.008-.092.009-.067.049-.079.088-.008.078.014.12l.127.257-.075.037-.222-.448.073-.037.037.074a.17.17 0 0 1 .031-.094c.021-.026.047-.049.081-.066zm.696.161c.014-.006.026-.014.04-.023l.026.061c-.013.01-.028.019-.045.026-.053.028-.102.034-.144.019s-.073-.048-.099-.098l-.116-.236-.088.043-.029-.058.088-.043-.068-.136.075-.037.068.136.127-.062.029.058-.127.062.114.23c.034.072.084.09.149.058zm.096-.554c.057-.027.107-.035.149-.018s.078.052.108.112l.141.283-.074.036-.038-.076c.002.032-.006.061-.023.089s-.041.047-.072.062-.058.022-.088.023a.16.16 0 0 1-.081-.02c-.025-.013-.043-.033-.056-.058-.016-.033-.021-.064-.013-.09s.029-.055.064-.083a.96.96 0 0 1 .158-.094l.019-.011-.015-.031c-.018-.036-.04-.061-.063-.069s-.053-.006-.087.011a.32.32 0 0 0-.13.124l-.052-.041c.015-.028.037-.055.064-.081.029-.031.059-.052.089-.068zm.173.421c.037-.018.061-.046.072-.081s.008-.075-.012-.115l-.014-.026-.017.008c-.053.027-.093.049-.119.069s-.043.036-.049.053-.005.035.006.055.03.04.055.048.052.003.078-.011z" class="B"/><path d="M203.895 148.063l.257-.127c.068-.034.128-.043.183-.029s.097.052.127.113.035.118.014.17-.066.096-.133.128l-.182.09.131.267-.075.036-.322-.648zm.408.196c.099-.049.127-.117.084-.204s-.113-.104-.211-.055l-.174.086.128.257.173-.084zm.439-.381c.057-.029.107-.036.148-.019s.078.052.109.112l.141.283-.074.037-.038-.077c.002.032-.006.061-.023.089s-.041.046-.072.063-.058.021-.088.023-.057-.007-.082-.02-.042-.034-.055-.058c-.016-.034-.021-.065-.013-.091s.029-.055.064-.082a.91.91 0 0 1 .157-.095l.02-.011-.015-.03c-.018-.037-.04-.062-.063-.069s-.053-.006-.087.01c-.052.026-.095.068-.13.124l-.052-.041c.015-.028.037-.055.064-.081s.058-.052.089-.067zm.173.422c.037-.019.061-.046.072-.081s.007-.075-.012-.115l-.014-.026-.017.008c-.054.027-.093.049-.119.069s-.043.036-.049.053-.005.035.006.055.03.04.055.048.052.001.078-.011zm.54-.762l.207.418c.033.067.041.125.022.177s-.059.093-.127.127c-.078.038-.154.052-.227.038l-.004-.067c.04.005.075.005.106 0s.063-.014.095-.031c.043-.021.069-.049.079-.084s.005-.073-.016-.116l-.04-.08c.001.036-.008.068-.028.097s-.046.052-.082.069-.08.027-.12.024-.075-.018-.11-.043a.28.28 0 0 1-.082-.104c-.022-.044-.034-.087-.034-.128s.011-.08.032-.113.052-.06.092-.08a.19.19 0 0 1 .104-.023c.034.002.064.014.092.035l-.039-.078.08-.038zm-.028.479c.043-.022.071-.052.08-.092s.003-.087-.021-.138-.057-.082-.095-.098-.08-.015-.123.008-.07.054-.081.095-.003.086.022.135.056.084.096.101.08.01.122-.011zm.343-.649c.057-.029.107-.035.149-.018s.078.052.108.111l.141.284-.074.036-.038-.076c.002.032-.006.061-.023.088s-.041.046-.072.063-.058.022-.088.023a.16.16 0 0 1-.081-.02c-.025-.014-.043-.033-.056-.058-.016-.034-.021-.064-.013-.09s.029-.055.064-.083.087-.059.158-.095l.019-.01-.015-.031c-.018-.037-.04-.061-.063-.069s-.053-.006-.087.011a.32.32 0 0 0-.13.124l-.052-.041a.34.34 0 0 1 .064-.082.33.33 0 0 1 .089-.067zm.173.422a.13.13 0 0 0 .072-.081c.011-.036.008-.075-.012-.114l-.014-.026-.017.007-.119.069c-.026.018-.043.037-.049.054s-.005.035.006.055.031.039.055.047.05.002.078-.011zm.419-.634l-.046.029c-.044.027-.07.058-.079.093a.15.15 0 0 0 .015.105l.127.256-.075.037-.222-.449.074-.036.038.078c0-.065.034-.118.105-.161l.026-.015.037.063zm.182-.407l.075-.037.321.649-.074.036-.322-.648zm.69-.094l.222.449-.073.036-.039-.076c0 .033-.01.064-.029.092s-.043.047-.075.064c-.053.026-.101.032-.142.015s-.078-.053-.105-.112l-.138-.278.075-.037.137.276c.02.039.043.065.068.076s.055.008.089-.009c.039-.02.064-.047.076-.084s.006-.078-.014-.12l-.125-.252.073-.04zm.687.146l.029.059-.379.188-.026-.052.111-.477-.27.135-.029-.06.361-.179.027.054-.111.472.287-.14zm.644-.511l-.327.162c.029.05.063.084.101.098s.082.009.128-.016a.25.25 0 0 0 .118-.124l.052.042c-.011.027-.029.055-.053.081s-.054.046-.086.063c-.07.035-.135.041-.196.019s-.109-.068-.144-.14c-.023-.046-.033-.091-.033-.135s.01-.084.033-.119.055-.064.097-.084c.059-.029.116-.034.169-.011s.097.067.13.135l.011.029zm-.283-.095c-.04.02-.064.047-.076.084s-.008.078.01.124l.26-.129c-.024-.044-.052-.073-.085-.087s-.071-.012-.109.008zm.176-.396l.075-.037.321.648-.075.037-.321-.648zm.806.143l-.327.163c.027.05.063.084.101.097s.083.01.128-.015a.25.25 0 0 0 .118-.124l.052.042c-.01.027-.029.055-.053.081a.35.35 0 0 1-.086.062c-.07.036-.135.042-.196.02s-.108-.069-.144-.141a.29.29 0 0 1-.033-.134c0-.045.01-.084.033-.119a.23.23 0 0 1 .097-.085c.059-.029.116-.033.17-.01s.096.067.13.134l.01.029zm-.283-.094c-.039.019-.064.047-.076.084s-.008.078.011.124l.26-.129c-.025-.044-.052-.073-.086-.087s-.07-.012-.109.008zm-.079-.094l-.002-.231.086-.043-.034.248-.05.026zm.771.259a.26.26 0 0 1-.129.029c-.041-.003-.081-.017-.114-.043s-.063-.063-.088-.11-.035-.092-.033-.136.012-.086.035-.121.057-.066.101-.087c.03-.016.063-.025.096-.028s.065-.001.091.008l.003.067c-.06-.014-.111-.009-.155.012s-.075.055-.086.098-.003.092.025.147.06.089.101.106.084.013.13-.01.078-.059.104-.114l.052.043c-.011.027-.028.053-.051.078s-.052.045-.082.061zm.419-.283c.014-.006.026-.014.04-.023l.026.061c-.012.009-.028.018-.045.026-.053.028-.102.034-.143.018s-.074-.047-.1-.098l-.116-.235-.087.043-.029-.058.087-.043-.067-.136.074-.037.068.136.127-.063.029.058-.127.063.115.23c.033.071.082.09.148.058zm.2-.525l-.045.029c-.045.028-.071.058-.08.093s-.003.071.015.106l.127.255-.075.037-.222-.448.074-.037.038.078c0-.064.034-.118.104-.16l.026-.016.038.063zm.045-.089l.075-.036.222.448-.075.036-.222-.448zm-.014-.234l.041.084-.09.045-.041-.084.09-.045zm.643.49c-.045.021-.088.032-.129.029s-.081-.017-.115-.043-.062-.063-.087-.11a.29.29 0 0 1-.034-.136c0-.045.013-.086.036-.121s.056-.066.101-.087c.03-.016.062-.025.096-.028s.064-.001.09.008l.003.067c-.059-.014-.11-.009-.154.012s-.075.055-.086.098-.003.092.025.147.059.089.101.106.084.013.13-.01.078-.059.104-.114l.052.043c-.011.027-.028.053-.051.078s-.052.045-.082.061zm.202-.681c.056-.029.107-.035.148-.018s.078.052.109.111l.14.283-.073.037-.038-.076c.001.032-.007.061-.023.088s-.042.046-.072.063-.058.021-.089.023a.16.16 0 0 1-.081-.02c-.025-.014-.043-.034-.055-.058-.017-.034-.022-.064-.014-.09s.029-.055.064-.083a.97.97 0 0 1 .158-.095l.02-.011-.016-.03c-.018-.037-.039-.061-.062-.069s-.054-.006-.087.011a.32.32 0 0 0-.13.124l-.052-.042a.33.33 0 0 1 .064-.081c.029-.03.058-.052.089-.067zm.171.421c.037-.019.061-.046.072-.081s.007-.075-.012-.115l-.014-.026-.017.007-.119.069c-.026.019-.043.037-.049.054s-.005.035.006.055.03.04.055.047.052.003.078-.01z" class="B"/><g class="F B"><path d="M206.647 153.813l-.028-.058 18.694-9.274.029.058-18.695 9.274z"/></g><path d="M223.035 143.79l.118-.387-.38-.141.037-.119.497.183-.154.507-.118-.043z" class="H"/><path d="M206.195 152.183c-.101.05-.195.062-.283.038l.002-.072c.046.011.087.014.125.009s.081-.018.126-.04c.052-.026.087-.056.105-.09s.019-.07 0-.107c-.01-.021-.026-.035-.046-.043s-.042-.009-.068-.006-.06.009-.101.02c-.057.014-.104.021-.143.024s-.073-.003-.105-.016-.057-.042-.077-.08-.024-.075-.02-.112.022-.075.051-.107.066-.062.113-.085.09-.037.136-.042a.31.31 0 0 1 .13.013v.071c-.043-.01-.084-.015-.122-.01s-.075.014-.112.032c-.05.024-.084.055-.102.092s-.017.072.001.11c.016.032.042.05.075.055s.078-.002.135-.015l.15-.028c.037-.005.072 0 .104.011s.058.037.078.075a.18.18 0 0 1 .018.111c-.004.037-.021.072-.05.106s-.071.061-.12.086zm.536-.268c-.043.021-.084.031-.127.027s-.08-.018-.115-.044-.064-.064-.087-.11-.035-.092-.035-.135.01-.084.033-.119.057-.063.098-.084.084-.031.127-.028.081.019.115.046a.3.3 0 0 1 .087.109c.023.046.035.092.035.136s-.01.083-.033.118-.055.064-.098.084zm-.031-.061c.045-.022.071-.054.08-.094s0-.09-.028-.145-.059-.09-.098-.109-.079-.016-.124.007-.07.053-.079.094 0 .089.026.144.06.092.098.11.081.014.125-.007zm.352-.106l-.321-.648.075-.037.321.648-.075.037zm.214-.105l-.222-.449.075-.036.222.448-.075.037zm-.326-.64l.091-.044.041.084-.09.044-.042-.084zm.733.445c-.044.022-.087.032-.128.029a.21.21 0 0 1-.115-.042.31.31 0 0 1-.086-.109c-.023-.046-.035-.092-.033-.136s.012-.086.035-.121.056-.064.101-.087c.03-.016.063-.025.096-.028a.23.23 0 0 1 .092.008l.003.067c-.06-.014-.112-.009-.154.012s-.075.057-.086.1-.003.092.024.147.06.088.101.105.084.014.13-.009.078-.06.103-.116l.052.043c-.011.027-.028.053-.051.078s-.053.044-.084.059zm.248-.131l-.222-.448.075-.037.222.448-.075.037zm-.326-.638l.091-.045.041.085-.09.044-.042-.084zm.71.381c.014-.006.026-.014.04-.023l.026.061a.3.3 0 0 1-.044.026c-.054.028-.101.034-.144.018s-.074-.047-.1-.098l-.116-.235-.087.043-.029-.058.087-.043-.067-.136.075-.037.067.136.127-.063.029.058-.127.063.115.23c.033.072.084.09.148.058zm.096-.553c.057-.029.108-.035.149-.019s.078.052.108.111l.141.283-.073.037-.038-.076c.001.032-.007.061-.023.088s-.042.048-.072.063-.058.021-.089.023-.057-.008-.081-.02-.043-.034-.055-.058c-.017-.034-.022-.064-.014-.09s.029-.055.064-.083.088-.06.158-.095l.02-.011-.016-.03c-.018-.037-.039-.061-.062-.069s-.054-.006-.087.011a.32.32 0 0 0-.13.124l-.053-.042a.36.36 0 0 1 .065-.081c.029-.03.058-.052.088-.066zm.173.421a.13.13 0 0 0 .072-.081c.011-.037.008-.075-.012-.115l-.014-.027-.017.007-.119.069c-.026.019-.043.037-.049.054s-.004.035.006.056.031.04.055.048.052.001.078-.011zm.42-.635l-.046.029c-.045.028-.071.059-.08.094s-.003.07.015.105l.127.256-.075.036-.221-.448.073-.037.038.079c-.001-.065.034-.12.106-.161l.026-.015.037.062zm.696.155c-.045.021-.088.032-.129.029s-.081-.017-.115-.043-.062-.063-.085-.109-.035-.091-.034-.136.012-.085.035-.121.057-.064.101-.087c.031-.015.063-.024.097-.027s.064-.002.091.007l.003.068a.22.22 0 0 0-.154.012c-.046.023-.075.056-.086.099s-.003.092.025.147.059.089.101.106a.15.15 0 0 0 .13-.009c.043-.022.078-.06.102-.117l.052.043a.22.22 0 0 1-.05.078.34.34 0 0 1-.084.06zm.247-.132l-.321-.648.075-.037.321.649-.075.036zm.169-.655c.056-.029.107-.035.148-.019s.078.052.109.111l.14.283-.073.037-.038-.076c.001.032-.006.061-.023.088s-.041.048-.072.063-.058.021-.089.023-.056-.006-.081-.02a.14.14 0 0 1-.055-.058c-.017-.034-.021-.064-.014-.09s.029-.055.065-.083a.91.91 0 0 1 .157-.095l.02-.011-.015-.03c-.019-.037-.04-.061-.063-.069s-.054-.006-.087.011a.32.32 0 0 0-.13.124l-.052-.042a.33.33 0 0 1 .064-.081c.029-.029.058-.05.089-.066zm.173.421c.036-.018.061-.046.072-.081s.007-.075-.013-.115l-.013-.027-.017.007-.12.069c-.026.019-.042.037-.049.054s-.004.035.007.056.03.04.055.048.052.003.078-.011zm.46-.72l.075-.037.029.543-.07.035-.415-.352.08-.039.332.292-.031-.442zm.638-.025l-.327.162c.029.051.062.084.101.098s.082.009.128-.015c.052-.026.092-.067.118-.126l.052.042c-.011.027-.028.055-.054.081s-.053.046-.085.063c-.071.035-.136.041-.196.019s-.109-.068-.144-.14a.3.3 0 0 1-.034-.135c0-.044.011-.084.034-.119s.055-.064.096-.084c.06-.029.117-.034.169-.011a.26.26 0 0 1 .13.135l.012.03zm-.283-.093c-.04.02-.064.047-.076.084s-.008.078.01.124l.26-.129c-.024-.044-.052-.073-.085-.087s-.071-.012-.109.008zm.811-.712l.321.649-.075.037-.04-.081c0 .035-.009.067-.027.095s-.045.05-.08.068-.078.028-.117.023-.077-.021-.111-.047a.33.33 0 0 1-.085-.112c-.023-.046-.036-.09-.036-.133s.01-.082.03-.116.05-.06.09-.08.069-.024.102-.023.065.014.092.036l-.138-.279.074-.037zm.084.698c.043-.021.07-.053.078-.093s0-.091-.028-.146-.059-.09-.097-.108-.078-.017-.123.006-.07.053-.079.095-.002.088.026.142.059.092.099.11.081.015.124-.006zm.646-.517l-.328.162c.029.051.063.084.101.098s.083.009.129-.015c.052-.026.091-.068.117-.126l.053.042c-.011.027-.028.055-.054.081s-.054.046-.086.062c-.07.036-.136.042-.196.02s-.108-.069-.143-.14a.3.3 0 0 1-.034-.135c0-.044.011-.084.034-.119s.055-.065.096-.085c.06-.029.116-.033.168-.01s.097.067.13.134l.013.031zm-.283-.093c-.04.02-.065.047-.077.084s-.008.078.011.124l.26-.129c-.025-.044-.052-.073-.086-.087s-.069-.012-.108.008zm.907-.017c.014-.006.026-.014.04-.023l.026.061c-.013.009-.028.018-.045.026-.053.028-.101.034-.144.018s-.073-.047-.099-.097l-.116-.236-.088.043-.029-.058.088-.043-.068-.136.075-.037.068.136.127-.063.029.058-.127.063.114.23c.034.072.083.09.149.058zm.096-.554c.057-.029.107-.035.149-.02s.078.052.108.112l.141.283-.074.037-.038-.077c.002.032-.006.061-.023.089s-.041.047-.072.063-.058.021-.088.022-.057-.007-.081-.019-.043-.034-.055-.059c-.017-.033-.022-.064-.014-.09s.029-.055.064-.082.087-.06.158-.095l.019-.011-.015-.031c-.018-.036-.04-.061-.063-.068s-.053-.007-.087.01c-.052.026-.095.068-.13.124l-.052-.041c.015-.028.037-.055.064-.081s.059-.051.089-.066zm.173.422c.037-.018.061-.046.072-.081s.008-.075-.012-.115l-.014-.027-.017.008a.95.95 0 0 0-.119.068c-.026.019-.043.037-.049.054s-.005.035.006.057.031.039.055.047.051.002.078-.011zm.419-.635l-.046.029c-.044.028-.07.059-.079.094s-.003.07.015.105l.127.256-.075.037-.222-.449.074-.036.038.078c-.002-.065.034-.12.106-.161l.026-.015.036.062zm.338.319c.028.055.036.104.022.143s-.048.077-.103.109l-.04.023-.033-.055.04-.023c.062-.037.078-.087.045-.152l-.224-.454.075-.037.218.446zm-.397-.599l.09-.044.041.084-.09.045-.041-.085zm.809.135l-.328.162c.03.051.063.084.101.098s.083.009.129-.015c.052-.026.092-.067.118-.126l.052.042c-.011.027-.028.055-.054.081a.32.32 0 0 1-.085.062c-.071.036-.137.042-.196.02s-.109-.068-.144-.14a.3.3 0 0 1-.034-.135c0-.044.011-.084.034-.119s.055-.065.096-.084c.06-.03.117-.034.169-.011s.096.067.13.134l.012.031zm-.283-.095c-.04.02-.064.048-.077.084s-.007.078.011.124l.26-.128c-.024-.045-.052-.074-.086-.087s-.07-.013-.108.007zm.667.103c.014-.006.026-.014.04-.023l.026.061-.045.026c-.053.027-.101.034-.144.018s-.073-.047-.099-.098l-.116-.235-.087.043-.03-.058.088-.043-.068-.136.075-.037.068.136.127-.063.029.058-.127.063.114.23c.033.071.083.09.149.058zm.096-.553c.057-.029.107-.035.149-.019s.078.052.108.111l.141.283-.073.037-.039-.077c.002.033-.006.062-.023.089s-.041.048-.072.063-.058.021-.088.023-.057-.008-.081-.02-.043-.034-.055-.058c-.017-.034-.022-.064-.014-.09s.029-.055.064-.083.087-.06.158-.095l.02-.011-.016-.03c-.018-.037-.04-.061-.062-.069s-.054-.006-.088.011a.32.32 0 0 0-.13.124l-.052-.042a.36.36 0 0 1 .065-.081c.029-.03.058-.05.088-.066zm.172.421c.036-.018.061-.046.071-.081s.008-.075-.012-.115l-.014-.027-.016.007a.89.89 0 0 0-.12.069c-.026.019-.043.037-.049.054s-.004.035.006.056.031.04.056.048.052.003.078-.011z" class="B"/><path d="M201.265 108.033l-.049-.098a.42.42 0 0 1-.135.026c-.038 0-.076-.012-.116-.037s-.074-.059-.103-.108l.089-.068c.034.049.066.081.096.095.045.022.088.025.127.009l-.153-.309a.42.42 0 0 1-.145.014c-.04-.001-.075-.014-.107-.037s-.058-.053-.077-.091c-.033-.069-.038-.138-.009-.205.019-.045.058-.088.12-.126l-.023-.046.056-.029.023.046a.26.26 0 0 1 .159-.017.25.25 0 0 1 .149.107l-.094.066c-.024-.035-.052-.058-.079-.07s-.06-.012-.095-.003l.139.28a.72.72 0 0 1 .112-.02c.037-.002.07.001.098.012s.055.024.078.046.043.047.058.078c.034.067.04.135.02.2s-.064.118-.13.155l.049.098-.058.032zm-.423-.852c-.035.024-.058.055-.067.09s-.006.07.011.103.04.056.069.068.07.016.12.006l-.133-.267zm.39.644c.036-.023.059-.055.071-.097a.16.16 0 0 0-.015-.122c-.019-.035-.042-.06-.069-.072s-.072-.015-.133-.006l.146.297z" class="E"/><path d="M201.517 107.537l.089-.055c.029.04.061.064.093.074s.066.004.101-.013.052-.035.069-.059.024-.052.027-.083a.37.37 0 0 0-.009-.11c-.009-.043-.024-.086-.044-.126-.003-.004-.006-.01-.011-.019-.004.041-.018.079-.043.114s-.056.065-.094.083c-.066.032-.134.037-.202.011a.29.29 0 0 1-.161-.155c-.04-.081-.049-.156-.025-.229s.071-.127.143-.162c.052-.027.105-.036.162-.03s.109.031.156.071.095.108.144.206a.81.81 0 0 1 .087.259c.008.07-.003.133-.031.185s-.07.093-.13.122a.25.25 0 0 1-.177.025c-.057-.014-.106-.051-.144-.109zm.225-.547c-.028-.057-.064-.094-.11-.111s-.09-.016-.132.005-.072.058-.087.109-.008.105.02.16.061.084.107.101.092.014.136-.009.075-.057.087-.102.006-.097-.021-.153z" class="E"/><path d="M202.016 107.032a.81.81 0 0 1-.082-.24c-.01-.067-.002-.125.019-.174s.063-.089.121-.118a.28.28 0 0 1 .124-.031c.04 0 .08.013.116.036a.45.45 0 0 1 .108.093.83.83 0 0 1 .11.179c.046.093.073.173.082.239s.003.125-.02.174-.062.089-.12.118c-.077.038-.15.04-.221.007-.084-.039-.163-.134-.237-.283zm.1-.05c.064.13.122.21.174.237s.099.031.145.009.072-.062.081-.121-.018-.153-.082-.281-.123-.21-.175-.237-.099-.031-.145-.008-.07.058-.08.11c-.01.063.017.161.082.291z" class="E"/><path d="M202.631 106.726a.81.81 0 0 1-.082-.24c-.009-.067-.002-.125.02-.174s.062-.089.12-.118c.043-.021.085-.031.124-.031s.08.013.117.036.072.053.107.093a.79.79 0 0 1 .11.179c.046.093.073.173.083.239a.31.31 0 0 1-.02.174c-.023.05-.063.089-.121.118-.077.038-.15.04-.221.007-.084-.039-.163-.134-.237-.283zm.1-.05c.064.13.122.21.174.237s.1.031.146.009.071-.062.081-.121-.019-.153-.083-.281-.122-.21-.174-.237-.1-.031-.146-.008-.07.058-.079.11c-.011.065.017.161.081.291z" class="E"/><path d="M202.597 110.748l-.046-.093a.38.38 0 0 1-.13.025.22.22 0 0 1-.112-.036.29.29 0 0 1-.098-.104l.085-.064c.032.046.062.077.093.092.043.02.082.023.122.009l-.147-.297a.39.39 0 0 1-.139.014c-.038-.001-.072-.014-.102-.035s-.055-.051-.074-.089c-.033-.066-.036-.131-.009-.196.018-.042.057-.082.115-.12l-.022-.045.055-.027.022.044c.056-.021.109-.028.153-.017.058.014.105.048.142.103l-.089.062c-.024-.033-.049-.056-.076-.067s-.058-.012-.09-.003l.133.269c.052-.012.088-.018.107-.018.035-.002.067.001.095.012s.052.025.075.045.041.044.055.074c.032.065.038.129.018.193s-.061.113-.125.149l.047.094-.058.026zm-.405-.816c-.034.022-.056.052-.065.085s-.006.068.009.1.039.053.068.067.067.015.116.006l-.128-.258zm.374.618c.034-.023.057-.054.068-.092s.006-.078-.014-.118c-.017-.034-.038-.057-.066-.069s-.07-.014-.128-.006l.14.285z" class="B"/><path d="M202.592 109.792l-.044-.09.492-.245.036.072a1.14 1.14 0 0 0-.042.277 1.39 1.39 0 0 0 .02.318c.012.074.035.149.069.227l-.096.047a1.05 1.05 0 0 1-.072-.234 1.25 1.25 0 0 1-.025-.294 1.22 1.22 0 0 1 .036-.266l-.374.188z" class="B"/><path d="M203.317 109.788c-.044-.091-.072-.167-.08-.231s-.003-.12.02-.169.06-.085.117-.113a.27.27 0 0 1 .119-.029c.038.002.076.012.112.034a.42.42 0 0 1 .104.09.79.79 0 0 1 .105.171c.045.089.071.166.08.23s.003.119-.019.168-.059.086-.116.113c-.073.037-.144.039-.211.006-.084-.036-.159-.128-.231-.27zm.096-.048c.062.126.118.201.169.228s.096.029.139.008.069-.06.078-.116-.018-.147-.08-.271-.117-.201-.168-.228-.096-.029-.139-.008-.067.057-.075.106c-.012.062.015.156.076.281z" class="B"/><path d="M203.908 109.494a.75.75 0 0 1-.08-.231.29.29 0 0 1 .02-.168c.022-.048.06-.086.116-.114.042-.019.082-.029.12-.029a.24.24 0 0 1 .111.034c.036.021.071.051.105.09s.068.097.105.172c.044.088.07.165.08.229a.29.29 0 0 1-.019.168.23.23 0 0 1-.116.114c-.073.036-.144.038-.211.006-.083-.037-.159-.127-.231-.271zm.096-.047c.061.125.118.2.169.227s.096.03.139.008.069-.06.078-.116-.019-.147-.08-.271-.118-.2-.167-.228-.096-.029-.139-.008a.13.13 0 0 0-.075.106c-.013.064.014.158.075.282zm.314 4.769l-.046-.093c-.049.017-.093.026-.128.025s-.074-.013-.112-.036-.07-.058-.098-.104l.086-.064c.032.046.062.077.093.092.043.02.083.023.122.009l-.146-.297a.42.42 0 0 1-.14.014c-.038-.002-.072-.014-.102-.035s-.055-.051-.074-.089c-.032-.066-.036-.131-.009-.196.019-.043.057-.082.115-.121l-.022-.044.056-.027.021.044c.057-.022.109-.028.153-.017.058.014.106.047.142.103l-.088.062c-.023-.033-.049-.056-.077-.067s-.058-.012-.092-.003l.133.269c.054-.012.089-.018.107-.018.036-.002.068.001.095.011s.052.024.075.044.042.046.055.075c.032.064.039.128.019.193a.25.25 0 0 1-.126.148l.046.095-.058.027zm-.405-.817a.15.15 0 0 0-.065.086c-.009.034-.006.067.011.1s.038.053.066.067.067.015.116.006l-.128-.259zm.374.618c.034-.022.057-.053.066-.091a.17.17 0 0 0-.014-.118c-.016-.034-.038-.057-.065-.069s-.069-.014-.127-.006l.14.284z" class="B"/><path d="M205.079 113.591l.045.09-.504.249c-.012-.023-.018-.046-.021-.07-.005-.04 0-.084.011-.132s.033-.105.064-.176a1.09 1.09 0 0 0 .087-.244c.009-.054.006-.098-.012-.135s-.048-.061-.086-.074-.079-.007-.122.014-.074.054-.087.094-.01.084.015.133l-.101.038c-.029-.075-.031-.142-.006-.2s.072-.106.145-.143.141-.044.204-.026.108.06.137.12c.016.03.025.064.026.099a.42.42 0 0 1-.015.124c-.012.047-.038.115-.078.205l-.06.15c-.007.024-.012.047-.013.07l.371-.186z" class="B"/><path d="M205.039 113.256c-.045-.091-.071-.167-.08-.231s-.003-.12.02-.169.06-.085.116-.113c.042-.02.081-.029.12-.029s.076.012.111.034.071.05.104.09.069.096.107.171c.045.089.071.166.08.23s.003.119-.018.168a.23.23 0 0 1-.117.113c-.073.037-.143.039-.211.008-.085-.038-.162-.129-.232-.272zm.096-.048c.061.126.118.201.168.228s.097.029.14.008.068-.06.076-.116-.018-.147-.079-.271-.118-.201-.169-.228-.096-.029-.139-.008-.069.057-.075.106c-.011.062.015.156.078.281z" class="B"/><path d="M205.63 112.963c-.045-.09-.071-.166-.08-.231a.29.29 0 0 1 .02-.168c.021-.047.06-.086.116-.113a.27.27 0 0 1 .119-.029c.04.001.077.012.112.034s.071.05.104.09.069.096.107.171c.045.089.071.165.08.23s.003.119-.019.168-.059.086-.116.113c-.073.037-.144.038-.211.008-.086-.04-.162-.13-.232-.273zm.096-.047c.061.125.118.2.167.228s.096.029.139.008.069-.06.078-.117-.018-.147-.08-.27-.117-.201-.168-.228-.096-.029-.139-.008a.13.13 0 0 0-.075.106c-.011.062.015.156.078.281z" class="B"/></g><g class="G"><path d="M199.917 125.024c-.799 2.395-2.503 4.831-3.741 5.888-1.952 1.667-4.051 2.085-4.959 2.21-.158.158-1.01.98-2.362.98-.856 0-1.711-.326-2.363-.98a3.34 3.34 0 0 1 0-4.724l8.248-8.247c1.305-1.305 3.419-1.305 4.726 0 1.145 1.146 1.077 2.997.451 4.873z"/><path d="M197.591 138.781c0 6.501-3.351 11.771-7.484 11.771s-6.686-4.837-6.819-11.771c-.124-6.5 2.685-11.77 6.819-11.77s7.484 5.27 7.484 11.77zm16.953-15.696c-1.547-.635-2.286-2.403-1.65-3.948l2.312-5.629c.635-1.546 2.404-2.285 3.949-1.649s2.285 2.403 1.649 3.949l-2.312 5.628c-.633 1.545-2.402 2.284-3.948 1.649z"/><path d="M217.334 128.453c-1.547-.635-2.286-2.403-1.649-3.948l2.311-5.628c.635-1.547 2.404-2.286 3.949-1.65s2.285 2.404 1.649 3.949l-2.312 5.628c-.633 1.547-2.402 2.284-3.948 1.649z"/><path d="M219.621 133.719c-1.547-.635-2.286-2.403-1.649-3.949l2.311-5.628c.635-1.547 2.404-2.285 3.949-1.649s2.285 2.403 1.649 3.949l-2.312 5.628c-.633 1.545-2.401 2.284-3.948 1.649z"/></g><path d="M78.971 132.065s-3.984-15.936-16.991-15.232" stroke="#d2006e" stroke-width="2.011" stroke-miterlimit="10"/></svg>