<svg width="55" height="53" viewBox="0 0 55 53" fill="none" xmlns="http://www.w3.org/2000/svg">
<g id="Group 48095664">
<path id="Vector" d="M27.109 0.00634766C21.7674 0.00634766 16.6953 1.57568 12.4044 4.50583C12.4044 4.50583 12.0743 4.72532 11.5517 5.11491C11.5022 5.15332 11.4527 5.19173 11.3977 5.23014C11.1997 5.37829 10.9851 5.54839 10.7486 5.74044C10.7046 5.77337 10.6605 5.80629 10.6165 5.83921C10.6165 5.83921 10.622 5.83921 10.6275 5.83921C9.43378 6.80496 7.85495 8.23711 6.59518 9.91618C2.9479 14.5035 0.956482 20.1662 0.956482 26.0924C0.956482 32.8087 3.50352 39.1793 8.13551 44.0464C8.23453 44.1068 8.33905 44.1616 8.43807 44.222C8.53709 44.2769 8.63061 44.3372 8.73513 44.3921C8.84516 44.4525 8.95518 44.5073 9.0652 44.5677C9.16422 44.6226 9.26325 44.6774 9.36777 44.7268C9.47779 44.7872 9.58782 44.8366 9.69784 44.8914C9.80236 44.9408 9.90138 44.9957 10.0059 45.0451C10.1159 45.0999 10.2315 45.1493 10.3415 45.1987C10.446 45.2481 10.5505 45.292 10.655 45.3414C10.7706 45.3908 10.8806 45.4347 10.9961 45.484C11.1006 45.5279 11.2107 45.5718 11.3152 45.6157C11.4252 45.6596 11.5462 45.7035 11.6618 45.7474C11.7663 45.7858 11.8763 45.8297 11.9863 45.8682C12.1018 45.9066 12.2174 45.945 12.3329 45.9834C12.4429 46.0218 12.5474 46.0602 12.663 46.0931C12.7785 46.1315 12.8995 46.1645 13.015 46.1974C13.1251 46.2303 13.2351 46.2632 13.3506 46.2962C13.4661 46.3291 13.5872 46.3565 13.7082 46.3894C13.8182 46.4169 13.9282 46.4498 14.0383 46.4717C14.1593 46.5047 14.2803 46.5266 14.4013 46.5541C14.5114 46.576 14.6214 46.6034 14.7314 46.6254C14.8524 46.6528 14.979 46.6748 15.1 46.6967C15.21 46.7187 15.32 46.7406 15.4301 46.7626C15.5566 46.7845 15.6831 46.801 15.8096 46.8229C15.9197 46.8394 16.0242 46.8558 16.1342 46.8723C16.2662 46.8888 16.3983 46.9052 16.5303 46.9217C16.6348 46.9327 16.7393 46.9491 16.8439 46.9601C16.9814 46.9711 17.1244 46.982 17.2619 46.9985C17.361 47.004 17.46 47.015 17.559 47.0205C17.7185 47.0314 17.8836 47.0369 18.0431 47.0479C18.1201 47.0479 18.1971 47.0589 18.2742 47.0589C18.5162 47.0644 18.7528 47.0698 18.9948 47.0698C21.7344 47.0698 24.397 46.5486 26.9165 45.5279C29.7056 44.3921 32.2031 42.6856 34.2661 40.5182C34.9537 39.7938 35.5863 39.0202 36.1695 38.2026C36.3125 38.005 36.45 37.802 36.5821 37.599C36.6261 37.5386 36.6591 37.4783 36.7031 37.4179C36.8021 37.2697 36.8956 37.1161 36.9891 36.9625C37.0276 36.9021 37.0662 36.8417 37.0992 36.7814C37.2202 36.5784 37.3412 36.3699 37.4567 36.1558C37.4677 36.1284 37.4842 36.1065 37.4952 36.079C37.5998 35.8925 37.6988 35.7004 37.7978 35.5084C37.8308 35.4425 37.8583 35.3767 37.8913 35.3163C37.9738 35.1462 38.0564 34.9761 38.1334 34.8115C38.1554 34.7566 38.1829 34.7072 38.2049 34.6524C38.2984 34.4439 38.3919 34.2299 38.4744 34.0159C37.9683 34.7347 37.3907 35.4151 36.7416 36.0406C34.1395 38.5483 30.7123 39.931 27.0925 39.931C23.4728 39.931 20.0455 38.5483 17.4435 36.0406C14.8469 33.5385 13.3451 30.1803 13.2241 26.5917C13.2241 26.4765 13.2241 26.3667 13.2241 26.257V26.0979C13.2241 25.9332 13.2241 25.7741 13.2296 25.6095C13.2516 24.6383 13.3396 23.678 13.4826 22.7287C13.4826 22.7232 13.4826 22.7123 13.4826 22.7123C13.5212 22.4708 13.5597 22.2294 13.6037 21.988C13.6147 21.9386 13.6257 21.8892 13.6367 21.8398C13.6752 21.6533 13.7137 21.4667 13.7522 21.2801C13.7742 21.1868 13.7962 21.0881 13.8182 20.9893C13.8457 20.8741 13.8732 20.7588 13.9007 20.6436C13.9447 20.479 13.9888 20.3199 14.0328 20.1553C14.0603 20.0675 14.0823 19.9797 14.1098 19.8919C14.1648 19.7108 14.2253 19.5242 14.2803 19.3432C14.3023 19.2718 14.3243 19.206 14.3518 19.1346C14.4178 18.9371 14.4839 18.745 14.5554 18.5475C14.5774 18.4926 14.5939 18.4378 14.6159 18.3829C14.6929 18.1799 14.7754 17.9768 14.8579 17.7738C14.8744 17.7299 14.8909 17.686 14.9129 17.6421C15.001 17.4336 15.0945 17.2251 15.188 17.0166C15.2045 16.9837 15.221 16.9453 15.232 16.9123C15.331 16.6983 15.4356 16.4843 15.5456 16.2703L15.5896 16.188C15.6996 15.974 15.8151 15.7545 15.9307 15.5405C15.9417 15.5186 15.9527 15.4966 15.9692 15.4747C16.0902 15.2552 16.2112 15.0412 16.3432 14.8272C16.3543 14.8107 16.3653 14.7943 16.3763 14.7778C16.5083 14.5638 16.6458 14.3443 16.7888 14.1303C16.7888 14.1194 16.7998 14.1084 16.8108 14.1029C16.9539 13.8834 17.1079 13.6639 17.2564 13.4444C17.3995 13.2414 17.5535 13.0384 17.702 12.8354C17.7515 12.7695 17.8011 12.7037 17.8506 12.6433C17.9551 12.5116 18.0596 12.3744 18.1641 12.2482C18.2246 12.1714 18.2907 12.1001 18.3567 12.0233C18.4557 11.908 18.5547 11.7873 18.6537 11.6776C18.7253 11.6007 18.7913 11.5239 18.8628 11.4471C18.9618 11.3374 19.0608 11.2276 19.1598 11.1234C19.2314 11.0465 19.3029 10.9697 19.3799 10.8929C19.4789 10.7886 19.5779 10.6844 19.6825 10.5856C19.7595 10.5088 19.8365 10.4375 19.908 10.3661C20.0125 10.2674 20.1171 10.1631 20.2216 10.0643C20.2986 9.993 20.3756 9.92167 20.4526 9.85034C20.5626 9.75157 20.6727 9.6528 20.7882 9.55952C20.8652 9.49367 20.9422 9.42783 21.0137 9.36198C21.1348 9.26321 21.2558 9.16444 21.3768 9.06567C21.4483 9.00531 21.5198 8.95044 21.5914 8.89008C21.7344 8.78034 21.8719 8.67608 22.015 8.56634C22.07 8.52793 22.1305 8.47855 22.1855 8.44014C22.3835 8.29198 22.5871 8.14931 22.7961 8.00665C22.8236 7.99019 22.8511 7.96824 22.8786 7.95178C23.0547 7.83106 23.2362 7.71034 23.4178 7.59511C23.4893 7.55121 23.5608 7.50732 23.6323 7.46342C23.7753 7.37562 23.9074 7.29332 24.0504 7.21101C24.1329 7.16162 24.2209 7.11224 24.3089 7.06285C24.3419 7.0409 24.3805 7.02444 24.4135 7.00249C25.0516 6.65132 26.4709 5.91055 28.2093 5.31793C28.2203 5.31793 28.2368 5.30696 28.2478 5.30696C28.3248 5.27952 28.4073 5.25209 28.4898 5.23014C28.5723 5.2027 28.6604 5.17527 28.7484 5.14783C28.8254 5.12039 28.9079 5.09845 28.9849 5.07101C29.0785 5.04906 29.161 5.02163 29.2545 4.99419C29.3315 4.97224 29.414 4.95029 29.491 4.92834C29.5791 4.90639 29.6671 4.87896 29.7606 4.85701C29.8376 4.83506 29.9201 4.81311 29.9972 4.79665C30.0852 4.7747 30.1732 4.75824 30.2557 4.73629C30.3382 4.71983 30.4207 4.69788 30.5033 4.68142C30.5968 4.65947 30.6903 4.64301 30.7783 4.62106C30.8553 4.6046 30.9378 4.58814 31.0149 4.57168C31.1084 4.55521 31.2019 4.53875 31.2954 4.52229C31.3724 4.50583 31.4495 4.49486 31.532 4.47839C31.6255 4.46742 31.719 4.45096 31.818 4.4345C31.8951 4.42352 31.9721 4.41255 32.0491 4.39609C32.1481 4.38511 32.2416 4.36865 32.3406 4.35768C32.4177 4.3467 32.4947 4.33573 32.5717 4.32475C32.6707 4.31378 32.7697 4.3028 32.8688 4.29183C32.9458 4.28086 33.0228 4.27537 33.0943 4.2644C33.1933 4.25342 33.2979 4.24793 33.3969 4.24245C33.4684 4.23696 33.5454 4.22598 33.6169 4.22598C33.7214 4.21501 33.8315 4.21501 33.936 4.20404C34.0075 4.20404 34.0735 4.19306 34.145 4.19306C34.2606 4.18757 34.3816 4.18209 34.5026 4.18209C34.5576 4.18209 34.6126 4.18209 34.6731 4.1766C34.8547 4.1766 35.0307 4.1766 35.2013 4.1766C35.4268 4.1766 35.6524 4.1766 35.8779 4.18757C35.9384 4.18757 36.0044 4.18757 36.0704 4.19306C36.252 4.19855 36.428 4.20952 36.6041 4.2205C36.6536 4.2205 36.7086 4.22598 36.7581 4.23147C36.9836 4.24793 37.2037 4.26439 37.4237 4.29183C37.4677 4.29183 37.5173 4.30281 37.5668 4.30829C37.7483 4.33024 37.9243 4.3467 38.1004 4.37414C38.1609 4.37963 38.2269 4.3906 38.2874 4.40157C38.4965 4.42901 38.7055 4.46193 38.9145 4.50034C38.9255 4.50034 38.9421 4.50034 38.9531 4.50583C39.1731 4.54424 39.3931 4.58814 39.6132 4.63204C39.6737 4.64301 39.7287 4.65947 39.7892 4.67045C39.9598 4.70886 40.1303 4.74727 40.3063 4.78568C40.3559 4.80214 40.4109 4.80763 40.4659 4.82409C40.6804 4.87896 40.895 4.93383 41.1095 4.99419C41.148 5.00516 41.192 5.01614 41.2305 5.02711C41.4066 5.0765 41.5826 5.13137 41.7586 5.18624C41.8192 5.20819 41.8797 5.22465 41.9402 5.2466C42.1272 5.30696 42.3143 5.36732 42.5013 5.43316C42.5288 5.44414 42.5508 5.44963 42.5783 5.45511C42.7874 5.53193 42.9909 5.60875 43.2 5.68557C43.2605 5.70752 43.3155 5.72947 43.3705 5.75691C43.4475 5.78434 43.5245 5.81727 43.6015 5.8447C38.9586 2.05855 33.2153 0.00634766 27.109 0.00634766Z" fill="#D2006E"/>
<path id="Vector_2" d="M27.8909 52.7652C33.2325 52.7652 38.2991 51.1958 42.5955 48.2657C42.5955 48.2657 42.9256 48.0462 43.4482 47.6566C43.4977 47.6182 43.5472 47.5798 43.6022 47.5414C43.8003 47.3932 44.0148 47.2231 44.2514 47.0311C44.2954 46.9981 44.3394 46.9652 44.3834 46.9323C44.3834 46.9323 44.3779 46.9323 44.3724 46.9323C45.5661 45.9611 47.145 44.5344 48.4047 42.8553C52.0575 38.2626 54.0434 32.5998 54.0434 26.6736C54.0434 19.9573 51.4964 13.5867 46.8644 8.71961C46.7654 8.65925 46.6664 8.60438 46.5618 8.54402C46.4628 8.48366 46.3638 8.42879 46.2648 8.37391C46.1548 8.31356 46.0447 8.25868 45.9347 8.19832C45.8357 8.14345 45.7367 8.08858 45.6321 8.0392C45.5221 7.97884 45.4121 7.92945 45.3021 7.87458C45.1976 7.8252 45.0985 7.77033 44.994 7.72094C44.884 7.66607 44.7685 7.61668 44.6584 7.5673C44.5539 7.51791 44.4494 7.47402 44.3449 7.42463C44.2294 7.37525 44.1193 7.33135 44.0038 7.28745C43.8993 7.24356 43.7893 7.19966 43.6847 7.15576C43.5747 7.11186 43.4537 7.06797 43.3382 7.02407C43.2336 6.98566 43.1236 6.94176 43.0136 6.90335C42.8981 6.86494 42.7825 6.82653 42.667 6.78812C42.557 6.74971 42.4525 6.7113 42.3369 6.67838C42.2214 6.63997 42.1004 6.60704 41.9849 6.57412C41.8749 6.5412 41.7648 6.50827 41.6493 6.47535C41.5338 6.44243 41.4128 6.41499 41.2917 6.38207C41.1817 6.35463 41.0717 6.32171 40.9617 6.29976C40.8406 6.26684 40.7196 6.24489 40.5986 6.21745C40.4886 6.19551 40.3785 6.16807 40.2685 6.14612C40.1475 6.11869 40.021 6.09674 39.8999 6.07479C39.7899 6.05284 39.6799 6.03089 39.5699 6.00894C39.4433 5.98699 39.3168 5.97053 39.1903 5.94858C39.0803 5.93212 38.9702 5.91566 38.8657 5.8992C38.7337 5.88274 38.6017 5.86628 38.4696 5.84981C38.3651 5.83884 38.2606 5.82238 38.1561 5.8114C38.0185 5.80043 37.8755 5.78946 37.738 5.77299C37.639 5.76751 37.5399 5.75653 37.4409 5.75104C37.2814 5.74007 37.1163 5.73458 36.9568 5.72361C36.8798 5.72361 36.8028 5.71263 36.7258 5.71263C36.4837 5.70715 36.2472 5.70166 36.0051 5.70166C33.2655 5.70166 30.603 6.22294 28.0834 7.24356C25.2943 8.3794 22.7968 10.0859 20.7339 12.2533C20.0462 12.9777 19.4136 13.7513 18.8305 14.5689C18.6874 14.7665 18.5499 14.9695 18.4179 15.1725C18.3739 15.2329 18.3409 15.2932 18.2968 15.3536C18.1978 15.5018 18.1043 15.6554 18.0108 15.809C17.9723 15.8694 17.9338 15.9298 17.9008 15.9901C17.7797 16.1931 17.6587 16.4016 17.5432 16.6156C17.5322 16.6376 17.5157 16.665 17.5047 16.6925C17.4002 16.879 17.3011 17.0711 17.2076 17.2631C17.1746 17.329 17.1471 17.3948 17.1141 17.4552C17.0316 17.6253 16.9491 17.7954 16.872 17.9655C16.85 18.0204 16.8225 18.0698 16.8005 18.1246C16.7015 18.3331 16.6135 18.5471 16.5255 18.7611C17.0316 18.0423 17.6092 17.3619 18.2583 16.7364C20.8604 14.2287 24.2876 12.846 27.9074 12.846C31.5272 12.846 34.9544 14.2287 37.5564 16.7364C40.153 19.2385 41.6548 22.5967 41.7758 26.1853C41.7758 26.3005 41.7758 26.4103 41.7758 26.52V26.6791C41.7758 26.8437 41.7758 27.0029 41.7703 27.1675C41.7483 28.1387 41.6603 29.099 41.5173 30.0483C41.5173 30.0537 41.5173 30.0647 41.5173 30.0702C41.4788 30.3116 41.4403 30.5531 41.3962 30.7945C41.3852 30.8439 41.3742 30.8933 41.3632 30.9427C41.3247 31.1292 41.2862 31.3158 41.2477 31.5024C41.2257 31.5956 41.2037 31.6944 41.1817 31.7932C41.1542 31.9084 41.1267 32.0236 41.0992 32.1389C41.0552 32.3035 41.0112 32.4626 40.9672 32.6272C40.9397 32.715 40.9176 32.8028 40.8901 32.8906C40.8351 33.0717 40.7801 33.2582 40.7196 33.4393C40.6976 33.5107 40.6756 33.5765 40.6481 33.6478C40.5821 33.8454 40.5161 34.0374 40.4445 34.235C40.4225 34.2898 40.406 34.3447 40.384 34.3996C40.307 34.6026 40.2245 34.8056 40.142 35.0141C40.1255 35.058 40.109 35.1019 40.087 35.1404C39.9989 35.3489 39.9054 35.5629 39.8119 35.7659C39.7954 35.7988 39.7789 35.8372 39.7679 35.8701C39.6689 36.0841 39.5644 36.2981 39.4543 36.5121L39.4103 36.5945C39.3003 36.8139 39.1848 37.0279 39.0693 37.2419C39.0583 37.2639 39.0472 37.2858 39.0307 37.3078C38.9097 37.5273 38.7887 37.7413 38.6567 37.9553C38.6457 37.9717 38.6347 37.9882 38.6237 38.0047C38.4916 38.2187 38.3541 38.4381 38.2111 38.6521C38.2111 38.6631 38.2001 38.6741 38.1891 38.6796C38.046 38.8991 37.892 39.1186 37.7435 39.338C37.6004 39.5411 37.4464 39.7441 37.2979 39.9416C37.2484 40.0075 37.1989 40.0733 37.1493 40.1337C37.0448 40.2654 36.9403 40.4025 36.8358 40.5288C36.7753 40.6056 36.7093 40.6769 36.6432 40.7537C36.5442 40.869 36.4452 40.9897 36.3462 41.0994C36.2747 41.1762 36.2086 41.2531 36.1371 41.3299C36.0381 41.4396 35.9391 41.5494 35.8401 41.6536C35.7686 41.7304 35.697 41.8073 35.62 41.8841C35.521 41.9883 35.422 42.0926 35.3175 42.1914C35.2404 42.2682 35.1634 42.3395 35.0919 42.4109C34.9874 42.5096 34.8829 42.6139 34.7783 42.7072C34.7013 42.7785 34.6243 42.8498 34.5473 42.9212C34.4373 43.0199 34.3272 43.1187 34.2117 43.212C34.1347 43.2778 34.0577 43.3437 33.9862 43.4095C33.8651 43.5083 33.7441 43.6071 33.6231 43.7058C33.5516 43.7662 33.4801 43.8211 33.4086 43.8814C33.2655 43.9912 33.128 44.0954 32.985 44.2052C32.93 44.2491 32.8694 44.293 32.8144 44.3314C32.6164 44.4795 32.4128 44.6222 32.2038 44.7649C32.1763 44.7813 32.1488 44.8033 32.1213 44.8197C31.9452 44.9404 31.7637 45.0612 31.5822 45.1764C31.5106 45.2203 31.4391 45.2642 31.3676 45.3081C31.2246 45.3959 31.0926 45.4782 30.9495 45.5605C30.867 45.6099 30.779 45.6593 30.691 45.7087C30.658 45.7306 30.6195 45.7471 30.5865 45.769C29.9483 46.1202 28.529 46.8555 26.7906 47.4536C26.7796 47.4536 26.7631 47.4645 26.7521 47.4645C26.6751 47.492 26.5926 47.5194 26.5101 47.5469C26.4276 47.5743 26.3396 47.6017 26.2515 47.6292C26.1745 47.6511 26.092 47.6785 26.015 47.706C25.9215 47.7279 25.8389 47.7554 25.7454 47.7828C25.6684 47.8048 25.5859 47.8267 25.5089 47.8486C25.4209 47.8706 25.3328 47.898 25.2393 47.92C25.1623 47.9419 25.0798 47.9584 25.0028 47.9803C24.9147 48.0023 24.8267 48.0187 24.7442 48.0407C24.6617 48.0572 24.5792 48.0791 24.4967 48.0956C24.4031 48.1175 24.3096 48.134 24.2216 48.1504C24.1446 48.1669 24.0621 48.1834 23.9851 48.1998C23.8915 48.2163 23.798 48.2327 23.7045 48.2492C23.6275 48.2657 23.5505 48.2766 23.4679 48.2931C23.3744 48.3041 23.2809 48.3205 23.1819 48.337C23.1049 48.348 23.0278 48.3644 22.9508 48.3754C22.8518 48.3864 22.7583 48.4029 22.6593 48.4138C22.5823 48.4248 22.5052 48.4358 22.4282 48.4468C22.3292 48.4577 22.2302 48.4687 22.1312 48.4797C22.0541 48.4906 21.9826 48.4961 21.9056 48.5071C21.8066 48.5181 21.7021 48.5236 21.603 48.5291C21.5315 48.5345 21.4545 48.54 21.383 48.5455C21.2785 48.5565 21.1685 48.562 21.0639 48.5675C20.9924 48.5675 20.9264 48.5784 20.8549 48.5784C20.7394 48.5839 20.6183 48.5894 20.4973 48.5894C20.4423 48.5894 20.3818 48.5894 20.3268 48.5949C20.1452 48.5949 19.9692 48.5949 19.7987 48.5949C19.5731 48.5949 19.3476 48.5949 19.122 48.5839C19.0615 48.5839 18.9955 48.5839 18.9295 48.5784C18.7479 48.573 18.5719 48.562 18.3959 48.551C18.3464 48.551 18.2913 48.5455 18.2418 48.54C18.0218 48.5236 17.7962 48.5071 17.5762 48.4797C17.5322 48.4797 17.4827 48.4687 17.4332 48.4632C17.2516 48.4413 17.0756 48.4248 16.8995 48.3974C16.839 48.3919 16.773 48.3809 16.7125 48.3699C16.5035 48.3425 16.2944 48.3096 16.0854 48.2712C16.0744 48.2712 16.0579 48.2712 16.0469 48.2657C15.8268 48.2273 15.6068 48.1834 15.3867 48.1395C15.3262 48.1285 15.2712 48.112 15.2107 48.1011C15.0402 48.0626 14.8696 48.0242 14.6936 47.9858C14.6441 47.9694 14.5891 47.9639 14.534 47.9474C14.3195 47.8925 14.105 47.8377 13.8904 47.7773C13.8519 47.7663 13.8079 47.7554 13.7694 47.7444C13.5933 47.695 13.4173 47.6401 13.2413 47.5853C13.1808 47.5633 13.1202 47.5469 13.0597 47.5249C12.8727 47.4645 12.6856 47.4042 12.4986 47.3383C12.4711 47.3274 12.4491 47.3219 12.4216 47.3164C12.2125 47.2451 12.009 47.1628 11.8 47.0859C11.7394 47.064 11.6844 47.042 11.6294 47.0146C11.5524 46.9872 11.4754 46.9542 11.3984 46.9268C16.0414 50.713 21.7846 52.7597 27.8909 52.7597" fill="#D2006E"/>
</g>
</svg>
