<svg width="55" height="53" viewBox="0 0 55 53" fill="none" xmlns="http://www.w3.org/2000/svg">
<path d="M27.1096 0.00622559C21.768 0.00622559 16.6959 1.57556 12.405 4.50571C12.405 4.50571 12.0749 4.7252 11.5523 5.11479C11.5028 5.1532 11.4533 5.19161 11.3982 5.23002C11.2002 5.37817 10.9857 5.54827 10.7491 5.74032C10.7051 5.77325 10.6611 5.80617 10.6171 5.83909C10.6171 5.83909 10.6226 5.83909 10.6281 5.83909C9.43433 6.80483 7.8555 8.23699 6.59573 9.91606C2.94845 14.5033 0.957031 20.1661 0.957031 26.0923C0.957031 32.8086 3.50407 39.1792 8.13606 44.0463C8.23508 44.1066 8.3396 44.1615 8.43862 44.2219C8.53764 44.2767 8.63116 44.3371 8.73568 44.392C8.84571 44.4523 8.95573 44.5072 9.06575 44.5676C9.16477 44.6224 9.2638 44.6773 9.36832 44.7267C9.47834 44.7871 9.58836 44.8364 9.69839 44.8913C9.80291 44.9407 9.90193 44.9956 10.0065 45.045C10.1165 45.0998 10.232 45.1492 10.342 45.1986C10.4465 45.248 10.5511 45.2919 10.6556 45.3413C10.7711 45.3906 10.8811 45.4345 10.9967 45.4839C11.1012 45.5278 11.2112 45.5717 11.3157 45.6156C11.4258 45.6595 11.5468 45.7034 11.6623 45.7473C11.7668 45.7857 11.8769 45.8296 11.9869 45.868C12.1024 45.9064 12.2179 45.9449 12.3334 45.9833C12.4435 46.0217 12.548 46.0601 12.6635 46.093C12.779 46.1314 12.9001 46.1643 13.0156 46.1973C13.1256 46.2302 13.2356 46.2631 13.3512 46.296C13.4667 46.329 13.5877 46.3564 13.7087 46.3893C13.8188 46.4167 13.9288 46.4497 14.0388 46.4716C14.1598 46.5045 14.2809 46.5265 14.4019 46.5539C14.5119 46.5759 14.6219 46.6033 14.732 46.6253C14.853 46.6527 14.9795 46.6746 15.1005 46.6966C15.2106 46.7185 15.3206 46.7405 15.4306 46.7624C15.5571 46.7844 15.6837 46.8008 15.8102 46.8228C15.9202 46.8393 16.0247 46.8557 16.1348 46.8722C16.2668 46.8886 16.3988 46.9051 16.5308 46.9216C16.6354 46.9325 16.7399 46.949 16.8444 46.96C16.9819 46.971 17.125 46.9819 17.2625 46.9984C17.3615 47.0039 17.4605 47.0149 17.5596 47.0203C17.7191 47.0313 17.8841 47.0368 18.0437 47.0478C18.1207 47.0478 18.1977 47.0587 18.2747 47.0587C18.5168 47.0642 18.7533 47.0697 18.9954 47.0697C21.7349 47.0697 24.3975 46.5484 26.917 45.5278C29.7061 44.392 32.2037 42.6855 34.2666 40.518C34.9543 39.7937 35.5869 39.02 36.17 38.2024C36.313 38.0049 36.4506 37.8019 36.5826 37.5989C36.6266 37.5385 36.6596 37.4781 36.7036 37.4178C36.8026 37.2696 36.8962 37.116 36.9897 36.9623C37.0282 36.902 37.0667 36.8416 37.0997 36.7813C37.2207 36.5782 37.3418 36.3697 37.4573 36.1557C37.4683 36.1283 37.4848 36.1063 37.4958 36.0789C37.6003 35.8923 37.6993 35.7003 37.7984 35.5082C37.8314 35.4424 37.8589 35.3766 37.8919 35.3162C37.9744 35.1461 38.0569 34.976 38.1339 34.8114C38.1559 34.7565 38.1834 34.7071 38.2054 34.6522C38.299 34.4437 38.3925 34.2297 38.475 34.0157C37.9689 34.7346 37.3913 35.415 36.7421 36.0405C34.1401 38.5481 30.7129 39.9309 27.0931 39.9309C23.4733 39.9309 20.0461 38.5481 17.444 36.0405C14.8475 33.5383 13.3457 30.1802 13.2246 26.5916C13.2246 26.4764 13.2246 26.3666 13.2246 26.2569V26.0977C13.2246 25.9331 13.2246 25.774 13.2301 25.6094C13.2521 24.6382 13.3402 23.6779 13.4832 22.7286C13.4832 22.7231 13.4832 22.7122 13.4832 22.7122C13.5217 22.4707 13.5602 22.2293 13.6042 21.9878C13.6152 21.9385 13.6262 21.8891 13.6372 21.8397C13.6757 21.6531 13.7142 21.4666 13.7527 21.28C13.7748 21.1867 13.7968 21.0879 13.8188 20.9892C13.8463 20.874 13.8738 20.7587 13.9013 20.6435C13.9453 20.4789 13.9893 20.3197 14.0333 20.1551C14.0608 20.0673 14.0828 19.9795 14.1103 19.8917C14.1653 19.7107 14.2258 19.5241 14.2809 19.343C14.3029 19.2717 14.3249 19.2058 14.3524 19.1345C14.4184 18.937 14.4844 18.7449 14.5559 18.5474C14.5779 18.4925 14.5944 18.4376 14.6164 18.3828C14.6934 18.1797 14.776 17.9767 14.8585 17.7737C14.875 17.7298 14.8915 17.6859 14.9135 17.642C15.0015 17.4335 15.095 17.225 15.1886 17.0165C15.2051 16.9835 15.2216 16.9451 15.2326 16.9122C15.3316 16.6982 15.4361 16.4842 15.5461 16.2702L15.5901 16.1879C15.7002 15.9739 15.8157 15.7544 15.9312 15.5404C15.9422 15.5185 15.9532 15.4965 15.9697 15.4746C16.0907 15.2551 16.2118 15.0411 16.3438 14.8271C16.3548 14.8106 16.3658 14.7942 16.3768 14.7777C16.5088 14.5637 16.6464 14.3442 16.7894 14.1302C16.7894 14.1192 16.8004 14.1083 16.8114 14.1028C16.9544 13.8833 17.1085 13.6638 17.257 13.4443C17.4 13.2413 17.5541 13.0383 17.7026 12.8352C17.7521 12.7694 17.8016 12.7035 17.8511 12.6432C17.9556 12.5115 18.0602 12.3743 18.1647 12.2481C18.2252 12.1713 18.2912 12.1 18.3572 12.0231C18.4562 11.9079 18.5553 11.7872 18.6543 11.6774C18.7258 11.6006 18.7918 11.5238 18.8633 11.447C18.9624 11.3372 19.0614 11.2275 19.1604 11.1232C19.2319 11.0464 19.3034 10.9696 19.3804 10.8928C19.4795 10.7885 19.5785 10.6843 19.683 10.5855C19.76 10.5087 19.837 10.4373 19.9086 10.366C20.0131 10.2672 20.1176 10.163 20.2221 10.0642C20.2991 9.99288 20.3762 9.92155 20.4532 9.85022C20.5632 9.75145 20.6732 9.65268 20.7887 9.5594C20.8658 9.49355 20.9428 9.4277 21.0143 9.36186C21.1353 9.26309 21.2563 9.16432 21.3774 9.06555C21.4489 9.00519 21.5204 8.95032 21.5919 8.88996C21.7349 8.78022 21.8725 8.67596 22.0155 8.56622C22.0705 8.52781 22.131 8.47842 22.186 8.44001C22.3841 8.29186 22.5876 8.14919 22.7967 8.00653C22.8242 7.99006 22.8517 7.96812 22.8792 7.95165C23.0552 7.83094 23.2368 7.71022 23.4183 7.59499C23.4898 7.55109 23.5613 7.50719 23.6328 7.4633C23.7759 7.3755 23.9079 7.29319 24.0509 7.21089C24.1335 7.1615 24.2215 7.11212 24.3095 7.06273C24.3425 7.04078 24.381 7.02432 24.414 7.00237C25.0521 6.65119 26.4715 5.91043 28.2098 5.31781C28.2208 5.31781 28.2373 5.30684 28.2483 5.30684C28.3253 5.2794 28.4079 5.25196 28.4904 5.23002C28.5729 5.20258 28.6609 5.17514 28.7489 5.14771C28.826 5.12027 28.9085 5.09832 28.9855 5.07089C29.079 5.04894 29.1615 5.0215 29.255 4.99407C29.3321 4.97212 29.4146 4.95017 29.4916 4.92822C29.5796 4.90627 29.6676 4.87884 29.7611 4.85689C29.8382 4.83494 29.9207 4.81299 29.9977 4.79653C30.0857 4.77458 30.1737 4.75812 30.2563 4.73617C30.3388 4.71971 30.4213 4.69776 30.5038 4.6813C30.5973 4.65935 30.6908 4.64289 30.7789 4.62094C30.8559 4.60448 30.9384 4.58802 31.0154 4.57155C31.1089 4.55509 31.2025 4.53863 31.296 4.52217C31.373 4.50571 31.45 4.49473 31.5325 4.47827C31.626 4.4673 31.7196 4.45084 31.8186 4.43438C31.8956 4.4234 31.9726 4.41243 32.0496 4.39597C32.1487 4.38499 32.2422 4.36853 32.3412 4.35755C32.4182 4.34658 32.4952 4.33561 32.5722 4.32463C32.6713 4.31366 32.7703 4.30268 32.8693 4.29171C32.9463 4.28073 33.0233 4.27525 33.0949 4.26427C33.1939 4.2533 33.2984 4.24781 33.3974 4.24232C33.4689 4.23684 33.546 4.22586 33.6175 4.22586C33.722 4.21489 33.832 4.21489 33.9365 4.20391C34.0081 4.20391 34.0741 4.19294 34.1456 4.19294C34.2611 4.18745 34.3821 4.18197 34.5032 4.18197C34.5582 4.18197 34.6132 4.18197 34.6737 4.17648C34.8552 4.17648 35.0313 4.17648 35.2018 4.17648C35.4274 4.17648 35.6529 4.17648 35.8784 4.18745C35.939 4.18745 36.005 4.18745 36.071 4.19294C36.2525 4.19843 36.4286 4.2094 36.6046 4.22038C36.6541 4.22038 36.7091 4.22586 36.7586 4.23135C36.9842 4.24781 37.2042 4.26427 37.4243 4.29171C37.4683 4.29171 37.5178 4.30268 37.5673 4.30817C37.7488 4.33012 37.9249 4.34658 38.1009 4.37402C38.1614 4.3795 38.2274 4.39048 38.288 4.40145C38.497 4.42889 38.706 4.46181 38.9151 4.50022C38.9261 4.50022 38.9426 4.50022 38.9536 4.50571C39.1736 4.54412 39.3937 4.58802 39.6137 4.63191C39.6743 4.64289 39.7293 4.65935 39.7898 4.67032C39.9603 4.70873 40.1309 4.74714 40.3069 4.78555C40.3564 4.80202 40.4114 4.8075 40.4664 4.82396C40.681 4.87884 40.8955 4.93371 41.1101 4.99407C41.1486 5.00504 41.1926 5.01602 41.2311 5.02699C41.4071 5.07637 41.5832 5.13125 41.7592 5.18612C41.8197 5.20807 41.8802 5.22453 41.9407 5.24648C42.1278 5.30684 42.3148 5.3672 42.5019 5.43304C42.5294 5.44402 42.5514 5.4495 42.5789 5.45499C42.7879 5.53181 42.9915 5.60863 43.2005 5.68545C43.261 5.7074 43.316 5.72935 43.371 5.75678C43.4481 5.78422 43.5251 5.81714 43.6021 5.84458C38.9591 2.05843 33.2159 0.00622559 27.1096 0.00622559Z" fill="#E6E6E6"/>
<path d="M27.8909 52.765C33.2326 52.765 38.2992 51.1957 42.5956 48.2655C42.5956 48.2655 42.9256 48.0461 43.4482 47.6565C43.4978 47.6181 43.5473 47.5797 43.6023 47.5412C43.8003 47.3931 44.0149 47.223 44.2514 47.0309C44.2954 46.998 44.3394 46.9651 44.3834 46.9322C44.3834 46.9322 44.3779 46.9322 44.3724 46.9322C45.5662 45.9609 47.145 44.5343 48.4048 42.8552C52.0576 38.2624 54.0435 32.5997 54.0435 26.6735C54.0435 19.9572 51.4965 13.5866 46.8645 8.71948C46.7654 8.65913 46.6664 8.60425 46.5619 8.54389C46.4629 8.48354 46.3639 8.42866 46.2648 8.37379C46.1548 8.31343 46.0448 8.25856 45.9348 8.1982C45.8358 8.14333 45.7367 8.08846 45.6322 8.03907C45.5222 7.97872 45.4122 7.92933 45.3021 7.87446C45.1976 7.82507 45.0986 7.7702 44.9941 7.72082C44.8841 7.66595 44.7685 7.61656 44.6585 7.56718C44.554 7.51779 44.4495 7.4739 44.3449 7.42451C44.2294 7.37513 44.1194 7.33123 44.0039 7.28733C43.8993 7.24343 43.7893 7.19954 43.6848 7.15564C43.5748 7.11174 43.4537 7.06784 43.3382 7.02395C43.2337 6.98554 43.1237 6.94164 43.0137 6.90323C42.8981 6.86482 42.7826 6.82641 42.6671 6.788C42.5571 6.74959 42.4525 6.71118 42.337 6.67825C42.2215 6.63984 42.1005 6.60692 41.9849 6.574C41.8749 6.54108 41.7649 6.50815 41.6494 6.47523C41.5338 6.44231 41.4128 6.41487 41.2918 6.38195C41.1818 6.35451 41.0717 6.32159 40.9617 6.29964C40.8407 6.26672 40.7197 6.24477 40.5986 6.21733C40.4886 6.19538 40.3786 6.16795 40.2686 6.146C40.1475 6.11856 40.021 6.09661 39.9 6.07467C39.79 6.05272 39.6799 6.03077 39.5699 6.00882C39.4434 5.98687 39.3169 5.97041 39.1903 5.94846C39.0803 5.932 38.9703 5.91554 38.8658 5.89908C38.7337 5.88261 38.6017 5.86615 38.4697 5.84969C38.3652 5.83872 38.2606 5.82226 38.1561 5.81128C38.0186 5.80031 37.8756 5.78933 37.738 5.77287C37.639 5.76738 37.54 5.75641 37.441 5.75092C37.2814 5.73995 37.1164 5.73446 36.9569 5.72349C36.8799 5.72349 36.8028 5.71251 36.7258 5.71251C36.4838 5.70702 36.2472 5.70154 36.0052 5.70154C33.2656 5.70154 30.603 6.22282 28.0835 7.24343C25.2944 8.37928 22.7969 10.0858 20.7339 12.2532C20.0463 12.9775 19.4136 13.7512 18.8305 14.5688C18.6875 14.7663 18.55 14.9694 18.4179 15.1724C18.3739 15.2328 18.3409 15.2931 18.2969 15.3535C18.1979 15.5016 18.1044 15.6553 18.0108 15.8089C17.9723 15.8693 17.9338 15.9296 17.9008 15.99C17.7798 16.193 17.6588 16.4015 17.5432 16.6155C17.5322 16.6375 17.5157 16.6649 17.5047 16.6923C17.4002 16.8789 17.3012 17.071 17.2077 17.263C17.1747 17.3289 17.1472 17.3947 17.1142 17.4551C17.0316 17.6252 16.9491 17.7953 16.8721 17.9654C16.8501 18.0202 16.8226 18.0696 16.8006 18.1245C16.7016 18.333 16.6135 18.547 16.5255 18.761C17.0316 18.0422 17.6093 17.3618 18.2584 16.7362C20.8604 14.2286 24.2877 12.8458 27.9074 12.8458C31.5272 12.8458 34.9544 14.2286 37.5565 16.7362C40.153 19.2384 41.6549 22.5965 41.7759 26.1852C41.7759 26.3004 41.7759 26.4101 41.7759 26.5199V26.679C41.7759 26.8436 41.7759 27.0027 41.7704 27.1674C41.7484 28.1386 41.6604 29.0988 41.5173 30.0481C41.5173 30.0536 41.5173 30.0646 41.5173 30.0701C41.4788 30.3115 41.4403 30.5529 41.3963 30.7944C41.3853 30.8438 41.3743 30.8932 41.3633 30.9425C41.3248 31.1291 41.2863 31.3157 41.2478 31.5022C41.2258 31.5955 41.2038 31.6943 41.1818 31.7931C41.1543 31.9083 41.1268 32.0235 41.0992 32.1387C41.0552 32.3034 41.0112 32.4625 40.9672 32.6271C40.9397 32.7149 40.9177 32.8027 40.8902 32.8905C40.8352 33.0716 40.7802 33.2581 40.7197 33.4392C40.6977 33.5105 40.6757 33.5764 40.6482 33.6477C40.5821 33.8453 40.5161 34.0373 40.4446 34.2348C40.4226 34.2897 40.4061 34.3446 40.3841 34.3995C40.3071 34.6025 40.2246 34.8055 40.142 35.014C40.1255 35.0579 40.109 35.1018 40.087 35.1402C39.999 35.3487 39.9055 35.5627 39.812 35.7658C39.7955 35.7987 39.779 35.8371 39.768 35.87C39.6689 36.084 39.5644 36.298 39.4544 36.512L39.4104 36.5943C39.3004 36.8138 39.1848 37.0278 39.0693 37.2418C39.0583 37.2638 39.0473 37.2857 39.0308 37.3077C38.9098 37.5272 38.7888 37.7411 38.6567 37.9552C38.6457 37.9716 38.6347 37.9881 38.6237 38.0045C38.4917 38.2185 38.3542 38.438 38.2111 38.652C38.2111 38.663 38.2001 38.674 38.1891 38.6795C38.0461 38.8989 37.8921 39.1184 37.7435 39.3379C37.6005 39.5409 37.4465 39.744 37.2979 39.9415C37.2484 40.0074 37.1989 40.0732 37.1494 40.1336C37.0449 40.2652 36.9404 40.4024 36.8358 40.5286C36.7753 40.6055 36.7093 40.6768 36.6433 40.7536C36.5443 40.8688 36.4453 40.9896 36.3462 41.0993C36.2747 41.1761 36.2087 41.2529 36.1372 41.3298C36.0382 41.4395 35.9391 41.5493 35.8401 41.6535C35.7686 41.7303 35.6971 41.8071 35.6201 41.884C35.5211 41.9882 35.422 42.0925 35.3175 42.1912C35.2405 42.2681 35.1635 42.3394 35.092 42.4107C34.9874 42.5095 34.8829 42.6138 34.7784 42.707C34.7014 42.7784 34.6244 42.8497 34.5474 42.921C34.4373 43.0198 34.3273 43.1186 34.2118 43.2119C34.1348 43.2777 34.0578 43.3436 33.9862 43.4094C33.8652 43.5082 33.7442 43.6069 33.6232 43.7057C33.5516 43.7661 33.4801 43.8209 33.4086 43.8813C33.2656 43.991 33.1281 44.0953 32.985 44.205C32.93 44.2489 32.8695 44.2928 32.8145 44.3312C32.6164 44.4794 32.4129 44.6221 32.2039 44.7647C32.1763 44.7812 32.1488 44.8031 32.1213 44.8196C31.9453 44.9403 31.7638 45.061 31.5822 45.1763C31.5107 45.2202 31.4392 45.2641 31.3677 45.308C31.2246 45.3958 31.0926 45.4781 30.9496 45.5604C30.8671 45.6098 30.7791 45.6591 30.691 45.7085C30.658 45.7305 30.6195 45.7469 30.5865 45.7689C29.9484 46.1201 28.5291 46.8553 26.7907 47.4534C26.7797 47.4534 26.7632 47.4644 26.7522 47.4644C26.6752 47.4919 26.5927 47.5193 26.5101 47.5467C26.4276 47.5742 26.3396 47.6016 26.2516 47.629C26.1746 47.651 26.0921 47.6784 26.015 47.7059C25.9215 47.7278 25.839 47.7552 25.7455 47.7827C25.6685 47.8046 25.586 47.8266 25.5089 47.8485C25.4209 47.8705 25.3329 47.8979 25.2394 47.9199C25.1624 47.9418 25.0798 47.9583 25.0028 47.9802C24.9148 48.0022 24.8268 48.0186 24.7443 48.0406C24.6618 48.057 24.5792 48.079 24.4967 48.0954C24.4032 48.1174 24.3097 48.1339 24.2217 48.1503C24.1446 48.1668 24.0621 48.1832 23.9851 48.1997C23.8916 48.2162 23.7981 48.2326 23.7046 48.2491C23.6275 48.2655 23.5505 48.2765 23.468 48.293C23.3745 48.304 23.281 48.3204 23.1819 48.3369C23.1049 48.3479 23.0279 48.3643 22.9509 48.3753C22.8519 48.3863 22.7584 48.4027 22.6593 48.4137C22.5823 48.4247 22.5053 48.4357 22.4283 48.4466C22.3293 48.4576 22.2302 48.4686 22.1312 48.4795C22.0542 48.4905 21.9827 48.496 21.9057 48.507C21.8066 48.518 21.7021 48.5234 21.6031 48.5289C21.5316 48.5344 21.4546 48.5399 21.3831 48.5454C21.2785 48.5564 21.1685 48.5619 21.064 48.5673C20.9925 48.5673 20.9265 48.5783 20.8549 48.5783C20.7394 48.5838 20.6184 48.5893 20.4974 48.5893C20.4424 48.5893 20.3818 48.5893 20.3268 48.5948C20.1453 48.5948 19.9693 48.5948 19.7987 48.5948C19.5732 48.5948 19.3476 48.5948 19.1221 48.5838C19.0616 48.5838 18.9956 48.5838 18.9295 48.5783C18.748 48.5728 18.572 48.5619 18.3959 48.5509C18.3464 48.5509 18.2914 48.5454 18.2419 48.5399C18.0218 48.5234 17.7963 48.507 17.5762 48.4795C17.5322 48.4795 17.4827 48.4686 17.4332 48.4631C17.2517 48.4411 17.0756 48.4247 16.8996 48.3972C16.8391 48.3918 16.7731 48.3808 16.7126 48.3698C16.5035 48.3424 16.2945 48.3094 16.0854 48.271C16.0744 48.271 16.0579 48.271 16.0469 48.2655C15.8269 48.2271 15.6068 48.1832 15.3868 48.1393C15.3263 48.1284 15.2713 48.1119 15.2107 48.1009C15.0402 48.0625 14.8697 48.0241 14.6936 47.9857C14.6441 47.9692 14.5891 47.9638 14.5341 47.9473C14.3196 47.8924 14.105 47.8376 13.8905 47.7772C13.852 47.7662 13.808 47.7552 13.7694 47.7443C13.5934 47.6949 13.4174 47.64 13.2413 47.5851C13.1808 47.5632 13.1203 47.5467 13.0598 47.5248C12.8728 47.4644 12.6857 47.4041 12.4987 47.3382C12.4712 47.3272 12.4492 47.3218 12.4217 47.3163C12.2126 47.2449 12.0091 47.1626 11.8 47.0858C11.7395 47.0639 11.6845 47.0419 11.6295 47.0145C11.5525 46.987 11.4755 46.9541 11.3984 46.9267C16.0414 50.7128 21.7846 52.7595 27.8909 52.7595" fill="#E6E6E6"/>
</svg>
