<svg xmlns="http://www.w3.org/2000/svg" xmlns:xlink="http://www.w3.org/1999/xlink" width="248" height="248" fill="none" xmlns:v="https://vecta.io/nano"><path d="M176.132 168.218c-4.315-8.308-4.633-8.785-7.188-15.337-.799-1.915-1.597-3.675-2.237-5.431-3.834 1.116-7.509 3.035-11.344 4.152 1.439 4.633 1.916 9.906.481 14.539-.481 1.597-1.117 3.194-.958 4.792.159.957.64 1.756 1.117 2.717 2.876 5.114 5.591 11.185 10.224 14.857 3.516 2.717 8.308 3.993 12.619 3.035 9.906-1.915 12.62-12.301 15.656-20.609 1.915-4.792 3.516-9.747 4.951-14.857.318-1.279 4.474-14.539 3.834-14.857 5.591 2.396 11.503 3.676 17.733 3.516 2.078 0 4.153-.48 6.071-1.279l.958-.48c.318-.318.481-.64.318-.958s-.48-.64-.958-.799c-.318 0-.798 0-1.279.159h-.159v-.159c1.757-.48 3.516-1.438 4.792-2.876.481-.64 1.117-1.439.799-2.078.48-.481 1.117-.958 1.279-1.597.318-.799.159-1.757-.48-2.237-.481-.319-1.117-.319-1.598-.159-.159-.799-.958-1.117-1.756-1.28-.799 0-1.598.318-2.237.64-3.195 1.279-6.87 1.438-9.906-.159-2.237-1.117-4.474-2.877-6.711-4.315.481-.318 1.117-.799 1.757-.958 1.279-.318 2.876-.159 4.152-.318 1.117 0 2.078-.159 3.036-.639s2.237-1.757 1.438-2.877c-.318-.318-.639-.64-1.117-.799s-.957 0-1.438 0c-4.315.159-8.626-1.597-12.941-1.279-2.555.318-4.792 1.757-6.711 3.516-.798.799-1.597 1.757-2.396 2.718-.958 1.117-1.597 2.555-2.237 3.993s-1.279 2.877-2.078 4.315l-3.834 7.828c-3.821 8.785-7.496 17.411-11.652 25.56z" fill="#f29b9b"/><path d="M92.898 81.468l51.762-.958c2.876 26.201 15.977 36.583 15.977 36.583-42.817 23.006-77.803 2.555-77.803 2.555s8.149-10.541 10.065-38.18z" fill="#170f40"/><path d="M111.27 115.976s4.792 7.189-2.078 13.26c-2.555 3.675 7.188 16.775 28.279 11.022 0 0 .318-5.912.318-9.107 0 0-9.266-5.431-7.51-16.454.163 0-12.616 1.279-19.009 1.279z" fill="#f29b9b"/><path d="M132.52 125.882c-1.117 1.439-8.308 12.302-9.906 12.461-1.438 0-11.022-10.545-11.821-10.863 0 0-9.106-3.516-15.655-4.633-2.396-.481-4.792-.159-7.029.639-3.036 1.117-5.75 3.195-7.828 5.591-3.354 4.315-4.951 9.584-6.548 14.857l-1.916 6.23c-.159.64.159 1.279.799 1.438l19.652 5.75c.64.159.958.799.799 1.438-.318 1.117-.799 2.396-1.117 3.516-.159.159 0 .481 0 .799 5.432 15.496 5.114 25.243 3.516 41.697-.48 5.113-.64 10.382-1.438 15.337-.159.799.48 1.438 1.117 1.438h64.543c.64 0 1.279-.639 1.117-1.279-.64-5.114-4.792-24.285-5.432-29.554-.318-2.555-.48-5.273-.48-7.828 0-2.078-.481-5.113.48-7.029.159-.159.159-.48.318-.799a7.8 7.8 0 0 0 .64-1.756c.48-1.756.958-3.516 1.117-5.273.318-3.516 0-7.188-.799-10.704l-1.438-5.749c3.354-.958 7.509-2.237 11.022-3.354.64-.159.958-.799.799-1.439-.481-1.597-1.279-3.516-1.916-5.272-1.117-3.354-2.237-6.23-3.834-9.425-2.078-4.474-5.432-8.467-9.906-10.545-.48-.159-.798-.318-1.279-.481-.003 0-10.389-3.996-17.577 4.792z" fill="#d2006e"/><g fill="#160f41"><path d="M206.329 129.557a9.66 9.66 0 0 0 3.036-.958c.318-.159.639-.48.957-.639l.159-.159c.16-.159.16-.318.16-.481-.16-.159-.319-.159-.481-.159l-.159.159c-.318.159-.64.481-.958.64-1.279.798-3.195.958-4.951.798-.159 0-.318.16-.48.319s.159.318.318.48h2.399zm15.974 6.708c.481 0 .799-.159 1.28-.159 1.915-.481 3.675-1.117 5.272-2.078.159 0 .159-.159.318-.159.481-.318.958-.64 1.438-.799.16 0 .16 0 .319-.159.159 0 .318-.318.318-.481s-.318-.318-.481-.318-.318 0-.48.159c-.64.159-1.117.481-1.598.799-.159 0-.159.159-.318.159a15.29 15.29 0 0 1-5.113 1.916c-1.439.318-3.036.318-4.951 0-.159 0-.481.159-.481.318s.159.48.318.48c1.604.322 2.883.322 4.159.322zm.162 2.396c1.915-.159 4.152-.799 6.389-1.756h.159c.481-.159.958-.481 1.439-.481.318 0 .957.159 1.117.481.159.159.318.318.48.159s.318-.318.159-.481c-.318-.798-1.117-.958-1.915-.958-.64 0-1.117.319-1.598.481h-.159c-3.834 1.756-7.188 2.237-10.064 1.438-.159 0-.481 0-.481.318s0 .481.318.481c1.279.318 2.718.48 4.156.318zm-67.578 12.941l.798-.159-1.597-4.792c-1.117-3.195-.799-2.718-1.757-6.071l-.798.159c.958 3.353.639 2.717 1.756 6.071.64 1.438 1.117 3.036 1.598 4.792zm-36.746 30.515c4.792-2.396 8.785-6.551 10.863-11.502l-.64-.319c-1.915 4.792-5.749 8.786-10.545 11.185l.322.636z"/><use xlink:href="#B"/><use xlink:href="#C"/><path d="M224.54 142.177c.481 0 1.117-.159 1.598-.159.159 0 .318-.159.318-.48s-.318-.318-.481-.318c-2.555.48-5.113.318-7.668-.159-.159 0-.481 0-.481.318s.159.48.318.48c2.085.477 4.322.637 6.396.318z"/></g><path d="M28.036 135.466l-10.704 1.117c-.799 0-1.597.159-2.078.799-.318.48-.318 1.116-.159 1.597s.799.799 1.279.799v.159c-.318.639.159 1.279.64 1.597s1.279.318 1.916.481l12.461.318v.159a57.5 57.5 0 0 1-7.188 1.438c-.958.159-2.555 0-3.354.318-.799.481-.799 1.438 0 1.757.64.318 1.438.318 2.078.318 3.834.159 7.35-.481 11.022-1.117 3.354-.64 6.711-1.117 10.065-1.597l6.548 27.479c1.915 7.828 2.717 15.655 9.107 21.25 4.792 4.152 12.143 4.314 17.253.798 6.071-4.152 8.308-9.425 10.383-16.136l4.474-14.379c.481-1.597 1.117-3.354 1.597-4.951-7.669-2.555-14.379-5.432-21.726-7.51-1.597 6.552-3.195 12.62-4.951 18.373-1.916-5.75-3.675-12.461-5.591-18.214l-3.516-10.545c-.799-2.396-1.438-4.792-2.876-7.029-2.555-3.675-6.548-6.23-10.863-7.668-4.152-1.279-8.308-2.237-12.302-3.835-.48-.159-.958-.318-1.597-.318-1.279 0-1.756.958-1.279 2.078.799 1.598 2.396 2.555 4.153 2.877 1.597.318 3.195 1.117 3.834 2.555 0 .159.159.318.159.318-3.354.958-6.711 1.756-10.065 2.078s-6.548.159-9.746.639c-.318 0-.799.16-1.117.319s-.64.48-.64.798c0 1.598 4.315 1.757 5.432 1.916 2.721.646 5.117.805 7.354.964z" fill="#f29b9b"/><g fill="#160f41"><path d="M206.329 129.557c1.117-.159 2.078-.48 3.035-.958.319-.159.64-.48.958-.639l.159-.159c.159-.159.159-.318.159-.481-.159-.159-.318-.159-.48-.159l-.159.159c-.318.159-.64.481-.958.64-1.279.798-3.195.958-4.951.798-.159 0-.318.16-.481.319s.159.318.318.48h2.4zm15.974 6.708c.48 0 .798-.159 1.279-.159 1.915-.481 3.675-1.117 5.272-2.078.159 0 .159-.159.319-.159.48-.318.957-.64 1.438-.799.159 0 .159 0 .318-.159.159 0 .318-.318.318-.481s-.318-.318-.48-.318-.319 0-.481.159c-.64.159-1.117.481-1.597.799-.159 0-.159.159-.318.159-1.598.958-3.354 1.597-5.114 1.916-1.438.318-3.036.318-4.951 0-.159 0-.481.159-.481.318s.16.48.319.48c1.604.322 2.883.322 4.159.322zm.161 2.396c1.916-.159 4.153-.799 6.39-1.756h.159c.48-.159.957-.481 1.438-.481.318 0 .958.159 1.117.481.159.159.318.318.48.159s.319-.318.159-.481c-.318-.798-1.116-.958-1.915-.958-.64 0-1.117.319-1.597.481h-.159c-3.835 1.756-7.189 2.237-10.065 1.438-.159 0-.481 0-.481.318s0 .481.319.481c1.279.318 2.717.48 4.155.318z"/><use xlink:href="#B"/><use xlink:href="#C" x="-0.001"/><path d="M224.54 142.177c.48 0 1.116-.159 1.597-.159.159 0 .318-.159.318-.48s-.318-.318-.48-.318c-2.556.48-5.114.318-7.669-.159-.159 0-.481 0-.481.318s.16.48.319.48c2.084.477 4.321.637 6.396.318z"/></g><g fill="#f29b9b"><path d="M144.663 92.172c0 14.538-7.51 26.359-25.402 26.359S93.859 106.71 93.859 92.172s11.344-28.755 25.402-28.755 25.402 14.217 25.402 28.755z"/><path d="M91.781 101.918c-.958-.639-1.756-1.279-2.396-2.078-2.078-2.555-2.877-6.389-1.117-9.107 1.597-2.396 4.633-3.195 7.35-2.396 0 0 2.555 1.279 3.675 2.718-.159-.318 2.714 8.948.481 11.022-2.244 1.916-5.438 1.28-7.993-.159zm56.554-5.911c.798-.799 1.279-1.756 1.597-2.717 1.117-3.036.799-6.87-1.756-9.107-2.237-1.915-5.432-1.597-7.669 0 0 0-2.078 1.916-2.717 3.675 0-.318 0 9.266 2.876 10.704 2.877 1.279 5.753-.318 7.669-2.555z"/></g><path d="M121.236 94.485l-.119-.792 4.709-.713-4.04-7.49.699-.378 4.584 8.487-5.833.885zm-8.845-7.744c.159.958-.481 2.078-1.598 2.237s-2.078-.48-2.237-1.597.481-2.078 1.598-2.237 2.074.64 2.237 1.597zm19.171-1.117c.159.958-.481 2.078-1.597 2.237s-2.078-.48-2.237-1.597.48-2.078 1.597-2.237a1.99 1.99 0 0 1 2.237 1.597zm-25.243-3.596v-.799c.04 0 4.066-.046 5.382-3.268l.739.302c-1.521 3.722-5.935 3.765-6.121 3.765zm26.038-.159c-.185 0-4.586-.04-6.273-3.582l.719-.345c1.468 3.082 5.511 3.128 5.551 3.128v.799h.003zm-4.629 14.297s-7.029 1.916-13.74.799c0 0 7.669 12.143 13.74-.799z" fill="#170f40"/><g fill="#160f41"><path d="M111.083 67.71c5.466-3.061 7.416-9.974 4.355-15.44s-9.974-7.416-15.44-4.355-7.416 9.974-4.355 15.44 9.974 7.416 15.44 4.355z"/><path d="M107.277 67.251c-3.675 1.279-8.149.481-11.022-2.396s-3.993-7.35-2.717-11.185c-1.438 3.834-.481 8.626 2.396 11.662s7.669 4.315 11.821 3.036l-.477-1.117z"/><path d="M109.355 61.978c-2.078 3.354-6.23 5.591-10.383 5.113-3.993-.318-7.828-3.195-9.266-7.188 1.279 3.993 5.113 6.87 9.266 7.35s8.468-1.597 10.864-5.113l-.481-.162z"/></g><path d="M116.861 58.784s-11.662-1.756-17.253 8.626c-.159-.159 5.753-7.35 17.253-8.626z" fill="#d2006e"/><path d="M93.537 87.861s11.662-8.785 17.574-20.451c0 0 16.776 13.1 33.869 15.178 0 0 0-9.906-6.389-17.094s-25.561-10.224-38.021-.481c-11.185 8.626-7.033 22.847-7.033 22.847z" fill="#170f40"/><path d="M155.844 71.085a6.41 6.41 0 0 1-6.39 6.389c-3.513 0-6.389-2.877-6.389-6.389s5.113-13.74 6.389-13.74c1.598.159 6.39 10.224 6.39 13.74z" fill="#9fdcee"/><path d="M121.017 142.336c-32.152 0-58.313-26.157-58.313-58.313s26.161-58.31 58.313-58.31 58.313 26.157 58.313 58.313-26.161 58.31-58.313 58.31zm0-115.025c-31.274 0-56.716 25.442-56.716 56.716s25.442 56.713 56.716 56.713 56.716-25.442 56.716-56.716-25.442-56.712-56.716-56.712z" fill="#170f40"/><path d="M171.022 70.446c6.529 0 11.821-5.292 11.821-11.821s-5.292-11.821-11.821-11.821-11.821 5.293-11.821 11.821 5.293 11.821 11.821 11.821z" fill="#d2006e"/><g fill="#fff"><path d="M174.613 53.612l-8.465 8.626 1.426 1.4 8.465-8.626-1.426-1.4z"/><path d="M167.585 53.603l-1.426 1.4 8.466 8.626 1.427-1.4-8.467-8.626z"/></g><path d="M92.42 162.787l4.312-13.899-.636-.159-4.315 13.899.64.159z" fill="#160f41"/><path d="M119.261 119.493c-3.675 0-7.188-.48-10.224-1.597l.319-.799c2.876.958 6.23 1.598 9.905 1.598v.798z" fill="#170f40"/><defs ><path id="B" d="M19.092 139.94h.481l9.906-1.116c.159 0 .318-.16.318-.481 0-.159-.159-.318-.48-.318l-9.905 1.117c-.481 0-.958.159-1.438.159s-.958 0-1.597.159c-.159 0-.318.159-.318.48 0 .159.159.319.48.319.481 0 .958-.16 1.438-.16.477-.159.795-.159 1.117-.159z"/><path id="C" d="M43.056 134.028c.159 0 .318-.159.318-.319s0-.48-.318-.48c-2.555-.64-4.633-2.396-5.75-4.792-.159-.159-.318-.318-.481-.159s-.318.318-.159.48c1.276 2.555 3.672 4.633 6.389 5.27z"/></defs></svg>