<svg width="218" height="180" viewBox="0 0 218 180" fill="none" xmlns="http://www.w3.org/2000/svg">
<path d="M161.137 125.845C156.822 117.537 156.504 117.06 153.949 110.508C153.15 108.592 152.351 106.833 151.712 105.076C147.877 106.193 144.202 108.112 140.368 109.229C141.806 113.862 142.283 119.134 140.848 123.767C140.368 125.364 139.732 126.962 139.891 128.559C140.05 129.517 140.53 130.316 141.007 131.277C143.884 136.39 146.598 142.461 151.231 146.133C154.747 148.851 159.539 150.127 163.851 149.169C173.756 147.253 176.47 136.867 179.506 128.559C181.422 123.767 183.022 118.813 184.457 113.703C184.775 112.423 188.931 99.164 188.291 98.8459C193.882 101.242 199.794 102.521 206.025 102.362C208.103 102.362 210.177 101.882 212.096 101.083C212.414 100.924 212.735 100.765 213.054 100.602C213.372 100.284 213.534 99.9627 213.372 99.6446C213.213 99.3264 212.891 99.005 212.414 98.8459C212.096 98.8459 211.615 98.8459 211.135 99.005H210.976V98.8459C212.732 98.3654 214.492 97.4076 215.768 95.9693C216.248 95.3297 216.885 94.5311 216.566 93.8915C217.047 93.4109 217.683 92.9337 217.846 92.2941C218.164 91.4955 218.005 90.5377 217.365 90.0572C216.885 89.739 216.248 89.739 215.768 89.8981C215.609 89.0994 214.81 88.7813 214.011 88.6189C213.213 88.6189 212.414 88.9371 211.774 89.2585C208.58 90.5377 204.904 90.6968 201.869 89.0994C199.632 87.9826 197.395 86.2229 195.158 84.7846C195.639 84.4665 196.275 83.986 196.914 83.8269C198.194 83.5087 199.791 83.6678 201.067 83.5087C202.184 83.5087 203.145 83.3497 204.103 82.8691C205.06 82.3886 206.339 81.1127 205.541 79.9926C205.223 79.6745 204.901 79.353 204.424 79.1939C203.943 79.0349 203.466 79.1939 202.986 79.1939C198.671 79.353 194.359 77.5966 190.045 77.9147C187.489 78.2329 185.253 79.6711 183.334 81.4309C182.535 82.2295 181.736 83.1873 180.938 84.1483C179.98 85.2652 179.34 86.7034 178.701 88.1417C178.061 89.58 177.422 91.0182 176.623 92.4565C175.344 95.0116 174.068 97.7291 172.789 100.284C168.968 109.07 165.292 117.696 161.137 125.845Z" fill="#F29B9B"/>
<path d="M77.902 39.0944L129.663 38.1367C132.54 64.3371 145.64 74.7198 145.64 74.7198C102.823 97.7255 67.8374 77.2749 67.8374 77.2749C67.8374 77.2749 75.9865 66.7331 77.902 39.0944Z" fill="#170F40"/>
<path d="M96.2749 73.6035C96.2749 73.6035 101.067 80.7915 94.1971 86.8628C91.642 90.538 101.385 103.638 122.475 97.8851C122.475 97.8851 122.793 91.9729 122.793 88.7782C122.793 88.7782 113.528 83.3466 115.284 72.3243C115.446 72.3243 102.668 73.6035 96.2749 73.6035Z" fill="#F29B9B"/>
<path d="M117.525 83.5091C116.408 84.9474 109.216 95.8106 107.619 95.9697C106.181 95.9697 96.5968 85.4246 95.7981 85.1064C95.7981 85.1064 86.6913 81.5903 80.1428 80.4735C77.7468 79.993 75.3508 80.3144 73.1138 81.1131C70.0782 82.2299 67.3641 84.3078 65.2862 86.7038C61.9324 91.0186 60.3351 96.2878 58.7377 101.56C58.0981 103.638 57.4585 105.713 56.8223 107.791C56.6632 108.43 56.9813 109.07 57.6209 109.229C64.1694 111.144 70.7211 113.063 77.2729 114.979C77.9125 115.138 78.2306 115.777 78.0716 116.417C77.7534 117.534 77.2729 118.813 76.9547 119.933C76.7957 120.092 76.9547 120.414 76.9547 120.732C82.3864 136.228 82.0682 145.975 80.4709 162.428C79.9904 167.542 79.8313 172.811 79.0326 177.766C78.8736 178.564 79.5131 179.204 80.1494 179.204C101.717 179.204 123.125 179.204 144.693 179.204C145.332 179.204 145.972 178.564 145.81 177.925C145.17 172.811 141.018 153.64 140.378 148.371C140.06 145.815 139.897 143.098 139.897 140.543C139.897 138.465 139.417 135.429 140.378 133.514C140.537 133.355 140.537 133.033 140.696 132.715C141.014 132.076 141.177 131.598 141.336 130.959C141.816 129.202 142.293 127.443 142.452 125.686C142.771 122.17 142.452 118.498 141.654 114.982C141.173 113.067 140.696 111.148 140.216 109.232C143.569 108.275 147.725 106.995 151.238 105.879C151.877 105.719 152.196 105.08 152.037 104.44C151.556 102.843 150.757 100.924 150.121 99.1677C149.004 95.8139 147.884 92.9374 146.287 89.7427C144.209 85.2688 140.855 81.2755 136.381 79.1976C135.901 79.0385 135.583 78.8795 135.102 78.7171C135.099 78.7171 124.713 74.7204 117.525 83.5091Z" fill="#D2006E"/>
<path d="M191.334 87.1842C192.45 87.0252 193.411 86.7037 194.369 86.2265C194.687 86.0674 195.009 85.746 195.327 85.5869L195.486 85.4278C195.645 85.2687 195.645 85.1097 195.645 84.9473C195.486 84.7882 195.327 84.7882 195.165 84.7882L195.005 84.9473C194.687 85.1064 194.366 85.4278 194.048 85.5869C192.769 86.3856 190.853 86.5446 189.097 86.3856C188.938 86.3856 188.778 86.5446 188.616 86.7037C188.457 86.8628 188.775 87.0218 188.934 87.1842C189.574 87.1842 190.535 87.1842 191.334 87.1842Z" fill="#160F41"/>
<path d="M207.308 93.8916C207.788 93.8916 208.106 93.7326 208.587 93.7326C210.502 93.252 212.262 92.6157 213.86 91.6547C214.019 91.6547 214.019 91.4956 214.178 91.4956C214.658 91.1775 215.135 90.856 215.616 90.6969C215.775 90.6969 215.775 90.6969 215.934 90.5379C216.093 90.5379 216.252 90.2197 216.252 90.0573C216.252 89.8983 215.934 89.7392 215.772 89.7392C215.613 89.7392 215.454 89.7392 215.291 89.8983C214.652 90.0573 214.174 90.3788 213.694 90.6969C213.535 90.6969 213.535 90.856 213.376 90.856C211.778 91.8138 210.022 92.4534 208.262 92.7715C206.824 93.0896 205.227 93.0896 203.311 92.7715C203.152 92.7715 202.831 92.9306 202.831 93.0896C202.831 93.2487 202.99 93.5702 203.149 93.5702C204.753 93.8916 206.032 93.8916 207.308 93.8916Z" fill="#160F41"/>
<path d="M207.469 96.2877C209.385 96.1286 211.622 95.489 213.859 94.5313H214.018C214.498 94.3722 214.976 94.0507 215.456 94.0507C215.774 94.0507 216.414 94.2098 216.573 94.5313C216.732 94.6904 216.891 94.8494 217.054 94.6903C217.213 94.5313 217.372 94.3722 217.213 94.2098C216.894 93.4112 216.096 93.2521 215.297 93.2521C214.658 93.2521 214.18 93.5702 213.7 93.7326H213.541C209.706 95.489 206.353 95.9696 203.476 95.1709C203.317 95.1709 202.996 95.1709 202.996 95.489C202.996 95.8072 202.996 95.9696 203.314 95.9696C204.593 96.2877 206.031 96.4501 207.469 96.2877Z" fill="#160F41"/>
<path d="M139.891 109.229L140.69 109.07C140.209 107.472 139.732 105.875 139.093 104.278C137.976 101.083 138.294 101.56 137.336 98.2065L136.538 98.3656C137.495 101.719 137.177 101.083 138.294 104.437C138.934 105.875 139.411 107.472 139.891 109.229Z" fill="#160F41"/>
<path d="M103.145 139.744C107.937 137.348 111.931 133.192 114.008 128.241L113.369 127.923C111.453 132.715 107.619 136.708 102.824 139.108L103.145 139.744Z" fill="#160F41"/>
<path d="M4.09665 97.5671C4.25572 97.5671 4.41479 97.5671 4.57718 97.5671L14.4827 96.4503C14.6418 96.4503 14.8008 96.2912 14.8008 95.9698C14.8008 95.8107 14.6418 95.6516 14.3203 95.6516L4.41479 96.7684C3.93426 96.7684 3.45705 96.9275 2.97652 96.9275C2.49599 96.9275 2.01878 96.9275 1.37918 97.0866C1.22011 97.0866 1.06104 97.2456 1.06104 97.5671C1.06104 97.7262 1.22011 97.8852 1.54156 97.8852C2.02209 97.8852 2.49931 97.7262 2.97984 97.7262C3.45705 97.5671 3.77519 97.5671 4.09665 97.5671Z" fill="#160F41"/>
<path d="M28.0602 91.6546C28.2193 91.6546 28.3784 91.4955 28.3784 91.3364C28.3784 91.1774 28.3784 90.8559 28.0602 90.8559C25.5052 90.2163 23.4273 88.4599 22.3105 86.0639C22.1514 85.9048 21.9923 85.7457 21.8299 85.9048C21.6709 86.0639 21.5118 86.223 21.6709 86.3853C22.9468 88.9404 25.3428 91.0183 28.0602 91.6546Z" fill="#160F41"/>
<path d="M209.545 99.8041C210.025 99.8041 210.662 99.645 211.142 99.645C211.301 99.645 211.46 99.4859 211.46 99.1645C211.46 98.8463 211.142 98.8463 210.98 98.8463C208.425 99.3269 205.866 99.1645 203.311 98.6873C203.152 98.6873 202.831 98.6873 202.831 99.0054C202.831 99.3235 202.99 99.4859 203.149 99.4859C205.233 99.9631 207.47 100.122 209.545 99.8041Z" fill="#160F41"/>
<path d="M13.0407 93.0926C9.52459 93.4108 6.01176 93.8913 2.33655 94.2094C1.53788 94.2094 0.739204 94.3685 0.258676 95.0081C-0.0594675 95.4886 -0.0594675 96.1249 0.099604 96.6055C0.258676 97.086 0.898276 97.4041 1.3788 97.4041V97.5632C1.06066 98.2028 1.53788 98.8424 2.0184 99.1606C2.49893 99.4787 3.29761 99.4787 3.93389 99.6411C8.08632 99.8001 12.2421 99.9592 16.3945 99.9592V100.118C13.9985 100.758 11.6025 101.235 9.20645 101.557C8.24871 101.716 6.65136 101.557 5.85269 101.875C5.05402 102.355 5.05402 103.313 5.85269 103.631C6.49229 103.949 7.29096 103.949 7.93056 103.949C11.7649 104.108 15.281 103.469 18.9529 102.832C22.3067 102.193 25.6637 101.716 29.0175 101.235C31.2544 110.342 33.4914 119.449 35.5659 128.715C37.4814 136.542 38.2834 144.37 44.6728 149.964C49.4648 154.116 56.8152 154.279 61.9254 150.763C67.9966 146.61 70.2336 141.338 72.3081 134.627C73.7464 129.835 75.3438 125.043 76.782 120.247C77.2626 118.65 77.8988 116.894 78.3794 115.296C70.7108 112.741 64 109.865 56.6529 107.787C55.0555 114.339 53.4582 120.407 51.7017 126.16C49.7863 120.41 48.0265 113.699 46.111 107.946C45.1533 105.069 43.556 100.277 42.5949 97.4008C41.7962 95.0048 41.1566 92.6088 39.7184 90.3718C37.1633 86.6966 33.1699 84.1415 28.8551 82.7033C24.7027 81.4241 20.5469 80.4663 16.5536 78.869C16.073 78.7099 15.5958 78.5508 14.9562 78.5508C13.677 78.5508 13.1998 79.5086 13.677 80.6287C14.4757 82.2261 16.073 83.1838 17.8295 83.5053C19.4268 83.8234 21.0241 84.6221 21.6637 86.0603C21.6637 86.2194 21.8228 86.3785 21.8228 86.3785C18.4691 87.3362 15.112 88.1349 11.7582 88.4564C8.40446 88.7745 5.20978 88.6154 2.01178 89.096C1.69363 89.096 1.2131 89.255 0.894962 89.4141C0.576819 89.5732 0.255362 89.8946 0.255362 90.2128C0.255362 91.8101 4.57018 91.9692 5.68699 92.1283C8.40778 92.7745 10.8038 92.9336 13.0407 93.0926Z" fill="#F29B9B"/>
<path d="M191.333 87.184C192.45 87.025 193.411 86.7035 194.369 86.2263C194.687 86.0672 195.008 85.7458 195.326 85.5867L195.486 85.4276C195.645 85.2686 195.645 85.1095 195.645 84.9471C195.486 84.788 195.326 84.788 195.164 84.788L195.005 84.9471C194.687 85.1062 194.365 85.4276 194.047 85.5867C192.768 86.3854 190.853 86.5444 189.096 86.3854C188.937 86.3854 188.778 86.5444 188.616 86.7035C188.457 86.8626 188.775 87.0217 188.934 87.184C189.573 87.184 190.534 87.184 191.333 87.184Z" fill="#160F41"/>
<path d="M207.307 93.8914C207.788 93.8914 208.106 93.7324 208.586 93.7324C210.502 93.2518 212.262 92.6156 213.859 91.6545C214.018 91.6545 214.018 91.4954 214.177 91.4954C214.658 91.1773 215.135 90.8558 215.615 90.6968C215.775 90.6968 215.775 90.6968 215.934 90.5377C216.093 90.5377 216.252 90.2195 216.252 90.0572C216.252 89.8981 215.934 89.739 215.771 89.739C215.612 89.739 215.453 89.739 215.291 89.8981C214.651 90.0572 214.174 90.3786 213.693 90.6968C213.534 90.6968 213.534 90.8558 213.375 90.8558C211.778 91.8136 210.021 92.4532 208.262 92.7713C206.823 93.0895 205.226 93.0895 203.311 92.7713C203.152 92.7713 202.83 92.9304 202.83 93.0895C202.83 93.2485 202.989 93.57 203.148 93.57C204.752 93.8914 206.031 93.8914 207.307 93.8914Z" fill="#160F41"/>
<path d="M207.469 96.2875C209.384 96.1284 211.621 95.4888 213.858 94.5311H214.017C214.498 94.372 214.975 94.0506 215.456 94.0506C215.774 94.0506 216.413 94.2096 216.573 94.5311C216.732 94.6902 216.891 94.8492 217.053 94.6902C217.212 94.5311 217.371 94.372 217.212 94.2096C216.894 93.411 216.095 93.2519 215.297 93.2519C214.657 93.2519 214.18 93.57 213.699 93.7324H213.54C209.706 95.4888 206.352 95.9694 203.476 95.1707C203.317 95.1707 202.995 95.1707 202.995 95.4888C202.995 95.807 202.995 95.9694 203.313 95.9694C204.592 96.2875 206.031 96.4499 207.469 96.2875Z" fill="#160F41"/>
<path d="M4.09665 97.5669C4.25572 97.5669 4.41479 97.5669 4.57718 97.5669L14.4827 96.4501C14.6418 96.4501 14.8008 96.291 14.8008 95.9696C14.8008 95.8105 14.6418 95.6514 14.3203 95.6514L4.41479 96.7682C3.93426 96.7682 3.45705 96.9273 2.97652 96.9273C2.49599 96.9273 2.01878 96.9273 1.37918 97.0864C1.22011 97.0864 1.06104 97.2455 1.06104 97.5669C1.06104 97.726 1.22011 97.8851 1.54156 97.8851C2.02209 97.8851 2.49931 97.726 2.97984 97.726C3.45705 97.5669 3.77519 97.5669 4.09665 97.5669Z" fill="#160F41"/>
<path d="M28.0598 91.6544C28.2188 91.6544 28.3779 91.4953 28.3779 91.3363C28.3779 91.1772 28.3779 90.8557 28.0598 90.8557C25.5047 90.2161 23.4268 88.4597 22.31 86.0637C22.1509 85.9046 21.9918 85.7456 21.8295 85.9046C21.6704 86.0637 21.5113 86.2228 21.6704 86.3852C22.9463 88.9402 25.3423 91.0181 28.0598 91.6544Z" fill="#160F41"/>
<path d="M209.544 99.8039C210.025 99.8039 210.661 99.6448 211.142 99.6448C211.301 99.6448 211.46 99.4857 211.46 99.1643C211.46 98.8461 211.142 98.8461 210.979 98.8461C208.424 99.3267 205.866 99.1643 203.311 98.6871C203.152 98.6871 202.83 98.6871 202.83 99.0052C202.83 99.3234 202.989 99.4857 203.148 99.4857C205.233 99.963 207.47 100.122 209.544 99.8039Z" fill="#160F41"/>
<path d="M129.667 49.7985C129.667 64.337 122.158 76.158 104.266 76.158C86.3733 76.158 78.8638 64.337 78.8638 49.7985C78.8638 35.2601 90.2076 21.043 104.266 21.043C118.323 21.043 129.667 35.2601 129.667 49.7985Z" fill="#F29B9B"/>
<path d="M76.7855 59.5449C75.8278 58.9053 75.0291 58.2657 74.3895 57.467C72.3116 54.912 71.5129 51.0777 73.2727 48.3602C74.87 45.9642 77.9056 45.1655 80.6231 45.9642C80.6231 45.9642 83.1782 47.2434 84.2983 48.6816C84.1392 48.3635 87.0125 57.6294 84.7788 59.704C82.5353 61.6195 79.3406 60.9832 76.7855 59.5449Z" fill="#F29B9B"/>
<path d="M133.339 53.633C134.138 52.8343 134.618 51.8766 134.936 50.9155C136.053 47.8799 135.735 44.0456 133.18 41.8086C130.943 39.8932 127.748 40.2113 125.511 41.8086C125.511 41.8086 123.434 43.7241 122.794 45.4839C122.794 45.1657 122.794 54.7498 125.67 56.1881C128.547 57.4673 131.424 55.8699 133.339 53.633Z" fill="#F29B9B"/>
<path d="M106.24 52.112L106.121 51.3199L110.83 50.6074L106.791 43.1178L107.49 42.74L112.073 51.2271L106.24 52.112Z" fill="#170F40"/>
<path d="M97.395 44.3672C97.5541 45.3249 96.9145 46.445 95.7977 46.6041C94.6808 46.7632 93.7198 46.1236 93.5607 45.0068C93.4016 43.8899 94.0412 42.9289 95.1581 42.7698C96.2749 42.6107 97.2326 43.4094 97.395 44.3672Z" fill="#170F40"/>
<path d="M116.566 43.2503C116.725 44.208 116.086 45.3281 114.969 45.4872C113.852 45.6463 112.891 45.0067 112.732 43.8899C112.573 42.7731 113.213 41.812 114.329 41.6529C115.446 41.4905 116.404 42.2892 116.566 43.2503Z" fill="#170F40"/>
<path d="M91.3237 39.6544V38.8557C91.3635 38.8557 95.39 38.8093 96.7057 35.5881L97.4447 35.8897C95.9235 39.6113 91.5093 39.6544 91.3237 39.6544Z" fill="#170F40"/>
<path d="M117.362 39.4954C117.176 39.4954 112.775 39.4556 111.088 35.913L111.808 35.5683C113.276 38.6503 117.319 38.6967 117.358 38.6967V39.4954H117.362Z" fill="#170F40"/>
<path d="M112.733 53.7921C112.733 53.7921 105.704 55.7076 98.9932 54.5908C98.9932 54.5908 106.662 66.7332 112.733 53.7921Z" fill="#170F40"/>
<path d="M96.0876 25.337C101.554 22.2759 103.504 15.3632 100.442 9.89696C97.3814 4.43075 90.4686 2.481 85.0024 5.54208C79.5362 8.60316 77.5865 15.5159 80.6476 20.9821C83.7086 26.4483 90.6214 28.3981 96.0876 25.337Z" fill="#160F41"/>
<path d="M92.2817 24.877C88.6065 26.1562 84.1326 25.3575 81.2594 22.481C78.3828 19.6044 77.266 15.1306 78.5419 11.2963C77.1036 15.1306 78.0614 19.9226 80.9379 22.9582C83.8145 25.9938 88.6065 27.273 92.7589 25.9938L92.2817 24.877Z" fill="#160F41"/>
<path d="M94.3596 19.6045C92.2817 22.9583 88.1293 25.1952 83.9769 24.718C79.9835 24.3999 76.1492 21.5233 74.7109 17.53C75.9901 21.5233 79.8244 24.3999 83.9769 24.8804C88.1293 25.3609 92.4441 23.2831 94.8401 19.7669L94.3596 19.6045Z" fill="#160F41"/>
<path d="M101.865 16.4101C101.865 16.4101 90.2032 14.6537 84.6125 25.0364C84.4534 24.8773 90.3656 17.686 101.865 16.4101Z" fill="#D2006E"/>
<path d="M78.5416 45.4872C78.5416 45.4872 90.2035 36.7018 96.1157 25.0365C96.1157 25.0365 112.891 38.1367 129.985 40.2146C129.985 40.2146 129.985 30.3091 123.595 23.121C117.206 15.933 98.0345 12.8974 85.5739 22.6405C74.3891 31.2668 78.5416 45.4872 78.5416 45.4872Z" fill="#170F40"/>
<path d="M140.848 28.7115C140.848 32.2276 137.972 35.1009 134.459 35.1009C130.946 35.1009 128.069 32.2243 128.069 28.7115C128.069 25.1953 133.183 14.9717 134.459 14.9717C136.056 15.1308 140.848 25.1953 140.848 28.7115Z" fill="#9FDCEE"/>
<path d="M77.4248 120.413L81.7363 106.514L81.1 106.355L76.7852 120.254L77.4248 120.413Z" fill="#160F41"/>
<path d="M104.266 77.1195C100.59 77.1195 97.0776 76.6389 94.042 75.5221L94.3601 74.7234C97.2367 75.6812 100.59 76.3208 104.266 76.3208V77.1195Z" fill="#170F40"/>
</svg>
