<svg xmlns="http://www.w3.org/2000/svg" width="248" height="248" fill="none" xmlns:v="https://vecta.io/nano"><path d="M186.845 192.29c-2.591-15.112-14.825-26.196-29.217-26.484h-.432H83.36h-.432c-14.392.288-26.625 11.228-29.216 26.484l-3.888 22.885h33.104 74.697 33.104l-3.884-22.885z" fill="#d2006e"/><path d="M170.583 147.527l-.721-1.297c-6.908-12.666-10.363-27.058-10.363-41.738V99.31c0-18.568-14.104-33.68-31.663-33.68h-4.749-5.47-4.752c-17.415 0-31.663 15.112-31.663 33.68v5.182c0 14.68-3.599 29.075-10.363 41.738l-.72 1.297s16.839 10.507 50.375 9.93c33.248.577 50.09-9.93 50.09-9.93z" fill="#160f41"/><path d="M120.205 154.581c16.533 0 29.937-18.043 29.937-40.3s-13.404-40.3-29.937-40.3-29.937 18.043-29.937 40.3 13.403 40.3 29.937 40.3z" fill="#f29b9b"/><path d="M120.493 126.803c-1.152 0-2.446-.144-4.028-.721l-.721-.288 3.885-9.931 1.294.577-3.311 8.492c3.599 1.009 5.758-.144 5.758-.144l.72 1.297c.003-.003-1.435.718-3.597.718zm-.289 9.643c2.879 0 5.326-1.008 6.908-2.446h-13.819c1.588 1.582 4.035 2.446 6.911 2.446zm-12.377-19.286c1.272 0 2.303-1.289 2.303-2.879s-1.031-2.879-2.303-2.879-2.302 1.289-2.302 2.879 1.031 2.879 2.302 2.879zm-3.596-11.083l-1.294-.577a7.38 7.38 0 0 1 3.311-3.311c1.438-.576 3.167-.576 4.605 0l-.576 1.297a5.16 5.16 0 0 0-3.6 0c-1.008.576-2.014 1.438-2.446 2.591zm28.498 11.083c1.272 0 2.303-1.289 2.303-2.879s-1.031-2.879-2.303-2.879-2.302 1.289-2.302 2.879 1.03 2.879 2.302 2.879zm3.454-11.084c-1.009-2.302-3.744-3.455-6.191-2.446l-.576-1.297c3.167-1.297 6.764.144 8.061 3.167l-1.294.576z" fill="#160f41"/><path d="M159.962 126.301c2.542-4.771 1.417-10.335-2.512-12.428s-9.175.077-11.716 4.848-1.417 10.334 2.512 12.427 9.175-.077 11.716-4.847zm-66.604 4.993c3.929-2.093 5.054-7.657 2.513-12.428s-7.787-6.941-11.716-4.847-5.054 7.657-2.513 12.427 7.787 6.941 11.716 4.848z" fill="#f29b9b"/><g fill="#160f41"><path d="M155.883 100.033c3.731-5.537-2.918-16.543-14.85-24.583s-24.629-10.069-28.36-4.532 2.917 16.544 14.849 24.584 24.63 10.069 28.361 4.532z"/><path d="M104.664 96.22c8.22-8.193 12.11-17.618 8.688-21.052s-12.861.424-21.082 8.616-12.11 17.618-8.688 21.052 12.861-.424 21.082-8.616z"/></g><path d="M133.158 148.679h-10.507-4.749-10.507s1.582 15.112-7.341 17.415c0 0 5.038 20.15 20.006 24.755h.288c15.113-4.749 20.006-24.755 20.006-24.755-8.778-1.582-7.196-17.415-7.196-17.415z" fill="#f29b9b"/><g fill="#160f41"><path d="M101.64 78.154a16.27 16.27 0 0 0 16.266-16.265 16.27 16.27 0 0 0-16.266-16.265 16.27 16.27 0 0 0-16.265 16.265 16.27 16.27 0 0 0 16.265 16.265z"/><path d="M102.072 75.708c-5.614 1.153-11.801-1.297-15.256-5.902s-4.029-11.372-1.438-16.695h-.144c-2.879 5.182-2.591 12.09.864 17.127s9.931 7.916 16.121 6.908l-.147-1.438z"/><path d="M106.245 68.656c-3.743 4.461-10.219 6.476-15.833 5.037-5.758-1.438-10.363-6.476-11.513-12.233 1.009 5.902 5.614 10.94 11.513 12.666 5.758 1.582 12.522-.288 16.551-4.893l-.718-.576z"/></g><path d="M117.617 65.777s-16.121-5.182-26.626 8.349c-.003-.003 10.072-8.925 26.626-8.349z" fill="#d2006e"/><path d="M160.65 195.025h-1.439v20.294h1.439v-20.294zm-75.562 0H83.65v20.294h1.438v-20.294z" fill="#160f41"/><path d="M119.055 191.138c-43.899 0-79.45-35.695-79.45-79.45s35.695-79.447 79.45-79.447 79.45 35.695 79.45 79.45-35.695 79.447-79.45 79.447zm0-157.6c-43.035 0-78.009 34.974-78.009 78.01s34.974 78.009 78.009 78.009 78.009-34.975 78.009-78.009-34.974-78.009-78.009-78.009z" fill="#170f40"/><path d="M182.815 81.322l-7.34-7.484 3.02-3.023 4.32 4.317 12.234-12.089 3.023 3.023-15.257 15.257z" fill="#fff"/><path d="M186.216 92.706c12.031 0 21.784-9.844 21.784-21.987s-9.753-21.987-21.784-21.987-21.783 9.844-21.783 21.987 9.753 21.987 21.783 21.987z" fill="#d11970"/><path fill-rule="evenodd" d="M184.88 59.038c.343-.342.897-.342 1.239 0l4.381 4.381c.342.342.342.897 0 1.239l-4.381 4.381c-.342.342-.896.342-1.239 0s-.342-.897 0-1.239l3.017-3.017c-.511-.051-1.274-.087-2.397-.087-1.56 0-3.084.462-4.381 1.329a7.88 7.88 0 0 0-2.904 3.539c-.597 1.441-.753 3.026-.449 4.556a7.88 7.88 0 0 0 2.158 4.038c1.103 1.103 2.508 1.854 4.038 2.158s3.115.148 4.556-.449 2.672-1.608 3.538-2.904a7.88 7.88 0 0 0 1.329-4.381c0-.484.393-.876.877-.876s.876.392.876.876a9.63 9.63 0 0 1-1.625 5.355 9.64 9.64 0 0 1-4.325 3.55c-1.761.73-3.699.92-5.568.549s-3.587-1.29-4.935-2.638a9.64 9.64 0 0 1-2.638-4.935 9.63 9.63 0 0 1 .549-5.568c.729-1.761 1.964-3.266 3.549-4.325a9.64 9.64 0 0 1 5.355-1.624l2.104.058-2.724-2.724c-.342-.342-.342-.897 0-1.239z" fill="#fff"/></svg>