<svg xmlns="http://www.w3.org/2000/svg" width="226" height="309" fill="none" xmlns:v="https://vecta.io/nano"><style><![CDATA[.B{fill:#170f40}.C{fill:#f29b9b}.D{fill:#d2006e}]]></style><path d="M169.76 166.003h-11.481v20.617h11.481v-20.617zm-101.601 0h-11.48v20.617h11.48v-20.617z" class="B"/><path d="M213.113 224.673H12.887c-6.589 0-11.903-5.315-11.903-11.692v-17.852c0-6.589 5.314-11.691 11.903-11.691h200.227c6.589 0 11.903 5.314 11.903 11.691v17.852c0 6.377-5.314 11.692-11.903 11.692zm4.675-54.419H8.425v-45.486c0-7.863 6.377-14.241 14.24-14.241H203.76c7.863 0 14.24 6.378 14.24 14.241v45.486h-.212z" fill="#9fdcee"/><path d="M199.094 224.672h-11.481v20.618h11.481v-20.618zm-160.484 0H27.13v20.618h11.48v-20.618z" class="B"/><path d="M178.045 93.31c-6.8-2.337-15.732-4.674-22.32-6.166l-23.807-5.314c-8.074-1.914-11.263 5.103-11.691 6.589-2.337 6.8 1.485 13.389 10.2 15.304 9.777 2.125 22.743 5.948 31.88 7.44 4.463.851 8.926 1.063 13.178 1.063 6.588 0 10.84 1.703 13.606-2.549 1.063-1.703 1.063-3.829.64-5.737-.64-2.977-1.915-4.674-4.463-6.8-1.697-1.492-4.252-2.766-7.223-3.829z" class="C"/><path d="M131.068 81.408c-7.228-1.063-10.2 5.737-10.628 7.011-2.338 6.8 1.485 13.389 10.2 15.303 5.954 1.274 12.966 3.189 19.766 4.892 1.274-7.441 4.04-15.092 4.674-21.681-7.64-1.486-16.143-4.251-24.012-5.526z" class="D"/><path d="M81.968 31.246l49.738-1.486c3.611 27.418 16.795 44.001 16.795 44.001-44.424 21.68-79.07-.64-79.07-.64s8.503-9.137 11.692-37.195l.846-4.68z" class="B"/><path d="M143.399 158.991l-69.081-.852 4.463-20.406c0-5.103-3.612-6.377-6.377-10.84l-2.337-23.806c-4.891-13.389 8.926-23.595 21.469-23.384l34.223 1.063c12.544.423 22.104 11.903 20.195 24.447l-5.103 4.04-1.063 14.451c-.211 2.337-.211 4.892-.211 7.229 0 5.737.64 11.692 1.703 17.217l2.12 10.841z" class="D"/><path d="M134.726 105.853l-.307 1.018 10.581 3.19.307-1.017-10.581-3.191z" class="B"/><g class="C"><path d="M110.451 94.161c-1.063 1.063-2.977 1.063-3.828 0l-7.863-9.137c-1.063-1.486-1.486-3.4-.852-5.314l3.612-14.88 15.943.423 2.548 15.092c.423 1.703 0 3.611-1.274 5.103l-8.286 8.715z"/><path d="M133.408 48.035c-.64 14.88-8.714 26.572-26.994 25.721-18.069-.64-25.292-13.177-24.658-27.846.64-14.88 12.754-28.698 26.995-28.269 14.24.64 25.292 15.52 24.657 30.395z"/></g><path d="M103.867 66.565s7.141 0 12.986-2.334c-.003-.128-4.156 12.183-12.986 2.334z" class="B"/><path d="M78.567 59.515c-1.063-.64-1.914-1.486-2.549-2.337-2.126-2.766-2.766-6.8-.64-9.777 1.703-2.549 5.103-3.189 7.863-2.126 0 0 2.766 1.486 3.829 2.977 0-.423 2.549 9.566 0 11.692-2.554 2.12-5.955 1.274-8.503-.429zm56.75-2.125l2.337-2.549c1.703-2.977 2.126-7.011-.211-9.777-1.914-2.337-5.314-2.766-8.074-1.274 0 0-2.549 1.703-3.4 3.4 0-.423-1.486 9.777 1.274 11.692 2.337 1.486 5.737.423 8.074-1.492z" class="C"/><path d="M110.239 60.79v-1.063l4.463-.423-3.611-7.652 1.063-.429 4.251 9.143-6.166.423zm-9.778-10.629c.211 1.063-.64 2.126-1.703 2.126-1.063.211-2.126-.64-2.126-1.703-.211-1.063.64-2.126 1.703-2.126s1.914.857 2.126 1.703zm20.619-.211c.211 1.063-.64 2.126-1.703 2.126-1.063.211-2.126-.64-2.126-1.703-.211-1.063.64-2.126 1.703-2.126 1.063-.211 1.914.64 2.126 1.703zm-20.136-6.8h0v1.063s-4.04 0-5.526 2.977l-.852-.423c1.703-3.406 5.743-3.617 6.377-3.617zm20.986 1.914c-2.337-3.4-5.737-1.914-5.954-1.914l-.423-1.063s4.463-1.914 7.228 2.126l-.851.851z" class="B"/><g fill="#160f41"><path d="M95.148 22.961c6.341 0 11.48-5.14 11.48-11.48S101.489 0 95.148 0s-11.48 5.14-11.48 11.48 5.14 11.48 11.48 11.48z"/><path d="M96.422 21.047c-3.829 1.274-8.292 0-11.052-2.977-2.766-2.977-3.829-7.652-2.337-11.48-1.703 3.829-.852 8.714 1.914 11.903s7.652 4.674 11.903 3.611l-.429-1.057z"/><path d="M98.763 15.733c-2.337 3.4-6.589 5.314-10.629 4.674s-7.863-3.611-9.137-7.651c1.274 4.04 4.892 7.229 9.137 7.863s8.714-1.274 11.263-4.674l-.634-.211z"/></g><path d="M106.417 12.755s-11.692-2.337-17.852 8.074c-.217 0 6.16-7.223 17.852-8.074z" class="D"/><path d="M81.971 44.852s11.48-5.737 18.069-17.217c0 0 16.577 14.24 33.16 15.303 0 0 1.275-14.669-4.891-22.103-6.166-7.44-25.509-11.263-38.687-2.126-11.692 8.074-7.652 26.143-7.652 26.143zm-5.106 89.91c-2.977-4.04-6.377-10.417-5.314-17.217.64-3.611 2.337-7.012 4.04-10.2l.423.211c-1.703 3.189-3.4 6.378-4.04 9.989-1.063 6.589 2.337 12.755 5.103 17.006l-.211.211zm31.248-59.944h-1.703v-1.063c6.166.211 11.48-1.063 15.732-3.611l.64.852c-4.04 2.549-8.932 3.823-14.669 3.823z" class="B"/><path d="M154.66 114.356c.212-.212.423-.212.64-.423 1.703-.64 3.189-1.703 4.463-2.977 1.063-1.063 2.126-2.766 1.703-4.252-.211-.851-1.485-1.703-2.337-2.125-.775-.517-1.585-.922-2.225-1.598-.67-.71-1.404-1.356-2.191-1.932-.329-.24-.681-.469-1.08-.534-.452-.071-.905.076-1.339.223-2.654.904-5.309 1.515-7.84 2.778-1.914.851-3.828 1.914-4.891 3.611-.852 1.274-1.486 2.549-1.703 4.04-.852 2.977-1.274 5.949-1.063 8.926 0 1.486.211 2.977.64 4.463.211.64.423 1.274 1.063 1.486s1.486-.423 1.914-.852c0 .852.212 1.703.64 2.337.423.64 1.275 1.063 2.126.852s1.486-1.063 1.063-1.915c.423 1.275.64 2.338 2.337 2.549h.423c.64 0 .851-.423 1.274-.851s.212-.212.64 0c.212.211.423.422.852.422.423.212 1.063 0 1.485-.422s.423-1.275.641-1.915l.64-5.737c-.212-2.12.211-4.88 2.125-6.154z" class="C"/><path d="M141.062 125.407h-1.063c0-.422 0-8.714 1.703-13.388l1.063.422c-1.703 4.463-1.703 12.966-1.703 12.966zm3.821 1.275h-1.063c0-.423 0-8.715 1.703-13.389l1.063.423c-1.703 4.463-1.703 12.966-1.703 12.966zm4.04 1.274h-1.063c0-.423 0-8.714 1.703-13.389l1.063.423c-1.703 4.252-1.703 12.755-1.703 12.966zm-2.548-24.869l-.423-.851c.423-.212 8.503-4.463 20.406-3.829v1.063c-11.697-.634-19.772 3.617-19.983 3.617z" class="B"/><g class="C"><path d="M99.398 120.306c1.063-.423 2.337-.641 3.4-.423s1.914.64 2.977 1.274l11.052 5.949c1.914 1.062 4.251 2.337 4.674 4.674.211 1.274 0 2.548-.423 3.611-1.063 2.126-2.766 3.612-4.251 5.526-.64.852-1.486 1.914-2.766 2.337-.423 0-.852.212-1.063.212-.423.211-.64.422-.852.64-1.062.64-2.125.64-3.4.211-1.062-.211-2.125-.851-2.977-1.486-.423-.211-.64-.422-.851-.64s-.212-.851 0-1.062.422-.212.64-.423c.851-.212 1.485-.423 2.337-.423-1.703-.64-3.4-1.486-4.674-2.977-.64-.852-1.063-1.915-1.486-2.766s-1.063-1.703-1.914-2.549c-1.274-1.274-2.977-2.337-3.829-3.828s-.64-3.189.211-4.675 2.549-2.337 4.04-2.337"/><path d="M107.901 125.619c-1.063-3.828-4.891-6.165-8.926-5.948l-22.743 1.486c-.211 0-.211-.212-.211-.212l14.452-19.766c2.977-5.314 1.274-12.326-4.252-15.303-5.314-2.977-12.326-1.063-15.303 4.251l-15.092 22.954c-3.611 5.526-8.503 11.263-9.355 17.852-.423 2.766.211 5.737 1.914 7.863 1.274 1.485 2.766 2.337 4.463 3.188 6.8 2.978 13.606.852 20.618-.64l18.492-3.828 9.354-1.915a8.2 8.2 0 0 0 6.589-9.983z"/></g><path d="M90.684 101.179c2.977-5.315 1.274-12.326-4.251-15.303-5.314-2.977-12.326-1.063-15.303 4.251l-11.052 16.795c7.44 1.703 14.24 4.04 21.04 7.229l9.566-12.972z" class="D"/><g class="B"><path d="M111.512 144.751l-.423-1.063c1.486-.64 2.548-1.914 2.977-3.4.423-1.485.212-3.188-.851-4.251l.851-.64c1.063 1.486 1.486 3.4.852 5.314-.429 1.703-1.703 3.189-3.406 4.04zm-6.798-3.4l-.641-.852c.641-.423 1.275-.64 1.915-.851-.852-.423-1.703-1.063-2.549-1.703-1.485-1.063-2.126-2.126-2.126-3.4h1.063c0 .851.64 1.703 1.703 2.548 1.486 1.063 3.189 2.126 5.103 2.549h.212l-.423 1.063h-.211c-1.498-.417-2.984-.206-4.046.646z"/><path d="M113.429 143.687h-.423l.211-1.062c.423 0 3.189.422 4.463-4.252.423-1.486-.64-3.829-1.703-5.103l.852-.64c1.274 1.486 2.548 4.252 1.914 5.949-1.274 3.617-3.611 5.108-5.314 5.108z"/><path d="M117.038 141.774l-.641-.852c1.703-1.274 3.612-4.463 2.549-7.44-.423-.851-.851-1.703-1.486-2.126l.64-.851c.852.64 1.486 1.703 1.915 2.548 1.063 3.195-.634 7.018-2.977 8.721z"/></g><path d="M175.067 233.387l-16.578-11.903 8.075-8.292 14.24 14.669-5.737 5.526z" class="C"/><path d="M172.731 235.295c-.423.64-.423 1.703-.211 2.548.211 1.063.422 2.338 1.062 3.189.852 1.063 2.126 1.486 3.4 1.914s2.338.852 3.612 1.063c3.611.852 7.44 1.486 11.051 2.337 4.892 1.063 10.418 1.915 14.029-1.485 1.486-1.486.852-3.189.423-4.675-.211-.211-.211-.64-.423-.851-.423-.423-.851.423-1.485.423l-5.315-1.275c-1.703-.422-3.188-1.274-4.891-2.125-3.612-1.703-7.441-4.252-11.481-5.315-2.548 1.275-5.314 2.338-8.074 3.189-1.063.423-2.337.423-2.337 1.703s.64 2.126 1.274 3.4c.212.423.64 1.063.852 1.486l.64.64c.64.64 1.485 1.063 2.337 1.485" fill="#9edbed"/><path d="M172.943 237.638c.211.211.211.423.423.423 1.485 1.274 4.251 1.914 6.166 2.337 3.611.851 7.44 1.486 11.051 2.337 2.977.64 6.166 1.274 9.355.852 1.485-.212 2.977-.641 4.251-1.486.852-.64 1.915-1.703 1.703-2.977-.211-.64-.64-.852-1.274-1.275-1.703-1.063-3.829-1.485-5.526-2.548-3.4-1.703-6.8-3.189-10.2-4.675l-4.463-1.914c-1.063-.423-2.548-1.274-3.829-1.486-.211.641-.64 1.063-1.274 1.486-1.914 1.486-4.463 1.703-6.8 1.914-.211 0-.211 0-.423.212-.211 0-.211.211-.211.423-.212 1.063 0 2.125 0 3.188a5.13 5.13 0 0 0 1.051 3.189z" class="B"/><path d="M99.829 286.096l-1.492-20.189 11.48.635-2.126 20.406-7.862-.852z" class="C"/><path d="M109.816 288.222c0-.212-.423-1.486-.64-1.915-.423-1.063-1.485-.64-2.548-.423-2.978.423-5.738.423-8.715.423-3.189 2.549-5.526 6.378-8.292 9.355-1.063 1.485-2.126 2.766-3.612 3.829s-2.977 2.125-4.463 3.4c-.423.422-1.274-.212-1.486.211v.851c.211 1.486.423 3.4 2.337 4.041 4.674 1.703 9.355-1.486 13.389-4.252 2.977-2.126 6.166-4.463 9.138-6.8 1.063-.64 1.914-1.486 2.765-2.337l.212-.212c.851-.851 1.914-1.703 2.337-2.977.211-.857-.211-1.92-.423-3.194z" fill="#9edbed"/><g class="B"><path d="M109.388 288.221c-.423 2.338-2.978 4.04-4.892 5.315-2.977 2.126-6.166 4.463-9.137 6.8-2.549 1.914-5.103 3.611-8.074 4.674-1.486.423-2.977.64-4.463.423-1.063-.211-2.549-.852-2.766-2.126 0-.64.211-1.063.64-1.485 1.274-1.703 2.766-2.978 4.04-4.463 2.337-2.766 4.891-5.526 7.44-8.292 1.063-1.274 2.126-2.337 3.4-3.611.852-.852 2.549-3.4 3.829-3.612.423.64.851 1.063 1.485 1.274 1.703 1.063 3.612 1.275 5.526 1.275.64 0 1.703-.212 2.126.422.64.641.851 1.915 1.063 2.766-.217-.205-.217.218-.217.64zm11.269-134.968l56.115 61.43c3.4 3.829-8.925 16.155-12.543 13.389l-65.252-51.653c-6.8-5.525-8.074-15.514-2.549-22.32 5.526-6.8 15.515-8.074 22.321-2.549.634.64 1.268 1.275 1.908 1.703z"/><path d="M135.537 197.678c.423-.641-.211 0-.64.211l-1.274 1.274-2.549 3.4c-1.703 2.337-3.188 5.103-4.674 7.863-2.977 5.737-5.315 11.903-7.44 18.492s-3.612 13.389-4.892 20.406c-.64 3.4-1.063 7.011-1.703 10.629l-1.063 10.84v.423c-.423 4.251-14.669 3.829-15.091.423l-1.703-11.481-1.274-11.691c-.423-7.863-.852-15.732-.423-23.806.423-8.075 1.274-16.155 3.189-24.447 1.063-4.251 2.126-8.291 3.611-12.543.64-2.126 1.703-4.251 2.548-6.377.64-1.063 1.063-2.126 1.703-3.4s1.063-2.126 2.549-4.252c6.8-7.863 18.491-8.925 26.354-2.125 8.509 6.389 9.361 18.292 2.772 26.161z"/><path d="M114.49 190.026l-20.617-1.275c-3.611-.211-7.44-.422-10.84-2.125-2.766-1.275-4.892-3.4-6.589-5.526-3.829-5.315-5.314-11.903-3.829-17.852 1.914-8.291 8.292-15.514 18.28-15.732 13.606 0 26.573-.851 41.447 2.126 3.611.64 7.44 3.189 9.566 5.949 4.04 5.314 6.166 11.051 6.377 17.64.212 5.737-1.914 11.903-7.011 15.515-1.275.851-2.766 1.703-4.463 1.703"/></g><path d="M123.168 155.567c-6.001-4.551-14.404-3.958-23.307-3.324l-1.104.077h-.716v1.01h.74l.164-.012c9.061-.634 17.623-1.227 23.66 3.147 4.915 3.565 13.177 12.544 23.266 25.275l.505.628.205.206.505-.505v-.124c.006-.605-15.691-20.559-23.918-26.378zm8.221 44.77c-2.426-2.079-8.104-6.953-13.571-9.936-3.429-1.903-9.777-2.601-17.869-1.973a4.37 4.37 0 0 1-.341.024h-.294v1.045l.323-.035c.118-.012 11.88-1.228 17.459 1.873 6.7 3.975 14.334 10.74 14.41 10.805l.17.152.746-1.086c-.147-.112-.558-.464-1.033-.869z" class="D"/><path d="M101.524 135.608h0c.423-7.44 3.189-12.326 4.674-14.452-.211-.211-.422-.211-.64-.423-1.914-1.063-4.463-1.703-6.588-1.485h-.423c-2.126 3.611-4.463 9.777-4.463 17.851 2.554-.428 5.103-1.063 7.44-1.491z" class="B"/><path d="M104.502 126.682l-8.075-2.766c-.64-.211-.852-.851-.64-1.486l1.914-5.314c.211-.64.851-.851 1.486-.64l8.075 2.766c.64.211.851.851.64 1.485l-1.915 5.315c-.211.64-.851.851-1.485.64z" fill="#9fdcee"/><path d="M104.923 127.322h-.64l-8.074-2.766c-.423-.211-.851-.423-1.063-.851a1.36 1.36 0 0 1 0-1.275l1.914-5.314c.211-.423.423-.851.852-1.063a1.36 1.36 0 0 1 1.274 0l8.074 2.766c.852.423 1.275 1.274 1.063 2.126l-1.914 5.314a1.6 1.6 0 0 1-1.486 1.063zm-.211-1.063c.423.212.64 0 .851-.423l1.915-5.314c.211-.423 0-.64-.423-.852l-8.075-2.765h-.423c-.211 0-.211.211-.423.422l-1.914 5.315v.423c0 .211.211.211.423.422l8.069 2.772z" class="B"/></svg>