<svg width="274" height="231" viewBox="0 0 274 231" fill="none" xmlns="http://www.w3.org/2000/svg">
<path d="M30.5312 198.16V13.7695C30.5312 6.80388 36.1976 1.16602 43.1613 1.16602H226.18C233.16 1.16602 238.81 6.82042 238.81 13.7695V198.16" fill="white"/>
<path d="M239.7 198.161H237.992V13.77C237.992 7.28009 232.703 2.01864 226.216 2.01864H43.1773C36.6737 2.01864 31.4011 7.29664 31.4011 13.77V198.161H29.6934V13.77C29.6934 6.34527 35.7535 0.314453 43.1773 0.314453H226.196C233.636 0.314453 239.679 6.36182 239.679 13.77V198.161H239.7Z" fill="#170F40"/>
<path d="M273.697 197.309H0.0302734V199.013H273.697V197.309Z" fill="#170F40"/>
<path d="M186.099 46.4016H55.3587C52.2333 46.4016 49.6924 43.8619 49.6924 40.7472C49.6924 37.6284 52.2375 35.0928 55.3587 35.0928H186.099C189.224 35.0928 191.765 37.6325 191.765 40.7472C191.765 43.8825 189.241 46.4016 186.099 46.4016Z" fill="#9FDCEE"/>
<path d="M209.932 44.4445L207.184 41.7187L208.394 40.5109L209.932 42.0413L214.317 37.665L215.511 38.8729L209.932 44.4445Z" fill="#D2006E"/>
<path d="M124.232 39.8994H56.8994V41.6036H124.232V39.8994Z" fill="#170F40"/>
<path d="M186.099 66.9797H55.3587C52.2333 66.9797 49.6924 64.44 49.6924 61.3253C49.6924 58.2065 52.2375 55.6709 55.3587 55.6709H186.099C189.224 55.6709 191.765 58.2106 191.765 61.3253C191.765 64.44 189.241 66.9797 186.099 66.9797Z" fill="#9FDCEE"/>
<path d="M209.932 65.0197L207.184 62.2773L208.394 61.0695L209.932 62.5999L214.317 58.2236L215.511 59.4315L209.932 65.0197Z" fill="#D2006E"/>
<path d="M150.806 60.4736H56.8994V62.1778H150.806V60.4736Z" fill="#170F40"/>
<path d="M186.099 87.5373H55.3587C52.2333 87.5373 49.6924 84.9976 49.6924 81.8829C49.6924 78.7641 52.2375 76.2285 55.3587 76.2285H186.099C189.224 76.2285 191.765 78.7682 191.765 81.8829C191.765 85.0142 189.241 87.5373 186.099 87.5373Z" fill="#9FDCEE"/>
<path d="M209.932 85.5774L207.184 82.8349L208.394 81.6437L209.932 83.1741L214.317 78.7979L215.511 79.9891L209.932 85.5774Z" fill="#D2006E"/>
<path d="M106.073 81.0312H56.8994V82.7354H106.073V81.0312Z" fill="#170F40"/>
<path d="M226.197 1.16602H43.175C36.1947 1.16602 30.5449 6.82042 30.5449 13.7695V19.5604H238.844V13.7695C238.844 6.80388 233.178 1.16602 226.197 1.16602Z" fill="#170F40"/>
<path d="M43.3459 13.0914C44.8545 13.0914 46.0775 11.871 46.0775 10.3655C46.0775 8.86006 44.8545 7.63965 43.3459 7.63965C41.8372 7.63965 40.6143 8.86006 40.6143 10.3655C40.6143 11.871 41.8372 13.0914 43.3459 13.0914Z" fill="#D2006E"/>
<path d="M54.717 13.0914C56.2256 13.0914 57.4486 11.871 57.4486 10.3655C57.4486 8.86006 56.2256 7.63965 54.717 7.63965C53.2083 7.63965 51.9854 8.86006 51.9854 10.3655C51.9854 11.871 53.2083 13.0914 54.717 13.0914Z" fill="#9FDCEE"/>
<path d="M66.0968 13.0914C67.6055 13.0914 68.8285 11.871 68.8285 10.3655C68.8285 8.86006 67.6055 7.63965 66.0968 7.63965C64.5882 7.63965 63.3652 8.86006 63.3652 10.3655C63.3652 11.871 64.5882 13.0914 66.0968 13.0914Z" fill="#9FDCEE"/>
<path d="M108.154 116.389C108.154 116.389 133.912 131.139 159.665 118.366C159.665 118.366 155.86 108.079 155.827 99.8024C155.827 95.8356 154.923 91.9185 152.925 88.477C150.981 85.0687 147.79 81.5776 142.6 79.8569C138.111 78.3926 133.228 78.7318 128.859 80.5394C124.764 82.227 119.711 85.412 118.19 91.0995C117.883 92.3073 117.763 93.5524 117.796 94.7602C117.916 98.76 117.729 114.139 108.154 116.389Z" fill="#160F41"/>
<path d="M120.715 98.3176C120.238 100.121 119.642 101.809 118.908 103.529C118.174 105.217 117.304 106.801 116.28 108.315C115.206 109.78 113.909 111.161 112.305 112.063C111.484 112.489 110.614 112.845 109.71 112.931C108.806 113.068 107.903 112.965 107.032 112.762C107.936 112.898 108.806 112.849 109.66 112.675C110.531 112.505 111.298 112.112 112.031 111.604C113.449 110.615 114.539 109.238 115.393 107.72C116.263 106.206 116.91 104.621 117.457 102.934C117.971 101.3 118.415 99.5792 118.667 97.8916L120.715 98.3176Z" fill="#160F41"/>
<path d="M126.023 110.392C126.023 110.392 126.28 120.439 121.737 124.563C121.737 124.563 129.505 131.462 138.977 133.741C138.977 133.741 140.05 127.831 139.114 125.431C139.114 125.431 133.891 123.711 136.859 116.422L135.988 115.521C133.364 112.675 129.866 110.905 126.023 110.392Z" fill="#F29B9B"/>
<path d="M143.998 84.7423C143.998 84.7423 132.424 81.0816 127.119 89.3088C127.119 89.3088 122.8 99.0872 125.838 107.228L125.821 107.244C125.821 107.244 126.078 108.659 126.045 110.429L128.163 111.674L128.267 111.368C128.814 111.997 129.411 112.613 130.112 113.192C133.27 115.782 137.332 116.77 141.258 116.257C145.747 115.662 150.936 113.974 152.404 107.248C152.379 107.244 156.698 89.6149 143.998 84.7423Z" fill="#F29B9B"/>
<path d="M139.289 101.639C139.837 101.639 140.28 101.197 140.28 100.651C140.28 100.105 139.837 99.6621 139.289 99.6621C138.742 99.6621 138.299 100.105 138.299 100.651C138.299 101.197 138.742 101.639 139.289 101.639Z" fill="#160F41"/>
<path d="M148.397 101.639C148.944 101.639 149.388 101.197 149.388 100.651C149.388 100.105 148.944 99.6621 148.397 99.6621C147.85 99.6621 147.406 100.105 147.406 100.651C147.41 101.197 147.854 101.639 148.397 101.639Z" fill="#160F41"/>
<path d="M123.703 88.5932C128.685 88.5932 132.731 84.5561 132.731 79.5842C132.731 74.6123 128.685 70.5752 123.703 70.5752C118.72 70.5752 114.675 74.6123 114.675 79.5842C114.675 84.5561 118.72 88.5932 123.703 88.5932Z" fill="#160F41"/>
<path d="M126.249 87.6912C123.057 89.1058 119.165 88.5102 116.57 86.3634C113.975 84.167 112.814 80.5064 113.635 77.2676H113.668C112.984 80.5022 114.315 83.9933 116.86 85.9705C119.405 87.9477 123.073 88.3034 125.888 86.926L126.249 87.6912Z" fill="#160F41"/>
<path d="M127.49 82.7691C125.973 85.7846 122.661 87.8114 119.332 87.7576C115.971 87.708 112.762 85.6439 111.345 82.6657H111.378C112.845 85.6481 116.087 87.5715 119.365 87.5384C122.644 87.4887 125.799 85.4785 127.183 82.583L127.49 82.7691Z" fill="#160F41"/>
<path d="M132.714 79.3608C132.714 79.3608 123.292 78.9347 119.674 87.6707C119.674 87.6914 123.79 81.4372 132.714 79.3608Z" fill="#D2006E"/>
<path d="M140.192 117.291C137.974 117.291 133.775 116.864 130.189 114.089L130.616 113.543C135.445 117.291 141.609 116.542 141.675 116.542L141.763 117.224C141.675 117.224 141.095 117.291 140.192 117.291Z" fill="#160D42"/>
<path d="M111.688 216.485C109.553 217.081 107.422 217.677 105.271 218.256C103.464 218.748 101.789 219.31 99.9281 219.397C97.897 219.484 95.8659 219.567 93.8348 219.637C92.8275 219.67 91.8037 219.724 90.8296 220.047C89.8721 220.369 88.9685 221.035 88.612 221.97C88.0317 223.434 88.9187 225.155 90.2161 226.04C91.5136 226.926 93.1343 227.182 94.7053 227.401C97.64 227.827 100.558 228.27 103.497 228.696C106.195 229.089 108.906 229.002 111.518 228.22C111.841 228.117 116.264 226.57 116.264 226.549C116.214 226.45 111.688 216.485 111.688 216.485Z" fill="#9FDCEE"/>
<path d="M104.605 223.98C104.468 223.98 104.265 222.942 103.647 221.73C103.051 220.572 102.35 219.753 102.437 219.67C102.487 219.583 103.395 220.315 103.991 221.56C104.655 222.872 104.688 223.98 104.605 223.98Z" fill="#263238"/>
<path d="M106.808 223.418C106.671 223.418 106.775 222.293 106.294 221.052C105.817 219.807 104.997 219.025 105.084 218.938C105.117 218.851 106.157 219.534 106.688 220.915C107.198 222.26 106.945 223.418 106.808 223.418Z" fill="#263238"/>
<path d="M106.429 220.489C106.379 220.489 106.172 219.894 106.172 218.802C106.172 218.289 106.222 217.644 106.396 216.945C106.483 216.605 106.62 216.262 106.736 215.906C106.823 215.737 106.906 215.513 107.076 215.344C107.299 215.174 107.672 215.207 107.859 215.393C108.083 215.563 108.116 215.819 108.166 216.039C108.215 216.262 108.215 216.432 108.215 216.634C108.215 217.027 108.166 217.416 108.079 217.759C107.909 218.442 107.652 219.004 107.395 219.48C106.881 220.382 106.404 220.862 106.404 220.808C106.371 220.775 106.744 220.245 107.187 219.344C107.411 218.868 107.664 218.305 107.784 217.656C107.871 217.317 107.921 216.974 107.921 216.618C107.921 216.279 107.921 215.836 107.697 215.662C107.61 215.575 107.473 215.575 107.391 215.613C107.303 215.7 107.221 215.836 107.134 216.006C106.997 216.345 106.877 216.688 106.794 216.994C106.624 217.639 106.537 218.239 106.487 218.765C106.379 219.84 106.516 220.489 106.429 220.489Z" fill="#263238"/>
<path d="M106.466 220.282C106.466 220.232 106.98 220.059 107.933 220.059C108.41 220.059 108.924 220.108 109.537 220.282C109.844 220.369 110.134 220.452 110.441 220.621C110.748 220.791 111.088 221.217 110.955 221.659C110.868 222.085 110.478 222.391 110.134 222.478C109.794 222.565 109.45 222.528 109.144 222.478C108.547 222.342 108.016 222.052 107.676 221.746C106.943 221.184 106.603 220.758 106.636 220.708C106.686 220.658 107.112 221.014 107.846 221.527C108.24 221.75 108.667 222.003 109.231 222.123C109.488 222.172 109.794 222.209 110.051 222.123C110.308 222.036 110.528 221.866 110.615 221.61C110.702 221.353 110.528 221.134 110.275 220.964C110.018 220.828 109.711 220.741 109.454 220.658C108.891 220.489 108.381 220.435 107.937 220.402C107.03 220.232 106.466 220.319 106.466 220.282Z" fill="#263238"/>
<path d="M135.225 217.135C135.192 217.238 144.017 218.053 144.734 218.036C148.883 217.933 152.979 217.337 157.124 217.201C157.48 217.184 157.874 217.184 158.181 217.387C158.641 217.677 158.745 218.305 158.695 218.851C158.558 220.655 157.414 222.239 156.067 223.451C152.245 226.892 146.935 228.051 141.882 229.019C138.313 229.718 134.678 228.406 131.213 227.484C131.213 227.472 135.225 217.151 135.225 217.135Z" fill="#9FDCEE"/>
<path d="M141.93 217.834C139.116 217.594 135.207 217.205 135.24 217.135C135.24 217.151 131.228 227.472 131.228 227.472C134.693 228.39 138.328 229.701 141.897 229.006C145.313 228.34 148.828 227.591 151.932 226.111C148.484 223.468 145.068 220.795 141.93 217.834Z" fill="#9FDCEE"/>
<path d="M209.588 133.266C209.435 132.959 209.145 132.719 208.805 132.686C209.402 132.62 209.725 131.867 209.505 131.326C209.265 130.78 208.652 130.49 208.055 130.49C208.531 130.064 208.531 129.245 208.121 128.753C207.661 128.19 206.927 128.223 206.243 128.24C206.703 127.797 207.201 127.284 207.163 126.639C207.147 126.126 206.77 125.684 206.326 125.481C205.866 125.258 205.352 125.241 204.842 125.295C203.802 125.398 202.811 125.824 201.874 126.3C201.65 126.42 201.431 126.54 201.174 126.523C200.063 126.474 200.013 123.83 199.657 123.065C198.989 121.618 198.053 121.448 197.456 121.498C197.182 121.514 196.962 121.804 197.078 122.06C197.302 122.842 197.725 124.376 197.762 125.022C197.829 126.076 197.029 127.272 196.635 128.207C196.038 129.621 195.425 131.036 194.828 132.446C194.471 133.299 194.094 134.167 193.65 134.986C192.933 136.297 181.634 149.633 181.841 149.157C181.978 148.851 155.524 131.069 155.607 130.676L154.566 147.825L171.362 158.948C174.604 161.095 183.429 165.116 186.861 163.002C188.432 162.03 189.642 160.599 190.786 159.172C192.714 156.752 194.405 154.266 195.992 151.61C197.936 148.338 200.005 145.153 201.642 141.733C201.729 141.547 201.829 141.34 201.966 141.187C202.119 141.001 202.322 140.864 202.529 140.744C204.167 139.673 205.787 138.444 207.122 136.997C207.889 136.177 209.41 135.396 209.733 134.287C209.796 133.948 209.742 133.576 209.588 133.266Z" fill="#F29B9B"/>
<path d="M157.277 131.223L154.529 147.83L163.541 153.791C166.048 149.65 168.37 145.563 170.641 141.22C164.138 136.827 157.481 131.599 157.277 131.223Z" fill="#D2006E"/>
<path d="M109.453 183.531L104.997 191.245C104.997 191.245 82.9288 183.187 70.0252 185.52C65.1091 186.422 59.8365 197.545 67.0034 204.697C74.0003 211.679 86.477 221.507 109.93 224.692C110.527 224.779 120.119 226.839 119.522 226.752C118.925 226.665 132.989 228.898 132.989 228.898L136.268 216.448L162.432 220.535C177.843 219.496 185.404 203.042 176.119 197.747C167.431 192.792 151.165 192.399 151.165 192.399L148.811 183.101L109.453 183.531Z" fill="#160D42"/>
<path d="M138.419 176.375C138.419 176.375 138.283 176.599 137.992 176.938C137.735 177.277 137.259 177.757 136.695 178.32C136.131 178.882 135.398 179.478 134.527 180.09C133.657 180.686 132.666 181.298 131.592 181.86C130.519 182.423 129.391 182.816 128.401 183.155C127.41 183.461 126.457 183.668 125.686 183.8C124.902 183.937 124.268 184.024 123.791 184.024C123.364 184.024 123.107 184.073 123.107 184.024C123.107 183.974 124.098 183.887 125.653 183.598C126.436 183.461 127.344 183.205 128.33 182.915C129.321 182.576 130.394 182.183 131.489 181.62C132.562 181.058 133.553 180.462 134.424 179.9C135.294 179.304 136.028 178.692 136.575 178.179C137.735 177.058 138.382 176.326 138.419 176.375Z" fill="#263238"/>
<path d="M148.261 182.352C148.261 182.439 147.27 182.439 146.143 182.745C144.982 183.001 144.111 183.477 144.078 183.39C144.029 183.34 144.862 182.745 146.06 182.488C147.274 182.149 148.315 182.269 148.261 182.352Z" fill="#263238"/>
<g opacity="0.3">
<g opacity="0.3">
<g opacity="0.3">
<path d="M125.598 183.7C130.257 182.881 134.576 180.379 137.648 176.768C138.212 178.455 137.735 180.482 136.487 181.723C137.872 182.368 139.476 181.946 140.976 181.723C142.493 181.5 144.305 181.723 145.039 183.051C138.299 183.646 131.571 183.87 124.777 183.613" fill="black"/>
</g>
</g>
</g>
<path d="M126.332 121.346L118.771 122.946L122.527 137.031L135.907 139.926L145.056 133.42L146.303 125.668L136.235 122.45L126.332 121.346Z" fill="#F29B9B"/>
<path d="M120.972 122.366C120.972 122.366 130 135.549 134.182 134.577C136.59 134.014 141.693 124.17 141.693 124.17C141.693 124.17 153.113 127.185 157.071 131.032C162.908 136.736 158.319 141.166 158.319 141.166C158.012 142.374 157.963 143.635 157.652 144.827C157.411 145.761 156.918 146.225 156.441 147.023C155.177 149.153 155.314 152.012 155.505 154.382C155.828 158.315 156.101 161.823 153.83 165.248C152.823 166.782 151.202 167.92 150.551 169.641C150.261 170.422 150.195 171.258 150.141 172.077C150.004 174.36 149.954 176.66 150.004 178.96C150.037 180.561 150.738 183.216 148.503 183.32C143.894 183.56 139.131 183.386 134.489 183.506C127.169 183.708 119.844 183.915 112.524 184.118C112.524 184.118 105.577 192.138 103.376 189.379C101.208 186.62 99.0898 181.239 99.0898 181.239L105.046 149.236L113.838 123.926L120.972 122.366Z" fill="#D2006E"/>
<path d="M124.758 168.371L124.534 167.552C124.601 167.535 132.128 165.339 135.03 156.193L135.85 156.45C132.799 166.054 125.085 168.284 124.758 168.371Z" fill="#160D42"/>
<path d="M129.35 184.805L128.496 184.832L128.929 198.62L129.782 198.593L129.35 184.805Z" fill="#D2006E"/>
<path d="M132.341 203.985L131.657 203.472C137.734 195.245 150.364 192.229 150.911 192.113L151.098 192.949C150.961 192.965 138.211 196.014 132.341 203.985Z" fill="#D2006E"/>
<path d="M136.164 215.343C134.8 214.868 102.746 203.608 97.1297 197.561C91.7038 191.737 85.3866 191.241 85.3203 191.224L85.3701 190.372C85.6436 190.389 92.0768 190.885 97.7431 196.982C103.223 202.876 136.11 214.421 136.438 214.541L136.164 215.343Z" fill="#D2006E"/>
<path d="M119.575 208.89L119.455 208.038C119.642 208.005 138.912 205.416 148.674 201.602C158.572 197.734 169.034 198.127 169.138 198.127L169.105 198.98C169.001 198.98 158.709 198.603 148.981 202.404C139.115 206.251 119.762 208.874 119.575 208.89Z" fill="#D2006E"/>
<path d="M141.043 223.129H140.189C140.189 223.009 140.206 220.353 141.607 218.955L142.204 219.551C141.076 220.692 141.043 223.096 141.043 223.129Z" fill="#160D42"/>
<path d="M202.196 131.222C202.059 131.222 201.939 131.206 201.819 131.173C201.409 131.069 201.085 130.78 200.882 130.353C200.658 129.911 200.696 129.348 200.969 128.802C201.156 128.409 201.463 128.07 201.807 127.814L204.468 125.667L204.895 126.196L202.217 128.343C201.943 128.546 201.724 128.802 201.57 129.092C201.434 129.348 201.33 129.721 201.483 130.047C201.603 130.304 201.773 130.44 201.997 130.507C202.391 130.61 202.934 130.42 203.585 129.961C204.849 129.075 206.213 127.814 206.213 127.797L206.673 128.289C206.623 128.339 205.255 129.601 203.958 130.519C203.291 130.986 202.71 131.222 202.196 131.222Z" fill="#160D42"/>
<path d="M203.683 132.959C203.393 132.959 203.086 132.909 202.813 132.702C202.369 132.396 202.129 131.85 202.129 131.069H202.813C202.813 131.598 202.933 131.97 203.19 132.14C203.53 132.38 204.077 132.243 204.247 132.173L207.899 129.923L208.255 130.502L204.533 132.785C204.487 132.806 204.131 132.959 203.683 132.959Z" fill="#160D42"/>
<path d="M204.794 134.614C204.554 134.614 204.351 134.564 204.197 134.445C203.634 134.035 203.721 133.22 203.754 132.877L204.438 132.943C204.405 133.299 204.388 133.725 204.608 133.899C204.811 134.052 205.615 133.932 208.21 132.517C208.483 132.364 208.703 132.244 208.823 132.194L209.114 132.807C208.993 132.856 208.79 132.976 208.533 133.113C206.809 134.035 205.582 134.614 204.794 134.614Z" fill="#160D42"/>
<path d="M127.53 220.593C126.746 219.79 125.702 219.128 125.105 218.21C124.574 217.391 124.421 216.32 124.081 215.418C122.817 212.233 119.472 210.376 118.294 207.191C116.877 203.377 116.077 199.17 115.016 195.253C112.968 187.676 111.14 180.044 109.88 172.313C108.495 163.883 107.471 154.394 108.479 145.861C108.682 144.058 108.993 142.184 109.76 140.529C111.007 137.836 112.951 137.53 113.735 137.53H113.532L116.296 123.905C111.977 123.632 101.619 125.659 97.3699 134.821C94.572 140.868 93.6476 148.533 93.888 155.073C94.2818 165.6 96.7399 175.051 100.135 185.016C102.713 192.631 105.424 200.209 107.952 207.84C108.056 208.13 108.259 208.506 108.276 208.812C108.396 211.418 108.499 212.849 109.93 215.116C110.866 216.597 111.774 218.351 111.927 220.125C112.097 221.949 112.951 223.703 113.312 225.523C113.498 226.458 113.652 227.43 114.046 228.315C114.286 228.845 114.763 229.271 115.376 228.981C115.853 228.758 115.907 228.249 116.213 227.856C116.487 228.299 116.744 228.774 117.101 229.167C117.478 229.56 117.971 229.85 118.518 229.883C119.065 229.916 119.629 229.61 119.832 229.118C119.986 229.457 120.155 229.8 120.412 230.073C120.839 230.532 121.349 230.603 121.88 230.313C122.12 230.193 122.203 229.887 122.444 229.767C122.667 229.664 122.904 229.751 123.111 229.664C124.441 229.134 124.321 227.161 124.321 225.933C124.321 224.349 124.272 222.764 124.151 221.18C124.151 221.317 125.362 222.185 125.552 222.322C125.996 222.661 126.319 222.901 126.953 222.797C127.31 222.748 127.671 222.574 127.928 222.305C128.048 222.185 128.151 222.032 128.201 221.863C128.305 221.42 127.961 221.027 127.637 220.704C127.579 220.659 127.563 220.626 127.53 220.593Z" fill="#F29B9B"/>
<path d="M108.46 145.836C108.663 144.032 108.974 142.158 109.74 140.504C110.988 137.811 112.932 137.505 113.716 137.505H113.512L116.277 123.88C111.958 123.607 101.599 125.634 97.3507 134.796C94.5859 140.756 93.6657 148.268 93.8688 154.741C98.5984 153.616 103.34 153.107 108.07 152.867C108.066 150.485 108.186 148.119 108.46 145.836Z" fill="#D2006E"/>
<path d="M205.75 136.265C205.203 136.265 204.776 136.062 204.573 135.685C204.332 135.276 204.452 134.784 204.523 134.494L205.19 134.647C205.124 134.904 205.07 135.177 205.174 135.346C205.31 135.57 205.704 135.603 206.044 135.549C206.384 135.495 206.728 135.396 207.035 135.259L207.308 135.888C206.931 136.041 206.541 136.161 206.131 136.227C205.986 136.248 205.87 136.265 205.75 136.265Z" fill="#160D42"/>
<path d="M139.03 86.227C139.03 86.227 147.445 96.0054 153.198 96.3115C153.198 96.3115 151.868 82.8724 139.594 83.5218H136.062L139.03 86.227Z" fill="#160F41"/>
<path d="M139.029 86.2267C139.029 86.2267 137.305 86.2267 136.041 89.2918C136.041 89.2918 131.945 99.5955 128.65 99.2397C128.65 99.2397 125.118 98.1146 123.087 99.6658C123.087 99.6658 121.45 83.6746 136.041 83.4678L139.029 86.2267Z" fill="#160F41"/>
<path d="M122.763 105.627C122.233 105.097 121.806 104.518 121.536 103.939C120.633 102.049 120.649 99.4925 122.22 97.962C124.372 95.8483 128.09 97.2133 129.168 99.8027C129.151 99.6 129.595 105.85 127.804 106.888C126.092 107.84 124.111 106.971 122.763 105.627Z" fill="#F29B9B"/>
<path d="M126.299 107.976C124.798 107.976 123.157 107.141 122.083 106.069L122.56 105.594C123.907 106.938 126.162 107.823 127.629 106.975L127.969 107.571C127.459 107.84 126.879 107.976 126.299 107.976Z" fill="#170F40"/>
<path d="M137.119 97.1258L136.605 96.6833C136.622 96.6667 138.243 94.826 140.771 96.2241L140.448 96.8198C138.417 95.6947 137.169 97.0721 137.119 97.1258Z" fill="#170F40"/>
<path d="M150.002 97.3989C149.953 97.3493 148.705 95.9677 146.691 97.0763L146.367 96.4806C148.892 95.0991 150.516 96.9232 150.533 96.9398L150.002 97.3989Z" fill="#170F40"/>
<path d="M143.265 108.828C141.901 108.828 140.276 108.418 138.775 106.971L139.252 106.479C142.34 109.477 145.992 107.571 146.15 107.484L146.473 108.079C146.473 108.096 145.093 108.828 143.265 108.828Z" fill="#170F40"/>
<path d="M145.158 105.506L145.038 104.841L147.43 104.398L145.109 100.481L145.689 100.142L148.503 104.89L145.158 105.506Z" fill="#170F40"/>
<path d="M122.213 221.022L121.371 221.162L122.79 229.644L123.633 229.503L122.213 221.022Z" fill="#160D42"/>
<path d="M118.982 221.807L118.139 221.94L119.461 230.267L120.304 230.133L118.982 221.807Z" fill="#160D42"/>
<path d="M115.395 220.529L114.552 220.662L115.874 228.988L116.717 228.855L115.395 220.529Z" fill="#160D42"/>
</svg>
