<svg width="275" height="231" viewBox="0 0 275 231" fill="none" xmlns="http://www.w3.org/2000/svg">
<path d="M31.123 198.161V13.7705C31.123 6.80485 36.7894 1.16699 43.7531 1.16699H226.771C233.752 1.16699 239.401 6.8214 239.401 13.7705V198.161" fill="white"/>
<path d="M240.292 198.161H238.584V13.7705C238.584 7.28058 233.295 2.01912 226.808 2.01912H43.7691C37.2655 2.01912 31.9929 7.29712 31.9929 13.7705V198.161H30.2852V13.7705C30.2852 6.34576 36.3453 0.314941 43.7691 0.314941H226.787C234.228 0.314941 240.271 6.36231 240.271 13.7705V198.161H240.292Z" fill="#170F40"/>
<path d="M274.29 197.309H0.623047V199.013H274.29V197.309Z" fill="#170F40"/>
<path d="M186.692 46.4026H55.9515C52.8261 46.4026 50.2852 43.8628 50.2852 40.7482C50.2852 37.6293 52.8302 35.0938 55.9515 35.0938H186.692C189.817 35.0938 192.358 37.6335 192.358 40.7482C192.358 43.8835 189.834 46.4026 186.692 46.4026Z" fill="#9FDCEE"/>
<path d="M210.524 44.446L207.775 41.7201L208.986 40.5123L210.524 42.0428L214.909 37.6665L216.103 38.8743L210.524 44.446Z" fill="#D2006E"/>
<path d="M124.825 39.9004H57.4922V41.6046H124.825V39.9004Z" fill="#170F40"/>
<path d="M186.692 66.9802H55.9515C52.8261 66.9802 50.2852 64.4405 50.2852 61.3258C50.2852 58.207 52.8302 55.6714 55.9515 55.6714H186.692C189.817 55.6714 192.358 58.2111 192.358 61.3258C192.358 64.4405 189.834 66.9802 186.692 66.9802Z" fill="#9FDCEE"/>
<path d="M210.524 65.0202L207.775 62.2778L208.986 61.0699L210.524 62.6004L214.909 58.2241L216.103 59.4319L210.524 65.0202Z" fill="#D2006E"/>
<path d="M151.399 60.4741H57.4922V62.1783H151.399V60.4741Z" fill="#170F40"/>
<path d="M186.692 87.5378H55.9515C52.8261 87.5378 50.2852 84.9981 50.2852 81.8834C50.2852 78.7646 52.8302 76.229 55.9515 76.229H186.692C189.817 76.229 192.358 78.7687 192.358 81.8834C192.358 85.0146 189.834 87.5378 186.692 87.5378Z" fill="#9FDCEE"/>
<path d="M210.524 85.5774L207.775 82.8349L208.986 81.6437L210.524 83.1741L214.909 78.7979L216.103 79.9891L210.524 85.5774Z" fill="#D2006E"/>
<path d="M106.665 81.0312H57.4922V82.7354H106.665V81.0312Z" fill="#170F40"/>
<path d="M226.789 1.16699H43.7668C36.7865 1.16699 31.1367 6.8214 31.1367 13.7705V19.5614H239.436V13.7705C239.436 6.80485 233.769 1.16699 226.789 1.16699Z" fill="#170F40"/>
<path d="M43.9386 13.0919C45.4473 13.0919 46.6703 11.8715 46.6703 10.366C46.6703 8.86055 45.4473 7.64014 43.9386 7.64014C42.43 7.64014 41.207 8.86055 41.207 10.366C41.207 11.8715 42.43 13.0919 43.9386 13.0919Z" fill="#D2006E"/>
<path d="M55.3097 13.0919C56.8184 13.0919 58.0414 11.8715 58.0414 10.366C58.0414 8.86055 56.8184 7.64014 55.3097 7.64014C53.8011 7.64014 52.5781 8.86055 52.5781 10.366C52.5781 11.8715 53.8011 13.0919 55.3097 13.0919Z" fill="#9FDCEE"/>
<path d="M66.6886 13.0919C68.1973 13.0919 69.4203 11.8715 69.4203 10.366C69.4203 8.86055 68.1973 7.64014 66.6886 7.64014C65.18 7.64014 63.957 8.86055 63.957 10.366C63.957 11.8715 65.18 13.0919 66.6886 13.0919Z" fill="#9FDCEE"/>
<path d="M108.748 116.39C108.748 116.39 134.506 131.14 160.259 118.367C160.259 118.367 156.454 108.08 156.421 99.8029C156.421 95.8361 155.517 91.919 153.519 88.4775C151.575 85.0692 148.383 81.5781 143.194 79.8573C138.705 78.3931 133.822 78.7323 129.453 80.5398C125.357 82.2275 120.305 85.4125 118.783 91.1C118.477 92.3078 118.356 93.5528 118.39 94.7607C118.51 98.7605 118.323 114.14 108.748 116.39Z" fill="#160F41"/>
<path d="M121.308 98.3181C120.831 100.122 120.234 101.809 119.501 103.53C118.767 105.218 117.897 106.802 116.873 108.316C115.799 109.78 114.502 111.162 112.898 112.063C112.077 112.489 111.206 112.845 110.303 112.932C109.399 113.068 108.495 112.965 107.625 112.762C108.529 112.899 109.399 112.849 110.253 112.675C111.123 112.506 111.89 112.113 112.624 111.604C114.042 110.616 115.132 109.238 115.986 107.72C116.856 106.206 117.503 104.622 118.05 102.934C118.564 101.3 119.007 99.5797 119.26 97.8921L121.308 98.3181Z" fill="#160F41"/>
<path d="M126.616 110.392C126.616 110.392 126.873 120.439 122.33 124.563C122.33 124.563 130.098 131.463 139.57 133.742C139.57 133.742 140.643 127.831 139.706 125.432C139.706 125.432 134.483 123.711 137.451 116.423L136.581 115.521C133.957 112.675 130.459 110.905 126.616 110.392Z" fill="#F29B9B"/>
<path d="M144.59 84.7428C144.59 84.7428 133.017 81.0821 127.712 89.3093C127.712 89.3093 123.392 99.0877 126.431 107.228L126.414 107.245C126.414 107.245 126.671 108.659 126.638 110.43L128.756 111.675L128.86 111.369C129.407 111.997 130.004 112.614 130.704 113.193C133.863 115.782 137.925 116.771 141.85 116.258C146.34 115.662 151.529 113.974 152.997 107.249C152.972 107.245 157.291 89.6154 144.59 84.7428Z" fill="#F29B9B"/>
<path d="M139.883 101.639C140.43 101.639 140.874 101.197 140.874 100.651C140.874 100.105 140.43 99.6621 139.883 99.6621C139.336 99.6621 138.893 100.105 138.893 100.651C138.893 101.197 139.336 101.639 139.883 101.639Z" fill="#160F41"/>
<path d="M148.991 101.639C149.538 101.639 149.981 101.197 149.981 100.651C149.981 100.105 149.538 99.6621 148.991 99.6621C148.444 99.6621 148 100.105 148 100.651C148.004 101.197 148.448 101.639 148.991 101.639Z" fill="#160F41"/>
<path d="M124.296 88.5937C129.278 88.5937 133.324 84.5566 133.324 79.5847C133.324 74.6128 129.278 70.5757 124.296 70.5757C119.313 70.5757 115.268 74.6128 115.268 79.5847C115.268 84.5566 119.313 88.5937 124.296 88.5937Z" fill="#160F41"/>
<path d="M126.84 87.6917C123.649 89.1063 119.756 88.5107 117.162 86.3639C114.567 84.1675 113.406 80.5068 114.227 77.2681H114.26C113.576 80.5027 114.907 83.9938 117.452 85.971C119.997 87.9481 123.665 88.3039 126.48 86.9265L126.84 87.6917Z" fill="#160F41"/>
<path d="M128.083 82.7696C126.566 85.785 123.254 87.8119 119.925 87.7581C116.563 87.7084 113.355 85.6444 111.938 82.6662H111.971C113.438 85.6485 116.679 87.5719 119.958 87.5389C123.237 87.4892 126.391 85.479 127.776 82.5835L128.083 82.7696Z" fill="#160F41"/>
<path d="M133.308 79.3608C133.308 79.3608 123.886 78.9347 120.268 87.6707C120.268 87.6914 124.384 81.4372 133.308 79.3608Z" fill="#D2006E"/>
<path d="M140.783 117.291C138.566 117.291 134.367 116.865 130.781 114.09L131.208 113.544C136.037 117.291 142.201 116.543 142.267 116.543L142.354 117.225C142.267 117.225 141.687 117.291 140.783 117.291Z" fill="#160D42"/>
<path d="M112.28 216.486C110.146 217.081 108.015 217.677 105.864 218.256C104.057 218.748 102.382 219.311 100.521 219.398C98.4898 219.485 96.4587 219.567 94.4276 219.638C93.4203 219.671 92.3965 219.725 91.4224 220.047C90.4649 220.37 89.5612 221.036 89.2048 221.971C88.6244 223.435 89.5115 225.156 90.8089 226.041C92.1063 226.926 93.7271 227.182 95.298 227.402C98.2328 227.828 101.151 228.27 104.09 228.696C106.788 229.089 109.499 229.002 112.111 228.221C112.434 228.117 116.857 226.57 116.857 226.55C116.807 226.45 112.28 216.486 112.28 216.486Z" fill="#9FDCEE"/>
<path d="M105.199 223.981C105.062 223.981 104.859 222.943 104.241 221.731C103.644 220.573 102.944 219.754 103.031 219.671C103.081 219.584 103.988 220.316 104.585 221.561C105.248 222.873 105.282 223.981 105.199 223.981Z" fill="#263238"/>
<path d="M107.401 223.418C107.264 223.418 107.368 222.293 106.887 221.052C106.41 219.807 105.589 219.025 105.676 218.939C105.709 218.852 106.75 219.534 107.28 220.916C107.79 222.26 107.537 223.418 107.401 223.418Z" fill="#263238"/>
<path d="M107.023 220.49C106.973 220.49 106.766 219.894 106.766 218.802C106.766 218.289 106.815 217.644 106.989 216.945C107.077 216.606 107.213 216.263 107.329 215.907C107.416 215.737 107.499 215.514 107.669 215.344C107.893 215.175 108.266 215.208 108.453 215.394C108.677 215.563 108.71 215.82 108.759 216.039C108.809 216.263 108.809 216.432 108.809 216.635C108.809 217.028 108.759 217.417 108.672 217.76C108.502 218.442 108.245 219.005 107.988 219.481C107.474 220.382 106.998 220.862 106.998 220.808C106.965 220.775 107.338 220.246 107.781 219.344C108.005 218.868 108.258 218.306 108.378 217.656C108.465 217.317 108.515 216.974 108.515 216.618C108.515 216.279 108.515 215.836 108.291 215.663C108.204 215.576 108.067 215.576 107.984 215.613C107.897 215.7 107.814 215.836 107.727 216.006C107.591 216.345 107.47 216.689 107.387 216.995C107.217 217.64 107.13 218.24 107.081 218.765C106.973 219.84 107.11 220.49 107.023 220.49Z" fill="#263238"/>
<path d="M107.059 220.282C107.059 220.233 107.573 220.059 108.526 220.059C109.003 220.059 109.517 220.109 110.13 220.282C110.437 220.369 110.727 220.452 111.034 220.622C111.34 220.791 111.68 221.217 111.548 221.66C111.461 222.086 111.071 222.392 110.727 222.479C110.387 222.566 110.043 222.528 109.736 222.479C109.139 222.342 108.609 222.053 108.269 221.747C107.535 221.184 107.195 220.758 107.229 220.708C107.278 220.659 107.705 221.015 108.439 221.527C108.833 221.751 109.26 222.003 109.823 222.123C110.08 222.173 110.387 222.21 110.644 222.123C110.901 222.036 111.121 221.867 111.208 221.61C111.295 221.354 111.121 221.135 110.868 220.965C110.611 220.828 110.304 220.742 110.047 220.659C109.483 220.489 108.974 220.435 108.53 220.402C107.622 220.233 107.059 220.32 107.059 220.282Z" fill="#263238"/>
<path d="M135.819 217.135C135.786 217.239 144.611 218.054 145.328 218.037C149.477 217.934 153.573 217.338 157.718 217.201C158.074 217.185 158.468 217.185 158.775 217.388C159.235 217.677 159.338 218.306 159.289 218.852C159.152 220.655 158.008 222.24 156.661 223.451C152.839 226.893 147.529 228.051 142.476 229.019C138.907 229.718 135.272 228.407 131.807 227.484C131.807 227.472 135.819 217.152 135.819 217.135Z" fill="#9FDCEE"/>
<path d="M142.523 217.834C139.708 217.594 135.8 217.206 135.833 217.135C135.833 217.152 131.82 227.472 131.82 227.472C135.286 228.39 138.921 229.702 142.49 229.007C145.905 228.341 149.42 227.592 152.525 226.111C149.076 223.468 145.661 220.796 142.523 217.834Z" fill="#9FDCEE"/>
<path d="M210.182 133.266C210.029 132.96 209.739 132.72 209.399 132.687C209.996 132.621 210.319 131.868 210.099 131.327C209.859 130.781 209.245 130.491 208.648 130.491C209.125 130.065 209.125 129.246 208.715 128.754C208.255 128.191 207.521 128.224 206.837 128.241C207.297 127.798 207.795 127.285 207.757 126.64C207.741 126.127 207.363 125.685 206.92 125.482C206.46 125.258 205.946 125.242 205.436 125.296C204.396 125.399 203.405 125.825 202.468 126.301C202.244 126.421 202.025 126.541 201.768 126.524C200.657 126.475 200.607 123.831 200.25 123.066C199.583 121.618 198.646 121.449 198.049 121.499C197.776 121.515 197.556 121.805 197.672 122.061C197.896 122.843 198.319 124.377 198.356 125.023C198.422 126.077 197.622 127.273 197.229 128.208C196.632 129.622 196.018 131.037 195.421 132.447C195.065 133.3 194.688 134.168 194.244 134.987C193.527 136.298 182.228 149.634 182.435 149.158C182.572 148.852 156.118 131.07 156.201 130.677L155.16 147.826L171.956 158.949C175.198 161.096 184.022 165.116 187.455 163.003C189.026 162.031 190.236 160.6 191.38 159.173C193.307 156.753 194.999 154.267 196.586 151.611C198.53 148.339 200.599 145.154 202.236 141.734C202.323 141.547 202.422 141.341 202.559 141.188C202.713 141.001 202.916 140.865 203.123 140.745C204.76 139.674 206.381 138.445 207.716 136.997C208.483 136.178 210.004 135.397 210.327 134.288C210.389 133.949 210.335 133.577 210.182 133.266Z" fill="#F29B9B"/>
<path d="M157.871 131.223L155.123 147.831L164.134 153.791C166.642 149.651 168.963 145.564 171.235 141.221C164.731 136.828 158.074 131.6 157.871 131.223Z" fill="#D2006E"/>
<path d="M110.046 183.531L105.59 191.246C105.59 191.246 83.5216 183.188 70.6179 185.521C65.7019 186.423 60.4293 197.545 67.5962 204.697C74.5931 211.679 87.0698 221.507 110.523 224.692C111.12 224.779 120.711 226.839 120.114 226.752C119.518 226.665 133.582 228.899 133.582 228.899L136.861 216.448L163.024 220.535C178.436 219.497 185.997 203.042 176.712 197.748C168.023 192.793 151.758 192.4 151.758 192.4L149.404 183.101L110.046 183.531Z" fill="#160D42"/>
<path d="M139.013 176.375C139.013 176.375 138.876 176.599 138.586 176.938C138.329 177.277 137.853 177.757 137.289 178.32C136.725 178.882 135.991 179.478 135.121 180.09C134.25 180.686 133.26 181.298 132.186 181.86C131.113 182.423 129.985 182.816 128.994 183.155C128.004 183.461 127.05 183.668 126.279 183.8C125.496 183.937 124.862 184.024 124.385 184.024C123.958 184.024 123.701 184.073 123.701 184.024C123.701 183.974 124.692 183.887 126.246 183.598C127.03 183.461 127.937 183.205 128.924 182.915C129.915 182.576 130.988 182.183 132.083 181.62C133.156 181.058 134.147 180.462 135.017 179.9C135.888 179.304 136.621 178.692 137.169 178.179C138.329 177.058 138.976 176.326 139.013 176.375Z" fill="#263238"/>
<path d="M148.852 182.352C148.852 182.439 147.862 182.439 146.734 182.745C145.574 183.002 144.703 183.477 144.67 183.39C144.62 183.341 145.454 182.745 146.651 182.489C147.866 182.15 148.906 182.27 148.852 182.352Z" fill="#263238"/>
<g opacity="0.3">
<g opacity="0.3">
<g opacity="0.3">
<path d="M126.192 183.701C130.851 182.882 135.17 180.379 138.242 176.768C138.805 178.456 138.329 180.483 137.081 181.723C138.465 182.369 140.07 181.947 141.57 181.723C143.087 181.5 144.899 181.723 145.632 183.051C138.892 183.647 132.165 183.87 125.371 183.614" fill="black"/>
</g>
</g>
</g>
<path d="M126.926 121.346L119.365 122.946L123.121 137.031L136.501 139.926L145.649 133.42L146.897 125.668L136.829 122.45L126.926 121.346Z" fill="#F29B9B"/>
<path d="M121.566 122.367C121.566 122.367 130.594 135.549 134.776 134.577C137.184 134.015 142.287 124.17 142.287 124.17C142.287 124.17 153.707 127.186 157.665 131.032C163.501 136.736 158.913 141.166 158.913 141.166C158.606 142.374 158.556 143.636 158.245 144.827C158.005 145.762 157.512 146.225 157.035 147.024C155.771 149.154 155.908 152.012 156.098 154.382C156.422 158.316 156.695 161.823 154.424 165.248C153.416 166.783 151.796 167.92 151.145 169.641C150.855 170.423 150.788 171.259 150.735 172.078C150.598 174.361 150.548 176.661 150.598 178.96C150.631 180.561 151.331 183.217 149.097 183.32C144.488 183.56 139.725 183.386 135.083 183.506C127.762 183.709 120.438 183.916 113.118 184.118C113.118 184.118 106.171 192.139 103.97 189.38C101.802 186.621 99.6836 181.24 99.6836 181.24L105.64 149.237L114.432 123.926L121.566 122.367Z" fill="#D2006E"/>
<path d="M125.351 168.371L125.127 167.552C125.193 167.536 132.721 165.339 135.622 156.194L136.443 156.45C133.392 166.055 125.678 168.284 125.351 168.371Z" fill="#160D42"/>
<path d="M129.943 184.806L129.09 184.833L129.523 198.62L130.376 198.594L129.943 184.806Z" fill="#D2006E"/>
<path d="M132.934 203.985L132.25 203.472C138.327 195.245 150.957 192.23 151.504 192.114L151.69 192.949C151.554 192.966 138.803 196.014 132.934 203.985Z" fill="#D2006E"/>
<path d="M136.758 215.344C135.394 214.868 103.34 203.609 97.7234 197.562C92.2975 191.738 85.9804 191.241 85.9141 191.225L85.9638 190.373C86.2374 190.389 92.6706 190.885 98.3369 196.982C103.817 202.877 136.704 214.421 137.031 214.541L136.758 215.344Z" fill="#D2006E"/>
<path d="M120.167 208.891L120.047 208.039C120.233 208.006 139.504 205.417 149.266 201.603C159.164 197.735 169.626 198.128 169.73 198.128L169.697 198.98C169.593 198.98 159.301 198.604 149.572 202.405C139.707 206.252 120.354 208.875 120.167 208.891Z" fill="#D2006E"/>
<path d="M141.635 223.129H140.781C140.781 223.009 140.798 220.353 142.199 218.955L142.796 219.551C141.668 220.692 141.635 223.096 141.635 223.129Z" fill="#160D42"/>
<path d="M202.788 131.223C202.651 131.223 202.531 131.206 202.411 131.173C202 131.07 201.677 130.78 201.474 130.354C201.25 129.911 201.288 129.349 201.561 128.803C201.748 128.41 202.054 128.071 202.398 127.814L205.06 125.667L205.486 126.197L202.809 128.344C202.535 128.546 202.315 128.803 202.162 129.092C202.025 129.349 201.922 129.721 202.075 130.048C202.195 130.304 202.365 130.441 202.589 130.507C202.983 130.61 203.526 130.42 204.177 129.961C205.441 129.076 206.805 127.814 206.805 127.798L207.265 128.29C207.215 128.34 205.847 129.601 204.55 130.519C203.882 130.987 203.302 131.223 202.788 131.223Z" fill="#160D42"/>
<path d="M204.277 132.96C203.987 132.96 203.68 132.91 203.407 132.703C202.963 132.397 202.723 131.851 202.723 131.07H203.407C203.407 131.599 203.527 131.971 203.784 132.141C204.124 132.381 204.671 132.244 204.841 132.174L208.493 129.924L208.849 130.503L205.127 132.786C205.081 132.807 204.725 132.96 204.277 132.96Z" fill="#160D42"/>
<path d="M205.388 134.615C205.148 134.615 204.945 134.565 204.791 134.445C204.227 134.036 204.314 133.221 204.348 132.877L205.032 132.944C204.998 133.299 204.982 133.725 205.202 133.899C205.405 134.052 206.209 133.932 208.804 132.517C209.077 132.364 209.297 132.244 209.417 132.195L209.707 132.807C209.587 132.857 209.384 132.977 209.127 133.113C207.403 134.036 206.176 134.615 205.388 134.615Z" fill="#160D42"/>
<path d="M128.123 220.593C127.34 219.79 126.295 219.128 125.698 218.21C125.168 217.391 125.015 216.32 124.675 215.418C123.41 212.233 120.065 210.376 118.888 207.191C117.47 203.377 116.67 199.17 115.609 195.253C113.562 187.676 111.734 180.044 110.474 172.313C109.089 163.883 108.065 154.394 109.073 145.861C109.276 144.058 109.586 142.184 110.353 140.529C111.601 137.836 113.545 137.53 114.328 137.53H114.125L116.89 123.905C112.571 123.632 102.212 125.659 97.9637 134.821C95.1657 140.868 94.2414 148.533 94.4818 155.073C94.8756 165.6 97.3336 175.051 100.728 185.016C103.307 192.631 106.018 200.209 108.546 207.84C108.65 208.13 108.853 208.506 108.869 208.812C108.99 211.418 109.093 212.849 110.523 215.116C111.46 216.597 112.368 218.351 112.521 220.125C112.691 221.949 113.545 223.703 113.906 225.523C114.092 226.458 114.246 227.43 114.639 228.315C114.88 228.845 115.356 229.271 115.97 228.981C116.447 228.758 116.501 228.249 116.807 227.856C117.081 228.299 117.338 228.774 117.694 229.167C118.071 229.56 118.565 229.85 119.112 229.883C119.659 229.916 120.223 229.61 120.426 229.118C120.579 229.457 120.749 229.8 121.006 230.073C121.433 230.532 121.943 230.603 122.474 230.313C122.714 230.193 122.797 229.887 123.037 229.767C123.261 229.664 123.497 229.751 123.705 229.664C125.035 229.134 124.915 227.161 124.915 225.933C124.915 224.349 124.865 222.764 124.745 221.18C124.745 221.317 125.955 222.185 126.146 222.322C126.59 222.661 126.913 222.901 127.547 222.797C127.904 222.748 128.264 222.574 128.521 222.305C128.641 222.185 128.745 222.032 128.795 221.863C128.898 221.42 128.554 221.027 128.231 220.704C128.173 220.659 128.156 220.626 128.123 220.593Z" fill="#F29B9B"/>
<path d="M109.053 145.837C109.256 144.033 109.567 142.159 110.334 140.505C111.582 137.812 113.526 137.506 114.309 137.506H114.106L116.871 123.881C112.552 123.608 102.193 125.635 97.9445 134.797C95.1797 140.757 94.2595 148.269 94.4626 154.742C99.1921 153.617 103.934 153.108 108.664 152.868C108.66 150.486 108.78 148.12 109.053 145.837Z" fill="#D2006E"/>
<path d="M206.342 136.265C205.794 136.265 205.367 136.062 205.164 135.686C204.924 135.276 205.044 134.784 205.115 134.495L205.782 134.648C205.716 134.904 205.662 135.177 205.765 135.347C205.902 135.57 206.296 135.603 206.636 135.549C206.976 135.496 207.32 135.396 207.627 135.26L207.9 135.889C207.523 136.042 207.133 136.162 206.723 136.228C206.578 136.248 206.462 136.265 206.342 136.265Z" fill="#160D42"/>
<path d="M139.624 86.2275C139.624 86.2275 148.039 96.0058 153.792 96.3119C153.792 96.3119 152.461 82.8729 140.188 83.5223H136.656L139.624 86.2275Z" fill="#160F41"/>
<path d="M139.622 86.2272C139.622 86.2272 137.898 86.2272 136.633 89.2923C136.633 89.2923 132.538 99.5959 129.243 99.2402C129.243 99.2402 125.711 98.1151 123.68 99.6663C123.68 99.6663 122.043 83.6751 136.633 83.4683L139.622 86.2272Z" fill="#160F41"/>
<path d="M123.355 105.627C122.825 105.098 122.398 104.519 122.128 103.94C121.225 102.049 121.241 99.4929 122.812 97.9625C124.964 95.8488 128.682 97.2138 129.759 99.8032C129.743 99.6005 130.186 105.851 128.396 106.889C126.684 107.84 124.702 106.971 123.355 105.627Z" fill="#F29B9B"/>
<path d="M126.891 107.976C125.391 107.976 123.749 107.141 122.676 106.069L123.152 105.594C124.5 106.938 126.755 107.823 128.222 106.975L128.562 107.571C128.052 107.84 127.472 107.976 126.891 107.976Z" fill="#170F40"/>
<path d="M137.713 97.1268L137.199 96.6842C137.216 96.6677 138.837 94.827 141.365 96.2251L141.042 96.8207C139.011 95.6956 137.763 97.073 137.713 97.1268Z" fill="#170F40"/>
<path d="M150.594 97.3999C150.544 97.3502 149.297 95.9687 147.282 97.0772L146.959 96.4816C149.483 95.1 151.108 96.9242 151.125 96.9407L150.594 97.3999Z" fill="#170F40"/>
<path d="M143.856 108.828C142.493 108.828 140.868 108.419 139.367 106.971L139.844 106.479C142.932 109.478 146.584 107.571 146.741 107.484L147.065 108.08C147.065 108.096 145.684 108.828 143.856 108.828Z" fill="#170F40"/>
<path d="M145.751 105.507L145.631 104.841L148.023 104.398L145.701 100.481L146.282 100.142L149.096 104.891L145.751 105.507Z" fill="#170F40"/>
<path d="M122.807 221.022L121.965 221.163L123.384 229.644L124.226 229.504L122.807 221.022Z" fill="#160D42"/>
<path d="M119.576 221.807L118.732 221.94L120.054 230.267L120.898 230.133L119.576 221.807Z" fill="#160D42"/>
<path d="M115.988 220.529L115.145 220.662L116.467 228.988L117.31 228.855L115.988 220.529Z" fill="#160D42"/>
</svg>
