<svg xmlns="http://www.w3.org/2000/svg" width="221" height="156" fill="none" xmlns:v="https://vecta.io/nano"><path d="M0 8a8 8 0 0 1 8-8h205a8 8 0 0 1 8 8v139.55a8 8 0 0 1-8 8H8a8 8 0 0 1-8-8V8z" fill="#e7effe"/><rect x="25" y="44.87" width="171.522" height="46.522" rx="6.609" fill="#fff"/><path d="M41.379 73.363l4.251-14.278h4.14L43.486 77.13h-2.727l.62-3.768zm-3.917-14.278l4.239 14.278.644 3.768h-2.751l-6.247-18.046h4.115zm83.864 0V77.13h-3.706V59.084h3.706zm13.335-.037V77.13h-3.57V63.162l-4.288 1.363v-2.814l7.473-2.665h.385zm-73.353-.001V77.13h-3.569V63.162l-4.288 1.363v-2.814l7.474-2.665h.384zm11.054 7.511h1.909c.612 0 1.116-.103 1.512-.31.397-.215.69-.512.88-.892.198-.388.297-.839.297-1.351 0-.463-.091-.872-.273-1.227a1.85 1.85 0 0 0-.806-.843c-.364-.207-.822-.31-1.376-.31-.438 0-.843.087-1.215.26s-.669.417-.892.731-.335.694-.335 1.14h-3.582c0-.991.264-1.855.793-2.59.537-.735 1.256-1.31 2.157-1.723s1.892-.62 2.975-.62c1.223 0 2.293.198 3.21.595.917.388 1.632.963 2.144 1.723s.768 1.702.768 2.826a3.72 3.72 0 0 1-.397 1.661 4.67 4.67 0 0 1-1.14 1.438c-.487.421-1.082.76-1.785 1.016-.702.248-1.492.372-2.367.372H72.36v-1.896zm0 2.714v-1.847h2.479c.983 0 1.847.111 2.59.335s1.368.545 1.872.967a4.02 4.02 0 0 1 1.14 1.475c.256.562.384 1.186.384 1.871 0 .843-.161 1.595-.483 2.256a4.73 4.73 0 0 1-1.363 1.661c-.578.454-1.256.802-2.033 1.041-.777.231-1.624.347-2.541.347-.76 0-1.508-.103-2.243-.31a6.69 6.69 0 0 1-1.983-.954 4.91 4.91 0 0 1-1.413-1.611c-.347-.653-.521-1.425-.521-2.318h3.582c0 .463.116.876.347 1.239s.55.649.954.855c.413.207.872.31 1.376.31.57 0 1.058-.103 1.463-.31a2.24 2.24 0 0 0 .942-.892c.223-.388.335-.839.335-1.351 0-.661-.12-1.19-.359-1.586a2.13 2.13 0 0 0-1.029-.892c-.446-.19-.975-.285-1.587-.285h-1.909zm15.801-.359l-2.851-.682 1.029-9.147h10.138v2.888h-7.201l-.446 4.003c.24-.141.603-.289 1.091-.446.488-.165 1.033-.248 1.636-.248.876 0 1.653.136 2.33.409a4.61 4.61 0 0 1 1.723 1.19c.479.521.843 1.157 1.091 1.909s.372 1.603.372 2.553a7.05 7.05 0 0 1-.372 2.293c-.248.719-.624 1.363-1.128 1.934-.504.562-1.136 1.004-1.896 1.326s-1.661.483-2.702.483c-.777 0-1.529-.116-2.256-.347a6.19 6.19 0 0 1-1.946-1.029 5.3 5.3 0 0 1-1.376-1.648c-.339-.653-.517-1.397-.533-2.231h3.545c.05.512.182.954.397 1.326.223.364.516.645.88.843s.789.297 1.277.297c.454 0 .843-.087 1.165-.26a2.1 2.1 0 0 0 .781-.719 3.39 3.39 0 0 0 .434-1.091 5.95 5.95 0 0 0 .149-1.363c0-.487-.058-.93-.174-1.326s-.293-.74-.533-1.029-.545-.512-.917-.669c-.364-.157-.789-.236-1.277-.236-.661 0-1.173.103-1.537.31-.355.207-.653.442-.892.706zm24.886-2.392v3.123c0 1.355-.145 2.524-.434 3.507-.289.975-.706 1.776-1.252 2.404a4.94 4.94 0 0 1-1.921 1.376c-.744.298-1.57.446-2.479.446a7.27 7.27 0 0 1-2.032-.273c-.628-.19-1.194-.483-1.698-.88-.496-.397-.926-.897-1.289-1.5-.356-.611-.628-1.339-.818-2.181s-.285-1.81-.285-2.9V66.52c0-1.355.144-2.516.433-3.483.298-.975.715-1.772 1.252-2.392a4.93 4.93 0 0 1 1.934-1.363c.743-.297 1.57-.446 2.479-.446.727 0 1.4.095 2.02.285a5.06 5.06 0 0 1 1.698.855c.504.388.934.888 1.289 1.5.355.603.628 1.326.818 2.169.19.835.285 1.793.285 2.875zm-3.582 3.594v-4.078c0-.653-.037-1.223-.111-1.71-.067-.488-.17-.901-.31-1.239-.141-.347-.314-.628-.521-.843s-.442-.372-.706-.471-.558-.149-.88-.149c-.405 0-.765.078-1.079.236-.305.157-.566.409-.78.756-.215.339-.381.793-.496 1.363-.108.562-.161 1.248-.161 2.057v4.078c0 .653.033 1.227.099 1.723.074.496.182.921.322 1.277.149.347.322.632.521.855a1.89 1.89 0 0 0 .706.471c.273.099.57.149.892.149.397 0 .748-.079 1.054-.236.314-.165.578-.421.793-.769.223-.355.389-.818.496-1.388s.161-1.264.161-2.082zm44.937 4.227v2.789h-12.345v-2.38l5.838-6.259c.587-.653 1.05-1.227 1.388-1.723.339-.504.583-.954.732-1.351a3.19 3.19 0 0 0 .235-1.153c0-.545-.091-1.012-.273-1.401-.181-.397-.45-.702-.805-.917-.347-.215-.777-.322-1.289-.322-.546 0-1.017.132-1.413.397a2.52 2.52 0 0 0-.893 1.103c-.198.471-.297 1.004-.297 1.599H141.7c0-1.074.256-2.057.768-2.95.513-.901 1.236-1.615 2.169-2.144.934-.537 2.041-.806 3.322-.806 1.264 0 2.33.207 3.198.62.876.405 1.537.991 1.983 1.76.454.76.682 1.669.682 2.727 0 .595-.095 1.178-.285 1.748a7.91 7.91 0 0 1-.819 1.686 13.54 13.54 0 0 1-1.264 1.686l-1.648 1.772-3.136 3.52h7.734zm16.099 0v2.789h-12.345v-2.38l5.838-6.259c.586-.653 1.049-1.227 1.388-1.723.339-.504.582-.954.731-1.351.157-.405.236-.789.236-1.153 0-.545-.091-1.012-.273-1.401a2.03 2.03 0 0 0-.806-.917c-.347-.215-.776-.322-1.289-.322-.545 0-1.016.132-1.413.397-.388.264-.685.632-.892 1.103-.198.471-.297 1.004-.297 1.599h-3.582c0-1.074.256-2.057.768-2.95a5.63 5.63 0 0 1 2.169-2.144c.934-.537 2.041-.806 3.322-.806 1.264 0 2.33.207 3.197.62.876.405 1.537.991 1.984 1.76.454.76.681 1.669.681 2.727 0 .595-.095 1.178-.285 1.748-.19.562-.463 1.124-.818 1.686a13.54 13.54 0 0 1-1.264 1.686l-1.649 1.772-3.135 3.52h7.734zm16.098 0v2.789h-12.344v-2.38l5.837-6.259c.587-.653 1.05-1.227 1.389-1.723.338-.504.582-.954.731-1.351a3.19 3.19 0 0 0 .235-1.153c0-.545-.091-1.012-.272-1.401-.182-.397-.451-.702-.806-.917-.347-.215-.777-.322-1.289-.322-.545 0-1.016.132-1.413.397a2.52 2.52 0 0 0-.892 1.103c-.199.471-.298 1.004-.298 1.599h-3.582c0-1.074.256-2.057.769-2.95a5.63 5.63 0 0 1 2.169-2.144c.933-.537 2.041-.806 3.321-.806 1.265 0 2.33.207 3.198.62.876.405 1.537.991 1.983 1.76.455.76.682 1.669.682 2.727 0 .595-.095 1.178-.285 1.748-.19.562-.463 1.124-.818 1.686a13.64 13.64 0 0 1-1.264 1.686l-1.649 1.772-3.136 3.52h7.734z" fill="#160f41"/><path d="M16.998 113.944a2.17 2.17 0 0 1-1.08-.276c-.328-.192-.592-.448-.792-.768s-.3-.68-.3-1.08c0-.368.092-.712.276-1.032a2.24 2.24 0 0 1 .78-.792 2.04 2.04 0 0 1 1.116-.312c.384 0 .74.092 1.068.276.336.184.604.44.804.768.2.32.3.684.3 1.092 0 .392-.1.748-.3 1.068-.192.32-.452.576-.78.768a2.12 2.12 0 0 1-1.092.288zM27.044 115v-8.46H29.9c1.368 0 2.424.364 3.168 1.092.744.72 1.116 1.764 1.116 3.132s-.372 2.416-1.116 3.144S31.268 115 29.9 115h-2.856zm.984-.84h1.8c2.208 0 3.312-1.132 3.312-3.396 0-2.256-1.104-3.384-3.312-3.384h-1.8v6.78zm7.67-6.444v-1.092h1.2v1.092h-1.2zm.12 7.284v-5.832h.972V115h-.972zm3.101 0v-5.076h-1.152v-.756h1.152v-.204c0-.776.192-1.364.576-1.764.392-.4.992-.624 1.8-.672l.468-.024.084.744-.552.036c-.496.04-.856.188-1.08.444-.216.256-.324.628-.324 1.116v.324h1.68v.756h-1.68V115h-.972zm6.148.108c-.92 0-1.648-.268-2.184-.804-.536-.544-.804-1.28-.804-2.208 0-.6.12-1.128.36-1.584a2.6 2.6 0 0 1 .984-1.068c.424-.256.912-.384 1.464-.384.792 0 1.412.256 1.86.768.448.504.672 1.2.672 2.088v.372h-4.392c.032.664.224 1.172.576 1.524.352.344.84.516 1.464.516a3.24 3.24 0 0 0 1.008-.156 2.83 2.83 0 0 0 .912-.54l.336.684a2.82 2.82 0 0 1-1.008.588 3.92 3.92 0 0 1-1.248.204zm-.156-5.328c-.552 0-.988.172-1.308.516s-.508.796-.564 1.356h3.54c-.024-.592-.18-1.052-.468-1.38-.28-.328-.68-.492-1.2-.492zm3.915 5.22v-5.832h.948v1.044c.312-.704.952-1.092 1.92-1.164l.348-.036.072.84-.612.072c-.552.048-.972.224-1.26.528-.288.296-.432.704-.432 1.224V115h-.984zm6.858.108c-.92 0-1.648-.268-2.184-.804-.536-.544-.804-1.28-.804-2.208 0-.6.12-1.128.36-1.584a2.6 2.6 0 0 1 .984-1.068c.424-.256.912-.384 1.464-.384.792 0 1.412.256 1.86.768.448.504.672 1.2.672 2.088v.372h-4.392c.032.664.224 1.172.576 1.524.352.344.84.516 1.464.516a3.24 3.24 0 0 0 1.008-.156 2.83 2.83 0 0 0 .912-.54l.336.684a2.82 2.82 0 0 1-1.008.588 3.92 3.92 0 0 1-1.248.204zm-.156-5.328c-.552 0-.988.172-1.308.516s-.508.796-.564 1.356h3.54c-.024-.592-.18-1.052-.468-1.38-.28-.328-.68-.492-1.2-.492zm3.915 5.22v-5.832h.948v.996c.192-.368.464-.644.816-.828s.748-.276 1.188-.276c1.384 0 2.076.768 2.076 2.304V115h-.972v-3.576c0-.544-.108-.94-.324-1.188-.208-.256-.544-.384-1.008-.384-.536 0-.964.168-1.284.504-.312.328-.468.768-.468 1.32V115h-.972zm9.292.108c-.584 0-1.088-.124-1.512-.372a2.59 2.59 0 0 1-.984-1.068c-.224-.464-.336-1.004-.336-1.62 0-.928.252-1.656.756-2.184.504-.536 1.196-.804 2.076-.804.36 0 .716.064 1.068.192s.644.308.876.54l-.336.708c-.232-.224-.488-.388-.768-.492-.272-.104-.532-.156-.78-.156-.608 0-1.076.192-1.404.576-.328.376-.492.92-.492 1.632 0 .696.164 1.248.492 1.656.328.4.796.6 1.404.6.248 0 .508-.052.78-.156.28-.104.536-.272.768-.504l.336.708c-.232.232-.528.416-.888.552-.352.128-.704.192-1.056.192zm2.963-7.392v-1.092h1.2v1.092h-1.2zm.12 7.284v-5.832h.972V115h-.972zm4.625.108c-.4 0-.76-.076-1.08-.228-.312-.16-.56-.376-.744-.648a1.59 1.59 0 0 1-.276-.912c0-.424.108-.76.324-1.008.224-.248.588-.424 1.092-.528.512-.112 1.208-.168 2.088-.168h.384v-.372c0-.496-.104-.852-.312-1.068-.2-.224-.524-.336-.972-.336-.352 0-.692.052-1.02.156-.328.096-.664.256-1.008.48l-.336-.708c.304-.216.672-.388 1.104-.516a4.51 4.51 0 0 1 1.26-.192c.752 0 1.308.184 1.668.552.368.368.552.94.552 1.716V115h-.912v-1.008a1.8 1.8 0 0 1-.708.816c-.312.2-.68.3-1.104.3zm.156-.732a1.53 1.53 0 0 0 1.176-.492c.304-.336.456-.76.456-1.272v-.36h-.372c-.648 0-1.16.032-1.536.096-.368.056-.628.16-.78.312-.144.144-.216.344-.216.6 0 .328.112.596.336.804.232.208.544.312.936.312zm9.241.732c-.592 0-1.04-.172-1.344-.516-.296-.352-.444-.86-.444-1.524v-6.528h.972v6.456c0 .856.34 1.284 1.02 1.284.2 0 .38-.024.54-.072l-.024.816c-.248.056-.488.084-.72.084zm3.599 0c-.4 0-.76-.076-1.08-.228-.312-.16-.56-.376-.744-.648a1.59 1.59 0 0 1-.276-.912c0-.424.108-.76.324-1.008.224-.248.588-.424 1.092-.528.512-.112 1.208-.168 2.088-.168h.384v-.372c0-.496-.104-.852-.312-1.068-.2-.224-.524-.336-.972-.336-.352 0-.692.052-1.02.156-.328.096-.664.256-1.008.48l-.336-.708c.304-.216.672-.388 1.104-.516a4.51 4.51 0 0 1 1.26-.192c.752 0 1.308.184 1.668.552.368.368.552.94.552 1.716V115h-.912v-1.008a1.8 1.8 0 0 1-.708.816c-.312.2-.68.3-1.104.3zm.156-.732a1.53 1.53 0 0 0 1.176-.492c.304-.336.456-.76.456-1.272v-.36h-.372c-.648 0-1.16.032-1.536.096-.368.056-.628.16-.78.312-.144.144-.216.344-.216.6 0 .328.112.596.336.804.232.208.544.312.936.312zm6.339.732c-.456 0-.888-.064-1.296-.192s-.744-.308-1.008-.54l.312-.684c.288.232.604.404.948.516a3.75 3.75 0 0 0 1.068.156c.456 0 .8-.084 1.032-.252a.8.8 0 0 0 .348-.684c0-.224-.076-.4-.228-.528-.152-.136-.392-.24-.72-.312l-1.092-.24c-.992-.216-1.488-.728-1.488-1.536 0-.528.208-.952.624-1.272.424-.32.976-.48 1.656-.48.4 0 .78.064 1.14.192.368.12.672.3.912.54l-.324.684c-.232-.216-.504-.38-.816-.492-.304-.12-.608-.18-.912-.18-.448 0-.788.088-1.02.264a.83.83 0 0 0-.348.696c0 .448.296.736.888.864l1.092.228c.512.112.9.292 1.164.54.264.24.396.568.396.984 0 .536-.212.96-.636 1.272-.424.304-.988.456-1.692.456zm8.679 0c-.592 0-1.04-.172-1.344-.516-.296-.352-.444-.86-.444-1.524v-6.528h.972v6.456c0 .856.34 1.284 1.02 1.284.2 0 .38-.024.54-.072l-.024.816c-.248.056-.488.084-.72.084zm4.332 0c-.92 0-1.648-.268-2.184-.804-.536-.544-.804-1.28-.804-2.208 0-.6.12-1.128.36-1.584a2.6 2.6 0 0 1 .984-1.068c.424-.256.912-.384 1.464-.384.792 0 1.412.256 1.86.768.448.504.672 1.2.672 2.088v.372h-4.392c.032.664.224 1.172.576 1.524.352.344.84.516 1.464.516a3.24 3.24 0 0 0 1.008-.156 2.83 2.83 0 0 0 .912-.54l.336.684a2.82 2.82 0 0 1-1.008.588 3.92 3.92 0 0 1-1.248.204zm-.156-5.328c-.552 0-.988.172-1.308.516s-.508.796-.564 1.356h3.54c-.024-.592-.18-1.052-.468-1.38-.28-.328-.68-.492-1.2-.492zm6.255 5.328c-.688 0-1.204-.18-1.548-.54-.344-.368-.516-.896-.516-1.584v-3.06h-1.14v-.756h1.14v-1.788h.972v1.788h1.848v.756h-1.848v2.964c0 .456.096.804.288 1.044.192.232.504.348.936.348a1.58 1.58 0 0 0 .384-.048l.348-.096.168.744c-.104.056-.256.108-.456.156s-.392.072-.576.072zM116.9 115v-5.832h.948v1.044c.312-.704.952-1.092 1.92-1.164l.348-.036.072.84-.612.072c-.552.048-.972.224-1.26.528-.288.296-.432.704-.432 1.224V115h-.984zm6.078.108c-.4 0-.76-.076-1.08-.228-.312-.16-.56-.376-.744-.648a1.59 1.59 0 0 1-.276-.912c0-.424.108-.76.324-1.008.224-.248.588-.424 1.092-.528.512-.112 1.208-.168 2.088-.168h.384v-.372c0-.496-.104-.852-.312-1.068-.2-.224-.524-.336-.972-.336-.352 0-.692.052-1.02.156-.328.096-.664.256-1.008.48l-.336-.708c.304-.216.672-.388 1.104-.516a4.51 4.51 0 0 1 1.26-.192c.752 0 1.308.184 1.668.552.368.368.552.94.552 1.716V115h-.912v-1.008a1.8 1.8 0 0 1-.708.816c-.312.2-.68.3-1.104.3zm.156-.732a1.53 1.53 0 0 0 1.176-.492c.304-.336.456-.76.456-1.272v-.36h-.372c-.648 0-1.16.032-1.536.096-.368.056-.628.16-.78.312-.144.144-.216.344-.216.6 0 .328.112.596.336.804.232.208.544.312.936.312zm6.34.732c-.456 0-.888-.064-1.296-.192s-.744-.308-1.008-.54l.312-.684c.288.232.604.404.948.516a3.75 3.75 0 0 0 1.068.156c.456 0 .8-.084 1.032-.252a.8.8 0 0 0 .348-.684c0-.224-.076-.4-.228-.528-.152-.136-.392-.24-.72-.312l-1.092-.24c-.992-.216-1.488-.728-1.488-1.536 0-.528.208-.952.624-1.272.424-.32.976-.48 1.656-.48.4 0 .78.064 1.14.192.368.12.672.3.912.54l-.324.684c-.232-.216-.504-.38-.816-.492-.304-.12-.608-.18-.912-.18-.448 0-.788.088-1.02.264a.83.83 0 0 0-.348.696c0 .448.296.736.888.864l1.092.228c.512.112.9.292 1.164.54.264.24.396.568.396.984 0 .536-.212.96-.636 1.272-.424.304-.988.456-1.692.456zm7.023-.108v-8.46h.984V115h-.984zm3.286 1.368l-.456-.348c.176-.184.3-.36.372-.528a1.6 1.6 0 0 0 .156-.492h-.576v-1.224h1.224v.864a2.6 2.6 0 0 1-.156.912c-.104.28-.292.552-.564.816zM145.38 115v-8.46h.984v7.596h4.308V115h-5.292zm6.86 1.368l-.456-.348c.176-.184.3-.36.372-.528a1.6 1.6 0 0 0 .156-.492h-.576v-1.224h1.224v.864a2.6 2.6 0 0 1-.156.912c-.104.28-.292.552-.564.816zm9.149-1.26c-.784 0-1.468-.176-2.052-.528-.576-.36-1.024-.864-1.344-1.512-.312-.648-.468-1.416-.468-2.304s.156-1.656.468-2.304.756-1.148 1.332-1.5c.584-.352 1.272-.528 2.064-.528.8 0 1.488.176 2.064.528.584.352 1.032.852 1.344 1.5.32.64.48 1.404.48 2.292s-.16 1.66-.48 2.316c-.32.648-.772 1.152-1.356 1.512-.576.352-1.26.528-2.052.528zm0-.876c.904 0 1.604-.304 2.1-.912s.744-1.46.744-2.556-.248-1.944-.744-2.544c-.496-.608-1.196-.912-2.1-.912-.888 0-1.58.304-2.076.912-.496.6-.744 1.448-.744 2.544 0 1.088.248 1.94.744 2.556.496.608 1.188.912 2.076.912z" fill="#424242"/><path d="M15.155 29V18.425h4.59c1.16 0 2.055.28 2.685.84.63.55.945 1.325.945 2.325 0 .79-.205 1.445-.615 1.965-.41.51-1 .855-1.77 1.035.51.16.93.545 1.26 1.155L24.02 29h-2.115l-1.83-3.375c-.18-.33-.395-.555-.645-.675-.24-.12-.55-.18-.93-.18h-1.425V29h-1.92zm1.92-5.655h2.34c1.4 0 2.1-.57 2.1-1.71 0-1.13-.7-1.695-2.1-1.695h-2.34v3.405zm11.608 5.805c-.83 0-1.545-.155-2.145-.465s-1.065-.75-1.395-1.32c-.32-.57-.48-1.245-.48-2.025 0-.76.155-1.425.465-1.995.32-.57.755-1.015 1.305-1.335.56-.33 1.195-.495 1.905-.495 1.04 0 1.86.33 2.46.99.61.66.915 1.56.915 2.7v.555h-5.25c.14 1.31.89 1.965 2.25 1.965a4.36 4.36 0 0 0 1.23-.18 3.49 3.49 0 0 0 1.125-.6l.525 1.26c-.35.29-.79.52-1.32.69a5.18 5.18 0 0 1-1.59.255zm-.27-6.36c-.55 0-.995.17-1.335.51s-.545.8-.615 1.38h3.69c-.04-.61-.21-1.075-.51-1.395-.29-.33-.7-.495-1.23-.495zm8.175 6.36c-.77 0-1.44-.155-2.01-.465a3.3 3.3 0 0 1-1.32-1.35c-.31-.58-.465-1.26-.465-2.04s.155-1.45.465-2.01c.31-.57.75-1.005 1.32-1.305.57-.31 1.24-.465 2.01-.465.47 0 .935.075 1.395.225s.84.36 1.14.63l-.555 1.305c-.26-.23-.555-.405-.885-.525-.32-.12-.63-.18-.93-.18-.65 0-1.155.205-1.515.615-.35.4-.525.975-.525 1.725 0 .74.175 1.325.525 1.755.36.42.865.63 1.515.63.29 0 .6-.06.93-.18s.625-.3.885-.54l.555 1.32c-.3.26-.685.47-1.155.63a4.43 4.43 0 0 1-1.38.225zm6.884 0c-.76 0-1.42-.155-1.98-.465a3.25 3.25 0 0 1-1.305-1.32c-.31-.58-.465-1.26-.465-2.04s.155-1.455.465-2.025a3.25 3.25 0 0 1 1.305-1.32c.56-.31 1.22-.465 1.98-.465s1.42.155 1.98.465a3.25 3.25 0 0 1 1.305 1.32c.31.57.465 1.245.465 2.025s-.155 1.46-.465 2.04a3.25 3.25 0 0 1-1.305 1.32c-.56.31-1.22.465-1.98.465zm0-1.425c.56 0 1.01-.2 1.35-.6.34-.41.51-1.01.51-1.8 0-.8-.17-1.395-.51-1.785-.34-.4-.79-.6-1.35-.6s-1.01.2-1.35.6c-.34.39-.51.985-.51 1.785 0 .79.17 1.39.51 1.8.34.4.79.6 1.35.6zM48.799 29v-7.335h1.83v1.125a2.34 2.34 0 0 1 .915-.93c.39-.23.84-.345 1.35-.345 1.1 0 1.82.48 2.16 1.44a2.51 2.51 0 0 1 .99-1.05c.43-.26.92-.39 1.47-.39 1.65 0 2.475 1.005 2.475 3.015V29h-1.875v-4.395c0-.56-.095-.97-.285-1.23-.18-.26-.49-.39-.93-.39-.49 0-.875.175-1.155.525-.28.34-.42.815-.42 1.425V29h-1.875v-4.395c0-.56-.095-.97-.285-1.23-.18-.26-.485-.39-.915-.39-.49 0-.875.175-1.155.525-.28.34-.42.815-.42 1.425V29h-1.875zm16.739.15c-.83 0-1.545-.155-2.145-.465s-1.065-.75-1.395-1.32c-.32-.57-.48-1.245-.48-2.025 0-.76.155-1.425.465-1.995.32-.57.755-1.015 1.305-1.335.56-.33 1.195-.495 1.905-.495 1.04 0 1.86.33 2.46.99.61.66.915 1.56.915 2.7v.555h-5.25c.14 1.31.89 1.965 2.25 1.965a4.36 4.36 0 0 0 1.23-.18 3.49 3.49 0 0 0 1.125-.6l.525 1.26c-.35.29-.79.52-1.32.69a5.18 5.18 0 0 1-1.59.255zm-.27-6.36c-.55 0-.995.17-1.335.51s-.545.8-.615 1.38h3.69c-.04-.61-.21-1.075-.51-1.395-.29-.33-.7-.495-1.23-.495zM70.053 29v-7.335h1.83v1.14c.25-.42.585-.74 1.005-.96.43-.22.91-.33 1.44-.33 1.73 0 2.595 1.005 2.595 3.015V29h-1.875v-4.38c0-.57-.11-.985-.33-1.245-.21-.26-.54-.39-.99-.39-.55 0-.99.175-1.32.525-.32.34-.48.795-.48 1.365V29h-1.875zm11.594.15c-.64 0-1.205-.155-1.695-.465-.48-.31-.855-.75-1.125-1.32-.27-.58-.405-1.26-.405-2.04 0-.79.135-1.465.405-2.025.27-.57.645-1.01 1.125-1.32.49-.31 1.055-.465 1.695-.465.52 0 .99.115 1.41.345s.735.535.945.915v-4.35h1.875V29h-1.83v-1.215c-.2.42-.515.755-.945 1.005-.43.24-.915.36-1.455.36zm.525-1.425c.56 0 1.01-.2 1.35-.6.34-.41.51-1.01.51-1.8 0-.8-.17-1.395-.51-1.785-.34-.4-.79-.6-1.35-.6s-1.01.2-1.35.6c-.34.39-.51.985-.51 1.785 0 .79.17 1.39.51 1.8.34.4.79.6 1.35.6zm8.064 1.425c-.53 0-1.005-.1-1.425-.3-.41-.21-.735-.49-.975-.84a2.11 2.11 0 0 1-.345-1.185c0-.54.14-.965.42-1.275.28-.32.735-.55 1.365-.69s1.475-.21 2.535-.21h.525v-.315c0-.5-.11-.86-.33-1.08s-.59-.33-1.11-.33c-.41 0-.83.065-1.26.195-.43.12-.865.31-1.305.57l-.54-1.275c.26-.18.565-.335.915-.465a6.04 6.04 0 0 1 1.125-.315c.4-.08.775-.12 1.125-.12 1.07 0 1.865.25 2.385.75.52.49.78 1.255.78 2.295V29h-1.755v-1.17a2.09 2.09 0 0 1-.81.975c-.37.23-.81.345-1.32.345zm.39-1.29c.49 0 .895-.17 1.215-.51.33-.34.495-.77.495-1.29v-.33h-.51c-.94 0-1.595.075-1.965.225a.77.77 0 0 0-.54.78c0 .33.115.6.345.81s.55.315.96.315zm8.788 1.29c-.77 0-1.44-.155-2.01-.465a3.3 3.3 0 0 1-1.32-1.35c-.31-.58-.465-1.26-.465-2.04s.155-1.45.465-2.01c.31-.57.75-1.005 1.32-1.305.57-.31 1.24-.465 2.01-.465.47 0 .935.075 1.395.225s.84.36 1.14.63l-.555 1.305c-.26-.23-.555-.405-.885-.525-.32-.12-.63-.18-.93-.18-.65 0-1.155.205-1.515.615-.35.4-.525.975-.525 1.725 0 .74.175 1.325.525 1.755.36.42.865.63 1.515.63a2.73 2.73 0 0 0 .93-.18c.33-.12.625-.3.885-.54l.555 1.32c-.3.26-.685.47-1.155.63a4.43 4.43 0 0 1-1.38.225zm3.565-9.06v-1.83h2.1v1.83h-2.1zm.12 8.91v-7.335h1.875V29H103.1zm7.168.15c-.76 0-1.42-.155-1.98-.465a3.25 3.25 0 0 1-1.305-1.32c-.31-.58-.465-1.26-.465-2.04s.155-1.455.465-2.025a3.25 3.25 0 0 1 1.305-1.32c.56-.31 1.22-.465 1.98-.465s1.42.155 1.98.465a3.25 3.25 0 0 1 1.305 1.32c.31.57.465 1.245.465 2.025s-.155 1.46-.465 2.04a3.25 3.25 0 0 1-1.305 1.32c-.56.31-1.22.465-1.98.465zm0-1.425c.56 0 1.01-.2 1.35-.6.34-.41.51-1.01.51-1.8 0-.8-.17-1.395-.51-1.785-.34-.4-.79-.6-1.35-.6s-1.01.2-1.35.6c-.34.39-.51.985-.51 1.785 0 .79.17 1.39.51 1.8.34.4.79.6 1.35.6zM115.566 29v-7.335h1.83v1.14c.25-.42.585-.74 1.005-.96.43-.22.91-.33 1.44-.33 1.73 0 2.595 1.005 2.595 3.015V29h-1.875v-4.38c0-.57-.11-.985-.33-1.245-.21-.26-.54-.39-.99-.39-.55 0-.99.175-1.32.525-.32.34-.48.795-.48 1.365V29h-1.875zm12.389.15c-.83 0-1.545-.155-2.145-.465s-1.065-.75-1.395-1.32c-.32-.57-.48-1.245-.48-2.025 0-.76.155-1.425.465-1.995.32-.57.755-1.015 1.305-1.335.56-.33 1.195-.495 1.905-.495 1.04 0 1.86.33 2.46.99.61.66.915 1.56.915 2.7v.555h-5.25c.14 1.31.89 1.965 2.25 1.965a4.36 4.36 0 0 0 1.23-.18 3.49 3.49 0 0 0 1.125-.6l.525 1.26c-.35.29-.79.52-1.32.69a5.18 5.18 0 0 1-1.59.255zm-.27-6.36c-.55 0-.995.17-1.335.51s-.545.8-.615 1.38h3.69c-.04-.61-.21-1.075-.51-1.395-.29-.33-.7-.495-1.23-.495zm7.47 6.36c-.62 0-1.2-.075-1.74-.225s-.99-.365-1.35-.645l.48-1.23a4.6 4.6 0 0 0 1.245.585c.46.13.92.195 1.38.195.48 0 .835-.08 1.065-.24.24-.17.36-.39.36-.66 0-.42-.31-.69-.93-.81l-1.5-.285c-1.27-.24-1.905-.9-1.905-1.98 0-.48.13-.895.39-1.245.27-.35.64-.62 1.11-.81s1.01-.285 1.62-.285a5 5 0 0 1 1.5.225c.48.14.89.355 1.23.645l-.51 1.23c-.29-.24-.64-.43-1.05-.57a3.49 3.49 0 0 0-1.155-.21c-.49 0-.855.085-1.095.255a.8.8 0 0 0-.345.675c0 .44.285.71.855.81l1.5.285c.65.12 1.14.34 1.47.66.34.32.51.75.51 1.29 0 .73-.285 1.305-.855 1.725-.57.41-1.33.615-2.28.615z" fill="#121212"/><path d="M16.998 133.944a2.17 2.17 0 0 1-1.08-.276c-.328-.192-.592-.448-.792-.768s-.3-.68-.3-1.08c0-.368.092-.712.276-1.032a2.24 2.24 0 0 1 .78-.792 2.04 2.04 0 0 1 1.116-.312c.384 0 .74.092 1.068.276.336.184.604.44.804.768.2.32.3.684.3 1.092 0 .392-.1.748-.3 1.068-.192.32-.452.576-.78.768a2.12 2.12 0 0 1-1.092.288zM27.044 135v-8.46H29.9c1.368 0 2.424.364 3.168 1.092.744.72 1.116 1.764 1.116 3.132s-.372 2.416-1.116 3.144S31.268 135 29.9 135h-2.856zm.984-.84h1.8c2.208 0 3.312-1.132 3.312-3.396 0-2.256-1.104-3.384-3.312-3.384h-1.8v6.78zm10.418.948c-.92 0-1.648-.268-2.184-.804-.536-.544-.804-1.28-.804-2.208 0-.6.12-1.128.36-1.584a2.6 2.6 0 0 1 .984-1.068c.424-.256.912-.384 1.464-.384.792 0 1.412.256 1.86.768.448.504.672 1.2.672 2.088v.372h-4.392c.032.664.224 1.172.576 1.524.352.344.84.516 1.464.516a3.24 3.24 0 0 0 1.008-.156 2.83 2.83 0 0 0 .912-.54l.336.684a2.82 2.82 0 0 1-1.008.588 3.92 3.92 0 0 1-1.248.204zm-.156-5.328c-.552 0-.988.172-1.308.516s-.508.796-.564 1.356h3.54c-.024-.592-.18-1.052-.468-1.38-.28-.328-.68-.492-1.2-.492zm6.867 5.328a2.36 2.36 0 0 1-1.224-.312c-.344-.208-.604-.492-.78-.852V135h-.948v-8.46h.972v3.636a1.87 1.87 0 0 1 .78-.816c.352-.2.752-.3 1.2-.3.52 0 .972.124 1.356.372a2.31 2.31 0 0 1 .9 1.044c.216.448.324.984.324 1.608 0 .616-.108 1.152-.324 1.608-.208.448-.508.796-.9 1.044-.384.248-.836.372-1.356.372zm-.204-.78c.544 0 .98-.192 1.308-.576.328-.392.492-.948.492-1.668 0-.728-.164-1.284-.492-1.668s-.764-.576-1.308-.576-.98.192-1.308.576-.492.94-.492 1.668c0 .72.164 1.276.492 1.668.328.384.764.576 1.308.576zm6.876.78c-.92 0-1.648-.268-2.184-.804-.536-.544-.804-1.28-.804-2.208 0-.6.12-1.128.36-1.584a2.6 2.6 0 0 1 .984-1.068c.424-.256.912-.384 1.464-.384.792 0 1.412.256 1.86.768.448.504.672 1.2.672 2.088v.372h-4.392c.032.664.224 1.172.576 1.524.352.344.84.516 1.464.516a3.24 3.24 0 0 0 1.008-.156 2.83 2.83 0 0 0 .912-.54l.336.684a2.82 2.82 0 0 1-1.008.588 3.92 3.92 0 0 1-1.248.204zm-.156-5.328c-.552 0-.988.172-1.308.516s-.508.796-.564 1.356h3.54c-.024-.592-.18-1.052-.468-1.38-.28-.328-.68-.492-1.2-.492zM58.67 135v-8.46h.972v3.588c.192-.352.46-.616.804-.792a2.5 2.5 0 0 1 1.176-.276c1.384 0 2.076.768 2.076 2.304V135h-.972v-3.576c0-.544-.108-.94-.324-1.188-.208-.256-.544-.384-1.008-.384-.536 0-.964.168-1.284.504-.312.328-.468.768-.468 1.32V135h-.972zm8.656.108c-.4 0-.76-.076-1.08-.228-.312-.16-.56-.376-.744-.648a1.59 1.59 0 0 1-.276-.912c0-.424.108-.76.324-1.008.224-.248.588-.424 1.092-.528.512-.112 1.208-.168 2.088-.168h.384v-.372c0-.496-.104-.852-.312-1.068-.2-.224-.524-.336-.972-.336-.352 0-.692.052-1.02.156-.328.096-.664.256-1.008.48l-.336-.708c.304-.216.672-.388 1.104-.516a4.51 4.51 0 0 1 1.26-.192c.752 0 1.308.184 1.668.552.368.368.552.94.552 1.716V135h-.912v-1.008a1.8 1.8 0 0 1-.708.816c-.312.2-.68.3-1.104.3zm.156-.732a1.53 1.53 0 0 0 1.176-.492c.304-.336.456-.76.456-1.272v-.36h-.372c-.648 0-1.16.032-1.536.096-.368.056-.628.16-.78.312-.144.144-.216.344-.216.6 0 .328.112.596.336.804.232.208.544.312.936.312zm7.323.732a2.36 2.36 0 0 1-1.224-.312c-.344-.208-.604-.492-.78-.852V135h-.948v-8.46h.972v3.636a1.87 1.87 0 0 1 .78-.816c.352-.2.752-.3 1.2-.3.52 0 .972.124 1.356.372a2.31 2.31 0 0 1 .9 1.044c.216.448.324.984.324 1.608 0 .616-.108 1.152-.324 1.608-.208.448-.508.796-.9 1.044-.384.248-.836.372-1.356.372zm-.204-.78c.544 0 .98-.192 1.308-.576.328-.392.492-.948.492-1.668 0-.728-.164-1.284-.492-1.668s-.764-.576-1.308-.576-.98.192-1.308.576-.492.94-.492 1.668c0 .72.164 1.276.492 1.668.328.384.764.576 1.308.576zm6.876.78c-.92 0-1.648-.268-2.184-.804-.536-.544-.804-1.28-.804-2.208 0-.6.12-1.128.36-1.584a2.6 2.6 0 0 1 .984-1.068c.424-.256.912-.384 1.464-.384.792 0 1.412.256 1.86.768.448.504.672 1.2.672 2.088v.372h-4.392c.032.664.224 1.172.576 1.524.352.344.84.516 1.464.516a3.24 3.24 0 0 0 1.008-.156 2.83 2.83 0 0 0 .912-.54l.336.684a2.82 2.82 0 0 1-1.008.588 3.92 3.92 0 0 1-1.248.204zm-.156-5.328c-.552 0-.988.172-1.308.516s-.508.796-.564 1.356h3.54c-.024-.592-.18-1.052-.468-1.38-.28-.328-.68-.492-1.2-.492zm3.915 5.22v-5.832h.948v1.044c.312-.704.952-1.092 1.92-1.164l.348-.036.072.84-.612.072c-.552.048-.972.224-1.26.528-.288.296-.432.704-.432 1.224V135h-.984zm9.219.108c-.4 0-.76-.076-1.08-.228-.312-.16-.56-.376-.744-.648a1.59 1.59 0 0 1-.276-.912c0-.424.108-.76.324-1.008.224-.248.588-.424 1.092-.528.512-.112 1.208-.168 2.088-.168h.384v-.372c0-.496-.104-.852-.312-1.068-.2-.224-.524-.336-.972-.336-.352 0-.692.052-1.02.156-.328.096-.664.256-1.008.48l-.336-.708c.304-.216.672-.388 1.104-.516a4.51 4.51 0 0 1 1.26-.192c.752 0 1.308.184 1.668.552.368.368.552.94.552 1.716V135h-.912v-1.008a1.8 1.8 0 0 1-.708.816c-.312.2-.68.3-1.104.3zm.156-.732a1.53 1.53 0 0 0 1.176-.492c.304-.336.456-.76.456-1.272v-.36h-.372c-.648 0-1.16.032-1.536.096-.368.056-.628.16-.78.312-.144.144-.216.344-.216.6 0 .328.112.596.336.804.232.208.544.312.936.312zm6.159.732c-.592 0-1.04-.172-1.344-.516-.296-.352-.444-.86-.444-1.524v-6.528h.972v6.456c0 .856.34 1.284 1.02 1.284.2 0 .38-.024.54-.072l-.024.816c-.248.056-.488.084-.72.084zm4.869-.108v-5.832h.948v.984c.176-.352.42-.62.732-.804.312-.192.676-.288 1.092-.288.912 0 1.496.396 1.752 1.188a1.99 1.99 0 0 1 .78-.864c.344-.216.74-.324 1.188-.324 1.296 0 1.944.768 1.944 2.304V135h-.972v-3.588c0-.536-.096-.928-.288-1.176-.184-.256-.492-.384-.924-.384-.472 0-.848.168-1.128.504s-.42.784-.42 1.344v3.3h-.972v-3.588c0-.536-.096-.928-.288-1.176-.184-.256-.492-.384-.924-.384-.48 0-.86.168-1.14.504-.272.336-.408.784-.408 1.344v3.3h-.972zm12.881.108c-.92 0-1.648-.268-2.184-.804-.536-.544-.804-1.28-.804-2.208 0-.6.12-1.128.36-1.584a2.6 2.6 0 0 1 .984-1.068c.424-.256.912-.384 1.464-.384.792 0 1.412.256 1.86.768.448.504.672 1.2.672 2.088v.372h-4.392c.032.664.224 1.172.576 1.524.352.344.84.516 1.464.516a3.24 3.24 0 0 0 1.008-.156 2.83 2.83 0 0 0 .912-.54l.336.684a2.82 2.82 0 0 1-1.008.588 3.92 3.92 0 0 1-1.248.204zm-.156-5.328c-.552 0-.988.172-1.308.516s-.508.796-.564 1.356h3.54c-.024-.592-.18-1.052-.468-1.38-.28-.328-.68-.492-1.2-.492zm3.915 5.22v-5.832h.948v.996c.192-.368.464-.644.816-.828s.748-.276 1.188-.276c1.384 0 2.076.768 2.076 2.304V135h-.972v-3.576c0-.544-.108-.94-.324-1.188-.208-.256-.544-.384-1.008-.384-.536 0-.964.168-1.284.504-.312.328-.468.768-.468 1.32V135h-.972zm9.245.108c-.568 0-1.06-.124-1.476-.372s-.74-.596-.972-1.044c-.224-.456-.336-.992-.336-1.608s.112-1.148.336-1.596c.232-.456.556-.808.972-1.056s.908-.372 1.476-.372c.56 0 1.048.124 1.464.372.424.248.748.6.972 1.056.232.448.348.98.348 1.596s-.116 1.152-.348 1.608a2.45 2.45 0 0 1-.972 1.044c-.416.248-.904.372-1.464.372zm0-.78c.544 0 .98-.192 1.308-.576.328-.392.492-.948.492-1.668 0-.728-.164-1.284-.492-1.668s-.764-.576-1.308-.576c-.552 0-.992.192-1.32.576-.32.384-.48.94-.48 1.668 0 .72.16 1.276.48 1.668.328.384.768.576 1.32.576zm6.211.78c-.456 0-.888-.064-1.296-.192s-.744-.308-1.008-.54l.312-.684c.288.232.604.404.948.516a3.75 3.75 0 0 0 1.068.156c.456 0 .8-.084 1.032-.252a.8.8 0 0 0 .348-.684c0-.224-.076-.4-.228-.528-.152-.136-.392-.24-.72-.312l-1.092-.24c-.992-.216-1.488-.728-1.488-1.536 0-.528.208-.952.624-1.272.424-.32.976-.48 1.656-.48.4 0 .78.064 1.14.192.368.12.672.3.912.54l-.324.684c-.232-.216-.504-.38-.816-.492-.304-.12-.608-.18-.912-.18-.448 0-.788.088-1.02.264a.83.83 0 0 0-.348.696c0 .448.296.736.888.864l1.092.228c.512.112.9.292 1.164.54.264.24.396.568.396.984 0 .536-.212.96-.636 1.272-.424.304-.988.456-1.692.456zm9.112 0c-.52 0-.976-.124-1.368-.372-.384-.248-.684-.596-.9-1.044-.208-.456-.312-.992-.312-1.608 0-.624.104-1.16.312-1.608.216-.456.516-.804.9-1.044.392-.248.848-.372 1.368-.372.456 0 .856.1 1.2.3.352.2.612.476.78.828v-3.648h.972V135h-.948v-1.068a1.9 1.9 0 0 1-.78.864 2.36 2.36 0 0 1-1.224.312zm.204-.78c.544 0 .98-.192 1.308-.576.328-.392.492-.948.492-1.668 0-.728-.164-1.284-.492-1.668s-.764-.576-1.308-.576c-.552 0-.992.192-1.32.576-.32.384-.48.94-.48 1.668 0 .72.16 1.276.48 1.668.328.384.768.576 1.32.576zm6.996.78c-.568 0-1.06-.124-1.476-.372s-.74-.596-.972-1.044c-.224-.456-.336-.992-.336-1.608s.112-1.148.336-1.596c.232-.456.556-.808.972-1.056s.908-.372 1.476-.372c.56 0 1.048.124 1.464.372.424.248.748.6.972 1.056.232.448.348.98.348 1.596s-.116 1.152-.348 1.608a2.45 2.45 0 0 1-.972 1.044c-.416.248-.904.372-1.464.372zm0-.78c.544 0 .98-.192 1.308-.576.328-.392.492-.948.492-1.668 0-.728-.164-1.284-.492-1.668s-.764-.576-1.308-.576c-.552 0-.992.192-1.32.576-.32.384-.48.94-.48 1.668 0 .72.16 1.276.48 1.668.328.384.768.576 1.32.576zm6.212.78c-.456 0-.888-.064-1.296-.192s-.744-.308-1.008-.54l.312-.684c.288.232.604.404.948.516a3.75 3.75 0 0 0 1.068.156c.456 0 .8-.084 1.032-.252a.8.8 0 0 0 .348-.684c0-.224-.076-.4-.228-.528-.152-.136-.392-.24-.72-.312l-1.092-.24c-.992-.216-1.488-.728-1.488-1.536 0-.528.208-.952.624-1.272.424-.32.976-.48 1.656-.48.4 0 .78.064 1.14.192.368.12.672.3.912.54l-.324.684c-.232-.216-.504-.38-.816-.492-.304-.12-.608-.18-.912-.18-.448 0-.788.088-1.02.264a.83.83 0 0 0-.348.696c0 .448.296.736.888.864l1.092.228c.512.112.9.292 1.164.54.264.24.396.568.396.984 0 .536-.212.96-.636 1.272-.424.304-.988.456-1.692.456zm8.679 0c-.592 0-1.04-.172-1.344-.516-.296-.352-.444-.86-.444-1.524v-6.528h.972v6.456c0 .856.34 1.284 1.02 1.284.2 0 .38-.024.54-.072l-.024.816c-.248.056-.488.084-.72.084zm4.332 0c-.92 0-1.648-.268-2.184-.804-.536-.544-.804-1.28-.804-2.208 0-.6.12-1.128.36-1.584a2.6 2.6 0 0 1 .984-1.068c.424-.256.912-.384 1.464-.384.792 0 1.412.256 1.86.768.448.504.672 1.2.672 2.088v.372h-4.392c.032.664.224 1.172.576 1.524.352.344.84.516 1.464.516a3.24 3.24 0 0 0 1.008-.156 2.83 2.83 0 0 0 .912-.54l.336.684a2.82 2.82 0 0 1-1.008.588 3.92 3.92 0 0 1-1.248.204zm-.156-5.328c-.552 0-.988.172-1.308.516s-.508.796-.564 1.356h3.54c-.024-.592-.18-1.052-.468-1.38-.28-.328-.68-.492-1.2-.492zm6.255 5.328c-.688 0-1.204-.18-1.548-.54-.344-.368-.516-.896-.516-1.584v-3.06h-1.14v-.756h1.14v-1.788h.972v1.788h1.848v.756h-1.848v2.964c0 .456.096.804.288 1.044.192.232.504.348.936.348a1.58 1.58 0 0 0 .384-.048l.348-.096.168.744c-.104.056-.256.108-.456.156s-.392.072-.576.072zm1.856-.108v-5.832h.948v1.044c.312-.704.952-1.092 1.92-1.164l.348-.036.072.84-.612.072c-.552.048-.972.224-1.26.528-.288.296-.432.704-.432 1.224V135h-.984zm6.078.108c-.4 0-.76-.076-1.08-.228-.312-.16-.56-.376-.744-.648a1.59 1.59 0 0 1-.276-.912c0-.424.108-.76.324-1.008.224-.248.588-.424 1.092-.528.512-.112 1.208-.168 2.088-.168h.384v-.372c0-.496-.104-.852-.312-1.068-.2-.224-.524-.336-.972-.336-.352 0-.692.052-1.02.156-.328.096-.664.256-1.008.48l-.336-.708c.304-.216.672-.388 1.104-.516a4.51 4.51 0 0 1 1.26-.192c.752 0 1.308.184 1.668.552.368.368.552.94.552 1.716V135h-.912v-1.008a1.8 1.8 0 0 1-.708.816c-.312.2-.68.3-1.104.3zm.156-.732a1.53 1.53 0 0 0 1.176-.492c.304-.336.456-.76.456-1.272v-.36h-.372c-.648 0-1.16.032-1.536.096-.368.056-.628.16-.78.312-.144.144-.216.344-.216.6 0 .328.112.596.336.804.232.208.544.312.936.312zm6.339.732c-.456 0-.888-.064-1.296-.192s-.744-.308-1.008-.54l.312-.684c.288.232.604.404.948.516a3.75 3.75 0 0 0 1.068.156c.456 0 .8-.084 1.032-.252a.8.8 0 0 0 .348-.684c0-.224-.076-.4-.228-.528-.152-.136-.392-.24-.72-.312l-1.092-.24c-.992-.216-1.488-.728-1.488-1.536 0-.528.208-.952.624-1.272.424-.32.976-.48 1.656-.48.4 0 .78.064 1.14.192.368.12.672.3.912.54l-.324.684c-.232-.216-.504-.38-.816-.492-.304-.12-.608-.18-.912-.18-.448 0-.788.088-1.02.264a.83.83 0 0 0-.348.696c0 .448.296.736.888.864l1.092.228c.512.112.9.292 1.164.54.264.24.396.568.396.984 0 .536-.212.96-.636 1.272-.424.304-.988.456-1.692.456z" fill="#424242"/></svg>