<svg width="150" height="161" viewBox="0 0 150 161" fill="none" xmlns="http://www.w3.org/2000/svg">
<path d="M149.619 43.6045C148.913 39.7293 147.379 36.0498 145.123 32.8138C139.611 24.4783 132.059 17.6746 123.176 13.0426C114.294 8.41063 104.373 6.10252 94.3476 6.33536C90.1209 6.4691 85.924 7.08798 81.8401 8.17973C95.7965 13.1193 104.916 24.2068 113.013 36.5026C117.083 42.7141 120.471 49.6252 126.309 54.2043C132.147 58.7835 141.565 60.0979 146.572 54.6284C147.854 53.1214 148.791 51.3546 149.318 49.4508C149.844 47.547 149.947 45.5519 149.619 43.6045Z" fill="#D2006E"/>
<path d="M149.619 116.939C148.913 120.901 147.38 124.662 145.123 127.97C139.615 136.496 132.064 143.456 123.181 148.195C114.298 152.934 104.376 155.296 94.3476 155.058C90.1229 154.9 85.9283 154.268 81.8401 153.173C95.7965 148.102 104.916 136.79 113.013 124.199C117.083 117.871 120.471 110.806 126.309 106.126C132.147 101.445 141.565 100.101 146.572 105.692C147.854 107.228 148.791 109.031 149.317 110.973C149.844 112.916 149.947 114.952 149.619 116.939Z" fill="#D2006E"/>
<path d="M84.1224 3.4886C67.2788 -2.53354 50.1144 1.18725 35.7749 10.242C23.5598 18.0703 13.7086 29.1078 7.2885 42.1593C1.41986 53.8877 -0.957971 67.0681 0.439903 80.1203C0.568316 79.0019 0.71809 77.8621 0.932111 76.7437C2.04502 70.571 6.15415 62.3335 12.8744 60.6775C23.3401 58.118 27.7063 68.3126 29.076 77.1738C29.2258 78.1416 29.3756 79.131 29.5468 80.1203C30.909 70.1087 33.2898 60.264 36.6522 50.7409C39.9543 41.8277 44.4938 33.4283 50.1357 25.792C58.8206 14.9096 70.7345 7.09618 84.1438 3.4886H84.1224Z" fill="#D2006E"/>
<path d="M50.1356 135.234C44.489 127.482 39.9492 118.953 36.6521 109.902C33.2921 100.247 30.9113 90.2673 29.5467 80.1182C29.3755 81.1219 29.2257 82.1256 29.0759 83.1075C27.7062 92.097 23.34 102.439 12.8743 99.8211C6.15403 98.1628 2.0449 89.806 0.931989 83.522C0.717968 82.3874 0.568194 81.34 0.439781 80.1182C-0.958093 93.3596 1.41974 106.731 7.28837 118.629C13.7198 131.869 23.5774 143.065 35.7962 151.009C50.1357 160.195 67.3001 163.97 84.1437 157.861C70.7344 154.201 58.8205 146.274 50.1356 135.234Z" fill="#D2006E"/>
</svg>
