<svg width="417" height="160" viewBox="0 0 417 160" fill="none" xmlns="http://www.w3.org/2000/svg">
<g clip-path="url(#clip0_216_83)">
<path d="M325.636 160C314.269 159.83 303.184 156.434 293.666 150.206C281.319 142.359 271.363 131.261 264.887 118.126C258.314 104.701 256.031 89.8717 258.459 76.3861C259.668 69.3769 264.319 61.0361 271.436 59.2929C273.079 58.8132 274.806 58.6947 276.499 58.9454C278.192 59.1961 279.812 59.8101 281.246 60.7455C286.707 64.3772 288.677 72.3912 289.365 76.834C290.96 87.1116 292.845 98.0188 296.784 108.417C299.478 115.523 304.335 125.62 309.905 132.629C318.164 142.999 329.492 150.48 342.26 153.995C357.085 148.548 366.582 136.381 374.628 124.034C375.595 122.557 376.537 120.995 377.456 119.494C380.766 114.095 384.185 108.514 389.284 104.471C396.05 99.1204 407.129 97.4861 413.23 104.181C414.754 105.987 415.868 108.104 416.494 110.384C417.12 112.665 417.243 115.055 416.855 117.388C416.08 121.823 414.343 126.033 411.769 129.723C405.696 138.982 397.374 146.543 387.584 151.695C377.795 156.847 366.859 159.421 355.804 159.176C351.318 159.013 346.862 158.363 342.514 157.239C337.082 159.099 331.376 160.032 325.636 160ZM274.891 61.9441C273.957 61.9525 273.028 62.0745 272.124 62.3072C266.603 63.6509 262.579 70.6843 261.444 76.9308C259.136 89.7748 261.323 103.914 267.605 116.758C273.829 129.398 283.4 140.081 295.273 147.64C308.769 156.114 323.388 158.898 336.969 155.593C325.378 151.462 315.174 144.161 307.512 134.517C301.737 127.254 296.711 116.795 293.932 109.471C289.885 98.7935 287.964 87.6806 286.345 77.2576C285.729 73.3233 284.037 66.2657 279.567 63.2757C278.189 62.3409 276.555 61.8586 274.891 61.8956V61.9441ZM347.383 155.157C350.178 155.657 353.004 155.957 355.841 156.053C366.362 156.292 376.77 153.845 386.087 148.942C395.404 144.04 403.323 136.843 409.098 128.029C411.424 124.707 413.002 120.92 413.726 116.928C414.055 115.051 413.975 113.125 413.491 111.282C413.007 109.439 412.131 107.722 410.923 106.251C406.175 101.033 396.883 102.365 391.181 106.88C386.505 110.512 383.231 115.923 380.065 121.092C379.135 122.617 378.18 124.191 377.19 125.704C369.626 137.314 360.77 148.802 347.444 155.133L347.383 155.157Z" fill="#D2006E"/>
<path d="M274.891 101.179C273.714 101.171 272.542 101.025 271.399 100.743C264.283 98.9996 259.68 90.6588 258.423 83.6497C256.007 70.164 258.278 55.3346 264.851 41.9094C271.321 28.7509 281.282 17.6312 293.642 9.76901C309.409 -0.157597 326.699 -2.62716 342.369 2.79616C346.715 1.66634 351.172 1.01686 355.659 0.859293C366.716 0.60773 377.654 3.17932 387.444 8.33191C397.235 13.4845 405.556 21.0486 411.624 30.3123C414.196 33.9992 415.932 38.2054 416.71 42.6358C417.099 44.9708 416.976 47.3626 416.35 49.6453C415.725 51.928 414.61 54.047 413.085 55.8551C407.044 62.5495 395.905 60.9153 389.139 55.5646C384.04 51.5213 380.681 45.8801 377.311 40.5294C376.392 39.0283 375.438 37.4788 374.483 36.0019C366.437 23.6541 356.94 11.4881 342.115 6.02842C329.411 9.59551 318.15 17.0795 309.929 27.419C304.359 34.4403 299.502 44.5364 296.808 51.6303C292.869 62.029 290.984 72.9361 289.389 83.2138C288.701 87.6566 286.731 95.6584 281.27 99.3022C279.383 100.562 277.158 101.217 274.891 101.179ZM295.285 12.3959C283.418 19.9646 273.855 30.6559 267.642 43.3016C261.359 56.1336 259.184 70.285 261.48 83.117C262.616 89.3756 266.639 96.4331 272.16 97.7527C273.387 98.1287 274.681 98.2325 275.951 98.0569C277.222 97.8813 278.439 97.4305 279.518 96.7358C283.989 93.7457 285.68 86.6882 286.296 82.7417C287.915 72.3067 289.836 61.2179 293.884 50.5407C296.663 43.2774 301.689 32.7939 307.464 25.4942C315.158 15.8556 325.391 8.56743 337.005 4.45463C323.449 1.1619 308.817 3.922 295.322 12.4201L295.285 12.3959ZM347.407 4.85413C360.698 11.1733 369.59 22.6736 377.178 34.3071C378.168 35.8203 379.123 37.3941 380.053 38.9194C383.219 44.0885 386.493 49.4391 391.169 53.1314C396.871 57.6468 406.162 58.9663 410.911 53.7609C412.12 52.2873 412.997 50.5689 413.481 48.7238C413.965 46.8786 414.044 44.9504 413.714 43.0716C412.988 39.0841 411.409 35.3012 409.086 31.9829C403.311 23.1733 395.393 15.9809 386.078 11.0825C376.763 6.18413 366.358 3.74087 355.841 3.98256C353.024 4.08187 350.218 4.38121 347.444 4.87837L347.407 4.85413Z" fill="#D2006E"/>
<path d="M153.128 67.6464C153.128 66.7956 153.465 65.9796 154.066 65.378C154.666 64.7764 155.481 64.4385 156.33 64.4385H166.805C172.846 64.4385 177.582 66.0727 180.941 69.2807C184.3 72.4887 185.967 77.1009 185.967 82.9601C185.967 88.8192 184.288 93.4072 180.941 96.6758C177.594 99.9443 172.882 101.579 166.805 101.579H153.128V67.6464ZM166.418 96.0825C174.948 96.0825 179.213 91.7205 179.213 82.9963C179.213 74.2722 174.948 69.9344 166.418 69.9828H159.954V96.0825H166.418Z" fill="black"/>
<path d="M198.436 100.925C196.139 100.252 193.994 99.1425 192.117 97.6561L192.854 96.046C193.036 95.6498 193.298 95.295 193.621 95.003C193.945 94.7111 194.325 94.4881 194.737 94.3477C195.15 94.2073 195.586 94.1524 196.021 94.1863C196.455 94.2202 196.878 94.3422 197.264 94.5449C198.153 95.0289 199.083 95.434 200.043 95.7555C202.127 96.4043 204.299 96.7269 206.482 96.7118C208.544 96.8324 210.598 96.3621 212.403 95.356C213.069 94.9646 213.615 94.3975 213.981 93.7166C214.348 93.0356 214.52 92.2669 214.481 91.4943C214.496 90.8307 214.323 90.1764 213.983 89.6067C213.644 89.037 213.15 88.5751 212.56 88.2742C210.536 87.2801 208.385 86.5712 206.168 86.1678C203.585 85.659 201.062 84.88 198.641 83.8435C196.916 83.1268 195.412 81.9658 194.279 80.4782C193.244 78.9373 192.727 77.1047 192.805 75.2485C192.776 73.16 193.401 71.1149 194.594 69.4015C195.871 67.6145 197.62 66.2187 199.644 65.3703C202.023 64.3617 204.588 63.8667 207.171 63.9176C209.693 63.9157 212.198 64.3246 214.589 65.1282C216.722 65.795 218.693 66.9 220.377 68.3726L219.676 69.922C219.496 70.3189 219.236 70.6747 218.914 70.9678C218.592 71.2609 218.213 71.4851 217.802 71.6268C217.39 71.7684 216.954 71.8244 216.52 71.7915C216.086 71.7585 215.664 71.6373 215.278 71.4352C212.795 70.0673 210.004 69.3588 207.171 69.3773C205.184 69.2703 203.211 69.7728 201.517 70.8179C200.853 71.2562 200.313 71.8585 199.949 72.5667C199.585 73.2749 199.409 74.0651 199.438 74.8612C199.41 75.5299 199.566 76.1936 199.89 76.779C200.214 77.3643 200.693 77.8485 201.275 78.1781C203.237 79.2205 205.348 79.9515 207.533 80.345C210.139 80.8814 212.687 81.6637 215.145 82.6813C216.886 83.3947 218.422 84.5304 219.615 85.9862C220.696 87.4455 221.246 89.2309 221.174 91.0464C221.213 93.125 220.596 95.1629 219.41 96.8692C218.117 98.6237 216.341 99.9616 214.299 100.719C211.787 101.666 209.117 102.122 206.434 102.062C203.726 102.09 201.029 101.706 198.436 100.925Z" fill="black"/>
<path d="M8.44533 99.738C5.74048 98.1916 3.56048 95.8682 2.18684 93.0678C0.749076 89.9119 0.00500488 86.4833 0.00500488 83.0141C0.00500488 79.5449 0.749076 76.1163 2.18684 72.9604C3.56503 70.1694 5.74451 67.855 8.44533 66.3144C11.3637 64.6996 14.6572 63.8892 17.9902 63.9659C20.3936 63.9656 22.7796 64.375 25.0461 65.1765C27.1128 65.8664 29.0137 66.9795 30.628 68.445L28.417 73.3357C26.9177 72.1055 25.2336 71.1209 23.4271 70.4182C21.7413 69.7929 19.9569 69.4771 18.1593 69.4861C16.604 69.3959 15.0486 69.6631 13.6121 70.2674C12.1756 70.8716 10.896 71.7969 9.87101 72.9725C7.92177 75.2887 6.94717 78.6258 6.94717 82.9838C6.94717 87.3781 7.9258 90.7435 9.87101 93.0557C10.896 94.2313 12.1756 95.1566 13.6121 95.7608C15.0486 96.3651 16.604 96.6323 18.1593 96.5421C19.9556 96.549 21.739 96.2375 23.4271 95.6221C25.2308 94.9137 26.9141 93.9296 28.417 92.7047L30.6884 97.6559C29.0741 99.1214 27.1732 100.234 25.1065 100.924C22.8401 101.726 20.4541 102.135 18.0506 102.135C14.6922 102.214 11.3746 101.386 8.44533 99.738Z" fill="black"/>
<path d="M37.8893 101.615V64.4385H41.5139C42.3631 64.4385 43.1774 64.7764 43.7779 65.378C44.3783 65.9796 44.7156 66.7956 44.7156 67.6464V96.022H58.8275C59.6767 96.022 60.491 96.36 61.0914 96.9616C61.6919 97.5632 62.0292 98.3792 62.0292 99.23V101.651L37.8893 101.615Z" fill="black"/>
<path d="M68.1428 101.615V64.4385H89.7817C90.6309 64.4385 91.4452 64.7764 92.0457 65.378C92.6461 65.9796 92.9835 66.7956 92.9835 67.6464V69.8254H74.7758V80.0426H88.7306C89.5797 80.0426 90.3941 80.3806 90.9945 80.9822C91.595 81.5838 91.9323 82.3998 91.9323 83.2506V85.3691H74.7758V96.2641H89.7817C90.6309 96.2641 91.4452 96.6021 92.0457 97.2038C92.6461 97.8054 92.9835 98.6213 92.9835 99.4722V101.639L68.1428 101.615Z" fill="black"/>
<path d="M106.334 99.7626C103.678 98.2126 101.545 95.9024 100.209 93.1287C98.7945 89.945 98.0638 86.4992 98.0638 83.0144C98.0638 79.5297 98.7945 76.0839 100.209 72.9002C101.546 70.1299 103.685 67.8269 106.346 66.2905C109.247 64.7636 112.475 63.9658 115.752 63.9658C119.029 63.9658 122.257 64.7636 125.158 66.2905C127.784 67.8414 129.888 70.1431 131.199 72.9002C132.617 76.0829 133.349 79.5291 133.349 83.0144C133.349 86.4998 132.617 89.946 131.199 93.1287C129.863 95.9024 127.73 98.2126 125.073 99.7626C122.185 101.289 118.969 102.087 115.704 102.087C112.438 102.087 109.222 101.289 106.334 99.7626ZM123.696 93.1287C125.613 90.764 126.572 87.3866 126.572 82.9963C126.572 78.606 125.613 75.2406 123.696 72.9002C122.678 71.7924 121.441 70.9081 120.064 70.3032C118.688 69.6984 117.201 69.3862 115.698 69.3862C114.195 69.3862 112.708 69.6984 111.331 70.3032C109.954 70.9081 108.718 71.7924 107.699 72.9002C105.79 75.2406 104.836 78.606 104.836 82.9963C104.836 87.3866 105.79 90.764 107.699 93.1287C108.718 94.2365 109.954 95.1208 111.331 95.7256C112.708 96.3305 114.195 96.6427 115.698 96.6427C117.201 96.6427 118.688 96.3305 120.064 95.7256C121.441 95.1208 122.678 94.2365 123.696 93.1287Z" fill="black"/>
<path d="M145.565 94.1211H138.255V101.348H145.565V94.1211Z" fill="black"/>
<path d="M235.771 40.3779H232.643V64.3311H235.771V40.3779Z" fill="black"/>
<path d="M246.172 50.7891H222.242V53.9196H246.172V50.7891Z" fill="black"/>
</g>
<defs>
<clipPath id="clip0_216_83">
<rect width="417" height="160" fill="black"/>
</clipPath>
</defs>
</svg>
