<svg xmlns="http://www.w3.org/2000/svg" width="20" height="5" viewBox="0 0 20 5">
    <path
        d="M10 4.80769C11.2745 4.80769 12.3077 3.7745 12.3077 2.5C12.3077 1.2255 11.2745 0.192307 10 0.192307C8.7255 0.192307 7.69231 1.2255 7.69231 2.5C7.69231 3.7745 8.7255 4.80769 10 4.80769Z"
    />
    <path
        d="M17.6923 4.80769C18.9668 4.80769 20 3.7745 20 2.5C20 1.2255 18.9668 0.192307 17.6923 0.192307C16.4178 0.192307 15.3846 1.2255 15.3846 2.5C15.3846 3.7745 16.4178 4.80769 17.6923 4.80769Z"
    />
    <path
        d="M2.30769 4.80769C3.5822 4.80769 4.61538 3.7745 4.61538 2.5C4.61538 1.2255 3.5822 0.192307 2.30769 0.192307C1.03319 0.192307 0 1.2255 0 2.5C0 3.7745 1.03319 4.80769 2.30769 4.80769Z"
    />
</svg>