<svg width="27" height="18" viewBox="0 0 27 18" fill="none" xmlns="http://www.w3.org/2000/svg">
<g id="Group 1">
<g id="Group 1386">
<path id="Vector" d="M12.4993 5.24878C12.1571 5.67638 12.085 5.88546 11.639 6.29014C11.3774 6.52756 10.9835 6.52852 10.7158 6.29807C10.1458 5.80674 9.61503 5.68757 9.49996 5.65791C7.40274 5.11473 5.27276 6.64831 5.1862 8.82174C5.13082 10.207 5.82436 12.7816 9.60226 12.4248C9.69395 12.4162 7.41764 13.2158 7.49597 13.2659L7.47147 13.3791C6.84024 13.3062 6.20541 13.2544 5.57806 13.1538C4.95506 13.0537 4.34226 12.8871 3.71946 12.7822C3.34718 12.7195 2.79801 11.4303 2.68272 11.0986C1.79754 8.55287 2.53082 5.82208 4.62552 4.12212C6.69306 2.44491 8.95621 2.20107 11.3596 3.34665C11.408 3.36963 11.8781 3.49447 12.5518 4.1346C12.836 4.40445 12.9274 4.75256 12.6569 5.03656L12.4993 5.24878Z" fill="url(#paint0_linear_1378_17143)"/>
<path id="Vector_2" d="M14.4439 12.835C14.759 12.3685 14.871 12.1281 15.3567 11.6876C15.6183 11.4502 16.0122 11.4492 16.2799 11.6796C16.8499 12.171 17.385 12.3388 17.5 12.3685C19.5973 12.9116 21.7272 11.3781 21.8138 9.20463C21.8692 7.81939 20.7426 5.20947 16.9647 5.56633C16.873 5.57492 19.5824 4.81053 19.504 4.76051L19.5285 4.64722C20.1598 4.72021 20.7946 4.77196 21.4219 4.87254C22.0449 4.97269 22.6577 5.1393 23.2805 5.24421C23.6528 5.30687 24.202 6.59604 24.3173 6.92777C25.2025 9.4735 24.4692 12.2043 22.3745 13.9043C20.3069 15.5815 18.0438 15.8253 15.6404 14.6797C15.592 14.6567 15.1447 14.4801 14.4709 13.84C14.1867 13.5701 14.1813 13.3126 14.4436 12.8347L14.4439 12.835Z" fill="url(#paint1_linear_1378_17143)"/>
<path id="Union" fill-rule="evenodd" clip-rule="evenodd" d="M22.8055 5.41845C23.0699 5.46707 23.3371 5.51622 23.6088 5.56323C22.5514 3.63026 19.5339 1.84626 16.3015 2.99615C13.6622 3.93485 11.9609 6.61225 11.9754 9.10665C11.9715 9.12496 11.9683 9.14352 11.9659 9.16232C11.7111 11.1243 10.9676 11.8736 9.68045 12.3945C8.43481 12.8988 7.1368 12.949 5.82797 12.7809C5.25577 12.7073 4.68723 12.6027 4.10485 12.4956C3.84048 12.447 3.57325 12.3979 3.30154 12.3508C4.35899 14.2838 7.37651 16.0678 10.6089 14.9179C13.2258 13.9872 14.8295 11.4947 14.842 9.02166C14.8514 8.98837 14.8587 8.9515 14.864 8.91057C15.1188 6.94854 15.9427 6.0405 17.2299 5.5196C18.4756 5.01531 19.7736 4.96506 21.0824 5.1332C21.6546 5.20679 22.2232 5.31135 22.8055 5.41845Z" fill="#D2006E"/>
</g>
</g>
<defs>
<linearGradient id="paint0_linear_1378_17143" x1="2.50311" y1="11.0471" x2="13.114" y2="4.70234" gradientUnits="userSpaceOnUse">
<stop stop-color="#D2006E"/>
<stop offset="1" stop-color="#D2006E"/>
</linearGradient>
<linearGradient id="paint1_linear_1378_17143" x1="24.404" y1="6.86601" x2="13.793" y2="13.2107" gradientUnits="userSpaceOnUse">
<stop stop-color="#D2006E"/>
<stop offset="1" stop-color="#0F62FE"/>
</linearGradient>
</defs>
</svg>
