<svg width="16" height="16" viewBox="0 0 16 16" fill="none" xmlns="http://www.w3.org/2000/svg">
<g id="send">
<path id="Vector" d="M14.8934 7.0949L14.8884 7.09272L1.54219 1.55709C1.42993 1.5101 1.30778 1.49168 1.18666 1.50346C1.06554 1.51524 0.949225 1.55686 0.848125 1.62459C0.741311 1.69458 0.653573 1.79003 0.592805 1.90234C0.532037 2.01466 0.500145 2.14032 0.5 2.26803V5.80834C0.50006 5.98292 0.561019 6.15201 0.67237 6.28646C0.783722 6.42092 0.938491 6.51232 1.11 6.5449L8.38906 7.89084C8.41767 7.89626 8.44348 7.9115 8.46205 7.93392C8.48062 7.95634 8.49078 7.98454 8.49078 8.01365C8.49078 8.04277 8.48062 8.07097 8.46205 8.09339C8.44348 8.11581 8.41767 8.13104 8.38906 8.13647L1.11031 9.4824C0.938851 9.51491 0.784092 9.60618 0.67269 9.74052C0.561288 9.87485 0.500219 10.0438 0.5 10.2183V13.7593C0.499917 13.8812 0.530111 14.0013 0.587871 14.1087C0.645632 14.2161 0.729152 14.3074 0.830938 14.3746C0.953375 14.4559 1.09706 14.4994 1.24406 14.4996C1.34626 14.4995 1.4474 14.479 1.54156 14.4393L14.8875 8.93522L14.8934 8.9324C15.0731 8.8552 15.2262 8.72702 15.3337 8.56373C15.4413 8.40043 15.4986 8.20919 15.4986 8.01365C15.4986 7.81812 15.4413 7.62687 15.3337 7.46358C15.2262 7.30029 15.0731 7.17211 14.8934 7.0949Z" fill="#717171"/>
</g>
</svg>
