<svg width="34" height="32" viewBox="0 0 34 32" fill="none" xmlns="http://www.w3.org/2000/svg">
<path d="M16.7636 0C13.5238 0 10.4538 0.95115 7.85158 2.72893C7.85158 2.72893 7.65061 2.86037 7.33529 3.09902C7.30411 3.12323 7.27292 3.14398 7.24174 3.16819C7.12046 3.25812 6.98879 3.36188 6.84672 3.47602C6.82247 3.49677 6.79475 3.51753 6.76703 3.53828C6.77049 3.53828 6.77049 3.53482 6.77396 3.53482C6.04977 4.1228 5.09342 4.98748 4.32765 6.00781H4.33112C2.11696 8.79554 0.911133 12.2266 0.911133 15.8237C0.911133 19.8946 2.45653 23.7614 5.26321 26.7152C5.32558 26.7532 5.38448 26.7878 5.44685 26.8224C5.50576 26.857 5.56466 26.8951 5.62357 26.9262C5.6894 26.9642 5.75524 26.9988 5.82454 27.0334C5.88345 27.068 5.94582 27.0991 6.00819 27.1302C6.07402 27.1648 6.14332 27.196 6.20916 27.2305C6.27153 27.2617 6.3339 27.2928 6.39627 27.3239C6.46211 27.3551 6.53141 27.3862 6.60071 27.4173C6.66308 27.445 6.72545 27.4761 6.79128 27.5038C6.86058 27.5315 6.92988 27.5591 6.99919 27.5868C7.06502 27.6145 7.12739 27.6421 7.19323 27.6664C7.26253 27.694 7.33183 27.7182 7.40113 27.7459C7.46696 27.7701 7.52933 27.7978 7.59863 27.8185C7.66793 27.8427 7.7407 27.867 7.81 27.8912C7.87584 27.9154 7.94167 27.9361 8.00751 27.9569C8.08027 27.9811 8.14957 27.9984 8.22234 28.0191C8.29164 28.0399 8.35748 28.0606 8.42331 28.0779C8.49608 28.0987 8.56884 28.116 8.64161 28.1367C8.70744 28.154 8.77328 28.1713 8.84258 28.1886C8.91535 28.2059 8.99158 28.2232 9.06434 28.2405C9.13018 28.2543 9.19948 28.2716 9.26531 28.2855C9.33808 28.3028 9.41431 28.3131 9.49054 28.327C9.55638 28.3408 9.62221 28.3546 9.69151 28.365C9.76774 28.3788 9.84744 28.3892 9.92367 28.3996C9.9895 28.41 10.0553 28.4204 10.1212 28.4307C10.2009 28.4411 10.2806 28.4515 10.3637 28.4584C10.4296 28.4653 10.4919 28.4757 10.5543 28.4826C10.6375 28.4895 10.7241 28.4964 10.8107 28.5034C10.8696 28.5068 10.932 28.5137 10.9909 28.5172C11.0879 28.5241 11.1884 28.5276 11.2854 28.531C11.3305 28.5345 11.379 28.5345 11.424 28.5379C11.5696 28.5414 11.7151 28.5449 11.8606 28.5449C13.5204 28.5449 15.1351 28.2301 16.6631 27.611C18.3541 26.9227 19.8683 25.8886 21.1157 24.5708C21.5315 24.1315 21.9161 23.6646 22.2696 23.1665C22.3562 23.0455 22.4393 22.9244 22.519 22.7999C22.5433 22.7653 22.5676 22.7273 22.5918 22.6892C22.6507 22.5993 22.7096 22.5059 22.7651 22.4125C22.7858 22.3745 22.8101 22.3399 22.8344 22.3019C22.9071 22.1774 22.9799 22.0528 23.0527 21.9249C23.0596 21.911 23.0665 21.8937 23.0769 21.8799C23.1393 21.7658 23.2017 21.6482 23.2571 21.534C23.2744 21.496 23.2952 21.4545 23.316 21.4164C23.368 21.3127 23.4165 21.2124 23.465 21.1086C23.4789 21.0775 23.4962 21.0463 23.5066 21.0118C23.5655 20.8838 23.6209 20.7558 23.6729 20.6278C23.368 21.0636 23.0145 21.4752 22.623 21.8557C21.0464 23.3775 18.9674 24.2145 16.774 24.2145C14.5807 24.2145 12.5016 23.3775 10.9251 21.8557C9.34847 20.3373 8.44064 18.3001 8.36441 16.1246C8.36094 16.0554 8.36441 15.9862 8.36441 15.9205V15.8271C8.36441 15.7268 8.3644 15.63 8.36787 15.5297H8.36441C8.37827 14.9417 8.43024 14.3572 8.52033 13.783C8.52033 13.7796 8.52033 13.7761 8.5238 13.7726C8.54459 13.6239 8.57231 13.4787 8.60003 13.3334C8.60696 13.3023 8.61042 13.2746 8.61735 13.2435C8.63814 13.1293 8.6624 13.0152 8.69012 12.9045C8.70398 12.8457 8.71437 12.7869 8.72823 12.7281C8.74556 12.6589 8.76288 12.5898 8.78021 12.5206C8.80446 12.4203 8.83219 12.3234 8.85991 12.2231C8.87723 12.1713 8.89109 12.1159 8.90495 12.064C8.9396 11.9534 8.97425 11.8427 9.0089 11.732C9.02276 11.6905 9.03662 11.649 9.05048 11.6075C9.0886 11.4899 9.13364 11.3688 9.17522 11.2512C9.18562 11.2166 9.19948 11.1855 9.21334 11.1509C9.25838 11.0264 9.31036 10.9019 9.35887 10.7808C9.36926 10.7532 9.37966 10.729 9.39352 10.7013C9.44549 10.5733 9.5044 10.4454 9.55984 10.3208C9.57023 10.3001 9.58063 10.2793 9.58756 10.2586C9.64993 10.1272 9.70884 9.99918 9.77467 9.8712L9.79893 9.82278C9.86476 9.69135 9.93406 9.55992 10.0068 9.43194C10.0138 9.41811 10.0207 9.40428 10.0311 9.39044C10.1038 9.25901 10.1801 9.12758 10.2563 8.9996C10.2632 8.98923 10.2667 8.97885 10.2771 8.96848C10.3568 8.83705 10.44 8.70561 10.5266 8.57418C10.53 8.56726 10.5335 8.56035 10.537 8.55689C10.6236 8.422 10.7137 8.29057 10.8072 8.15913C10.8939 8.03462 10.984 7.91356 11.0775 7.79251C11.1087 7.751 11.1399 7.71296 11.1676 7.67491C11.23 7.59536 11.2924 7.51235 11.3582 7.43626C11.3963 7.3913 11.4344 7.34633 11.4725 7.29791C11.5314 7.22874 11.5903 7.1561 11.6493 7.08693C11.6908 7.03851 11.7324 6.99354 11.7775 6.94858C11.8364 6.88286 11.8953 6.81715 11.9576 6.75143C12.0027 6.70301 12.0443 6.65805 12.0893 6.61309C12.1517 6.55083 12.2106 6.48857 12.273 6.42631C12.318 6.38135 12.363 6.33639 12.4116 6.29142C12.4739 6.22917 12.5398 6.17037 12.6021 6.11157C12.6472 6.06661 12.6957 6.0251 12.7407 5.9836C12.8066 5.9248 12.8759 5.866 12.9417 5.8072C12.9868 5.7657 13.0353 5.72765 13.0803 5.68615C13.1531 5.62735 13.2258 5.56509 13.2986 5.50629C13.3402 5.4717 13.3852 5.43366 13.4303 5.39907C13.5134 5.33336 13.6001 5.26764 13.6867 5.20192C13.7213 5.17771 13.756 5.15004 13.7906 5.12583C13.9119 5.0359 14.0367 4.94944 14.1579 4.86297C14.1753 4.85259 14.1926 4.84222 14.2064 4.83184C14.3139 4.75921 14.4247 4.68657 14.5356 4.6174C14.5772 4.58973 14.6222 4.56206 14.6673 4.53785C14.7504 4.48597 14.8336 4.43409 14.9202 4.38221C14.9722 4.35108 15.0242 4.32341 15.0762 4.29228C15.097 4.2819 15.1177 4.26807 15.1385 4.25769C15.5232 4.04325 16.3859 3.59707 17.4393 3.23391C17.4462 3.23045 17.4566 3.22699 17.4636 3.22699C17.5121 3.2097 17.5606 3.19586 17.6091 3.17857C17.6611 3.16128 17.713 3.14398 17.765 3.13015C17.8135 3.11631 17.862 3.09902 17.9106 3.08518C17.966 3.07135 18.018 3.05406 18.0734 3.04022C18.1219 3.02639 18.167 3.01255 18.2155 3.00217C18.2675 2.98834 18.3229 2.9745 18.3783 2.96067C18.4268 2.94683 18.4719 2.93646 18.5204 2.92262C18.5724 2.90879 18.6243 2.89841 18.6763 2.88458C18.7248 2.8742 18.7768 2.86037 18.8253 2.84999C18.8808 2.83615 18.9362 2.82578 18.9916 2.8154C19.0402 2.80503 19.0887 2.79465 19.1337 2.78773C19.1892 2.77736 19.2481 2.76698 19.3035 2.75661C19.352 2.74623 19.3971 2.73931 19.4456 2.73239C19.501 2.72548 19.5599 2.7151 19.6188 2.70472C19.6639 2.69781 19.7124 2.69089 19.7574 2.68397C19.8163 2.67705 19.8752 2.66668 19.9341 2.65976C19.9792 2.65284 20.0277 2.64593 20.0727 2.64247C20.1316 2.63555 20.194 2.62863 20.2529 2.62517C20.298 2.61825 20.343 2.6148 20.388 2.61134C20.4504 2.60442 20.5128 2.60096 20.5717 2.5975C20.6167 2.59405 20.6618 2.59059 20.7068 2.58713C20.7727 2.58367 20.835 2.58021 20.9009 2.57329C20.9425 2.56983 20.984 2.56983 21.0256 2.56637C21.0984 2.56292 21.1677 2.55946 21.2404 2.55946C21.2751 2.55946 21.3097 2.556 21.3444 2.556C21.4518 2.55254 21.5592 2.55254 21.6666 2.55254C21.8018 2.55254 21.9404 2.556 22.0755 2.55946C22.1136 2.55946 22.1517 2.56292 22.1899 2.56292C22.2973 2.56638 22.4047 2.57329 22.5121 2.58021C22.5433 2.58367 22.5745 2.58367 22.6057 2.58713C22.7408 2.5975 22.8759 2.60788 23.0111 2.62172C23.0388 2.62517 23.07 2.62863 23.0977 2.63209C23.2086 2.64247 23.316 2.6563 23.4234 2.67014C23.4615 2.6736 23.4996 2.68051 23.5378 2.68397C23.666 2.70127 23.7907 2.72202 23.9154 2.74277C23.9224 2.74623 23.9293 2.74623 23.9397 2.74623C24.0748 2.77044 24.2065 2.79465 24.3382 2.82232C24.3728 2.82924 24.4109 2.83616 24.4456 2.84653C24.5495 2.87074 24.6535 2.89495 24.7574 2.91571C24.7886 2.92608 24.8198 2.92954 24.8545 2.93992C24.9861 2.97105 25.1143 3.00563 25.246 3.04022C25.2703 3.04714 25.2945 3.05405 25.3188 3.06097C25.4262 3.0921 25.5336 3.12323 25.6376 3.15782C25.6757 3.16819 25.7103 3.18203 25.7484 3.19241C25.8628 3.22699 25.9771 3.2685 26.088 3.30654C26.1019 3.31346 26.1192 3.31692 26.1331 3.32038C26.2578 3.36534 26.3825 3.41376 26.5073 3.46219C26.5419 3.47602 26.5766 3.48985 26.6112 3.50369C26.6597 3.52098 26.7048 3.53828 26.7498 3.55903C23.9432 1.24168 20.4608 0 16.7636 0Z" fill="#D2006E"/>
<path d="M17.2359 32.0004C20.4757 32.0004 23.5457 31.0492 26.148 29.2714C26.148 29.2714 26.3489 29.14 26.6643 28.9013C26.6954 28.8771 26.7266 28.8529 26.7578 28.8322C26.8791 28.7422 27.0108 28.6385 27.1528 28.5243C27.1771 28.5036 27.2048 28.4828 27.2325 28.4621C27.2291 28.4621 27.2291 28.4655 27.2256 28.4655C27.9498 27.8776 28.9061 27.0129 29.6719 25.996H29.6684C31.8826 23.2083 33.0884 19.7772 33.0884 16.1801C33.0884 12.1092 31.543 8.24236 28.7363 5.28861C28.674 5.25056 28.6151 5.21598 28.5527 5.18139C28.4938 5.1468 28.4349 5.11221 28.3725 5.07763C28.3067 5.03958 28.2374 5.00499 28.1715 4.97041C28.1126 4.93582 28.0503 4.90469 27.9879 4.87356C27.9221 4.83897 27.8528 4.80785 27.7869 4.77326C27.7246 4.74213 27.6622 4.711 27.5998 4.67987C27.5305 4.64874 27.4647 4.61762 27.3954 4.58649C27.333 4.55882 27.2706 4.52769 27.2048 4.50002C27.1355 4.47235 27.0662 4.44468 26.9969 4.41701C26.9311 4.38934 26.8687 4.36167 26.8029 4.33746C26.7336 4.30979 26.6643 4.28558 26.595 4.25791C26.5291 4.2337 26.4668 4.20603 26.3974 4.18527C26.3281 4.16106 26.2554 4.13685 26.1861 4.11264C26.1202 4.08843 26.0544 4.06768 25.9886 4.04693C25.9193 4.02271 25.8465 4.00542 25.7737 3.98467C25.7044 3.96392 25.6386 3.94316 25.5728 3.92587C25.5 3.90512 25.4272 3.88783 25.3545 3.87053C25.2886 3.85324 25.2193 3.83594 25.1535 3.81865C25.0807 3.80136 25.0045 3.78406 24.9317 3.76677C24.8659 3.75293 24.7966 3.73564 24.7308 3.72181C24.658 3.70451 24.5818 3.69414 24.5055 3.6803C24.4397 3.66647 24.3739 3.65263 24.3046 3.64225C24.2283 3.62842 24.1487 3.61804 24.0724 3.60767C24.0066 3.59729 23.9407 3.58691 23.8749 3.57654C23.7952 3.56616 23.7155 3.55579 23.6358 3.54887C23.57 3.54195 23.5076 3.53158 23.4453 3.52466C23.3621 3.51774 23.2755 3.51082 23.1923 3.50391C23.1334 3.50045 23.071 3.49353 23.0121 3.49007C22.9151 3.48315 22.8146 3.4797 22.7176 3.47624C22.6691 3.47278 22.624 3.46932 22.579 3.46932C22.4335 3.46586 22.2879 3.4624 22.1424 3.4624C20.4827 3.4624 18.8679 3.77715 17.3433 4.39626C15.6524 5.08454 14.1382 6.1187 12.8908 7.43648C12.475 7.87574 12.0904 8.34266 11.7369 8.84072C11.6503 8.96178 11.5671 9.08283 11.4874 9.20735C11.4632 9.24193 11.4389 9.27998 11.4147 9.31803C11.3558 9.40795 11.2969 9.50134 11.2414 9.59472C11.2206 9.63277 11.1964 9.66736 11.1721 9.7054C11.0994 9.82992 11.0266 9.95443 10.9573 10.0824C10.9504 10.0962 10.9434 10.1135 10.933 10.1274C10.8707 10.2415 10.8118 10.3591 10.7529 10.4732C10.7355 10.5113 10.7147 10.5528 10.694 10.5908C10.642 10.6946 10.5935 10.7949 10.5484 10.8987C10.5346 10.9298 10.5172 10.9609 10.5068 10.9955C10.4479 11.1235 10.3925 11.2515 10.3405 11.3794C10.6454 10.9436 10.9989 10.532 11.3904 10.1516C12.967 8.62974 15.046 7.79273 17.2359 7.79273C19.4293 7.79273 21.5083 8.62974 23.0849 10.1516C24.658 11.67 25.5693 13.7071 25.6421 15.8827C25.6455 15.9519 25.6421 16.021 25.6421 16.0868V16.1801C25.6421 16.2804 25.6421 16.3773 25.6386 16.4776H25.6421C25.6282 17.0656 25.5762 17.6501 25.4862 18.2242C25.4862 18.2277 25.4861 18.2312 25.4827 18.2346C25.4584 18.3833 25.4342 18.5286 25.4065 18.6739C25.3995 18.705 25.3961 18.7327 25.3891 18.7638C25.3683 18.8779 25.3441 18.9921 25.3164 19.1028C25.3025 19.1616 25.2921 19.2204 25.2782 19.2792C25.2609 19.3483 25.2436 19.4175 25.2263 19.4867C25.202 19.587 25.1743 19.6838 25.1466 19.7841C25.1293 19.836 25.1154 19.8914 25.1015 19.9432C25.0669 20.0539 25.0322 20.1646 24.9976 20.2753C24.9837 20.3168 24.9699 20.3583 24.956 20.3998C24.9179 20.5174 24.8763 20.6384 24.8313 20.756C24.8209 20.7906 24.807 20.8217 24.7931 20.8563C24.7481 20.9809 24.6961 21.1054 24.6476 21.2264C24.6372 21.2541 24.6268 21.2783 24.613 21.306C24.561 21.4339 24.5021 21.5619 24.4466 21.6864C24.4362 21.7072 24.4259 21.7279 24.4189 21.7487C24.3566 21.8801 24.2942 22.0081 24.2318 22.1361L24.2076 22.1845C24.1417 22.3159 24.0724 22.4473 23.9997 22.5753C23.9927 22.5892 23.9858 22.603 23.9754 22.6168C23.9026 22.7483 23.8264 22.8797 23.7502 23.0077C23.7432 23.018 23.7398 23.0284 23.7328 23.0388C23.6531 23.1702 23.57 23.3017 23.4834 23.4331C23.4799 23.44 23.4764 23.4469 23.473 23.4504C23.3863 23.5853 23.2963 23.7167 23.2027 23.8481C23.1161 23.9726 23.026 24.0937 22.9324 24.2148C22.9047 24.2563 22.8735 24.2943 22.8423 24.3324C22.78 24.4119 22.7176 24.4949 22.6518 24.571C22.6136 24.6194 22.5755 24.6609 22.5374 24.7094C22.4785 24.7785 22.4161 24.8512 22.3607 24.9203C22.3191 24.9688 22.2775 25.0137 22.236 25.0587C22.1771 25.1244 22.1181 25.1901 22.0558 25.2558C22.0107 25.3043 21.9691 25.3492 21.9241 25.3942C21.8617 25.4564 21.8028 25.5187 21.7405 25.581C21.6954 25.6259 21.6504 25.6709 21.6019 25.7158C21.5395 25.7781 21.4736 25.8369 21.4113 25.8957C21.3628 25.9407 21.3177 25.9822 21.2727 26.0237C21.2034 26.0825 21.1375 26.1413 21.0682 26.2001C21.0232 26.2416 20.9747 26.2796 20.9296 26.3211C20.8569 26.3799 20.7841 26.4422 20.7113 26.501C20.6698 26.5356 20.6247 26.5736 20.5797 26.6082C20.4965 26.6739 20.4099 26.7396 20.3233 26.8053C20.2886 26.8296 20.254 26.8572 20.2193 26.8814C20.098 26.9714 19.9733 27.0578 19.852 27.1443C19.8347 27.1547 19.8174 27.1651 19.8035 27.1754C19.6961 27.2481 19.5852 27.3207 19.4743 27.3899C19.4327 27.4175 19.3877 27.4452 19.3427 27.4694C19.256 27.5213 19.1763 27.5732 19.0897 27.6251C19.0377 27.6562 18.9858 27.6839 18.9338 27.715C18.913 27.7254 18.8922 27.7392 18.8714 27.7496C18.4868 27.964 17.624 28.4102 16.5706 28.7734C16.5637 28.7768 16.5533 28.7803 16.5464 28.7803C16.4979 28.7976 16.4494 28.8114 16.4009 28.8287C16.3489 28.846 16.2969 28.8633 16.2449 28.8771C16.1964 28.891 16.1479 28.9082 16.1029 28.9221C16.0474 28.9359 15.9954 28.9532 15.94 28.967C15.8915 28.9809 15.8464 28.9947 15.7979 29.0051C15.746 29.0189 15.6905 29.0328 15.6351 29.0466C15.5866 29.0604 15.5381 29.0708 15.493 29.0846C15.441 29.0985 15.3891 29.1089 15.3371 29.1227C15.2851 29.1331 15.2366 29.1469 15.1881 29.1573C15.1327 29.1711 15.0772 29.1815 15.0218 29.1919C14.9733 29.2022 14.9247 29.2126 14.8797 29.2195C14.8243 29.2299 14.7654 29.2403 14.7099 29.2507C14.6614 29.261 14.6164 29.268 14.5679 29.2749C14.5124 29.2818 14.4535 29.2922 14.3946 29.3025C14.3496 29.3095 14.301 29.3164 14.256 29.3233C14.1971 29.3302 14.1382 29.3371 14.0793 29.3475C14.0342 29.3544 13.9857 29.3613 13.9407 29.3648C13.8818 29.3717 13.8229 29.3786 13.764 29.3821C13.7189 29.389 13.6739 29.3925 13.6254 29.3959C13.563 29.4028 13.5006 29.4063 13.4417 29.4098C13.3967 29.4132 13.3516 29.4167 13.31 29.4201C13.2442 29.4271 13.1818 29.4305 13.116 29.434C13.0744 29.4374 13.0328 29.4409 12.9913 29.4409C12.9185 29.4444 12.8492 29.4478 12.7764 29.4478C12.7418 29.4478 12.7071 29.4513 12.6725 29.4513C12.5651 29.4547 12.4577 29.4547 12.3502 29.4547C12.2151 29.4547 12.0765 29.4547 11.9414 29.4478C11.9032 29.4478 11.8651 29.4444 11.827 29.4444C11.7196 29.4409 11.6122 29.434 11.5048 29.4271C11.4736 29.4236 11.4424 29.4236 11.4112 29.4201C11.2761 29.4098 11.1409 29.3994 11.0058 29.3856C10.9781 29.3821 10.9469 29.3786 10.9192 29.3752C10.8083 29.3648 10.7009 29.351 10.5935 29.3371C10.5554 29.3337 10.5172 29.3268 10.4791 29.3233C10.3509 29.306 10.2262 29.2853 10.1014 29.2645C10.0945 29.261 10.0876 29.261 10.0772 29.261C9.94551 29.2368 9.81037 29.2126 9.6787 29.1849C9.64405 29.178 9.60594 29.1677 9.57128 29.1607C9.46733 29.1365 9.36338 29.1158 9.25943 29.0916C9.22825 29.0846 9.19706 29.0777 9.16588 29.0673C9.03421 29.0362 8.906 29.0016 8.77433 28.967C8.75008 28.9601 8.72582 28.9532 8.70156 28.9463C8.59415 28.9152 8.48673 28.884 8.38278 28.8495C8.34467 28.8391 8.31002 28.8287 8.2719 28.8149C8.15755 28.7768 8.04321 28.7388 7.93233 28.7007C7.91847 28.6938 7.90114 28.6904 7.88728 28.6869C7.76254 28.6419 7.6378 28.5935 7.51306 28.5451C7.47841 28.5312 7.44376 28.5174 7.40911 28.5036C7.3606 28.4863 7.31555 28.469 7.27051 28.4482C10.0529 30.7587 13.5353 32.0004 17.2359 32.0004Z" fill="#D2006E"/>
</svg>
