<svg width="48" height="48" viewBox="0 0 48 48" fill="none" xmlns="http://www.w3.org/2000/svg">
<rect x="2" y="2" width="44" height="44" rx="22" fill="#D2006E"/>
<path fill-rule="evenodd" clip-rule="evenodd" d="M14.6181 10.3142C17.287 8.48087 20.4356 7.5 23.7583 7.5C27.5502 7.5 31.1217 8.78048 34.0002 11.1702C33.954 11.1488 33.9078 11.131 33.8581 11.1132L33.7515 11.0704L33.7513 11.0703C33.6234 11.0204 33.4955 10.9705 33.3677 10.9241C33.3653 10.9236 33.3629 10.923 33.3605 10.9224C33.3478 10.9193 33.3334 10.9158 33.3215 10.9099C33.2935 10.9002 33.2654 10.8904 33.2371 10.8805C33.1501 10.85 33.0617 10.8191 32.9732 10.7922C32.9536 10.7868 32.935 10.7806 32.9163 10.7743C32.8977 10.7681 32.879 10.7618 32.8595 10.7565C32.7529 10.7208 32.6427 10.6887 32.5325 10.6566L32.4579 10.6352C32.4345 10.6291 32.4113 10.6229 32.3881 10.6167C32.2773 10.5873 32.168 10.5583 32.0563 10.5318C32.0396 10.5267 32.0236 10.5233 32.0081 10.5199C31.9906 10.5161 31.9737 10.5125 31.9568 10.5068C31.8502 10.4854 31.7436 10.4604 31.637 10.4355C31.6065 10.4263 31.5733 10.4197 31.5421 10.4136C31.5369 10.4125 31.5318 10.4115 31.5268 10.4105C31.3918 10.382 31.2567 10.357 31.1181 10.332C31.1075 10.332 31.1004 10.332 31.0933 10.3285C30.9653 10.3071 30.8374 10.2857 30.7059 10.2678C30.6864 10.2661 30.6668 10.2634 30.6473 10.2607C30.6277 10.258 30.6082 10.2554 30.5886 10.2536L30.5886 10.2536C30.4784 10.2393 30.3683 10.225 30.2546 10.2143C30.2404 10.2126 30.2253 10.2108 30.2101 10.209C30.195 10.2072 30.1799 10.2054 30.1657 10.2036C30.0272 10.1894 29.8886 10.1787 29.75 10.168L29.7499 10.168C29.734 10.1662 29.718 10.1653 29.702 10.1644C29.686 10.1635 29.67 10.1626 29.654 10.1608C29.5438 10.1537 29.4337 10.1466 29.3235 10.143C29.304 10.143 29.2844 10.1421 29.2649 10.1412C29.2453 10.1403 29.2258 10.1394 29.2062 10.1394C29.0676 10.1359 28.9255 10.1323 28.7869 10.1323C28.6767 10.1323 28.5666 10.1323 28.4564 10.1359C28.4386 10.1359 28.4209 10.1368 28.4031 10.1377C28.3853 10.1385 28.3675 10.1394 28.3498 10.1394C28.2784 10.1394 28.2102 10.1427 28.1391 10.1461L28.1294 10.1466C28.1081 10.1484 28.0868 10.1492 28.0655 10.1501C28.0442 10.151 28.0228 10.1519 28.0015 10.1537C27.934 10.1608 27.87 10.1644 27.8025 10.168L27.6639 10.1787L27.6539 10.1793C27.5964 10.1826 27.536 10.1862 27.4756 10.1929L27.4755 10.1929C27.4293 10.1965 27.3831 10.2001 27.337 10.2072C27.2765 10.2108 27.2126 10.2179 27.1522 10.225C27.106 10.2286 27.0562 10.2357 27.01 10.2429C26.9798 10.2464 26.9496 10.2509 26.9194 10.2554C26.8892 10.2598 26.859 10.2643 26.8288 10.2678C26.8057 10.2714 26.7817 10.275 26.7577 10.2785C26.7337 10.2821 26.7097 10.2857 26.6866 10.2892L26.6866 10.2892C26.6262 10.2999 26.5658 10.3106 26.5089 10.3178C26.4592 10.3249 26.413 10.332 26.3632 10.3427C26.3348 10.3481 26.3055 10.3534 26.2761 10.3588C26.2468 10.3641 26.2175 10.3695 26.1891 10.3748C26.1429 10.382 26.0932 10.3927 26.0434 10.4034L26.0434 10.4034L26.0434 10.4034C25.9865 10.4141 25.9297 10.4248 25.8728 10.439C25.8479 10.4444 25.8222 10.4506 25.7964 10.4569C25.7707 10.4631 25.7449 10.4694 25.72 10.4747C25.6934 10.4818 25.6667 10.4881 25.64 10.4943C25.6134 10.5006 25.5867 10.5068 25.5601 10.5139C25.5352 10.5211 25.5112 10.5273 25.4872 10.5336C25.4632 10.5398 25.4393 10.5461 25.4144 10.5532C25.3575 10.5675 25.3007 10.5817 25.2474 10.596C25.2067 10.6047 25.1685 10.6158 25.1287 10.6274C25.1198 10.63 25.1108 10.6326 25.1017 10.6352C25.0732 10.6424 25.0457 10.6504 25.0181 10.6584C24.9906 10.6664 24.9631 10.6745 24.9346 10.6816C24.9098 10.6887 24.8849 10.6967 24.86 10.7048C24.8351 10.7128 24.8103 10.7208 24.7854 10.728C24.7321 10.7422 24.6788 10.7601 24.6255 10.7779L24.6255 10.7779C24.6006 10.7868 24.5757 10.7948 24.5508 10.8029C24.5259 10.8109 24.5011 10.8189 24.4762 10.8278C24.4691 10.8278 24.4584 10.8314 24.4513 10.835C23.371 11.2095 22.4861 11.6696 22.0916 11.8907C22.081 11.8961 22.0703 11.9023 22.0597 11.9086C22.049 11.9148 22.0383 11.9211 22.0277 11.9264C22.001 11.9425 21.9744 11.9576 21.9477 11.9728C21.9211 11.9879 21.8944 12.0031 21.8678 12.0191C21.7789 12.0726 21.6937 12.1261 21.6084 12.1796L21.6083 12.1796C21.5621 12.2046 21.5159 12.2332 21.4733 12.2617C21.3596 12.333 21.2459 12.4079 21.1357 12.4828C21.1215 12.4935 21.1037 12.5042 21.086 12.5149L21.0859 12.5149C21.0495 12.5411 21.0127 12.5672 20.9758 12.5934C20.8869 12.6567 20.7972 12.7204 20.7092 12.786C20.6915 12.7985 20.6737 12.8119 20.6559 12.8252C20.6382 12.8386 20.6204 12.852 20.6026 12.8645L20.6025 12.8645C20.5137 12.9323 20.4249 13 20.3397 13.0678C20.3 13.0984 20.2603 13.1317 20.2229 13.163C20.2168 13.1682 20.2106 13.1733 20.2046 13.1784C20.1673 13.2087 20.13 13.2399 20.0927 13.2711C20.0554 13.3023 20.018 13.3335 19.9807 13.3638C19.9576 13.3852 19.9336 13.4057 19.9096 13.4263C19.8857 13.4468 19.8617 13.4673 19.8386 13.4887C19.8048 13.519 19.7702 13.5493 19.7355 13.5796C19.7009 13.6099 19.6662 13.6402 19.6325 13.6706C19.6176 13.6843 19.6024 13.6981 19.587 13.712C19.5546 13.7413 19.5217 13.7711 19.4903 13.8025C19.4695 13.8222 19.4484 13.8419 19.4271 13.8618C19.3829 13.9029 19.338 13.9447 19.2949 13.988C19.2451 14.0344 19.1989 14.0808 19.1527 14.1271C19.1207 14.1592 19.0896 14.1913 19.0585 14.2234C19.0274 14.2555 18.9963 14.2876 18.9644 14.3197C18.9212 14.3631 18.8811 14.4064 18.8384 14.4526L18.8293 14.4624C18.7654 14.5302 18.705 14.5979 18.6446 14.6657L18.6445 14.6657C18.5983 14.7121 18.5557 14.7584 18.513 14.8084C18.4828 14.844 18.4526 14.8806 18.4224 14.9172C18.3922 14.9537 18.362 14.9903 18.3318 15.026C18.2927 15.0759 18.2536 15.1223 18.2145 15.1686C18.1627 15.2288 18.113 15.2932 18.0638 15.3569C18.0489 15.3763 18.034 15.3956 18.0191 15.4147C18.0031 15.4368 17.986 15.4589 17.9684 15.4815C17.9547 15.4992 17.9407 15.5173 17.9267 15.536C17.8307 15.6608 17.7383 15.7857 17.6495 15.9141C17.5535 16.0496 17.4611 16.1852 17.3723 16.3243C17.3687 16.3278 17.3652 16.335 17.3616 16.3421C17.2728 16.4776 17.1875 16.6132 17.1058 16.7487C17.0986 16.7559 17.0947 16.763 17.0907 16.7701C17.0888 16.7737 17.0868 16.7773 17.0844 16.7808C17.0062 16.9128 16.9281 17.0483 16.8534 17.1839C16.8428 17.1981 16.8357 17.2124 16.8286 17.2267C16.7539 17.3586 16.6829 17.4942 16.6153 17.6297L16.5905 17.6797C16.5371 17.784 16.4881 17.8884 16.4384 17.9945C16.4252 18.0226 16.4119 18.0508 16.3986 18.0791C16.3915 18.1005 16.3808 18.1219 16.3701 18.1433L16.3701 18.1433C16.3578 18.1711 16.3454 18.1991 16.3328 18.2272C16.2875 18.3289 16.2413 18.4323 16.1995 18.5357C16.1853 18.5642 16.1747 18.5892 16.164 18.6177C16.1526 18.6464 16.141 18.6752 16.1293 18.7042C16.0902 18.8015 16.0503 18.9005 16.0148 18.9994C16.0116 19.0074 16.0084 19.0153 16.0052 19.023C15.9943 19.0497 15.9839 19.0752 15.9757 19.1028C15.9637 19.1369 15.9514 19.1713 15.9391 19.2058C15.9076 19.294 15.8758 19.383 15.8477 19.4702L15.8051 19.5986L15.6985 19.941C15.696 19.9503 15.6936 19.9596 15.6911 19.969C15.6792 20.0141 15.667 20.0608 15.6523 20.1051C15.6472 20.1236 15.6421 20.1419 15.6371 20.1602C15.6138 20.2443 15.591 20.3269 15.5705 20.4118L15.5172 20.6258C15.5101 20.6562 15.5039 20.6865 15.4977 20.7168C15.4915 20.7471 15.4852 20.7774 15.4781 20.8077C15.4497 20.9219 15.4248 21.0396 15.4035 21.1573C15.4 21.1733 15.3973 21.1885 15.3946 21.2037C15.392 21.2188 15.3893 21.234 15.3857 21.25L15.3857 21.2501C15.3573 21.3999 15.3289 21.5497 15.3076 21.703C15.304 21.7066 15.304 21.7102 15.304 21.7137C15.2116 22.3058 15.1583 22.9086 15.1441 23.515H15.1476C15.1441 23.6183 15.1441 23.7182 15.1441 23.8215V23.8217V23.918C15.1441 23.9403 15.1437 23.9631 15.1433 23.986C15.1425 24.0328 15.1417 24.0806 15.1441 24.1284C15.2223 26.372 16.1533 28.4728 17.7703 30.0386C19.3873 31.608 21.5195 32.4712 23.769 32.4712C26.0185 32.4712 28.1508 31.608 29.7677 30.0386C30.1693 29.6463 30.5318 29.2218 30.8445 28.7724C30.7912 28.9044 30.7343 29.0364 30.6739 29.1683C30.6663 29.1937 30.6551 29.2173 30.6442 29.2404C30.6397 29.2497 30.6354 29.259 30.6313 29.2682C30.5815 29.3752 30.5318 29.4787 30.4785 29.5857C30.4571 29.6249 30.4358 29.6677 30.4181 29.7069C30.3612 29.8246 30.2972 29.9459 30.2333 30.0636C30.2252 30.0744 30.2192 30.0873 30.2136 30.099C30.2118 30.1028 30.2101 30.1065 30.2084 30.11C30.1338 30.2419 30.0592 30.3703 29.9846 30.4986L29.9845 30.4988C29.9774 30.5099 29.9704 30.5207 29.9634 30.5314C29.9458 30.5585 29.9287 30.5848 29.9134 30.6129C29.8566 30.7092 29.7961 30.8055 29.7357 30.8982C29.7109 30.9375 29.686 30.9767 29.6611 31.0124C29.5794 31.1408 29.4941 31.2656 29.4052 31.3905C29.0428 31.9041 28.6483 32.3856 28.2218 32.8386C26.9425 34.1975 25.3895 35.264 23.6553 35.9738C22.0881 36.6123 20.432 36.9368 18.7298 36.9368C18.5806 36.9368 18.4315 36.9333 18.2823 36.9297L18.282 36.9297C18.2589 36.9279 18.235 36.927 18.211 36.9261C18.187 36.9253 18.163 36.9244 18.1399 36.9226L18.1301 36.9222C18.0336 36.9188 17.9341 36.9152 17.8378 36.9083C17.8076 36.9065 17.7765 36.9039 17.7454 36.9012C17.7143 36.8985 17.6832 36.8958 17.653 36.894C17.5642 36.8869 17.4753 36.8798 17.3901 36.8726C17.3601 36.8693 17.3302 36.8652 17.2999 36.861C17.2654 36.8563 17.2305 36.8515 17.1946 36.8477C17.1093 36.8405 17.0276 36.8298 16.9458 36.8191L16.7433 36.787C16.7349 36.7859 16.7266 36.7848 16.7182 36.7836C16.6477 36.774 16.575 36.7641 16.5052 36.7514C16.4341 36.7407 16.3667 36.7264 16.2992 36.7122L16.2991 36.7121C16.2744 36.7076 16.2497 36.7035 16.2251 36.6993C16.1718 36.6904 16.1191 36.6815 16.0681 36.6693C16.0343 36.6622 15.9997 36.6542 15.965 36.6461C15.9304 36.6381 15.8957 36.6301 15.8619 36.623C15.8246 36.614 15.7864 36.6051 15.7482 36.5962C15.71 36.5873 15.6718 36.5784 15.6345 36.5695C15.5634 36.5516 15.4959 36.5338 15.4284 36.516C15.3911 36.5053 15.3537 36.4954 15.3164 36.4856C15.2791 36.4758 15.2418 36.466 15.2045 36.4553C15.1527 36.4416 15.1008 36.4258 15.0474 36.4096C15.0312 36.4046 15.0149 36.3997 14.9984 36.3947C14.9763 36.3884 14.9545 36.3823 14.9329 36.3763C14.8814 36.3621 14.8306 36.3481 14.7781 36.3305C14.7105 36.3091 14.643 36.2877 14.5755 36.2627C14.5399 36.2502 14.5035 36.2377 14.4671 36.2253C14.4307 36.2128 14.3942 36.2003 14.3587 36.1878C14.3113 36.1735 14.2671 36.1561 14.2229 36.1387C14.2008 36.1299 14.1787 36.1212 14.1561 36.1129C14.1206 36.0986 14.0851 36.0853 14.0495 36.0719C14.014 36.0585 13.9785 36.0451 13.9429 36.0309C13.891 36.0117 13.8411 35.9903 13.7901 35.9685C13.7749 35.962 13.7595 35.9554 13.7439 35.9488L13.5307 35.8632C13.4905 35.8463 13.4516 35.828 13.4132 35.81C13.3871 35.7978 13.3612 35.7856 13.3352 35.7741C13.2642 35.742 13.1931 35.7099 13.1256 35.6778L12.9337 35.5815C12.8999 35.5636 12.8653 35.5467 12.8306 35.5297C12.796 35.5128 12.7613 35.4959 12.7275 35.478C12.6636 35.4459 12.5996 35.4138 12.5392 35.3782C12.4681 35.3425 12.4006 35.3068 12.3331 35.2676C12.2928 35.2462 12.2525 35.2216 12.2122 35.197C12.1921 35.1847 12.172 35.1725 12.1518 35.1606C12.0879 35.1249 12.0275 35.0892 11.9635 35.05C9.08497 32.004 7.5 28.0163 7.5 23.8181C7.5 20.1087 8.7367 16.5704 11.0075 13.6955H11.004C11.7894 12.6433 12.7702 11.7516 13.5129 11.1453C13.5111 11.1453 13.5103 11.1462 13.5094 11.1471C13.5085 11.148 13.5076 11.1488 13.5058 11.1488C13.5342 11.1274 13.5627 11.106 13.5876 11.0846C13.7333 10.9669 13.8683 10.8599 13.9927 10.7672C14.0087 10.7547 14.0247 10.7431 14.0406 10.7315C14.0566 10.7199 14.0726 10.7083 14.0886 10.6959C14.412 10.4497 14.6181 10.3142 14.6181 10.3142ZM33.3822 37.6858C30.7133 39.5192 27.5647 40.5 24.242 40.5C20.4466 40.5 16.8751 39.2195 14.0214 36.8369C14.0676 36.8583 14.1138 36.8762 14.1636 36.894L14.2702 36.9368L14.2703 36.9369C14.3982 36.9868 14.5261 37.0367 14.654 37.083C14.6563 37.0836 14.6587 37.0842 14.6612 37.0848C14.6739 37.0879 14.6883 37.0913 14.7002 37.0973C14.8139 37.1365 14.9312 37.1758 15.0484 37.215C15.0875 37.2293 15.1231 37.24 15.1622 37.2507C15.2688 37.2863 15.3789 37.3184 15.4891 37.3505L15.5637 37.3719C15.5871 37.3781 15.6103 37.3843 15.6335 37.3904C15.7443 37.4198 15.8536 37.4488 15.9653 37.4754C15.9973 37.4861 16.0293 37.4932 16.0612 37.5004C16.1145 37.5128 16.1678 37.5244 16.2211 37.536C16.2744 37.5476 16.3278 37.5592 16.3811 37.5717C16.3989 37.5753 16.4175 37.5797 16.4362 37.5842C16.4548 37.5886 16.4735 37.5931 16.4912 37.5967C16.6082 37.6214 16.7278 37.6434 16.8455 37.6651C16.8637 37.6684 16.8818 37.6718 16.8999 37.6751H16.9C16.9106 37.6751 16.9177 37.6751 16.9248 37.6787L16.925 37.6787C17.0528 37.7001 17.1807 37.7215 17.3122 37.7393C17.3317 37.7411 17.3513 37.7438 17.3708 37.7465C17.3903 37.7491 17.4099 37.7518 17.4294 37.7536C17.5396 37.7679 17.6498 37.7821 17.7635 37.7928C17.7777 37.7946 17.7928 37.7964 17.8079 37.7982C17.823 37.8 17.8381 37.8017 17.8523 37.8035C17.9909 37.8178 18.1295 37.8285 18.2681 37.8392C18.2841 37.841 18.3001 37.8419 18.3161 37.8428C18.3321 37.8437 18.3481 37.8445 18.3641 37.8463C18.4742 37.8535 18.5844 37.8606 18.6946 37.8642C18.7141 37.8642 18.7337 37.8651 18.7532 37.8659C18.7727 37.8668 18.7923 37.8677 18.8118 37.8677C18.9504 37.8749 19.0926 37.8749 19.2312 37.8749C19.3413 37.8749 19.4515 37.8749 19.5617 37.8713C19.5794 37.8713 19.5972 37.8704 19.615 37.8695C19.6328 37.8686 19.6505 37.8677 19.6683 37.8677C19.7397 37.8677 19.8078 37.8645 19.8789 37.8611L19.8886 37.8606C19.9313 37.8606 19.9739 37.857 20.0166 37.8535C20.0841 37.8499 20.148 37.8463 20.2156 37.8392C20.2582 37.8356 20.3044 37.8321 20.3506 37.8285L20.3608 37.8279C20.4182 37.8245 20.4786 37.821 20.539 37.8142C20.5887 37.8107 20.6349 37.8071 20.6811 37.8C20.7415 37.7964 20.8019 37.7893 20.8623 37.7821L20.8623 37.7821C20.9085 37.7786 20.9583 37.7714 21.0045 37.7643C21.0649 37.7536 21.1253 37.7465 21.1857 37.7393C21.2088 37.7358 21.2328 37.7322 21.2568 37.7286C21.2808 37.7251 21.3048 37.7215 21.3279 37.7179C21.3883 37.7072 21.4487 37.6965 21.5056 37.6894C21.5553 37.6823 21.6015 37.6751 21.6513 37.6644C21.6797 37.6591 21.709 37.6537 21.7383 37.6484C21.7677 37.643 21.797 37.6377 21.8254 37.6323C21.8716 37.6252 21.9214 37.6145 21.9711 37.6038C22.028 37.5931 22.0848 37.5824 22.1417 37.5681C22.1638 37.5634 22.186 37.5579 22.2085 37.5523C22.2364 37.5454 22.2649 37.5384 22.2945 37.5324C22.3212 37.5253 22.3478 37.5191 22.3745 37.5128C22.4011 37.5066 22.4278 37.5003 22.4544 37.4932C22.4801 37.4853 22.5069 37.4784 22.5342 37.4715C22.556 37.4659 22.578 37.4603 22.6001 37.454L22.6002 37.454C22.657 37.4397 22.7139 37.4254 22.7671 37.4112C22.8078 37.4024 22.846 37.3913 22.8858 37.3798C22.8947 37.3772 22.9037 37.3746 22.9129 37.3719C22.9413 37.3648 22.9688 37.3568 22.9964 37.3488C23.0239 37.3407 23.0514 37.3327 23.0799 37.3256C23.0984 37.3198 23.1176 37.3135 23.137 37.3071C23.166 37.2976 23.1958 37.2877 23.2256 37.2792C23.2789 37.2649 23.3322 37.2471 23.3855 37.2293C23.4104 37.2204 23.4353 37.2123 23.4601 37.2043C23.485 37.1963 23.5099 37.1883 23.5348 37.1793C23.5419 37.1793 23.5525 37.1758 23.5596 37.1722C24.64 36.7977 25.5248 36.3376 25.9193 36.1164C25.93 36.1111 25.9406 36.1048 25.9513 36.0986C25.962 36.0924 25.9726 36.0861 25.9833 36.0808C26.0099 36.0647 26.0366 36.0496 26.0632 36.0344C26.0899 36.0192 26.1165 36.0041 26.1432 35.988C26.1876 35.9613 26.2303 35.9345 26.2729 35.9078C26.3155 35.881 26.3582 35.8543 26.4026 35.8275C26.4488 35.8025 26.495 35.774 26.5377 35.7455C26.6514 35.6741 26.7651 35.5992 26.8753 35.5243C26.8895 35.5136 26.9073 35.5029 26.925 35.4922C26.9615 35.4661 26.9983 35.4399 27.0352 35.4137C27.1241 35.3504 27.2138 35.2867 27.3017 35.2212C27.3195 35.2087 27.3373 35.1953 27.355 35.1819C27.3728 35.1685 27.3906 35.1552 27.4083 35.1427C27.4972 35.0749 27.586 35.0072 27.6713 34.9394C27.7109 34.9088 27.7506 34.8755 27.788 34.8442C27.7942 34.839 27.8003 34.8339 27.8063 34.8288C27.8436 34.7985 27.881 34.7673 27.9183 34.7361C27.9556 34.7049 27.9929 34.6737 28.0302 34.6433C28.0533 34.6219 28.0773 34.6014 28.1013 34.5809C28.1253 34.5604 28.1493 34.5399 28.1724 34.5185C28.2079 34.4882 28.2426 34.4579 28.2772 34.4275C28.3119 34.3972 28.3465 34.3669 28.3821 34.3366C28.4283 34.2938 28.4744 34.251 28.5242 34.2046C28.545 34.1849 28.5662 34.1652 28.5875 34.1453C28.6317 34.1042 28.6765 34.0625 28.7197 34.0191C28.7694 33.9728 28.8156 33.9264 28.8618 33.88C28.8938 33.8479 28.9249 33.8158 28.956 33.7837C28.9871 33.7516 29.0182 33.7195 29.0502 33.6874C29.0933 33.6441 29.1333 33.6008 29.1761 33.5546L29.1852 33.5448C29.2492 33.477 29.3096 33.4092 29.37 33.3415C29.4126 33.2951 29.4553 33.2487 29.4979 33.1988C29.5483 33.1356 29.6042 33.0696 29.6583 33.0058C29.6653 32.9975 29.6723 32.9894 29.6792 32.9812C29.6987 32.9562 29.7183 32.9331 29.7378 32.9099C29.7573 32.8867 29.7769 32.8635 29.7964 32.8385C29.8482 32.7783 29.898 32.7139 29.9472 32.6501C29.9621 32.6308 29.977 32.6115 29.9919 32.5924C30.0239 32.5532 30.0559 32.514 30.0843 32.4712C30.1802 32.3463 30.2726 32.2215 30.3615 32.0931C30.4574 31.9575 30.5498 31.822 30.6387 31.6829C30.6405 31.681 30.6424 31.6781 30.6443 31.6748C30.646 31.6718 30.6477 31.6684 30.6493 31.6651C30.7382 31.5295 30.8235 31.394 30.9052 31.2584C30.9086 31.2533 30.9112 31.2482 30.9137 31.2431C30.9165 31.2375 30.9193 31.2319 30.923 31.2263C31.0012 31.0944 31.0793 30.9588 31.154 30.8233C31.1646 30.809 31.1717 30.7948 31.1788 30.7805C31.2535 30.6485 31.3245 30.513 31.3921 30.3774L31.4169 30.3275L31.4174 30.3266C31.4812 30.195 31.545 30.0633 31.6088 29.928C31.616 29.9066 31.6266 29.8852 31.6373 29.8638C31.6496 29.836 31.6621 29.8081 31.6746 29.78C31.72 29.6783 31.7661 29.5749 31.8079 29.4715C31.8221 29.4429 31.8327 29.418 31.8434 29.3894C31.8548 29.3608 31.8664 29.3319 31.8781 29.3029C31.9173 29.2056 31.9571 29.1067 31.9927 29.0078C31.9958 28.9998 31.999 28.9919 32.0022 28.9842C32.0131 28.9575 32.0235 28.932 32.0317 28.9044C32.0779 28.7831 32.1206 28.6582 32.1597 28.537L32.2023 28.4086L32.3089 28.0662C32.3114 28.0569 32.3139 28.0475 32.3163 28.0381C32.3282 27.993 32.3404 27.9463 32.3551 27.9021C32.3602 27.8836 32.3653 27.8652 32.3704 27.8469C32.3936 27.7628 32.4164 27.6803 32.4369 27.5953L32.4902 27.3813C32.4973 27.351 32.5035 27.3207 32.5097 27.2903C32.5159 27.26 32.5222 27.2297 32.5293 27.1994C32.5577 27.0853 32.5826 26.9676 32.6039 26.8499C32.6074 26.8338 32.6101 26.8187 32.6128 26.8035C32.6154 26.7884 32.6181 26.7732 32.6217 26.7571C32.6501 26.6073 32.675 26.4575 32.6998 26.3041C32.7034 26.3006 32.7034 26.297 32.7034 26.2934C32.7958 25.7014 32.8491 25.0986 32.8633 24.4922H32.8598C32.8633 24.3888 32.8633 24.2889 32.8633 24.1855V24.0892C32.8633 24.0668 32.8637 24.0441 32.8641 24.0211C32.8649 23.9744 32.8657 23.9265 32.8633 23.8787C32.7887 21.6352 31.8541 19.5344 30.2407 17.9685C28.6237 16.3991 26.4915 15.536 24.242 15.536C21.996 15.536 19.8637 16.3991 18.2468 17.9685C17.8452 18.3609 17.4827 18.7853 17.17 19.2347C17.2233 19.1028 17.2802 18.9708 17.3406 18.8388C17.3482 18.8134 17.3594 18.7898 17.3703 18.7667C17.3748 18.7574 17.3791 18.7482 17.3832 18.739C17.4294 18.632 17.4792 18.5285 17.5325 18.4215C17.5538 18.3823 17.5751 18.3395 17.5929 18.3002C17.6082 18.2705 17.6235 18.2405 17.6388 18.2103C17.6841 18.1214 17.7299 18.0315 17.7777 17.9436C17.7858 17.9327 17.7918 17.9199 17.7974 17.9081C17.7991 17.9043 17.8009 17.9006 17.8026 17.8972C17.8737 17.7652 17.9483 17.6368 18.0229 17.5084C18.03 17.4973 18.037 17.4865 18.044 17.4758C18.0616 17.4487 18.0787 17.4224 18.094 17.3943C18.1508 17.298 18.2113 17.2017 18.2717 17.1089L18.2717 17.1089C18.2966 17.0697 18.3214 17.0304 18.3463 16.9948C18.428 16.8664 18.5133 16.7415 18.6022 16.6167C18.9647 16.1031 19.3591 15.6216 19.7856 15.1686C21.0649 13.8096 22.6179 12.7432 24.3521 12.0334C25.9158 11.3949 27.5718 11.0703 29.274 11.0703C29.4233 11.0703 29.5726 11.0739 29.7218 11.0775C29.7649 11.0775 29.808 11.0806 29.854 11.0839L29.864 11.0846L29.8741 11.085C29.9705 11.0884 30.0699 11.092 30.166 11.0989C30.1962 11.1006 30.2273 11.1033 30.2584 11.106C30.2895 11.1087 30.3206 11.1113 30.3508 11.1131L30.6102 11.1345C30.6402 11.1379 30.6701 11.142 30.7004 11.1462C30.7349 11.1509 30.7698 11.1557 30.8057 11.1595C30.8874 11.1666 30.9692 11.1773 31.0509 11.188L31.2535 11.2201C31.2618 11.2213 31.2702 11.2224 31.2786 11.2236C31.3491 11.2332 31.4217 11.2431 31.4916 11.2558C31.5626 11.2665 31.6302 11.2808 31.6977 11.295C31.7224 11.2995 31.747 11.3037 31.7716 11.3078C31.8249 11.3168 31.8776 11.3256 31.9287 11.3378C31.9624 11.345 31.9971 11.353 32.0317 11.361C32.0664 11.369 32.101 11.3771 32.1348 11.3842C32.1721 11.3931 32.2103 11.402 32.2485 11.411C32.2867 11.4199 32.3249 11.4288 32.3622 11.4377C32.396 11.4466 32.4306 11.4555 32.4653 11.4645C32.4999 11.4734 32.5346 11.4823 32.5684 11.4912L32.5684 11.4912C32.643 11.5091 32.7176 11.5269 32.7922 11.5483C32.844 11.562 32.8958 11.5777 32.9492 11.594C32.9654 11.5989 32.9818 11.6039 32.9984 11.6089C33.0212 11.6155 33.044 11.6217 33.0667 11.6278C33.1183 11.6419 33.1693 11.6558 33.2187 11.6731C33.2862 11.6945 33.3537 11.7159 33.4212 11.7409C33.4568 11.7534 33.4932 11.7658 33.5296 11.7783C33.566 11.7908 33.6025 11.8033 33.638 11.8158C33.6854 11.8301 33.7296 11.8475 33.7739 11.8649C33.796 11.8736 33.8181 11.8824 33.8406 11.8907C33.8761 11.905 33.9117 11.9183 33.9472 11.9317C33.9827 11.9451 34.0183 11.9585 34.0538 11.9727C34.1058 11.992 34.1557 12.0133 34.2067 12.0351C34.222 12.0416 34.2373 12.0482 34.2528 12.0548L34.466 12.1404C34.5062 12.1573 34.5451 12.1756 34.5835 12.1936C34.6096 12.2058 34.6356 12.218 34.6615 12.2295C34.6971 12.2456 34.7317 12.2616 34.7664 12.2777C34.801 12.2937 34.8356 12.3098 34.8712 12.3258L35.0631 12.4221C35.0968 12.44 35.1315 12.4569 35.1661 12.4739C35.2008 12.4908 35.2354 12.5077 35.2692 12.5256L35.2692 12.5256C35.3332 12.5577 35.3971 12.5898 35.4575 12.6255C35.4747 12.6345 35.4921 12.6436 35.5097 12.6527C35.561 12.6795 35.6133 12.7068 35.6637 12.736C35.7276 12.7717 35.788 12.8073 35.8484 12.843L35.8485 12.843C35.9124 12.8787 35.9728 12.9144 36.0368 12.9536C38.9153 15.9996 40.5003 19.9873 40.5003 24.1855C40.5003 27.8949 39.2636 31.4332 36.9928 34.3081H36.9963C36.2109 35.3567 35.2301 36.2484 34.4874 36.8548C34.4891 36.8548 34.49 36.8539 34.4909 36.853C34.4918 36.8521 34.4927 36.8512 34.4945 36.8512C34.4661 36.8726 34.4376 36.894 34.4127 36.9154C34.267 37.0331 34.132 37.1401 34.0076 37.2328C33.9756 37.2542 33.9436 37.2792 33.9117 37.3042C33.5883 37.5503 33.3822 37.6858 33.3822 37.6858Z" fill="white"/>
</svg>
