<svg width="16" height="16" viewBox="0 0 16 16" fill="none" xmlns="http://www.w3.org/2000/svg">
<path d="M8 2C4.6916 2 2 4.6916 2 8C2 11.3084 4.6916 14 8 14C11.3084 14 14 11.3084 14 8C14 4.6916 11.3084 2 8 2ZM8 4.46C8.15427 4.46 8.30507 4.50575 8.43334 4.59145C8.56161 4.67716 8.66159 4.79898 8.72063 4.94151C8.77966 5.08403 8.79511 5.24086 8.76501 5.39217C8.73492 5.54348 8.66063 5.68246 8.55154 5.79154C8.44246 5.90063 8.30348 5.97492 8.15217 6.00501C8.00087 6.03511 7.84403 6.01966 7.70151 5.96063C7.55898 5.90159 7.43716 5.80161 7.35145 5.67334C7.26575 5.54507 7.22 5.39427 7.22 5.24C7.22 5.03313 7.30218 4.83473 7.44846 4.68846C7.59473 4.54218 7.79313 4.46 8 4.46ZM9.44 11.24H6.8C6.6727 11.24 6.55061 11.1894 6.46059 11.0994C6.37057 11.0094 6.32 10.8873 6.32 10.76C6.32 10.6327 6.37057 10.5106 6.46059 10.4206C6.55061 10.3306 6.6727 10.28 6.8 10.28H7.64V7.64H7.16C7.0327 7.64 6.91061 7.58943 6.82059 7.49941C6.73057 7.40939 6.68 7.2873 6.68 7.16C6.68 7.0327 6.73057 6.91061 6.82059 6.82059C6.91061 6.73057 7.0327 6.68 7.16 6.68H8.12C8.2473 6.68 8.36939 6.73057 8.45941 6.82059C8.54943 6.91061 8.6 7.0327 8.6 7.16V10.28H9.44C9.5673 10.28 9.68939 10.3306 9.77941 10.4206C9.86943 10.5106 9.92 10.6327 9.92 10.76C9.92 10.8873 9.86943 11.0094 9.77941 11.0994C9.68939 11.1894 9.5673 11.24 9.44 11.24Z" fill="#DA1E28"/>
</svg>
