<svg width="24" height="24" viewBox="0 0 24 24" fill="none" xmlns="http://www.w3.org/2000/svg">
<rect width="24" height="24" rx="12" fill="#0A1F10"/>
<path fill-rule="evenodd" clip-rule="evenodd" d="M13.6464 7.39645C13.8417 7.20118 14.1583 7.20118 14.3536 7.39645L15.8536 8.89645C16.0488 9.09171 16.0488 9.40829 15.8536 9.60355L14.3536 11.1036C14.1583 11.2988 13.8417 11.2988 13.6464 11.1036C13.4512 10.9083 13.4512 10.5917 13.6464 10.3964L14.7929 9.25L13.6464 8.10355C13.4512 7.90829 13.4512 7.59171 13.6464 7.39645Z" fill="#39AA5A"/>
<path fill-rule="evenodd" clip-rule="evenodd" d="M8.49851 8.75L8.5 8.75H15C15.2761 8.75 15.5 8.97386 15.5 9.25C15.5 9.52614 15.2761 9.75 15 9.75H8.50079C7.9707 9.75177 7.46282 9.96313 7.08797 10.338C6.71313 10.7128 6.50177 11.2207 6.5 11.7508V12.25C6.5 12.5261 6.27614 12.75 6 12.75C5.72386 12.75 5.5 12.5261 5.5 12.25V11.75L5.5 11.7485C5.50238 10.954 5.81905 10.1927 6.38087 9.63087C6.94268 9.06905 7.70398 8.75238 8.49851 8.75Z" fill="#39AA5A"/>
<path fill-rule="evenodd" clip-rule="evenodd" d="M10.3536 12.8964C10.5488 13.0917 10.5488 13.4083 10.3536 13.6036L9.20711 14.75L10.3536 15.8964C10.5488 16.0917 10.5488 16.4083 10.3536 16.6036C10.1583 16.7988 9.84171 16.7988 9.64645 16.6036L8.14645 15.1036C7.95118 14.9083 7.95118 14.5917 8.14645 14.3964L9.64645 12.8964C9.84171 12.7012 10.1583 12.7012 10.3536 12.8964Z" fill="#39AA5A"/>
<path fill-rule="evenodd" clip-rule="evenodd" d="M18 11.25C18.2761 11.25 18.5 11.4739 18.5 11.75V12.25L18.5 12.2515C18.4976 13.046 18.1809 13.8073 17.6191 14.3691C17.0573 14.9309 16.296 15.2476 15.5015 15.25L15.5 15.25H9C8.72386 15.25 8.5 15.0261 8.5 14.75C8.5 14.4739 8.72386 14.25 9 14.25H15.4992C16.0293 14.2482 16.5372 14.0369 16.912 13.662C17.2869 13.2872 17.4983 12.7792 17.5 12.2491V11.75C17.5 11.4739 17.7239 11.25 18 11.25Z" fill="#39AA5A"/>
</svg>
