<svg width="162" height="32" viewBox="0 0 162 32" fill="none" xmlns="http://www.w3.org/2000/svg">
<circle cx="1" cy="16" r="1" fill="#898989"/>
<circle cx="6" cy="16" r="1" fill="#898989"/>
<circle cx="11" cy="16" r="1" fill="#898989"/>
<circle cx="16" cy="16" r="1" fill="#898989"/>
<circle cx="21" cy="16" r="1" fill="#898989"/>
<circle cx="26" cy="16" r="1" fill="#898989"/>
<circle cx="31" cy="16" r="1" fill="#898989"/>
<circle cx="36" cy="16" r="1" fill="#898989"/>
<circle cx="41" cy="16" r="1" fill="#898989"/>
<circle cx="46" cy="16" r="1" fill="#898989"/>
<circle cx="51" cy="16" r="1" fill="#898989"/>
<circle cx="56" cy="16" r="1" fill="#898989"/>
<circle cx="61" cy="16" r="1" fill="#898989"/>
<circle cx="66" cy="16" r="1" fill="#898989"/>
<circle cx="71" cy="16" r="1" fill="#898989"/>
<circle cx="76" cy="16" r="1" fill="#898989"/>
<circle cx="81" cy="16" r="1" fill="#898989"/>
<circle cx="86" cy="16" r="1" fill="#898989"/>
<circle cx="91" cy="16" r="1" fill="#898989"/>
<circle cx="96" cy="16" r="1" fill="#898989"/>
<circle cx="101" cy="16" r="1" fill="#898989"/>
<circle cx="106" cy="16" r="1" fill="#898989"/>
<circle cx="111" cy="16" r="1" fill="#898989"/>
<circle cx="116" cy="16" r="1" fill="#898989"/>
<circle cx="121" cy="16" r="1" fill="#898989"/>
<circle cx="126" cy="16" r="1" fill="#898989"/>
<circle cx="131" cy="16" r="1" fill="#898989"/>
<circle cx="136" cy="16" r="1" fill="#898989"/>
<circle cx="141" cy="16" r="1" fill="#898989"/>
<circle cx="146" cy="16" r="1" fill="#898989"/>
<circle cx="151" cy="16" r="1" fill="#898989"/>
<circle cx="156" cy="16" r="1" fill="#898989"/>
<circle cx="161" cy="16" r="1" fill="#898989"/>
<circle cx="166" cy="16" r="1" fill="#898989"/>
<circle cx="171" cy="16" r="1" fill="#898989"/>
<circle cx="176" cy="16" r="1" fill="#898989"/>
<circle cx="181" cy="16" r="1" fill="#898989"/>
<circle cx="186" cy="16" r="1" fill="#898989"/>
<circle cx="191" cy="16" r="1" fill="#898989"/>
<circle cx="196" cy="16" r="1" fill="#898989"/>
<circle cx="201" cy="16" r="1" fill="#898989"/>
<circle cx="206" cy="16" r="1" fill="#898989"/>
<circle cx="211" cy="16" r="1" fill="#898989"/>
<circle cx="216" cy="16" r="1" fill="#898989"/>
<circle cx="221" cy="16" r="1" fill="#898989"/>
<circle cx="226" cy="16" r="1" fill="#898989"/>
<circle cx="231" cy="16" r="1" fill="#898989"/>
<circle cx="236" cy="16" r="1" fill="#898989"/>
<circle cx="241" cy="16" r="1" fill="#898989"/>
<circle cx="246" cy="16" r="1" fill="#898989"/>
<circle cx="251" cy="16" r="1" fill="#898989"/>
<circle cx="256" cy="16" r="1" fill="#898989"/>
<circle cx="261" cy="16" r="1" fill="#898989"/>
<circle cx="266" cy="16" r="1" fill="#898989"/>
<circle cx="271" cy="16" r="1" fill="#898989"/>
<circle cx="276" cy="16" r="1" fill="#898989"/>
<circle cx="281" cy="16" r="1" fill="#898989"/>
<circle cx="286" cy="16" r="1" fill="#898989"/>
<circle cx="291" cy="16" r="1" fill="#898989"/>
<circle cx="296" cy="16" r="1" fill="#898989"/>
<circle cx="301" cy="16" r="1" fill="#898989"/>
</svg>
