<svg width="32" height="32" viewBox="0 0 32 32" fill="none" xmlns="http://www.w3.org/2000/svg">
<g clip-path="url(#clip0_11588_6190)">
<circle cx="16" cy="16" r="15.5" fill="white" stroke="#D2006E"/>
<path d="M18.0529 9.87267C17.5316 9.30991 16.8036 9 16 9C15.1922 9 14.4617 9.30803 13.9429 9.86732C13.4184 10.4328 13.1629 11.2012 13.2229 12.0311C13.3418 13.6682 14.5876 15 16 15C17.4124 15 18.6561 13.6685 18.7769 12.0316C18.8377 11.2093 18.5805 10.4424 18.0529 9.87267Z" fill="#D2006E"/>
<path d="M20.7143 20.9999H11.2858C11.1623 21.0015 11.0401 20.9756 10.928 20.924C10.8159 20.8725 10.7166 20.7965 10.6375 20.7018C10.4634 20.4937 10.3933 20.2095 10.4452 19.9221C10.6713 18.668 11.3768 17.6145 12.4858 16.875C13.4709 16.2184 14.7189 15.8571 16 15.8571C17.2812 15.8571 18.5291 16.2187 19.5143 16.875C20.6232 17.6142 21.3287 18.6677 21.5548 19.9218C21.6068 20.2092 21.5366 20.4934 21.3625 20.7015C21.2834 20.7963 21.1842 20.8723 21.0721 20.9239C20.9599 20.9755 20.8377 21.0015 20.7143 20.9999Z" fill="#D2006E"/>
</g>
<defs>
<clipPath id="clip0_11588_6190">
<rect width="32" height="32" fill="white"/>
</clipPath>
</defs>
</svg>
