<svg width="40" height="40" viewBox="0 0 40 40" fill="none"
    xmlns="http://www.w3.org/2000/svg">
    <path fill-rule="evenodd" clip-rule="evenodd" d="M0.5 20C0.5 9.23407 9.23407 0.5 20 0.5C30.7659 0.5 39.5 9.23407 39.5 20C39.5 30.7659 30.7659 39.5 20 39.5C9.23407 39.5 0.5 30.7659 0.5 20ZM20 3.5C10.8909 3.5 3.5 10.8909 3.5 20C3.5 29.1091 10.8909 36.5 20 36.5C29.1091 36.5 36.5 29.1091 36.5 20C36.5 10.8909 29.1091 3.5 20 3.5Z" fill="#121212"/>
    <path fill-rule="evenodd" clip-rule="evenodd" d="M20 6.5C20.8284 6.5 21.5 7.17157 21.5 8V20H29C29.8284 20 30.5 20.6716 30.5 21.5C30.5 22.3284 29.8284 23 29 23H20C19.1716 23 18.5 22.3284 18.5 21.5V8C18.5 7.17157 19.1716 6.5 20 6.5Z" fill="#121212"/>
</svg>