<svg width="16" height="19" viewBox="0 0 16 19" fill="none" xmlns="http://www.w3.org/2000/svg">
<g id="Group 48095666">
<path id="Vector" d="M2.3418 6.66622L3.92965 3.14453L5.51714 6.66622M2.74107 5.79628H5.07276M7.48722 3.14453V6.66622M6.28905 3.14453H8.68503M10.3358 6.67404V3.13672L11.8398 6.29573L13.4273 3.13672V6.67404" stroke="black" stroke-width="1.33333" stroke-linecap="round" stroke-linejoin="round"/>
<path id="Vector_2" d="M0.895508 1.5H15.1045V17.5H0.895508V1.5Z" fill="black"/>
<path id="Vector_3" d="M2.3418 6.66622L3.92965 3.14453L5.51714 6.66622M2.74107 5.79628H5.07276M7.48722 3.14453V6.66622M6.28905 3.14453H8.68503M10.3358 6.67404V3.13672L11.8398 6.29573L13.4273 3.13672V6.67404" stroke="white" stroke-width="0.666667" stroke-linecap="round" stroke-linejoin="round"/>
<path id="Vector_4" d="M2.1123 8.67578H7.48542V13.6088H2.1123V8.67578Z" fill="white"/>
<path id="Vector_5" d="M2.1123 14.8945H13.6564V16.1527H2.1123V14.8945Z" fill="white"/>
<path id="Vector_6" d="M10.5707 10.8541H8.74731C8.6531 10.8541 8.56275 10.8167 8.49613 10.7501C8.42951 10.6835 8.39209 10.5931 8.39209 10.4989V8.67554C8.39209 8.58133 8.42951 8.49097 8.49613 8.42435C8.56275 8.35774 8.6531 8.32031 8.74731 8.32031H10.5707C10.6649 8.32031 10.7552 8.35774 10.8219 8.42435C10.8885 8.49097 10.9259 8.58133 10.9259 8.67554V10.4989C10.9259 10.5931 10.8885 10.6835 10.8219 10.7501C10.7552 10.8167 10.6649 10.8541 10.5707 10.8541ZM13.6565 10.8541H11.8328C11.7386 10.8541 11.6482 10.8167 11.5816 10.7501C11.515 10.6835 11.4776 10.5931 11.4776 10.4989V8.67554C11.4776 8.58133 11.515 8.49097 11.5816 8.42435C11.6482 8.35774 11.7386 8.32031 11.8328 8.32031H13.6562C13.7504 8.32031 13.8407 8.35774 13.9073 8.42435C13.974 8.49097 14.0114 8.58133 14.0114 8.67554V10.4989C14.0114 10.5931 13.974 10.6835 13.9073 10.7501C13.8407 10.8167 13.7507 10.8541 13.6565 10.8541ZM10.5707 13.9652H8.74731C8.6531 13.9652 8.56275 13.9278 8.49613 13.8611C8.42951 13.7945 8.39209 13.7042 8.39209 13.61V11.7866C8.39209 11.6924 8.42951 11.602 8.49613 11.5354C8.56275 11.4688 8.6531 11.4314 8.74731 11.4314H10.5707C10.6649 11.4314 10.7552 11.4688 10.8219 11.5354C10.8885 11.602 10.9259 11.6924 10.9259 11.7866V13.61C10.9259 13.7042 10.8885 13.7945 10.8219 13.8611C10.7552 13.9278 10.6649 13.9652 10.5707 13.9652ZM13.6565 13.9652H11.8328C11.7386 13.9652 11.6482 13.9278 11.5816 13.8611C11.515 13.7945 11.4776 13.7042 11.4776 13.61V11.7866C11.4776 11.6924 11.515 11.602 11.5816 11.5354C11.6482 11.4688 11.7386 11.4314 11.8328 11.4314H13.6562C13.7504 11.4314 13.8407 11.4688 13.9073 11.5354C13.974 11.602 14.0114 11.6924 14.0114 11.7866V13.61C14.0114 13.7042 13.974 13.7945 13.9073 13.8611C13.8407 13.9278 13.7507 13.9652 13.6565 13.9652Z" fill="white"/>
<g id="Group">
<path id="Vector_7" d="M0.895508 1.5H15.1045V17.5H0.895508V1.5Z" stroke="black" stroke-width="1.41467" stroke-linecap="round" stroke-linejoin="round"/>
<path id="Vector_8" d="M2.1123 15.8105V14.8954H13.656V15.8105M8.74718 10.4991V8.67578H10.5705M11.8327 10.4991V8.67578H13.656M8.74718 13.6102V11.7868H10.5705M11.8327 13.6102V11.7868H13.656M2.1123 8.67578H7.48542V13.6088H2.1123V8.67578Z" stroke="black" stroke-width="1.33333" stroke-linecap="round" stroke-linejoin="round"/>
</g>
</g>
</svg>
