<svg width="10" height="17" viewBox="0 0 10 17" fill="none"
    xmlns="http://www.w3.org/2000/svg">
    <path d="M4.97075 0.330078C5.52387 0.330078 5.97075 0.776953 5.97075 1.33008V2.4457C6.02075 2.45195 6.06762 2.4582 6.11762 2.46758C6.13012 2.4707 6.1395 2.4707 6.152 2.47383L7.652 2.74883C8.19575 2.84883 8.55512 3.3707 8.45512 3.91133C8.35512 4.45195 7.83325 4.81445 7.29262 4.71445L5.80825 4.44258C4.83012 4.29883 3.96762 4.3957 3.36137 4.63633C2.75512 4.87695 2.51137 5.2082 2.45512 5.51445C2.39262 5.84883 2.4395 6.03633 2.49262 6.15195C2.54887 6.27383 2.6645 6.41133 2.89262 6.56445C3.402 6.89883 4.18325 7.11758 5.19575 7.38633L5.28637 7.41133C6.18012 7.64883 7.27387 7.93633 8.08637 8.46758C8.53012 8.7582 8.94887 9.15195 9.20825 9.70195C9.47387 10.2613 9.53012 10.8863 9.40825 11.552C9.19262 12.7395 8.37387 13.5332 7.35825 13.9488C6.93012 14.1238 6.4645 14.2363 5.97075 14.2926V15.3301C5.97075 15.8832 5.52387 16.3301 4.97075 16.3301C4.41762 16.3301 3.97075 15.8832 3.97075 15.3301V14.2395C3.95825 14.2363 3.94262 14.2363 3.93012 14.2332H3.92387C3.16137 14.1145 1.90825 13.7863 1.0645 13.4113C0.561373 13.1863 0.333248 12.5957 0.558248 12.0926C0.783248 11.5895 1.37387 11.3613 1.877 11.5863C2.53012 11.877 3.60512 12.1645 4.227 12.2613C5.22387 12.4082 6.04575 12.3238 6.602 12.0957C7.13012 11.8801 7.37075 11.5676 7.4395 11.1926C7.49887 10.8613 7.452 10.6707 7.39887 10.5551C7.3395 10.4301 7.22387 10.2926 6.99262 10.1395C6.48012 9.80508 5.69575 9.58633 4.68012 9.31758L4.59262 9.2957C3.702 9.0582 2.60825 8.76758 1.79575 8.23633C1.352 7.9457 0.936373 7.54883 0.676998 6.99883C0.414498 6.43945 0.361373 5.81445 0.486373 5.14883C0.711373 3.95508 1.60512 3.18008 2.62075 2.77695C3.03637 2.61133 3.49262 2.49883 3.97075 2.4332V1.33008C3.97075 0.776953 4.41762 0.330078 4.97075 0.330078Z" fill="#0F62FE"/>
</svg>
