<svg width="24" height="24" viewBox="0 0 24 24" fill="none" xmlns="http://www.w3.org/2000/svg">
<path d="M0.0734258 11.9206C0.0729454 13.4616 0.475552 14.966 1.24096 16.2921L0 20.823L4.63687 19.6072C5.91448 20.3038 7.35294 20.6711 8.81665 20.6716H8.82043C13.641 20.6716 17.5652 16.7486 17.5673 11.9276C17.5681 9.59112 16.659 7.39404 15.0077 5.74128C13.3561 4.08872 11.1602 3.17796 8.82043 3.177C3.99903 3.177 0.0753472 7.09945 0.0734258 11.9206ZM2.83485 16.0637L2.66172 15.7889C1.93391 14.6316 1.54976 13.2943 1.55031 11.9211C1.55182 7.91392 4.81303 4.65375 8.82317 4.65375C10.7652 4.65458 12.5903 5.41162 13.963 6.78516C15.3356 8.15884 16.091 9.98487 16.0905 11.927C16.0887 15.9342 12.8274 19.1948 8.82043 19.1948H8.81754C7.51283 19.1941 6.23323 18.8437 5.1173 18.1816L4.85173 18.0241L2.10011 18.7455L2.83485 16.0637Z" fill="url(#paint0_linear_16628_203839)"/>
<path d="M0.512578 11.8957C0.512016 13.9189 1.04302 15.8943 2.0527 17.6355L0.416016 23.5847L6.53152 21.9883C8.22298 22.9051 10.1181 23.3854 12.044 23.3855H12.0491C18.4067 23.3855 23.582 18.2352 23.5847 11.9048C23.586 8.83723 22.3871 5.95272 20.2089 3.78257C18.0311 1.6126 15.1347 0.416927 12.0486 0.415527C5.6902 0.415527 0.515297 5.56558 0.512672 11.8957" fill="url(#paint1_linear_16628_203839)"/>
<path d="M9.06383 6.92018C8.84014 6.42524 8.60473 6.41525 8.39202 6.40657C8.21783 6.39911 8.0187 6.39967 7.81977 6.39967C7.62064 6.39967 7.29711 6.47424 7.02364 6.7715C6.74989 7.06904 5.97852 7.78807 5.97852 9.25049C5.97852 10.713 7.04848 12.1263 7.19764 12.3248C7.34698 12.523 9.26323 15.6201 12.2981 16.8116C14.8204 17.8017 15.3336 17.6048 15.881 17.5552C16.4285 17.5057 17.6477 16.8363 17.8964 16.1422C18.1453 15.4482 18.1453 14.8533 18.0707 14.729C17.996 14.6051 17.7969 14.5307 17.4983 14.3822C17.1996 14.2335 15.7317 13.5144 15.458 13.4151C15.1843 13.316 14.9853 13.2666 14.7861 13.5642C14.587 13.8614 14.0152 14.5307 13.841 14.729C13.6669 14.9277 13.4926 14.9524 13.1941 14.8037C12.8953 14.6546 11.9337 14.3411 10.7929 13.3285C9.90523 12.5406 9.30598 11.5676 9.1318 11.27C8.95761 10.9728 9.11314 10.8117 9.26286 10.6636C9.39702 10.5304 9.56155 10.3165 9.71098 10.143C9.85986 9.96942 9.90955 9.84557 10.0091 9.64734C10.1088 9.44891 10.0589 9.27532 9.98436 9.12664C9.90955 8.97796 9.32933 7.50789 9.06383 6.92018Z" fill="white"/>
<defs>
<linearGradient id="paint0_linear_16628_203839" x1="878.364" y1="1767.78" x2="878.364" y2="3.177" gradientUnits="userSpaceOnUse">
<stop stop-color="#F9F9F9"/>
<stop offset="1" stop-color="white"/>
</linearGradient>
<linearGradient id="paint1_linear_16628_203839" x1="1158.85" y1="2317.33" x2="1158.85" y2="0.415527" gradientUnits="userSpaceOnUse">
<stop stop-color="#1FAF38"/>
<stop offset="1" stop-color="#60D669"/>
</linearGradient>
</defs>
</svg>
