<svg width="55" height="54" viewBox="0 0 55 54" fill="none" xmlns="http://www.w3.org/2000/svg">
<g id="Group 48095664">
<path id="Vector" d="M27.1091 0.956543C21.7675 0.956543 16.6954 2.52587 12.4045 5.45603C12.4045 5.45603 12.0744 5.67551 11.5518 6.0651C11.5023 6.10351 11.4528 6.14192 11.3978 6.18033C11.1997 6.32849 10.9852 6.49859 10.7486 6.69064C10.7046 6.72356 10.6606 6.75649 10.6166 6.78941C10.6166 6.78941 10.6221 6.78941 10.6276 6.78941C9.43384 7.75515 7.85501 9.1873 6.59524 10.8664C2.94797 15.4537 0.956543 21.1164 0.956543 27.0426C0.956543 33.7589 3.50358 40.1295 8.13557 44.9966C8.23459 45.057 8.33911 45.1118 8.43813 45.1722C8.53715 45.2271 8.63067 45.2874 8.7352 45.3423C8.84522 45.4027 8.95524 45.4575 9.06526 45.5179C9.16429 45.5728 9.26331 45.6276 9.36783 45.677C9.47785 45.7374 9.58788 45.7868 9.6979 45.8416C9.80242 45.891 9.90144 45.9459 10.006 45.9953C10.116 46.0501 10.2315 46.0995 10.3415 46.1489C10.4461 46.1983 10.5506 46.2422 10.6551 46.2916C10.7706 46.341 10.8807 46.3849 10.9962 46.4342C11.1007 46.4781 11.2107 46.522 11.3152 46.5659C11.4253 46.6098 11.5463 46.6537 11.6618 46.6976C11.7663 46.736 11.8764 46.7799 11.9864 46.8183C12.1019 46.8568 12.2174 46.8952 12.333 46.9336C12.443 46.972 12.5475 47.0104 12.663 47.0433C12.7786 47.0817 12.8996 47.1147 13.0151 47.1476C13.1251 47.1805 13.2352 47.2134 13.3507 47.2463C13.4662 47.2793 13.5872 47.3067 13.7083 47.3396C13.8183 47.3671 13.9283 47.4 14.0383 47.4219C14.1593 47.4549 14.2804 47.4768 14.4014 47.5042C14.5114 47.5262 14.6214 47.5536 14.7315 47.5756C14.8525 47.603 14.979 47.625 15.1 47.6469C15.2101 47.6689 15.3201 47.6908 15.4301 47.7128C15.5566 47.7347 15.6832 47.7512 15.8097 47.7731C15.9197 47.7896 16.0242 47.806 16.1343 47.8225C16.2663 47.839 16.3983 47.8554 16.5304 47.8719C16.6349 47.8829 16.7394 47.8993 16.8439 47.9103C16.9814 47.9213 17.1245 47.9322 17.262 47.9487C17.361 47.9542 17.46 47.9652 17.5591 47.9707C17.7186 47.9816 17.8836 47.9871 18.0432 47.9981C18.1202 47.9981 18.1972 48.0091 18.2742 48.0091C18.5163 48.0145 18.7528 48.02 18.9949 48.02C21.7345 48.02 24.397 47.4988 26.9166 46.4781C29.7056 45.3423 32.2032 43.6358 34.2661 41.4684C34.9538 40.744 35.5864 39.9704 36.1695 39.1528C36.3126 38.9552 36.4501 38.7522 36.5821 38.5492C36.6261 38.4888 36.6591 38.4285 36.7031 38.3681C36.8022 38.2199 36.8957 38.0663 36.9892 37.9127C37.0277 37.8523 37.0662 37.7919 37.0992 37.7316C37.2202 37.5286 37.3413 37.32 37.4568 37.106C37.4678 37.0786 37.4843 37.0567 37.4953 37.0292C37.5998 36.8427 37.6988 36.6506 37.7979 36.4586C37.8309 36.3927 37.8584 36.3269 37.8914 36.2665C37.9739 36.0964 38.0564 35.9263 38.1334 35.7617C38.1554 35.7068 38.1829 35.6574 38.205 35.6026C38.2985 35.3941 38.392 35.18 38.4745 34.966C37.9684 35.6849 37.3908 36.3653 36.7416 36.9908C34.1396 39.4985 30.7124 40.8812 27.0926 40.8812C23.4728 40.8812 20.0456 39.4985 17.4435 36.9908C14.847 34.4887 13.3452 31.1305 13.2241 27.5419C13.2241 27.4267 13.2241 27.3169 13.2241 27.2072V27.0481C13.2241 26.8834 13.2241 26.7243 13.2296 26.5597C13.2517 25.5885 13.3397 24.6282 13.4827 23.6789C13.4827 23.6734 13.4827 23.6625 13.4827 23.6625C13.5212 23.421 13.5597 23.1796 13.6037 22.9382C13.6147 22.8888 13.6257 22.8394 13.6367 22.79C13.6752 22.6034 13.7138 22.4169 13.7523 22.2303C13.7743 22.137 13.7963 22.0383 13.8183 21.9395C13.8458 21.8243 13.8733 21.709 13.9008 21.5938C13.9448 21.4292 13.9888 21.2701 14.0328 21.1054C14.0603 21.0177 14.0823 20.9299 14.1098 20.8421C14.1648 20.661 14.2254 20.4744 14.2804 20.2933C14.3024 20.222 14.3244 20.1562 14.3519 20.0848C14.4179 19.8873 14.4839 19.6952 14.5554 19.4977C14.5774 19.4428 14.5939 19.388 14.6159 19.3331C14.693 19.1301 14.7755 18.927 14.858 18.724C14.8745 18.6801 14.891 18.6362 14.913 18.5923C15.001 18.3838 15.0945 18.1753 15.1881 17.9668C15.2046 17.9339 15.2211 17.8955 15.2321 17.8625C15.3311 17.6485 15.4356 17.4345 15.5456 17.2205L15.5897 17.1382C15.6997 16.9242 15.8152 16.7047 15.9307 16.4907C15.9417 16.4688 15.9527 16.4468 15.9692 16.4249C16.0903 16.2054 16.2113 15.9914 16.3433 15.7774C16.3543 15.7609 16.3653 15.7445 16.3763 15.728C16.5083 15.514 16.6459 15.2945 16.7889 15.0805C16.7889 15.0696 16.7999 15.0586 16.8109 15.0531C16.9539 14.8336 17.108 14.6141 17.2565 14.3946C17.3995 14.1916 17.5536 13.9886 17.7021 13.7856C17.7516 13.7197 17.8011 13.6539 17.8506 13.5935C17.9552 13.4618 18.0597 13.3246 18.1642 13.1984C18.2247 13.1216 18.2907 13.0503 18.3567 12.9735C18.4558 12.8582 18.5548 12.7375 18.6538 12.6278C18.7253 12.5509 18.7913 12.4741 18.8628 12.3973C18.9619 12.2876 19.0609 12.1778 19.1599 12.0736C19.2314 11.9967 19.3029 11.9199 19.38 11.8431C19.479 11.7388 19.578 11.6346 19.6825 11.5358C19.7595 11.459 19.8366 11.3877 19.9081 11.3163C20.0126 11.2176 20.1171 11.1133 20.2216 11.0145C20.2987 10.9432 20.3757 10.8719 20.4527 10.8005C20.5627 10.7018 20.6727 10.603 20.7883 10.5097C20.8653 10.4439 20.9423 10.378 21.0138 10.3122C21.1348 10.2134 21.2559 10.1146 21.3769 10.0159C21.4484 9.95551 21.5199 9.90064 21.5914 9.84028C21.7345 9.73054 21.872 9.62628 22.015 9.51653C22.07 9.47812 22.1305 9.42874 22.1856 9.39033C22.3836 9.24218 22.5871 9.09951 22.7962 8.95684C22.8237 8.94038 22.8512 8.91843 22.8787 8.90197C23.0547 8.78125 23.2363 8.66054 23.4178 8.54531C23.4893 8.50141 23.5608 8.45751 23.6324 8.41361C23.7754 8.32582 23.9074 8.24351 24.0504 8.1612C24.133 8.11182 24.221 8.06243 24.309 8.01305C24.342 7.9911 24.3805 7.97464 24.4135 7.95269C25.0517 7.60151 26.471 6.86074 28.2093 6.26813C28.2203 6.26813 28.2368 6.25715 28.2478 6.25715C28.3249 6.22972 28.4074 6.20228 28.4899 6.18033C28.5724 6.1529 28.6604 6.12546 28.7484 6.09803C28.8255 6.07059 28.908 6.04864 28.985 6.0212C29.0785 5.99926 29.161 5.97182 29.2546 5.94438C29.3316 5.92244 29.4141 5.90049 29.4911 5.87854C29.5791 5.85659 29.6671 5.82915 29.7607 5.80721C29.8377 5.78526 29.9202 5.76331 29.9972 5.74685C30.0852 5.7249 30.1732 5.70844 30.2558 5.68649C30.3383 5.67003 30.4208 5.64808 30.5033 5.63162C30.5968 5.60967 30.6904 5.59321 30.7784 5.57126C30.8554 5.55479 30.9379 5.53833 31.0149 5.52187C31.1084 5.50541 31.202 5.48895 31.2955 5.47249C31.3725 5.45603 31.4495 5.44505 31.532 5.42859C31.6256 5.41762 31.7191 5.40115 31.8181 5.38469C31.8951 5.37372 31.9721 5.36274 32.0491 5.34628C32.1482 5.33531 32.2417 5.31885 32.3407 5.30787C32.4177 5.2969 32.4947 5.28592 32.5718 5.27495C32.6708 5.26397 32.7698 5.253 32.8688 5.24203C32.9458 5.23105 33.0229 5.22556 33.0944 5.21459C33.1934 5.20362 33.2979 5.19813 33.3969 5.19264C33.4684 5.18715 33.5455 5.17618 33.617 5.17618C33.7215 5.16521 33.8315 5.16521 33.936 5.15423C34.0076 5.15423 34.0736 5.14326 34.1451 5.14326C34.2606 5.13777 34.3816 5.13228 34.5027 5.13228C34.5577 5.13228 34.6127 5.13228 34.6732 5.1268C34.8547 5.1268 35.0308 5.1268 35.2013 5.1268C35.4269 5.1268 35.6524 5.1268 35.878 5.13777C35.9385 5.13777 36.0045 5.13777 36.0705 5.14326C36.252 5.14874 36.4281 5.15972 36.6041 5.17069C36.6536 5.17069 36.7086 5.17618 36.7581 5.18167C36.9837 5.19813 37.2037 5.21459 37.4238 5.24203C37.4678 5.24203 37.5173 5.253 37.5668 5.25849C37.7484 5.28044 37.9244 5.2969 38.1004 5.32433C38.1609 5.32982 38.227 5.3408 38.2875 5.35177C38.4965 5.37921 38.7056 5.41213 38.9146 5.45054C38.9256 5.45054 38.9421 5.45054 38.9531 5.45603C39.1732 5.49444 39.3932 5.53833 39.6133 5.58223C39.6738 5.59321 39.7288 5.60967 39.7893 5.62064C39.9598 5.65905 40.1304 5.69746 40.3064 5.73587C40.3559 5.75233 40.4109 5.75782 40.4659 5.77428C40.6805 5.82915 40.895 5.88403 41.1096 5.94438C41.1481 5.95536 41.1921 5.96633 41.2306 5.97731C41.4066 6.02669 41.5827 6.08156 41.7587 6.13644C41.8192 6.15838 41.8797 6.17485 41.9402 6.19679C42.1273 6.25715 42.3143 6.31751 42.5014 6.38336C42.5289 6.39433 42.5509 6.39982 42.5784 6.40531C42.7874 6.48213 42.991 6.55895 43.2 6.63577C43.2605 6.65772 43.3155 6.67967 43.3706 6.7071C43.4476 6.73454 43.5246 6.76746 43.6016 6.7949C38.9586 3.00875 33.2154 0.956543 27.1091 0.956543Z" fill="#D2006E"/>
<path id="Vector_2" d="M27.8909 53.7154C33.2326 53.7154 38.2992 52.146 42.5956 49.2159C42.5956 49.2159 42.9256 48.9964 43.4482 48.6068C43.4978 48.5684 43.5473 48.53 43.6023 48.4916C43.8003 48.3434 44.0149 48.1733 44.2514 47.9813C44.2954 47.9483 44.3394 47.9154 44.3834 47.8825C44.3834 47.8825 44.3779 47.8825 44.3724 47.8825C45.5662 46.9113 47.145 45.4846 48.4048 43.8055C52.0576 39.2127 54.0435 33.55 54.0435 27.6238C54.0435 20.9075 51.4965 14.5369 46.8645 9.6698C46.7654 9.60944 46.6664 9.55457 46.5619 9.49421C46.4629 9.43385 46.3639 9.37898 46.2648 9.32411C46.1548 9.26375 46.0448 9.20888 45.9348 9.14852C45.8358 9.09365 45.7367 9.03878 45.6322 8.98939C45.5222 8.92903 45.4122 8.87965 45.3021 8.82478C45.1976 8.77539 45.0986 8.72052 44.9941 8.67114C44.8841 8.61626 44.7685 8.56688 44.6585 8.51749C44.554 8.46811 44.4495 8.42421 44.3449 8.37483C44.2294 8.32544 44.1194 8.28155 44.0039 8.23765C43.8993 8.19375 43.7893 8.14985 43.6848 8.10596C43.5748 8.06206 43.4537 8.01816 43.3382 7.97426C43.2337 7.93585 43.1237 7.89196 43.0137 7.85355C42.8981 7.81514 42.7826 7.77673 42.6671 7.73832C42.5571 7.69991 42.4525 7.6615 42.337 7.62857C42.2215 7.59016 42.1005 7.55724 41.9849 7.52432C41.8749 7.49139 41.7649 7.45847 41.6494 7.42555C41.5338 7.39262 41.4128 7.36519 41.2918 7.33226C41.1818 7.30483 41.0717 7.27191 40.9617 7.24996C40.8407 7.21703 40.7197 7.19509 40.5986 7.16765C40.4886 7.1457 40.3786 7.11827 40.2686 7.09632C40.1475 7.06888 40.021 7.04693 39.9 7.02498C39.79 7.00303 39.6799 6.98109 39.5699 6.95914C39.4434 6.93719 39.3169 6.92073 39.1903 6.89878C39.0803 6.88232 38.9703 6.86586 38.8658 6.84939C38.7337 6.83293 38.6017 6.81647 38.4697 6.80001C38.3652 6.78903 38.2606 6.77257 38.1561 6.7616C38.0186 6.75062 37.8756 6.73965 37.738 6.72319C37.639 6.7177 37.54 6.70673 37.441 6.70124C37.2814 6.69027 37.1164 6.68478 36.9569 6.6738C36.8799 6.6738 36.8028 6.66283 36.7258 6.66283C36.4838 6.65734 36.2472 6.65186 36.0052 6.65186C33.2656 6.65186 30.603 7.17314 28.0835 8.19375C25.2944 9.3296 22.7969 11.0361 20.7339 13.2035C20.0463 13.9278 19.4136 14.7015 18.8305 15.5191C18.6875 15.7167 18.55 15.9197 18.4179 16.1227C18.3739 16.1831 18.3409 16.2434 18.2969 16.3038C18.1979 16.4519 18.1044 16.6056 18.0108 16.7592C17.9723 16.8196 17.9338 16.8799 17.9008 16.9403C17.7798 17.1433 17.6588 17.3518 17.5432 17.5658C17.5322 17.5878 17.5157 17.6152 17.5047 17.6427C17.4002 17.8292 17.3012 18.0213 17.2077 18.2133C17.1747 18.2792 17.1472 18.345 17.1142 18.4054C17.0316 18.5755 16.9491 18.7456 16.8721 18.9157C16.8501 18.9706 16.8226 19.0199 16.8006 19.0748C16.7016 19.2833 16.6135 19.4973 16.5255 19.7113C17.0316 18.9925 17.6093 18.3121 18.2584 17.6866C20.8604 15.1789 24.2877 13.7962 27.9074 13.7962C31.5272 13.7962 34.9544 15.1789 37.5565 17.6866C40.153 20.1887 41.6549 23.5469 41.7759 27.1355C41.7759 27.2507 41.7759 27.3605 41.7759 27.4702V27.6293C41.7759 27.7939 41.7759 27.9531 41.7704 28.1177C41.7484 29.0889 41.6604 30.0492 41.5173 30.9984C41.5173 31.0039 41.5173 31.0149 41.5173 31.0204C41.4788 31.2618 41.4403 31.5033 41.3963 31.7447C41.3853 31.7941 41.3743 31.8435 41.3633 31.8929C41.3248 32.0794 41.2863 32.266 41.2478 32.4525C41.2258 32.5458 41.2038 32.6446 41.1818 32.7434C41.1543 32.8586 41.1268 32.9738 41.0992 33.0891C41.0552 33.2537 41.0112 33.4128 40.9672 33.5774C40.9397 33.6652 40.9177 33.753 40.8902 33.8408C40.8352 34.0219 40.7802 34.2084 40.7197 34.3895C40.6977 34.4609 40.6757 34.5267 40.6482 34.598C40.5821 34.7956 40.5161 34.9876 40.4446 35.1852C40.4226 35.24 40.4061 35.2949 40.3841 35.3498C40.3071 35.5528 40.2246 35.7558 40.142 35.9643C40.1255 36.0082 40.109 36.0521 40.087 36.0905C39.999 36.2991 39.9055 36.5131 39.812 36.7161C39.7955 36.749 39.779 36.7874 39.768 36.8203C39.6689 37.0343 39.5644 37.2483 39.4544 37.4623L39.4104 37.5446C39.3004 37.7641 39.1848 37.9781 39.0693 38.1921C39.0583 38.2141 39.0473 38.236 39.0308 38.258C38.9098 38.4775 38.7888 38.6915 38.6567 38.9055C38.6457 38.9219 38.6347 38.9384 38.6237 38.9548C38.4917 39.1688 38.3542 39.3883 38.2111 39.6023C38.2111 39.6133 38.2001 39.6243 38.1891 39.6298C38.0461 39.8493 37.8921 40.0687 37.7435 40.2882C37.6005 40.4913 37.4465 40.6943 37.2979 40.8918C37.2484 40.9577 37.1989 41.0235 37.1494 41.0839C37.0449 41.2156 36.9404 41.3527 36.8358 41.479C36.7753 41.5558 36.7093 41.6271 36.6433 41.7039C36.5443 41.8192 36.4453 41.9399 36.3462 42.0496C36.2747 42.1264 36.2087 42.2033 36.1372 42.2801C36.0382 42.3898 35.9391 42.4996 35.8401 42.6038C35.7686 42.6806 35.6971 42.7575 35.6201 42.8343C35.5211 42.9385 35.422 43.0428 35.3175 43.1416C35.2405 43.2184 35.1635 43.2897 35.092 43.3611C34.9874 43.4598 34.8829 43.5641 34.7784 43.6574C34.7014 43.7287 34.6244 43.8 34.5474 43.8714C34.4373 43.9701 34.3273 44.0689 34.2118 44.1622C34.1348 44.228 34.0578 44.2939 33.9862 44.3597C33.8652 44.4585 33.7442 44.5573 33.6232 44.656C33.5516 44.7164 33.4801 44.7713 33.4086 44.8316C33.2656 44.9414 33.1281 45.0456 32.985 45.1554C32.93 45.1993 32.8695 45.2432 32.8145 45.2816C32.6164 45.4297 32.4129 45.5724 32.2039 45.715C32.1763 45.7315 32.1488 45.7535 32.1213 45.7699C31.9453 45.8906 31.7638 46.0114 31.5822 46.1266C31.5107 46.1705 31.4392 46.2144 31.3677 46.2583C31.2246 46.3461 31.0926 46.4284 30.9496 46.5107C30.8671 46.5601 30.7791 46.6095 30.691 46.6588C30.658 46.6808 30.6195 46.6973 30.5865 46.7192C29.9484 47.0704 28.5291 47.8057 26.7907 48.4038C26.7797 48.4038 26.7632 48.4147 26.7522 48.4147C26.6752 48.4422 26.5927 48.4696 26.5101 48.497C26.4276 48.5245 26.3396 48.5519 26.2516 48.5794C26.1746 48.6013 26.0921 48.6287 26.015 48.6562C25.9215 48.6781 25.839 48.7056 25.7455 48.733C25.6685 48.7549 25.586 48.7769 25.5089 48.7988C25.4209 48.8208 25.3329 48.8482 25.2394 48.8702C25.1624 48.8921 25.0798 48.9086 25.0028 48.9305C24.9148 48.9525 24.8268 48.9689 24.7443 48.9909C24.6618 49.0074 24.5792 49.0293 24.4967 49.0458C24.4032 49.0677 24.3097 49.0842 24.2217 49.1006C24.1446 49.1171 24.0621 49.1336 23.9851 49.15C23.8916 49.1665 23.7981 49.1829 23.7046 49.1994C23.6275 49.2159 23.5505 49.2268 23.468 49.2433C23.3745 49.2543 23.281 49.2707 23.1819 49.2872C23.1049 49.2982 23.0279 49.3146 22.9509 49.3256C22.8519 49.3366 22.7584 49.3531 22.6593 49.364C22.5823 49.375 22.5053 49.386 22.4283 49.3969C22.3293 49.4079 22.2302 49.4189 22.1312 49.4299C22.0542 49.4408 21.9827 49.4463 21.9057 49.4573C21.8066 49.4683 21.7021 49.4738 21.6031 49.4793C21.5316 49.4847 21.4546 49.4902 21.3831 49.4957C21.2785 49.5067 21.1685 49.5122 21.064 49.5177C20.9925 49.5177 20.9265 49.5286 20.8549 49.5286C20.7394 49.5341 20.6184 49.5396 20.4974 49.5396C20.4424 49.5396 20.3818 49.5396 20.3268 49.5451C20.1453 49.5451 19.9693 49.5451 19.7987 49.5451C19.5732 49.5451 19.3476 49.5451 19.1221 49.5341C19.0616 49.5341 18.9956 49.5341 18.9295 49.5286C18.748 49.5231 18.572 49.5122 18.3959 49.5012C18.3464 49.5012 18.2914 49.4957 18.2419 49.4902C18.0218 49.4738 17.7963 49.4573 17.5762 49.4299C17.5322 49.4299 17.4827 49.4189 17.4332 49.4134C17.2517 49.3915 17.0756 49.375 16.8996 49.3476C16.8391 49.3421 16.7731 49.3311 16.7126 49.3201C16.5035 49.2927 16.2945 49.2598 16.0854 49.2214C16.0744 49.2214 16.0579 49.2214 16.0469 49.2159C15.8269 49.1775 15.6068 49.1336 15.3868 49.0897C15.3263 49.0787 15.2713 49.0622 15.2107 49.0513C15.0402 49.0128 14.8697 48.9744 14.6936 48.936C14.6441 48.9196 14.5891 48.9141 14.5341 48.8976C14.3196 48.8427 14.105 48.7879 13.8905 48.7275C13.852 48.7165 13.808 48.7056 13.7694 48.6946C13.5934 48.6452 13.4174 48.5903 13.2413 48.5355C13.1808 48.5135 13.1203 48.497 13.0598 48.4751C12.8728 48.4147 12.6857 48.3544 12.4987 48.2885C12.4712 48.2776 12.4492 48.2721 12.4217 48.2666C12.2126 48.1953 12.0091 48.1129 11.8 48.0361C11.7395 48.0142 11.6845 47.9922 11.6295 47.9648C11.5525 47.9374 11.4755 47.9044 11.3984 47.877C16.0414 51.6632 21.7846 53.7099 27.8909 53.7099" fill="#D2006E"/>
</g>
</svg>
