<svg width="24" height="24" viewBox="0 0 24 24" fill="none" xmlns="http://www.w3.org/2000/svg">
<g id="Isotipo">
<g id="Vector">
<path d="M11.824 0C9.40749 0 7.11764 0.713364 5.1767 2.04671C5.1767 2.04671 5.0268 2.14528 4.79162 2.32427C4.76836 2.34243 4.7451 2.35799 4.72184 2.37615C4.63138 2.4436 4.53317 2.52142 4.42721 2.60702C4.40911 2.62259 4.38844 2.63815 4.36776 2.65371C4.37035 2.65371 4.37035 2.65112 4.37293 2.65112C3.83278 3.09211 3.11946 3.74062 2.54829 4.50587H2.55088C0.899398 6.59667 0 9.16997 0 11.8678C0 14.921 1.15268 17.8211 3.2461 20.0364C3.29262 20.065 3.33656 20.0909 3.38308 20.1169C3.42701 20.1428 3.47095 20.1713 3.51489 20.1947C3.56399 20.2232 3.6131 20.2492 3.66479 20.2751C3.70872 20.301 3.75524 20.3244 3.80176 20.3477C3.85087 20.3737 3.90256 20.397 3.95166 20.423C3.99818 20.4463 4.0447 20.4697 4.09122 20.493C4.14033 20.5163 4.19202 20.5397 4.24371 20.563C4.29023 20.5838 4.33675 20.6071 4.38585 20.6279C4.43754 20.6486 4.48923 20.6694 4.54092 20.6901C4.59003 20.7109 4.63655 20.7317 4.68565 20.7498C4.73734 20.7706 4.78903 20.7887 4.84072 20.8095C4.88983 20.8276 4.93635 20.8484 4.98804 20.8639C5.03973 20.8821 5.094 20.9003 5.14569 20.9184C5.19479 20.9366 5.2439 20.9521 5.293 20.9677C5.34728 20.9859 5.39897 20.9988 5.45324 21.0144C5.50493 21.03 5.55404 21.0455 5.60314 21.0585C5.65742 21.0741 5.71169 21.087 5.76596 21.1026C5.81507 21.1156 5.86417 21.1285 5.91586 21.1415C5.97014 21.1545 6.027 21.1675 6.08127 21.1804C6.13037 21.1908 6.18207 21.2038 6.23117 21.2141C6.28544 21.2271 6.3423 21.2349 6.39916 21.2453C6.44827 21.2556 6.49737 21.266 6.54906 21.2738C6.60592 21.2842 6.66536 21.292 6.72222 21.2997C6.77133 21.3075 6.82043 21.3153 6.86954 21.3231C6.92898 21.3309 6.98842 21.3387 7.05045 21.3438C7.09955 21.349 7.14607 21.3568 7.1926 21.362C7.25462 21.3672 7.31923 21.3724 7.38385 21.3776C7.42778 21.3802 7.4743 21.3854 7.51824 21.3879C7.5906 21.3931 7.66555 21.3957 7.73792 21.3983C7.77152 21.4009 7.8077 21.4009 7.8413 21.4035C7.94984 21.4061 8.05839 21.4087 8.16694 21.4087C9.40491 21.4087 10.6093 21.1726 11.749 20.7083C13.0102 20.1921 14.1397 19.4165 15.0701 18.4281C15.3802 18.0987 15.6671 17.7485 15.9307 17.375C15.9953 17.2842 16.0573 17.1934 16.1168 17.1C16.1349 17.074 16.153 17.0455 16.1711 17.017C16.215 16.9495 16.2589 16.8795 16.3003 16.8094C16.3158 16.7809 16.3339 16.755 16.352 16.7264C16.4062 16.6331 16.4605 16.5397 16.5148 16.4437C16.52 16.4333 16.5251 16.4203 16.5329 16.41C16.5794 16.3244 16.6259 16.2362 16.6673 16.1506C16.6802 16.122 16.6957 16.0909 16.7112 16.0624C16.75 15.9845 16.7862 15.9093 16.8224 15.8315C16.8327 15.8081 16.8456 15.7848 16.8534 15.7589C16.8973 15.6629 16.9387 15.5669 16.9774 15.4709C16.75 15.7978 16.4864 16.1065 16.1943 16.3918C15.0184 17.5332 13.4677 18.1609 11.8317 18.1609C10.1958 18.1609 8.64507 17.5332 7.46913 16.3918C6.2932 15.253 5.61607 13.7251 5.55921 12.0935C5.55662 12.0416 5.55921 11.9897 5.55921 11.9404V11.8704C5.55921 11.7951 5.55921 11.7225 5.56179 11.6473H5.55921C5.56954 11.2063 5.60831 10.7679 5.67551 10.3373C5.67551 10.3347 5.67551 10.3321 5.67809 10.3295C5.6936 10.218 5.71428 10.109 5.73495 10.0001C5.74012 9.97672 5.7427 9.95597 5.74787 9.93262C5.76338 9.84702 5.78147 9.76141 5.80215 9.6784C5.81248 9.6343 5.82024 9.59021 5.83058 9.54611C5.8435 9.49423 5.85642 9.44234 5.86934 9.39046C5.88743 9.31523 5.90811 9.2426 5.92879 9.16737C5.94171 9.12846 5.95205 9.08696 5.96238 9.04805C5.98823 8.96504 6.01407 8.88203 6.03992 8.79902C6.05026 8.76789 6.06059 8.73676 6.07093 8.70563C6.09936 8.61744 6.13296 8.52664 6.16397 8.43845C6.17173 8.41251 6.18207 8.38916 6.1924 8.36322C6.226 8.26983 6.26477 8.17645 6.30095 8.08566C6.3087 8.0649 6.31646 8.04675 6.32679 8.02599C6.36556 7.93001 6.4095 7.83403 6.45085 7.74065C6.4586 7.72508 6.46636 7.70952 6.47153 7.69395C6.51805 7.59538 6.56198 7.4994 6.61109 7.40342L6.62918 7.3671C6.67828 7.26853 6.72997 7.16995 6.78425 7.07398C6.78942 7.0636 6.79459 7.05322 6.80234 7.04285C6.85661 6.94427 6.91347 6.8457 6.97033 6.74972C6.9755 6.74194 6.97808 6.73415 6.98584 6.72637C7.04528 6.6278 7.10731 6.52923 7.17192 6.43065C7.1745 6.42546 7.17709 6.42027 7.17967 6.41768C7.24428 6.31651 7.31148 6.21794 7.38126 6.11936C7.44587 6.02598 7.51307 5.93519 7.58285 5.8444C7.60611 5.81327 7.62937 5.78473 7.65005 5.7562C7.69657 5.69654 7.74309 5.63428 7.79219 5.57721C7.82062 5.54349 7.84905 5.50976 7.87748 5.47345C7.92142 5.42157 7.96535 5.36709 8.00929 5.31521C8.0403 5.27889 8.07132 5.24517 8.10491 5.21145C8.14885 5.16216 8.19279 5.11287 8.23931 5.06359C8.2729 5.02727 8.30392 4.99355 8.33752 4.95983C8.38404 4.91313 8.42797 4.86644 8.47449 4.81975C8.50809 4.78602 8.54169 4.7523 8.57787 4.71858C8.62439 4.67189 8.6735 4.62779 8.72002 4.58369C8.75362 4.54996 8.7898 4.51884 8.8234 4.48771C8.8725 4.44361 8.92419 4.39951 8.9733 4.35541C9.0069 4.32428 9.04308 4.29575 9.07668 4.26462C9.13095 4.22052 9.18523 4.17383 9.2395 4.12973C9.27051 4.10379 9.30411 4.07525 9.33771 4.04931C9.39974 4.00003 9.46435 3.95074 9.52896 3.90145C9.55481 3.88329 9.58065 3.86254 9.60649 3.84438C9.69695 3.77694 9.78999 3.71209 9.88045 3.64723C9.89337 3.63945 9.90629 3.63167 9.91663 3.62389C9.99675 3.56941 10.0795 3.51494 10.1622 3.46306C10.1932 3.4423 10.2268 3.42155 10.2604 3.40339C10.3224 3.36448 10.3844 3.32557 10.449 3.28666C10.4878 3.26331 10.5266 3.24256 10.5653 3.21922C10.5808 3.21144 10.5963 3.20106 10.6119 3.19328C10.8987 3.03244 11.5423 2.69781 12.3279 2.42544C12.3331 2.42284 12.3409 2.42025 12.346 2.42025C12.3822 2.40728 12.4184 2.3969 12.4546 2.38393C12.4934 2.37096 12.5321 2.35799 12.5709 2.34762C12.6071 2.33724 12.6433 2.32427 12.6794 2.31389C12.7208 2.30352 12.7596 2.29055 12.8009 2.28017C12.8371 2.26979 12.8707 2.25942 12.9069 2.25164C12.9456 2.24126 12.987 2.23088 13.0283 2.22051C13.0645 2.21013 13.0981 2.20235 13.1343 2.19197C13.1731 2.1816 13.2118 2.17381 13.2506 2.16344C13.2868 2.15566 13.3256 2.14528 13.3617 2.1375C13.4031 2.12712 13.4444 2.11934 13.4858 2.11156C13.522 2.10377 13.5582 2.09599 13.5918 2.0908C13.6331 2.08302 13.677 2.07524 13.7184 2.06746C13.7546 2.05968 13.7882 2.05449 13.8244 2.0493C13.8657 2.04411 13.9096 2.03633 13.9536 2.02855C13.9872 2.02336 14.0234 2.01817 14.057 2.01298C14.1009 2.0078 14.1448 2.00001 14.1888 1.99483C14.2224 1.98964 14.2585 1.98445 14.2921 1.98185C14.3361 1.97667 14.3826 1.97148 14.4265 1.96888C14.4601 1.9637 14.4937 1.9611 14.5273 1.95851C14.5739 1.95332 14.6204 1.95073 14.6643 1.94813C14.6979 1.94554 14.7315 1.94294 14.7651 1.94035C14.8142 1.93776 14.8607 1.93516 14.9098 1.92997C14.9409 1.92738 14.9719 1.92738 15.0029 1.92479C15.0572 1.92219 15.1088 1.9196 15.1631 1.9196C15.189 1.9196 15.2148 1.917 15.2406 1.917C15.3208 1.91441 15.4009 1.91441 15.481 1.91441C15.5818 1.91441 15.6852 1.917 15.786 1.9196C15.8144 1.9196 15.8428 1.92219 15.8713 1.92219C15.9514 1.92479 16.0315 1.92997 16.1116 1.93516C16.1349 1.93776 16.1581 1.93776 16.1814 1.94035C16.2822 1.94813 16.383 1.95591 16.4838 1.96629C16.5045 1.96888 16.5277 1.97148 16.5484 1.97407C16.6311 1.98185 16.7112 1.99223 16.7913 2.00261C16.8198 2.0052 16.8482 2.01039 16.8766 2.01298C16.9722 2.02595 17.0653 2.04152 17.1583 2.05708C17.1635 2.05968 17.1687 2.05968 17.1764 2.05968C17.2772 2.07784 17.3754 2.09599 17.4736 2.11675C17.4995 2.12193 17.5279 2.12712 17.5538 2.1349C17.6313 2.15306 17.7088 2.17122 17.7864 2.18678C17.8096 2.19457 17.8329 2.19716 17.8587 2.20494C17.9569 2.22829 18.0526 2.25423 18.1508 2.28017C18.1689 2.28536 18.187 2.29055 18.205 2.29573C18.2852 2.31908 18.3653 2.34243 18.4428 2.36837C18.4712 2.37615 18.4971 2.38653 18.5255 2.39431C18.6108 2.42025 18.6961 2.45138 18.7788 2.47991C18.7891 2.4851 18.8021 2.48769 18.8124 2.49029C18.9054 2.52401 18.9985 2.56033 19.0915 2.59665C19.1174 2.60702 19.1432 2.6174 19.1691 2.62777C19.2052 2.64074 19.2388 2.65371 19.2724 2.66928C17.179 0.931264 14.5816 0 11.824 0Z" fill="white"/>
<path d="M12.176 24.0003C14.5925 24.0003 16.8823 23.287 18.8233 21.9536C18.8233 21.9536 18.9732 21.855 19.2084 21.676C19.2316 21.6579 19.2549 21.6397 19.2782 21.6242C19.3686 21.5567 19.4668 21.4789 19.5728 21.3933C19.5909 21.3777 19.6116 21.3622 19.6322 21.3466C19.6296 21.3466 19.6296 21.3492 19.6271 21.3492C20.1672 20.9082 20.8805 20.2597 21.4517 19.497H21.4491C23.1006 17.4062 24 14.8329 24 12.1351C24 9.08194 22.8473 6.18179 20.7539 3.96647C20.7074 3.93793 20.6634 3.91199 20.6169 3.88605C20.573 3.86011 20.529 3.83417 20.4825 3.80823C20.4334 3.7797 20.3817 3.75376 20.3326 3.72782C20.2887 3.70188 20.2422 3.67853 20.1956 3.65518C20.1465 3.62924 20.0949 3.6059 20.0457 3.57996C19.9992 3.55661 19.9527 3.53326 19.9062 3.50992C19.8545 3.48657 19.8054 3.46322 19.7537 3.43988C19.7072 3.41912 19.6607 3.39578 19.6116 3.37503C19.5599 3.35427 19.5082 3.33352 19.4565 3.31277C19.4074 3.29201 19.3609 3.27126 19.3118 3.25311C19.2601 3.23235 19.2084 3.21419 19.1567 3.19344C19.1076 3.17528 19.0611 3.15453 19.0094 3.13897C18.9577 3.12081 18.9034 3.10265 18.8517 3.08449C18.8026 3.06633 18.7535 3.05077 18.7044 3.0352C18.6527 3.01705 18.5984 3.00408 18.5442 2.98851C18.4925 2.97295 18.4434 2.95738 18.3943 2.94441C18.34 2.92885 18.2857 2.91588 18.2314 2.90291C18.1823 2.88994 18.1307 2.87697 18.0815 2.864C18.0273 2.85103 17.9704 2.83806 17.9161 2.82509C17.867 2.81471 17.8153 2.80174 17.7662 2.79136C17.712 2.77839 17.6551 2.77061 17.5983 2.76024C17.5491 2.74986 17.5 2.73948 17.4484 2.7317C17.3915 2.72132 17.3321 2.71354 17.2752 2.70576C17.2261 2.69798 17.177 2.6902 17.1279 2.68241C17.0684 2.67463 17.009 2.66685 16.9495 2.66166C16.9004 2.65647 16.8539 2.64869 16.8074 2.6435C16.7454 2.63832 16.6808 2.63313 16.6187 2.62794C16.5748 2.62534 16.5283 2.62016 16.4843 2.61756C16.412 2.61237 16.337 2.60978 16.2647 2.60719C16.2285 2.60459 16.1949 2.602 16.1613 2.602C16.0527 2.5994 15.9442 2.59681 15.8356 2.59681C14.5977 2.59681 13.3933 2.83287 12.2561 3.2972C10.9949 3.81342 9.8655 4.58904 8.93509 5.57737C8.62496 5.90682 8.33808 6.25701 8.07446 6.63056C8.00985 6.72135 7.94782 6.81214 7.88838 6.90553C7.87029 6.93147 7.8522 6.96 7.83411 6.98854C7.79017 7.05598 7.74623 7.12602 7.70488 7.19606C7.68937 7.2246 7.67128 7.25054 7.65319 7.27907C7.59892 7.37246 7.54464 7.46584 7.49295 7.56182C7.48779 7.5722 7.48262 7.58517 7.47486 7.59554C7.42834 7.68115 7.38441 7.76935 7.34047 7.85495C7.32755 7.88348 7.31204 7.91461 7.29654 7.94315C7.25777 8.02097 7.22158 8.0962 7.18799 8.17402C7.17765 8.19736 7.16473 8.22071 7.15697 8.24665C7.11304 8.34263 7.07169 8.43861 7.03292 8.53459C7.26035 8.20774 7.52397 7.89905 7.81601 7.6137C8.99195 6.47232 10.5426 5.84456 12.176 5.84456C13.812 5.84456 15.3627 6.47232 16.5386 7.6137C17.712 8.75249 18.3917 10.2804 18.446 11.912C18.4485 11.9639 18.446 12.0158 18.446 12.0651V12.1351C18.446 12.2104 18.446 12.283 18.4434 12.3582H18.446C18.4356 12.7992 18.3969 13.2376 18.3297 13.6682C18.3297 13.6708 18.3297 13.6734 18.3271 13.676C18.309 13.7875 18.2909 13.8965 18.2702 14.0054C18.265 14.0288 18.2625 14.0495 18.2573 14.0729C18.2418 14.1585 18.2237 14.2441 18.203 14.3271C18.1927 14.3712 18.1849 14.4153 18.1746 14.4594C18.1617 14.5113 18.1487 14.5632 18.1358 14.615C18.1177 14.6903 18.0971 14.7629 18.0764 14.8381C18.0635 14.877 18.0531 14.9185 18.0428 14.9575C18.0169 15.0405 17.9911 15.1235 17.9652 15.2065C17.9549 15.2376 17.9446 15.2687 17.9342 15.2999C17.9058 15.3881 17.8748 15.4789 17.8412 15.5671C17.8334 15.593 17.8231 15.6163 17.8128 15.6423C17.7792 15.7357 17.7404 15.8291 17.7042 15.9199C17.6965 15.9406 17.6887 15.9588 17.6784 15.9795C17.6396 16.0755 17.5957 16.1715 17.5543 16.2649C17.5466 16.2804 17.5388 16.296 17.5336 16.3116C17.4871 16.4101 17.4406 16.5061 17.3941 16.6021L17.376 16.6384C17.3269 16.737 17.2752 16.8356 17.2209 16.9315C17.2157 16.9419 17.2106 16.9523 17.2028 16.9627C17.1486 17.0612 17.0917 17.1598 17.0348 17.2558C17.0297 17.2636 17.0271 17.2714 17.0219 17.2791C16.9625 17.3777 16.9004 17.4763 16.8358 17.5749C16.8332 17.58 16.8307 17.5852 16.8281 17.5878C16.7635 17.689 16.6963 17.7876 16.6265 17.8861C16.5619 17.9795 16.4947 18.0703 16.4249 18.1611C16.4042 18.1922 16.381 18.2208 16.3577 18.2493C16.3112 18.309 16.2647 18.3712 16.2156 18.4283C16.1871 18.4646 16.1587 18.4957 16.1303 18.5321C16.0863 18.5839 16.0398 18.6384 15.9985 18.6903C15.9674 18.7266 15.9364 18.7603 15.9054 18.7941C15.8615 18.8433 15.8175 18.8926 15.771 18.9419C15.7374 18.9782 15.7064 19.012 15.6728 19.0457C15.6263 19.0924 15.5824 19.1391 15.5358 19.1858C15.5022 19.2195 15.4686 19.2532 15.4325 19.2869C15.3859 19.3336 15.3368 19.3777 15.2903 19.4218C15.2541 19.4555 15.2205 19.4867 15.1869 19.5178C15.1352 19.5619 15.0861 19.606 15.0345 19.6501C15.0009 19.6812 14.9647 19.7098 14.9311 19.7409C14.8768 19.785 14.8225 19.8317 14.7682 19.8758C14.7372 19.9017 14.7036 19.9303 14.67 19.9562C14.608 20.0055 14.5434 20.0548 14.4788 20.1041C14.4529 20.1222 14.4271 20.143 14.4013 20.1611C14.3108 20.2286 14.2178 20.2934 14.1273 20.3583C14.1144 20.3661 14.1015 20.3738 14.0911 20.3816C14.011 20.4361 13.9283 20.4906 13.8456 20.5424C13.8146 20.5632 13.781 20.584 13.7474 20.6021C13.6828 20.641 13.6233 20.6799 13.5587 20.7188C13.5199 20.7422 13.4812 20.7629 13.4424 20.7863C13.4269 20.7941 13.4114 20.8044 13.3959 20.8122C13.109 20.9731 12.4655 21.3077 11.6798 21.5801C11.6746 21.5827 11.6669 21.5853 11.6617 21.5853C11.6255 21.5982 11.5893 21.6086 11.5532 21.6216C11.5144 21.6345 11.4756 21.6475 11.4369 21.6579C11.4007 21.6683 11.3645 21.6812 11.3309 21.6916C11.2895 21.702 11.2508 21.715 11.2094 21.7253C11.1732 21.7357 11.1396 21.7461 11.1035 21.7539C11.0647 21.7642 11.0233 21.7746 10.982 21.785C10.9458 21.7954 10.9096 21.8032 10.876 21.8135C10.8373 21.8239 10.7985 21.8317 10.7597 21.8421C10.721 21.8498 10.6848 21.8602 10.6486 21.868C10.6072 21.8784 10.5659 21.8862 10.5245 21.8939C10.4884 21.9017 10.4522 21.9095 10.4186 21.9147C10.3772 21.9225 10.3333 21.9303 10.2919 21.9381C10.2558 21.9458 10.2222 21.951 10.186 21.9562C10.1446 21.9614 10.1007 21.9692 10.0568 21.977C10.0232 21.9821 9.98697 21.9873 9.95338 21.9925C9.90944 21.9977 9.8655 22.0029 9.82157 22.0107C9.78797 22.0159 9.75179 22.0211 9.71819 22.0237C9.67425 22.0288 9.63031 22.034 9.58638 22.0366C9.55278 22.0418 9.51918 22.0444 9.483 22.047C9.43648 22.0522 9.38996 22.0548 9.34602 22.0574C9.31242 22.06 9.27883 22.0626 9.24781 22.0652C9.19871 22.0703 9.15219 22.0729 9.10308 22.0755C9.07207 22.0781 9.04106 22.0807 9.01004 22.0807C8.95577 22.0833 8.90408 22.0859 8.8498 22.0859C8.82396 22.0859 8.79812 22.0885 8.77227 22.0885C8.69215 22.0911 8.61203 22.0911 8.53191 22.0911C8.43112 22.0911 8.32774 22.0911 8.22695 22.0859C8.19852 22.0859 8.17009 22.0833 8.14166 22.0833C8.06154 22.0807 7.98142 22.0755 7.9013 22.0703C7.87804 22.0678 7.85478 22.0678 7.83152 22.0652C7.73073 22.0574 7.62993 22.0496 7.52914 22.0392C7.50846 22.0366 7.4852 22.034 7.46453 22.0314C7.38182 22.0237 7.30171 22.0133 7.22159 22.0029C7.19316 22.0003 7.16473 21.9951 7.1363 21.9925C7.04067 21.9796 6.94763 21.964 6.85459 21.9484C6.84942 21.9458 6.84425 21.9458 6.8365 21.9458C6.73829 21.9277 6.63749 21.9095 6.53928 21.8888C6.51344 21.8836 6.48501 21.8758 6.45917 21.8706C6.38163 21.8524 6.3041 21.8369 6.22656 21.8187C6.2033 21.8135 6.18004 21.8083 6.15678 21.8006C6.05857 21.7772 5.96295 21.7513 5.86474 21.7253C5.84665 21.7201 5.82855 21.715 5.81046 21.7098C5.73034 21.6864 5.65022 21.6631 5.57269 21.6371C5.54426 21.6294 5.51842 21.6216 5.48999 21.6112C5.4047 21.5827 5.31941 21.5541 5.23671 21.5256C5.22637 21.5204 5.21345 21.5178 5.20311 21.5152C5.11007 21.4815 5.01703 21.4452 4.92399 21.4089C4.89814 21.3985 4.8723 21.3881 4.84645 21.3777C4.81027 21.3648 4.77667 21.3518 4.74307 21.3362C6.81841 23.0691 9.4158 24.0003 12.176 24.0003Z" fill="white"/>
</g>
</g>
</svg>
