<svg width="20" height="14" viewBox="0 0 20 14" fill="none"
    xmlns="http://www.w3.org/2000/svg">
    <path fill-rule="evenodd" clip-rule="evenodd" d="M0 1.5835C0 0.89314 0.559644 0.333496 1.25 0.333496H18.75C19.4404 0.333496 20 0.89314 20 1.5835C20 2.27385 19.4404 2.8335 18.75 2.8335H1.25C0.559644 2.8335 0 2.27385 0 1.5835ZM0 7.00016C0 6.30981 0.559644 5.75016 1.25 5.75016H18.75C19.4404 5.75016 20 6.30981 20 7.00016C20 7.69052 19.4404 8.25016 18.75 8.25016H1.25C0.559644 8.25016 0 7.69052 0 7.00016ZM0 12.4168C0 11.7265 0.559644 11.1668 1.25 11.1668H18.75C19.4404 11.1668 20 11.7265 20 12.4168C20 13.1072 19.4404 13.6668 18.75 13.6668H1.25C0.559644 13.6668 0 13.1072 0 12.4168Z" fill="#121212"/>
</svg>
