<svg width="24" height="24" viewBox="0 0 24 24" fill="none"
    xmlns="http://www.w3.org/2000/svg">
    <g clip-path="url(#clip0_18315_90630)">
        <path d="M15.3779 18.0589L13.4233 21.2795C13.2456 21.6016 12.8014 21.6821 12.4904 21.521C12.2683 21.4003 12.135 21.199 12.135 20.9977L12.0018 17.294C11.9573 16.4083 12.757 15.6434 13.7342 15.6032C14.7115 15.5629 15.5556 16.2875 15.6 17.1732C15.6 17.5355 15.5112 17.8173 15.3779 18.0589Z" fill="#160F41"/>
        <path fill-rule="evenodd" clip-rule="evenodd" d="M22.6337 12.0988C22.5166 12.3103 22.3466 12.4675 22.1542 12.5863C21.776 12.8196 21.3096 12.9015 20.9992 12.9015C20.8335 12.9015 20.6992 13.0359 20.6992 13.2015C20.6992 13.3672 20.8335 13.5015 20.9992 13.5015C21.3888 13.5015 21.9724 13.4035 22.4693 13.0968C22.8603 12.8555 23.1956 12.4843 23.3329 11.9498C23.5519 11.86 23.743 11.7437 23.8792 11.6416C24.0118 11.5421 24.0386 11.3541 23.9392 11.2216C23.8398 11.089 23.6518 11.0621 23.5192 11.1616C23.4823 11.1892 23.4405 11.2178 23.3949 11.2462C23.3714 10.83 23.2509 10.5087 23.0363 10.3003C22.7865 10.0579 22.462 10.0195 22.188 10.1017C21.9216 10.1816 21.6831 10.3789 21.5612 10.643C21.4334 10.9199 21.4414 11.2556 21.6496 11.568C21.9117 11.9611 22.2797 12.0966 22.6337 12.0988ZM22.7973 11.4853C22.7927 11.4861 22.7881 11.4868 22.7834 11.4876C22.5234 11.5277 22.3063 11.4714 22.1488 11.2351C22.0571 11.0975 22.065 10.9832 22.106 10.8945C22.1528 10.7929 22.2518 10.709 22.3604 10.6764C22.4614 10.6461 22.5495 10.664 22.6184 10.7309C22.6965 10.8067 22.7992 10.9936 22.7992 11.4015C22.7992 11.43 22.7986 11.4579 22.7973 11.4853Z" fill="#FFA9ED"/>
        <path fill-rule="evenodd" clip-rule="evenodd" d="M23.1581 11.4063C23.3205 11.4388 23.4259 11.5968 23.3934 11.7593C23.2519 12.4669 22.8052 12.9081 22.3259 13.1649C21.8545 13.4174 21.339 13.5004 20.9992 13.5004C20.8335 13.5004 20.6992 13.3661 20.6992 13.2004C20.6992 13.0348 20.8335 12.9004 20.9992 12.9004C21.2595 12.9004 21.6739 12.8335 22.0426 12.636C22.4032 12.4428 22.7066 12.134 22.805 11.6416C22.8375 11.4791 22.9956 11.3738 23.1581 11.4063Z" fill="url(#paint0_linear_18315_90630)"/>
        <path fill-rule="evenodd" clip-rule="evenodd" d="M23.3346 11.9498C23.5537 11.86 23.7448 11.7437 23.881 11.6416C24.0135 11.5421 24.0404 11.3541 23.941 11.2216C23.8415 11.089 23.6535 11.0621 23.521 11.1616C23.4841 11.1892 23.4423 11.2178 23.3967 11.2462C23.3732 10.83 23.2527 10.5087 23.038 10.3003C22.7882 10.0579 22.4637 10.0195 22.1898 10.1017C21.9234 10.1816 21.6848 10.3789 21.5629 10.643C21.4351 10.9199 21.4431 11.2556 21.6513 11.568C21.9134 11.9611 22.2814 12.0966 22.6355 12.0988C22.7748 12.0946 23.1096 12.059 23.3346 11.9498ZM22.7852 11.4876L22.7991 11.4853C22.8003 11.4579 22.801 11.43 22.801 11.4016C22.801 10.9936 22.6982 10.8067 22.6201 10.7309C22.5512 10.664 22.4632 10.6461 22.3622 10.6764C22.2535 10.709 22.1546 10.7929 22.1077 10.8945C22.0668 10.9832 22.0588 11.0975 22.1506 11.2351C22.3081 11.4714 22.5252 11.5277 22.7852 11.4876Z" fill="#FFA9ED"/>
        <path d="M14.1429 19.8008H7.45714C3.34286 19.8008 0 16.4387 0 12.3008C0 8.16285 3.34286 4.80078 7.45714 4.80078H14.1429C18.2571 4.80078 21.6 8.16285 21.6 12.3008C21.6 16.4387 18.2571 19.8008 14.1429 19.8008Z" fill="#FFA9ED"/>
        <path d="M19.2008 17.4004L19.0917 20.9887C19.0917 21.3557 18.8371 21.6004 18.5099 21.6004C18.2917 21.6004 18.1099 21.4781 18.0371 21.2742L16.8008 18.746" fill="#FC8BE7"/>
        <path d="M4.80039 18.5861L3.57143 21.2458C3.42246 21.6004 3.05005 21.689 2.78936 21.5117C2.60315 21.3788 2.49143 21.1571 2.49143 20.9355C2.49143 20.5809 2.45418 20.1819 2.45418 19.8273C2.45418 19.2067 2.41694 18.5861 2.41694 17.9656C2.41694 17.7883 2.3797 17.5666 2.41694 17.4336C2.45418 17.3893 2.56591 17.3893 2.64039 17.4336" fill="#FFA9ED"/>
        <path d="M6.59922 18.6016C4.19922 18.6016 1.99922 17.2016 1.19922 16.5016C3.11922 19.1416 5.99922 19.8016 7.19922 19.8016H14.3992C19.9192 19.8016 21.5992 15.0016 21.5992 12.6016C20.3992 17.1616 15.8992 18.5016 13.7992 18.6016H6.59922Z" fill="#FC8BE7"/>
        <path d="M10.2008 18L10.1234 20.8286C10.1234 21.2914 9.85239 21.6 9.50401 21.6C9.27175 21.6 9.0782 21.4457 9.00078 21.1886L7.80078 18.2057" fill="#FFA9ED"/>
        <path fill-rule="evenodd" clip-rule="evenodd" d="M6.94981 12.8469C6.94981 13.5044 6.17839 14.0742 5.27839 14.0742C5.27557 14.0742 5.27276 14.0742 5.26995 14.0742H4.7641L4.76825 14.0572C3.57395 13.9685 3.58722 13.5425 3.60318 13.0303C3.60505 12.9702 3.60696 12.909 3.60696 12.8469C3.60696 12.8179 3.60679 12.7886 3.60662 12.7591V12.7591C3.60339 12.1936 3.59979 11.5629 4.76931 11.4271L4.7641 11.4004H5.27838H5.27839C6.22124 11.4004 6.94981 12.1894 6.94981 12.8469Z" fill="#FF66E2"/>
        <path d="M6.34286 12.8469C6.34286 13.5044 5.57143 14.0742 4.67143 14.0742C3.77143 14.0742 3 13.5044 3 12.8469C3 12.1894 3.77143 11.4004 4.67143 11.4004C5.57143 11.4004 6.34286 12.1894 6.34286 12.8469Z" fill="#FC8BE7"/>
        <path fill-rule="evenodd" clip-rule="evenodd" d="M6.54212 10.5134C6.47442 10.6075 6.45039 10.7248 6.45039 10.8008C6.45039 10.8836 6.38323 10.9508 6.30039 10.9508C6.21755 10.9508 6.15039 10.8836 6.15039 10.8008C6.15039 10.6768 6.18636 10.4941 6.29866 10.3381C6.41647 10.1745 6.6115 10.0508 6.90039 10.0508C7.18928 10.0508 7.38431 10.1745 7.50212 10.3381C7.61442 10.4941 7.65039 10.6768 7.65039 10.8008C7.65039 10.8836 7.58323 10.9508 7.50039 10.9508C7.41755 10.9508 7.35039 10.8836 7.35039 10.8008C7.35039 10.7248 7.32636 10.6075 7.25866 10.5134C7.19647 10.4271 7.0915 10.3508 6.90039 10.3508C6.70928 10.3508 6.60431 10.4271 6.54212 10.5134Z" fill="#160F41"/>
        <path fill-rule="evenodd" clip-rule="evenodd" d="M2.94251 10.5134C2.87481 10.6075 2.85078 10.7248 2.85078 10.8008C2.85078 10.8836 2.78362 10.9508 2.70078 10.9508C2.61794 10.9508 2.55078 10.8836 2.55078 10.8008C2.55078 10.6768 2.58675 10.4941 2.69905 10.3381C2.81686 10.1745 3.01189 10.0508 3.30078 10.0508C3.58967 10.0508 3.7847 10.1745 3.90251 10.3381C4.01481 10.4941 4.05078 10.6768 4.05078 10.8008C4.05078 10.8836 3.98362 10.9508 3.90078 10.9508C3.81794 10.9508 3.75078 10.8836 3.75078 10.8008C3.75078 10.7248 3.72675 10.6075 3.65905 10.5134C3.59686 10.4271 3.49189 10.3508 3.30078 10.3508C3.10967 10.3508 3.0047 10.4271 2.94251 10.5134Z" fill="#160F41"/>
        <path d="M14.6818 6.01406H6.91745C6.73583 6.01406 6.59961 5.88256 6.59961 5.70722C6.59961 5.53189 6.73583 5.40039 6.91745 5.40039H14.6818C14.8634 5.40039 14.9996 5.53189 14.9996 5.70722C14.9996 5.88256 14.8634 6.01406 14.6818 6.01406Z" fill="#160F41"/>
        <path d="M13.6701 6.00039C13.6701 5.95109 13.6701 5.95109 13.6701 5.90179C13.6701 3.97909 13.6245 2.50008 10.4347 2.40148C8.65745 2.35218 7.19922 3.97909 7.19922 5.90179C7.19922 5.95109 7.19922 5.95109 7.19922 6.00039H13.6701Z" fill="#FFDC00"/>
        <path d="M14.4006 5.9993C14.4006 5.95 14.4006 5.95 14.4006 5.9007C14.4006 3.97799 12.9423 2.40039 11.1651 2.40039C9.38792 2.40039 7.92969 3.97799 7.92969 5.9007C7.92969 5.95 7.92969 5.95 7.92969 5.9993H14.4006Z" fill="#FCE67A"/>
        <path d="M14.3988 6.0005C14.3988 5.9512 14.3988 5.9512 14.3988 5.9019C14.3988 4.7187 13.852 3.7327 13.0773 3.0918L11.0723 6.0005H14.3988Z" fill="#FFDC00"/>
        <path d="M9.5305 6.14133C10.7307 6.83718 10.5566 7.56152 10.4501 8.04818C10.4113 8.19199 10.4301 8.11465 10.3322 8.50308C10.045 9.2064 9.27321 8.96366 9.05909 8.74797C8.91474 8.59203 8.42923 8.23647 7.64199 8.06179C6.85476 7.8871 6.98138 7.2544 7.1431 6.95988L7.44455 6.42186C7.63977 6.03841 8.33027 5.44548 9.5305 6.14133Z" fill="#FC8BE7"/>
        <path d="M1.51814 6.34127C0.133343 6.93475 0.281714 7.90741 0.528999 8.31955C0.665487 8.67662 1.02356 9.0614 1.51813 8.81412L3.00184 8.07226C3.49641 7.82498 3.99098 7.57769 3.74369 7.33041C3.54586 7.13258 3.49641 6.58855 3.49641 6.34127C3.41398 6.09398 2.90294 5.74778 1.51814 6.34127Z" fill="#FC8BE7"/>
        <path fill-rule="evenodd" clip-rule="evenodd" d="M0.0857143 21.6011H21.2143C21.3 21.6011 21.3 21.5573 21.3 21.5134C21.3 21.4696 21.2571 21.4258 21.2143 21.4258H0.0857143C0.0428571 21.4258 0 21.4696 0 21.5134C0 21.5573 0.0428571 21.6011 0.0857143 21.6011ZM22.1143 21.6011H23.9143C23.9571 21.6011 24 21.5573 24 21.5134C24 21.4696 23.9571 21.4258 23.9143 21.4258H22.1143C22.0714 21.4258 22.0286 21.4696 22.0286 21.5134C22.0286 21.5573 22.0714 21.6011 22.1143 21.6011Z" fill="#160F41"/>
        <rect x="5.09961" y="12.1504" width="0.3" height="0.900001" rx="0.15" fill="#E742C8"/>
        <rect x="3.90039" y="12.1504" width="0.3" height="0.900001" rx="0.15" fill="#E742C8"/>
    </g>
    <defs>
        <linearGradient id="paint0_linear_18315_90630" x1="23.0992" y1="11.7004" x2="21.8992" y2="13.2004" gradientUnits="userSpaceOnUse">
            <stop stop-color="#FF6EE4"/>
            <stop offset="1" stop-color="#FF6EE4" stop-opacity="0"/>
        </linearGradient>
        <clipPath id="clip0_18315_90630">
            <rect width="24" height="24" fill="white"/>
        </clipPath>
    </defs>
</svg>
