<svg width="21" height="24" viewBox="0 0 21 24" fill="none"
    xmlns="http://www.w3.org/2000/svg">
    <path d="M1.9375 17.7192C4.83544 22.5905 8.21271 24.0004 8.21271 24.0004C13.1129 22.65 15.7318 20.0793 17.0965 18.0392C17.9089 16.8247 18.4313 15.4397 18.6524 13.9953L20.0685 4.74589L18.6906 3.33594L3.29216 13.1549L1.9375 17.7192Z" fill="#160F41"/>
    <path opacity="0.25" d="M1.9375 17.7192C4.83544 22.5905 8.21271 24.0004 8.21271 24.0004C13.1129 22.65 15.7318 20.0793 17.0965 18.0392C17.9089 16.8247 18.4313 15.4397 18.6524 13.9953L20.0685 4.74589L18.6906 3.33594L3.29216 13.1549L1.9375 17.7192Z" fill="url(#paint0_linear_18315_90637)"/>
    <path d="M1.25797 1.75382C1.25797 1.75382 6.6597 2.38516 9.92184 0C9.92184 0 12.7981 3.33701 18.6909 3.33461L17.2749 12.5841C17.0538 14.0284 16.5313 15.4135 15.7189 16.628C14.3542 18.6681 11.7353 21.2387 6.83514 22.5892C6.83514 22.5892 2.50987 20.1628 0.559931 14.9671C0.049419 13.6069 -0.113173 12.1403 0.0769637 10.6999L1.25797 1.75382Z" fill="#D2006E"/>
    <g opacity="0.25">
        <path d="M9.92118 0C6.65911 2.38516 1.25731 1.75382 1.25731 1.75382L0.0763699 10.6999C-0.00324309 11.3027 -0.0201414 11.9101 0.0234775 12.5124L11.3408 1.19502C10.3914 0.545408 9.92118 0 9.92118 0Z" fill="url(#paint1_linear_18315_90637)"/>
        <path d="M2.04102 17.8762C4.13609 21.0735 6.83497 22.588 6.83497 22.588C11.7351 21.2376 14.354 18.6669 15.7187 16.6268C16.5311 15.4123 17.0536 14.0273 17.2747 12.5829L18.6908 3.3335C17.989 3.33378 17.3306 3.28624 16.7141 3.20312L2.04102 17.8762Z" fill="url(#paint2_linear_18315_90637)"/>
    </g>
    <path d="M7.18192 20.5961L7.14441 20.5746C7.10958 20.5547 3.64247 18.5331 2.09136 14.319C1.68161 13.2057 1.54643 11.9882 1.7005 10.7981L2.656 3.41794L2.75732 3.43002C2.79984 3.43497 7.05772 3.91588 9.59716 2.02275L9.67479 1.96484L9.73736 2.03876C9.7601 2.06554 12.0591 4.71551 16.6513 4.71551C16.653 4.71551 16.6546 4.71551 16.6562 4.71551L16.7759 4.71544L15.6282 12.3598C15.448 13.5602 15.0132 14.7122 14.3708 15.6914C13.3123 17.3047 11.2131 19.4634 7.2234 20.5845L7.18192 20.5961ZM2.83446 3.64475L1.90493 10.8245C1.75511 11.9818 1.88645 13.1655 2.28479 14.2477C3.72366 18.1572 6.8375 20.147 7.21029 20.374C11.1111 19.2668 13.1631 17.1566 14.1986 15.5783C14.8247 14.6238 15.2486 13.5003 15.4244 12.3292L16.5367 4.92096C12.3463 4.88147 10.0506 2.67113 9.64504 2.24297C7.25748 3.95902 3.49842 3.70506 2.83446 3.64475Z" fill="#D2006E"/>
    <path d="M7.26472 20.1796L7.25263 20.1727C7.21932 20.1537 3.90154 18.219 2.41623 14.1835C2.02531 13.1214 1.89638 11.9599 2.04337 10.8246L2.95504 3.78294L2.98753 3.78678C3.02895 3.79173 7.15406 4.25828 9.62117 2.41901L9.64611 2.40039L9.66616 2.42416C9.68821 2.45019 11.9183 5.02508 16.3742 5.02508C16.3758 5.02508 16.3774 5.02508 16.379 5.02508H16.4175L15.3237 12.31C15.1515 13.4564 14.7363 14.5567 14.123 15.4915C13.11 17.0356 11.1001 19.1019 7.27805 20.1759L7.26472 20.1796ZM3.01226 3.85602L2.10897 10.833C1.96328 11.9578 2.09105 13.1085 2.47826 14.1607C3.9104 18.0516 7.05473 19.9782 7.27372 20.1083C11.0675 19.0389 13.062 16.9882 14.0678 15.4553C14.6759 14.5283 15.0875 13.4373 15.2582 12.3002L16.3407 5.09116C12.1019 5.07914 9.87148 2.74968 9.63628 2.4901C7.2628 4.23781 3.40703 3.89628 3.01226 3.85602Z" fill="#9FDCEE"/>
    <path d="M12.7888 10.107V10.1065L12.3146 9.73311L12.2181 9.95924L5.76301 9.2557C5.41811 9.21813 5.10811 9.4672 5.07054 9.8121L4.52513 14.8166L4.19727 15.0944L4.69857 15.5073C4.72241 15.5301 4.74769 15.5514 4.77496 15.5703L4.7753 15.5705L4.77537 15.5705C4.85828 15.6276 4.9561 15.6656 5.06318 15.6773L11.7855 16.4099C12.1304 16.4475 12.4404 16.1984 12.478 15.8536L13.0417 10.6809C13.0669 10.4501 12.9632 10.2354 12.7888 10.107Z" fill="#160F41"/>
    <path d="M11.0658 14.0276C11.0296 14.0276 10.9932 14.0257 10.9569 14.0218L6.53297 13.552C5.96709 13.4919 5.55707 12.9845 5.61718 12.4186L6.03049 8.52649C6.22001 6.74183 7.82615 5.44398 9.61074 5.63364C10.4752 5.72541 11.2523 6.14841 11.7987 6.8246C12.3451 7.50087 12.5955 8.34941 12.5037 9.21389L12.0904 13.106C12.0615 13.3777 11.9258 13.6269 11.7134 13.7986C11.5291 13.9474 11.3003 14.0276 11.0658 14.0276Z" fill="#160F41"/>
    <path d="M10.5775 13.883C10.5413 13.883 10.5049 13.8812 10.4686 13.8773L6.04468 13.4075C5.47881 13.3474 5.06879 12.8399 5.12889 12.2741L5.54221 8.38196C5.73173 6.5973 7.33786 5.29945 9.12246 5.48911C9.98694 5.58088 10.764 6.00388 11.3104 6.68007C11.8568 7.35634 12.1072 8.20488 12.0154 9.06936L11.6021 12.9615C11.5732 13.2332 11.4376 13.4823 11.2251 13.6541C11.0409 13.8029 10.812 13.883 10.5775 13.883Z" fill="#9FDCEE"/>
    <path d="M11.3104 6.68007C10.764 6.00388 9.98694 5.58088 9.12246 5.48911C7.33786 5.29945 5.73173 6.5973 5.54221 8.38196L5.12889 12.2741C5.06879 12.8399 5.47881 13.3474 6.04468 13.4075L10.4686 13.8773C10.5049 13.8812 10.5413 13.883 10.5775 13.883C10.812 13.883 11.0409 13.8029 11.225 13.6541C11.4376 13.4823 11.5732 13.2332 11.602 12.9615L12.0153 9.06936C12.1072 8.20488 11.8568 7.35634 11.3104 6.68007ZM11.5194 9.13235L11.1687 12.6209C11.1442 12.8645 11.0291 13.0878 10.8488 13.2417C10.6925 13.3751 10.4983 13.4469 10.2993 13.4469C10.2686 13.4469 10.2378 13.4452 10.207 13.4418L6.45312 13.0207C5.97297 12.9668 5.62505 12.512 5.67602 12.0048L6.02669 8.51619C6.18749 6.91658 7.55033 5.75329 9.06462 5.92323C9.79817 6.00546 10.4575 6.38463 10.9211 6.99069C11.3849 7.59689 11.5973 8.35751 11.5194 9.13235Z" fill="url(#paint3_linear_18315_90637)"/>
    <path d="M6.4707 12.3029L9.92271 12.6694L10.3653 8.50113C10.4143 8.04008 10.2807 7.58761 9.98941 7.22698C9.69795 6.86635 9.2836 6.64077 8.82262 6.59186C7.87015 6.49061 7.01433 7.18282 6.91328 8.13453L6.4707 12.3029Z" fill="#160F41"/>
    <path d="M9.06335 6.98752C8.19131 6.89479 7.40789 7.52854 7.31537 8.39981L6.91016 12.2159L9.93669 12.5372L10.365 8.50299C10.3892 8.27562 10.3688 8.05038 10.3071 7.8371C10.2582 7.74306 10.1996 7.65321 10.1315 7.56893C9.8647 7.2388 9.48539 7.03231 9.06335 6.98752Z" fill="#D2006E"/>
    <path d="M11.3391 16.0564L4.61679 15.3237C4.27189 15.2861 4.02282 14.9761 4.06039 14.6312L4.62414 9.45859C4.66171 9.11369 4.97178 8.86461 5.31661 8.90219L12.0389 9.63485C12.3838 9.67242 12.6329 9.98249 12.5953 10.3273L12.0316 15.5C11.9941 15.8449 11.684 16.094 11.3391 16.0564Z" fill="#9FDCEE"/>
    <path d="M11.3391 16.0564L4.61679 15.3237C4.27189 15.2861 4.02282 14.9761 4.06039 14.6312L4.62414 9.45859C4.66171 9.11369 4.97178 8.86461 5.31661 8.90219L12.0389 9.63485C12.3838 9.67242 12.6329 9.98249 12.5953 10.3273L12.0316 15.5C11.9941 15.8449 11.684 16.094 11.3391 16.0564Z" fill="url(#paint4_linear_18315_90637)"/>
    <path d="M9.15063 11.9696C9.19369 11.5257 8.86879 11.1309 8.42484 11.0878C7.98089 11.0447 7.58612 11.3697 7.54305 11.8136C7.52265 12.0235 7.58529 12.2219 7.70324 12.3779L7.43555 13.6817L8.89709 13.8235L8.88507 12.4926C9.03062 12.3622 9.13022 12.1795 9.15063 11.9696Z" fill="#160F41"/>
    <path d="M8.88358 11.3739C8.84869 11.3657 8.81324 11.3589 8.77663 11.3554C8.33268 11.3123 7.93791 11.6372 7.89484 12.0812C7.87444 12.2911 7.93709 12.4895 8.05503 12.6455L7.83398 13.7219L8.89602 13.825L8.884 12.494C9.02969 12.3636 9.12929 12.181 9.14969 11.9711C9.16226 11.8415 9.14269 11.7164 9.09872 11.6026C9.0426 11.5135 8.96972 11.4355 8.88358 11.3739Z" fill="#D2006E"/>
    <defs>
        <linearGradient id="paint0_linear_18315_90637" x1="12.4994" y1="6.02598" x2="9.13206" y2="21.1263" gradientUnits="userSpaceOnUse">
            <stop stop-color="white"/>
            <stop offset="1" stop-color="white" stop-opacity="0"/>
        </linearGradient>
        <linearGradient id="paint1_linear_18315_90637" x1="-1.4816e-05" y1="6.25617" x2="11.3408" y2="6.25617" gradientUnits="userSpaceOnUse">
            <stop stop-color="white" stop-opacity="0"/>
            <stop offset="1" stop-color="white"/>
        </linearGradient>
        <linearGradient id="paint2_linear_18315_90637" x1="2.04103" y1="12.8956" x2="18.6908" y2="12.8956" gradientUnits="userSpaceOnUse">
            <stop stop-color="white" stop-opacity="0"/>
            <stop offset="1" stop-color="white"/>
        </linearGradient>
        <linearGradient id="paint3_linear_18315_90637" x1="6.84844" y1="13.8608" x2="11.9696" y2="3.89909" gradientUnits="userSpaceOnUse">
            <stop offset="0.4433" stop-color="white" stop-opacity="0"/>
            <stop offset="1" stop-color="white"/>
        </linearGradient>
        <linearGradient id="paint4_linear_18315_90637" x1="7.39662" y1="14.2975" x2="10.343" y2="8.54502" gradientUnits="userSpaceOnUse">
            <stop offset="0.2526" stop-color="white" stop-opacity="0"/>
            <stop offset="1" stop-color="white"/>
        </linearGradient>
    </defs>
</svg>
