<svg width="32" height="32" viewBox="0 0 32 32" fill="none" xmlns="http://www.w3.org/2000/svg">
  <g clip-path="url(#clip0_397_13717)">
    <circle opacity="0.5" cx="16" cy="16" r="16" fill="white" />
  </g>
  <g clip-path="url(#clip1_397_13717)">
    <path d="M8.6665 16C8.6665 16 11.3332 10.6666 15.9998 10.6666C20.6665 10.6666 23.3332 16 23.3332 16C23.3332 16 20.6665 21.3333 15.9998 21.3333C11.3332 21.3333 8.6665 16 8.6665 16Z" stroke="white" stroke-width="1.5" stroke-linecap="round" stroke-linejoin="round" />
    <path d="M16 18C17.1046 18 18 17.1046 18 16C18 14.8954 17.1046 14 16 14C14.8954 14 14 14.8954 14 16C14 17.1046 14.8954 18 16 18Z" stroke="white" stroke-width="1.5" stroke-linecap="round" stroke-linejoin="round" />
    <!-- Línea inclinada para indicar ocultar -->
    <line x1="8" y1="8" x2="24" y2="24" stroke="white" stroke-width="1.5" stroke-linecap="round" stroke-linejoin="round" />
  </g>
  <defs>
    <clipPath id="clip0_397_13717">
      <rect width="32" height="32" fill="white" />
    </clipPath>
    <clipPath id="clip1_397_13717">
      <rect width="16" height="16" fill="white" transform="translate(8 8)" />
    </clipPath>
  </defs>
</svg>
