<svg width="24" height="24" viewBox="0 0 24 24" fill="none" xmlns="http://www.w3.org/2000/svg">
<g id="call">
<path id="Vector" d="M18.0245 21.9998C17.1531 21.9998 15.929 21.6846 14.0959 20.6605C11.8669 19.4105 10.1428 18.2565 7.92577 16.0453C5.78824 13.9091 4.74805 12.5261 3.29223 9.87691C1.64756 6.88581 1.92793 5.31793 2.24132 4.64783C2.61454 3.84693 3.16544 3.36791 3.8775 2.89245C4.28195 2.62747 4.70995 2.40031 5.15609 2.21387C5.20073 2.19468 5.24225 2.17637 5.27931 2.15986C5.50029 2.0603 5.83512 1.90985 6.25923 2.07057C6.54227 2.17682 6.79495 2.39423 7.19049 2.78486C8.00166 3.58487 9.11015 5.36659 9.51909 6.2416C9.79364 6.83134 9.97534 7.22063 9.97579 7.65724C9.97579 8.16841 9.71864 8.56261 9.40659 8.98806C9.3481 9.06797 9.29007 9.14431 9.23382 9.21842C8.89408 9.66486 8.81953 9.79388 8.86863 10.0242C8.96819 10.4872 9.71061 11.8653 10.9307 13.0828C12.1508 14.3002 13.4892 14.9957 13.954 15.0948C14.1941 15.1462 14.3258 15.0685 14.7866 14.7167C14.8526 14.6663 14.9205 14.614 14.9915 14.5618C15.4674 14.2078 15.8433 13.9573 16.3424 13.9573H16.3451C16.7794 13.9573 17.1513 14.1457 17.7674 14.4564C18.571 14.8618 20.4063 15.956 21.2112 16.7681C21.6027 17.1627 21.821 17.4145 21.9277 17.6971C22.0884 18.1225 21.9371 18.456 21.8384 18.6793C21.8219 18.7163 21.8036 18.7569 21.7844 18.802C21.5965 19.2474 21.368 19.6745 21.1018 20.0779C20.6273 20.7878 20.1464 21.3373 19.3438 21.711C18.9316 21.9059 18.4805 22.0047 18.0245 21.9998Z" fill="#121212"/>
</g>
</svg>
