<svg width="24" height="24" viewBox="0 0 24 24" fill="none"
    xmlns="http://www.w3.org/2000/svg">
    <g clip-path="url(#clip0_18315_90623)">
        <rect x="1.5" y="1.5" width="21" height="21" rx="1.375" fill="#424242"/>
    </g>
    <path d="M8.78123 17.25C11.5599 17.25 13.8125 15.0674 13.8125 12.375C13.8125 9.68261 11.5599 7.5 8.78123 7.5C6.00256 7.5 3.75 9.68261 3.75 12.375C3.75 15.0674 6.00256 17.25 8.78123 17.25Z" fill="#EA001B"/>
    <path d="M15.9687 17.25C18.7474 17.25 21 15.0674 21 12.375C21 9.68261 18.7474 7.5 15.9687 7.5C13.1901 7.5 10.9375 9.68261 10.9375 12.375C10.9375 15.0674 13.1901 17.25 15.9687 17.25Z" fill="#FFA200" fill-opacity="0.8"/>
    <defs>
        <clipPath id="clip0_18315_90623">
            <rect x="1.5" y="1.5" width="21" height="21" rx="1.5" fill="white"/>
        </clipPath>
    </defs>
</svg>
