<svg width="16" height="20" viewBox="0 0 16 20" fill="none" xmlns="http://www.w3.org/2000/svg">
<path d="M15.6783 8.57143H9.42829C8.85997 8.57143 8.31493 8.34566 7.91306 7.9438C7.5112 7.54194 7.28544 6.99689 7.28544 6.42857V0.178571C7.28544 0.131211 7.26662 0.085791 7.23313 0.0523024C7.19965 0.0188138 7.15422 0 7.10686 0H2.99972C2.24196 0 1.51523 0.30102 0.979416 0.836838C0.443598 1.37266 0.142578 2.09938 0.142578 2.85714V17.1429C0.142578 17.9006 0.443598 18.6273 0.979416 19.1632C1.51523 19.699 2.24196 20 2.99972 20H12.9997C13.7575 20 14.4842 19.699 15.02 19.1632C15.5558 18.6273 15.8569 17.9006 15.8569 17.1429V8.75C15.8569 8.70264 15.8381 8.65722 15.8046 8.62373C15.7711 8.59024 15.7257 8.57143 15.6783 8.57143Z" fill="#121212"/>
<path d="M15.2863 6.99062L8.86624 0.570536C8.85375 0.558124 8.83788 0.549681 8.82061 0.546266C8.80334 0.542852 8.78544 0.54462 8.76917 0.551347C8.75291 0.558074 8.73899 0.56946 8.72917 0.584074C8.71936 0.598688 8.71408 0.615878 8.71401 0.633482V6.42857C8.71401 6.61801 8.78926 6.79969 8.92322 6.93365C9.05717 7.0676 9.23885 7.14286 9.42829 7.14286H15.2234C15.241 7.14278 15.2582 7.13751 15.2728 7.12769C15.2874 7.11788 15.2988 7.10396 15.3055 7.08769C15.3122 7.07142 15.314 7.05353 15.3106 7.03626C15.3072 7.01899 15.2987 7.00311 15.2863 6.99062Z" fill="#121212"/>
</svg>
