<svg width="21" height="18" viewBox="0 0 21 18" fill="none" xmlns="http://www.w3.org/2000/svg">
<path id="Sidebar" opacity="0.9" d="M2.8916 17.4778H17.9297C19.8369 17.4778 20.8301 16.4618 20.8301 14.5204V3.4799C20.8301 1.53851 19.8369 0.522461 17.9297 0.522461H2.8916C0.993164 0.522461 0 1.52944 0 3.4799V14.5204C0 16.4618 0.993164 17.4778 2.8916 17.4778ZM3.00586 15.6725C2.19727 15.6725 1.74902 15.2371 1.74902 14.3571V3.64319C1.74902 2.76322 2.19727 2.32777 3.00586 2.32777H7.01367V15.6725H3.00586ZM17.8154 2.32777C18.624 2.32777 19.0723 2.76322 19.0723 3.64319V14.3571C19.0723 15.2371 18.624 15.6725 17.8154 15.6725H8.6748V2.32777H17.8154ZM5.29102 5.64808C5.60742 5.64808 5.87109 5.36685 5.87109 5.05841C5.87109 4.74996 5.60742 4.47781 5.29102 4.47781H3.48926C3.17285 4.47781 2.90918 4.74996 2.90918 5.05841C2.90918 5.36685 3.17285 5.64808 3.48926 5.64808H5.29102ZM5.29102 8.08842C5.60742 8.08842 5.87109 7.81626 5.87109 7.49875C5.87109 7.1903 5.60742 6.91815 5.29102 6.91815H3.48926C3.17285 6.91815 2.90918 7.1903 2.90918 7.49875C2.90918 7.81626 3.17285 8.08842 3.48926 8.08842H5.29102ZM5.29102 10.5197C5.60742 10.5197 5.87109 10.2566 5.87109 9.93909C5.87109 9.63064 5.60742 9.36756 5.29102 9.36756H3.48926C3.17285 9.36756 2.90918 9.63064 2.90918 9.93909C2.90918 10.2566 3.17285 10.5197 3.48926 10.5197H5.29102Z" fill="#717171"/>
</svg>
