<svg width="22" height="22" viewBox="0 0 22 22" fill="none" xmlns="http://www.w3.org/2000/svg">
<path fill-rule="evenodd" clip-rule="evenodd" d="M18.4405 3.55161C17.4697 2.58039 16.3165 1.81077 15.0471 1.28706C13.7777 0.763341 12.4172 0.495872 11.0441 0.500048C5.28125 0.500048 0.59 5.16786 0.587656 10.9063C0.585107 12.7335 1.06676 14.5288 1.98359 16.1094L0.5 21.5L6.04297 20.053C7.57729 20.8842 9.29484 21.3193 11.0398 21.3186H11.0441C16.8064 21.3186 21.4972 16.6504 21.5 10.9124C21.5035 9.5439 21.2348 8.18839 20.7095 6.92471C20.1843 5.66103 19.413 4.51442 18.4405 3.55161ZM11.0441 19.5622H11.0403C9.48471 19.5627 7.95739 19.1464 6.61719 18.3566L6.29984 18.1691L3.01062 19.0279L3.88859 15.8361L3.68187 15.508C2.81206 14.1309 2.35121 12.5351 2.35297 10.9063C2.35297 6.1377 6.25344 2.25786 11.0473 2.25786C13.347 2.25375 15.5542 3.16327 17.1833 4.78636C18.8125 6.40944 19.7302 8.61318 19.7347 10.9129C19.7328 15.6819 15.8342 19.5622 11.0441 19.5622ZM15.8108 13.0846C15.5497 12.9543 14.2639 12.3252 14.0258 12.2385C13.7877 12.1518 13.6119 12.1082 13.438 12.3688C13.2641 12.6294 12.763 13.2126 12.6106 13.3883C12.4583 13.5641 12.3059 13.5833 12.0448 13.453C11.7838 13.3227 10.9414 13.0485 9.94344 12.1625C9.16672 11.473 8.64266 10.6218 8.49031 10.3616C8.33797 10.1015 8.47391 9.96036 8.60469 9.83099C8.72234 9.71427 8.86578 9.52724 8.99656 9.37536C9.12734 9.22349 9.17094 9.11474 9.25766 8.9413C9.34437 8.76786 9.30125 8.61599 9.23609 8.48614C9.17094 8.3563 8.64828 7.07614 8.43078 6.55536C8.21844 6.04817 8.00328 6.11708 7.84297 6.10911C7.69062 6.10161 7.51484 6.09974 7.34188 6.09974C7.20965 6.10318 7.07955 6.13384 6.9597 6.18981C6.83985 6.24579 6.73283 6.32586 6.64531 6.42505C6.40578 6.68567 5.73078 7.31567 5.73078 8.59442C5.73078 9.87317 6.66828 11.1107 6.79766 11.2841C6.92703 11.4575 8.63984 14.084 11.2606 15.2104C11.7473 15.4188 12.2445 15.6015 12.7503 15.7579C13.3761 15.9557 13.9456 15.928 14.3956 15.861C14.8977 15.7865 15.9425 15.2319 16.1595 14.6244C16.3766 14.0169 16.377 13.4966 16.3119 13.3883C16.2467 13.2801 16.0723 13.2144 15.8108 13.0846Z" fill="black"/>
</svg>
