<svg width="161" height="162" viewBox="0 0 161 162" fill="none" xmlns="http://www.w3.org/2000/svg">
    <path
        d="M68.5172 161.305C57.1013 161.135 45.9675 157.729 36.4075 151.481C24.0057 143.585 14.0067 132.433 7.50028 119.24C0.901236 105.773 -1.39146 90.8977 1.04679 77.37C2.25985 70.339 6.93014 61.9723 14.0872 60.2236C15.7375 59.7464 17.471 59.6296 19.1704 59.881C20.8697 60.1324 22.4953 60.7461 23.9372 61.6808C29.4081 65.3238 31.3855 73.3627 32.089 77.8315C33.6903 88.1412 35.5827 99.0823 39.5372 109.501C42.2424 116.629 47.1188 126.757 52.6989 133.788C60.998 144.189 72.3745 151.692 85.1968 155.221C100.081 149.744 109.604 137.54 117.683 125.154C118.653 123.673 119.611 122.118 120.533 120.613C123.845 115.184 127.278 109.586 132.409 105.53C139.202 100.163 150.314 98.5237 156.44 105.251C157.974 107.061 159.094 109.184 159.722 111.473C160.351 113.761 160.473 116.159 160.079 118.5C159.295 122.943 157.552 127.161 154.972 130.862C149.061 139.873 141.022 147.287 131.566 152.447C122.11 157.607 111.529 160.353 100.76 160.443C100.093 160.443 99.4381 160.443 98.7831 160.443C94.2534 160.288 89.7543 159.637 85.3666 158.5C79.9473 160.375 74.2511 161.323 68.5172 161.305ZM38.0573 148.846C51.6193 157.346 66.2973 160.139 79.9321 156.836C68.2682 152.717 57.9924 145.405 50.2728 135.731C44.4622 128.445 39.4159 117.953 36.638 110.606C32.5743 99.896 30.6455 88.7483 29.02 78.305C28.4013 74.3463 26.703 67.2667 22.2147 64.2673C21.1312 63.5705 19.9091 63.1183 18.6333 62.9421C17.3575 62.7659 16.0587 62.8701 14.8272 63.2473C9.2714 64.6074 5.23188 71.6626 4.10373 77.9286C1.78678 90.8127 3.98239 104.996 10.2903 117.88C16.539 130.553 26.1439 141.264 38.0573 148.846ZM90.4008 156.411C93.2046 156.925 96.0432 157.225 98.8923 157.31C109.457 157.55 119.91 155.096 129.266 150.178C138.623 145.26 146.575 138.041 152.376 129.198C154.705 125.869 156.286 122.074 157.01 118.075C157.347 116.19 157.27 114.254 156.784 112.403C156.298 110.551 155.415 108.827 154.196 107.352C149.428 102.13 140.1 103.454 134.386 107.983C129.692 111.699 126.404 117.054 123.226 122.252C122.292 123.77 121.322 125.348 120.327 126.866C112.673 138.524 103.781 150.072 90.4008 156.411Z"
        fill="white" />
    <path
        d="M17.5937 102.322C16.4112 102.317 15.2337 102.166 14.088 101.873C6.93093 100.124 2.3213 91.7573 1.04759 84.7263C-1.37853 71.1986 0.902032 56.3351 7.50108 42.856C14.0046 29.6645 24.0045 18.5157 36.4083 10.6276C52.2509 0.657871 69.5977 -1.8194 85.331 3.62083C89.7199 2.48982 94.2183 1.8384 98.7475 1.67792C109.847 1.43245 120.826 4.01498 130.655 9.18302C140.484 14.3511 148.839 21.9351 154.936 31.2227C157.515 34.9281 159.257 39.1503 160.043 43.5968C160.435 45.9372 160.313 48.3349 159.684 50.623C159.056 52.9111 157.936 55.0345 156.404 56.8452C150.278 63.5604 139.154 61.9211 132.373 56.5537C127.242 52.51 123.809 46.8391 120.498 41.4839C119.576 39.9781 118.617 38.4116 117.647 36.9301C109.568 24.5439 100.045 12.3398 85.1612 6.87531C72.3389 10.4039 60.9624 17.9069 52.6633 28.3083C47.0833 35.3514 42.2067 45.4668 39.5016 52.595C35.547 63.0261 33.6546 73.9673 32.0534 84.277C31.3498 88.7337 29.3726 96.7604 23.9017 100.416C22.0373 101.669 19.8397 102.334 17.5937 102.322ZM68.5423 3.96088C57.712 4.13312 47.1516 7.37067 38.0823 13.2991C26.1681 20.8854 16.5633 31.6008 10.3154 44.2768C4.00747 57.1609 1.824 71.3443 4.12881 84.2284C5.25696 90.4944 9.2964 97.5861 14.8522 98.8976C16.0833 99.2781 17.3827 99.384 18.659 99.2078C19.9353 99.0316 21.1576 98.5775 22.2398 97.8776C26.7281 94.8904 28.4264 87.7986 29.045 83.852C30.6705 73.3723 32.5993 62.249 36.6631 51.5385C39.441 44.1918 44.4873 33.7364 50.2979 26.4261C58.0166 16.7513 68.2926 9.43898 79.9572 5.32093C76.2142 4.39479 72.3736 3.9219 68.518 3.91233L68.5423 3.96088ZM90.3773 5.73383C103.721 12.0848 112.649 23.6088 120.255 35.2786C121.25 36.8086 122.22 38.3751 123.154 39.9052C126.332 45.0904 129.62 50.4578 134.314 54.1736C140.028 58.6909 149.356 60.0267 154.124 54.7929C155.342 53.3195 156.225 51.5981 156.711 49.7485C157.197 47.8988 157.274 45.9652 156.938 44.0825C156.217 40.0786 154.636 36.2793 152.304 32.9471C146.502 24.106 138.549 16.8873 129.193 11.9697C119.836 7.05202 109.385 4.59691 98.8203 4.83516C95.9975 4.91938 93.1843 5.20345 90.4016 5.68521L90.3773 5.73383Z"
        fill="white" />
</svg>