<svg width="250" height="223" viewBox="0 0 250 223" fill="none" xmlns="http://www.w3.org/2000/svg">
<g clip-path="url(#clip0_216_8)">
<path d="M113.539 161.425C102.103 161.256 90.9502 157.847 81.3736 151.594C68.9502 143.692 58.9339 132.532 52.4162 119.329C45.8057 105.852 43.509 90.9658 45.9515 77.4281C47.1667 70.3918 51.8451 62.0188 59.0145 60.2689C60.6677 59.7914 62.4042 59.6744 64.1065 59.926C65.8088 60.1776 67.4372 60.7918 68.8817 61.7271C74.362 65.3728 76.3428 73.4178 77.0476 77.8899C78.6516 88.2072 80.5473 99.1565 84.5087 109.583C87.2185 116.717 92.1035 126.852 97.6932 133.888C106.007 144.297 117.403 151.806 130.247 155.337C145.158 149.856 154.697 137.643 162.79 125.248C163.762 123.765 164.722 122.21 165.645 120.703C168.963 115.271 172.402 109.668 177.542 105.609C184.347 100.238 195.477 98.5975 201.614 105.33C203.15 107.141 204.273 109.266 204.902 111.556C205.532 113.846 205.654 116.246 205.26 118.588C204.474 123.035 202.728 127.256 200.144 130.959C194.223 139.978 186.169 147.397 176.697 152.561C167.225 157.724 156.626 160.473 145.838 160.562C145.17 160.562 144.513 160.562 143.857 160.562C139.32 160.408 134.813 159.756 130.418 158.618C124.989 160.495 119.283 161.444 113.539 161.425ZM83.0262 148.957C96.6117 157.464 111.315 160.259 124.974 156.953C113.289 152.831 102.996 145.513 95.2629 135.832C89.4423 128.541 84.3872 118.041 81.6045 110.689C77.5337 99.9707 75.6015 88.8148 73.9732 78.3637C73.3535 74.4021 71.6523 67.3172 67.1561 64.3156C66.0708 63.6182 64.8465 63.1657 63.5685 62.9894C62.2905 62.8131 60.9895 62.9174 59.7558 63.2948C54.1904 64.6559 50.1439 71.7164 49.0138 77.987C46.6928 90.8807 48.8922 105.075 55.2111 117.968C61.4706 130.65 71.0921 141.369 83.0262 148.957ZM135.461 156.528C138.269 157.042 141.113 157.342 143.967 157.427C154.55 157.668 165.021 155.212 174.393 150.29C183.766 145.369 191.732 138.144 197.543 129.294C199.876 125.963 201.46 122.165 202.185 118.163C202.523 116.277 202.446 114.34 201.959 112.487C201.472 110.633 200.587 108.909 199.366 107.432C194.59 102.207 185.246 103.531 179.522 108.064C174.82 111.783 171.527 117.142 168.343 122.343C167.407 123.862 166.435 125.442 165.439 126.961C157.771 138.627 148.864 150.184 135.461 156.528Z" fill="#D2006E"/>
<path d="M62.5263 102.402C61.3417 102.397 60.1622 102.246 59.0145 101.953C51.845 100.203 47.2274 91.8298 45.9515 84.7936C43.5211 71.2558 45.8056 56.3813 52.4161 42.8921C58.931 29.6908 68.9482 18.5338 81.3735 10.6398C97.2436 0.662649 114.62 -1.81646 130.381 3.62781C134.778 2.49596 139.284 1.84405 143.821 1.68345C154.939 1.4378 165.938 4.02225 175.784 9.19414C185.63 14.366 193.999 21.9557 200.107 31.2502C202.69 34.9583 204.435 39.1837 205.223 43.6335C205.616 45.9756 205.493 48.3751 204.863 50.6649C204.234 52.9548 203.112 55.0797 201.578 56.8917C195.441 63.612 184.298 61.9714 177.505 56.6001C172.365 52.5533 168.926 46.8782 165.609 41.519C164.685 40.0121 163.725 38.4444 162.753 36.9618C154.66 24.5664 145.121 12.3533 130.211 6.88471C117.366 10.4159 105.97 17.9245 97.6567 28.3336C92.067 35.382 87.182 45.5049 84.4722 52.6384C80.5107 63.0773 78.6151 74.0266 77.011 84.344C76.3062 88.8039 74.3256 96.8366 68.8452 100.494C66.9776 101.749 64.7762 102.414 62.5263 102.402ZM113.563 3.96811C102.714 4.14048 92.1355 7.38043 83.0504 13.3133C71.1155 20.9052 61.4941 31.6286 55.2353 44.314C48.9165 57.2077 46.7292 71.4016 49.038 84.2953C50.1681 90.5659 54.2146 97.6629 59.78 98.9754C61.0132 99.3562 62.3149 99.4622 63.5934 99.2858C64.872 99.1095 66.0963 98.6551 67.1804 97.9546C71.6765 94.9652 73.3777 87.8681 73.9975 83.9186C75.6258 73.4311 77.5579 62.2995 81.6287 51.5811C84.4115 44.2289 89.4665 33.7657 95.2872 26.45C103.019 16.768 113.313 9.45029 124.998 5.32917C121.248 4.40235 117.401 3.9291 113.539 3.91953L113.563 3.96811ZM135.436 5.74238C148.803 12.0981 157.747 23.6306 165.366 35.3091C166.362 36.8403 167.334 38.4079 168.27 39.9391C171.454 45.1282 174.747 50.4995 179.449 54.2182C185.173 58.7389 194.517 60.0756 199.293 54.8379C200.513 53.3635 201.398 51.6408 201.885 49.7897C202.371 47.9387 202.449 46.0037 202.112 44.1195C201.39 40.1127 199.806 36.3105 197.47 32.9758C191.658 24.1282 183.691 16.9042 174.319 11.9829C164.946 7.06155 154.477 4.60461 143.894 4.84304C141.066 4.92732 138.248 5.2116 135.46 5.69373L135.436 5.74238Z" fill="#D2006E"/>
<path d="M155.123 184.268C155.123 183.417 155.46 182.601 156.061 181.999C156.661 181.398 157.476 181.06 158.325 181.06H168.8C174.841 181.06 179.577 182.694 182.936 185.902C186.295 189.11 187.962 193.722 187.962 199.581C187.962 205.44 186.283 210.028 182.936 213.297C179.589 216.565 174.877 218.2 168.8 218.2H155.123V184.268ZM168.413 212.704C176.943 212.704 181.208 208.342 181.208 199.617C181.208 190.893 176.943 186.555 168.413 186.604H161.949V212.704H168.413Z" fill="black"/>
<path d="M200.431 217.546C198.134 216.873 195.989 215.764 194.112 214.277L194.849 212.667C195.031 212.271 195.293 211.916 195.616 211.624C195.94 211.332 196.32 211.109 196.732 210.969C197.145 210.828 197.581 210.774 198.016 210.807C198.45 210.841 198.873 210.963 199.259 211.166C200.148 211.65 201.078 212.055 202.038 212.377C204.122 213.025 206.294 213.348 208.477 213.333C210.539 213.453 212.593 212.983 214.398 211.977C215.064 211.586 215.61 211.019 215.976 210.338C216.343 209.657 216.515 208.888 216.476 208.115C216.491 207.452 216.318 206.797 215.978 206.228C215.639 205.658 215.145 205.196 214.555 204.895C212.531 203.901 210.38 203.192 208.163 202.789C205.58 202.28 203.057 201.501 200.636 200.465C198.911 199.748 197.407 198.587 196.274 197.099C195.239 195.558 194.722 193.726 194.8 191.87C194.771 189.781 195.396 187.736 196.589 186.023C197.866 184.236 199.615 182.84 201.639 181.991C204.018 180.983 206.583 180.488 209.166 180.539C211.688 180.537 214.193 180.946 216.584 181.749C218.717 182.416 220.688 183.521 222.372 184.994L221.671 186.543C221.491 186.94 221.231 187.296 220.909 187.589C220.587 187.882 220.208 188.106 219.797 188.248C219.385 188.389 218.949 188.445 218.515 188.413C218.081 188.38 217.659 188.258 217.273 188.056C214.79 186.688 211.999 185.98 209.166 185.998C207.179 185.891 205.206 186.394 203.512 187.439C202.848 187.877 202.308 188.48 201.944 189.188C201.58 189.896 201.404 190.686 201.433 191.482C201.405 192.151 201.561 192.815 201.885 193.4C202.209 193.985 202.688 194.47 203.27 194.799C205.232 195.842 207.343 196.573 209.528 196.966C212.134 197.503 214.682 198.285 217.14 199.302C218.881 200.016 220.417 201.152 221.61 202.607C222.691 204.067 223.241 205.852 223.169 207.667C223.208 209.746 222.591 211.784 221.405 213.49C220.112 215.245 218.336 216.583 216.294 217.34C213.782 218.287 211.112 218.743 208.429 218.684C205.721 218.711 203.024 218.327 200.431 217.546Z" fill="black"/>
<path d="M10.4403 216.359C7.73548 214.813 5.55547 212.489 4.18183 209.689C2.74407 206.533 2 203.104 2 199.635C2 196.166 2.74407 192.737 4.18183 189.581C5.56003 186.791 7.7395 184.476 10.4403 182.936C13.3587 181.321 16.6522 180.51 19.9851 180.587C22.3886 180.587 24.7746 180.996 27.0411 181.798C29.1078 182.487 31.0087 183.601 32.623 185.066L30.412 189.957C28.9127 188.727 27.2286 187.742 25.4221 187.039C23.7363 186.414 21.9519 186.098 20.1543 186.107C18.599 186.017 17.0436 186.284 15.6071 186.888C14.1706 187.493 12.891 188.418 11.866 189.594C9.91677 191.91 8.94217 195.247 8.94217 199.605C8.94217 203.999 9.92079 207.365 11.866 209.677C12.891 210.852 14.1706 211.778 15.6071 212.382C17.0436 212.986 18.599 213.253 20.1543 213.163C21.9506 213.17 23.734 212.859 25.4221 212.243C27.2258 211.535 28.9091 210.551 30.412 209.326L32.6834 214.277C31.0691 215.743 29.1682 216.856 27.1015 217.545C24.8351 218.347 22.449 218.756 20.0456 218.756C16.6872 218.835 13.3696 218.007 10.4403 216.359Z" fill="black"/>
<path d="M39.8843 218.236V181.06H43.5089C44.358 181.06 45.1724 181.398 45.7729 181.999C46.3733 182.601 46.7106 183.417 46.7106 184.268V212.643H60.8225C61.6717 212.643 62.486 212.981 63.0864 213.583C63.6869 214.184 64.0242 215 64.0242 215.851V218.272L39.8843 218.236Z" fill="black"/>
<path d="M70.1378 218.236V181.06H91.7767C92.6259 181.06 93.4402 181.398 94.0407 181.999C94.6411 182.601 94.9785 183.417 94.9785 184.268V186.447H76.7708V196.664H90.7256C91.5747 196.664 92.3891 197.002 92.9895 197.603C93.59 198.205 93.9273 199.021 93.9273 199.872V201.99H76.7708V212.885H91.7767C92.6259 212.885 93.4402 213.223 94.0407 213.825C94.6411 214.426 94.9785 215.242 94.9785 216.093V218.26L70.1378 218.236Z" fill="black"/>
<path d="M108.329 216.384C105.673 214.834 103.54 212.523 102.204 209.75C100.79 206.566 100.059 203.12 100.059 199.636C100.059 196.151 100.79 192.705 102.204 189.521C103.541 186.751 105.68 184.448 108.341 182.912C111.242 181.385 114.47 180.587 117.747 180.587C121.024 180.587 124.252 181.385 127.153 182.912C129.779 184.463 131.883 186.764 133.194 189.521C134.612 192.704 135.344 196.15 135.344 199.636C135.344 203.121 134.612 206.567 133.194 209.75C131.858 212.523 129.725 214.834 127.068 216.384C124.18 217.91 120.964 218.708 117.699 218.708C114.433 218.708 111.217 217.91 108.329 216.384ZM125.691 209.75C127.608 207.385 128.567 204.008 128.567 199.617C128.567 195.227 127.608 191.862 125.691 189.521C124.673 188.413 123.436 187.529 122.059 186.924C120.683 186.32 119.196 186.007 117.693 186.007C116.19 186.007 114.703 186.32 113.326 186.924C111.949 187.529 110.713 188.413 109.694 189.521C107.785 191.862 106.831 195.227 106.831 199.617C106.831 204.008 107.785 207.385 109.694 209.75C110.713 210.858 111.949 211.742 113.326 212.347C114.703 212.952 116.19 213.264 117.693 213.264C119.196 213.264 120.683 212.952 122.059 212.347C123.436 211.742 124.673 210.858 125.691 209.75Z" fill="black"/>
<path d="M147.56 210.742H140.25V217.969H147.56V210.742Z" fill="black"/>
<path d="M237.766 157H234.638V180.953H237.766V157Z" fill="black"/>
<path d="M248.167 167.411H224.237V170.542H248.167V167.411Z" fill="black"/>
</g>
<defs>
<clipPath id="clip0_216_8">
<rect width="248.647" height="222.133" fill="white" transform="translate(0.590576 0.808594)"/>
</clipPath>
</defs>
</svg>
